<?xml version="1.0" encoding="UTF-8" standalone="no"?>
<svg xmlns:ffdec="https://www.free-decompiler.com/flash" xmlns:xlink="http://www.w3.org/1999/xlink" ffdec:objectType="shape" height="28.0px" width="34.0px" xmlns="http://www.w3.org/2000/svg">
  <g transform="matrix(1.0, 0.0, 0.0, 1.0, 19.15, -7.0)">
    <path d="M-3.15 18.0 L-3.15 17.0 -2.15 17.0 -2.15 16.0 -3.15 16.0 -3.15 11.0 -2.15 11.0 -2.15 12.0 -0.15 12.0 -0.15 13.0 0.85 13.0 0.85 14.0 2.85 14.0 2.85 12.0 3.85 12.0 3.85 11.0 4.85 11.0 4.85 12.0 5.85 12.0 5.85 15.0 4.85 15.0 4.85 13.0 3.85 13.0 3.85 15.0 2.85 15.0 1.85 15.0 -0.15 15.0 -0.15 14.0 -1.15 14.0 -1.15 13.0 -2.15 13.0 -2.15 15.0 -1.15 15.0 -1.15 17.0 -1.15 18.0 -3.15 18.0 -3.15 19.0 -6.15 19.0 -6.15 18.0 -9.15 18.0 -9.15 17.0 -10.15 17.0 -10.15 16.0 -16.15 16.0 -16.15 17.0 -17.15 17.0 -17.15 20.0 -18.15 20.0 -18.15 21.0 -18.15 25.0 -17.15 25.0 -17.15 26.0 -16.15 26.0 -16.15 27.0 -15.15 27.0 -15.15 28.0 -12.15 28.0 -12.15 29.0 -10.15 29.0 -10.15 30.0 -8.15 30.0 -8.15 31.0 -7.15 31.0 -6.15 31.0 -6.15 29.0 -7.15 29.0 -7.15 27.0 -8.15 27.0 -8.15 25.0 -7.15 25.0 -7.15 27.0 -6.15 27.0 -6.15 29.0 -5.15 29.0 -5.15 31.0 -6.15 31.0 -6.15 32.0 -8.15 32.0 -8.15 33.0 -9.15 33.0 -9.15 34.0 -6.15 34.0 -6.15 33.0 -5.15 33.0 -5.15 32.0 -4.15 32.0 -4.15 31.0 -3.15 31.0 -3.15 30.0 -2.15 30.0 -2.15 29.0 -1.15 29.0 -1.15 30.0 -2.15 30.0 -2.15 31.0 -3.15 31.0 -3.15 32.0 -4.15 32.0 -4.15 33.0 -5.15 33.0 -5.15 34.0 -3.15 34.0 -3.15 33.0 -2.15 33.0 -2.15 32.0 -1.15 32.0 -1.15 31.0 -0.15 31.0 -0.15 30.0 0.85 30.0 0.85 29.0 2.85 29.0 2.85 28.0 1.65 28.0 1.65 27.0 0.65 27.0 0.65 26.0 0.65 24.0 0.65 23.0 1.65 23.0 1.65 22.0 3.65 22.0 3.65 23.0 4.65 23.0 4.65 24.0 8.65 24.0 8.65 25.0 9.85 25.0 9.85 24.0 8.85 24.0 8.85 21.0 9.85 21.0 9.85 20.0 9.85 19.0 8.85 19.0 8.85 18.0 7.85 18.0 7.85 17.0 6.85 17.0 6.85 16.0 5.85 16.0 5.85 15.0 6.85 15.0 6.85 16.0 7.85 16.0 7.85 17.0 8.85 17.0 8.85 18.0 9.85 18.0 9.85 19.0 10.85 19.0 10.85 20.0 13.85 20.0 13.85 21.0 14.85 21.0 14.85 24.0 13.85 24.0 13.85 24.6 13.8 24.6 13.8 26.0 8.85 26.0 8.85 26.1 8.7 26.1 8.7 28.0 6.85 28.0 6.85 29.0 3.85 29.0 3.85 30.0 0.85 30.0 0.85 31.0 -0.15 31.0 -0.15 32.0 -1.15 32.0 -1.15 33.0 -2.15 33.0 -2.15 34.0 -1.15 34.0 -1.15 35.0 -9.15 35.0 -9.15 34.0 -10.15 34.0 -10.15 33.0 -9.15 33.0 -9.15 31.0 -10.15 31.0 -10.15 30.0 -12.15 30.0 -12.15 29.0 -15.15 29.0 -15.15 28.0 -16.15 28.0 -16.15 27.0 -17.15 27.0 -17.15 26.0 -18.15 26.0 -18.15 25.0 -19.15 25.0 -19.15 20.0 -18.15 20.0 -18.15 10.0 -17.15 10.0 -17.15 8.0 -16.15 8.0 -16.15 7.0 -11.15 7.0 -11.15 8.0 -10.15 8.0 -10.15 9.0 -9.15 9.0 -9.15 10.0 -11.15 10.0 -11.15 9.0 -14.15 9.0 -14.15 10.0 -15.15 10.0 -15.15 15.0 -10.15 15.0 -10.15 16.0 -9.15 16.0 -9.15 17.0 -6.15 17.0 -6.15 18.0 -3.15 18.0 M7.85 19.0 L7.85 21.0 6.85 21.0 6.85 19.0 7.85 19.0 M4.85 21.0 L3.85 21.0 3.85 19.0 4.85 19.0 4.85 21.0 M3.65 27.0 L3.65 26.0 7.65 26.0 7.65 25.0 3.65 25.0 3.65 23.0 1.65 23.0 1.65 25.0 2.65 25.0 2.65 26.0 1.65 26.0 1.65 27.0 3.65 27.0 3.65 28.0 6.85 28.0 6.85 27.0 3.65 27.0 M10.85 23.0 L12.85 23.0 12.85 22.0 10.85 22.0 10.85 23.0" fill="#000000" fill-rule="evenodd" stroke="none"/>
    <path d="M-1.15 17.0 L-1.15 15.0 -0.15 15.0 -0.15 17.0 -1.15 17.0 M1.85 15.0 L2.85 15.0 2.85 16.0 1.85 16.0 1.85 15.0 M-9.15 18.0 L-9.15 19.0 -10.15 19.0 -10.15 17.0 -9.15 17.0 -9.15 18.0 M-17.15 20.0 L-17.15 21.0 -18.15 21.0 -18.15 20.0 -17.15 20.0 M-8.15 30.0 L-7.15 30.0 -7.15 31.0 -8.15 31.0 -8.15 30.0 M0.65 26.0 L-0.15 26.0 -0.15 24.0 0.65 24.0 0.65 26.0 M3.65 22.0 L4.85 22.0 4.85 23.0 4.65 23.0 3.65 23.0 3.65 22.0 M9.85 20.0 L8.85 20.0 8.85 19.0 7.85 19.0 7.85 18.0 8.85 18.0 8.85 19.0 9.85 19.0 9.85 20.0 M6.85 17.0 L5.85 17.0 5.85 18.0 4.85 18.0 4.85 17.0 5.85 17.0 5.85 16.0 6.85 16.0 6.85 17.0 M0.85 20.0 L1.85 20.0 1.85 21.0 0.85 21.0 0.85 20.0 M6.85 23.0 L6.85 22.0 7.85 22.0 7.85 23.0 6.85 23.0 M-12.15 18.0 L-11.15 18.0 -11.15 19.0 -12.15 19.0 -12.15 18.0 M-10.15 22.0 L-10.15 21.0 -9.15 21.0 -9.15 22.0 -10.15 22.0 M-10.15 20.0 L-10.15 21.0 -12.15 21.0 -12.15 20.0 -10.15 20.0 M-12.15 21.0 L-12.15 22.0 -13.15 22.0 -13.15 21.0 -12.15 21.0 M-3.15 21.0 L-4.15 21.0 -4.15 20.0 -3.15 20.0 -3.15 21.0 M-5.15 23.0 L-5.15 24.0 -6.15 24.0 -6.15 23.0 -5.15 23.0 M-7.15 21.0 L-6.15 21.0 -6.15 22.0 -7.15 22.0 -7.15 21.0 M-10.15 26.0 L-10.15 27.0 -12.15 27.0 -12.15 26.0 -10.15 26.0" fill="#c4c4c4" fill-rule="evenodd" stroke="none"/>
    <path d="M-3.15 18.0 L-1.15 18.0 -1.15 17.0 -0.15 17.0 -0.15 15.0 -1.15 15.0 -2.15 15.0 -2.15 13.0 -1.15 13.0 -1.15 14.0 -0.15 14.0 -0.15 15.0 1.85 15.0 1.85 16.0 2.85 16.0 2.85 15.0 3.85 15.0 3.85 13.0 4.85 13.0 4.85 15.0 5.85 15.0 5.85 16.0 5.85 17.0 4.85 17.0 4.85 18.0 5.85 18.0 5.85 17.0 6.85 17.0 7.85 17.0 7.85 18.0 7.85 19.0 8.85 19.0 8.85 20.0 9.85 20.0 9.85 21.0 8.85 21.0 8.85 24.0 9.85 24.0 9.85 25.0 8.65 25.0 8.65 24.0 4.65 24.0 4.65 23.0 4.85 23.0 4.85 22.0 3.65 22.0 1.65 22.0 1.65 23.0 0.65 23.0 0.65 24.0 -0.15 24.0 -0.15 26.0 0.65 26.0 0.65 27.0 1.65 27.0 1.65 28.0 2.85 28.0 2.85 29.0 0.85 29.0 0.85 30.0 -0.15 30.0 -0.15 31.0 -1.15 31.0 -1.15 32.0 -2.15 32.0 -2.15 33.0 -3.15 33.0 -3.15 34.0 -5.15 34.0 -5.15 33.0 -4.15 33.0 -4.15 32.0 -3.15 32.0 -3.15 31.0 -2.15 31.0 -2.15 30.0 -1.15 30.0 -1.15 29.0 -2.15 29.0 -2.15 30.0 -3.15 30.0 -3.15 31.0 -4.15 31.0 -4.15 32.0 -5.15 32.0 -5.15 33.0 -6.15 33.0 -6.15 34.0 -9.15 34.0 -9.15 33.0 -8.15 33.0 -8.15 32.0 -6.15 32.0 -6.15 31.0 -5.15 31.0 -5.15 29.0 -6.15 29.0 -6.15 27.0 -7.15 27.0 -7.15 25.0 -8.15 25.0 -8.15 27.0 -7.15 27.0 -7.15 29.0 -6.15 29.0 -6.15 31.0 -7.15 31.0 -7.15 30.0 -8.15 30.0 -10.15 30.0 -10.15 29.0 -12.15 29.0 -12.15 28.0 -15.15 28.0 -15.15 27.0 -16.15 27.0 -16.15 26.0 -17.15 26.0 -17.15 25.0 -18.15 25.0 -18.15 21.0 -17.15 21.0 -17.15 20.0 -17.15 17.0 -16.15 17.0 -16.15 16.0 -10.15 16.0 -10.15 17.0 -10.15 19.0 -9.15 19.0 -9.15 18.0 -6.15 18.0 -6.15 19.0 -3.15 19.0 -3.15 18.0 M7.85 19.0 L6.85 19.0 6.85 21.0 7.85 21.0 7.85 19.0 M4.85 21.0 L4.85 19.0 3.85 19.0 3.85 21.0 4.85 21.0 M0.85 20.0 L0.85 21.0 1.85 21.0 1.85 20.0 0.85 20.0 M3.65 27.0 L6.85 27.0 6.85 28.0 3.65 28.0 3.65 27.0 M6.85 23.0 L7.85 23.0 7.85 22.0 6.85 22.0 6.85 23.0 M-12.15 18.0 L-12.15 19.0 -11.15 19.0 -11.15 18.0 -12.15 18.0 M-10.15 20.0 L-12.15 20.0 -12.15 21.0 -10.15 21.0 -10.15 20.0 M-10.15 22.0 L-9.15 22.0 -9.15 21.0 -10.15 21.0 -10.15 22.0 M-12.15 21.0 L-13.15 21.0 -13.15 22.0 -12.15 22.0 -12.15 21.0 M-7.15 21.0 L-7.15 22.0 -6.15 22.0 -6.15 21.0 -7.15 21.0 M-5.15 23.0 L-6.15 23.0 -6.15 24.0 -5.15 24.0 -5.15 23.0 M-3.15 21.0 L-3.15 20.0 -4.15 20.0 -4.15 21.0 -3.15 21.0 M-10.15 26.0 L-12.15 26.0 -12.15 27.0 -10.15 27.0 -10.15 26.0" fill="#c5c5c5" fill-rule="evenodd" stroke="none"/>
    <path d="M3.65 23.0 L3.65 25.0 7.65 25.0 7.65 26.0 3.65 26.0 3.65 27.0 1.65 27.0 1.65 26.0 2.65 26.0 2.65 25.0 1.65 25.0 1.65 23.0 3.65 23.0 M10.85 23.0 L10.85 22.0 12.85 22.0 12.85 23.0 10.85 23.0" fill="#ffffff" fill-rule="evenodd" stroke="none"/>
  </g>
</svg>
