<?xml version="1.0" encoding="UTF-8" standalone="no"?>
<svg xmlns:ffdec="https://www.free-decompiler.com/flash" xmlns:xlink="http://www.w3.org/1999/xlink" ffdec:objectType="shape" height="11.0px" width="13.0px" xmlns="http://www.w3.org/2000/svg">
  <g transform="matrix(1.0, 0.0, 0.0, 1.0, 36.0, 3.0)">
    <path d="M-33.0 6.0 L-35.0 6.0 -35.0 5.0 -36.0 5.0 -36.0 4.0 -34.0 4.0 -34.0 5.0 -33.0 5.0 -33.0 4.0 -32.0 4.0 -32.0 3.0 -30.0 3.0 -30.0 2.0 -29.0 2.0 -29.0 -2.0 -27.0 -2.0 -27.0 -3.0 -23.0 -3.0 -23.0 2.0 -26.0 2.0 -26.0 5.0 -27.0 5.0 -27.0 6.0 -29.0 6.0 -29.0 7.0 -31.0 7.0 -31.0 8.0 -32.0 8.0 -32.0 7.0 -31.0 7.0 -31.0 6.0 -30.0 6.0 -30.0 5.0 -28.0 5.0 -28.0 4.0 -27.0 4.0 -27.0 1.0 -24.0 1.0 -24.0 -2.0 -26.0 -2.0 -26.0 0.0 -27.0 0.0 -27.0 -1.0 -28.0 -1.0 -28.0 3.0 -29.0 3.0 -29.0 4.0 -32.0 4.0 -32.0 5.0 -33.0 5.0 -33.0 6.0" fill="#000000" fill-rule="evenodd" stroke="none"/>
    <path d="M-32.0 7.0 L-33.0 7.0 -33.0 6.0 -33.0 5.0 -32.0 5.0 -32.0 4.0 -29.0 4.0 -29.0 3.0 -28.0 3.0 -28.0 -1.0 -27.0 -1.0 -27.0 0.0 -26.0 0.0 -26.0 -2.0 -24.0 -2.0 -24.0 1.0 -27.0 1.0 -27.0 4.0 -28.0 4.0 -28.0 5.0 -30.0 5.0 -30.0 6.0 -31.0 6.0 -31.0 7.0 -32.0 7.0" fill="#ffffff" fill-rule="evenodd" stroke="none"/>
  </g>
</svg>
