<?xml version="1.0" encoding="UTF-8" standalone="no"?>
<svg xmlns:ffdec="https://www.free-decompiler.com/flash" xmlns:xlink="http://www.w3.org/1999/xlink" ffdec:objectType="shape" height="9.0px" width="41.0px" xmlns="http://www.w3.org/2000/svg">
  <g transform="matrix(1.0, 0.0, 0.0, 1.0, 22.0, 9.0)">
    <path d="M16.0 -4.0 L12.0 -4.0 12.0 -6.0 11.0 -6.0 11.0 -7.0 9.0 -7.0 9.0 -8.0 8.0 -8.0 8.0 -7.0 6.0 -7.0 5.0 -7.0 5.0 -8.0 7.0 -8.0 7.0 -9.0 10.0 -9.0 10.0 -8.0 12.0 -8.0 12.0 -7.0 13.0 -7.0 13.0 -5.0 16.0 -5.0 16.0 -4.0 18.0 -4.0 18.0 -3.0 19.0 -3.0 19.0 0.0 16.0 0.0 16.0 -1.0 15.0 -1.0 15.0 -2.0 14.0 -2.0 14.0 -1.0 13.0 -1.0 13.0 0.0 12.0 0.0 12.0 -1.0 11.0 -1.0 11.0 -3.0 10.0 -3.0 10.0 -4.0 9.0 -4.0 9.0 -5.0 4.0 -5.0 4.0 -6.0 6.0 -6.0 9.0 -6.0 9.0 -5.0 11.0 -5.0 11.0 -3.0 12.0 -3.0 12.0 -1.0 13.0 -1.0 13.0 -3.0 15.0 -3.0 15.0 -2.0 16.0 -2.0 16.0 -1.0 18.0 -1.0 18.0 -3.0 16.0 -3.0 16.0 -4.0 M-21.0 -3.0 L-21.0 -1.0 -19.0 -1.0 -19.0 0.0 -22.0 0.0 -22.0 -3.0 -21.0 -3.0 -21.0 -4.0 -19.0 -4.0 -19.0 -5.0 -16.0 -5.0 -16.0 -7.0 -15.0 -7.0 -15.0 -8.0 -13.0 -8.0 -13.0 -9.0 -10.0 -9.0 -10.0 -8.0 -8.0 -8.0 -8.0 -7.0 -9.0 -7.0 -11.0 -7.0 -11.0 -8.0 -12.0 -8.0 -12.0 -7.0 -14.0 -7.0 -14.0 -6.0 -15.0 -6.0 -15.0 -4.0 -19.0 -4.0 -19.0 -3.0 -21.0 -3.0 M-19.0 -1.0 L-19.0 -2.0 -18.0 -2.0 -18.0 -3.0 -16.0 -3.0 -16.0 -1.0 -15.0 -1.0 -15.0 -3.0 -14.0 -3.0 -14.0 -5.0 -12.0 -5.0 -12.0 -6.0 -9.0 -6.0 -7.0 -6.0 -7.0 -5.0 -12.0 -5.0 -12.0 -4.0 -13.0 -4.0 -13.0 -3.0 -14.0 -3.0 -14.0 -1.0 -15.0 -1.0 -15.0 0.0 -16.0 0.0 -16.0 -1.0 -17.0 -1.0 -17.0 -2.0 -18.0 -2.0 -18.0 -1.0 -19.0 -1.0" fill="#000000" fill-rule="evenodd" stroke="none"/>
    <path d="M6.0 -7.0 L8.0 -7.0 8.0 -8.0 9.0 -8.0 9.0 -7.0 11.0 -7.0 11.0 -6.0 12.0 -6.0 12.0 -4.0 16.0 -4.0 16.0 -3.0 18.0 -3.0 18.0 -1.0 16.0 -1.0 16.0 -2.0 15.0 -2.0 15.0 -3.0 13.0 -3.0 13.0 -1.0 12.0 -1.0 12.0 -3.0 11.0 -3.0 11.0 -5.0 9.0 -5.0 9.0 -6.0 6.0 -6.0 6.0 -7.0 M-19.0 -1.0 L-21.0 -1.0 -21.0 -3.0 -19.0 -3.0 -19.0 -4.0 -15.0 -4.0 -15.0 -6.0 -14.0 -6.0 -14.0 -7.0 -12.0 -7.0 -12.0 -8.0 -11.0 -8.0 -11.0 -7.0 -9.0 -7.0 -9.0 -6.0 -12.0 -6.0 -12.0 -5.0 -14.0 -5.0 -14.0 -3.0 -15.0 -3.0 -15.0 -1.0 -16.0 -1.0 -16.0 -3.0 -18.0 -3.0 -18.0 -2.0 -19.0 -2.0 -19.0 -1.0" fill="#ffffff" fill-rule="evenodd" stroke="none"/>
  </g>
</svg>
