<?xml version="1.0" encoding="UTF-8" standalone="no"?>
<svg xmlns:ffdec="https://www.free-decompiler.com/flash" xmlns:xlink="http://www.w3.org/1999/xlink" ffdec:objectType="shape" height="12.0px" width="8.0px" xmlns="http://www.w3.org/2000/svg">
  <g transform="matrix(1.0, 0.0, 0.0, 1.0, -34.0, -6.0)">
    <path d="M38.0 7.0 L38.0 6.0 40.0 6.0 40.0 7.0 41.0 7.0 41.0 14.0 42.0 14.0 42.0 18.0 34.0 18.0 34.0 15.0 35.0 15.0 35.0 14.0 38.0 14.0 38.0 8.0 39.0 8.0 39.0 15.0 37.0 15.0 37.0 16.0 35.0 16.0 35.0 17.0 38.0 17.0 38.0 16.0 40.0 16.0 40.0 17.0 41.0 17.0 41.0 15.0 40.0 15.0 40.0 7.0 38.0 7.0" fill="#000000" fill-rule="evenodd" stroke="none"/>
    <path d="M38.0 8.0 L38.0 7.0 40.0 7.0 40.0 15.0 41.0 15.0 41.0 17.0 40.0 17.0 40.0 16.0 38.0 16.0 38.0 17.0 35.0 17.0 35.0 16.0 37.0 16.0 37.0 15.0 39.0 15.0 39.0 8.0 38.0 8.0" fill="#ffffff" fill-rule="evenodd" stroke="none"/>
  </g>
</svg>
