<?xml version="1.0" encoding="UTF-8" standalone="no"?>
<svg xmlns:ffdec="https://www.free-decompiler.com/flash" xmlns:xlink="http://www.w3.org/1999/xlink" ffdec:objectType="shape" height="34.0px" width="18.95px" xmlns="http://www.w3.org/2000/svg">
  <g transform="matrix(1.0, 0.0, 0.0, 1.0, 38.95, -1.0)">
    <path d="M-32.0 6.0 L-31.0 6.0 -31.0 7.0 -30.0 7.0 -30.0 9.0 -26.0 9.0 -26.0 8.0 -24.0 8.0 -24.0 7.0 -22.0 7.0 -22.0 9.0 -21.0 9.0 -21.0 10.0 -20.0 10.0 -20.0 14.0 -22.0 14.0 -22.0 15.0 -25.0 15.0 -25.0 14.0 -27.0 14.0 -27.0 12.0 -28.0 12.0 -28.0 13.0 -32.0 13.0 -32.0 12.0 -33.0 12.0 -33.0 9.0 -32.0 9.0 -32.0 11.0 -31.0 11.0 -31.0 12.0 -29.0 12.0 -29.0 11.0 -26.0 11.0 -26.0 13.0 -24.0 13.0 -24.0 14.0 -22.0 14.0 -22.0 13.0 -21.0 13.0 -21.0 10.0 -22.0 10.0 -22.0 11.0 -25.0 11.0 -25.0 10.0 -30.0 10.0 -30.0 9.0 -31.0 9.0 -31.0 8.0 -32.0 8.0 -32.0 6.0 M-24.0 10.0 L-23.0 10.0 -23.0 8.0 -24.0 8.0 -24.0 10.0" fill="#000000" fill-rule="evenodd" stroke="none"/>
    <path d="M-33.0 9.0 L-33.0 6.0 -32.0 6.0 -32.0 8.0 -31.0 8.0 -31.0 9.0 -30.0 9.0 -30.0 10.0 -25.0 10.0 -25.0 11.0 -22.0 11.0 -22.0 10.0 -21.0 10.0 -21.0 13.0 -22.0 13.0 -22.0 14.0 -24.0 14.0 -24.0 13.0 -26.0 13.0 -26.0 11.0 -29.0 11.0 -29.0 12.0 -31.0 12.0 -31.0 11.0 -32.0 11.0 -32.0 9.0 -33.0 9.0 M-24.0 10.0 L-24.0 8.0 -23.0 8.0 -23.0 10.0 -24.0 10.0" fill="#ffffff" fill-rule="evenodd" stroke="none"/>
    <path d="M-34.0 1.0 L-33.0 1.0 -33.0 4.0 -32.0 4.0 -32.0 5.0 -31.0 5.0 -31.0 6.0 -35.0 6.0 -35.0 4.0 -34.0 4.0 -34.0 1.0 M-35.0 15.0 L-35.0 11.0 -32.0 11.0 -32.0 13.0 -31.0 13.0 -31.0 15.0 -35.0 15.0" fill="#ffffff" fill-rule="evenodd" stroke="none"/>
    <path d="M-33.0 1.0 L-32.0 1.0 -32.0 4.0 -31.0 4.0 -31.0 5.0 -30.0 5.0 -30.0 10.0 -31.0 10.0 -31.0 13.0 -29.9 13.0 -29.9 18.0 -37.0 18.0 -37.0 13.0 -36.0 13.0 -36.0 4.0 -35.0 4.0 -35.0 1.0 -34.0 1.0 -34.0 4.0 -35.0 4.0 -35.0 6.0 -31.0 6.0 -31.0 5.0 -32.0 5.0 -32.0 4.0 -33.0 4.0 -33.0 1.0 M-31.0 7.0 L-35.0 7.0 -35.0 10.0 -31.0 10.0 -31.0 7.0 M-35.0 15.0 L-31.0 15.0 -31.0 13.0 -32.0 13.0 -32.0 11.0 -35.0 11.0 -35.0 15.0" fill="#000000" fill-rule="evenodd" stroke="none"/>
    <path d="M-31.0 7.0 L-31.0 10.0 -35.0 10.0 -35.0 7.0 -31.0 7.0" fill="#656565" fill-rule="evenodd" stroke="none"/>
    <path d="M-30.0 16.0 L-30.0 22.0 -28.95 22.0 -28.95 25.0 -27.95 25.0 -27.95 27.0 -26.95 26.95 -26.95 28.0 -31.8 28.0 -30.95 28.0 -30.95 30.0 -27.95 30.0 -27.95 31.0 -26.95 31.0 -26.95 32.0 -25.95 32.0 -25.95 35.0 -31.95 35.0 -31.95 34.0 -32.95 34.0 -32.95 35.0 -34.95 35.0 -34.95 31.0 -33.95 31.0 -33.95 27.95 -36.0 27.95 -35.95 28.0 -36.0 28.0 -36.0 27.95 -36.95 27.95 -36.95 27.0 -36.0 27.0 -35.95 16.0 -30.0 16.0 M-32.95 28.0 L-32.95 32.0 -33.95 32.0 -33.95 33.0 -30.95 33.0 -30.95 31.0 -31.95 31.0 -31.95 28.0 -32.95 28.0 M-26.95 32.0 L-27.95 32.0 -27.95 33.0 -26.95 33.0 -26.95 32.0 M-28.95 33.0 L-28.95 31.0 -29.95 31.0 -29.95 33.0 -28.95 33.0" fill="#000000" fill-rule="evenodd" stroke="none"/>
    <path d="M-26.95 32.0 L-26.95 33.0 -27.95 33.0 -27.95 32.0 -26.95 32.0 M-32.95 28.0 L-31.95 28.0 -31.95 31.0 -30.95 31.0 -30.95 33.0 -33.95 33.0 -33.95 32.0 -32.95 32.0 -32.95 28.0" fill="#ffffff" fill-rule="evenodd" stroke="none"/>
    <path d="M-28.95 33.0 L-29.95 33.0 -29.95 31.0 -28.95 31.0 -28.95 33.0" fill="#767676" fill-rule="evenodd" stroke="none"/>
    <path d="M-34.95 6.0 L-34.95 7.0 -33.95 7.0 -33.95 8.0 -34.95 8.0 -34.95 14.0 -33.95 14.0 -33.95 15.0 -31.95 15.0 -31.95 16.0 -31.0 16.0 -31.0 18.0 -35.0 18.0 -35.0 17.75 -34.95 17.75 -34.95 17.05 -35.0 17.05 -35.0 17.0 -36.0 17.0 -36.0 18.0 -37.0 18.0 -37.0 18.1 -37.95 18.1 -37.95 17.0 -38.95 17.0 -38.95 14.0 -37.95 14.0 -37.95 12.0 -38.0 12.0 -38.0 11.0 -37.95 11.0 -37.95 7.0 -36.95 7.0 -36.95 5.0 -35.95 5.0 -35.95 6.0 -34.95 6.0 M-36.95 7.0 L-36.95 11.0 -37.0 11.0 -37.0 12.0 -36.95 12.0 -36.95 15.0 -37.95 15.0 -37.95 17.0 -36.95 17.0 -36.95 16.0 -34.95 16.0 -34.95 17.0 -31.95 17.0 -31.95 16.0 -33.95 16.0 -33.95 15.0 -35.95 15.0 -35.95 12.0 -36.0 12.0 -36.0 11.0 -35.95 11.0 -35.95 8.0 -34.95 8.0 -34.95 7.0 -36.95 7.0" fill="#000000" fill-rule="evenodd" stroke="none"/>
    <path d="M-36.95 7.0 L-34.95 7.0 -34.95 8.0 -35.95 8.0 -35.95 11.0 -36.0 11.0 -36.0 12.0 -35.95 12.0 -35.95 15.0 -33.95 15.0 -33.95 16.0 -31.95 16.0 -31.95 17.0 -34.95 17.0 -34.95 16.0 -36.95 16.0 -36.95 17.0 -37.95 17.0 -37.95 15.0 -36.95 15.0 -36.95 12.0 -37.0 12.0 -37.0 11.0 -36.95 11.0 -36.95 7.0" fill="#ffffff" fill-rule="evenodd" stroke="none"/>
    <path d="M-35.95 5.0 L-34.95 5.0 -34.95 6.0 -35.95 6.0 -35.95 5.0" fill="#656565" fill-rule="evenodd" stroke="none"/>
  </g>
</svg>
