<?xml version="1.0" encoding="UTF-8" standalone="no"?>
<svg xmlns:ffdec="https://www.free-decompiler.com/flash" xmlns:xlink="http://www.w3.org/1999/xlink" ffdec:objectType="shape" height="28.0px" width="34.0px" xmlns="http://www.w3.org/2000/svg">
  <g transform="matrix(1.0, 0.0, 0.0, 1.0, 18.1, -7.0)">
    <path d="M-2.1 16.0 L-2.1 15.0 -1.1 15.0 -1.1 14.0 -2.1 14.0 -2.1 9.0 -1.1 9.0 -1.1 10.0 0.9 10.0 0.9 11.0 1.9 11.0 1.9 12.0 3.9 12.0 3.9 10.0 4.9 10.0 4.9 9.0 5.9 9.0 5.9 10.0 6.9 10.0 6.9 13.0 5.9 13.0 5.9 11.0 4.9 11.0 4.9 13.0 3.9 13.0 0.9 13.0 0.9 12.0 -0.1 12.0 -0.1 11.0 -1.1 11.0 -1.1 12.0 -1.1 13.0 -0.1 13.0 -0.1 16.0 -2.1 16.0 -2.1 17.0 -5.1 17.0 -5.1 18.0 -10.1 18.0 -10.1 17.0 -13.1 17.0 -13.1 16.0 -15.1 16.0 -15.1 17.0 -16.1 17.0 -16.1 18.0 -17.1 18.0 -17.1 21.0 -17.1 22.0 -17.1 23.0 -16.1 23.0 -16.1 25.0 -15.1 25.0 -15.1 27.0 -14.1 27.0 -14.1 28.0 -14.1 29.0 -13.1 29.0 -13.1 34.0 -10.1 34.0 -10.1 31.0 -9.1 31.0 -9.1 29.0 -7.1 29.0 -6.1 29.0 -3.1 29.0 -3.1 30.0 -1.1 30.0 -1.1 31.0 -2.1 31.0 -2.1 33.0 0.9 33.0 0.9 31.0 1.9 31.0 1.9 29.0 0.9 29.0 0.9 28.0 -0.1 28.0 -0.1 27.0 1.9 27.0 2.9 27.0 3.9 27.0 3.9 26.0 2.9 26.0 2.9 25.0 1.9 25.0 1.9 24.0 1.9 21.0 2.9 21.0 2.9 20.0 4.9 20.0 4.9 21.0 5.9 21.0 5.9 22.0 9.9 22.0 9.9 21.0 9.9 20.0 9.9 19.0 10.9 19.0 10.9 17.0 9.9 17.0 9.9 16.0 8.9 16.0 8.9 15.0 7.9 15.0 7.9 14.0 6.9 14.0 6.9 13.0 7.9 13.0 7.9 14.0 8.9 14.0 8.9 15.0 9.9 15.0 9.9 16.0 10.9 16.0 10.9 17.0 11.9 17.0 11.9 18.0 14.9 18.0 14.9 19.0 15.9 19.0 15.9 22.0 14.9 22.0 14.9 23.0 13.9 23.0 13.9 24.0 9.9 24.0 9.9 25.0 9.85 25.0 9.85 26.0 7.9 26.0 7.9 27.0 4.9 27.0 4.9 29.0 5.9 29.0 5.9 31.0 4.9 31.0 4.9 33.0 3.9 33.0 3.9 34.0 -2.1 34.0 -2.1 33.0 -3.1 33.0 -3.1 30.0 -5.1 30.0 -5.1 31.0 -6.1 31.0 -6.1 35.0 -13.1 35.0 -13.1 34.0 -14.1 34.0 -14.1 29.0 -15.1 29.0 -15.1 27.0 -16.1 27.0 -16.1 25.0 -17.1 25.0 -17.1 23.0 -18.1 23.0 -18.1 18.0 -17.1 18.0 -17.1 14.0 -18.1 14.0 -18.1 10.0 -17.1 10.0 -17.1 8.0 -16.1 8.0 -16.1 7.0 -13.1 7.0 -13.1 8.0 -11.1 8.0 -11.1 9.0 -10.1 9.0 -10.1 10.0 -9.1 10.0 -9.1 11.0 -11.1 11.0 -11.1 10.0 -13.1 10.0 -13.1 9.0 -14.1 9.0 -14.1 10.0 -15.1 10.0 -15.1 14.0 -14.1 14.0 -14.1 15.0 -13.1 15.0 -13.1 16.0 -10.1 16.0 -10.1 17.0 -5.1 17.0 -5.1 16.0 -2.1 16.0 M7.9 19.0 L7.9 18.0 7.9 17.0 8.9 17.0 8.9 19.0 7.9 19.0 M4.9 25.0 L4.9 24.0 8.9 24.0 8.9 23.0 4.9 23.0 4.9 21.0 2.9 21.0 2.9 23.0 3.9 23.0 3.9 24.0 2.9 24.0 2.9 25.0 4.9 25.0 4.9 26.0 7.9 26.0 7.9 25.0 4.9 25.0 M9.9 23.0 L10.9 23.0 10.9 22.0 9.9 22.0 9.9 23.0 M5.9 17.0 L5.9 19.0 4.9 19.0 4.9 17.0 5.9 17.0 M13.9 21.0 L13.9 20.0 11.9 20.0 11.9 21.0 13.9 21.0 M4.9 30.0 L4.9 29.0 3.9 29.0 3.9 28.0 1.9 28.0 1.9 29.0 2.9 29.0 2.9 31.0 1.9 31.0 1.9 33.0 3.9 33.0 3.9 31.0 4.9 31.0 4.9 30.0 M-8.1 30.0 L-8.1 31.0 -9.1 31.0 -9.1 34.0 -7.1 34.0 -7.1 31.0 -6.1 31.0 -6.1 30.0 -8.1 30.0" fill="#000000" fill-rule="evenodd" stroke="none"/>
    <path d="M-2.1 16.0 L-0.1 16.0 -0.1 13.0 -1.1 13.0 -1.1 12.0 -0.1 12.0 0.9 12.0 0.9 13.0 3.9 13.0 3.9 14.0 5.9 14.0 5.9 15.0 6.9 15.0 6.9 14.0 7.9 14.0 7.9 15.0 8.9 15.0 8.9 16.0 9.9 16.0 9.9 17.0 10.9 17.0 10.9 19.0 9.9 19.0 9.9 20.0 8.9 20.0 8.9 19.0 8.9 17.0 7.9 17.0 6.9 17.0 6.9 18.0 7.9 18.0 7.9 19.0 7.9 20.0 8.9 20.0 8.9 21.0 9.9 21.0 9.9 22.0 5.9 22.0 5.9 21.0 4.9 21.0 4.9 20.0 2.9 20.0 2.9 21.0 1.9 21.0 1.9 24.0 0.9 24.0 0.9 25.0 1.9 25.0 2.9 25.0 2.9 26.0 1.9 26.0 1.9 27.0 -0.1 27.0 -0.1 28.0 0.9 28.0 0.9 29.0 1.9 29.0 1.9 31.0 0.9 31.0 0.9 33.0 -2.1 33.0 -2.1 31.0 -1.1 31.0 -1.1 30.0 -3.1 30.0 -3.1 29.0 -6.1 29.0 -6.1 28.0 -7.1 28.0 -7.1 27.0 -8.1 27.0 -8.1 28.0 -7.1 28.0 -7.1 29.0 -9.1 29.0 -9.1 31.0 -10.1 31.0 -10.1 34.0 -13.1 34.0 -13.1 29.0 -13.1 28.0 -14.1 28.0 -14.1 27.0 -15.1 27.0 -15.1 25.0 -16.1 25.0 -16.1 23.0 -17.1 23.0 -17.1 22.0 -16.1 22.0 -16.1 21.0 -17.1 21.0 -17.1 18.0 -16.1 18.0 -16.1 17.0 -15.1 17.0 -15.1 16.0 -13.1 16.0 -13.1 17.0 -10.1 17.0 -10.1 18.0 -5.1 18.0 -5.1 17.0 -2.1 17.0 -2.1 16.0 M4.9 13.0 L4.9 11.0 5.9 11.0 5.9 13.0 4.9 13.0 M-0.1 28.0 L-1.1 28.0 -1.1 27.0 -2.1 27.0 -2.1 28.0 -1.1 28.0 -1.1 29.0 -0.1 29.0 -0.1 28.0 M2.9 17.0 L2.9 16.0 1.9 16.0 1.9 17.0 2.9 17.0 M4.9 25.0 L7.9 25.0 7.9 26.0 4.9 26.0 4.9 25.0 M0.9 20.0 L-0.1 20.0 -0.1 21.0 0.9 21.0 0.9 20.0 M9.9 23.0 L9.9 22.0 10.9 22.0 10.9 23.0 9.9 23.0 M5.9 17.0 L4.9 17.0 4.9 19.0 5.9 19.0 5.9 17.0 M2.9 26.0 L3.9 26.0 3.9 27.0 2.9 27.0 2.9 26.0 M1.9 29.0 L1.9 28.0 3.9 28.0 3.9 29.0 4.9 29.0 4.9 30.0 3.9 30.0 3.9 31.0 3.9 33.0 1.9 33.0 1.9 31.0 2.9 31.0 2.9 29.0 1.9 29.0 M-13.1 18.0 L-13.1 19.0 -12.1 19.0 -12.1 18.0 -13.1 18.0 M-7.1 19.0 L-9.1 19.0 -9.1 20.0 -7.1 20.0 -7.1 19.0 M-6.1 20.0 L-6.1 21.0 -7.1 21.0 -7.1 22.0 -6.1 22.0 -6.1 21.0 -5.1 21.0 -5.1 20.0 -6.1 20.0 M-10.1 22.0 L-12.1 22.0 -12.1 25.0 -13.1 25.0 -13.1 26.0 -11.1 26.0 -11.1 23.0 -10.1 23.0 -10.1 22.0 M-5.1 23.0 L-4.1 23.0 -4.1 22.0 -5.1 22.0 -5.1 23.0 M-2.1 19.0 L-3.1 19.0 -3.1 20.0 -2.1 20.0 -2.1 19.0 M-2.1 22.0 L-2.1 21.0 -4.1 21.0 -4.1 22.0 -2.1 22.0 M-0.1 26.0 L-0.1 25.0 -1.1 25.0 -1.1 26.0 -0.1 26.0 M-4.1 26.0 L-6.1 26.0 -6.1 27.0 -4.1 27.0 -4.1 26.0 M-8.1 30.0 L-6.1 30.0 -6.1 31.0 -7.1 31.0 -7.1 34.0 -9.1 34.0 -9.1 31.0 -8.1 31.0 -8.1 30.0" fill="#c5c5c5" fill-rule="evenodd" stroke="none"/>
    <path d="M-1.1 12.0 L-1.1 11.0 -0.1 11.0 -0.1 12.0 -1.1 12.0 M3.9 13.0 L4.9 13.0 5.9 13.0 6.9 13.0 6.9 14.0 6.9 15.0 5.9 15.0 5.9 14.0 3.9 14.0 3.9 13.0 M-17.1 21.0 L-16.1 21.0 -16.1 22.0 -17.1 22.0 -17.1 21.0 M-14.1 28.0 L-13.1 28.0 -13.1 29.0 -14.1 29.0 -14.1 28.0 M-7.1 29.0 L-7.1 28.0 -8.1 28.0 -8.1 27.0 -7.1 27.0 -7.1 28.0 -6.1 28.0 -6.1 29.0 -7.1 29.0 M-0.1 28.0 L-0.1 29.0 -1.1 29.0 -1.1 28.0 -2.1 28.0 -2.1 27.0 -1.1 27.0 -1.1 28.0 -0.1 28.0 M1.9 27.0 L1.9 26.0 2.9 26.0 2.9 27.0 1.9 27.0 M1.9 25.0 L0.9 25.0 0.9 24.0 1.9 24.0 1.9 25.0 M9.9 21.0 L8.9 21.0 8.9 20.0 7.9 20.0 7.9 19.0 8.9 19.0 8.9 20.0 9.9 20.0 9.9 21.0 M7.9 18.0 L6.9 18.0 6.9 17.0 7.9 17.0 7.9 18.0 M2.9 17.0 L1.9 17.0 1.9 16.0 2.9 16.0 2.9 17.0 M0.9 20.0 L0.9 21.0 -0.1 21.0 -0.1 20.0 0.9 20.0 M4.9 30.0 L4.9 31.0 3.9 31.0 3.9 30.0 4.9 30.0 M-13.1 18.0 L-12.1 18.0 -12.1 19.0 -13.1 19.0 -13.1 18.0 M-7.1 19.0 L-7.1 20.0 -9.1 20.0 -9.1 19.0 -7.1 19.0 M-6.1 20.0 L-5.1 20.0 -5.1 21.0 -6.1 21.0 -6.1 22.0 -7.1 22.0 -7.1 21.0 -6.1 21.0 -6.1 20.0 M-4.1 26.0 L-4.1 27.0 -6.1 27.0 -6.1 26.0 -4.1 26.0 M-0.1 26.0 L-1.1 26.0 -1.1 25.0 -0.1 25.0 -0.1 26.0 M-2.1 22.0 L-4.1 22.0 -4.1 21.0 -2.1 21.0 -2.1 22.0 M-2.1 19.0 L-2.1 20.0 -3.1 20.0 -3.1 19.0 -2.1 19.0 M-5.1 23.0 L-5.1 22.0 -4.1 22.0 -4.1 23.0 -5.1 23.0 M-10.1 22.0 L-10.1 23.0 -11.1 23.0 -11.1 26.0 -13.1 26.0 -13.1 25.0 -12.1 25.0 -12.1 22.0 -10.1 22.0" fill="#c4c4c4" fill-rule="evenodd" stroke="none"/>
    <path d="M2.9 21.0 L4.9 21.0 4.9 23.0 8.9 23.0 8.9 24.0 4.9 24.0 4.9 25.0 2.9 25.0 2.9 24.0 3.9 24.0 3.9 23.0 2.9 23.0 2.9 21.0 M13.9 21.0 L11.9 21.0 11.9 20.0 13.9 20.0 13.9 21.0" fill="#ffffff" fill-rule="evenodd" stroke="none"/>
  </g>
</svg>
