<?xml version="1.0" encoding="UTF-8" standalone="no"?>
<svg xmlns:ffdec="https://www.free-decompiler.com/flash" xmlns:xlink="http://www.w3.org/1999/xlink" ffdec:objectType="shape" height="70.0px" width="80.0px" xmlns="http://www.w3.org/2000/svg">
  <g transform="matrix(1.0, 0.0, 0.0, 1.0, 36.0, 35.0)">
    <path d="M27.0 -8.0 L27.0 -2.0 26.0 -2.0 26.0 -8.0 27.0 -8.0 M28.0 1.0 L29.0 1.0 29.0 5.0 28.0 5.0 28.0 1.0 27.0 1.0 27.0 -2.0 28.0 -2.0 28.0 1.0 M25.0 -11.0 L26.0 -11.0 26.0 -8.0 25.0 -8.0 25.0 -11.0 24.0 -11.0 24.0 -14.0 23.0 -14.0 23.0 -16.0 24.0 -16.0 24.0 -15.0 25.0 -15.0 25.0 -11.0 M20.0 -21.0 L20.0 -23.0 21.0 -23.0 21.0 -22.0 22.0 -22.0 22.0 -20.0 23.0 -20.0 23.0 -16.0 22.0 -16.0 22.0 -19.0 21.0 -19.0 21.0 -21.0 20.0 -21.0 M19.0 -25.0 L20.0 -25.0 20.0 -23.0 19.0 -23.0 19.0 -25.0 18.0 -25.0 18.0 -26.0 19.0 -26.0 19.0 -25.0 M13.0 -30.0 L13.0 -31.0 14.0 -31.0 14.0 -30.0 13.0 -30.0 M15.0 -29.0 L14.0 -29.0 14.0 -30.0 15.0 -30.0 15.0 -29.0 16.0 -29.0 16.0 -28.0 15.0 -28.0 15.0 -29.0 M17.0 -27.0 L18.0 -27.0 18.0 -26.0 17.0 -26.0 17.0 -27.0 16.0 -27.0 16.0 -28.0 17.0 -28.0 17.0 -27.0 M9.0 -32.0 L9.0 -33.0 11.0 -33.0 11.0 -32.0 9.0 -32.0 M11.0 -31.0 L11.0 -32.0 13.0 -32.0 13.0 -31.0 11.0 -31.0 M7.0 -34.0 L9.0 -34.0 9.0 -33.0 6.0 -33.0 6.0 -34.0 -2.0 -34.0 -2.0 -33.0 -5.0 -33.0 -5.0 -34.0 -3.0 -34.0 -3.0 -35.0 7.0 -35.0 7.0 -34.0 M37.0 10.0 L35.0 10.0 35.0 9.0 34.0 9.0 34.0 8.0 35.0 8.0 35.0 9.0 36.0 9.0 36.0 8.0 38.0 8.0 38.0 9.0 37.0 9.0 37.0 10.0 M-12.0 -28.0 L-12.0 -29.0 -11.0 -29.0 -11.0 -28.0 -12.0 -28.0 -12.0 -27.0 -13.0 -27.0 -13.0 -25.0 -15.0 -25.0 -15.0 -23.0 -16.0 -23.0 -16.0 -22.0 -17.0 -22.0 -17.0 -20.0 -18.0 -20.0 -18.0 -18.0 -19.0 -18.0 -19.0 -15.0 -20.0 -15.0 -20.0 -14.0 -21.0 -14.0 -21.0 -12.0 -22.0 -12.0 -22.0 -9.0 -23.0 -9.0 -23.0 -6.0 -24.0 -6.0 -24.0 -2.0 -25.0 -2.0 -25.0 1.0 -26.0 1.0 -26.0 7.0 -27.0 7.0 -27.0 1.0 -26.0 1.0 -26.0 -2.0 -25.0 -2.0 -25.0 -7.0 -24.0 -7.0 -24.0 -9.0 -23.0 -9.0 -23.0 -12.0 -22.0 -12.0 -22.0 -14.0 -21.0 -14.0 -21.0 -16.0 -20.0 -16.0 -20.0 -19.0 -19.0 -19.0 -19.0 -20.0 -18.0 -20.0 -18.0 -22.0 -17.0 -22.0 -17.0 -23.0 -16.0 -23.0 -16.0 -25.0 -15.0 -25.0 -15.0 -26.0 -14.0 -26.0 -14.0 -27.0 -13.0 -27.0 -13.0 -28.0 -12.0 -28.0 M30.0 7.0 L31.0 7.0 31.0 10.0 30.0 10.0 30.0 8.0 29.0 8.0 29.0 5.0 30.0 5.0 30.0 7.0 M34.0 12.0 L33.0 12.0 33.0 11.0 34.0 11.0 34.0 12.0 M-9.0 -32.0 L-7.0 -32.0 -7.0 -31.0 -9.0 -31.0 -9.0 -32.0 M-5.0 -33.0 L-5.0 -32.0 -7.0 -32.0 -7.0 -33.0 -5.0 -33.0 M-10.0 -30.0 L-10.0 -31.0 -9.0 -31.0 -9.0 -30.0 -10.0 -30.0 -10.0 -29.0 -11.0 -29.0 -11.0 -30.0 -10.0 -30.0 M-36.0 28.0 L-36.0 27.95 -35.95 28.0 -36.0 28.0" fill="#000000" fill-rule="evenodd" stroke="none"/>
    <path d="M-32.95 28.0 L-31.95 28.0 -31.95 31.0 -30.95 31.0 -30.95 33.0 -33.95 33.0 -33.95 32.0 -32.95 32.0 -32.95 28.0 M-27.95 32.0 L-26.95 32.0 -26.95 33.0 -27.95 33.0 -27.95 32.0" fill="#ffffff" fill-rule="evenodd" stroke="none"/>
    <path d="M-28.95 33.0 L-29.95 33.0 -29.95 31.0 -28.95 31.0 -28.95 33.0" fill="#767676" fill-rule="evenodd" stroke="none"/>
    <path d="M34.0 8.0 L31.0 8.0 31.0 7.0 30.0 7.0 30.0 3.0 29.0 3.0 29.0 4.0 28.0 4.0 28.0 2.0 26.0 2.0 26.0 5.0 29.0 5.0 29.0 8.0 30.0 8.0 30.0 9.0 32.0 9.0 32.0 10.0 33.0 10.0 33.0 11.0 31.0 11.0 31.0 10.0 29.0 10.0 29.0 9.0 28.0 9.0 28.0 6.0 25.0 6.0 25.0 1.0 29.0 1.0 29.0 2.0 31.0 2.0 31.0 6.0 32.0 6.0 32.0 7.0 34.0 7.0 34.0 8.0 35.0 8.0 35.0 9.0 36.0 9.0 36.0 8.0 38.0 8.0 38.0 9.0 37.0 9.0 37.0 10.0 35.0 10.0 35.0 9.0 34.0 9.0 34.0 8.0 M33.0 11.0 L34.0 11.0 34.0 12.0 33.0 12.0 33.0 11.0" fill="#000000" fill-rule="evenodd" stroke="none"/>
    <path d="M33.0 11.0 L33.0 10.0 32.0 10.0 32.0 9.0 30.0 9.0 30.0 8.0 29.0 8.0 29.0 5.0 26.0 5.0 26.0 2.0 28.0 2.0 28.0 4.0 29.0 4.0 29.0 3.0 30.0 3.0 30.0 7.0 31.0 7.0 31.0 8.0 34.0 8.0 34.0 9.0 35.0 9.0 35.0 10.0 35.0 11.0 34.0 11.0 33.0 11.0" fill="#ffffff" fill-rule="evenodd" stroke="none"/>
    <path d="M37.0 3.0 L38.0 3.0 38.0 6.0 35.0 6.0 35.0 5.0 37.0 5.0 37.0 3.0 M38.0 6.0 L39.0 6.0 39.0 9.0 38.0 9.0 38.0 13.0 37.0 13.0 37.0 16.0 36.0 16.0 36.0 17.0 34.0 17.0 34.0 16.0 33.0 16.0 33.0 15.0 34.0 15.0 34.0 12.0 35.0 12.0 35.0 9.0 36.0 9.0 36.0 7.0 38.0 7.0 38.0 6.0" fill="#ffffff" fill-rule="evenodd" stroke="none"/>
    <path d="M38.0 3.0 L39.0 3.0 39.0 4.0 40.0 4.0 40.0 11.0 39.0 11.0 39.0 15.0 38.0 15.0 38.0 17.0 37.0 17.0 37.0 18.0 33.0 18.0 33.0 17.0 32.0 17.0 32.0 14.0 33.0 14.0 33.0 12.0 32.0 12.0 32.0 8.0 33.0 8.0 33.0 6.0 34.0 6.0 34.0 4.0 36.0 4.0 36.0 3.0 37.0 3.0 37.0 5.0 35.0 5.0 35.0 6.0 38.0 6.0 38.0 3.0 M38.0 6.0 L38.0 7.0 36.0 7.0 36.0 9.0 35.0 9.0 35.0 12.0 34.0 12.0 34.0 15.0 33.0 15.0 33.0 16.0 34.0 16.0 34.0 17.0 36.0 17.0 36.0 16.0 37.0 16.0 37.0 13.0 38.0 13.0 38.0 9.0 39.0 9.0 39.0 6.0 38.0 6.0 M34.0 7.0 L35.0 7.0 35.0 6.0 34.0 6.0 34.0 7.0 M33.0 8.0 L33.0 11.0 34.0 11.0 34.0 8.0 33.0 8.0" fill="#000000" fill-rule="evenodd" stroke="none"/>
    <path d="M33.0 8.0 L34.0 8.0 34.0 11.0 33.0 11.0 33.0 8.0 M34.0 7.0 L34.0 6.0 35.0 6.0 35.0 7.0 34.0 7.0" fill="#c8cbc8" fill-rule="evenodd" stroke="none"/>
    <path d="M42.0 22.0 L42.0 21.0 43.0 21.0 43.0 22.0 42.0 22.0 M40.0 19.0 L41.0 19.0 41.0 20.0 40.0 20.0 40.0 19.0 M31.0 21.0 L31.0 22.0 30.0 22.0 30.0 21.0 31.0 21.0 M28.0 22.0 L28.0 21.0 29.0 21.0 29.0 22.0 28.0 22.0 M30.0 19.0 L31.0 19.0 31.0 20.0 30.0 20.0 30.0 19.0 M39.0 18.0 L38.0 18.0 38.0 17.0 39.0 17.0 39.0 18.0 M37.0 18.0 L36.0 18.0 36.0 17.0 37.0 17.0 37.0 18.0 M37.0 19.0 L37.0 20.0 36.0 20.0 36.0 19.0 37.0 19.0 M38.0 19.0 L39.0 19.0 39.0 20.0 38.0 20.0 38.0 19.0 M40.0 22.0 L40.0 21.0 41.0 21.0 41.0 22.0 40.0 22.0 M37.0 21.0 L37.0 22.0 36.0 22.0 36.0 21.0 37.0 21.0 M38.0 22.0 L38.0 21.0 39.0 21.0 39.0 22.0 38.0 22.0 M34.0 17.0 L35.0 17.0 35.0 18.0 34.0 18.0 34.0 17.0 M34.0 21.0 L35.0 21.0 35.0 22.0 34.0 22.0 34.0 21.0 M33.0 21.0 L33.0 22.0 32.0 22.0 32.0 21.0 33.0 21.0 M32.0 19.0 L33.0 19.0 33.0 20.0 32.0 20.0 32.0 19.0 M32.0 18.0 L32.0 17.0 33.0 17.0 33.0 18.0 32.0 18.0 M34.0 19.0 L35.0 19.0 35.0 20.0 34.0 20.0 34.0 19.0" fill="#767676" fill-rule="evenodd" stroke="none"/>
    <path d="M42.0 22.0 L43.0 22.0 43.0 21.0 42.0 21.0 42.0 22.0 M42.0 20.0 L43.0 20.0 43.0 21.0 44.0 21.0 44.0 23.0 39.0 23.0 39.0 23.05 37.95 23.05 38.0 35.0 29.0 35.0 29.0 33.0 30.0 33.0 30.0 32.0 33.0 32.0 33.0 31.0 34.0 31.0 33.9 23.1 29.0 23.05 29.0 23.0 27.0 23.0 27.0 21.0 28.0 21.0 28.0 20.0 29.0 20.0 29.0 18.0 30.0 18.0 30.0 17.0 31.0 17.0 31.0 16.0 40.0 16.0 40.0 17.0 41.0 17.0 41.0 18.0 42.0 18.0 42.0 20.0 M30.0 19.0 L30.0 20.0 31.0 20.0 31.0 19.0 30.0 19.0 M28.0 22.0 L29.0 22.0 29.0 21.0 28.0 21.0 28.0 22.0 M31.0 21.0 L30.0 21.0 30.0 22.0 31.0 22.0 31.0 21.0 M40.0 19.0 L40.0 20.0 41.0 20.0 41.0 19.0 40.0 19.0 M37.0 18.0 L37.0 17.0 36.0 17.0 36.0 18.0 37.0 18.0 M39.0 18.0 L39.0 17.0 38.0 17.0 38.0 18.0 39.0 18.0 M38.0 22.0 L39.0 22.0 39.0 21.0 38.0 21.0 38.0 22.0 M37.0 21.0 L36.0 21.0 36.0 22.0 37.0 22.0 37.0 21.0 M40.0 22.0 L41.0 22.0 41.0 21.0 40.0 21.0 40.0 22.0 M38.0 19.0 L38.0 20.0 39.0 20.0 39.0 19.0 38.0 19.0 M37.0 19.0 L36.0 19.0 36.0 20.0 37.0 20.0 37.0 19.0 M34.0 17.0 L34.0 18.0 35.0 18.0 35.0 17.0 34.0 17.0 M34.0 19.0 L34.0 20.0 35.0 20.0 35.0 19.0 34.0 19.0 M32.0 18.0 L33.0 18.0 33.0 17.0 32.0 17.0 32.0 18.0 M32.0 19.0 L32.0 20.0 33.0 20.0 33.0 19.0 32.0 19.0 M33.0 21.0 L32.0 21.0 32.0 22.0 33.0 22.0 33.0 21.0 M34.0 21.0 L34.0 22.0 35.0 22.0 35.0 21.0 34.0 21.0 M34.9 23.2 L34.9 25.0 37.05 25.0 37.05 23.2 34.9 23.2 M35.0 26.0 L35.0 31.0 37.0 31.0 37.0 26.0 35.0 26.0 M37.0 34.0 L37.0 33.0 36.0 33.0 36.0 32.0 35.0 32.0 35.0 33.0 34.0 33.0 34.0 34.0 37.0 34.0" fill="#000000" fill-rule="evenodd" stroke="none"/>
    <path d="M34.9 23.2 L37.05 23.2 37.05 25.0 34.9 25.0 34.9 23.2 M35.0 26.0 L37.0 26.0 37.0 31.0 35.0 31.0 35.0 26.0" fill="#ffffff" fill-rule="evenodd" stroke="none"/>
    <path d="M37.0 34.0 L34.0 34.0 34.0 33.0 35.0 33.0 35.0 32.0 36.0 32.0 36.0 33.0 37.0 33.0 37.0 34.0" fill="#c8cbc8" fill-rule="evenodd" stroke="none"/>
  </g>
</svg>
