<?xml version="1.0" encoding="UTF-8" standalone="no"?>
<svg xmlns:ffdec="https://www.free-decompiler.com/flash" xmlns:xlink="http://www.w3.org/1999/xlink" ffdec:objectType="shape" height="26.0px" width="36.0px" xmlns="http://www.w3.org/2000/svg">
  <g transform="matrix(1.0, 0.0, 0.0, 1.0, 20.1, -9.0)">
    <path d="M-4.1 16.0 L-4.1 15.0 -1.1 15.0 -1.1 14.0 -2.1 14.0 -2.1 9.0 -1.1 9.0 -1.1 10.0 0.9 10.0 0.9 11.0 1.9 11.0 1.9 12.0 3.9 12.0 3.9 10.0 4.9 10.0 4.9 9.0 5.9 9.0 5.9 10.0 6.9 10.0 6.9 13.0 5.9 13.0 5.9 11.0 4.9 11.0 4.9 13.0 0.9 13.0 0.9 12.0 -0.1 12.0 -0.1 11.0 -1.1 11.0 -1.1 13.0 -0.1 13.0 -0.1 16.0 -4.1 16.0 -4.1 17.0 -8.1 17.0 -8.1 18.0 -13.1 18.0 -13.1 19.0 -14.1 19.0 -15.1 19.0 -15.1 20.0 -15.1 21.0 -16.1 21.0 -16.1 29.0 -17.1 29.0 -17.1 30.0 -17.1 31.0 -18.1 31.0 -18.1 32.0 -19.1 32.0 -19.1 34.0 -16.1 34.0 -16.1 33.0 -15.1 33.0 -15.1 32.0 -14.1 32.0 -14.1 31.0 -13.1 31.0 -13.1 30.0 -9.1 30.0 -8.1 30.0 -7.1 30.0 -6.1 30.0 -5.1 30.0 -5.1 29.0 -2.1 29.0 -2.1 28.0 -0.1 28.0 -0.1 29.0 1.9 29.0 1.9 30.0 2.9 30.0 3.9 30.0 3.9 31.0 4.9 31.0 5.9 31.0 5.9 30.0 5.9 29.0 4.9 29.0 4.9 28.0 3.9 28.0 3.9 27.0 2.9 27.0 2.9 25.0 1.9 25.0 1.9 21.0 2.9 21.0 2.9 20.0 4.9 20.0 4.9 21.0 5.9 21.0 5.9 22.0 8.9 22.0 9.9 22.0 9.9 21.0 9.9 19.0 10.9 19.0 10.9 17.0 9.9 17.0 9.9 16.0 8.9 16.0 8.9 15.0 7.9 15.0 7.9 14.0 6.9 14.0 6.9 13.0 7.9 13.0 7.9 14.0 8.9 14.0 8.9 15.0 9.9 15.0 9.9 16.0 10.9 16.0 10.9 17.0 11.9 17.0 11.9 18.0 14.9 18.0 14.9 19.0 15.9 19.0 15.9 22.0 14.9 22.0 14.9 23.0 13.9 23.0 13.9 24.0 9.9 24.0 9.9 25.0 8.9 25.0 8.9 27.0 7.9 27.0 7.9 28.0 8.9 28.0 8.9 29.0 9.9 29.0 9.9 31.0 7.9 31.0 7.9 32.0 3.9 32.0 3.9 31.0 1.9 31.0 1.9 30.0 -0.1 30.0 -0.1 29.0 -1.1 29.0 -1.1 30.0 -5.1 30.0 -5.1 31.0 -10.1 31.0 -10.1 32.0 -11.1 32.0 -11.1 33.0 -12.1 33.0 -12.1 34.0 -13.1 34.0 -13.1 35.0 -15.1 35.0 -15.1 34.0 -16.1 34.0 -16.1 35.0 -19.1 35.0 -19.1 34.0 -20.1 34.0 -20.1 32.0 -19.1 32.0 -19.1 31.0 -18.1 31.0 -18.1 29.0 -17.1 29.0 -17.1 21.0 -16.1 21.0 -16.1 18.0 -17.1 18.0 -17.1 16.0 -18.1 16.0 -18.1 14.0 -19.1 14.0 -19.1 12.0 -18.1 12.0 -18.1 10.0 -17.1 10.0 -17.1 9.0 -14.1 9.0 -14.1 10.0 -12.1 10.0 -12.1 11.0 -11.1 11.0 -11.1 12.0 -10.1 12.0 -10.1 13.0 -12.1 13.0 -12.1 12.0 -14.1 12.0 -14.1 11.0 -15.1 11.0 -15.1 12.0 -16.1 12.0 -16.1 14.0 -15.1 14.0 -15.1 16.0 -14.1 16.0 -14.1 18.0 -13.1 18.0 -13.1 17.0 -8.1 17.0 -8.1 16.0 -4.1 16.0 M7.9 17.0 L8.9 17.0 8.9 19.0 7.9 19.0 7.9 17.0 M4.9 17.0 L5.9 17.0 5.9 19.0 4.9 19.0 4.9 18.0 4.9 17.0 M2.9 21.0 L2.9 23.0 3.9 23.0 3.9 24.0 2.9 24.0 2.9 25.0 4.9 25.0 4.9 24.0 8.9 24.0 8.9 23.0 4.9 23.0 4.9 21.0 2.9 21.0 M9.9 23.0 L10.9 23.0 10.9 22.0 9.9 22.0 9.9 23.0 M11.9 20.0 L11.9 21.0 13.9 21.0 13.9 20.0 11.9 20.0 M7.9 25.0 L4.9 25.0 4.9 26.0 7.9 26.0 7.9 25.0 M6.9 30.0 L8.9 30.0 8.9 29.0 7.9 29.0 7.9 28.0 6.9 28.0 6.9 27.0 4.9 27.0 4.9 28.0 5.9 28.0 5.9 29.0 6.9 29.0 6.9 30.0 M-11.1 31.0 L-13.1 31.0 -13.1 32.0 -14.1 32.0 -14.1 33.0 -15.1 33.0 -15.1 34.0 -13.1 34.0 -13.1 33.0 -12.1 33.0 -12.1 32.0 -11.1 32.0 -11.1 31.0" fill="#000000" fill-rule="evenodd" stroke="none"/>
    <path d="M-4.1 16.0 L-0.1 16.0 -0.1 13.0 -1.1 13.0 -1.1 11.0 -0.1 11.0 -0.1 12.0 0.9 12.0 0.9 13.0 4.9 13.0 4.9 11.0 5.9 11.0 5.9 13.0 6.9 13.0 6.9 14.0 7.9 14.0 7.9 15.0 6.9 15.0 6.9 17.0 7.9 17.0 7.9 16.0 8.9 16.0 9.9 16.0 9.9 17.0 10.9 17.0 10.9 19.0 9.9 19.0 9.9 21.0 8.9 21.0 8.9 22.0 5.9 22.0 5.9 21.0 4.9 21.0 4.9 20.0 2.9 20.0 2.9 21.0 1.9 21.0 1.9 25.0 2.9 25.0 2.9 27.0 3.9 27.0 3.9 28.0 4.9 28.0 4.9 29.0 5.9 29.0 5.9 30.0 4.9 30.0 4.9 31.0 3.9 31.0 3.9 30.0 2.9 30.0 2.9 29.0 1.9 29.0 -0.1 29.0 -0.1 28.0 -2.1 28.0 -2.1 29.0 -5.1 29.0 -5.1 30.0 -6.1 30.0 -6.1 29.0 -7.1 29.0 -7.1 30.0 -8.1 30.0 -8.1 29.0 -9.1 29.0 -9.1 30.0 -13.1 30.0 -13.1 31.0 -14.1 31.0 -14.1 32.0 -15.1 32.0 -15.1 33.0 -16.1 33.0 -16.1 34.0 -19.1 34.0 -19.1 32.0 -18.1 32.0 -18.1 31.0 -17.1 31.0 -16.1 31.0 -16.1 30.0 -17.1 30.0 -17.1 29.0 -16.1 29.0 -16.1 21.0 -15.1 21.0 -15.1 20.0 -14.1 20.0 -14.1 19.0 -13.1 19.0 -13.1 18.0 -8.1 18.0 -8.1 17.0 -4.1 17.0 -4.1 16.0 M-14.1 31.0 L-14.1 30.0 -15.1 30.0 -15.1 31.0 -14.1 31.0 M8.9 19.0 L8.9 17.0 7.9 17.0 7.9 19.0 7.9 20.0 6.9 20.0 6.9 21.0 7.9 21.0 7.9 20.0 8.9 20.0 8.9 19.0 M4.9 17.0 L3.9 17.0 3.9 16.0 1.9 16.0 1.9 17.0 3.9 17.0 3.9 18.0 4.9 18.0 4.9 19.0 5.9 19.0 5.9 17.0 4.9 17.0 M9.9 23.0 L9.9 22.0 10.9 22.0 10.9 23.0 9.9 23.0 M6.9 30.0 L6.9 29.0 5.9 29.0 5.9 28.0 4.9 28.0 4.9 27.0 6.9 27.0 6.9 28.0 7.9 28.0 7.9 29.0 8.9 29.0 8.9 30.0 6.9 30.0 M7.9 25.0 L7.9 26.0 4.9 26.0 4.9 25.0 7.9 25.0 M-15.1 24.0 L-15.1 25.0 -14.1 25.0 -14.1 24.0 -15.1 24.0 M-2.1 18.0 L-2.1 19.0 -1.1 19.0 -1.1 18.0 -2.1 18.0 M-9.1 22.0 L-8.1 22.0 -8.1 20.0 -9.1 20.0 -9.1 22.0 M-5.1 21.0 L-4.1 21.0 -4.1 20.0 -5.1 20.0 -5.1 21.0 M-4.1 23.0 L-4.1 24.0 -5.1 24.0 -5.1 25.0 -4.1 25.0 -4.1 24.0 -3.1 24.0 -3.1 23.0 -4.1 23.0 M-1.1 22.0 L-2.1 22.0 -2.1 23.0 -1.1 23.0 -1.1 22.0 M-2.1 25.0 L-3.1 25.0 -3.1 26.0 -2.1 26.0 -2.1 25.0 M-4.1 27.0 L-4.1 28.0 -3.1 28.0 -3.1 27.0 -4.1 27.0 M-11.1 27.0 L-11.1 26.0 -12.1 26.0 -12.1 27.0 -11.1 27.0 M-12.1 28.0 L-12.1 29.0 -11.1 29.0 -11.1 28.0 -12.1 28.0 M-11.1 31.0 L-11.1 32.0 -12.1 32.0 -12.1 33.0 -13.1 33.0 -13.1 34.0 -15.1 34.0 -15.1 33.0 -14.1 33.0 -14.1 32.0 -13.1 32.0 -13.1 31.0 -11.1 31.0" fill="#c5c5c5" fill-rule="evenodd" stroke="none"/>
    <path d="M-14.1 19.0 L-14.1 20.0 -15.1 20.0 -15.1 19.0 -14.1 19.0 M-17.1 30.0 L-16.1 30.0 -16.1 31.0 -17.1 31.0 -17.1 30.0 M-14.1 31.0 L-15.1 31.0 -15.1 30.0 -14.1 30.0 -14.1 31.0 M-9.1 30.0 L-9.1 29.0 -8.1 29.0 -8.1 30.0 -9.1 30.0 M-7.1 30.0 L-7.1 29.0 -6.1 29.0 -6.1 30.0 -7.1 30.0 M1.9 29.0 L2.9 29.0 2.9 30.0 1.9 30.0 1.9 29.0 M4.9 31.0 L4.9 30.0 5.9 30.0 5.9 31.0 4.9 31.0 M8.9 22.0 L8.9 21.0 9.9 21.0 9.9 22.0 8.9 22.0 M8.9 16.0 L7.9 16.0 7.9 17.0 6.9 17.0 6.9 15.0 7.9 15.0 8.9 15.0 8.9 16.0 M8.9 19.0 L8.9 20.0 7.9 20.0 7.9 21.0 6.9 21.0 6.9 20.0 7.9 20.0 7.9 19.0 8.9 19.0 M4.9 18.0 L3.9 18.0 3.9 17.0 1.9 17.0 1.9 16.0 3.9 16.0 3.9 17.0 4.9 17.0 4.9 18.0 M-5.1 21.0 L-5.1 20.0 -4.1 20.0 -4.1 21.0 -5.1 21.0 M-9.1 22.0 L-9.1 20.0 -8.1 20.0 -8.1 22.0 -9.1 22.0 M-2.1 18.0 L-1.1 18.0 -1.1 19.0 -2.1 19.0 -2.1 18.0 M-15.1 24.0 L-14.1 24.0 -14.1 25.0 -15.1 25.0 -15.1 24.0 M-4.1 23.0 L-3.1 23.0 -3.1 24.0 -4.1 24.0 -4.1 25.0 -5.1 25.0 -5.1 24.0 -4.1 24.0 -4.1 23.0 M-4.1 27.0 L-3.1 27.0 -3.1 28.0 -4.1 28.0 -4.1 27.0 M-2.1 25.0 L-2.1 26.0 -3.1 26.0 -3.1 25.0 -2.1 25.0 M-1.1 22.0 L-1.1 23.0 -2.1 23.0 -2.1 22.0 -1.1 22.0 M-12.1 28.0 L-11.1 28.0 -11.1 29.0 -12.1 29.0 -12.1 28.0 M-11.1 27.0 L-12.1 27.0 -12.1 26.0 -11.1 26.0 -11.1 27.0" fill="#c4c4c4" fill-rule="evenodd" stroke="none"/>
    <path d="M2.9 21.0 L4.9 21.0 4.9 23.0 8.9 23.0 8.9 24.0 4.9 24.0 4.9 25.0 2.9 25.0 2.9 24.0 3.9 24.0 3.9 23.0 2.9 23.0 2.9 21.0 M11.9 20.0 L13.9 20.0 13.9 21.0 11.9 21.0 11.9 20.0" fill="#ffffff" fill-rule="evenodd" stroke="none"/>
  </g>
</svg>
