<?xml version="1.0" encoding="UTF-8" standalone="no"?>
<svg xmlns:ffdec="https://www.free-decompiler.com/flash" xmlns:xlink="http://www.w3.org/1999/xlink" ffdec:objectType="shape" height="20.0px" width="65.0px" xmlns="http://www.w3.org/2000/svg">
  <g transform="matrix(1.0, 0.0, 0.0, 1.0, 30.0, -11.0)">
    <path d="M34.0 12.0 L34.0 13.0 33.0 13.0 33.0 14.0 32.0 14.0 32.0 15.0 31.0 15.0 31.0 16.0 30.0 16.0 30.0 17.0 29.0 17.0 29.0 18.0 28.0 18.0 28.0 19.0 27.0 19.0 27.0 20.0 26.0 20.0 26.0 21.0 25.0 21.0 25.0 22.0 24.0 22.0 24.0 23.0 23.0 23.0 23.0 24.0 22.0 24.0 22.0 25.0 20.0 25.0 20.0 27.0 18.0 27.0 18.0 28.0 16.0 28.0 16.0 29.0 13.0 29.0 13.0 30.0 7.0 30.0 7.0 31.0 0.0 31.0 0.0 30.0 -7.0 30.0 -7.0 29.0 -10.0 29.0 -10.0 28.0 -12.0 28.0 -12.0 27.0 -15.0 27.0 -15.0 26.0 -16.0 26.0 -16.0 25.0 -18.0 25.0 -18.0 24.0 -19.0 24.0 -19.0 23.0 -20.0 23.0 -20.0 22.0 -21.0 22.0 -21.0 21.0 -22.0 21.0 -22.0 20.0 -23.0 20.0 -23.0 19.0 -24.0 19.0 -24.0 18.0 -25.0 18.0 -25.0 16.0 -26.0 16.0 -26.0 15.0 -27.0 15.0 -27.0 14.0 -28.0 14.0 -28.0 13.0 -29.0 13.0 -29.0 12.0 -30.0 12.0 -30.0 11.0 -29.0 11.0 -29.0 12.0 -28.0 12.0 -28.0 13.0 -27.0 13.0 -27.0 14.0 -26.0 14.0 -26.0 15.0 -25.0 15.0 -25.0 16.0 -24.0 16.0 -24.0 18.0 -23.0 18.0 -23.0 19.0 -22.0 19.0 -22.0 20.0 -21.0 20.0 -21.0 21.0 -20.0 21.0 -20.0 22.0 -19.0 22.0 -19.0 23.0 -18.0 23.0 -18.0 24.0 -16.0 24.0 -16.0 25.0 -14.0 25.0 -14.0 26.0 -12.0 26.0 -12.0 27.0 -9.0 27.0 -9.0 28.0 -7.0 28.0 -7.0 29.0 1.0 29.0 1.0 30.0 6.0 30.0 6.0 29.0 12.0 29.0 12.0 28.0 15.0 28.0 15.0 27.0 18.0 27.0 18.0 26.0 19.0 26.0 19.0 25.0 20.0 25.0 20.0 24.0 22.0 24.0 22.0 23.0 23.0 23.0 23.0 22.0 24.0 22.0 24.0 21.0 25.0 21.0 25.0 20.0 26.0 20.0 26.0 18.0 28.0 18.0 28.0 16.0 30.0 16.0 30.0 15.0 31.0 15.0 31.0 14.0 32.0 14.0 32.0 13.0 33.0 13.0 33.0 11.0 35.0 11.0 35.0 12.0 34.0 12.0" fill="#000000" fill-rule="evenodd" stroke="none"/>
  </g>
</svg>
