<?xml version="1.0" encoding="UTF-8" standalone="no"?>
<svg xmlns:ffdec="https://www.free-decompiler.com/flash" xmlns:xlink="http://www.w3.org/1999/xlink" ffdec:objectType="shape" height="17.0px" width="66.0px" xmlns="http://www.w3.org/2000/svg">
  <g transform="matrix(1.0, 0.0, 0.0, 1.0, 30.0, -18.0)">
    <path d="M26.0 27.0 L28.0 27.0 28.0 26.0 29.0 26.0 29.0 25.0 30.0 25.0 30.0 23.0 32.0 23.0 32.0 22.0 33.0 22.0 33.0 21.0 34.0 21.0 34.0 19.0 35.0 19.0 35.0 18.0 36.0 18.0 36.0 19.0 35.0 19.0 35.0 21.0 34.0 21.0 34.0 22.0 33.0 22.0 33.0 23.0 32.0 23.0 32.0 24.0 31.0 24.0 31.0 25.0 30.0 25.0 30.0 26.0 29.0 26.0 29.0 27.0 28.0 27.0 28.0 28.0 26.0 28.0 26.0 29.0 25.0 29.0 25.0 31.0 27.0 31.0 27.0 32.0 28.0 32.0 28.0 34.0 -12.0 34.0 -12.0 35.0 -18.0 35.0 -18.0 34.0 -23.0 34.0 -23.0 33.0 -24.0 33.0 -24.0 31.0 -25.0 31.0 -25.0 29.0 -26.0 29.0 -26.0 27.0 -27.0 27.0 -27.0 24.0 -28.0 24.0 -28.0 22.0 -29.0 22.0 -29.0 20.0 -30.0 20.0 -30.0 18.0 -29.0 18.0 -29.0 20.0 -28.0 20.0 -28.0 22.0 -27.0 22.0 -27.0 24.0 -26.0 24.0 -26.0 27.0 -25.0 27.0 -25.0 29.0 -24.0 29.0 -24.0 31.0 -23.0 31.0 -23.0 32.0 -22.0 32.0 -22.0 33.0 -18.0 33.0 -18.0 34.0 -13.0 34.0 -13.0 33.0 27.0 33.0 27.0 32.0 25.0 32.0 25.0 31.0 23.0 31.0 23.0 29.0 24.0 29.0 24.0 28.0 26.0 28.0 26.0 27.0" fill="#000000" fill-rule="evenodd" stroke="none"/>
  </g>
</svg>
