<?xml version="1.0" encoding="UTF-8" standalone="no"?>
<svg xmlns:ffdec="https://www.free-decompiler.com/flash" xmlns:xlink="http://www.w3.org/1999/xlink" ffdec:objectType="shape" height="15.0px" width="13.9px" xmlns="http://www.w3.org/2000/svg">
  <g transform="matrix(1.0, 0.0, 0.0, 1.0, -12.0, -18.0)">
    <path d="M25.9 19.0 L25.0 19.0 25.0 20.0 25.9 20.0 25.9 21.0 24.0 21.0 24.0 20.0 22.0 20.0 22.0 19.0 24.0 19.0 24.0 18.0 25.9 18.0 25.9 19.0 M22.0 20.0 L22.0 21.0 23.0 21.0 23.0 22.0 25.0 22.0 25.0 23.0 25.9 23.0 25.9 28.0 25.0 28.0 25.0 30.0 25.9 30.0 25.9 31.0 23.0 31.0 23.0 30.0 24.0 30.0 24.0 28.0 25.0 28.0 25.0 23.0 23.0 23.0 23.0 25.0 22.0 25.0 22.0 27.0 21.0 27.0 21.0 29.0 20.0 29.0 20.0 33.0 17.0 33.0 17.0 32.0 16.0 32.0 16.0 31.0 12.0 31.0 12.0 28.0 18.0 28.0 18.0 26.0 19.0 26.0 19.0 24.0 20.0 24.0 20.0 22.0 21.0 22.0 21.0 20.0 22.0 20.0 M20.0 24.0 L20.0 26.0 19.0 26.0 19.0 28.0 18.0 28.0 18.0 29.0 13.0 29.0 13.0 30.0 17.0 30.0 17.0 31.0 18.0 31.0 18.0 32.0 19.0 32.0 19.0 29.0 20.0 29.0 20.0 27.0 21.0 27.0 21.0 25.0 22.0 25.0 22.0 23.0 23.0 23.0 23.0 22.0 21.0 22.0 21.0 24.0 20.0 24.0" fill="#000000" fill-rule="evenodd" stroke="none"/>
    <path d="M25.9 20.0 L25.0 20.0 25.0 19.0 25.9 19.0 25.9 20.0 M20.0 24.0 L21.0 24.0 21.0 22.0 23.0 22.0 23.0 23.0 22.0 23.0 22.0 25.0 21.0 25.0 21.0 27.0 20.0 27.0 20.0 29.0 19.0 29.0 19.0 32.0 18.0 32.0 18.0 31.0 17.0 31.0 17.0 30.0 13.0 30.0 13.0 29.0 18.0 29.0 18.0 28.0 19.0 28.0 19.0 26.0 20.0 26.0 20.0 24.0" fill="#ffffff" fill-rule="evenodd" stroke="none"/>
  </g>
</svg>
