<?xml version="1.0" encoding="UTF-8" standalone="no"?>
<svg xmlns:ffdec="https://www.free-decompiler.com/flash" xmlns:xlink="http://www.w3.org/1999/xlink" ffdec:objectType="shape" height="13.0px" width="7.8px" xmlns="http://www.w3.org/2000/svg">
  <g transform="matrix(1.0, 0.0, 0.0, 1.0, -19.0, -18.0)">
    <path d="M26.8 19.0 L25.0 19.0 25.0 20.0 26.8 20.0 26.8 22.0 26.0 22.0 26.0 21.0 24.0 21.0 24.0 20.0 22.0 20.0 22.0 19.0 24.0 19.0 24.0 18.0 26.8 18.0 26.8 19.0 M26.8 30.0 L26.8 31.0 23.0 31.0 23.0 29.0 22.0 29.0 22.0 28.0 21.0 28.0 21.0 27.0 20.0 27.0 20.0 26.0 19.0 26.0 19.0 24.0 20.0 24.0 20.0 22.0 21.0 22.0 21.0 20.0 22.0 20.0 22.0 21.0 23.0 21.0 23.0 22.0 25.0 22.0 25.0 23.0 26.0 23.0 26.0 28.0 25.0 28.0 25.0 30.0 26.8 30.0 M23.0 26.0 L22.0 26.0 22.0 23.0 23.0 23.0 23.0 22.0 21.0 22.0 21.0 24.0 20.0 24.0 20.0 26.0 21.0 26.0 21.0 27.0 22.0 27.0 22.0 28.0 23.0 28.0 23.0 29.0 24.0 29.0 24.0 27.0 25.0 27.0 25.0 23.0 24.0 23.0 24.0 24.0 23.0 24.0 23.0 26.0 24.0 26.0 24.0 27.0 23.0 27.0 23.0 26.0" fill="#000000" fill-rule="evenodd" stroke="none"/>
    <path d="M26.8 20.0 L25.0 20.0 25.0 19.0 26.8 19.0 26.8 20.0 M20.0 24.0 L21.0 24.0 21.0 22.0 23.0 22.0 23.0 23.0 22.0 23.0 22.0 26.0 23.0 26.0 23.0 27.0 24.0 27.0 24.0 29.0 23.0 29.0 23.0 28.0 22.0 28.0 22.0 27.0 21.0 27.0 21.0 26.0 20.0 26.0 20.0 24.0" fill="#ffffff" fill-rule="evenodd" stroke="none"/>
    <path d="M22.0 20.0 L24.0 20.0 24.0 21.0 26.0 21.0 26.0 22.0 26.8 22.0 26.8 30.0 25.0 30.0 25.0 28.0 26.0 28.0 26.0 23.0 25.0 23.0 25.0 22.0 23.0 22.0 23.0 21.0 22.0 21.0 22.0 20.0" fill="#656565" fill-rule="evenodd" stroke="none"/>
  </g>
</svg>
