<?xml version="1.0" encoding="UTF-8" standalone="no"?>
<svg xmlns:ffdec="https://www.free-decompiler.com/flash" xmlns:xlink="http://www.w3.org/1999/xlink" ffdec:objectType="shape" height="19.0px" width="16.4px" xmlns="http://www.w3.org/2000/svg">
  <g transform="matrix(1.0, 0.0, 0.0, 1.0, -10.0, -18.0)">
    <path d="M26.4 19.0 L25.0 19.0 25.0 20.0 26.4 20.0 26.4 22.0 26.0 22.0 26.0 21.0 24.0 21.0 24.0 20.0 22.0 20.0 18.0 20.0 18.0 21.0 17.0 21.0 17.0 19.0 24.0 19.0 24.0 18.0 26.4 18.0 26.4 19.0 M22.0 21.0 L23.0 21.0 23.0 22.0 25.0 22.0 25.0 23.0 26.0 23.0 26.0 28.0 25.0 28.0 25.0 30.0 26.4 30.0 26.4 31.0 23.0 31.0 23.0 32.0 22.0 32.0 22.0 30.0 24.0 30.0 24.0 28.0 25.0 28.0 25.0 23.0 22.0 23.0 22.0 22.0 19.0 22.0 19.0 21.0 22.0 21.0 M23.0 32.0 L24.0 32.0 24.0 33.0 23.0 33.0 23.0 34.0 22.0 34.0 22.0 35.0 23.0 35.0 23.0 37.0 21.0 37.0 21.0 36.0 19.0 36.0 19.0 35.0 18.0 35.0 18.0 33.0 19.0 33.0 19.0 32.0 17.0 32.0 17.0 31.0 14.0 31.0 14.0 30.0 13.0 30.0 13.0 29.0 12.0 29.0 12.0 28.0 10.0 28.0 10.0 26.0 12.0 26.0 12.0 27.0 13.0 27.0 13.0 26.0 14.0 26.0 14.0 25.0 15.0 25.0 15.0 23.0 16.0 23.0 16.0 21.0 17.0 21.0 17.0 23.0 16.0 23.0 16.0 25.0 15.0 25.0 15.0 26.0 14.0 26.0 14.0 30.0 16.0 30.0 16.0 28.0 17.0 28.0 17.0 24.0 18.0 24.0 18.0 22.0 19.0 22.0 19.0 24.0 18.0 24.0 18.0 30.0 19.0 30.0 19.0 31.0 20.0 31.0 20.0 30.0 21.0 30.0 21.0 29.0 22.0 29.0 22.0 30.0 21.0 30.0 21.0 32.0 22.0 32.0 22.0 33.0 23.0 33.0 23.0 32.0 M20.0 33.0 L19.0 33.0 19.0 34.0 20.0 34.0 20.0 33.0 21.0 33.0 21.0 34.0 20.0 34.0 20.0 35.0 21.0 35.0 21.0 36.0 22.0 36.0 22.0 35.0 21.0 35.0 21.0 34.0 22.0 34.0 22.0 33.0 21.0 33.0 21.0 32.0 20.0 32.0 20.0 33.0" fill="#000000" fill-rule="evenodd" stroke="none"/>
    <path d="M26.4 20.0 L25.0 20.0 25.0 19.0 26.4 19.0 26.4 20.0 M17.0 21.0 L18.0 21.0 18.0 20.0 22.0 20.0 22.0 21.0 19.0 21.0 19.0 22.0 18.0 22.0 18.0 24.0 17.0 24.0 17.0 28.0 16.0 28.0 16.0 30.0 14.0 30.0 14.0 26.0 15.0 26.0 15.0 25.0 16.0 25.0 16.0 23.0 17.0 23.0 17.0 21.0" fill="#ffffff" fill-rule="evenodd" stroke="none"/>
    <path d="M22.0 20.0 L24.0 20.0 24.0 21.0 26.0 21.0 26.0 22.0 26.4 22.0 26.4 30.0 25.0 30.0 25.0 28.0 26.0 28.0 26.0 23.0 25.0 23.0 25.0 22.0 23.0 22.0 23.0 21.0 22.0 21.0 22.0 20.0" fill="#656565" fill-rule="evenodd" stroke="none"/>
  </g>
</svg>
