<?xml version="1.0" encoding="UTF-8" standalone="no"?>
<svg xmlns:ffdec="https://www.free-decompiler.com/flash" xmlns:xlink="http://www.w3.org/1999/xlink" ffdec:objectType="shape" height="20.0px" width="38.0px" xmlns="http://www.w3.org/2000/svg">
  <g transform="matrix(1.0, 0.0, 0.0, 1.0, 0.0, -14.0)">
    <path d="M10.0 16.0 L10.0 15.0 9.0 15.0 9.0 16.0 8.0 16.0 8.0 15.0 7.0 15.0 7.0 16.0 5.0 16.0 5.0 17.0 4.0 17.0 4.0 19.0 3.0 19.0 3.0 20.0 4.0 20.0 4.0 21.0 6.0 21.0 7.0 21.0 7.0 20.0 8.0 20.0 8.0 19.0 9.0 19.0 9.0 18.0 10.0 18.0 10.0 17.0 11.0 17.0 11.0 16.0 10.0 16.0 M1.0 24.0 L0.0 24.0 0.0 21.0 2.0 21.0 2.0 18.0 3.0 18.0 3.0 16.0 4.0 16.0 4.0 15.0 6.0 15.0 6.0 14.0 11.0 14.0 11.0 16.0 12.0 16.0 12.0 18.0 11.0 18.0 11.0 19.0 10.0 19.0 10.0 20.0 9.0 20.0 9.0 24.0 8.0 24.0 8.0 23.0 8.0 22.0 1.0 22.0 1.0 23.0 1.0 24.0 2.0 24.0 3.0 24.0 5.0 24.0 6.0 24.0 8.0 24.0 8.0 25.0 2.0 25.0 2.0 26.0 9.0 26.0 9.0 27.0 10.0 27.0 10.0 28.0 11.0 28.0 11.0 29.0 13.0 29.0 13.0 28.0 14.0 28.0 14.0 26.0 15.0 26.0 15.0 23.0 16.0 23.0 16.0 26.0 15.0 26.0 15.0 28.0 14.0 28.0 14.0 30.0 11.0 30.0 11.0 29.0 10.0 29.0 10.0 28.0 9.0 28.0 9.0 27.0 2.0 27.0 2.0 26.0 1.0 26.0 1.0 24.0 M9.0 24.0 L10.0 24.0 10.0 25.0 11.0 25.0 11.0 26.0 12.0 26.0 12.0 25.0 13.0 25.0 13.0 23.0 14.0 23.0 14.0 25.0 13.0 25.0 13.0 27.0 11.0 27.0 11.0 26.0 10.0 26.0 10.0 25.0 9.0 25.0 9.0 24.0" fill="#000000" fill-rule="evenodd" stroke="none"/>
    <path d="M10.0 16.0 L11.0 16.0 11.0 17.0 10.0 17.0 9.0 17.0 9.0 18.0 8.0 18.0 8.0 17.0 7.0 17.0 7.0 18.0 6.0 18.0 6.0 19.0 8.0 19.0 8.0 20.0 7.0 20.0 6.0 20.0 6.0 21.0 4.0 21.0 4.0 20.0 3.0 20.0 3.0 19.0 4.0 19.0 4.0 17.0 5.0 17.0 5.0 16.0 7.0 16.0 7.0 15.0 8.0 15.0 8.0 16.0 8.0 17.0 9.0 17.0 9.0 16.0 10.0 16.0 M8.0 24.0 L9.0 24.0 9.0 25.0 10.0 25.0 10.0 26.0 11.0 26.0 11.0 27.0 13.0 27.0 13.0 25.0 14.0 25.0 14.0 23.0 15.0 23.0 15.0 26.0 14.0 26.0 14.0 28.0 13.0 28.0 13.0 29.0 11.0 29.0 11.0 28.0 10.0 28.0 10.0 27.0 9.0 27.0 9.0 26.0 2.0 26.0 2.0 25.0 8.0 25.0 8.0 24.0 M4.0 20.0 L5.0 20.0 5.0 19.0 4.0 19.0 4.0 20.0" fill="#ffffff" fill-rule="evenodd" stroke="none"/>
    <path d="M1.0 24.0 L1.0 23.0 2.0 23.0 2.0 24.0 1.0 24.0 M8.0 23.0 L8.0 24.0 6.0 24.0 6.0 23.0 8.0 23.0 M3.0 23.0 L5.0 23.0 5.0 24.0 3.0 24.0 3.0 23.0" fill="#808080" fill-rule="evenodd" stroke="none"/>
    <path d="M2.0 24.0 L2.0 23.0 3.0 23.0 3.0 24.0 2.0 24.0 M5.0 23.0 L6.0 23.0 6.0 24.0 5.0 24.0 5.0 23.0" fill="#404040" fill-rule="evenodd" stroke="none"/>
    <path d="M8.0 16.0 L9.0 16.0 9.0 15.0 10.0 15.0 10.0 16.0 9.0 16.0 9.0 17.0 8.0 17.0 8.0 16.0 M1.0 23.0 L1.0 22.0 8.0 22.0 8.0 23.0 6.0 23.0 5.0 23.0 3.0 23.0 2.0 23.0 1.0 23.0 M10.0 17.0 L10.0 18.0 9.0 18.0 9.0 19.0 8.0 19.0 6.0 19.0 6.0 18.0 7.0 18.0 7.0 17.0 8.0 17.0 8.0 18.0 9.0 18.0 9.0 17.0 10.0 17.0 M7.0 20.0 L7.0 21.0 6.0 21.0 6.0 20.0 7.0 20.0 M4.0 20.0 L4.0 19.0 5.0 19.0 5.0 20.0 4.0 20.0" fill="#c0c0c0" fill-rule="evenodd" stroke="none"/>
    <path d="M29.0 21.0 L29.0 23.0 30.0 23.0 30.0 25.0 31.0 25.0 31.0 27.0 32.0 27.0 32.0 29.0 38.0 29.0 38.0 32.0 34.0 32.0 34.0 33.0 33.0 33.0 33.0 34.0 30.0 34.0 30.0 30.0 29.0 30.0 29.0 28.0 28.0 28.0 28.0 26.0 27.0 26.0 27.0 24.0 26.3 24.0 26.3 23.0 27.0 23.0 27.0 22.0 28.0 22.0 28.0 21.0 29.0 21.0 M27.0 24.0 L28.0 24.0 28.0 26.0 29.0 26.0 29.0 28.0 30.0 28.0 30.0 30.0 31.0 30.0 31.0 33.0 32.0 33.0 32.0 32.0 33.0 32.0 33.0 31.0 37.0 31.0 37.0 30.0 32.0 30.0 32.0 29.0 31.0 29.0 31.0 27.0 30.0 27.0 30.0 25.0 29.0 25.0 29.0 23.0 27.0 23.0 27.0 24.0" fill="#000000" fill-rule="evenodd" stroke="none"/>
    <path d="M27.0 24.0 L27.0 23.0 29.0 23.0 29.0 25.0 30.0 25.0 30.0 27.0 31.0 27.0 31.0 29.0 32.0 29.0 32.0 30.0 37.0 30.0 37.0 31.0 33.0 31.0 33.0 32.0 32.0 32.0 32.0 33.0 31.0 33.0 31.0 30.0 30.0 30.0 30.0 28.0 29.0 28.0 29.0 26.0 28.0 26.0 28.0 24.0 27.0 24.0" fill="#ffffff" fill-rule="evenodd" stroke="none"/>
  </g>
</svg>
