<?xml version="1.0" encoding="UTF-8" standalone="no"?>
<svg xmlns:ffdec="https://www.free-decompiler.com/flash" xmlns:xlink="http://www.w3.org/1999/xlink" ffdec:objectType="shape" height="15.0px" width="27.0px" xmlns="http://www.w3.org/2000/svg">
  <g transform="matrix(1.0, 0.0, 0.0, 1.0, -11.0, -19.0)">
    <path d="M26.0 21.0 L26.0 20.0 25.0 20.0 25.0 21.0 23.0 21.0 23.0 19.0 29.0 19.0 29.0 21.0 28.0 21.0 28.0 20.0 27.0 20.0 27.0 21.0 26.0 21.0 M23.0 21.0 L23.0 22.0 22.0 22.0 22.0 24.0 21.0 24.0 21.0 25.0 22.0 25.0 22.0 26.0 24.0 26.0 25.0 26.0 25.0 25.0 26.0 25.0 26.0 24.0 27.0 24.0 27.0 23.0 28.0 23.0 28.0 22.0 29.0 22.0 29.0 21.0 30.0 21.0 30.0 25.0 29.0 25.0 29.0 24.0 28.0 24.0 28.0 26.0 27.0 26.0 27.0 29.0 26.0 29.0 26.0 32.0 24.0 32.0 24.0 33.0 19.0 33.0 19.0 32.0 17.0 32.0 17.0 31.0 11.0 31.0 11.0 27.0 12.0 27.0 12.0 25.0 13.0 25.0 13.0 23.0 14.0 23.0 14.0 25.0 13.0 25.0 13.0 27.0 12.0 27.0 12.0 30.0 17.0 30.0 17.0 31.0 25.0 31.0 25.0 30.0 19.0 30.0 19.0 29.0 13.0 29.0 13.0 28.0 14.0 28.0 14.0 26.0 15.0 26.0 15.0 23.0 16.0 23.0 16.0 26.0 15.0 26.0 15.0 28.0 18.0 28.0 18.0 26.0 20.0 26.0 20.0 21.0 23.0 21.0 M30.0 25.0 L31.0 25.0 31.0 27.0 32.0 27.0 32.0 29.0 38.0 29.0 38.0 32.0 34.0 32.0 34.0 33.0 33.0 33.0 33.0 34.0 30.0 34.0 30.0 30.0 29.0 30.0 29.0 28.0 28.0 28.0 28.0 26.0 29.0 26.0 29.0 28.0 30.0 28.0 30.0 30.0 31.0 30.0 31.0 33.0 32.0 33.0 32.0 32.0 33.0 32.0 33.0 31.0 37.0 31.0 37.0 30.0 32.0 30.0 32.0 29.0 31.0 29.0 31.0 27.0 30.0 27.0 30.0 25.0 M26.0 28.0 L26.0 27.0 19.0 27.0 19.0 28.0 19.0 29.0 21.0 29.0 22.0 29.0 25.0 29.0 26.0 29.0 26.0 28.0" fill="#000000" fill-rule="evenodd" stroke="none"/>
    <path d="M23.0 21.0 L25.0 21.0 25.0 20.0 26.0 20.0 26.0 21.0 26.0 22.0 25.0 22.0 25.0 23.0 24.0 23.0 24.0 24.0 26.0 24.0 26.0 25.0 25.0 25.0 24.0 25.0 24.0 26.0 22.0 26.0 22.0 25.0 21.0 25.0 21.0 24.0 22.0 24.0 22.0 25.0 23.0 25.0 23.0 24.0 22.0 24.0 22.0 22.0 23.0 22.0 23.0 21.0 M28.0 21.0 L29.0 21.0 29.0 22.0 28.0 22.0 27.0 22.0 27.0 23.0 26.0 23.0 26.0 22.0 27.0 22.0 27.0 21.0 28.0 21.0 M28.0 26.0 L28.0 24.0 29.0 24.0 29.0 25.0 30.0 25.0 30.0 27.0 31.0 27.0 31.0 29.0 32.0 29.0 32.0 30.0 37.0 30.0 37.0 31.0 33.0 31.0 33.0 32.0 32.0 32.0 32.0 33.0 31.0 33.0 31.0 30.0 30.0 30.0 30.0 28.0 29.0 28.0 29.0 26.0 28.0 26.0 M14.0 23.0 L15.0 23.0 15.0 26.0 14.0 26.0 14.0 28.0 13.0 28.0 13.0 29.0 19.0 29.0 19.0 30.0 25.0 30.0 25.0 31.0 17.0 31.0 17.0 30.0 12.0 30.0 12.0 27.0 13.0 27.0 13.0 25.0 14.0 25.0 14.0 23.0" fill="#ffffff" fill-rule="evenodd" stroke="none"/>
    <path d="M26.0 21.0 L27.0 21.0 27.0 20.0 28.0 20.0 28.0 21.0 27.0 21.0 27.0 22.0 26.0 22.0 26.0 21.0 M22.0 24.0 L23.0 24.0 23.0 25.0 22.0 25.0 22.0 24.0 M24.0 26.0 L24.0 25.0 25.0 25.0 25.0 26.0 24.0 26.0 M26.0 24.0 L24.0 24.0 24.0 23.0 25.0 23.0 25.0 22.0 26.0 22.0 26.0 23.0 27.0 23.0 27.0 22.0 28.0 22.0 28.0 23.0 27.0 23.0 27.0 24.0 26.0 24.0 M19.0 28.0 L19.0 27.0 26.0 27.0 26.0 28.0 25.0 28.0 22.0 28.0 21.0 28.0 19.0 28.0" fill="#c0c0c0" fill-rule="evenodd" stroke="none"/>
    <path d="M26.0 28.0 L26.0 29.0 25.0 29.0 25.0 28.0 26.0 28.0 M22.0 29.0 L21.0 29.0 21.0 28.0 22.0 28.0 22.0 29.0" fill="#404040" fill-rule="evenodd" stroke="none"/>
    <path d="M25.0 29.0 L22.0 29.0 22.0 28.0 25.0 28.0 25.0 29.0 M21.0 29.0 L19.0 29.0 19.0 28.0 21.0 28.0 21.0 29.0" fill="#808080" fill-rule="evenodd" stroke="none"/>
  </g>
</svg>
