<?xml version="1.0" encoding="UTF-8" standalone="no"?>
<svg xmlns:ffdec="https://www.free-decompiler.com/flash" xmlns:xlink="http://www.w3.org/1999/xlink" ffdec:objectType="shape" height="11.0px" width="17.0px" xmlns="http://www.w3.org/2000/svg">
  <g transform="matrix(1.0, 0.0, 0.0, 1.0, 8.5, 6.0)">
    <path d="M6.5 -1.0 L6.5 0.0 7.5 0.0 7.5 1.0 1.5 1.0 1.5 0.0 3.5 0.0 3.5 -1.0 4.5 -1.0 4.5 0.0 5.5 0.0 5.5 -1.0 6.5 -1.0 M8.5 -3.0 L3.5 -3.0 3.5 -4.0 8.5 -4.0 8.5 -3.0 M6.5 4.0 L6.5 5.0 2.5 5.0 2.5 4.0 1.5 4.0 1.5 3.0 2.5 3.0 2.5 4.0 4.5 4.0 4.5 3.0 5.5 3.0 5.5 2.0 7.5 2.0 7.5 4.0 6.5 4.0 M-8.5 -5.0 L-6.5 -5.0 -6.5 -6.0 -3.5 -6.0 -3.5 -5.0 -6.5 -5.0 -6.5 -4.0 -8.5 -4.0 -8.5 -5.0 M-5.5 -1.0 L-5.5 0.0 -4.5 0.0 -4.5 -1.0 -3.5 -1.0 -3.5 0.0 -1.5 0.0 -1.5 1.0 -7.5 1.0 -7.5 0.0 -6.5 0.0 -6.5 -1.0 -5.5 -1.0 M-3.5 3.0 L-3.5 2.0 -1.5 2.0 -1.5 4.0 -2.5 4.0 -2.5 5.0 -6.5 5.0 -6.5 4.0 -7.5 4.0 -7.5 3.0 -6.5 3.0 -6.5 4.0 -4.5 4.0 -4.5 3.0 -3.5 3.0" fill="#000000" fill-rule="evenodd" stroke="none"/>
  </g>
</svg>
