<?xml version="1.0" encoding="UTF-8" standalone="no"?>
<svg xmlns:ffdec="https://www.free-decompiler.com/flash" xmlns:xlink="http://www.w3.org/1999/xlink" ffdec:objectType="shape" height="21.0px" width="30.0px" xmlns="http://www.w3.org/2000/svg">
  <g transform="matrix(1.0, 0.0, 0.0, 1.0, -11.0, -12.0)">
    <path d="M41.0 15.0 L40.0 15.0 40.0 16.0 41.0 16.0 41.0 19.0 40.0 19.0 40.0 21.0 38.0 21.0 38.0 22.0 34.0 22.0 34.0 24.0 33.0 24.0 33.0 26.0 32.0 26.0 32.0 28.0 30.0 28.0 30.0 27.0 29.0 27.0 29.0 26.0 28.0 26.0 28.0 25.0 27.0 25.0 27.0 22.0 28.0 22.0 28.0 21.0 29.0 21.0 29.0 22.0 30.0 22.0 30.0 23.0 31.0 23.0 31.0 21.0 32.0 21.0 32.0 19.0 31.0 19.0 31.0 16.0 32.0 16.0 32.0 14.0 33.0 14.0 33.0 13.0 35.0 13.0 35.0 12.0 40.0 12.0 40.0 14.0 41.0 14.0 41.0 15.0 M37.0 14.0 L37.0 13.0 36.0 13.0 36.0 14.0 34.0 14.0 34.0 15.0 33.0 15.0 33.0 17.0 32.0 17.0 32.0 18.0 33.0 18.0 33.0 19.0 34.0 19.0 34.0 20.0 33.0 20.0 33.0 21.0 32.0 21.0 32.0 23.0 31.0 23.0 31.0 25.0 30.0 25.0 30.0 24.0 29.0 24.0 29.0 23.0 28.0 23.0 28.0 25.0 29.0 25.0 29.0 26.0 30.0 26.0 30.0 27.0 31.0 27.0 31.0 26.0 32.0 26.0 32.0 24.0 33.0 24.0 33.0 22.0 34.0 22.0 34.0 21.0 38.0 21.0 38.0 20.0 39.0 20.0 39.0 19.0 40.0 19.0 40.0 17.0 38.0 17.0 38.0 16.0 39.0 16.0 39.0 15.0 40.0 15.0 40.0 14.0 39.0 14.0 39.0 13.0 38.0 13.0 38.0 14.0 37.0 14.0 M34.0 18.0 L37.0 18.0 37.0 17.0 38.0 17.0 38.0 18.0 37.0 18.0 37.0 19.0 34.0 19.0 34.0 18.0 M15.0 23.0 L16.0 23.0 16.0 26.0 15.0 26.0 15.0 28.0 18.0 28.0 18.0 26.0 27.0 26.0 27.0 29.0 26.0 29.0 26.0 32.0 24.0 32.0 24.0 33.0 19.0 33.0 19.0 32.0 17.0 32.0 17.0 31.0 11.0 31.0 11.0 27.0 12.0 27.0 12.0 25.0 13.0 25.0 13.0 23.0 14.0 23.0 14.0 25.0 13.0 25.0 13.0 27.0 12.0 27.0 12.0 30.0 17.0 30.0 17.0 31.0 25.0 31.0 25.0 30.0 19.0 30.0 19.0 29.0 13.0 29.0 13.0 28.0 14.0 28.0 14.0 26.0 15.0 26.0 15.0 23.0 M19.0 28.0 L19.0 29.0 22.0 29.0 23.0 29.0 25.0 29.0 26.0 29.0 26.0 28.0 26.0 27.0 19.0 27.0 19.0 28.0" fill="#000000" fill-rule="evenodd" stroke="none"/>
    <path d="M28.0 25.0 L28.0 23.0 29.0 23.0 29.0 24.0 30.0 24.0 30.0 25.0 31.0 25.0 31.0 23.0 32.0 23.0 32.0 21.0 33.0 21.0 33.0 20.0 34.0 20.0 34.0 19.0 33.0 19.0 33.0 18.0 32.0 18.0 32.0 17.0 33.0 17.0 33.0 15.0 34.0 15.0 34.0 14.0 36.0 14.0 36.0 13.0 37.0 13.0 37.0 14.0 37.0 15.0 36.0 15.0 36.0 16.0 35.0 16.0 35.0 17.0 37.0 17.0 37.0 18.0 34.0 18.0 34.0 19.0 37.0 19.0 37.0 18.0 38.0 18.0 38.0 17.0 40.0 17.0 40.0 19.0 39.0 19.0 39.0 20.0 38.0 20.0 38.0 21.0 34.0 21.0 34.0 22.0 33.0 22.0 33.0 24.0 32.0 24.0 32.0 26.0 31.0 26.0 31.0 27.0 30.0 27.0 30.0 26.0 29.0 26.0 29.0 25.0 28.0 25.0 M39.0 14.0 L40.0 14.0 40.0 15.0 39.0 15.0 38.0 15.0 38.0 14.0 39.0 14.0 M38.0 16.0 L37.0 16.0 37.0 15.0 38.0 15.0 38.0 16.0 M34.0 18.0 L34.0 17.0 33.0 17.0 33.0 18.0 34.0 18.0 M14.0 23.0 L15.0 23.0 15.0 26.0 14.0 26.0 14.0 28.0 13.0 28.0 13.0 29.0 19.0 29.0 19.0 30.0 25.0 30.0 25.0 31.0 17.0 31.0 17.0 30.0 12.0 30.0 12.0 27.0 13.0 27.0 13.0 25.0 14.0 25.0 14.0 23.0" fill="#ffffff" fill-rule="evenodd" stroke="none"/>
    <path d="M19.0 29.0 L19.0 28.0 22.0 28.0 22.0 29.0 19.0 29.0 M25.0 29.0 L23.0 29.0 23.0 28.0 25.0 28.0 25.0 29.0" fill="#808080" fill-rule="evenodd" stroke="none"/>
    <path d="M26.0 28.0 L26.0 29.0 25.0 29.0 25.0 28.0 26.0 28.0 M23.0 29.0 L22.0 29.0 22.0 28.0 23.0 28.0 23.0 29.0" fill="#404040" fill-rule="evenodd" stroke="none"/>
    <path d="M37.0 14.0 L38.0 14.0 38.0 13.0 39.0 13.0 39.0 14.0 38.0 14.0 38.0 15.0 39.0 15.0 39.0 16.0 38.0 16.0 38.0 17.0 37.0 17.0 35.0 17.0 35.0 16.0 36.0 16.0 36.0 15.0 37.0 15.0 37.0 14.0 M34.0 18.0 L33.0 18.0 33.0 17.0 34.0 17.0 34.0 18.0 M38.0 16.0 L38.0 15.0 37.0 15.0 37.0 16.0 38.0 16.0 M19.0 28.0 L19.0 27.0 26.0 27.0 26.0 28.0 25.0 28.0 23.0 28.0 22.0 28.0 19.0 28.0" fill="#c0c0c0" fill-rule="evenodd" stroke="none"/>
  </g>
</svg>
