<?xml version="1.0" encoding="UTF-8" standalone="no"?>
<svg xmlns:ffdec="https://www.free-decompiler.com/flash" xmlns:xlink="http://www.w3.org/1999/xlink" ffdec:objectType="shape" height="24.0px" width="26.0px" xmlns="http://www.w3.org/2000/svg">
  <g transform="matrix(1.0, 0.0, 0.0, 1.0, -11.0, -9.0)">
    <path d="M32.0 11.0 L32.0 10.0 31.0 10.0 31.0 11.0 29.0 11.0 29.0 12.0 28.0 12.0 28.0 14.0 27.0 14.0 27.0 15.0 28.0 15.0 28.0 16.0 30.0 16.0 31.0 16.0 31.0 25.0 30.0 25.0 30.0 24.0 29.0 24.0 29.0 23.0 30.0 23.0 30.0 17.0 27.0 17.0 27.0 16.0 26.0 16.0 26.0 13.0 27.0 13.0 27.0 11.0 28.0 11.0 28.0 10.0 30.0 10.0 30.0 9.0 35.0 9.0 35.0 11.0 36.0 11.0 36.0 12.0 37.0 12.0 37.0 16.0 36.0 16.0 36.0 17.0 35.0 17.0 35.0 18.0 34.0 18.0 34.0 19.0 33.0 19.0 33.0 27.0 32.0 27.0 32.0 28.0 30.0 28.0 30.0 27.0 29.0 27.0 29.0 26.0 28.0 26.0 28.0 25.0 27.0 25.0 27.0 22.0 28.0 22.0 28.0 21.0 29.0 21.0 29.0 23.0 28.0 23.0 28.0 25.0 29.0 25.0 29.0 26.0 30.0 26.0 30.0 27.0 32.0 27.0 32.0 18.0 33.0 18.0 33.0 17.0 35.0 17.0 35.0 16.0 36.0 16.0 36.0 12.0 34.0 12.0 34.0 14.0 33.0 14.0 33.0 15.0 32.0 15.0 32.0 16.0 31.0 16.0 31.0 15.0 32.0 15.0 32.0 14.0 33.0 14.0 33.0 13.0 33.0 12.0 34.0 12.0 34.0 11.0 34.0 10.0 33.0 10.0 33.0 11.0 32.0 11.0 M15.0 23.0 L16.0 23.0 16.0 26.0 15.0 26.0 15.0 28.0 18.0 28.0 18.0 26.0 27.0 26.0 27.0 29.0 26.0 29.0 26.0 32.0 24.0 32.0 24.0 33.0 19.0 33.0 19.0 32.0 17.0 32.0 17.0 31.0 11.0 31.0 11.0 27.0 12.0 27.0 12.0 25.0 13.0 25.0 13.0 23.0 14.0 23.0 14.0 25.0 13.0 25.0 13.0 27.0 12.0 27.0 12.0 30.0 17.0 30.0 17.0 31.0 25.0 31.0 25.0 30.0 19.0 30.0 19.0 29.0 13.0 29.0 13.0 28.0 14.0 28.0 14.0 26.0 15.0 26.0 15.0 23.0 M19.0 28.0 L19.0 29.0 22.0 29.0 23.0 29.0 25.0 29.0 26.0 29.0 26.0 28.0 26.0 27.0 19.0 27.0 19.0 28.0" fill="#000000" fill-rule="evenodd" stroke="none"/>
    <path d="M32.0 11.0 L32.0 12.0 31.0 12.0 31.0 13.0 30.0 13.0 30.0 14.0 32.0 14.0 32.0 15.0 31.0 15.0 30.0 15.0 30.0 16.0 28.0 16.0 28.0 15.0 29.0 15.0 29.0 14.0 28.0 14.0 28.0 12.0 29.0 12.0 29.0 11.0 31.0 11.0 31.0 10.0 32.0 10.0 32.0 11.0 M33.0 13.0 L32.0 13.0 32.0 12.0 33.0 12.0 33.0 11.0 34.0 11.0 34.0 12.0 33.0 12.0 33.0 13.0 M29.0 23.0 L29.0 24.0 30.0 24.0 30.0 25.0 31.0 25.0 31.0 16.0 32.0 16.0 32.0 15.0 33.0 15.0 33.0 14.0 34.0 14.0 34.0 12.0 36.0 12.0 36.0 16.0 35.0 16.0 35.0 17.0 33.0 17.0 33.0 18.0 32.0 18.0 32.0 27.0 30.0 27.0 30.0 26.0 29.0 26.0 29.0 25.0 28.0 25.0 28.0 23.0 29.0 23.0 M28.0 14.0 L28.0 15.0 27.0 15.0 27.0 14.0 28.0 14.0 M14.0 23.0 L15.0 23.0 15.0 26.0 14.0 26.0 14.0 28.0 13.0 28.0 13.0 29.0 19.0 29.0 19.0 30.0 25.0 30.0 25.0 31.0 17.0 31.0 17.0 30.0 12.0 30.0 12.0 27.0 13.0 27.0 13.0 25.0 14.0 25.0 14.0 23.0" fill="#ffffff" fill-rule="evenodd" stroke="none"/>
    <path d="M32.0 14.0 L30.0 14.0 30.0 13.0 31.0 13.0 31.0 12.0 32.0 12.0 32.0 11.0 33.0 11.0 33.0 12.0 32.0 12.0 32.0 13.0 33.0 13.0 33.0 14.0 32.0 14.0 M28.0 14.0 L29.0 14.0 29.0 15.0 28.0 15.0 28.0 14.0 M30.0 16.0 L30.0 15.0 31.0 15.0 31.0 16.0 30.0 16.0 M34.0 11.0 L33.0 11.0 33.0 10.0 34.0 10.0 34.0 11.0 M19.0 28.0 L19.0 27.0 26.0 27.0 26.0 28.0 25.0 28.0 23.0 28.0 22.0 28.0 19.0 28.0" fill="#c0c0c0" fill-rule="evenodd" stroke="none"/>
    <path d="M26.0 28.0 L26.0 29.0 25.0 29.0 25.0 28.0 26.0 28.0 M23.0 29.0 L22.0 29.0 22.0 28.0 23.0 28.0 23.0 29.0" fill="#404040" fill-rule="evenodd" stroke="none"/>
    <path d="M19.0 29.0 L19.0 28.0 22.0 28.0 22.0 29.0 19.0 29.0 M25.0 29.0 L23.0 29.0 23.0 28.0 25.0 28.0 25.0 29.0" fill="#808080" fill-rule="evenodd" stroke="none"/>
  </g>
</svg>
