<?xml version="1.0" encoding="UTF-8" standalone="no"?>
<svg xmlns:ffdec="https://www.free-decompiler.com/flash" xmlns:xlink="http://www.w3.org/1999/xlink" ffdec:objectType="shape" height="29.0px" width="30.0px" xmlns="http://www.w3.org/2000/svg">
  <g transform="matrix(1.0, 0.0, 0.0, 1.0, -11.0, -4.0)">
    <path d="M41.0 19.0 L40.0 19.0 40.0 21.0 38.0 21.0 38.0 22.0 34.0 22.0 34.0 24.0 33.0 24.0 33.0 26.0 32.0 26.0 32.0 28.0 30.0 28.0 30.0 27.0 29.0 27.0 29.0 26.0 28.0 26.0 28.0 25.0 27.0 25.0 27.0 21.0 25.0 21.0 25.0 20.0 24.0 20.0 24.0 16.0 22.0 16.0 22.0 15.0 21.0 15.0 21.0 11.0 22.0 11.0 22.0 10.0 23.0 10.0 23.0 7.0 24.0 7.0 24.0 6.0 25.0 6.0 25.0 5.0 26.0 5.0 26.0 4.0 29.0 4.0 29.0 5.0 30.0 5.0 30.0 4.0 35.0 4.0 35.0 5.0 36.0 5.0 36.0 7.0 39.0 7.0 39.0 8.0 41.0 8.0 41.0 15.0 40.0 15.0 40.0 16.0 41.0 16.0 41.0 19.0 M38.0 15.0 L38.0 14.0 39.0 14.0 39.0 13.0 40.0 13.0 40.0 9.0 39.0 9.0 39.0 8.0 35.0 8.0 35.0 6.0 34.0 6.0 34.0 5.0 31.0 5.0 31.0 6.0 30.0 6.0 30.0 7.0 29.0 7.0 29.0 5.0 27.0 5.0 27.0 6.0 25.0 6.0 25.0 8.0 24.0 8.0 24.0 11.0 22.0 11.0 22.0 15.0 24.0 15.0 24.0 16.0 25.0 16.0 25.0 20.0 27.0 20.0 27.0 21.0 31.0 21.0 31.0 20.0 30.0 20.0 30.0 19.0 35.0 19.0 35.0 18.0 36.0 18.0 36.0 15.0 35.0 15.0 35.0 13.0 36.0 13.0 36.0 14.0 37.0 14.0 37.0 15.0 38.0 15.0 38.0 16.0 39.0 16.0 39.0 15.0 38.0 15.0 M24.0 11.0 L25.0 11.0 25.0 12.0 24.0 12.0 24.0 11.0 M30.0 19.0 L29.0 19.0 29.0 18.0 28.0 18.0 28.0 16.0 29.0 16.0 29.0 15.0 30.0 15.0 30.0 16.0 29.0 16.0 29.0 18.0 30.0 18.0 30.0 19.0 M31.0 23.0 L31.0 25.0 30.0 25.0 30.0 24.0 29.0 24.0 29.0 23.0 28.0 23.0 28.0 25.0 29.0 25.0 29.0 26.0 30.0 26.0 30.0 27.0 31.0 27.0 31.0 26.0 32.0 26.0 32.0 24.0 33.0 24.0 33.0 22.0 34.0 22.0 34.0 21.0 38.0 21.0 38.0 20.0 39.0 20.0 39.0 19.0 40.0 19.0 40.0 17.0 38.0 17.0 38.0 18.0 37.0 18.0 37.0 19.0 36.0 19.0 36.0 20.0 33.0 20.0 33.0 21.0 32.0 21.0 32.0 23.0 31.0 23.0 31.0 22.0 30.0 22.0 30.0 23.0 31.0 23.0 M15.0 23.0 L16.0 23.0 16.0 26.0 15.0 26.0 15.0 28.0 18.0 28.0 18.0 26.0 27.0 26.0 27.0 29.0 26.0 29.0 26.0 32.0 24.0 32.0 24.0 33.0 19.0 33.0 19.0 32.0 17.0 32.0 17.0 31.0 11.0 31.0 11.0 27.0 12.0 27.0 12.0 25.0 13.0 25.0 13.0 23.0 14.0 23.0 14.0 25.0 13.0 25.0 13.0 27.0 12.0 27.0 12.0 30.0 17.0 30.0 17.0 31.0 25.0 31.0 25.0 30.0 19.0 30.0 19.0 29.0 13.0 29.0 13.0 28.0 14.0 28.0 14.0 26.0 15.0 26.0 15.0 23.0 M19.0 28.0 L19.0 29.0 22.0 29.0 23.0 29.0 25.0 29.0 26.0 29.0 26.0 28.0 26.0 27.0 19.0 27.0 19.0 28.0" fill="#000000" fill-rule="evenodd" stroke="none"/>
    <path d="M29.0 5.0 L29.0 7.0 30.0 7.0 30.0 6.0 31.0 6.0 31.0 5.0 34.0 5.0 34.0 6.0 35.0 6.0 35.0 8.0 39.0 8.0 39.0 9.0 40.0 9.0 40.0 13.0 39.0 13.0 39.0 14.0 38.0 14.0 38.0 15.0 37.0 15.0 37.0 14.0 36.0 14.0 36.0 13.0 35.0 13.0 35.0 15.0 36.0 15.0 36.0 18.0 35.0 18.0 35.0 19.0 30.0 19.0 30.0 20.0 31.0 20.0 31.0 21.0 27.0 21.0 27.0 20.0 25.0 20.0 25.0 16.0 24.0 16.0 24.0 15.0 22.0 15.0 22.0 11.0 24.0 11.0 24.0 8.0 25.0 8.0 25.0 6.0 27.0 6.0 27.0 5.0 29.0 5.0 M30.0 19.0 L30.0 18.0 29.0 18.0 29.0 16.0 30.0 16.0 30.0 15.0 29.0 15.0 29.0 16.0 28.0 16.0 28.0 18.0 29.0 18.0 29.0 19.0 30.0 19.0 M24.0 11.0 L24.0 12.0 25.0 12.0 25.0 11.0 24.0 11.0 M28.0 25.0 L28.0 23.0 29.0 23.0 29.0 24.0 30.0 24.0 30.0 25.0 31.0 25.0 31.0 23.0 32.0 23.0 32.0 21.0 33.0 21.0 33.0 20.0 36.0 20.0 36.0 19.0 37.0 19.0 37.0 18.0 38.0 18.0 38.0 17.0 40.0 17.0 40.0 19.0 39.0 19.0 39.0 20.0 38.0 20.0 38.0 21.0 34.0 21.0 34.0 22.0 33.0 22.0 33.0 24.0 32.0 24.0 32.0 26.0 31.0 26.0 31.0 27.0 30.0 27.0 30.0 26.0 29.0 26.0 29.0 25.0 28.0 25.0 M14.0 23.0 L15.0 23.0 15.0 26.0 14.0 26.0 14.0 28.0 13.0 28.0 13.0 29.0 19.0 29.0 19.0 30.0 25.0 30.0 25.0 31.0 17.0 31.0 17.0 30.0 12.0 30.0 12.0 27.0 13.0 27.0 13.0 25.0 14.0 25.0 14.0 23.0" fill="#ffffff" fill-rule="evenodd" stroke="none"/>
    <path d="M19.0 29.0 L19.0 28.0 22.0 28.0 22.0 29.0 19.0 29.0 M25.0 29.0 L23.0 29.0 23.0 28.0 25.0 28.0 25.0 29.0" fill="#808080" fill-rule="evenodd" stroke="none"/>
    <path d="M26.0 28.0 L26.0 29.0 25.0 29.0 25.0 28.0 26.0 28.0 M23.0 29.0 L22.0 29.0 22.0 28.0 23.0 28.0 23.0 29.0" fill="#404040" fill-rule="evenodd" stroke="none"/>
    <path d="M38.0 15.0 L39.0 15.0 39.0 16.0 38.0 16.0 38.0 15.0 M19.0 28.0 L19.0 27.0 26.0 27.0 26.0 28.0 25.0 28.0 23.0 28.0 22.0 28.0 19.0 28.0" fill="#c0c0c0" fill-rule="evenodd" stroke="none"/>
  </g>
</svg>
