<?xml version="1.0" encoding="UTF-8" standalone="no"?>
<svg xmlns:ffdec="https://www.free-decompiler.com/flash" xmlns:xlink="http://www.w3.org/1999/xlink" ffdec:objectType="shape" height="29.0px" width="39.0px" xmlns="http://www.w3.org/2000/svg">
  <g transform="matrix(1.0, 0.0, 0.0, 1.0, 23.05, -6.0)">
    <path d="M3.95 7.0 L5.95 7.0 5.95 6.0 8.95 6.0 8.95 7.0 9.95 7.0 9.95 9.0 10.95 9.0 10.95 13.0 9.95 13.0 9.95 17.0 10.95 17.0 10.95 19.0 11.95 19.0 11.95 25.0 12.95 25.0 12.95 26.0 14.95 26.0 14.95 27.0 15.95 27.0 15.95 28.0 14.95 28.0 14.95 29.0 13.95 29.0 13.95 30.0 8.95 30.0 8.95 29.0 4.95 29.0 4.95 30.0 2.95 30.0 2.95 31.0 -5.05 31.0 -5.05 32.0 -6.05 32.0 -6.05 33.0 -7.05 33.0 -7.05 34.0 -8.05 34.0 -8.05 35.0 -11.05 35.0 -11.05 34.0 -12.05 34.0 -12.05 35.0 -15.05 35.0 -15.05 32.0 -14.05 32.0 -14.05 30.0 -13.05 30.0 -13.05 28.0 -12.05 28.0 -12.05 27.0 -16.05 27.0 -16.05 28.0 -17.05 28.0 -17.05 29.0 -20.05 29.0 -20.05 28.0 -21.05 28.0 -21.05 25.0 -20.05 25.0 -20.05 24.0 -21.05 24.0 -21.05 23.0 -22.05 23.0 -22.05 22.0 -23.05 22.0 -23.05 19.0 -22.05 19.0 -22.05 18.0 -19.05 18.0 -19.05 17.0 -18.05 17.0 -18.05 16.0 -17.05 16.0 -17.05 15.0 -16.05 15.0 -16.05 14.0 -15.05 14.0 -15.05 13.0 -14.05 13.0 -14.05 10.0 -13.05 10.0 -13.05 9.0 -12.05 9.0 -12.05 10.0 -11.05 10.0 -11.05 12.0 -9.05 12.0 -9.05 11.0 -8.05 11.0 -8.05 10.0 -6.05 10.0 -6.05 9.0 -5.05 9.0 -5.05 14.0 -6.05 14.0 -6.05 15.0 -5.05 15.0 -5.05 16.0 2.95 16.0 2.95 15.0 5.95 15.0 5.95 14.0 6.95 14.0 6.95 13.0 7.95 13.0 7.95 9.0 6.95 9.0 6.95 8.0 5.95 8.0 5.95 9.0 3.95 9.0 3.95 10.0 1.95 10.0 1.95 9.0 2.95 9.0 2.95 8.0 3.95 8.0 3.95 7.0 M10.95 23.0 L10.95 19.0 9.95 19.0 9.95 17.0 8.95 17.0 8.95 16.0 7.95 16.0 7.95 15.0 5.95 15.0 5.95 16.0 2.95 16.0 2.95 17.0 -5.05 17.0 -5.05 16.0 -7.05 16.0 -7.05 15.0 -7.05 14.0 -7.05 13.0 -6.05 13.0 -6.05 11.0 -7.05 11.0 -7.05 12.0 -8.05 12.0 -8.05 13.0 -12.05 13.0 -12.05 11.0 -13.05 11.0 -13.05 13.0 -14.05 13.0 -14.05 14.0 -15.05 14.0 -15.05 15.0 -16.05 15.0 -16.05 16.0 -17.05 16.0 -17.05 17.0 -18.05 17.0 -18.05 18.0 -18.05 19.0 -17.05 19.0 -17.05 20.0 -17.05 22.0 -18.05 22.0 -18.05 23.0 -14.05 23.0 -14.05 22.0 -12.05 22.0 -12.05 21.0 -11.05 21.0 -11.05 22.0 -12.05 22.0 -12.05 23.0 -14.05 23.0 -14.05 24.0 -15.05 24.0 -15.05 26.0 -11.05 26.0 -11.05 28.0 -11.05 29.0 -12.05 29.0 -12.05 30.0 -13.05 30.0 -13.05 32.0 -14.05 32.0 -14.05 34.0 -12.05 34.0 -12.05 33.0 -11.05 33.0 -11.05 32.0 -10.05 32.0 -10.05 31.0 -10.05 30.0 -9.05 30.0 -9.05 28.0 -8.05 28.0 -8.05 30.0 -9.05 30.0 -9.05 32.0 -10.05 32.0 -10.05 34.0 -9.05 34.0 -8.05 34.0 -8.05 33.0 -7.05 33.0 -7.05 32.0 -6.05 32.0 -6.05 31.0 -6.05 30.0 -5.05 30.0 -5.05 28.0 -4.05 28.0 -4.05 30.0 2.95 30.0 2.95 29.0 4.95 29.0 4.95 28.0 6.95 28.0 6.95 27.0 7.95 27.0 7.95 28.0 8.95 28.0 8.95 29.0 13.95 29.0 13.95 27.0 12.95 27.0 12.95 26.0 10.95 26.0 10.95 24.0 10.95 23.0 M-15.05 18.0 L-15.05 19.0 -16.05 19.0 -16.05 18.0 -16.05 17.0 -15.05 17.0 -15.05 18.0 M-21.05 20.0 L-21.05 21.0 -19.05 21.0 -19.05 20.0 -21.05 20.0 M-13.05 19.0 L-13.05 17.0 -12.05 17.0 -12.05 19.0 -13.05 19.0 M-19.05 27.0 L-19.05 28.0 -17.05 28.0 -17.05 27.0 -16.05 27.0 -16.05 24.0 -19.05 24.0 -19.05 25.0 -20.05 25.0 -20.05 26.0 -20.05 27.0 -19.05 27.0" fill="#000000" fill-rule="evenodd" stroke="none"/>
    <path d="M-21.05 20.0 L-19.05 20.0 -19.05 21.0 -21.05 21.0 -21.05 20.0" fill="#ffffff" fill-rule="evenodd" stroke="none"/>
    <path d="M-7.05 15.0 L-7.05 16.0 -5.05 16.0 -5.05 17.0 2.95 17.0 2.95 16.0 5.95 16.0 5.95 15.0 7.95 15.0 7.95 16.0 8.95 16.0 8.95 17.0 9.95 17.0 9.95 19.0 10.95 19.0 10.95 23.0 9.95 23.0 9.95 24.0 10.95 24.0 10.95 26.0 12.95 26.0 12.95 27.0 13.95 27.0 13.95 29.0 8.95 29.0 8.95 28.0 7.95 28.0 7.95 27.0 6.95 27.0 6.95 28.0 4.95 28.0 4.95 29.0 2.95 29.0 2.95 30.0 -4.05 30.0 -4.05 28.0 -4.05 27.0 -3.05 27.0 -3.05 26.0 -4.05 26.0 -4.05 27.0 -5.05 27.0 -5.05 28.0 -5.05 30.0 -6.05 30.0 -6.05 31.0 -7.05 31.0 -7.05 32.0 -7.05 33.0 -8.05 33.0 -9.05 33.0 -9.05 34.0 -10.05 34.0 -10.05 32.0 -9.05 32.0 -9.05 30.0 -8.05 30.0 -8.05 28.0 -9.05 28.0 -9.05 30.0 -10.05 30.0 -10.05 28.0 -11.05 28.0 -11.05 26.0 -15.05 26.0 -15.05 24.0 -14.05 24.0 -14.05 23.0 -12.05 23.0 -12.05 22.0 -11.05 22.0 -11.05 21.0 -12.05 21.0 -12.05 22.0 -14.05 22.0 -14.05 23.0 -18.05 23.0 -18.05 22.0 -17.05 22.0 -17.05 20.0 -16.05 20.0 -16.05 19.0 -15.05 19.0 -15.05 18.0 -14.05 18.0 -14.05 17.0 -15.05 17.0 -15.05 16.0 -16.05 16.0 -16.05 15.0 -15.05 15.0 -15.05 14.0 -14.05 14.0 -14.05 13.0 -13.05 13.0 -13.05 11.0 -12.05 11.0 -12.05 13.0 -8.05 13.0 -8.05 12.0 -7.05 12.0 -7.05 11.0 -6.05 11.0 -6.05 13.0 -7.05 13.0 -7.05 14.0 -8.05 14.0 -8.05 15.0 -9.05 15.0 -9.05 16.0 -10.05 16.0 -10.05 17.0 -9.05 17.0 -9.05 16.0 -8.05 16.0 -8.05 15.0 -7.05 15.0 M-12.05 23.0 L-12.05 24.0 -11.05 24.0 -11.05 23.0 -12.05 23.0 M0.95 29.0 L0.95 28.0 -0.05 28.0 -0.05 29.0 0.95 29.0 M0.95 24.0 L0.95 23.0 -0.05 23.0 -0.05 24.0 0.95 24.0 M5.95 26.0 L6.95 26.0 6.95 25.0 5.95 25.0 5.95 26.0 M8.95 19.0 L7.95 19.0 7.95 20.0 8.95 20.0 8.95 19.0 M8.95 22.0 L7.95 22.0 7.95 23.0 8.95 23.0 8.95 22.0 M4.95 22.0 L4.95 20.0 3.95 20.0 3.95 22.0 4.95 22.0 M0.95 21.0 L0.95 22.0 1.95 22.0 1.95 23.0 2.95 23.0 2.95 22.0 1.95 22.0 1.95 21.0 0.95 21.0 M-17.05 17.0 L-17.05 16.0 -16.05 16.0 -16.05 17.0 -16.05 18.0 -17.05 18.0 -17.05 17.0 M-17.05 18.0 L-17.05 19.0 -18.05 19.0 -18.05 18.0 -17.05 18.0 M-16.05 21.0 L-16.05 22.0 -15.05 22.0 -15.05 21.0 -16.05 21.0 M-13.05 19.0 L-12.05 19.0 -12.05 17.0 -13.05 17.0 -13.05 19.0 -14.05 19.0 -14.05 20.0 -13.05 20.0 -13.05 19.0 M-4.05 24.0 L-5.05 24.0 -5.05 25.0 -4.05 25.0 -4.05 24.0 M-0.05 25.0 L-1.05 25.0 -1.05 26.0 -0.05 26.0 -0.05 25.0 M-1.05 18.0 L-2.05 18.0 -2.05 19.0 -1.05 19.0 -1.05 18.0 M-7.05 21.0 L-7.05 22.0 -8.05 22.0 -8.05 23.0 -9.05 23.0 -9.05 24.0 -8.05 24.0 -8.05 25.0 -7.05 25.0 -7.05 24.0 -8.05 24.0 -8.05 23.0 -7.05 23.0 -7.05 22.0 -6.05 22.0 -6.05 21.0 -7.05 21.0 M-9.05 20.0 L-10.05 20.0 -10.05 21.0 -9.05 21.0 -9.05 20.0 M-10.05 31.0 L-10.05 32.0 -11.05 32.0 -11.05 33.0 -12.05 33.0 -12.05 34.0 -14.05 34.0 -14.05 32.0 -13.05 32.0 -13.05 30.0 -12.05 30.0 -12.05 29.0 -11.05 29.0 -11.05 31.0 -12.05 31.0 -12.05 32.0 -13.05 32.0 -13.05 33.0 -12.05 33.0 -12.05 32.0 -11.05 32.0 -11.05 31.0 -10.05 31.0" fill="#c5c5c5" fill-rule="evenodd" stroke="none"/>
    <path d="M-7.05 15.0 L-8.05 15.0 -8.05 16.0 -9.05 16.0 -9.05 17.0 -10.05 17.0 -10.05 16.0 -9.05 16.0 -9.05 15.0 -8.05 15.0 -8.05 14.0 -7.05 14.0 -7.05 15.0 M-16.05 16.0 L-15.05 16.0 -15.05 17.0 -14.05 17.0 -14.05 18.0 -15.05 18.0 -15.05 17.0 -16.05 17.0 -16.05 16.0 M-16.05 19.0 L-16.05 20.0 -17.05 20.0 -17.05 19.0 -17.05 18.0 -16.05 18.0 -16.05 19.0 M-12.05 23.0 L-11.05 23.0 -11.05 24.0 -12.05 24.0 -12.05 23.0 M-11.05 28.0 L-10.05 28.0 -10.05 30.0 -10.05 31.0 -11.05 31.0 -11.05 32.0 -12.05 32.0 -12.05 33.0 -13.05 33.0 -13.05 32.0 -12.05 32.0 -12.05 31.0 -11.05 31.0 -11.05 29.0 -11.05 28.0 M-9.05 34.0 L-9.05 33.0 -8.05 33.0 -8.05 34.0 -9.05 34.0 M-7.05 32.0 L-7.05 31.0 -6.05 31.0 -6.05 32.0 -7.05 32.0 M-5.05 28.0 L-5.05 27.0 -4.05 27.0 -4.05 26.0 -3.05 26.0 -3.05 27.0 -4.05 27.0 -4.05 28.0 -5.05 28.0 M10.95 24.0 L9.95 24.0 9.95 23.0 10.95 23.0 10.95 24.0 M0.95 21.0 L1.95 21.0 1.95 22.0 2.95 22.0 2.95 23.0 1.95 23.0 1.95 22.0 0.95 22.0 0.95 21.0 M4.95 22.0 L3.95 22.0 3.95 20.0 4.95 20.0 4.95 22.0 M8.95 22.0 L8.95 23.0 7.95 23.0 7.95 22.0 8.95 22.0 M8.95 19.0 L8.95 20.0 7.95 20.0 7.95 19.0 8.95 19.0 M5.95 26.0 L5.95 25.0 6.95 25.0 6.95 26.0 5.95 26.0 M0.95 24.0 L-0.05 24.0 -0.05 23.0 0.95 23.0 0.95 24.0 M0.95 29.0 L-0.05 29.0 -0.05 28.0 0.95 28.0 0.95 29.0 M-17.05 17.0 L-17.05 18.0 -18.05 18.0 -18.05 17.0 -17.05 17.0 M-16.05 21.0 L-15.05 21.0 -15.05 22.0 -16.05 22.0 -16.05 21.0 M-13.05 19.0 L-13.05 20.0 -14.05 20.0 -14.05 19.0 -13.05 19.0 M-9.05 20.0 L-9.05 21.0 -10.05 21.0 -10.05 20.0 -9.05 20.0 M-7.05 21.0 L-6.05 21.0 -6.05 22.0 -7.05 22.0 -7.05 23.0 -8.05 23.0 -8.05 24.0 -7.05 24.0 -7.05 25.0 -8.05 25.0 -8.05 24.0 -9.05 24.0 -9.05 23.0 -8.05 23.0 -8.05 22.0 -7.05 22.0 -7.05 21.0 M-1.05 18.0 L-1.05 19.0 -2.05 19.0 -2.05 18.0 -1.05 18.0 M-0.05 25.0 L-0.05 26.0 -1.05 26.0 -1.05 25.0 -0.05 25.0 M-4.05 24.0 L-4.05 25.0 -5.05 25.0 -5.05 24.0 -4.05 24.0" fill="#c4c4c4" fill-rule="evenodd" stroke="none"/>
    <path d="M-19.05 27.0 L-19.05 26.0 -20.05 26.0 -20.05 25.0 -19.05 25.0 -19.05 24.0 -16.05 24.0 -16.05 27.0 -17.05 27.0 -17.05 28.0 -19.05 28.0 -19.05 27.0" fill="#616161" fill-rule="evenodd" stroke="none"/>
    <path d="M-20.05 26.0 L-19.05 26.0 -19.05 27.0 -20.05 27.0 -20.05 26.0" fill="#606060" fill-rule="evenodd" stroke="none"/>
  </g>
</svg>
