<?xml version="1.0" encoding="UTF-8" standalone="no"?>
<svg xmlns:ffdec="https://www.free-decompiler.com/flash" xmlns:xlink="http://www.w3.org/1999/xlink" ffdec:objectType="shape" height="31.0px" width="32.0px" xmlns="http://www.w3.org/2000/svg">
  <g transform="matrix(1.0, 0.0, 0.0, 1.0, -11.0, -2.0)">
    <path d="M41.0 5.0 L41.0 6.0 40.0 6.0 40.0 5.0 41.0 5.0 M42.0 6.0 L43.0 6.0 43.0 7.0 42.0 7.0 42.0 6.0 M43.0 8.0 L43.0 9.0 42.0 9.0 42.0 8.0 43.0 8.0 M41.0 10.0 L40.0 10.0 40.0 9.0 39.0 9.0 39.0 8.0 40.0 8.0 40.0 9.0 41.0 9.0 41.0 10.0 M38.0 7.0 L38.0 6.0 39.0 6.0 39.0 7.0 38.0 7.0 M41.0 16.0 L42.0 16.0 42.0 17.0 41.0 17.0 41.0 18.0 40.0 18.0 40.0 17.0 41.0 17.0 41.0 16.0 M28.0 21.0 L29.0 21.0 29.0 22.0 30.0 22.0 30.0 23.0 29.0 23.0 29.0 22.0 28.0 22.0 28.0 21.0 M29.0 20.0 L29.0 19.0 30.0 19.0 30.0 20.0 29.0 20.0 M31.0 19.0 L32.0 19.0 32.0 20.0 31.0 20.0 31.0 19.0 M33.0 3.0 L33.0 2.0 34.0 2.0 34.0 3.0 33.0 3.0 M35.0 4.0 L35.0 5.0 34.0 5.0 34.0 4.0 35.0 4.0 M25.0 10.0 L25.0 9.0 26.0 9.0 26.0 10.0 25.0 10.0 M27.0 9.0 L28.0 9.0 28.0 10.0 27.0 10.0 27.0 9.0 M29.0 10.0 L30.0 10.0 30.0 11.0 29.0 11.0 29.0 10.0 M29.0 12.0 L29.0 13.0 28.0 13.0 28.0 12.0 29.0 12.0 M26.0 13.0 L25.0 13.0 25.0 12.0 24.0 12.0 24.0 11.0 25.0 11.0 25.0 12.0 26.0 12.0 26.0 13.0 M32.0 22.0 L31.0 22.0 31.0 21.0 32.0 21.0 32.0 22.0 M19.0 29.0 L19.0 28.0 22.0 28.0 22.0 29.0 19.0 29.0 M25.0 29.0 L23.0 29.0 23.0 28.0 25.0 28.0 25.0 29.0" fill="#808080" fill-rule="evenodd" stroke="none"/>
    <path d="M41.0 6.0 L41.0 5.0 42.0 5.0 42.0 6.0 41.0 6.0 M33.0 2.0 L33.0 3.0 32.0 3.0 32.0 2.0 33.0 2.0 M34.0 4.0 L34.0 3.0 35.0 3.0 35.0 4.0 34.0 4.0 M28.0 9.0 L29.0 9.0 29.0 10.0 28.0 10.0 28.0 9.0 M23.0 17.0 L22.0 17.0 22.0 16.0 23.0 16.0 23.0 17.0 M37.0 25.0 L38.0 25.0 38.0 26.0 37.0 26.0 37.0 25.0" fill="#90713a" fill-rule="evenodd" stroke="none"/>
    <path d="M41.0 6.0 L42.0 6.0 42.0 7.0 42.0 8.0 42.0 9.0 41.0 9.0 40.0 9.0 40.0 8.0 39.0 8.0 39.0 7.0 39.0 6.0 40.0 6.0 41.0 6.0 M32.0 21.0 L33.0 21.0 33.0 20.0 34.0 20.0 34.0 19.0 33.0 19.0 33.0 18.0 32.0 18.0 32.0 17.0 33.0 17.0 33.0 15.0 34.0 15.0 34.0 14.0 36.0 14.0 36.0 13.0 37.0 13.0 37.0 14.0 37.0 15.0 36.0 15.0 36.0 16.0 35.0 16.0 35.0 17.0 37.0 17.0 37.0 18.0 34.0 18.0 34.0 19.0 37.0 19.0 37.0 18.0 38.0 18.0 38.0 17.0 40.0 17.0 40.0 18.0 40.0 19.0 39.0 19.0 39.0 20.0 38.0 20.0 38.0 21.0 34.0 21.0 34.0 22.0 33.0 22.0 33.0 24.0 32.0 24.0 32.0 26.0 31.0 26.0 31.0 27.0 30.0 27.0 30.0 26.0 29.0 26.0 29.0 25.0 28.0 25.0 28.0 23.0 29.0 23.0 29.0 24.0 30.0 24.0 30.0 25.0 31.0 25.0 31.0 23.0 32.0 23.0 32.0 22.0 32.0 21.0 M39.0 14.0 L40.0 14.0 40.0 15.0 39.0 15.0 38.0 15.0 38.0 14.0 39.0 14.0 M33.0 3.0 L34.0 3.0 34.0 4.0 33.0 4.0 33.0 3.0 M25.0 12.0 L25.0 11.0 26.0 11.0 26.0 10.0 27.0 10.0 28.0 10.0 29.0 10.0 29.0 11.0 29.0 12.0 28.0 12.0 27.0 12.0 27.0 13.0 26.0 13.0 26.0 12.0 25.0 12.0 M30.0 20.0 L31.0 20.0 31.0 21.0 31.0 22.0 30.0 22.0 29.0 22.0 29.0 21.0 30.0 21.0 30.0 20.0 M34.0 18.0 L34.0 17.0 33.0 17.0 33.0 18.0 34.0 18.0 M38.0 16.0 L37.0 16.0 37.0 15.0 38.0 15.0 38.0 16.0 M14.0 23.0 L15.0 23.0 15.0 26.0 14.0 26.0 14.0 28.0 13.0 28.0 13.0 29.0 19.0 29.0 19.0 30.0 25.0 30.0 25.0 31.0 17.0 31.0 17.0 30.0 12.0 30.0 12.0 27.0 13.0 27.0 13.0 25.0 14.0 25.0 14.0 23.0" fill="#ffffff" fill-rule="evenodd" stroke="none"/>
    <path d="M40.0 5.0 L40.0 6.0 39.0 6.0 39.0 5.0 40.0 5.0 M43.0 7.0 L43.0 8.0 42.0 8.0 42.0 7.0 43.0 7.0 M42.0 9.0 L42.0 10.0 41.0 10.0 41.0 9.0 42.0 9.0 M39.0 8.0 L38.0 8.0 38.0 7.0 39.0 7.0 39.0 8.0 M42.0 16.0 L43.0 16.0 43.0 17.0 42.0 17.0 42.0 18.0 41.0 18.0 41.0 17.0 42.0 17.0 42.0 16.0 M27.0 22.0 L27.0 21.0 28.0 21.0 28.0 22.0 29.0 22.0 29.0 23.0 28.0 23.0 28.0 22.0 27.0 22.0 M29.0 21.0 L29.0 20.0 30.0 20.0 30.0 19.0 31.0 19.0 31.0 20.0 30.0 20.0 30.0 21.0 29.0 21.0 M32.0 20.0 L32.0 21.0 31.0 21.0 31.0 20.0 32.0 20.0 M32.0 3.0 L33.0 3.0 33.0 4.0 34.0 4.0 34.0 5.0 33.0 5.0 33.0 4.0 32.0 4.0 32.0 3.0 M25.0 10.0 L26.0 10.0 26.0 9.0 27.0 9.0 27.0 10.0 26.0 10.0 26.0 11.0 25.0 11.0 25.0 10.0 M30.0 11.0 L30.0 12.0 29.0 12.0 29.0 11.0 30.0 11.0 M28.0 13.0 L27.0 13.0 27.0 14.0 26.0 14.0 26.0 13.0 27.0 13.0 27.0 12.0 28.0 12.0 28.0 13.0 M30.0 23.0 L30.0 22.0 31.0 22.0 31.0 23.0 30.0 23.0 M26.0 28.0 L26.0 29.0 25.0 29.0 25.0 28.0 26.0 28.0 M23.0 29.0 L22.0 29.0 22.0 28.0 23.0 28.0 23.0 29.0" fill="#404040" fill-rule="evenodd" stroke="none"/>
    <path d="M31.0 19.0 L31.0 16.0 32.0 16.0 32.0 14.0 33.0 14.0 33.0 13.0 35.0 13.0 35.0 12.0 40.0 12.0 40.0 14.0 41.0 14.0 41.0 15.0 40.0 15.0 40.0 16.0 41.0 16.0 41.0 17.0 40.0 17.0 38.0 17.0 38.0 16.0 39.0 16.0 39.0 15.0 40.0 15.0 40.0 14.0 39.0 14.0 39.0 13.0 38.0 13.0 38.0 14.0 37.0 14.0 37.0 13.0 36.0 13.0 36.0 14.0 34.0 14.0 34.0 15.0 33.0 15.0 33.0 17.0 32.0 17.0 32.0 18.0 33.0 18.0 33.0 19.0 34.0 19.0 34.0 20.0 33.0 20.0 33.0 21.0 32.0 21.0 32.0 20.0 32.0 19.0 31.0 19.0 M41.0 18.0 L41.0 19.0 40.0 19.0 40.0 21.0 38.0 21.0 38.0 22.0 34.0 22.0 34.0 24.0 33.0 24.0 33.0 26.0 32.0 26.0 32.0 28.0 30.0 28.0 30.0 27.0 29.0 27.0 29.0 26.0 28.0 26.0 28.0 25.0 27.0 25.0 27.0 22.0 28.0 22.0 28.0 23.0 28.0 25.0 29.0 25.0 29.0 26.0 30.0 26.0 30.0 27.0 31.0 27.0 31.0 26.0 32.0 26.0 32.0 24.0 33.0 24.0 33.0 22.0 34.0 22.0 34.0 21.0 38.0 21.0 38.0 20.0 39.0 20.0 39.0 19.0 40.0 19.0 40.0 18.0 41.0 18.0 M30.0 23.0 L31.0 23.0 31.0 22.0 32.0 22.0 32.0 23.0 31.0 23.0 31.0 25.0 30.0 25.0 30.0 24.0 29.0 24.0 29.0 23.0 30.0 23.0 M34.0 18.0 L37.0 18.0 37.0 17.0 38.0 17.0 38.0 18.0 37.0 18.0 37.0 19.0 34.0 19.0 34.0 18.0 M15.0 23.0 L16.0 23.0 16.0 26.0 15.0 26.0 15.0 28.0 18.0 28.0 18.0 26.0 27.0 26.0 27.0 29.0 26.0 29.0 26.0 32.0 24.0 32.0 24.0 33.0 19.0 33.0 19.0 32.0 17.0 32.0 17.0 31.0 11.0 31.0 11.0 27.0 12.0 27.0 12.0 25.0 13.0 25.0 13.0 23.0 14.0 23.0 14.0 25.0 13.0 25.0 13.0 27.0 12.0 27.0 12.0 30.0 17.0 30.0 17.0 31.0 25.0 31.0 25.0 30.0 19.0 30.0 19.0 29.0 13.0 29.0 13.0 28.0 14.0 28.0 14.0 26.0 15.0 26.0 15.0 23.0 M19.0 28.0 L19.0 29.0 22.0 29.0 23.0 29.0 25.0 29.0 26.0 29.0 26.0 28.0 26.0 27.0 19.0 27.0 19.0 28.0" fill="#000000" fill-rule="evenodd" stroke="none"/>
    <path d="M37.0 14.0 L38.0 14.0 38.0 13.0 39.0 13.0 39.0 14.0 38.0 14.0 38.0 15.0 39.0 15.0 39.0 16.0 38.0 16.0 38.0 17.0 37.0 17.0 35.0 17.0 35.0 16.0 36.0 16.0 36.0 15.0 37.0 15.0 37.0 14.0 M34.0 18.0 L33.0 18.0 33.0 17.0 34.0 17.0 34.0 18.0 M38.0 16.0 L38.0 15.0 37.0 15.0 37.0 16.0 38.0 16.0 M19.0 28.0 L19.0 27.0 26.0 27.0 26.0 28.0 25.0 28.0 23.0 28.0 22.0 28.0 19.0 28.0" fill="#c0c0c0" fill-rule="evenodd" stroke="none"/>
  </g>
</svg>
