<?xml version="1.0" encoding="UTF-8" standalone="no"?>
<svg xmlns:ffdec="https://www.free-decompiler.com/flash" xmlns:xlink="http://www.w3.org/1999/xlink" ffdec:objectType="shape" height="16.0px" width="9.0px" xmlns="http://www.w3.org/2000/svg">
  <g transform="matrix(1.0, 0.0, 0.0, 1.0, 13.0, -5.95)">
    <path d="M-4.0 7.95 L-5.0 7.95 -5.0 10.95 -6.0 10.95 -6.0 12.95 -7.0 12.95 -7.0 18.95 -9.0 18.95 -9.0 17.95 -10.0 17.95 -10.0 20.95 -11.0 20.95 -11.0 21.95 -12.0 21.95 -12.0 20.95 -13.0 20.95 -13.0 15.95 -12.0 15.95 -12.0 14.95 -11.0 14.95 -11.0 12.95 -10.0 12.95 -10.0 9.95 -9.0 9.95 -9.0 8.95 -8.0 8.95 -8.0 5.95 -4.0 5.95 -4.0 7.95 M-8.0 8.95 L-8.0 10.95 -9.0 10.95 -9.0 12.95 -10.0 12.95 -10.0 14.95 -11.0 14.95 -11.0 16.95 -12.0 16.95 -12.0 19.95 -11.0 19.95 -11.0 17.95 -10.0 17.95 -10.0 16.95 -9.0 16.95 -9.0 17.95 -8.0 17.95 -8.0 15.95 -9.0 15.95 -9.0 13.95 -8.0 13.95 -8.0 11.95 -7.0 11.95 -7.0 9.95 -6.0 9.95 -6.0 7.95 -5.0 7.95 -5.0 6.95 -7.0 6.95 -7.0 8.95 -8.0 8.95" fill="#000000" fill-rule="evenodd" stroke="none"/>
    <path d="M-8.0 8.95 L-7.0 8.95 -7.0 6.95 -5.0 6.95 -5.0 7.95 -6.0 7.95 -6.0 9.95 -7.0 9.95 -7.0 11.95 -8.0 11.95 -8.0 13.95 -9.0 13.95 -9.0 15.95 -8.0 15.95 -8.0 17.95 -9.0 17.95 -9.0 16.95 -10.0 16.95 -10.0 17.95 -11.0 17.95 -11.0 19.95 -12.0 19.95 -12.0 16.95 -11.0 16.95 -11.0 14.95 -10.0 14.95 -10.0 12.95 -9.0 12.95 -9.0 10.95 -8.0 10.95 -8.0 8.95" fill="#ffffff" fill-rule="evenodd" stroke="none"/>
  </g>
</svg>
