<?xml version="1.0" encoding="UTF-8" standalone="no"?>
<svg xmlns:ffdec="https://www.free-decompiler.com/flash" xmlns:xlink="http://www.w3.org/1999/xlink" ffdec:objectType="shape" height="13.0px" width="27.15px" xmlns="http://www.w3.org/2000/svg">
  <g transform="matrix(1.0, 0.0, 0.0, 1.0, 9.2, -4.95)">
    <path d="M12.95 15.95 L11.95 15.95 11.95 16.95 10.95 16.95 10.95 13.95 9.95 13.95 9.95 11.95 8.95 11.95 8.95 9.95 7.95 9.95 7.95 7.95 7.0 7.95 7.0 6.95 8.95 6.95 8.95 8.95 9.95 8.95 9.95 10.95 10.95 10.95 10.95 12.95 11.95 12.95 11.95 13.95 16.95 13.95 16.95 14.95 12.95 14.95 12.95 15.95 M-4.3 5.95 L-4.2 5.95 -4.2 7.95 -5.2 7.95 -5.2 8.95 -6.2 8.95 -6.2 10.95 -5.2 10.95 -5.2 11.95 -3.2 11.95 -3.2 13.95 -4.2 13.95 -4.2 15.95 -6.2 15.95 -6.2 11.95 -7.2 11.95 -7.2 10.95 -8.2 10.95 -8.2 8.95 -7.2 8.95 -7.2 7.95 -6.2 7.95 -6.2 6.95 -5.2 6.95 -5.2 5.95 -4.3 5.95" fill="#ffffff" fill-rule="evenodd" stroke="none"/>
    <path d="M12.95 15.95 L12.95 14.95 16.95 14.95 16.95 13.95 11.95 13.95 11.95 12.95 10.95 12.95 10.95 10.95 9.95 10.95 9.95 8.95 8.95 8.95 8.95 6.95 7.0 6.95 7.0 7.95 7.95 7.95 7.95 9.95 8.95 9.95 8.95 11.95 9.95 11.95 9.95 13.95 10.95 13.95 10.95 16.95 11.95 16.95 11.95 15.95 12.95 15.95 M11.95 12.95 L17.95 12.95 17.95 15.95 13.95 15.95 13.95 16.95 12.95 16.95 12.95 17.95 9.95 17.95 9.95 13.95 8.95 13.95 8.95 11.95 7.95 11.95 7.95 9.95 6.95 9.95 6.95 7.95 6.0 7.95 6.0 6.95 7.0 6.95 7.0 5.95 9.0 5.95 9.0 6.95 9.95 6.95 9.95 8.95 10.95 8.95 10.95 10.95 11.95 10.95 11.95 12.95 M-4.2 5.95 L-3.0 5.95 -3.0 7.95 -4.2 7.95 -4.2 8.95 -5.2 8.95 -5.2 10.95 -3.2 10.95 -3.2 11.95 -2.3 11.95 -2.3 13.95 -3.2 13.95 -3.2 14.95 -3.15 14.95 -3.15 15.95 -4.2 15.95 -4.2 16.95 -6.2 16.95 -6.2 15.95 -7.2 15.95 -7.2 11.95 -8.2 11.95 -8.2 10.95 -9.2 10.95 -9.2 8.95 -8.2 8.95 -8.2 7.95 -7.2 7.95 -7.2 6.95 -6.2 6.95 -6.2 5.95 -5.2 5.95 -5.2 4.95 -4.3 4.95 -4.3 5.95 -5.2 5.95 -5.2 6.95 -6.2 6.95 -6.2 7.95 -7.2 7.95 -7.2 8.95 -8.2 8.95 -8.2 10.95 -7.2 10.95 -7.2 11.95 -6.2 11.95 -6.2 15.95 -4.2 15.95 -4.2 13.95 -3.2 13.95 -3.2 11.95 -5.2 11.95 -5.2 10.95 -6.2 10.95 -6.2 8.95 -5.2 8.95 -5.2 7.95 -4.2 7.95 -4.2 5.95" fill="#000000" fill-rule="evenodd" stroke="none"/>
  </g>
</svg>
