<?xml version="1.0" encoding="UTF-8" standalone="no"?>
<svg xmlns:ffdec="https://www.free-decompiler.com/flash" xmlns:xlink="http://www.w3.org/1999/xlink" ffdec:objectType="shape" height="22.0px" width="24.9px" xmlns="http://www.w3.org/2000/svg">
  <g transform="matrix(1.0, 0.0, 0.0, 1.0, 6.95, 4.05)">
    <path d="M1.95 -0.05 L1.95 -2.05 0.95 -2.05 0.95 -3.05 -2.05 -3.05 -2.05 -4.05 1.95 -4.05 1.95 -3.05 2.95 -3.05 2.95 -0.05 1.95 -0.05 1.95 0.95 0.95 0.95 0.95 1.95 -0.05 1.95 -0.05 3.0 -1.0 3.0 -1.0 3.95 -2.05 3.95 -2.05 4.95 -3.0 4.95 -3.0 5.95 -3.05 5.95 -3.05 6.0 -4.0 6.0 -4.0 7.95 -6.05 7.95 -6.05 6.95 -6.95 6.95 -6.95 4.95 -6.05 4.95 -6.05 3.95 -5.05 3.95 -5.05 2.95 -4.05 2.95 -4.05 -2.05 -3.05 -2.05 -3.05 -3.05 -2.05 -3.05 -2.05 -2.05 -3.05 -2.05 -3.05 2.95 -4.05 2.95 -4.05 3.95 -5.05 3.95 -5.05 4.95 -6.05 4.95 -6.05 6.95 -5.05 6.95 -5.05 5.95 -4.05 5.95 -4.05 4.95 -3.05 4.95 -3.05 3.95 -2.05 3.95 -2.05 2.95 -1.0 2.95 -1.0 1.95 -0.05 1.95 -0.05 0.95 0.95 0.95 0.95 -0.05 1.95 -0.05 M11.95 12.95 L17.95 12.95 17.95 15.95 13.95 15.95 13.95 16.95 12.95 16.95 12.95 17.95 9.95 17.95 9.95 13.95 8.95 13.95 8.95 11.95 7.95 11.95 7.95 9.95 6.95 9.95 6.95 7.95 6.0 7.95 6.0 6.95 7.0 6.95 7.0 5.95 9.0 5.95 9.0 6.95 9.95 6.95 9.95 8.95 10.95 8.95 10.95 10.95 11.95 10.95 11.95 12.95 10.95 12.95 10.95 10.95 9.95 10.95 9.95 8.95 8.95 8.95 8.95 6.95 7.0 6.95 7.0 7.95 7.95 7.95 7.95 9.95 8.95 9.95 8.95 11.95 9.95 11.95 9.95 13.95 10.95 13.95 10.95 16.95 11.95 16.95 11.95 15.95 12.95 15.95 12.95 14.95 16.95 14.95 16.95 13.95 11.95 13.95 11.95 12.95" fill="#000000" fill-rule="evenodd" stroke="none"/>
    <path d="M-2.05 -3.05 L0.95 -3.05 0.95 -2.05 1.95 -2.05 1.95 -0.05 0.95 -0.05 0.95 0.95 -0.05 0.95 -0.05 1.95 -1.0 1.95 -1.0 2.95 -2.05 2.95 -2.05 3.95 -3.05 3.95 -3.05 4.95 -4.05 4.95 -4.05 5.95 -5.05 5.95 -5.05 6.95 -6.05 6.95 -6.05 4.95 -5.05 4.95 -5.05 3.95 -4.05 3.95 -4.05 2.95 -3.05 2.95 -3.05 -2.05 -2.05 -2.05 -2.05 -3.05 M11.95 12.95 L11.95 13.95 16.95 13.95 16.95 14.95 12.95 14.95 12.95 15.95 11.95 15.95 11.95 16.95 10.95 16.95 10.95 13.95 9.95 13.95 9.95 11.95 8.95 11.95 8.95 9.95 7.95 9.95 7.95 7.95 7.0 7.95 7.0 6.95 8.95 6.95 8.95 8.95 9.95 8.95 9.95 10.95 10.95 10.95 10.95 12.95 11.95 12.95" fill="#ffffff" fill-rule="evenodd" stroke="none"/>
    <path d="M-3.0 5.95 L-3.0 6.0 -3.05 6.0 -3.05 5.95 -3.0 5.95" fill="#808080" fill-rule="evenodd" stroke="none"/>
  </g>
</svg>
