<?xml version="1.0" encoding="UTF-8" standalone="no"?>
<svg xmlns:ffdec="https://www.free-decompiler.com/flash" xmlns:xlink="http://www.w3.org/1999/xlink" ffdec:objectType="shape" height="28.0px" width="35.0px" xmlns="http://www.w3.org/2000/svg">
  <g transform="matrix(1.0, 0.0, 0.0, 1.0, 23.05, -7.0)">
    <path d="M2.95 16.0 L2.95 15.0 7.95 15.0 7.95 10.0 6.95 10.0 6.95 9.0 3.95 9.0 3.95 10.0 1.95 10.0 1.95 9.0 2.95 9.0 2.95 8.0 3.95 8.0 3.95 7.0 8.95 7.0 8.95 8.0 9.95 8.0 9.95 10.0 10.95 10.0 10.95 20.0 9.95 20.0 9.95 17.0 8.95 17.0 8.95 16.0 2.95 16.0 2.95 17.0 1.95 17.0 1.95 18.0 -1.05 18.0 -1.05 19.0 -4.05 19.0 -4.05 18.0 -6.05 18.0 -6.05 17.0 -6.05 15.0 -5.05 15.0 -5.05 13.0 -6.05 13.0 -6.05 14.0 -7.05 14.0 -7.05 15.0 -9.05 15.0 -10.05 15.0 -11.05 15.0 -11.05 13.0 -12.05 13.0 -12.05 15.0 -13.05 15.0 -13.05 16.0 -14.05 16.0 -14.05 17.0 -15.05 17.0 -15.05 18.0 -16.05 18.0 -16.05 19.0 -17.05 19.0 -17.05 20.0 -17.05 21.0 -16.05 21.0 -16.05 24.0 -17.05 24.0 -17.05 25.0 -13.05 25.0 -13.05 24.0 -11.05 24.0 -11.05 23.0 -10.05 23.0 -10.05 24.0 -11.05 24.0 -11.05 25.0 -13.05 25.0 -13.05 26.0 -15.05 26.0 -15.05 27.0 -14.05 27.0 -14.05 28.0 -10.05 28.0 -10.05 29.0 -8.05 29.0 -8.05 30.0 -7.05 30.0 -7.05 31.0 -6.05 31.0 -6.05 32.0 -5.05 32.0 -5.05 33.0 -4.05 33.0 -4.05 34.0 -2.05 34.0 -2.05 33.0 -3.05 33.0 -3.05 32.0 -4.05 32.0 -4.05 31.0 -5.05 31.0 -5.05 30.0 -6.05 30.0 -6.05 29.0 -5.05 29.0 -5.05 30.0 -4.05 30.0 -4.05 31.0 -3.05 31.0 -3.05 32.0 -2.05 32.0 -2.05 33.0 -1.05 33.0 -1.05 34.0 1.95 34.0 1.95 33.0 0.95 33.0 0.95 32.0 -1.05 32.0 -1.05 31.0 -2.05 31.0 -2.05 29.0 -1.05 29.0 -1.05 27.0 -0.05 27.0 -0.05 25.0 0.95 25.0 0.95 27.0 -0.05 27.0 -0.05 29.0 -1.05 29.0 -1.05 31.0 -0.05 31.0 0.95 31.0 0.95 30.0 2.95 30.0 2.95 29.0 4.95 29.0 4.95 28.0 7.95 28.0 7.95 27.0 8.95 27.0 8.95 26.0 9.95 26.0 9.95 25.0 10.95 25.0 10.95 21.0 10.95 20.0 11.95 20.0 11.95 25.0 10.95 25.0 10.95 26.0 9.95 26.0 9.95 27.0 8.95 27.0 8.95 28.0 7.95 28.0 7.95 29.0 4.95 29.0 4.95 30.0 2.95 30.0 2.95 31.0 1.95 31.0 1.95 33.0 2.95 33.0 2.95 34.0 1.95 34.0 1.95 35.0 -6.05 35.0 -6.05 34.0 -5.05 34.0 -5.05 33.0 -6.05 33.0 -6.05 32.0 -7.05 32.0 -7.05 31.0 -8.05 31.0 -8.05 30.0 -11.05 30.0 -11.05 29.0 -14.05 29.0 -14.05 28.0 -18.05 28.0 -18.05 29.0 -22.05 29.0 -22.05 28.0 -23.05 28.0 -23.05 26.0 -22.05 26.0 -22.05 25.0 -21.05 25.0 -21.05 24.0 -22.05 24.0 -22.05 21.0 -21.05 21.0 -21.05 20.0 -18.05 20.0 -18.05 19.0 -17.05 19.0 -17.05 18.0 -16.05 18.0 -16.05 17.0 -15.05 17.0 -15.05 16.0 -14.05 16.0 -14.05 15.0 -13.05 15.0 -13.05 12.0 -12.05 12.0 -12.05 11.0 -11.05 11.0 -11.05 12.0 -10.05 12.0 -10.05 14.0 -8.05 14.0 -8.05 13.0 -7.05 13.0 -7.05 12.0 -5.05 12.0 -5.05 11.0 -4.05 11.0 -4.05 16.0 -5.05 16.0 -5.05 17.0 -4.05 17.0 -4.05 18.0 -1.05 18.0 -1.05 17.0 1.95 17.0 1.95 16.0 2.95 16.0 M-15.05 19.0 L-14.05 19.0 -14.05 21.0 -15.05 21.0 -15.05 19.0 M-18.05 23.0 L-18.05 22.0 -20.05 22.0 -20.05 23.0 -18.05 23.0 M-11.05 19.0 L-11.05 21.0 -12.05 21.0 -12.05 19.0 -11.05 19.0 M-17.05 26.0 L-22.05 26.0 -22.05 28.0 -19.05 28.0 -19.05 27.0 -17.05 27.0 -16.05 27.0 -16.05 26.0 -17.05 26.0" fill="#000000" fill-rule="evenodd" stroke="none"/>
    <path d="M2.95 16.0 L8.95 16.0 8.95 17.0 9.95 17.0 9.95 20.0 9.95 21.0 10.95 21.0 10.95 25.0 9.95 25.0 9.95 26.0 8.95 26.0 8.95 27.0 7.95 27.0 7.95 28.0 4.95 28.0 4.95 29.0 2.95 29.0 2.95 30.0 0.95 30.0 -0.05 30.0 -0.05 31.0 -1.05 31.0 -1.05 29.0 -0.05 29.0 -0.05 27.0 0.95 27.0 0.95 25.0 -0.05 25.0 -0.05 27.0 -1.05 27.0 -1.05 29.0 -2.05 29.0 -2.05 31.0 -1.05 31.0 -1.05 32.0 0.95 32.0 0.95 33.0 1.95 33.0 1.95 34.0 -1.05 34.0 -1.05 33.0 -2.05 33.0 -2.05 32.0 -3.05 32.0 -3.05 31.0 -4.05 31.0 -4.05 30.0 -5.05 30.0 -5.05 29.0 -6.05 29.0 -6.05 30.0 -5.05 30.0 -5.05 31.0 -4.05 31.0 -4.05 32.0 -3.05 32.0 -3.05 33.0 -2.05 33.0 -2.05 34.0 -4.05 34.0 -4.05 33.0 -5.05 33.0 -5.05 32.0 -6.05 32.0 -6.05 31.0 -7.05 31.0 -7.05 30.0 -8.05 30.0 -8.05 29.0 -10.05 29.0 -10.05 28.0 -14.05 28.0 -14.05 27.0 -15.05 27.0 -15.05 26.0 -13.05 26.0 -13.05 25.0 -11.05 25.0 -11.05 24.0 -10.05 24.0 -10.05 23.0 -10.05 22.0 -12.05 22.0 -12.05 23.0 -11.05 23.0 -11.05 24.0 -13.05 24.0 -13.05 25.0 -17.05 25.0 -17.05 24.0 -16.05 24.0 -16.05 21.0 -17.05 21.0 -17.05 20.0 -16.05 20.0 -16.05 19.0 -15.05 19.0 -15.05 18.0 -15.05 17.0 -14.05 17.0 -13.05 17.0 -13.05 18.0 -12.05 18.0 -12.05 17.0 -13.05 17.0 -13.05 16.0 -13.05 15.0 -12.05 15.0 -12.05 13.0 -11.05 13.0 -11.05 15.0 -10.05 15.0 -10.05 16.0 -9.05 16.0 -9.05 15.0 -7.05 15.0 -7.05 17.0 -6.05 17.0 -6.05 18.0 -4.05 18.0 -4.05 19.0 -1.05 19.0 -1.05 18.0 1.95 18.0 1.95 19.0 2.95 19.0 2.95 17.0 2.95 16.0 M-15.05 19.0 L-15.05 21.0 -14.05 21.0 -14.05 19.0 -15.05 19.0 M-10.05 28.0 L-9.05 28.0 -9.05 27.0 -10.05 27.0 -10.05 28.0 M4.95 18.0 L3.95 18.0 3.95 19.0 4.95 19.0 4.95 18.0 M4.95 21.0 L4.95 20.0 2.95 20.0 2.95 21.0 4.95 21.0 4.95 22.0 5.95 22.0 5.95 21.0 4.95 21.0 M1.95 21.0 L1.95 22.0 2.95 22.0 2.95 21.0 1.95 21.0 M2.95 26.0 L2.95 27.0 4.95 27.0 4.95 26.0 2.95 26.0 M-11.05 19.0 L-12.05 19.0 -12.05 21.0 -11.05 21.0 -11.05 19.0 M-15.05 23.0 L-14.05 23.0 -14.05 22.0 -15.05 22.0 -15.05 23.0 M-7.05 15.0 L-7.05 14.0 -6.05 14.0 -6.05 13.0 -5.05 13.0 -5.05 15.0 -6.05 15.0 -7.05 15.0 M-2.05 24.0 L-1.05 24.0 -1.05 23.0 -2.05 23.0 -2.05 24.0 M-4.05 21.0 L-3.05 21.0 -3.05 20.0 -4.05 20.0 -4.05 21.0 M-0.05 21.0 L-1.05 21.0 -1.05 22.0 -0.05 22.0 -0.05 21.0 M-9.05 20.0 L-9.05 21.0 -8.05 21.0 -8.05 20.0 -9.05 20.0 M-7.05 24.0 L-8.05 24.0 -8.05 26.0 -7.05 26.0 -7.05 24.0" fill="#c5c5c5" fill-rule="evenodd" stroke="none"/>
    <path d="M9.95 20.0 L10.95 20.0 10.95 21.0 9.95 21.0 9.95 20.0 M2.95 17.0 L2.95 19.0 1.95 19.0 1.95 18.0 1.95 17.0 2.95 17.0 M-6.05 17.0 L-7.05 17.0 -7.05 15.0 -6.05 15.0 -6.05 17.0 M-9.05 15.0 L-9.05 16.0 -10.05 16.0 -10.05 15.0 -9.05 15.0 M-13.05 16.0 L-13.05 17.0 -12.05 17.0 -12.05 18.0 -13.05 18.0 -13.05 17.0 -14.05 17.0 -14.05 16.0 -13.05 16.0 M-15.05 18.0 L-15.05 19.0 -16.05 19.0 -16.05 20.0 -17.05 20.0 -17.05 19.0 -16.05 19.0 -16.05 18.0 -15.05 18.0 M-11.05 23.0 L-12.05 23.0 -12.05 22.0 -10.05 22.0 -10.05 23.0 -11.05 23.0 M-10.05 28.0 L-10.05 27.0 -9.05 27.0 -9.05 28.0 -10.05 28.0 M-0.05 31.0 L-0.05 30.0 0.95 30.0 0.95 31.0 -0.05 31.0 M4.95 18.0 L4.95 19.0 3.95 19.0 3.95 18.0 4.95 18.0 M4.95 21.0 L2.95 21.0 2.95 20.0 4.95 20.0 4.95 21.0 5.95 21.0 5.95 22.0 4.95 22.0 4.95 21.0 M1.95 21.0 L2.95 21.0 2.95 22.0 1.95 22.0 1.95 21.0 M2.95 26.0 L4.95 26.0 4.95 27.0 2.95 27.0 2.95 26.0 M-15.05 23.0 L-15.05 22.0 -14.05 22.0 -14.05 23.0 -15.05 23.0 M-7.05 24.0 L-7.05 26.0 -8.05 26.0 -8.05 24.0 -7.05 24.0 M-9.05 20.0 L-8.05 20.0 -8.05 21.0 -9.05 21.0 -9.05 20.0 M-0.05 21.0 L-0.05 22.0 -1.05 22.0 -1.05 21.0 -0.05 21.0 M-4.05 21.0 L-4.05 20.0 -3.05 20.0 -3.05 21.0 -4.05 21.0 M-2.05 24.0 L-2.05 23.0 -1.05 23.0 -1.05 24.0 -2.05 24.0" fill="#c4c4c4" fill-rule="evenodd" stroke="none"/>
    <path d="M-18.05 23.0 L-20.05 23.0 -20.05 22.0 -18.05 22.0 -18.05 23.0" fill="#ffffff" fill-rule="evenodd" stroke="none"/>
    <path d="M-17.05 27.0 L-19.05 27.0 -19.05 28.0 -22.05 28.0 -22.05 26.0 -17.05 26.0 -17.05 27.0" fill="#616161" fill-rule="evenodd" stroke="none"/>
    <path d="M-17.05 27.0 L-17.05 26.0 -16.05 26.0 -16.05 27.0 -17.05 27.0" fill="#606060" fill-rule="evenodd" stroke="none"/>
  </g>
</svg>
