<?xml version="1.0" encoding="UTF-8" standalone="no"?>
<svg xmlns:ffdec="https://www.free-decompiler.com/flash" xmlns:xlink="http://www.w3.org/1999/xlink" ffdec:objectType="shape" height="24.0px" width="19.0px" xmlns="http://www.w3.org/2000/svg">
  <g transform="matrix(1.0, 0.0, 0.0, 1.0, 8.5, 22.05)">
    <path d="M-7.5 -18.05 L-7.5 -19.05 -6.5 -19.05 -6.5 -20.05 -5.5 -20.05 -5.5 -21.05 -4.5 -21.05 -4.5 -22.05 6.5 -22.05 6.5 -21.05 7.5 -21.05 7.5 -20.05 8.5 -20.05 8.5 -19.05 9.5 -19.05 9.5 -18.05 9.5 -14.05 8.5 -14.05 8.5 -15.05 4.5 -15.05 4.5 -14.05 8.5 -14.05 8.5 -13.05 9.5 -13.05 9.5 -1.05 8.5 -1.05 8.5 -0.05 7.5 -0.05 7.5 0.95 4.5 0.95 4.5 -0.05 3.5 -0.05 3.5 -2.05 2.5 -2.05 2.5 -1.05 -1.5 -1.05 -1.5 -0.05 2.5 -0.05 2.5 0.95 -3.5 0.95 -3.5 -0.05 -5.5 -0.05 -5.5 -1.05 -6.5 -1.05 -6.5 -2.05 -7.5 -2.05 -7.5 -13.05 -6.5 -13.05 -6.5 -14.05 -2.5 -14.05 -2.5 -15.05 -6.5 -15.05 -6.5 -14.05 -7.5 -14.05 -7.5 -18.05 M5.5 -12.05 L4.5 -12.05 4.5 -11.05 3.5 -11.05 3.5 -10.05 2.5 -10.05 2.5 -9.05 3.5 -9.05 3.5 -10.05 4.5 -10.05 4.5 -8.05 5.5 -8.05 5.5 -7.05 7.5 -7.05 7.5 -6.05 3.5 -6.05 3.5 -7.05 2.5 -7.05 2.5 -6.05 3.5 -6.05 3.5 -5.05 7.5 -5.05 7.5 -6.05 8.5 -6.05 8.5 -7.05 7.5 -7.05 7.5 -9.05 8.5 -9.05 8.5 -11.05 7.5 -11.05 7.5 -12.05 6.5 -12.05 6.5 -11.05 5.5 -11.05 5.5 -12.05 M7.5 -9.05 L6.5 -9.05 6.5 -10.05 7.5 -10.05 7.5 -9.05 M-2.5 -9.05 L-2.5 -10.05 -1.5 -10.05 -1.5 -9.05 -2.5 -9.05 M-4.5 -12.05 L-5.5 -12.05 -5.5 -11.05 -6.5 -11.05 -6.5 -9.05 -5.5 -9.05 -5.5 -10.05 -4.5 -10.05 -4.5 -8.05 -3.5 -8.05 -3.5 -7.05 -1.5 -7.05 -1.5 -6.05 -5.5 -6.05 -5.5 -7.05 -6.5 -7.05 -6.5 -6.05 -5.5 -6.05 -5.5 -5.05 -1.5 -5.05 -1.5 -6.05 -0.5 -6.05 -0.5 -7.05 -1.5 -7.05 -1.5 -9.05 -0.5 -9.05 -0.5 -10.05 -1.5 -10.05 -1.5 -11.05 -2.5 -11.05 -2.5 -12.05 -3.5 -12.05 -3.5 -11.05 -4.5 -11.05 -4.5 -12.05" fill="#ffffff" fill-rule="evenodd" stroke="none"/>
    <path d="M9.5 -18.05 L10.5 -18.05 10.5 -1.05 9.5 -1.05 9.5 -0.05 8.5 -0.05 8.5 0.95 7.5 0.95 7.5 1.95 -3.5 1.95 -3.5 0.95 -5.5 0.95 -5.5 -0.05 -6.5 -0.05 -6.5 -1.05 -7.5 -1.05 -7.5 -2.05 -8.5 -2.05 -8.5 -18.05 -7.5 -18.05 -7.5 -14.05 -6.5 -14.05 -6.5 -15.05 -2.5 -15.05 -2.5 -14.05 -6.5 -14.05 -6.5 -13.05 -7.5 -13.05 -7.5 -2.05 -6.5 -2.05 -6.5 -1.05 -5.5 -1.05 -5.5 -0.05 -3.5 -0.05 -3.5 0.95 2.5 0.95 2.5 -0.05 -1.5 -0.05 -1.5 -1.05 2.5 -1.05 2.5 -2.05 3.5 -2.05 3.5 -0.05 4.5 -0.05 4.5 0.95 7.5 0.95 7.5 -0.05 8.5 -0.05 8.5 -1.05 9.5 -1.05 9.5 -13.05 8.5 -13.05 8.5 -14.05 4.5 -14.05 4.5 -15.05 8.5 -15.05 8.5 -14.05 9.5 -14.05 9.5 -18.05 M5.5 -12.05 L5.5 -11.05 6.5 -11.05 6.5 -12.05 7.5 -12.05 7.5 -11.05 8.5 -11.05 8.5 -9.05 7.5 -9.05 7.5 -7.05 8.5 -7.05 8.5 -6.05 7.5 -6.05 7.5 -5.05 3.5 -5.05 3.5 -6.05 2.5 -6.05 2.5 -7.05 3.5 -7.05 3.5 -6.05 7.5 -6.05 7.5 -7.05 5.5 -7.05 5.5 -8.05 4.5 -8.05 4.5 -10.05 3.5 -10.05 3.5 -9.05 2.5 -9.05 2.5 -10.05 3.5 -10.05 3.5 -11.05 4.5 -11.05 4.5 -12.05 5.5 -12.05 M7.5 -9.05 L7.5 -10.05 6.5 -10.05 6.5 -9.05 7.5 -9.05 M-4.5 -12.05 L-4.5 -11.05 -3.5 -11.05 -3.5 -12.05 -2.5 -12.05 -2.5 -11.05 -1.5 -11.05 -1.5 -10.05 -0.5 -10.05 -0.5 -9.05 -1.5 -9.05 -1.5 -7.05 -0.5 -7.05 -0.5 -6.05 -1.5 -6.05 -1.5 -5.05 -5.5 -5.05 -5.5 -6.05 -6.5 -6.05 -6.5 -7.05 -5.5 -7.05 -5.5 -6.05 -1.5 -6.05 -1.5 -7.05 -3.5 -7.05 -3.5 -8.05 -4.5 -8.05 -4.5 -10.05 -5.5 -10.05 -5.5 -9.05 -6.5 -9.05 -6.5 -11.05 -5.5 -11.05 -5.5 -12.05 -4.5 -12.05 M-2.5 -9.05 L-1.5 -9.05 -1.5 -10.05 -2.5 -10.05 -2.5 -9.05" fill="#000000" fill-rule="evenodd" stroke="none"/>
  </g>
</svg>
