<?xml version="1.0" encoding="UTF-8" standalone="no"?>
<svg xmlns:ffdec="https://www.free-decompiler.com/flash" xmlns:xlink="http://www.w3.org/1999/xlink" ffdec:objectType="shape" height="30.0px" width="33.0px" xmlns="http://www.w3.org/2000/svg">
  <g transform="matrix(1.0, 0.0, 0.0, 1.0, 15.05, 12.05)">
    <path d="M-1.0 -11.05 L-2.0 -11.05 -2.0 -12.05 -1.0 -12.05 -1.0 -11.05 M-6.0 11.95 L-6.05 11.95 -7.05 11.95 -7.05 13.95 -8.05 13.95 -8.05 16.95 -9.05 16.95 -9.05 15.95 -10.05 15.95 -10.05 14.95 -14.05 14.95 -14.05 13.95 -9.05 13.95 -9.05 12.95 -8.05 12.95 -8.05 10.95 -7.0 10.95 -7.0 8.95 -6.0 8.95 -6.0 6.95 -4.0 6.95 -4.0 7.95 -5.0 7.95 -5.0 9.95 -6.0 9.95 -6.0 11.95 M11.95 12.95 L11.95 13.95 16.95 13.95 16.95 14.95 12.95 14.95 12.95 15.95 11.95 15.95 11.95 16.95 10.95 16.95 10.95 13.95 9.95 13.95 9.95 11.95 8.95 11.95 8.95 9.95 7.95 9.95 7.95 7.95 7.0 7.95 7.0 6.95 8.95 6.95 8.95 8.95 9.95 8.95 9.95 10.95 10.95 10.95 10.95 12.95 11.95 12.95" fill="#ffffff" fill-rule="evenodd" stroke="none"/>
    <path d="M-6.05 11.95 L-6.05 13.95 -7.05 13.95 -7.05 17.95 -10.05 17.95 -10.05 16.95 -11.05 16.95 -11.05 15.95 -15.05 15.95 -15.05 12.95 -9.05 12.95 -9.05 10.95 -8.05 10.95 -8.05 8.95 -7.0 8.95 -7.0 6.95 -6.05 6.95 -6.05 5.95 -4.0 5.95 -4.0 6.95 -3.0 6.95 -3.0 8.95 -4.0 8.95 -4.0 9.95 -5.0 9.95 -5.0 11.95 -6.0 11.95 -6.0 9.95 -5.0 9.95 -5.0 7.95 -4.0 7.95 -4.0 6.95 -6.0 6.95 -6.0 8.95 -7.0 8.95 -7.0 10.95 -8.05 10.95 -8.05 12.95 -9.05 12.95 -9.05 13.95 -14.05 13.95 -14.05 14.95 -10.05 14.95 -10.05 15.95 -9.05 15.95 -9.05 16.95 -8.05 16.95 -8.05 13.95 -7.05 13.95 -7.05 11.95 -6.05 11.95 M11.95 12.95 L17.95 12.95 17.95 15.95 13.95 15.95 13.95 16.95 12.95 16.95 12.95 17.95 9.95 17.95 9.95 13.95 8.95 13.95 8.95 11.95 7.95 11.95 7.95 9.95 6.95 9.95 6.95 7.95 6.0 7.95 6.0 6.95 6.95 6.95 6.95 6.05 7.0 6.05 7.0 5.95 9.0 5.95 9.0 6.95 9.95 6.95 9.95 8.95 10.95 8.95 10.95 10.95 11.95 10.95 11.95 12.95 10.95 12.95 10.95 10.95 9.95 10.95 9.95 8.95 8.95 8.95 8.95 6.95 7.0 6.95 7.0 7.95 7.95 7.95 7.95 9.95 8.95 9.95 8.95 11.95 9.95 11.95 9.95 13.95 10.95 13.95 10.95 16.95 11.95 16.95 11.95 15.95 12.95 15.95 12.95 14.95 16.95 14.95 16.95 13.95 11.95 13.95 11.95 12.95" fill="#000000" fill-rule="evenodd" stroke="none"/>
  </g>
</svg>
