<?xml version="1.0" encoding="UTF-8" standalone="no"?>
<svg xmlns:ffdec="https://www.free-decompiler.com/flash" xmlns:xlink="http://www.w3.org/1999/xlink" ffdec:objectType="shape" height="12.0px" width="12.0px" xmlns="http://www.w3.org/2000/svg">
  <g transform="matrix(1.0, 0.0, 0.0, 1.0, 4.9, 7.45)">
    <path d="M1.1 3.55 L1.1 4.55 -1.9 4.55 -1.9 3.55 -3.9 3.55 -3.9 1.55 -4.9 1.55 -4.9 -4.45 -3.9 -4.45 -3.9 -6.45 -1.9 -6.45 -1.9 -7.45 4.1 -7.45 4.1 -6.45 6.1 -6.45 6.1 -4.45 7.1 -4.45 7.1 1.55 6.1 1.55 6.1 3.55 4.1 3.55 4.1 4.55 2.1 4.55 2.1 3.55 4.1 3.55 4.1 2.55 5.1 2.55 5.1 1.55 6.1 1.55 6.1 0.55 6.1 -4.45 5.1 -4.45 5.1 -5.45 4.1 -5.45 4.1 -6.45 3.1 -6.45 2.1 -6.45 -0.9 -6.45 -1.9 -6.45 -1.9 -5.45 -2.9 -5.45 -2.9 -4.45 -3.9 -4.45 -3.9 1.55 -2.9 1.55 -2.9 2.55 -1.9 2.55 -1.9 3.55 1.1 3.55" fill="#000000" fill-rule="evenodd" stroke="none"/>
    <path d="M1.1 2.55 L0.1 2.55 0.1 1.55 1.1 1.55 1.1 2.55 M-0.9 2.55 L-1.9 2.55 -1.9 1.55 -0.9 1.55 -0.9 2.55 M4.1 -5.45 L5.1 -5.45 5.1 -4.45 4.1 -4.45 4.1 -5.45 M6.1 0.55 L6.1 1.55 5.1 1.55 5.1 0.55 6.1 0.55 M2.1 -5.45 L2.1 -6.45 3.1 -6.45 3.1 -5.45 2.1 -5.45 M-0.9 -6.45 L-0.9 -5.45 -1.9 -5.45 -1.9 -4.45 -2.9 -4.45 -2.9 -5.45 -1.9 -5.45 -1.9 -6.45 -0.9 -6.45 M2.1 -1.45 L2.1 -0.45 1.1 -0.45 1.1 -1.45 2.1 -1.45 M0.1 -1.45 L0.1 -2.45 1.1 -2.45 1.1 -1.45 0.1 -1.45 M3.1 1.55 L4.1 1.55 4.1 2.55 3.1 2.55 3.1 1.55" fill="#808080" fill-rule="evenodd" stroke="none"/>
    <path d="M1.1 2.55 L1.1 3.55 -1.9 3.55 -1.9 2.55 -0.9 2.55 0.1 2.55 1.1 2.55 M4.1 -6.45 L4.1 -5.45 3.1 -5.45 3.1 -4.45 3.1 -3.45 4.1 -3.45 4.1 -4.45 5.1 -4.45 6.1 -4.45 6.1 0.55 5.1 0.55 5.1 -0.45 4.1 -0.45 4.1 0.55 5.1 0.55 5.1 1.55 4.1 1.55 3.1 1.55 2.1 1.55 1.1 1.55 0.1 1.55 -0.9 1.55 -1.9 1.55 -1.9 0.55 -2.9 0.55 -2.9 1.55 -3.9 1.55 -3.9 -4.45 -2.9 -4.45 -1.9 -4.45 -1.9 -5.45 -0.9 -5.45 -0.9 -6.45 2.1 -6.45 2.1 -5.45 3.1 -5.45 3.1 -6.45 4.1 -6.45 M4.1 2.55 L4.1 3.55 2.1 3.55 2.1 2.55 3.1 2.55 4.1 2.55 M2.1 -5.45 L1.1 -5.45 1.1 -4.45 2.1 -4.45 2.1 -5.45 M2.1 -2.45 L1.1 -2.45 0.1 -2.45 0.1 -1.45 0.1 -0.45 0.1 0.55 1.1 0.55 1.1 -0.45 2.1 -0.45 2.1 -1.45 3.1 -1.45 3.1 -2.45 2.1 -2.45 M0.1 -2.45 L0.1 -3.45 -0.9 -3.45 -0.9 -2.45 0.1 -2.45 M-0.9 -0.45 L-0.9 -1.45 -1.9 -1.45 -1.9 -0.45 -0.9 -0.45" fill="#c0c0c0" fill-rule="evenodd" stroke="none"/>
    <path d="M2.1 3.55 L1.1 3.55 1.1 2.55 2.1 2.55 2.1 3.55 M2.1 -5.45 L2.1 -4.45 1.1 -4.45 1.1 -5.45 2.1 -5.45 M-2.9 1.55 L-2.9 0.55 -1.9 0.55 -1.9 1.55 -2.9 1.55 M2.1 -2.45 L3.1 -2.45 3.1 -1.45 2.1 -1.45 2.1 -2.45 M1.1 -0.45 L1.1 0.55 0.1 0.55 0.1 -0.45 1.1 -0.45 M0.1 -2.45 L-0.9 -2.45 -0.9 -3.45 0.1 -3.45 0.1 -2.45 M4.1 -4.45 L4.1 -3.45 3.1 -3.45 3.1 -4.45 4.1 -4.45 M5.1 0.55 L4.1 0.55 4.1 -0.45 5.1 -0.45 5.1 0.55 M-0.9 -0.45 L-1.9 -0.45 -1.9 -1.45 -0.9 -1.45 -0.9 -0.45" fill="#ffffff" fill-rule="evenodd" stroke="none"/>
    <path d="M0.1 2.55 L-0.9 2.55 -0.9 1.55 0.1 1.55 0.1 2.55 M5.1 1.55 L5.1 2.55 4.1 2.55 4.1 1.55 5.1 1.55 M2.1 2.55 L1.1 2.55 1.1 1.55 2.1 1.55 2.1 2.55 M1.1 -2.45 L2.1 -2.45 2.1 -1.45 1.1 -1.45 1.1 -2.45 M0.1 -0.45 L0.1 -1.45 1.1 -1.45 1.1 -0.45 0.1 -0.45 M4.1 -4.45 L3.1 -4.45 3.1 -5.45 4.1 -5.45 4.1 -4.45 M-2.9 1.55 L-1.9 1.55 -1.9 2.55 -2.9 2.55 -2.9 1.55" fill="#404040" fill-rule="evenodd" stroke="none"/>
    <path d="M2.1 1.55 L3.1 1.55 3.1 2.55 2.1 2.55 2.1 1.55" fill="#90713a" fill-rule="evenodd" stroke="none"/>
  </g>
</svg>
