<?xml version="1.0" encoding="UTF-8" standalone="no"?>
<svg xmlns:ffdec="https://www.free-decompiler.com/flash" xmlns:xlink="http://www.w3.org/1999/xlink" ffdec:objectType="shape" height="14.0px" width="14.0px" xmlns="http://www.w3.org/2000/svg">
  <g transform="matrix(1.0, 0.0, 0.0, 1.0, 6.0, 8.45)">
    <path d="M7.0 -5.45 L8.0 -5.45 8.0 2.55 7.0 2.55 7.0 3.55 6.0 3.55 6.0 4.55 5.0 4.55 5.0 5.55 -3.0 5.55 -3.0 4.55 -4.0 4.55 -4.0 3.55 -5.0 3.55 -5.0 2.55 -6.0 2.55 -6.0 -5.45 -5.0 -5.45 -5.0 -6.45 -4.0 -6.45 -4.0 -7.45 -3.0 -7.45 -3.0 -8.45 5.0 -8.45 5.0 -7.45 6.0 -7.45 6.0 -6.45 7.0 -6.45 7.0 -5.45 6.0 -5.45 6.0 -6.45 5.0 -6.45 5.0 -7.45 -2.0 -7.45 -3.0 -7.45 -3.0 -6.45 -4.0 -6.45 -4.0 -5.45 -5.0 -5.45 -5.0 -4.45 -5.0 0.55 -5.0 1.55 -5.0 2.55 -4.0 2.55 -4.0 3.55 -3.0 3.55 -3.0 4.55 5.0 4.55 5.0 3.55 6.0 3.55 6.0 2.55 7.0 2.55 7.0 1.55 7.0 0.55 7.0 -0.45 7.0 -4.45 7.0 -5.45" fill="#000000" fill-rule="evenodd" stroke="none"/>
    <path d="M7.0 -4.45 L7.0 -0.45 6.0 -0.45 6.0 0.55 5.0 0.55 5.0 1.55 4.0 1.55 4.0 0.55 3.0 0.55 3.0 1.55 2.0 1.55 1.0 1.55 -1.0 1.55 -1.0 0.55 -2.0 0.55 -2.0 1.55 -3.0 1.55 -4.0 1.55 -4.0 0.55 -5.0 0.55 -5.0 -4.45 -4.0 -4.45 -4.0 -3.45 -3.0 -3.45 -3.0 -4.45 -2.0 -4.45 -2.0 -5.45 -1.0 -5.45 -1.0 -6.45 -2.0 -6.45 -2.0 -7.45 5.0 -7.45 5.0 -6.45 6.0 -6.45 6.0 -5.45 5.0 -5.45 4.0 -5.45 3.0 -5.45 3.0 -4.45 4.0 -4.45 5.0 -4.45 6.0 -4.45 7.0 -4.45 M7.0 1.55 L7.0 2.55 6.0 2.55 6.0 3.55 5.0 3.55 5.0 4.55 -3.0 4.55 -3.0 3.55 -4.0 3.55 -4.0 2.55 -5.0 2.55 -5.0 1.55 -4.0 1.55 -4.0 2.55 -3.0 2.55 -3.0 3.55 -2.0 3.55 -2.0 2.55 -1.0 2.55 1.0 2.55 1.0 3.55 2.0 3.55 2.0 2.55 3.0 2.55 4.0 2.55 5.0 2.55 5.0 1.55 6.0 1.55 7.0 1.55 M-4.0 -5.45 L-4.0 -6.45 -3.0 -6.45 -2.0 -6.45 -2.0 -5.45 -3.0 -5.45 -4.0 -5.45 M3.0 -4.45 L2.0 -4.45 2.0 -3.45 3.0 -3.45 3.0 -4.45 M3.0 -5.45 L3.0 -6.45 2.0 -6.45 2.0 -5.45 3.0 -5.45 M1.0 -2.45 L1.0 -3.45 0.0 -3.45 0.0 -2.45 0.0 -1.45 0.0 -0.45 2.0 -0.45 2.0 -2.45 1.0 -2.45 M1.0 -5.45 L1.0 -6.45 0.0 -6.45 0.0 -5.45 1.0 -5.45 M5.0 -2.45 L4.0 -2.45 4.0 -1.45 5.0 -1.45 5.0 -2.45 M-2.0 -1.45 L-3.0 -1.45 -3.0 -0.45 -2.0 -0.45 -2.0 -1.45" fill="#c0c0c0" fill-rule="evenodd" stroke="none"/>
    <path d="M7.0 -5.45 L7.0 -4.45 6.0 -4.45 6.0 -5.45 7.0 -5.45 M-5.0 1.55 L-5.0 0.55 -4.0 0.55 -4.0 1.55 -3.0 1.55 -3.0 2.55 -4.0 2.55 -4.0 1.55 -5.0 1.55 M-5.0 -4.45 L-5.0 -5.45 -4.0 -5.45 -4.0 -4.45 -5.0 -4.45 M-3.0 -6.45 L-3.0 -7.45 -2.0 -7.45 -2.0 -6.45 -1.0 -6.45 -1.0 -5.45 -2.0 -5.45 -2.0 -4.45 -3.0 -4.45 -3.0 -5.45 -2.0 -5.45 -2.0 -6.45 -3.0 -6.45 M5.0 -4.45 L4.0 -4.45 4.0 -5.45 5.0 -5.45 5.0 -4.45 M3.0 -5.45 L2.0 -5.45 2.0 -6.45 3.0 -6.45 3.0 -5.45 M1.0 -2.45 L2.0 -2.45 2.0 -0.45 0.0 -0.45 0.0 -1.45 1.0 -1.45 1.0 -2.45 M2.0 1.55 L3.0 1.55 3.0 2.55 2.0 2.55 2.0 1.55 M4.0 1.55 L5.0 1.55 5.0 0.55 6.0 0.55 6.0 1.55 5.0 1.55 5.0 2.55 4.0 2.55 4.0 1.55 M1.0 1.55 L1.0 2.55 -1.0 2.55 -1.0 1.55 1.0 1.55" fill="#808080" fill-rule="evenodd" stroke="none"/>
    <path d="M6.0 -4.45 L5.0 -4.45 5.0 -5.45 6.0 -5.45 6.0 -4.45" fill="#90713a" fill-rule="evenodd" stroke="none"/>
    <path d="M7.0 -0.45 L7.0 0.55 6.0 0.55 6.0 -0.45 7.0 -0.45 M3.0 -4.45 L3.0 -3.45 2.0 -3.45 2.0 -4.45 3.0 -4.45 M1.0 -5.45 L0.0 -5.45 0.0 -6.45 1.0 -6.45 1.0 -5.45 M0.0 -2.45 L0.0 -3.45 1.0 -3.45 1.0 -2.45 0.0 -2.45 M5.0 -2.45 L5.0 -1.45 4.0 -1.45 4.0 -2.45 5.0 -2.45 M3.0 1.55 L3.0 0.55 4.0 0.55 4.0 1.55 3.0 1.55 M2.0 2.55 L2.0 3.55 1.0 3.55 1.0 2.55 2.0 2.55 M-3.0 -4.45 L-3.0 -3.45 -4.0 -3.45 -4.0 -4.45 -3.0 -4.45 M-2.0 -1.45 L-2.0 -0.45 -3.0 -0.45 -3.0 -1.45 -2.0 -1.45 M-2.0 1.55 L-2.0 0.55 -1.0 0.55 -1.0 1.55 -2.0 1.55 M-3.0 3.55 L-3.0 2.55 -2.0 2.55 -2.0 3.55 -3.0 3.55" fill="#ffffff" fill-rule="evenodd" stroke="none"/>
    <path d="M7.0 0.55 L7.0 1.55 6.0 1.55 6.0 0.55 7.0 0.55 M4.0 -4.45 L3.0 -4.45 3.0 -5.45 4.0 -5.45 4.0 -4.45 M0.0 -1.45 L0.0 -2.45 1.0 -2.45 1.0 -1.45 0.0 -1.45 M1.0 1.55 L2.0 1.55 2.0 2.55 1.0 2.55 1.0 1.55 M-1.0 1.55 L-1.0 2.55 -2.0 2.55 -3.0 2.55 -3.0 1.55 -2.0 1.55 -1.0 1.55 M3.0 2.55 L3.0 1.55 4.0 1.55 4.0 2.55 3.0 2.55 M-4.0 -5.45 L-3.0 -5.45 -3.0 -4.45 -4.0 -4.45 -4.0 -5.45" fill="#404040" fill-rule="evenodd" stroke="none"/>
  </g>
</svg>
