<?xml version="1.0" encoding="UTF-8" standalone="no"?>
<svg xmlns:ffdec="https://www.free-decompiler.com/flash" xmlns:xlink="http://www.w3.org/1999/xlink" ffdec:objectType="shape" height="16.0px" width="16.0px" xmlns="http://www.w3.org/2000/svg">
  <g transform="matrix(1.0, 0.0, 0.0, 1.0, 6.95, 9.45)">
    <path d="M7.05 -8.45 L7.05 -7.45 8.05 -7.45 8.05 -5.45 9.05 -5.45 9.05 2.55 8.05 2.55 8.05 4.55 7.05 4.55 7.05 5.55 6.05 5.55 6.05 6.55 -2.95 6.55 -2.95 5.55 -4.95 5.55 -4.95 4.55 -5.95 4.55 -5.95 2.55 -6.95 2.55 -6.95 -5.45 -5.95 -5.45 -5.95 -7.45 -4.95 -7.45 -4.95 -8.45 -2.95 -8.45 -2.95 -9.45 5.05 -9.45 5.05 -8.45 7.05 -8.45 M5.05 -7.45 L5.05 -8.45 4.05 -8.45 -1.95 -8.45 -2.95 -8.45 -2.95 -7.45 -3.95 -7.45 -4.95 -7.45 -4.95 -5.45 -5.95 -5.45 -5.95 0.55 -5.95 1.55 -5.95 2.55 -4.95 2.55 -4.95 4.55 -2.95 4.55 -2.95 5.55 -0.95 5.55 0.05 5.55 1.05 5.55 2.05 5.55 4.05 5.55 5.05 5.55 5.05 4.55 7.05 4.55 7.05 2.55 8.05 2.55 8.05 1.55 8.05 0.55 8.05 -0.45 8.05 -1.45 8.05 -2.45 8.05 -4.45 7.05 -4.45 7.05 -5.45 7.05 -6.45 7.05 -7.45 6.05 -7.45 5.05 -7.45" fill="#000000" fill-rule="evenodd" stroke="none"/>
    <path d="M4.05 -8.45 L5.05 -8.45 5.05 -7.45 4.05 -7.45 4.05 -8.45 M6.05 -7.45 L7.05 -7.45 7.05 -6.45 6.05 -6.45 6.05 -7.45 M2.05 5.55 L1.05 5.55 1.05 4.55 2.05 4.55 2.05 3.55 1.05 3.55 0.05 3.55 0.05 2.55 -0.95 2.55 -0.95 1.55 0.05 1.55 0.05 2.55 1.05 2.55 1.05 1.55 2.05 1.55 2.05 2.55 2.05 3.55 4.05 3.55 4.05 4.55 2.05 4.55 2.05 5.55 M0.05 5.55 L-0.95 5.55 -0.95 4.55 -2.95 4.55 -2.95 3.55 -0.95 3.55 -0.95 4.55 0.05 4.55 0.05 5.55 M-5.95 1.55 L-5.95 0.55 -3.95 0.55 -3.95 1.55 -1.95 1.55 -1.95 2.55 -3.95 2.55 -3.95 1.55 -5.95 1.55 M-2.95 -7.45 L-2.95 -8.45 -1.95 -8.45 -1.95 -7.45 -2.95 -7.45 M5.05 -5.45 L5.05 -4.45 4.05 -4.45 4.05 -5.45 5.05 -5.45 M3.05 -5.45 L2.05 -5.45 2.05 -6.45 3.05 -6.45 3.05 -5.45 M1.05 -2.45 L2.05 -2.45 2.05 -1.45 1.05 -1.45 1.05 -2.45 M1.05 -0.45 L0.05 -0.45 0.05 -1.45 1.05 -1.45 1.05 -0.45 M3.05 2.55 L3.05 1.55 4.05 1.55 4.05 2.55 3.05 2.55 M-2.95 -4.45 L-4.95 -4.45 -4.95 -5.45 -2.95 -5.45 -2.95 -4.45" fill="#808080" fill-rule="evenodd" stroke="none"/>
    <path d="M7.05 -6.45 L7.05 -5.45 6.05 -5.45 6.05 -6.45 7.05 -6.45 M7.05 -4.45 L8.05 -4.45 8.05 -2.45 7.05 -2.45 7.05 -1.45 8.05 -1.45 8.05 -0.45 7.05 -0.45 7.05 0.55 6.05 0.55 6.05 -0.45 5.05 -0.45 5.05 0.55 4.05 0.55 4.05 1.55 3.05 1.55 2.05 1.55 1.05 1.55 0.05 1.55 -0.95 1.55 -1.95 1.55 -3.95 1.55 -3.95 0.55 -5.95 0.55 -5.95 -5.45 -4.95 -5.45 -4.95 -7.45 -3.95 -7.45 -3.95 -6.45 -2.95 -6.45 -2.95 -5.45 -4.95 -5.45 -4.95 -4.45 -2.95 -4.45 -1.95 -4.45 -1.95 -5.45 -0.95 -5.45 -0.95 -6.45 -1.95 -6.45 -1.95 -7.45 -1.95 -8.45 4.05 -8.45 4.05 -7.45 5.05 -7.45 5.05 -6.45 5.05 -5.45 4.05 -5.45 3.05 -5.45 3.05 -6.45 2.05 -6.45 2.05 -5.45 3.05 -5.45 3.05 -4.45 4.05 -4.45 5.05 -4.45 5.05 -3.45 6.05 -3.45 6.05 -4.45 7.05 -4.45 M8.05 1.55 L8.05 2.55 7.05 2.55 7.05 4.55 5.05 4.55 5.05 3.55 4.05 3.55 2.05 3.55 2.05 2.55 3.05 2.55 4.05 2.55 5.05 2.55 6.05 2.55 6.05 1.55 7.05 1.55 8.05 1.55 M4.05 5.55 L2.05 5.55 2.05 4.55 4.05 4.55 4.05 5.55 M1.05 5.55 L0.05 5.55 0.05 4.55 0.05 3.55 1.05 3.55 1.05 4.55 1.05 5.55 M-0.95 5.55 L-2.95 5.55 -2.95 4.55 -4.95 4.55 -4.95 2.55 -5.95 2.55 -5.95 1.55 -3.95 1.55 -3.95 2.55 -1.95 2.55 -0.95 2.55 -0.95 3.55 -2.95 3.55 -2.95 4.55 -0.95 4.55 -0.95 5.55 M4.05 -7.45 L3.05 -7.45 3.05 -6.45 4.05 -6.45 4.05 -7.45 M2.05 -4.45 L1.05 -4.45 1.05 -3.45 2.05 -3.45 2.05 -4.45 M1.05 -6.45 L1.05 -7.45 0.05 -7.45 0.05 -6.45 1.05 -6.45 M2.05 -1.45 L2.05 -2.45 1.05 -2.45 0.05 -2.45 -0.95 -2.45 -0.95 -1.45 0.05 -1.45 0.05 -0.45 1.05 -0.45 1.05 0.55 2.05 0.55 2.05 -0.45 2.05 -1.45 M4.05 -2.45 L3.05 -2.45 3.05 -1.45 4.05 -1.45 4.05 -2.45 M-0.95 -5.45 L-0.95 -4.45 0.05 -4.45 0.05 -5.45 -0.95 -5.45 M-1.95 -3.45 L-2.95 -3.45 -2.95 -2.45 -1.95 -2.45 -1.95 -3.45 M-0.95 0.55 L-0.95 -0.45 -1.95 -0.45 -1.95 0.55 -0.95 0.55 M-4.95 -1.45 L-4.95 -0.45 -3.95 -0.45 -3.95 -1.45 -4.95 -1.45" fill="#c0c0c0" fill-rule="evenodd" stroke="none"/>
    <path d="M8.05 -2.45 L8.05 -1.45 7.05 -1.45 7.05 -2.45 8.05 -2.45 M8.05 0.55 L8.05 1.55 7.05 1.55 7.05 0.55 8.05 0.55 M5.05 4.55 L5.05 5.55 4.05 5.55 4.05 4.55 5.05 4.55 M5.05 -6.45 L6.05 -6.45 6.05 -5.45 5.05 -5.45 5.05 -6.45 M5.05 -4.45 L6.05 -4.45 6.05 -3.45 5.05 -3.45 5.05 -4.45 M4.05 -7.45 L4.05 -6.45 3.05 -6.45 3.05 -7.45 4.05 -7.45 M1.05 -6.45 L0.05 -6.45 0.05 -7.45 1.05 -7.45 1.05 -6.45 M2.05 -4.45 L2.05 -3.45 1.05 -3.45 1.05 -4.45 2.05 -4.45 M2.05 -0.45 L2.05 0.55 1.05 0.55 1.05 -0.45 2.05 -0.45 M0.05 -1.45 L-0.95 -1.45 -0.95 -2.45 0.05 -2.45 0.05 -1.45 M4.05 -2.45 L4.05 -1.45 3.05 -1.45 3.05 -2.45 4.05 -2.45 M6.05 0.55 L5.05 0.55 5.05 -0.45 6.05 -0.45 6.05 0.55 M5.05 0.55 L5.05 1.55 6.05 1.55 6.05 2.55 5.05 2.55 5.05 1.55 4.05 1.55 4.05 0.55 5.05 0.55 M-0.95 -5.45 L0.05 -5.45 0.05 -4.45 -0.95 -4.45 -0.95 -5.45 M-2.95 -5.45 L-2.95 -6.45 -1.95 -6.45 -1.95 -5.45 -2.95 -5.45 M-1.95 -3.45 L-1.95 -2.45 -2.95 -2.45 -2.95 -3.45 -1.95 -3.45 M-4.95 -1.45 L-3.95 -1.45 -3.95 -0.45 -4.95 -0.45 -4.95 -1.45 M-0.95 0.55 L-1.95 0.55 -1.95 -0.45 -0.95 -0.45 -0.95 0.55" fill="#ffffff" fill-rule="evenodd" stroke="none"/>
    <path d="M5.05 -7.45 L6.05 -7.45 6.05 -6.45 5.05 -6.45 5.05 -7.45 M7.05 -5.45 L7.05 -4.45 6.05 -4.45 5.05 -4.45 5.05 -5.45 6.05 -5.45 7.05 -5.45 M8.05 -0.45 L8.05 0.55 7.05 0.55 7.05 -0.45 8.05 -0.45 M3.05 -5.45 L4.05 -5.45 4.05 -4.45 3.05 -4.45 3.05 -5.45 M2.05 -1.45 L2.05 -0.45 1.05 -0.45 1.05 -1.45 2.05 -1.45 M0.05 -2.45 L1.05 -2.45 1.05 -1.45 0.05 -1.45 0.05 -2.45 M5.05 0.55 L6.05 0.55 7.05 0.55 7.05 1.55 6.05 1.55 5.05 1.55 5.05 0.55 M3.05 1.55 L3.05 2.55 2.05 2.55 2.05 1.55 3.05 1.55 M4.05 2.55 L4.05 1.55 5.05 1.55 5.05 2.55 4.05 2.55 M1.05 1.55 L1.05 2.55 0.05 2.55 0.05 1.55 1.05 1.55 M-0.95 1.55 L-0.95 2.55 0.05 2.55 0.05 3.55 0.05 4.55 -0.95 4.55 -0.95 3.55 -0.95 2.55 -1.95 2.55 -1.95 1.55 -0.95 1.55 M1.05 3.55 L2.05 3.55 2.05 4.55 1.05 4.55 1.05 3.55 M4.05 3.55 L5.05 3.55 5.05 4.55 4.05 4.55 4.05 3.55 M-1.95 -7.45 L-1.95 -6.45 -0.95 -6.45 -0.95 -5.45 -1.95 -5.45 -1.95 -4.45 -2.95 -4.45 -2.95 -5.45 -1.95 -5.45 -1.95 -6.45 -2.95 -6.45 -2.95 -7.45 -1.95 -7.45" fill="#404040" fill-rule="evenodd" stroke="none"/>
    <path d="M-3.95 -7.45 L-2.95 -7.45 -2.95 -6.45 -3.95 -6.45 -3.95 -7.45" fill="#90713a" fill-rule="evenodd" stroke="none"/>
  </g>
</svg>
