<?xml version="1.0" encoding="UTF-8" standalone="no"?>
<svg xmlns:ffdec="https://www.free-decompiler.com/flash" xmlns:xlink="http://www.w3.org/1999/xlink" ffdec:objectType="shape" height="18.0px" width="18.0px" xmlns="http://www.w3.org/2000/svg">
  <g transform="matrix(1.0, 0.0, 0.0, 1.0, 8.0, 10.45)">
    <path d="M2.0 -9.45 L3.0 -9.45 3.0 -8.45 2.0 -8.45 2.0 -9.45 M4.0 -9.45 L5.0 -9.45 5.0 -8.45 6.0 -8.45 6.0 -7.45 5.0 -7.45 5.0 -8.45 4.0 -8.45 4.0 -9.45 M-2.0 -9.45 L-1.0 -9.45 -1.0 -8.45 -2.0 -8.45 -2.0 -7.45 -3.0 -7.45 -3.0 -8.45 -2.0 -8.45 -2.0 -9.45 M7.0 -7.45 L7.0 -6.45 6.0 -6.45 6.0 -7.45 7.0 -7.45 M9.0 -1.45 L9.0 -0.45 8.0 -0.45 8.0 0.55 7.0 0.55 7.0 1.55 6.0 1.55 6.0 0.55 7.0 0.55 7.0 -0.45 8.0 -0.45 8.0 -1.45 9.0 -1.45 M7.0 4.55 L7.0 5.55 6.0 5.55 6.0 4.55 7.0 4.55 M2.0 6.55 L1.0 6.55 1.0 5.55 2.0 5.55 2.0 6.55 M-4.0 5.55 L-5.0 5.55 -5.0 4.55 -4.0 4.55 -4.0 5.55 M-7.0 0.55 L-7.0 -0.45 -6.0 -0.45 -6.0 0.55 -5.0 0.55 -5.0 1.55 -6.0 1.55 -6.0 0.55 -7.0 0.55 M-5.0 -7.45 L-5.0 -8.45 -4.0 -8.45 -4.0 -7.45 -3.0 -7.45 -3.0 -6.45 -4.0 -6.45 -4.0 -7.45 -5.0 -7.45 M7.0 -5.45 L7.0 -4.45 6.0 -4.45 6.0 -5.45 7.0 -5.45 M5.0 -4.45 L4.0 -4.45 4.0 -5.45 5.0 -5.45 5.0 -4.45 M3.0 -5.45 L2.0 -5.45 2.0 -6.45 3.0 -6.45 3.0 -5.45 M2.0 -1.45 L2.0 -0.45 1.0 -0.45 1.0 -1.45 2.0 -1.45 M0.0 -1.45 L0.0 -2.45 1.0 -2.45 1.0 -1.45 0.0 -1.45 M1.0 1.55 L2.0 1.55 2.0 2.55 1.0 2.55 1.0 3.55 2.0 3.55 2.0 4.55 1.0 4.55 1.0 3.55 0.0 3.55 0.0 5.55 -1.0 5.55 -1.0 4.55 -1.0 3.55 -1.0 2.55 1.0 2.55 1.0 1.55 M3.0 1.55 L4.0 1.55 4.0 2.55 3.0 2.55 3.0 1.55 M3.0 3.55 L4.0 3.55 4.0 4.55 3.0 4.55 3.0 3.55 M-1.0 1.55 L-1.0 2.55 -2.0 2.55 -2.0 1.55 -1.0 1.55 M-3.0 2.55 L-4.0 2.55 -4.0 1.55 -3.0 1.55 -3.0 2.55 M-3.0 3.55 L-2.0 3.55 -2.0 4.55 -2.0 5.55 -3.0 5.55 -3.0 4.55 -3.0 3.55 M-3.0 -4.45 L-4.0 -4.45 -4.0 -5.45 -3.0 -5.45 -3.0 -4.45 M-5.0 -4.45 L-6.0 -4.45 -6.0 -5.45 -5.0 -5.45 -5.0 -4.45" fill="#808080" fill-rule="evenodd" stroke="none"/>
    <path d="M2.0 -9.45 L2.0 -8.45 3.0 -8.45 3.0 -9.45 4.0 -9.45 4.0 -8.45 4.0 -7.45 4.0 -6.45 5.0 -6.45 6.0 -6.45 7.0 -6.45 7.0 -7.45 8.0 -7.45 8.0 -6.45 7.0 -6.45 7.0 -5.45 8.0 -5.45 9.0 -5.45 9.0 -1.45 8.0 -1.45 8.0 -0.45 7.0 -0.45 7.0 0.55 6.0 0.55 5.0 0.55 4.0 0.55 4.0 1.55 3.0 1.55 2.0 1.55 1.0 1.55 1.0 0.55 0.0 0.55 0.0 1.55 -1.0 1.55 -2.0 1.55 -3.0 1.55 -4.0 1.55 -4.0 0.55 -4.0 -0.45 -5.0 -0.45 -5.0 0.55 -6.0 0.55 -6.0 -0.45 -7.0 -0.45 -7.0 -2.45 -6.0 -2.45 -6.0 -3.45 -7.0 -3.45 -7.0 -5.45 -6.0 -5.45 -6.0 -7.45 -5.0 -7.45 -4.0 -7.45 -4.0 -6.45 -3.0 -6.45 -3.0 -5.45 -4.0 -5.45 -5.0 -5.45 -6.0 -5.45 -6.0 -4.45 -5.0 -4.45 -5.0 -3.45 -4.0 -3.45 -4.0 -4.45 -3.0 -4.45 -2.0 -4.45 -1.0 -4.45 -1.0 -5.45 -1.0 -6.45 -2.0 -6.45 -2.0 -7.45 -2.0 -8.45 -1.0 -8.45 -1.0 -9.45 2.0 -9.45 M-3.0 -9.45 L-2.0 -9.45 -2.0 -8.45 -3.0 -8.45 -3.0 -9.45 M9.0 -0.45 L9.0 2.55 8.0 2.55 8.0 3.55 7.0 3.55 7.0 4.55 6.0 4.55 5.0 4.55 5.0 3.55 4.0 3.55 3.0 3.55 2.0 3.55 2.0 2.55 3.0 2.55 4.0 2.55 5.0 2.55 5.0 3.55 6.0 3.55 6.0 2.55 5.0 2.55 5.0 1.55 6.0 1.55 7.0 1.55 7.0 0.55 8.0 0.55 8.0 -0.45 9.0 -0.45 M5.0 5.55 L5.0 6.55 4.0 6.55 4.0 5.55 5.0 5.55 M3.0 6.55 L2.0 6.55 2.0 5.55 3.0 5.55 3.0 6.55 M1.0 6.55 L0.0 6.55 0.0 5.55 0.0 3.55 1.0 3.55 1.0 4.55 1.0 5.55 1.0 6.55 M-3.0 5.55 L-4.0 5.55 -4.0 4.55 -3.0 4.55 -3.0 5.55 M-5.0 4.55 L-6.0 4.55 -6.0 2.55 -7.0 2.55 -7.0 0.55 -6.0 0.55 -6.0 1.55 -5.0 1.55 -4.0 1.55 -4.0 2.55 -3.0 2.55 -2.0 2.55 -1.0 2.55 -1.0 3.55 -2.0 3.55 -3.0 3.55 -4.0 3.55 -4.0 2.55 -5.0 2.55 -5.0 3.55 -4.0 3.55 -4.0 4.55 -5.0 4.55 M8.0 -3.45 L7.0 -3.45 7.0 -2.45 8.0 -2.45 8.0 -3.45 M6.0 -4.45 L7.0 -4.45 7.0 -5.45 6.0 -5.45 5.0 -5.45 4.0 -5.45 3.0 -5.45 3.0 -4.45 3.0 -3.45 4.0 -3.45 4.0 -4.45 5.0 -4.45 6.0 -4.45 M2.0 -5.45 L3.0 -5.45 3.0 -6.45 2.0 -6.45 2.0 -5.45 1.0 -5.45 1.0 -4.45 2.0 -4.45 2.0 -5.45 M1.0 -6.45 L1.0 -7.45 0.0 -7.45 0.0 -6.45 1.0 -6.45 M2.0 -2.45 L1.0 -2.45 0.0 -2.45 0.0 -1.45 -1.0 -1.45 -1.0 -0.45 0.0 -0.45 1.0 -0.45 2.0 -0.45 2.0 -1.45 3.0 -1.45 3.0 -2.45 2.0 -2.45 M6.0 -1.45 L5.0 -1.45 5.0 -0.45 6.0 -0.45 6.0 -1.45 M-1.0 4.55 L-1.0 5.55 -2.0 5.55 -2.0 4.55 -1.0 4.55 M-2.0 -2.45 L-3.0 -2.45 -3.0 -1.45 -2.0 -1.45 -2.0 -2.45" fill="#c0c0c0" fill-rule="evenodd" stroke="none"/>
    <path d="M3.0 -9.45 L2.0 -9.45 -1.0 -9.45 -2.0 -9.45 -3.0 -9.45 -3.0 -10.45 5.0 -10.45 5.0 -9.45 4.0 -9.45 3.0 -9.45 M6.0 -8.45 L5.0 -8.45 5.0 -9.45 7.0 -9.45 7.0 -8.45 8.0 -8.45 8.0 -7.45 9.0 -7.45 9.0 -5.45 10.0 -5.45 10.0 2.55 9.0 2.55 9.0 4.55 8.0 4.55 8.0 5.55 7.0 5.55 7.0 6.55 5.0 6.55 5.0 7.55 -3.0 7.55 -3.0 6.55 -4.0 6.55 -4.0 6.95 -5.0 6.95 -5.0 5.55 -6.0 5.55 -6.0 4.55 -7.0 4.55 -7.0 2.55 -8.0 2.55 -8.0 -5.45 -7.0 -5.45 -7.0 -7.45 -6.0 -7.45 -6.0 -8.45 -5.0 -8.45 -5.0 -9.45 -3.0 -9.45 -3.0 -8.45 -4.0 -8.45 -5.0 -8.45 -5.0 -7.45 -6.0 -7.45 -6.0 -5.45 -7.0 -5.45 -7.0 -3.45 -7.0 -2.45 -7.0 -0.45 -7.0 0.55 -7.0 2.55 -6.0 2.55 -6.0 4.55 -5.0 4.55 -5.0 5.55 -4.0 5.55 -3.0 5.55 -3.0 6.55 -2.0 6.55 -1.0 6.55 0.0 6.55 1.0 6.55 2.0 6.55 3.0 6.55 4.0 6.55 5.0 6.55 5.0 5.55 6.0 5.55 7.0 5.55 7.0 4.55 8.0 4.55 8.0 3.55 8.0 2.55 9.0 2.55 9.0 -0.45 9.0 -1.45 9.0 -5.45 8.0 -5.45 8.0 -6.45 8.0 -7.45 7.0 -7.45 7.0 -8.45 6.0 -8.45" fill="#000000" fill-rule="evenodd" stroke="none"/>
    <path d="M6.0 -8.45 L7.0 -8.45 7.0 -7.45 6.0 -7.45 6.0 -6.45 5.0 -6.45 5.0 -7.45 4.0 -7.45 4.0 -8.45 5.0 -8.45 5.0 -7.45 6.0 -7.45 6.0 -8.45 M6.0 5.55 L5.0 5.55 5.0 4.55 4.0 4.55 4.0 5.55 4.0 6.55 3.0 6.55 3.0 5.55 3.0 4.55 4.0 4.55 4.0 3.55 5.0 3.55 5.0 4.55 6.0 4.55 6.0 5.55 M0.0 6.55 L-1.0 6.55 -1.0 5.55 0.0 5.55 0.0 6.55 M-2.0 6.55 L-3.0 6.55 -3.0 5.55 -2.0 5.55 -2.0 6.55 M-4.0 -8.45 L-3.0 -8.45 -3.0 -7.45 -2.0 -7.45 -2.0 -6.45 -1.0 -6.45 -1.0 -5.45 -2.0 -5.45 -2.0 -6.45 -3.0 -6.45 -3.0 -7.45 -4.0 -7.45 -4.0 -8.45 M6.0 -4.45 L5.0 -4.45 5.0 -5.45 6.0 -5.45 6.0 -4.45 M3.0 -4.45 L3.0 -5.45 4.0 -5.45 4.0 -4.45 3.0 -4.45 M1.0 -2.45 L2.0 -2.45 2.0 -1.45 1.0 -1.45 1.0 -2.45 M1.0 -0.45 L0.0 -0.45 0.0 -1.45 1.0 -1.45 1.0 -0.45 M5.0 0.55 L6.0 0.55 6.0 1.55 5.0 1.55 5.0 0.55 M4.0 1.55 L5.0 1.55 5.0 2.55 4.0 2.55 4.0 1.55 M2.0 3.55 L1.0 3.55 1.0 2.55 2.0 2.55 2.0 3.55 3.0 3.55 3.0 4.55 2.0 4.55 2.0 5.55 1.0 5.55 1.0 4.55 2.0 4.55 2.0 3.55 M1.0 1.55 L1.0 2.55 -1.0 2.55 -1.0 1.55 0.0 1.55 1.0 1.55 M-1.0 3.55 L-1.0 4.55 -2.0 4.55 -2.0 3.55 -1.0 3.55 M-2.0 2.55 L-3.0 2.55 -3.0 1.55 -2.0 1.55 -2.0 2.55 M-4.0 3.55 L-3.0 3.55 -3.0 4.55 -4.0 4.55 -4.0 3.55 M-2.0 -4.45 L-3.0 -4.45 -3.0 -5.45 -2.0 -5.45 -2.0 -4.45 M-5.0 -5.45 L-4.0 -5.45 -4.0 -4.45 -5.0 -4.45 -5.0 -5.45 M-4.0 0.55 L-4.0 1.55 -5.0 1.55 -5.0 0.55 -4.0 0.55" fill="#404040" fill-rule="evenodd" stroke="none"/>
    <path d="M7.0 -6.45 L8.0 -6.45 8.0 -5.45 7.0 -5.45 7.0 -6.45 M8.0 3.55 L8.0 4.55 7.0 4.55 7.0 3.55 8.0 3.55 M-1.0 6.55 L-2.0 6.55 -2.0 5.55 -1.0 5.55 -1.0 6.55 M-7.0 -2.45 L-7.0 -3.45 -6.0 -3.45 -6.0 -2.45 -7.0 -2.45 M8.0 -3.45 L8.0 -2.45 7.0 -2.45 7.0 -3.45 8.0 -3.45 M4.0 -4.45 L4.0 -3.45 3.0 -3.45 3.0 -4.45 4.0 -4.45 M2.0 -5.45 L2.0 -4.45 1.0 -4.45 1.0 -5.45 2.0 -5.45 M4.0 -7.45 L5.0 -7.45 5.0 -6.45 4.0 -6.45 4.0 -7.45 M1.0 -6.45 L0.0 -6.45 0.0 -7.45 1.0 -7.45 1.0 -6.45 M2.0 -2.45 L3.0 -2.45 3.0 -1.45 2.0 -1.45 2.0 -2.45 M0.0 -0.45 L-1.0 -0.45 -1.0 -1.45 0.0 -1.45 0.0 -0.45 M6.0 -1.45 L6.0 -0.45 5.0 -0.45 5.0 -1.45 6.0 -1.45 M4.0 1.55 L4.0 0.55 5.0 0.55 5.0 1.55 4.0 1.55 M5.0 3.55 L5.0 2.55 6.0 2.55 6.0 3.55 5.0 3.55 M0.0 1.55 L0.0 0.55 1.0 0.55 1.0 1.55 0.0 1.55 M-4.0 2.55 L-4.0 3.55 -5.0 3.55 -5.0 2.55 -4.0 2.55 M4.0 5.55 L4.0 4.55 5.0 4.55 5.0 5.55 4.0 5.55 M2.0 5.55 L2.0 4.55 3.0 4.55 3.0 5.55 2.0 5.55 M-1.0 -5.45 L-1.0 -4.45 -2.0 -4.45 -2.0 -5.45 -3.0 -5.45 -3.0 -6.45 -2.0 -6.45 -2.0 -5.45 -1.0 -5.45 M-4.0 -4.45 L-4.0 -3.45 -5.0 -3.45 -5.0 -4.45 -4.0 -4.45 M-2.0 -2.45 L-2.0 -1.45 -3.0 -1.45 -3.0 -2.45 -2.0 -2.45 M-5.0 0.55 L-5.0 -0.45 -4.0 -0.45 -4.0 0.55 -5.0 0.55" fill="#ffffff" fill-rule="evenodd" stroke="none"/>
    <path d="M2.0 1.55 L3.0 1.55 3.0 2.55 2.0 2.55 2.0 1.55" fill="#90713a" fill-rule="evenodd" stroke="none"/>
  </g>
</svg>
