<?xml version="1.0" encoding="UTF-8" standalone="no"?>
<svg xmlns:ffdec="https://www.free-decompiler.com/flash" xmlns:xlink="http://www.w3.org/1999/xlink" ffdec:objectType="shape" height="28.0px" width="34.0px" xmlns="http://www.w3.org/2000/svg">
  <g transform="matrix(1.0, 0.0, 0.0, 1.0, 23.05, -7.0)">
    <path d="M3.95 8.0 L5.95 8.0 5.95 7.0 8.95 7.0 8.95 8.0 9.95 8.0 9.95 10.0 10.95 10.0 10.95 14.0 9.95 14.0 9.95 18.0 10.95 18.0 10.95 23.0 9.95 23.0 9.95 25.0 8.95 25.0 8.95 27.0 7.95 27.0 7.95 29.0 6.95 29.0 6.95 34.0 5.95 34.0 5.95 35.0 -1.05 35.0 -1.05 31.0 -2.05 31.0 -2.05 30.0 -4.05 30.0 -4.05 33.0 -5.05 33.0 -5.05 34.0 -11.05 34.0 -11.05 33.0 -12.05 33.0 -12.05 31.0 -13.05 31.0 -13.05 29.0 -12.05 29.0 -12.05 27.0 -15.05 27.0 -15.05 26.0 -17.05 26.0 -17.05 28.0 -18.05 28.0 -18.05 29.0 -22.05 29.0 -22.05 28.0 -23.05 28.0 -23.05 25.0 -22.05 25.0 -22.05 24.0 -21.05 24.0 -21.05 23.0 -22.05 23.0 -22.05 22.0 -23.05 22.0 -23.05 19.0 -22.05 19.0 -22.05 18.0 -19.05 18.0 -19.05 17.0 -18.05 17.0 -18.05 16.0 -17.05 16.0 -17.05 15.0 -16.05 15.0 -16.05 14.0 -15.05 14.0 -15.05 13.0 -14.05 13.0 -14.05 10.0 -13.05 10.0 -13.05 9.0 -12.05 9.0 -12.05 10.0 -11.05 10.0 -11.05 12.0 -9.05 12.0 -9.05 11.0 -8.05 11.0 -8.05 10.0 -6.05 10.0 -6.05 9.0 -5.05 9.0 -5.05 14.0 -6.05 14.0 -6.05 15.0 -5.05 15.0 -5.05 16.0 -2.05 16.0 -2.05 17.0 2.95 17.0 2.95 16.0 5.95 16.0 5.95 15.0 6.95 15.0 6.95 14.0 7.95 14.0 7.95 10.0 6.95 10.0 6.95 9.0 5.95 9.0 5.95 10.0 3.95 10.0 3.95 11.0 1.95 11.0 1.95 10.0 2.95 10.0 2.95 9.0 3.95 9.0 3.95 8.0 M9.95 21.0 L9.95 18.0 8.95 18.0 8.95 17.0 7.95 17.0 7.95 16.0 5.95 16.0 5.95 17.0 2.95 17.0 2.95 18.0 -2.05 18.0 -2.05 17.0 -5.05 17.0 -5.05 16.0 -7.05 16.0 -7.05 13.0 -6.05 13.0 -6.05 12.0 -6.05 11.0 -7.05 11.0 -7.05 12.0 -8.05 12.0 -8.05 13.0 -11.05 13.0 -12.05 13.0 -12.05 11.0 -13.05 11.0 -13.05 13.0 -14.05 13.0 -14.05 14.0 -15.05 14.0 -15.05 15.0 -16.05 15.0 -16.05 16.0 -17.05 16.0 -17.05 17.0 -18.05 17.0 -18.05 19.0 -17.05 19.0 -17.05 20.0 -17.05 21.0 -17.05 22.0 -18.05 22.0 -18.05 23.0 -17.05 23.0 -16.05 23.0 -14.05 23.0 -14.05 22.0 -12.05 22.0 -12.05 21.0 -11.05 21.0 -11.05 22.0 -12.05 22.0 -12.05 23.0 -14.05 23.0 -14.05 24.0 -15.05 24.0 -16.05 24.0 -16.05 25.0 -15.05 25.0 -15.05 26.0 -11.05 26.0 -11.05 27.0 -10.05 27.0 -9.05 27.0 -7.05 27.0 -7.05 28.0 -8.05 28.0 -8.05 29.0 -9.05 29.0 -9.05 31.0 -8.05 31.0 -8.05 33.0 -5.05 33.0 -5.05 31.0 -6.05 31.0 -6.05 30.0 -4.05 30.0 -4.05 29.0 -1.05 29.0 -0.05 29.0 1.95 29.0 1.95 31.0 2.95 31.0 2.95 34.0 5.95 34.0 5.95 29.0 6.95 29.0 6.95 28.0 6.95 27.0 7.95 27.0 7.95 25.0 8.95 25.0 8.95 23.0 9.95 23.0 9.95 22.0 9.95 21.0 M-16.05 19.0 L-16.05 17.0 -15.05 17.0 -15.05 18.0 -15.05 19.0 -16.05 19.0 M1.95 31.0 L0.95 31.0 0.95 30.0 -1.05 30.0 -1.05 31.0 -0.05 31.0 -0.05 34.0 1.95 34.0 1.95 31.0 M-12.05 17.0 L-12.05 19.0 -13.05 19.0 -13.05 17.0 -12.05 17.0 M-19.05 21.0 L-19.05 20.0 -21.05 20.0 -21.05 21.0 -19.05 21.0 M-21.05 26.0 L-22.05 26.0 -22.05 27.0 -21.05 27.0 -21.05 28.0 -19.05 28.0 -19.05 27.0 -18.05 27.0 -18.05 25.0 -17.05 25.0 -17.05 24.0 -21.05 24.0 -21.05 25.0 -21.05 26.0 M-11.05 31.0 L-11.05 33.0 -9.05 33.0 -9.05 31.0 -10.05 31.0 -10.05 29.0 -9.05 29.0 -9.05 28.0 -11.05 28.0 -11.05 29.0 -12.05 29.0 -12.05 30.0 -12.05 31.0 -11.05 31.0" fill="#000000" fill-rule="evenodd" stroke="none"/>
    <path d="M-6.05 12.0 L-6.05 13.0 -7.05 13.0 -7.05 16.0 -5.05 16.0 -5.05 17.0 -2.05 17.0 -2.05 18.0 2.95 18.0 2.95 17.0 5.95 17.0 5.95 16.0 7.95 16.0 7.95 17.0 8.95 17.0 8.95 18.0 9.95 18.0 9.95 21.0 8.95 21.0 8.95 22.0 9.95 22.0 9.95 23.0 8.95 23.0 8.95 25.0 7.95 25.0 7.95 27.0 6.95 27.0 6.95 28.0 5.95 28.0 5.95 29.0 5.95 34.0 2.95 34.0 2.95 31.0 1.95 31.0 1.95 29.0 -0.05 29.0 -0.05 28.0 0.95 28.0 0.95 27.0 -0.05 27.0 -0.05 28.0 -1.05 28.0 -1.05 29.0 -4.05 29.0 -4.05 30.0 -6.05 30.0 -6.05 31.0 -5.05 31.0 -5.05 33.0 -8.05 33.0 -8.05 31.0 -9.05 31.0 -9.05 29.0 -8.05 29.0 -8.05 28.0 -7.05 28.0 -7.05 27.0 -9.05 27.0 -9.05 26.0 -10.05 26.0 -10.05 27.0 -11.05 27.0 -11.05 26.0 -15.05 26.0 -15.05 25.0 -13.05 25.0 -13.05 24.0 -14.05 24.0 -14.05 23.0 -12.05 23.0 -12.05 22.0 -11.05 22.0 -11.05 21.0 -11.05 20.0 -12.05 20.0 -12.05 21.0 -12.05 22.0 -14.05 22.0 -14.05 23.0 -16.05 23.0 -16.05 22.0 -17.05 22.0 -17.05 21.0 -16.05 21.0 -16.05 20.0 -15.05 20.0 -15.05 19.0 -15.05 18.0 -14.05 18.0 -14.05 17.0 -15.05 17.0 -16.05 17.0 -16.05 19.0 -16.05 20.0 -17.05 20.0 -17.05 19.0 -18.05 19.0 -18.05 17.0 -17.05 17.0 -17.05 16.0 -16.05 16.0 -16.05 15.0 -15.05 15.0 -15.05 14.0 -14.05 14.0 -14.05 15.0 -13.05 15.0 -13.05 14.0 -11.05 14.0 -11.05 13.0 -8.05 13.0 -8.05 12.0 -7.05 12.0 -6.05 12.0 M-7.05 28.0 L-7.05 29.0 -6.05 29.0 -6.05 28.0 -5.05 28.0 -5.05 27.0 -6.05 27.0 -6.05 28.0 -7.05 28.0 M4.95 19.0 L5.95 19.0 5.95 18.0 4.95 18.0 4.95 19.0 M1.95 20.0 L1.95 19.0 -0.05 19.0 -0.05 20.0 1.95 20.0 M2.95 22.0 L2.95 23.0 3.95 23.0 3.95 26.0 5.95 26.0 5.95 25.0 4.95 25.0 4.95 22.0 2.95 22.0 M1.95 31.0 L1.95 34.0 -0.05 34.0 -0.05 31.0 -1.05 31.0 -1.05 30.0 0.95 30.0 0.95 31.0 1.95 31.0 M-13.05 13.0 L-13.05 11.0 -12.05 11.0 -12.05 13.0 -13.05 13.0 M-12.05 17.0 L-13.05 17.0 -13.05 19.0 -12.05 19.0 -12.05 17.0 M-17.05 23.0 L-18.05 23.0 -18.05 22.0 -17.05 22.0 -17.05 23.0 M-15.05 24.0 L-15.05 25.0 -16.05 25.0 -16.05 24.0 -15.05 24.0 M-5.05 19.0 L-5.05 20.0 -4.05 20.0 -4.05 19.0 -5.05 19.0 M-1.05 21.0 L-1.05 20.0 -2.05 20.0 -2.05 21.0 -1.05 21.0 -1.05 22.0 -0.05 22.0 -0.05 21.0 -1.05 21.0 M-10.05 23.0 L-9.05 23.0 -9.05 22.0 -10.05 22.0 -10.05 23.0 M-8.05 24.0 L-9.05 24.0 -9.05 25.0 -8.05 25.0 -8.05 24.0 M-7.05 21.0 L-7.05 20.0 -8.05 20.0 -8.05 21.0 -7.05 21.0 M-9.05 16.0 L-10.05 16.0 -10.05 17.0 -9.05 17.0 -9.05 16.0 M-5.05 21.0 L-5.05 22.0 -3.05 22.0 -3.05 21.0 -5.05 21.0 M-3.05 23.0 L-2.05 23.0 -2.05 22.0 -3.05 22.0 -3.05 23.0 M-1.05 27.0 L-1.05 26.0 -3.05 26.0 -3.05 27.0 -1.05 27.0 M-7.05 25.0 L-7.05 26.0 -6.05 26.0 -6.05 25.0 -7.05 25.0 M-12.05 30.0 L-12.05 29.0 -11.05 29.0 -11.05 28.0 -9.05 28.0 -9.05 29.0 -10.05 29.0 -10.05 31.0 -9.05 31.0 -9.05 33.0 -11.05 33.0 -11.05 31.0 -11.05 30.0 -12.05 30.0" fill="#c5c5c5" fill-rule="evenodd" stroke="none"/>
    <path d="M-6.05 12.0 L-7.05 12.0 -7.05 11.0 -6.05 11.0 -6.05 12.0 M-11.05 13.0 L-11.05 14.0 -13.05 14.0 -13.05 15.0 -14.05 15.0 -14.05 14.0 -14.05 13.0 -13.05 13.0 -12.05 13.0 -11.05 13.0 M-17.05 20.0 L-16.05 20.0 -16.05 19.0 -15.05 19.0 -15.05 20.0 -16.05 20.0 -16.05 21.0 -17.05 21.0 -17.05 20.0 M-15.05 17.0 L-14.05 17.0 -14.05 18.0 -15.05 18.0 -15.05 17.0 M-17.05 22.0 L-16.05 22.0 -16.05 23.0 -17.05 23.0 -17.05 22.0 M-12.05 21.0 L-12.05 20.0 -11.05 20.0 -11.05 21.0 -12.05 21.0 M-14.05 24.0 L-13.05 24.0 -13.05 25.0 -15.05 25.0 -15.05 24.0 -14.05 24.0 M-10.05 27.0 L-10.05 26.0 -9.05 26.0 -9.05 27.0 -10.05 27.0 M-7.05 28.0 L-6.05 28.0 -6.05 27.0 -5.05 27.0 -5.05 28.0 -6.05 28.0 -6.05 29.0 -7.05 29.0 -7.05 28.0 M-1.05 29.0 L-1.05 28.0 -0.05 28.0 -0.05 27.0 0.95 27.0 0.95 28.0 -0.05 28.0 -0.05 29.0 -1.05 29.0 M5.95 29.0 L5.95 28.0 6.95 28.0 6.95 29.0 5.95 29.0 M9.95 22.0 L8.95 22.0 8.95 21.0 9.95 21.0 9.95 22.0 M2.95 22.0 L4.95 22.0 4.95 25.0 5.95 25.0 5.95 26.0 3.95 26.0 3.95 23.0 2.95 23.0 2.95 22.0 M1.95 20.0 L-0.05 20.0 -0.05 19.0 1.95 19.0 1.95 20.0 M4.95 19.0 L4.95 18.0 5.95 18.0 5.95 19.0 4.95 19.0 M-9.05 16.0 L-9.05 17.0 -10.05 17.0 -10.05 16.0 -9.05 16.0 M-7.05 21.0 L-8.05 21.0 -8.05 20.0 -7.05 20.0 -7.05 21.0 M-8.05 24.0 L-8.05 25.0 -9.05 25.0 -9.05 24.0 -8.05 24.0 M-10.05 23.0 L-10.05 22.0 -9.05 22.0 -9.05 23.0 -10.05 23.0 M-1.05 21.0 L-0.05 21.0 -0.05 22.0 -1.05 22.0 -1.05 21.0 -2.05 21.0 -2.05 20.0 -1.05 20.0 -1.05 21.0 M-5.05 19.0 L-4.05 19.0 -4.05 20.0 -5.05 20.0 -5.05 19.0 M-3.05 23.0 L-3.05 22.0 -2.05 22.0 -2.05 23.0 -3.05 23.0 M-5.05 21.0 L-3.05 21.0 -3.05 22.0 -5.05 22.0 -5.05 21.0 M-1.05 27.0 L-3.05 27.0 -3.05 26.0 -1.05 26.0 -1.05 27.0 M-7.05 25.0 L-6.05 25.0 -6.05 26.0 -7.05 26.0 -7.05 25.0 M-12.05 30.0 L-11.05 30.0 -11.05 31.0 -12.05 31.0 -12.05 30.0" fill="#c4c4c4" fill-rule="evenodd" stroke="none"/>
    <path d="M-19.05 21.0 L-21.05 21.0 -21.05 20.0 -19.05 20.0 -19.05 21.0" fill="#ffffff" fill-rule="evenodd" stroke="none"/>
    <path d="M-21.05 26.0 L-21.05 25.0 -20.05 25.0 -20.05 26.0 -21.05 26.0" fill="#606060" fill-rule="evenodd" stroke="none"/>
    <path d="M-21.05 24.0 L-17.05 24.0 -17.05 25.0 -18.05 25.0 -18.05 27.0 -19.05 27.0 -19.05 28.0 -21.05 28.0 -21.05 27.0 -22.05 27.0 -22.05 26.0 -21.05 26.0 -20.05 26.0 -20.05 25.0 -21.05 25.0 -21.05 24.0" fill="#616161" fill-rule="evenodd" stroke="none"/>
  </g>
</svg>
