<?xml version="1.0" encoding="UTF-8" standalone="no"?>
<svg xmlns:ffdec="https://www.free-decompiler.com/flash" xmlns:xlink="http://www.w3.org/1999/xlink" ffdec:objectType="shape" height="35.0px" width="33.0px" xmlns="http://www.w3.org/2000/svg">
  <g transform="matrix(1.0, 0.0, 0.0, 1.0, 15.5, 12.5)">
    <path d="M7.5 -5.5 L7.5 -6.5 8.5 -6.5 8.5 -5.5 7.5 -5.5 7.5 -4.5 6.5 -4.5 6.5 -2.5 5.5 -2.5 5.5 -3.5 5.5 -4.5 5.5 -5.5 7.5 -5.5 M6.5 -1.5 L6.5 0.5 7.5 0.5 7.5 1.5 6.5 1.5 6.5 2.5 4.5 2.5 4.5 3.5 3.5 3.5 3.5 5.5 0.5 5.5 0.5 4.5 -0.5 4.5 -0.5 3.5 -1.5 3.5 -1.5 2.5 -2.5 2.5 -3.5 2.5 -3.5 -2.5 -5.5 -2.5 -5.5 -3.5 -6.5 -3.5 -6.5 -5.5 -4.5 -5.5 -4.5 -4.5 -3.5 -4.5 -2.5 -4.5 -2.5 -5.5 -1.5 -5.5 -1.5 -6.5 1.5 -6.5 1.5 -5.5 2.5 -5.5 2.5 -4.5 4.5 -4.5 4.5 -3.5 3.5 -3.5 3.5 -2.5 4.5 -2.5 5.5 -2.5 5.5 -1.5 6.5 -1.5 M2.5 -2.5 L1.5 -2.5 1.5 -1.5 2.5 -1.5 2.5 -2.5 M4.5 0.5 L4.5 -0.5 3.5 -0.5 3.5 0.5 4.5 0.5 M1.5 -5.5 L0.5 -5.5 0.5 -4.5 1.5 -4.5 1.5 -5.5 M4.5 2.5 L4.5 1.5 3.5 1.5 3.5 2.5 4.5 2.5 M2.5 2.5 L1.5 2.5 1.5 4.5 2.5 4.5 2.5 2.5 M-2.5 3.5 L-2.5 4.5 -3.5 4.5 -3.5 5.5 -5.5 5.5 -5.5 3.5 -4.5 3.5 -3.5 3.5 -2.5 3.5 M1.5 1.5 L1.5 -0.5 0.5 -0.5 0.5 0.5 -0.5 0.5 -0.5 1.5 1.5 1.5 M7.5 3.5 L6.5 3.5 6.5 2.5 7.5 2.5 7.5 3.5 8.5 3.5 8.5 4.5 7.5 4.5 7.5 3.5 M16.5 12.5 L15.5 12.5 15.5 11.5 16.5 11.5 16.5 12.5 M-13.5 -11.5 L-13.5 -10.5 -14.5 -10.5 -14.5 -11.5 -13.5 -11.5 M-3.5 -3.5 L-3.5 -2.5 -2.5 -2.5 -2.5 -3.5 -3.5 -3.5 M-2.5 -3.5 L-1.5 -3.5 -1.5 -4.5 -2.5 -4.5 -2.5 -3.5 M-0.5 -3.5 L-0.5 -2.5 0.5 -2.5 0.5 -3.5 -0.5 -3.5 M-1.5 -0.5 L-1.5 -1.5 -2.5 -1.5 -2.5 -0.5 -1.5 -0.5 M-7.5 21.5 L-8.5 21.5 -8.5 20.5 -7.5 20.5 -7.5 21.5" fill="#c0c0c0" fill-rule="evenodd" stroke="none"/>
    <path d="M7.5 -5.5 L8.5 -5.5 8.5 -6.5 7.5 -6.5 7.5 -5.5 5.5 -5.5 5.5 -6.5 7.5 -6.5 7.5 -7.5 8.5 -7.5 8.5 -6.5 9.5 -6.5 9.5 -4.5 7.5 -4.5 7.5 -5.5 M6.5 -2.5 L6.5 -4.5 7.5 -4.5 7.5 0.5 8.5 0.5 8.5 2.5 9.5 2.5 9.5 5.5 7.5 5.5 7.5 4.5 6.5 4.5 6.5 3.5 4.5 3.5 4.5 5.5 3.5 5.5 3.5 6.5 0.5 6.5 0.5 5.5 -0.5 5.5 -0.5 4.5 -2.5 4.5 -2.5 5.5 -3.5 5.5 -3.5 6.5 -5.5 6.5 -5.5 5.5 -6.5 5.5 -6.5 3.5 -5.5 3.5 -5.5 2.5 -4.5 2.5 -4.5 -1.5 -5.5 -1.5 -5.5 -2.5 -6.5 -2.5 -6.5 -3.5 -7.5 -3.5 -7.5 -5.5 -6.5 -5.5 -6.5 -6.5 -3.5 -6.5 -3.5 -5.5 -2.5 -5.5 -2.5 -6.5 -1.5 -6.5 -1.5 -7.5 1.5 -7.5 1.5 -6.5 3.5 -6.5 3.5 -5.5 5.5 -5.5 5.5 -4.5 4.5 -4.5 2.5 -4.5 2.5 -5.5 1.5 -5.5 1.5 -6.5 -1.5 -6.5 -1.5 -5.5 -2.5 -5.5 -2.5 -4.5 -3.5 -4.5 -3.5 -5.5 -4.5 -5.5 -6.5 -5.5 -6.5 -3.5 -5.5 -3.5 -5.5 -2.5 -3.5 -2.5 -3.5 2.5 -4.5 2.5 -4.5 3.5 -5.5 3.5 -5.5 5.5 -3.5 5.5 -3.5 4.5 -2.5 4.5 -2.5 3.5 -1.5 3.5 -0.5 3.5 -0.5 4.5 0.5 4.5 0.5 5.5 3.5 5.5 3.5 3.5 4.5 3.5 4.5 2.5 6.5 2.5 6.5 3.5 7.5 3.5 7.5 4.5 8.5 4.5 8.5 3.5 8.5 2.5 7.5 2.5 7.5 1.5 7.5 0.5 6.5 0.5 6.5 -1.5 6.5 -2.5 M16.5 12.5 L16.5 13.5 14.5 13.5 14.5 11.5 15.5 11.5 15.5 12.5 16.5 12.5 16.5 11.5 15.5 11.5 15.5 10.5 17.5 10.5 17.5 12.5 16.5 12.5 M-13.5 -11.5 L-14.5 -11.5 -14.5 -10.5 -15.5 -10.5 -15.5 -12.5 -13.5 -12.5 -13.5 -11.5 M-8.5 21.5 L-7.5 21.5 -7.5 22.5 -8.5 22.5 -8.5 21.5" fill="#000000" fill-rule="evenodd" stroke="none"/>
    <path d="M6.5 -2.5 L6.5 -1.5 5.5 -1.5 5.5 -2.5 6.5 -2.5 M5.5 -4.5 L5.5 -3.5 4.5 -3.5 4.5 -4.5 5.5 -4.5 M2.5 -2.5 L2.5 -1.5 1.5 -1.5 1.5 -2.5 2.5 -2.5 M1.5 -5.5 L1.5 -4.5 0.5 -4.5 0.5 -5.5 1.5 -5.5 M4.5 0.5 L3.5 0.5 3.5 -0.5 4.5 -0.5 4.5 0.5 M6.5 2.5 L6.5 1.5 7.5 1.5 7.5 2.5 6.5 2.5 M-1.5 3.5 L-2.5 3.5 -2.5 2.5 -1.5 2.5 -1.5 3.5 M-4.5 3.5 L-4.5 2.5 -3.5 2.5 -3.5 3.5 -4.5 3.5 M-0.5 -3.5 L0.5 -3.5 0.5 -2.5 -0.5 -2.5 -0.5 -3.5 M-1.5 -0.5 L-2.5 -0.5 -2.5 -1.5 -1.5 -1.5 -1.5 -0.5" fill="#ffffff" fill-rule="evenodd" stroke="none"/>
    <path d="M4.5 -2.5 L3.5 -2.5 3.5 -3.5 4.5 -3.5 4.5 -2.5 M2.5 2.5 L2.5 4.5 1.5 4.5 1.5 2.5 2.5 2.5 M4.5 2.5 L3.5 2.5 3.5 1.5 4.5 1.5 4.5 2.5 M-4.5 -5.5 L-3.5 -5.5 -3.5 -4.5 -4.5 -4.5 -4.5 -5.5 M1.5 1.5 L-0.5 1.5 -0.5 0.5 0.5 0.5 0.5 -0.5 1.5 -0.5 1.5 1.5 M7.5 3.5 L7.5 2.5 8.5 2.5 8.5 3.5 7.5 3.5 M-3.5 -3.5 L-2.5 -3.5 -2.5 -2.5 -3.5 -2.5 -3.5 -3.5" fill="#808080" fill-rule="evenodd" stroke="none"/>
    <path d="M5.5 -3.5 L5.5 -2.5 4.5 -2.5 4.5 -3.5 5.5 -3.5 M-3.5 3.5 L-3.5 2.5 -2.5 2.5 -2.5 3.5 -3.5 3.5" fill="#404040" fill-rule="evenodd" stroke="none"/>
    <path d="M-2.5 -3.5 L-2.5 -4.5 -1.5 -4.5 -1.5 -3.5 -2.5 -3.5" fill="#90713a" fill-rule="evenodd" stroke="none"/>
  </g>
</svg>
