<?xml version="1.0" encoding="UTF-8" standalone="no"?>
<svg xmlns:ffdec="https://www.free-decompiler.com/flash" xmlns:xlink="http://www.w3.org/1999/xlink" ffdec:objectType="shape" height="10.5px" width="11.0px" xmlns="http://www.w3.org/2000/svg">
  <g transform="matrix(1.0, 0.0, 0.0, 1.0, 5.0, 3.55)">
    <path d="M5.0 -2.55 L5.0 -1.55 6.0 -1.55 6.0 1.45 5.0 1.45 5.0 2.45 4.0 2.45 4.0 4.45 2.0 4.45 2.0 5.45 1.0 5.45 1.0 2.45 0.0 2.45 0.0 3.45 -1.0 3.45 -1.0 2.45 -2.0 2.45 -2.0 1.45 -3.0 1.45 -3.0 0.45 -2.0 0.45 -2.0 -1.55 -1.0 -1.55 -1.0 -2.55 0.0 -2.55 0.0 -3.55 3.0 -3.55 3.0 -2.55 5.0 -2.55 M5.0 0.45 L5.0 -0.55 5.0 -1.55 3.0 -1.55 3.0 -2.55 0.0 -2.55 0.0 -1.55 -1.0 -1.55 -1.0 0.45 -2.0 0.45 -2.0 1.45 -1.0 1.45 -1.0 2.45 0.0 2.45 0.0 1.45 1.0 1.45 1.0 2.45 2.0 2.45 2.0 3.45 3.0 3.45 3.0 2.45 3.0 1.45 4.0 1.45 5.0 1.45 5.0 0.45 M-5.0 5.95 L-4.0 5.95 -4.0 6.95 -5.0 6.95 -5.0 5.95" fill="#000000" fill-rule="evenodd" stroke="none"/>
    <path d="M5.0 0.45 L4.0 0.45 4.0 -0.55 5.0 -0.55 5.0 0.45 M4.0 0.45 L4.0 1.45 3.0 1.45 3.0 0.45 4.0 0.45 M1.0 -0.55 L1.0 0.45 0.0 0.45 0.0 -0.55 1.0 -0.55 M3.0 -1.55 L3.0 -0.55 2.0 -0.55 2.0 -1.55 3.0 -1.55" fill="#ffffff" fill-rule="evenodd" stroke="none"/>
    <path d="M5.0 -0.55 L4.0 -0.55 4.0 0.45 3.0 0.45 3.0 1.45 2.0 1.45 2.0 2.45 1.0 2.45 1.0 1.45 0.0 1.45 0.0 2.45 -1.0 2.45 -1.0 1.45 -2.0 1.45 -2.0 0.45 -1.0 0.45 -1.0 -1.55 0.0 -1.55 0.0 -2.55 3.0 -2.55 3.0 -1.55 5.0 -1.55 5.0 -0.55 M2.0 0.45 L2.0 -0.55 1.0 -0.55 0.0 -0.55 0.0 0.45 1.0 0.45 1.0 1.45 2.0 1.45 2.0 0.45 M3.0 -1.55 L2.0 -1.55 2.0 -0.55 3.0 -0.55 3.0 -1.55" fill="#c0c0c0" fill-rule="evenodd" stroke="none"/>
    <path d="M4.0 0.45 L5.0 0.45 5.0 1.45 4.0 1.45 4.0 0.45 M2.0 0.45 L1.0 0.45 1.0 -0.55 2.0 -0.55 2.0 0.45 M2.0 2.45 L2.0 1.45 3.0 1.45 3.0 2.45 2.0 2.45" fill="#404040" fill-rule="evenodd" stroke="none"/>
    <path d="M1.0 0.45 L2.0 0.45 2.0 1.45 1.0 1.45 1.0 0.45 M3.0 2.45 L3.0 3.45 2.0 3.45 2.0 2.45 3.0 2.45" fill="#808080" fill-rule="evenodd" stroke="none"/>
  </g>
</svg>
