<?xml version="1.0" encoding="UTF-8" standalone="no"?>
<svg xmlns:ffdec="https://www.free-decompiler.com/flash" xmlns:xlink="http://www.w3.org/1999/xlink" ffdec:objectType="shape" height="17.0px" width="25.8px" xmlns="http://www.w3.org/2000/svg">
  <g transform="matrix(1.0, 0.0, 0.0, 1.0, 0.0, -14.0)">
    <path d="M25.8 19.0 L25.0 19.0 25.0 20.0 25.8 20.0 25.8 21.0 24.0 21.0 24.0 20.0 22.0 20.0 22.0 21.0 23.0 21.0 23.0 22.0 22.0 22.0 22.0 23.0 21.0 23.0 21.0 20.0 22.0 20.0 22.0 19.0 24.0 19.0 24.0 18.0 25.8 18.0 25.8 19.0 M23.0 22.0 L25.0 22.0 25.0 23.0 25.8 23.0 25.8 28.0 25.0 28.0 25.0 23.0 24.0 23.0 24.0 24.0 23.0 24.0 23.0 22.0 M23.0 24.0 L23.0 26.0 22.0 26.0 22.0 28.0 21.0 28.0 21.0 29.0 16.0 29.0 16.0 30.0 14.0 30.0 14.0 29.0 11.0 29.0 11.0 25.0 10.0 25.0 10.0 24.0 9.0 24.0 9.0 23.0 8.0 23.0 8.0 22.0 6.0 22.0 6.0 23.0 4.0 23.0 4.0 22.0 3.0 22.0 3.0 21.0 2.0 21.0 2.0 20.0 1.0 20.0 1.0 19.0 0.0 19.0 0.0 18.0 1.0 18.0 1.0 17.0 2.0 17.0 2.0 16.0 3.0 16.0 3.0 15.0 4.0 15.0 4.0 14.0 5.0 14.0 5.0 15.0 6.0 15.0 6.0 16.0 7.0 16.0 7.0 17.0 8.0 17.0 8.0 18.0 9.0 18.0 9.0 20.0 8.0 20.0 8.0 21.0 9.0 21.0 9.0 22.0 10.0 22.0 10.0 23.0 11.0 23.0 11.0 24.0 12.0 24.0 12.0 25.0 13.0 25.0 13.0 24.0 15.0 24.0 15.0 25.0 16.0 25.0 16.0 26.0 19.0 26.0 19.0 25.0 20.0 25.0 20.0 23.0 21.0 23.0 21.0 25.0 20.0 25.0 20.0 27.0 16.0 27.0 16.0 28.0 21.0 28.0 21.0 26.0 22.0 26.0 22.0 24.0 23.0 24.0 M6.0 22.0 L6.0 21.0 7.0 21.0 7.0 20.0 8.0 20.0 8.0 19.0 7.0 19.0 7.0 18.0 6.0 18.0 6.0 17.0 5.0 17.0 5.0 16.0 4.0 16.0 4.0 17.0 3.0 17.0 3.0 18.0 2.0 18.0 2.0 19.0 3.0 19.0 3.0 20.0 4.0 20.0 4.0 21.0 5.0 21.0 5.0 22.0 6.0 22.0 M4.0 17.0 L5.0 17.0 5.0 18.0 6.0 18.0 6.0 19.0 7.0 19.0 7.0 20.0 6.0 20.0 6.0 21.0 5.0 21.0 5.0 20.0 4.0 20.0 4.0 19.0 3.0 19.0 3.0 18.0 4.0 18.0 4.0 17.0 M4.0 18.0 L4.0 19.0 5.0 19.0 5.0 20.0 6.0 20.0 6.0 19.0 5.0 19.0 5.0 18.0 4.0 18.0 M16.0 26.0 L15.0 26.0 15.0 25.0 13.0 25.0 13.0 27.0 12.0 27.0 12.0 28.0 15.0 28.0 15.0 27.0 16.0 27.0 16.0 26.0 M25.8 30.0 L25.8 31.0 23.0 31.0 23.0 30.0 24.0 30.0 24.0 28.0 25.0 28.0 25.0 30.0 25.8 30.0" fill="#000000" fill-rule="evenodd" stroke="none"/>
    <path d="M25.8 20.0 L25.0 20.0 25.0 19.0 25.8 19.0 25.8 20.0 M21.0 23.0 L22.0 23.0 22.0 22.0 23.0 22.0 23.0 24.0 22.0 24.0 22.0 26.0 21.0 26.0 21.0 28.0 16.0 28.0 16.0 27.0 20.0 27.0 20.0 25.0 21.0 25.0 21.0 23.0 M16.0 26.0 L16.0 27.0 15.0 27.0 15.0 28.0 12.0 28.0 12.0 27.0 13.0 27.0 13.0 25.0 15.0 25.0 15.0 26.0 16.0 26.0" fill="#ffffff" fill-rule="evenodd" stroke="none"/>
    <path d="M22.0 20.0 L24.0 20.0 24.0 21.0 25.8 21.0 25.8 23.0 25.0 23.0 25.0 22.0 23.0 22.0 23.0 21.0 22.0 21.0 22.0 20.0 M25.0 28.0 L25.8 28.0 25.8 30.0 25.0 30.0 25.0 28.0" fill="#656565" fill-rule="evenodd" stroke="none"/>
  </g>
</svg>
