<?xml version="1.0" encoding="UTF-8" standalone="no"?>
<svg xmlns:ffdec="https://www.free-decompiler.com/flash" xmlns:xlink="http://www.w3.org/1999/xlink" ffdec:objectType="shape" height="31.0px" width="17.7px" xmlns="http://www.w3.org/2000/svg">
  <g transform="matrix(1.0, 0.0, 0.0, 1.0, -9.0, 0.0)">
    <path d="M26.7 19.0 L25.0 19.0 25.0 20.0 26.7 20.0 26.7 22.0 26.0 22.0 26.0 21.0 24.0 21.0 24.0 20.0 22.0 20.0 18.0 20.0 18.0 19.0 23.0 19.0 23.0 18.0 26.7 18.0 26.7 19.0 M22.0 21.0 L23.0 21.0 23.0 22.0 25.0 22.0 25.0 23.0 26.0 23.0 26.0 28.0 25.0 28.0 25.0 30.0 26.7 30.0 26.7 31.0 23.0 31.0 23.0 30.0 24.0 30.0 24.0 28.0 25.0 28.0 25.0 23.0 23.0 23.0 23.0 22.0 17.0 22.0 17.0 21.0 16.0 21.0 16.0 20.0 15.0 20.0 15.0 19.0 14.0 19.0 14.0 18.0 11.0 18.0 11.0 17.0 10.0 17.0 10.0 14.0 11.0 14.0 11.0 13.0 12.0 13.0 12.0 7.0 9.0 7.0 9.0 0.0 16.0 0.0 16.0 7.0 13.0 7.0 13.0 13.0 14.0 13.0 14.0 14.0 15.0 14.0 15.0 16.0 16.0 16.0 16.0 17.0 17.0 17.0 17.0 18.0 18.0 18.0 18.0 19.0 17.0 19.0 17.0 18.0 16.0 18.0 16.0 17.0 15.0 17.0 15.0 16.0 14.0 16.0 14.0 14.0 11.0 14.0 11.0 17.0 14.0 17.0 14.0 18.0 15.0 18.0 15.0 19.0 16.0 19.0 16.0 20.0 17.0 20.0 17.0 21.0 22.0 21.0 M12.0 3.0 L12.0 4.0 13.0 4.0 13.0 3.0 12.0 3.0 M11.0 4.0 L11.0 3.0 10.0 3.0 10.0 4.0 11.0 4.0 M14.0 5.0 L14.0 6.0 15.0 6.0 15.0 5.0 14.0 5.0 M12.0 5.0 L12.0 6.0 13.0 6.0 13.0 5.0 12.0 5.0 M11.0 6.0 L11.0 5.0 10.0 5.0 10.0 6.0 11.0 6.0 M11.0 2.0 L11.0 1.0 10.0 1.0 10.0 2.0 11.0 2.0 M15.0 3.0 L14.0 3.0 14.0 4.0 15.0 4.0 15.0 3.0 M14.0 2.0 L15.0 2.0 15.0 1.0 14.0 1.0 14.0 2.0 M13.0 2.0 L13.0 1.0 12.0 1.0 12.0 2.0 13.0 2.0" fill="#000000" fill-rule="evenodd" stroke="none"/>
    <path d="M26.7 20.0 L25.0 20.0 25.0 19.0 26.7 19.0 26.7 20.0 M18.0 19.0 L18.0 20.0 22.0 20.0 22.0 21.0 17.0 21.0 17.0 20.0 16.0 20.0 16.0 19.0 15.0 19.0 15.0 18.0 14.0 18.0 14.0 17.0 11.0 17.0 11.0 14.0 14.0 14.0 14.0 16.0 15.0 16.0 15.0 17.0 16.0 17.0 16.0 18.0 17.0 18.0 17.0 19.0 18.0 19.0" fill="#ffffff" fill-rule="evenodd" stroke="none"/>
    <path d="M22.0 20.0 L24.0 20.0 24.0 21.0 26.0 21.0 26.0 22.0 26.7 22.0 26.7 30.0 25.0 30.0 25.0 28.0 26.0 28.0 26.0 23.0 25.0 23.0 25.0 22.0 23.0 22.0 23.0 21.0 22.0 21.0 22.0 20.0" fill="#656565" fill-rule="evenodd" stroke="none"/>
  </g>
</svg>
