<?xml version="1.0" encoding="UTF-8" standalone="no"?>
<svg xmlns:ffdec="https://www.free-decompiler.com/flash" xmlns:xlink="http://www.w3.org/1999/xlink" ffdec:objectType="shape" height="24.0px" width="15.0px" xmlns="http://www.w3.org/2000/svg">
  <g transform="matrix(1.0, 0.0, 0.0, 1.0, -0.55, -8.6)">
    <path d="M12.55 11.6 L11.55 11.6 11.55 10.6 12.55 10.6 12.55 11.6 13.55 11.6 13.55 13.6 14.55 13.6 14.55 15.6 15.55 15.6 15.55 17.6 14.55 17.6 14.55 18.6 13.55 18.6 13.55 19.6 12.55 19.6 12.55 20.6 11.55 20.6 11.55 24.6 10.55 24.6 10.55 25.6 9.55 25.6 9.55 32.6 8.55 32.6 8.55 25.6 9.55 25.6 9.55 24.6 10.55 24.6 10.55 21.55 9.55 21.55 9.55 18.6 8.55 18.6 8.55 19.6 7.55 19.6 7.55 18.6 6.55 18.6 6.55 19.6 7.55 19.6 7.55 21.6 6.55 21.6 6.6 25.6 5.55 25.6 5.55 21.6 0.55 21.6 0.55 18.6 1.55 18.6 1.55 16.6 2.55 16.6 2.55 14.6 4.55 14.6 5.55 14.6 5.55 13.6 5.55 12.6 6.55 12.6 6.55 11.6 6.55 10.6 7.55 10.6 7.55 9.6 7.55 8.6 10.55 8.6 10.55 9.6 8.55 9.6 8.55 10.6 7.55 10.6 7.55 11.6 9.55 11.6 9.55 12.6 11.55 12.6 11.55 14.6 12.55 14.6 12.55 17.6 11.55 17.6 11.55 18.6 10.55 18.6 10.55 20.6 11.55 20.6 11.55 19.6 12.55 19.6 12.55 18.6 13.55 18.6 13.55 17.6 14.55 17.6 14.55 15.6 13.55 15.6 13.55 13.6 12.55 13.6 12.55 11.6 M10.55 9.6 L11.55 9.6 11.55 10.6 10.55 10.6 10.55 9.6 M1.55 32.6 L0.55 32.6 0.55 31.6 1.55 31.6 1.55 30.6 2.55 30.6 2.55 29.6 3.55 29.6 3.55 27.6 4.55 27.6 4.55 25.6 5.55 25.6 5.55 27.6 4.55 27.6 4.55 29.6 3.55 29.6 3.55 30.6 2.55 30.6 2.55 31.6 1.55 31.6 1.55 32.6 M4.55 20.6 L4.55 19.6 3.55 19.6 3.55 20.6 4.55 20.6 M2.55 20.6 L2.55 19.6 1.55 19.6 1.55 20.6 2.55 20.6 M4.55 16.6 L4.55 15.6 3.55 15.6 3.55 16.6 4.55 16.6 M3.55 17.6 L2.55 17.6 2.55 18.6 3.55 18.6 3.55 17.6 M5.55 16.6 L6.55 16.6 6.55 15.6 5.55 15.6 5.55 16.6 M9.55 12.6 L7.55 12.6 7.55 13.6 6.55 13.6 6.55 14.6 7.55 14.6 7.55 16.6 9.55 16.6 9.55 17.6 11.55 17.6 11.55 14.6 10.55 14.6 10.55 13.6 9.55 13.6 9.55 12.6 M5.55 18.6 L5.55 17.6 4.55 17.6 4.55 18.6 5.55 18.6" fill="#000000" fill-rule="evenodd" stroke="none"/>
    <path d="M11.55 10.6 L11.55 11.6 12.55 11.6 12.55 13.6 13.55 13.6 13.55 15.6 14.55 15.6 14.55 17.6 13.55 17.6 13.55 18.6 12.55 18.6 12.55 19.6 11.55 19.6 11.55 20.6 10.55 20.6 10.55 18.6 11.55 18.6 11.55 17.6 12.55 17.6 12.55 14.6 11.55 14.6 11.55 12.6 9.55 12.6 9.55 11.6 7.55 11.6 7.55 10.6 8.55 10.6 8.55 9.6 10.55 9.6 10.55 10.6 11.55 10.6 M7.55 19.6 L6.55 19.6 6.55 18.6 7.55 18.6 7.55 19.6" fill="#ffffff" fill-rule="evenodd" stroke="none"/>
    <path d="M5.55 11.6 L5.55 10.6 6.55 10.6 6.55 11.6 5.55 11.6 M6.55 9.6 L6.55 8.6 7.55 8.6 7.55 9.6 6.55 9.6" fill="#90713a" fill-rule="evenodd" stroke="none"/>
    <path d="M4.55 13.6 L4.55 12.6 5.55 12.6 5.55 13.6 4.55 13.6 M6.55 10.6 L6.55 9.6 7.55 9.6 7.55 10.6 6.55 10.6" fill="#808080" fill-rule="evenodd" stroke="none"/>
    <path d="M4.55 14.6 L4.55 13.6 5.55 13.6 5.55 14.6 4.55 14.6 M5.55 12.6 L5.55 11.6 6.55 11.6 6.55 12.6 5.55 12.6" fill="#404040" fill-rule="evenodd" stroke="none"/>
    <path d="M8.55 32.6 L1.55 32.6 1.55 31.6 2.55 31.6 2.55 30.6 3.55 30.6 3.55 29.6 4.55 29.6 4.55 27.6 5.55 27.6 5.55 25.6 6.6 25.6 6.55 21.6 7.55 21.6 7.55 19.6 8.55 19.6 8.55 18.6 9.55 18.6 9.55 21.55 10.55 21.55 10.55 24.6 9.55 24.6 9.55 25.6 8.55 25.6 8.55 32.6" fill="#656565" fill-rule="evenodd" stroke="none"/>
  </g>
</svg>
