<?xml version="1.0" encoding="UTF-8" standalone="no"?>
<svg xmlns:ffdec="https://www.free-decompiler.com/flash" xmlns:xlink="http://www.w3.org/1999/xlink" ffdec:objectType="shape" height="6.0px" width="13.0px" xmlns="http://www.w3.org/2000/svg">
  <g transform="matrix(1.0, 0.0, 0.0, 1.0, 6.0, -4.0)">
    <path d="M4.0 7.0 L4.0 5.0 -2.0 5.0 -2.0 6.0 -3.0 6.0 -3.0 7.0 -4.0 7.0 -4.0 8.0 -5.0 8.0 -5.0 9.0 6.0 9.0 6.0 8.0 5.0 8.0 5.0 7.0 4.0 7.0 M7.0 10.0 L-6.0 10.0 -6.0 8.0 -5.0 8.0 -5.0 7.0 -4.0 7.0 -4.0 5.0 -2.0 5.0 -2.0 4.0 5.0 4.0 5.0 7.0 6.0 7.0 6.0 8.0 7.0 8.0 7.0 10.0" fill="#000000" fill-rule="evenodd" stroke="none"/>
    <path d="M4.0 7.0 L5.0 7.0 5.0 8.0 6.0 8.0 6.0 9.0 -5.0 9.0 -5.0 8.0 -4.0 8.0 -4.0 7.0 -3.0 7.0 -3.0 6.0 -2.0 6.0 -2.0 5.0 4.0 5.0 4.0 7.0" fill="#c8cbc8" fill-rule="evenodd" stroke="none"/>
  </g>
</svg>
