<?xml version="1.0" encoding="UTF-8" standalone="no"?>
<svg xmlns:ffdec="https://www.free-decompiler.com/flash" xmlns:xlink="http://www.w3.org/1999/xlink" ffdec:objectType="shape" height="28.0px" width="23.0px" xmlns="http://www.w3.org/2000/svg">
  <g transform="matrix(1.0, 0.0, 0.0, 1.0, -0.55, -4.6)">
    <path d="M19.55 20.6 L19.55 19.6 22.55 19.6 22.55 17.6 19.55 17.6 19.55 16.6 20.55 16.6 20.55 14.6 19.55 14.6 19.55 12.6 18.55 12.6 18.55 10.6 17.55 10.6 17.55 9.6 18.55 9.6 18.55 8.6 17.55 8.6 17.55 7.6 16.55 7.6 16.55 6.6 15.55 6.6 15.55 5.6 16.55 5.6 16.55 4.6 17.55 4.6 17.55 5.6 18.55 5.6 18.55 6.6 19.55 6.6 19.55 7.6 20.55 7.6 20.55 9.6 19.55 9.6 19.55 11.6 20.55 11.6 20.55 13.6 21.55 13.6 21.55 16.6 23.55 16.6 23.55 20.6 19.55 20.6 19.55 21.6 17.55 21.6 17.55 22.6 15.55 22.6 15.55 23.6 14.55 23.6 14.55 22.6 12.55 22.6 12.55 21.6 11.55 21.6 11.55 24.6 10.55 24.6 10.55 25.6 9.55 25.6 9.55 32.6 8.55 32.6 8.55 25.6 9.55 25.6 9.55 24.6 10.55 24.6 10.55 21.55 9.55 21.55 9.55 18.6 8.55 18.6 8.55 19.6 7.55 19.6 7.55 18.6 6.55 18.6 6.55 19.6 7.55 19.6 7.55 21.6 6.55 21.6 6.55 25.6 5.55 25.6 5.55 18.6 6.55 18.6 6.55 16.6 9.55 16.6 9.55 17.6 11.55 17.6 11.55 18.6 13.55 18.6 13.55 19.6 16.55 19.6 16.55 18.6 18.55 18.6 18.55 17.6 19.55 17.6 19.55 18.6 18.55 18.6 18.55 19.6 16.55 19.6 16.55 20.6 13.55 20.6 13.55 19.6 11.55 19.6 11.55 18.6 10.55 18.6 10.55 20.6 12.55 20.6 12.55 21.6 14.55 21.6 14.55 22.6 15.55 22.6 15.55 21.6 17.55 21.6 17.55 20.6 19.55 20.6 M1.55 32.6 L0.55 32.6 0.55 31.6 1.55 31.6 1.55 30.6 2.55 30.6 2.55 29.6 3.55 29.6 3.55 27.6 4.55 27.6 4.55 25.6 5.55 25.6 5.55 27.6 4.55 27.6 4.55 29.6 3.55 29.6 3.55 30.6 2.55 30.6 2.55 31.6 1.55 31.6 1.55 32.6 M14.55 8.6 L15.55 8.6 15.55 7.6 14.55 7.6 14.55 8.6 13.55 8.6 13.55 7.6 14.55 7.6 14.55 6.6 15.55 6.6 15.55 7.6 16.55 7.6 16.55 8.6 15.55 8.6 15.55 9.6 14.55 9.6 14.55 8.6 M16.55 8.6 L17.55 8.6 17.55 9.6 16.55 9.6 16.55 10.6 17.55 10.6 17.55 11.6 16.55 11.6 16.55 10.6 15.55 10.6 15.55 9.6 16.55 9.6 16.55 8.6" fill="#000000" fill-rule="evenodd" stroke="none"/>
    <path d="M19.55 17.6 L22.55 17.6 22.55 19.6 19.55 19.6 19.55 20.6 17.55 20.6 17.55 21.6 15.55 21.6 15.55 22.6 14.55 22.6 14.55 21.6 12.55 21.6 12.55 20.6 10.55 20.6 10.55 18.6 11.55 18.6 11.55 19.6 13.55 19.6 13.55 20.6 16.55 20.6 16.55 19.6 18.55 19.6 18.55 18.6 19.55 18.6 19.55 17.6 M7.55 19.6 L6.55 19.6 6.55 18.6 7.55 18.6 7.55 19.6" fill="#ffffff" fill-rule="evenodd" stroke="none"/>
    <path d="M8.55 32.6 L1.55 32.6 1.55 31.6 2.55 31.6 2.55 30.6 3.55 30.6 3.55 29.6 4.55 29.6 4.55 27.6 5.55 27.6 5.55 25.6 6.55 25.6 6.55 21.6 7.55 21.6 7.55 19.6 8.55 19.6 8.55 18.6 9.55 18.6 9.55 21.55 10.55 21.55 10.55 24.6 9.55 24.6 9.55 25.6 8.55 25.6 8.55 32.6" fill="#656565" fill-rule="evenodd" stroke="none"/>
  </g>
</svg>
