<?xml version="1.0" encoding="UTF-8" standalone="no"?>
<svg xmlns:ffdec="https://www.free-decompiler.com/flash" xmlns:xlink="http://www.w3.org/1999/xlink" ffdec:objectType="shape" height="16.0px" width="32.0px" xmlns="http://www.w3.org/2000/svg">
  <g transform="matrix(1.0, 0.0, 0.0, 1.0, -0.55, -16.6)">
    <path d="M28.55 20.6 L28.55 19.6 29.55 19.6 29.55 20.6 28.55 20.6 28.55 21.6 29.55 21.6 29.55 20.6 30.55 20.6 30.55 19.6 29.55 19.6 29.55 18.6 31.55 18.6 31.55 19.6 32.55 19.6 32.55 22.6 31.55 22.6 31.55 23.6 30.55 23.6 30.55 24.6 27.55 24.6 27.55 25.6 26.55 25.6 26.55 26.6 25.55 26.6 25.55 27.6 23.55 27.6 23.55 28.6 20.55 28.6 20.55 29.6 15.55 29.6 15.55 28.6 14.55 28.6 14.55 27.6 13.55 27.6 13.55 25.6 12.55 25.6 12.55 23.6 11.55 23.6 11.55 24.6 10.55 24.6 10.55 25.6 9.55 25.6 9.55 32.6 8.55 32.6 8.55 25.6 9.55 25.6 9.55 24.6 10.55 24.6 10.55 22.6 9.55 22.6 9.55 18.6 8.55 18.6 8.55 19.6 7.55 19.6 7.55 21.6 6.55 21.6 6.55 25.6 5.55 25.6 5.55 27.6 4.55 27.6 4.55 29.6 3.55 29.6 3.55 30.6 2.55 30.6 2.55 31.6 1.55 31.6 1.55 32.6 0.55 32.6 0.55 31.6 1.55 31.6 1.55 30.6 2.55 30.6 2.55 29.6 3.55 29.6 3.55 27.6 4.55 27.6 4.55 25.6 5.55 25.6 5.55 18.6 6.55 18.6 6.55 16.6 9.55 16.6 9.55 17.6 11.55 17.6 11.55 19.6 12.55 19.6 12.55 20.6 13.55 20.6 13.55 21.6 14.55 21.6 14.55 22.6 15.55 22.6 15.55 24.6 16.55 24.6 16.55 25.6 20.55 25.6 20.55 27.6 22.55 27.6 22.55 26.6 24.55 26.6 24.55 25.6 25.55 25.6 25.55 24.6 26.55 24.6 26.55 21.6 27.55 21.6 27.55 20.6 28.55 20.6 M28.55 22.6 L28.55 23.6 29.55 23.6 29.55 22.6 28.55 22.6 28.55 21.6 27.55 21.6 27.55 22.6 28.55 22.6 M29.55 22.6 L30.55 22.6 30.55 21.6 29.55 21.6 29.55 22.6 M30.55 21.6 L31.55 21.6 31.55 20.6 30.55 20.6 30.55 21.6 M7.55 19.6 L7.55 18.6 6.55 18.6 6.55 19.6 7.55 19.6 M11.55 21.6 L11.55 22.6 12.55 22.6 12.55 23.6 13.55 23.6 13.55 25.6 14.55 25.6 14.55 27.6 15.55 27.6 15.55 28.6 19.55 28.6 19.55 26.6 15.55 26.6 15.55 24.6 14.55 24.6 14.55 22.6 13.55 22.6 13.55 21.6 12.55 21.6 12.55 20.6 11.55 20.6 11.55 19.6 10.55 19.6 10.55 21.6 11.55 21.6" fill="#000000" fill-rule="evenodd" stroke="none"/>
    <path d="M11.55 21.6 L10.55 21.6 10.55 19.6 11.55 19.6 11.55 20.6 12.55 20.6 12.55 21.6 13.55 21.6 13.55 22.6 14.55 22.6 14.55 24.6 15.55 24.6 15.55 26.6 19.55 26.6 19.55 28.6 15.55 28.6 15.55 27.6 14.55 27.6 14.55 25.6 13.55 25.6 13.55 23.6 12.55 23.6 12.55 22.6 11.55 22.6 11.55 21.6 M7.55 19.6 L6.55 19.6 6.55 18.6 7.55 18.6 7.55 19.6" fill="#ffffff" fill-rule="evenodd" stroke="none"/>
    <path d="M8.55 32.6 L1.55 32.6 1.55 31.6 2.55 31.6 2.55 30.6 3.55 30.6 3.55 29.6 4.55 29.6 4.55 27.6 5.55 27.6 5.55 25.6 6.55 25.6 6.55 21.6 7.55 21.6 7.55 19.6 8.55 19.6 8.55 18.6 9.55 18.6 9.55 22.6 10.55 22.6 10.55 24.6 9.55 24.6 9.55 25.6 8.55 25.6 8.55 32.6" fill="#656565" fill-rule="evenodd" stroke="none"/>
  </g>
</svg>
