<?xml version="1.0" encoding="UTF-8" standalone="no"?>
<svg xmlns:ffdec="https://www.free-decompiler.com/flash" xmlns:xlink="http://www.w3.org/1999/xlink" ffdec:objectType="shape" height="11.0px" width="11.0px" xmlns="http://www.w3.org/2000/svg">
  <g transform="matrix(1.0, 0.0, 0.0, 1.0, 0.0, 0.0)">
    <path d="M11.0 11.0 L10.0 11.0 10.0 10.0 9.0 10.0 9.0 9.0 10.0 9.0 10.0 10.0 11.0 10.0 11.0 11.0 M11.0 1.0 L10.0 1.0 10.0 2.0 9.0 2.0 9.0 1.0 10.0 1.0 10.0 0.0 11.0 0.0 11.0 1.0 M1.0 1.0 L0.0 1.0 0.0 0.0 1.0 0.0 1.0 1.0 2.0 1.0 2.0 2.0 1.0 2.0 1.0 1.0 M2.0 9.0 L2.0 10.0 1.0 10.0 1.0 11.0 0.0 11.0 0.0 10.0 1.0 10.0 1.0 9.0 2.0 9.0" fill="#000000" fill-rule="evenodd" stroke="none"/>
  </g>
</svg>
