<?xml version="1.0" encoding="UTF-8" standalone="no"?>
<svg xmlns:ffdec="https://www.free-decompiler.com/flash" xmlns:xlink="http://www.w3.org/1999/xlink" ffdec:objectType="shape" height="9.0px" width="5.0px" xmlns="http://www.w3.org/2000/svg">
  <g transform="matrix(1.0, 0.0, 0.0, 1.0, -6.0, -7.0)">
    <path d="M6.0 8.0 L7.0 8.0 7.0 9.0 6.0 9.0 6.0 8.0 M8.0 11.0 L7.0 11.0 7.0 10.0 8.0 10.0 8.0 11.0" fill="#808080" fill-rule="evenodd" stroke="none"/>
    <path d="M6.0 8.0 L6.0 7.0 7.0 7.0 7.0 8.0 6.0 8.0 M7.0 9.0 L8.0 9.0 8.0 10.0 7.0 10.0 7.0 9.0" fill="#90713a" fill-rule="evenodd" stroke="none"/>
    <path d="M9.0 12.0 L9.0 13.0 10.0 13.0 10.0 14.0 11.0 14.0 11.0 15.0 10.0 15.0 10.0 16.0 9.0 16.0 9.0 15.0 8.0 15.0 8.0 16.0 7.0 16.0 7.0 15.0 6.0 15.0 6.0 14.0 7.0 14.0 7.0 13.0 8.0 13.0 8.0 12.0 9.0 12.0 M7.0 14.0 L7.0 15.0 8.0 15.0 8.0 14.0 7.0 14.0 M10.0 14.0 L9.0 14.0 9.0 15.0 10.0 15.0 10.0 14.0" fill="#000000" fill-rule="evenodd" stroke="none"/>
    <path d="M8.0 10.0 L9.0 10.0 9.0 11.0 8.0 11.0 8.0 10.0" fill="#404040" fill-rule="evenodd" stroke="none"/>
    <path d="M7.0 14.0 L8.0 14.0 8.0 15.0 7.0 15.0 7.0 14.0 M10.0 14.0 L10.0 15.0 9.0 15.0 9.0 14.0 10.0 14.0" fill="#ffffff" fill-rule="evenodd" stroke="none"/>
  </g>
</svg>
