<?xml version="1.0" encoding="UTF-8" standalone="no"?>
<svg xmlns:ffdec="https://www.free-decompiler.com/flash" xmlns:xlink="http://www.w3.org/1999/xlink" ffdec:objectType="shape" height="10.0px" width="5.0px" xmlns="http://www.w3.org/2000/svg">
  <g transform="matrix(1.0, 0.0, 0.0, 1.0, -7.0, -9.0)">
    <path d="M8.0 11.0 L7.0 11.0 7.0 10.0 8.0 10.0 8.0 11.0 9.0 11.0 9.0 12.0 8.0 12.0 8.0 11.0 M10.0 13.0 L10.0 14.0 9.0 14.0 9.0 13.0 10.0 13.0" fill="#808080" fill-rule="evenodd" stroke="none"/>
    <path d="M8.0 11.0 L8.0 10.0 9.0 10.0 9.0 11.0 8.0 11.0" fill="#404040" fill-rule="evenodd" stroke="none"/>
    <path d="M8.0 10.0 L7.0 10.0 7.0 9.0 8.0 9.0 8.0 10.0 M9.0 12.0 L10.0 12.0 10.0 13.0 9.0 13.0 9.0 12.0" fill="#90713a" fill-rule="evenodd" stroke="none"/>
    <path d="M10.0 15.0 L10.0 16.0 11.0 16.0 11.0 17.0 12.0 17.0 12.0 18.0 11.0 18.0 11.0 19.0 10.0 19.0 10.0 18.0 9.0 18.0 9.0 19.0 8.0 19.0 8.0 18.0 7.0 18.0 7.0 17.0 8.0 17.0 8.0 16.0 9.0 16.0 9.0 15.0 10.0 15.0 M10.0 18.0 L11.0 18.0 11.0 17.0 10.0 17.0 10.0 18.0 M8.0 17.0 L8.0 18.0 9.0 18.0 9.0 17.0 8.0 17.0" fill="#000000" fill-rule="evenodd" stroke="none"/>
    <path d="M8.0 17.0 L9.0 17.0 9.0 18.0 8.0 18.0 8.0 17.0 M10.0 18.0 L10.0 17.0 11.0 17.0 11.0 18.0 10.0 18.0" fill="#ffffff" fill-rule="evenodd" stroke="none"/>
  </g>
</svg>
