<?xml version="1.0" encoding="UTF-8" standalone="no"?>
<svg xmlns:ffdec="https://www.free-decompiler.com/flash" xmlns:xlink="http://www.w3.org/1999/xlink" ffdec:objectType="shape" height="12.0px" width="6.0px" xmlns="http://www.w3.org/2000/svg">
  <g transform="matrix(1.0, 0.0, 0.0, 1.0, -4.0, -13.0)">
    <path d="M10.0 14.0 L9.0 14.0 9.0 13.0 10.0 13.0 10.0 14.0 M9.0 18.0 L8.0 18.0 8.0 17.0 9.0 17.0 9.0 18.0 M7.0 20.0 L6.0 20.0 6.0 19.0 7.0 19.0 7.0 20.0" fill="#90713a" fill-rule="evenodd" stroke="none"/>
    <path d="M9.0 14.0 L10.0 14.0 10.0 15.0 9.0 15.0 9.0 14.0 M8.0 18.0 L8.0 19.0 7.0 19.0 7.0 18.0 8.0 18.0 M9.0 16.0 L10.0 16.0 10.0 17.0 9.0 17.0 9.0 16.0" fill="#808080" fill-rule="evenodd" stroke="none"/>
    <path d="M9.0 15.0 L10.0 15.0 10.0 16.0 9.0 16.0 9.0 15.0 M8.0 18.0 L9.0 18.0 9.0 19.0 8.0 19.0 8.0 20.0 7.0 20.0 7.0 19.0 8.0 19.0 8.0 18.0" fill="#404040" fill-rule="evenodd" stroke="none"/>
    <path d="M5.0 23.0 L5.0 22.0 6.0 22.0 6.0 21.0 7.0 21.0 7.0 22.0 8.0 22.0 8.0 23.0 9.0 23.0 9.0 24.0 8.0 24.0 8.0 25.0 7.0 25.0 7.0 24.0 6.0 24.0 6.0 25.0 5.0 25.0 5.0 24.0 4.0 24.0 4.0 23.0 5.0 23.0 5.0 24.0 6.0 24.0 6.0 23.0 5.0 23.0 M7.0 24.0 L8.0 24.0 8.0 23.0 7.0 23.0 7.0 24.0" fill="#000000" fill-rule="evenodd" stroke="none"/>
    <path d="M5.0 23.0 L6.0 23.0 6.0 24.0 5.0 24.0 5.0 23.0 M7.0 24.0 L7.0 23.0 8.0 23.0 8.0 24.0 7.0 24.0" fill="#ffffff" fill-rule="evenodd" stroke="none"/>
  </g>
</svg>
