<?xml version="1.0" encoding="UTF-8" standalone="no"?>
<svg xmlns:ffdec="https://www.free-decompiler.com/flash" xmlns:xlink="http://www.w3.org/1999/xlink" ffdec:objectType="shape" height="15.0px" width="6.0px" xmlns="http://www.w3.org/2000/svg">
  <g transform="matrix(1.0, 0.0, 0.0, 1.0, -4.0, -19.0)">
    <path d="M5.0 22.0 L6.0 22.0 6.0 23.0 5.0 23.0 5.0 22.0 M5.0 24.0 L5.0 25.0 4.0 25.0 4.0 24.0 5.0 24.0 M6.0 28.0 L7.0 28.0 7.0 29.0 6.0 29.0 6.0 28.0 M5.0 28.0 L4.0 28.0 4.0 27.0 5.0 27.0 5.0 28.0 M7.0 20.0 L7.0 21.0 6.0 21.0 6.0 20.0 7.0 20.0" fill="#404040" fill-rule="evenodd" stroke="none"/>
    <path d="M5.0 22.0 L5.0 21.0 6.0 21.0 6.0 22.0 5.0 22.0 M5.0 23.0 L5.0 24.0 4.0 24.0 4.0 23.0 5.0 23.0 M5.0 26.0 L5.0 27.0 4.0 27.0 4.0 26.0 5.0 26.0 M7.0 29.0 L7.0 30.0 6.0 30.0 6.0 29.0 5.0 29.0 5.0 28.0 6.0 28.0 6.0 29.0 7.0 29.0 M6.0 20.0 L6.0 19.0 7.0 19.0 7.0 20.0 6.0 20.0" fill="#808080" fill-rule="evenodd" stroke="none"/>
    <path d="M5.0 25.0 L5.0 26.0 4.0 26.0 4.0 25.0 5.0 25.0 M5.0 27.0 L6.0 27.0 6.0 28.0 5.0 28.0 5.0 27.0 M7.0 19.0 L8.0 19.0 8.0 20.0 7.0 20.0 7.0 19.0" fill="#90713a" fill-rule="evenodd" stroke="none"/>
    <path d="M7.0 30.0 L8.0 30.0 8.0 31.0 9.0 31.0 9.0 32.0 10.0 32.0 10.0 33.0 9.0 33.0 9.0 34.0 8.0 34.0 8.0 33.0 7.0 33.0 7.0 34.0 6.0 34.0 6.0 33.0 5.0 33.0 5.0 32.0 6.0 32.0 6.0 31.0 7.0 31.0 7.0 30.0 M9.0 33.0 L9.0 32.0 8.0 32.0 8.0 33.0 9.0 33.0 M6.0 33.0 L7.0 33.0 7.0 32.0 6.0 32.0 6.0 33.0" fill="#000000" fill-rule="evenodd" stroke="none"/>
    <path d="M6.0 33.0 L6.0 32.0 7.0 32.0 7.0 33.0 6.0 33.0 M9.0 33.0 L8.0 33.0 8.0 32.0 9.0 32.0 9.0 33.0" fill="#ffffff" fill-rule="evenodd" stroke="none"/>
  </g>
</svg>
