<?xml version="1.0" encoding="UTF-8" standalone="no"?>
<svg xmlns:ffdec="https://www.free-decompiler.com/flash" xmlns:xlink="http://www.w3.org/1999/xlink" ffdec:objectType="shape" height="12.0px" width="7.0px" xmlns="http://www.w3.org/2000/svg">
  <g transform="matrix(1.0, 0.0, 0.0, 1.0, -4.0, -26.0)">
    <path d="M8.0 30.0 L7.0 30.0 7.0 29.0 8.0 29.0 8.0 30.0 M4.0 27.0 L4.0 26.0 5.0 26.0 5.0 27.0 4.0 27.0 M8.0 32.0 L9.0 32.0 9.0 33.0 8.0 33.0 8.0 32.0" fill="#90713a" fill-rule="evenodd" stroke="none"/>
    <path d="M7.0 30.0 L8.0 30.0 8.0 31.0 7.0 31.0 7.0 30.0 M5.0 27.0 L6.0 27.0 6.0 28.0 5.0 28.0 5.0 27.0 M10.0 34.0 L10.0 35.0 9.0 35.0 9.0 34.0 10.0 34.0" fill="#808080" fill-rule="evenodd" stroke="none"/>
    <path d="M6.0 28.0 L6.0 29.0 5.0 29.0 5.0 28.0 4.0 28.0 4.0 27.0 5.0 27.0 5.0 28.0 6.0 28.0" fill="#404040" fill-rule="evenodd" stroke="none"/>
    <path d="M10.0 36.0 L10.0 37.0 11.0 37.0 11.0 38.0 8.0 38.0 8.0 37.0 9.0 37.0 9.0 36.0 10.0 36.0" fill="#000000" fill-rule="evenodd" stroke="none"/>
  </g>
</svg>
