<?xml version="1.0" encoding="UTF-8" standalone="no"?>
<svg xmlns:ffdec="https://www.free-decompiler.com/flash" xmlns:xlink="http://www.w3.org/1999/xlink" ffdec:objectType="shape" height="12.0px" width="29.0px" xmlns="http://www.w3.org/2000/svg">
  <g transform="matrix(1.0, 0.0, 0.0, 1.0, 7.0, -5.75)">
    <path d="M-2.0 7.75 L-2.0 8.75 -1.0 8.75 -1.0 9.75 0.0 9.75 0.0 10.75 1.0 10.75 1.0 11.75 2.0 11.75 2.0 12.75 4.0 12.75 4.0 13.75 6.0 13.75 6.0 12.75 7.0 12.75 7.0 11.75 9.0 11.75 9.0 12.75 10.0 12.75 10.0 13.75 12.0 13.75 12.0 12.75 15.0 12.75 15.0 9.75 16.0 9.75 16.0 8.75 17.0 8.75 17.0 7.75 18.0 7.75 18.0 6.75 20.0 6.75 20.0 7.75 21.0 7.75 21.0 9.75 22.0 9.75 22.0 10.75 21.0 10.75 21.0 11.75 20.0 11.75 20.0 12.75 18.0 12.75 18.0 13.75 13.0 13.75 13.0 14.75 11.0 14.75 11.0 17.75 4.0 17.75 4.0 16.75 1.0 16.75 1.0 15.75 -1.0 15.75 -1.0 13.75 -3.0 13.75 -3.0 11.75 -5.0 11.75 -5.0 9.75 -6.0 9.75 -6.0 8.75 -7.0 8.75 -7.0 5.75 -3.0 5.75 -3.0 6.75 -3.0 7.75 -2.0 7.75 M-3.0 7.75 L-4.0 7.75 -4.0 6.75 -6.0 6.75 -6.0 7.75 -5.0 7.75 -5.0 9.75 -4.0 9.75 -4.0 10.75 -3.0 10.75 -3.0 11.75 -2.0 11.75 -2.0 12.75 -1.0 12.75 -1.0 13.75 0.0 13.75 0.0 14.75 2.0 14.75 2.0 15.75 5.0 15.75 5.0 16.75 10.0 16.75 10.0 14.75 8.0 14.75 8.0 12.75 7.0 12.75 7.0 14.75 3.0 14.75 3.0 13.75 1.0 13.75 1.0 12.75 0.0 12.75 0.0 11.75 -1.0 11.75 -1.0 10.75 -2.0 10.75 -2.0 9.75 -3.0 9.75 -3.0 7.75 M16.0 10.75 L16.0 11.75 17.0 11.75 17.0 10.75 16.0 10.75 M18.0 10.75 L18.0 9.75 19.0 9.75 19.0 10.75 18.0 10.75 18.0 11.75 17.0 11.75 17.0 12.75 18.0 12.75 18.0 11.75 19.0 11.75 19.0 10.75 20.0 10.75 20.0 9.75 19.0 9.75 19.0 8.75 18.0 8.75 18.0 9.75 17.0 9.75 17.0 10.75 18.0 10.75" fill="#000000" fill-rule="evenodd" stroke="none"/>
    <path d="M-3.0 7.75 L-3.0 9.75 -2.0 9.75 -2.0 10.75 -1.0 10.75 -1.0 11.75 0.0 11.75 0.0 12.75 1.0 12.75 1.0 13.75 3.0 13.75 3.0 14.75 7.0 14.75 7.0 12.75 8.0 12.75 8.0 14.75 10.0 14.75 10.0 16.75 5.0 16.75 5.0 15.75 2.0 15.75 2.0 14.75 0.0 14.75 0.0 13.75 -1.0 13.75 -1.0 12.75 -2.0 12.75 -2.0 11.75 -3.0 11.75 -3.0 10.75 -4.0 10.75 -4.0 9.75 -5.0 9.75 -5.0 7.75 -6.0 7.75 -6.0 6.75 -4.0 6.75 -4.0 7.75 -3.0 7.75" fill="#ffffff" fill-rule="evenodd" stroke="none"/>
    <path d="M-3.0 6.75 L-2.0 6.75 -2.0 7.75 -3.0 7.75 -3.0 6.75" fill="#656565" fill-rule="evenodd" stroke="none"/>
  </g>
</svg>
