<?xml version="1.0" encoding="UTF-8" standalone="no"?>
<svg xmlns:ffdec="https://www.free-decompiler.com/flash" xmlns:xlink="http://www.w3.org/1999/xlink" ffdec:objectType="shape" height="7.2px" width="14.95px" xmlns="http://www.w3.org/2000/svg">
  <g transform="matrix(1.0, 0.0, 0.0, 1.0, 7.9, 2.2)">
    <path d="M5.0 -2.0 L5.0 -2.2 5.95 -2.2 5.95 -2.0 5.0 -2.0 M7.0 -0.95 L7.05 -0.95 7.05 0.95 7.0 0.95 7.0 -0.95 M6.0 0.95 L5.95 0.95 5.95 1.0 5.0 1.0 5.0 0.0 6.0 0.0 6.0 0.95 M5.95 3.0 L5.95 3.05 6.0 3.05 6.0 4.0 2.0 4.0 2.0 3.05 2.0 0.95 2.0 0.0 3.0 0.0 3.0 2.0 4.0 2.0 4.0 3.0 5.95 3.0 M7.0 3.05 L7.05 3.05 7.05 5.0 6.0 5.0 6.0 4.0 7.0 4.0 7.0 3.05 M2.0 5.0 L1.95 5.0 1.95 4.05 1.05 4.05 1.05 4.0 2.0 4.0 2.0 5.0 M2.95 -1.0 L2.95 -2.0 2.0 -2.0 2.0 -2.2 4.0 -2.2 4.0 -2.0 3.0 -2.0 3.0 -1.0 2.95 -1.0 M-4.95 -2.0 L-4.95 -2.2 -4.05 -2.2 -4.05 -2.0 -4.95 -2.0 M-3.05 0.0 L-3.05 0.05 -3.0 0.05 -3.0 0.95 -3.0 1.0 -4.0 1.0 -4.0 0.0 -3.05 0.0 M-3.0 4.0 L-3.05 4.0 -7.0 4.0 -7.0 5.0 -7.9 5.0 -7.9 4.0 -7.0 4.0 -7.0 3.0 -7.9 3.0 -7.9 1.0 -7.0 1.0 -7.0 0.0 -6.0 0.0 -6.0 2.0 -5.0 2.0 -5.0 3.0 -3.0 3.0 -3.0 4.0 M-7.05 -1.0 L-7.05 -2.2 -6.05 -2.2 -6.05 -2.0 -7.0 -2.0 -7.0 -1.0 -7.05 -1.0" fill="#ffffff" fill-rule="evenodd" stroke="none"/>
    <path d="M5.0 -2.0 L5.95 -2.0 5.95 -0.95 7.0 -0.95 7.0 0.95 6.0 0.95 6.0 0.0 5.0 0.0 5.0 1.0 5.95 1.0 5.95 3.0 4.0 3.0 4.0 2.0 3.0 2.0 3.0 0.0 2.0 0.0 2.0 0.95 1.05 0.95 1.05 0.0 2.0 0.0 2.0 -0.95 2.95 -0.95 2.95 -1.0 3.0 -1.0 3.0 -2.0 4.0 -2.0 4.0 -1.0 5.0 -1.0 5.0 -2.0 M6.0 3.05 L6.0 3.0 7.0 3.0 7.0 3.05 7.0 4.0 6.0 4.0 6.0 5.0 2.0 5.0 2.0 4.0 1.05 4.0 1.05 3.05 2.0 3.05 2.0 4.0 6.0 4.0 6.0 3.05 M-4.95 -2.0 L-4.05 -2.0 -4.05 -1.0 -3.05 -1.0 -3.05 0.0 -4.0 0.0 -4.0 1.0 -3.0 1.0 -3.0 3.0 -2.05 3.0 -2.05 4.0 -3.0 4.0 -3.0 3.0 -5.0 3.0 -5.0 2.0 -6.0 2.0 -6.0 0.0 -7.0 0.0 -7.0 1.0 -7.9 1.0 -7.9 -1.0 -7.05 -1.0 -7.0 -1.0 -7.0 -2.0 -6.05 -2.0 -6.05 -1.0 -4.95 -1.0 -4.95 -2.0 M-3.0 0.05 L-3.0 0.0 -2.05 0.0 -2.05 0.95 -3.0 0.95 -3.0 0.05 M-3.05 4.0 L-3.05 5.0 -7.0 5.0 -7.0 4.0 -7.9 4.0 -7.9 3.0 -7.0 3.0 -7.0 4.0 -3.05 4.0" fill="#000000" fill-rule="evenodd" stroke="none"/>
  </g>
</svg>
