<?xml version="1.0" encoding="UTF-8" standalone="no"?>
<svg xmlns:ffdec="https://www.free-decompiler.com/flash" xmlns:xlink="http://www.w3.org/1999/xlink" ffdec:objectType="shape" height="2.9px" width="17.0px" xmlns="http://www.w3.org/2000/svg">
  <g transform="matrix(1.0, 0.0, 0.0, 1.0, 8.95, 5.1)">
    <path d="M3.0 -5.1 L3.0 -4.1 7.0 -4.1 7.0 -3.2 -8.0 -3.2 -8.0 -4.1 -4.0 -4.1 -4.0 -5.1 3.0 -5.1 M7.1 -3.1 L7.5 -3.1 7.5 -2.2 7.1 -2.2 7.1 -3.1 M8.0 -4.15 L8.0 -4.1 7.0 -4.1 7.0 -5.1 7.75 -5.1 7.75 -4.15 8.0 -4.15 M-8.0 -5.1 L-8.0 -4.1 -8.95 -4.1 -8.95 -5.1 -8.0 -5.1" fill="#ffffff" fill-rule="evenodd" stroke="none"/>
    <path d="M7.0 -3.2 L7.0 -4.1 3.0 -4.1 3.0 -5.1 7.0 -5.1 7.0 -4.1 8.0 -4.1 8.0 -4.15 8.05 -4.15 8.05 -3.1 7.5 -3.1 7.1 -3.1 7.1 -3.2 7.0 -3.2 M-4.0 -5.1 L-4.0 -4.1 -8.0 -4.1 -8.0 -3.2 -8.95 -3.2 -8.95 -4.1 -8.0 -4.1 -8.0 -5.1 -4.0 -5.1" fill="#000000" fill-rule="evenodd" stroke="none"/>
  </g>
</svg>
