<?xml version="1.0" encoding="UTF-8" standalone="no"?>
<svg xmlns:ffdec="https://www.free-decompiler.com/flash" xmlns:xlink="http://www.w3.org/1999/xlink" ffdec:objectType="shape" height="5.05px" width="15.15px" xmlns="http://www.w3.org/2000/svg">
  <g transform="matrix(1.0, 0.0, 0.0, 1.0, 7.95, 0.05)">
    <path d="M7.05 1.1 L7.2 1.1 7.2 1.9 7.05 1.9 7.05 1.1 M6.0 2.95 L6.0 3.0 6.05 3.0 6.05 3.95 2.05 3.95 2.05 3.0 4.05 3.0 4.05 2.95 6.0 2.95 M7.05 3.0 L7.2 3.0 7.2 5.0 6.95 5.0 6.95 4.0 6.1 4.0 6.1 5.0 1.95 5.0 1.95 4.0 1.05 4.0 1.05 3.95 2.05 3.95 2.05 4.95 6.05 4.95 6.05 3.95 7.05 3.95 7.05 3.0 M5.0 0.95 L5.0 -0.05 5.05 -0.05 5.05 0.95 5.0 0.95 M-7.95 1.95 L-4.95 1.95 -4.95 2.95 -2.95 2.95 -2.95 1.95 -2.0 1.95 -2.0 2.95 -2.95 2.95 -2.95 3.95 -6.95 3.95 -6.95 4.95 -3.0 4.95 -3.0 5.0 -7.0 5.0 -7.0 3.95 -6.95 3.95 -6.95 2.95 -7.95 2.95 -7.95 2.85 -5.0 2.85 -5.0 2.0 -7.95 2.0 -7.95 1.95 M-3.9 0.95 L-3.95 0.95 -3.95 0.0 -3.9 0.0 -3.9 0.95" fill="#ffffff" fill-rule="evenodd" stroke="none"/>
    <path d="M7.05 1.1 L7.05 1.9 6.0 1.9 6.0 2.95 4.05 2.95 4.05 1.95 1.05 1.95 1.05 1.0 3.1 1.0 3.1 0.0 3.95 0.0 3.95 1.0 5.0 1.0 5.0 0.95 5.05 0.95 5.05 -0.05 5.95 -0.05 5.95 1.1 7.05 1.1 M6.05 3.0 L6.05 2.95 7.05 2.95 7.05 3.0 7.05 3.95 6.05 3.95 6.05 4.95 2.05 4.95 2.05 3.95 1.05 3.95 1.05 2.95 2.05 2.95 2.05 3.0 2.05 3.95 6.05 3.95 6.05 3.0 M-7.95 1.95 L-7.95 1.0 -6.95 1.0 -6.95 0.0 -6.0 0.0 -6.0 1.05 -4.95 1.05 -4.95 -0.05 -3.95 -0.05 -3.95 0.0 -3.95 0.95 -3.9 0.95 -3.9 1.0 -2.0 1.0 -2.0 1.95 -2.95 1.95 -2.95 2.95 -4.95 2.95 -4.95 1.95 -7.95 1.95 M-7.95 2.95 L-6.95 2.95 -6.95 3.95 -7.0 3.95 -7.0 3.9 -7.95 3.9 -7.95 2.95 M-3.0 4.95 L-6.95 4.95 -6.95 3.95 -2.95 3.95 -2.95 2.95 -2.0 2.95 -2.0 3.95 -2.95 3.95 -2.95 4.0 -3.0 4.0 -3.0 4.95" fill="#000000" fill-rule="evenodd" stroke="none"/>
  </g>
</svg>
