<?xml version="1.0" encoding="UTF-8" standalone="no"?>
<svg xmlns:ffdec="https://www.free-decompiler.com/flash" xmlns:xlink="http://www.w3.org/1999/xlink" ffdec:objectType="shape" height="7.0px" width="15.0px" xmlns="http://www.w3.org/2000/svg">
  <g transform="matrix(1.0, 0.0, 0.0, 1.0, 19.35, -4.95)">
    <path d="M-4.35 5.95 L-4.35 6.95 -5.35 6.95 -5.35 7.95 -6.35 7.95 -6.35 8.95 -7.35 8.95 -7.35 9.95 -8.35 9.95 -8.35 10.95 -13.35 10.95 -13.35 11.95 -18.35 11.95 -18.35 10.95 -19.35 10.95 -19.35 8.95 -18.35 8.95 -18.35 7.95 -16.35 7.95 -16.35 6.95 -15.35 6.95 -15.35 5.95 -13.35 5.95 -13.35 6.95 -12.35 6.95 -12.35 7.95 -9.35 7.95 -9.35 6.95 -8.35 6.95 -8.35 5.95 -7.35 5.95 -7.35 4.95 -6.35 4.95 -6.35 5.95 -7.35 5.95 -7.35 6.95 -8.35 6.95 -8.35 7.95 -9.35 7.95 -9.35 8.95 -12.35 8.95 -12.35 7.95 -13.35 7.95 -13.35 6.95 -15.35 6.95 -15.35 7.95 -16.35 7.95 -16.35 8.95 -18.35 8.95 -18.35 10.95 -13.35 10.95 -13.35 9.95 -8.35 9.95 -8.35 8.95 -7.35 8.95 -7.35 7.95 -6.35 7.95 -6.35 6.95 -5.35 6.95 -5.35 5.95 -4.35 5.95" fill="#000000" fill-rule="evenodd" stroke="none"/>
    <path d="M-6.35 4.95 L-4.35 4.95 -4.35 5.95 -5.35 5.95 -5.35 6.95 -6.35 6.95 -6.35 7.95 -7.35 7.95 -7.35 8.95 -8.35 8.95 -8.35 9.95 -13.35 9.95 -13.35 10.95 -18.35 10.95 -18.35 8.95 -16.35 8.95 -16.35 7.95 -15.35 7.95 -15.35 6.95 -13.35 6.95 -13.35 7.95 -12.35 7.95 -12.35 8.95 -9.35 8.95 -9.35 7.95 -8.35 7.95 -8.35 6.95 -7.35 6.95 -7.35 5.95 -6.35 5.95 -6.35 4.95" fill="#ffffff" fill-rule="evenodd" stroke="none"/>
  </g>
</svg>
