<?xml version="1.0" encoding="UTF-8" standalone="no"?>
<svg xmlns:ffdec="https://www.free-decompiler.com/flash" xmlns:xlink="http://www.w3.org/1999/xlink" ffdec:objectType="shape" height="5.0px" width="13.0px" xmlns="http://www.w3.org/2000/svg">
  <g transform="matrix(1.0, 0.0, 0.0, 1.0, 6.05, 3.0)">
    <path d="M5.95 -2.0 L5.95 -1.0 4.95 -1.0 4.95 0.0 5.95 0.0 5.95 1.0 3.95 1.0 3.95 0.0 -3.05 0.0 -3.05 1.0 -5.05 1.0 -5.05 0.0 -4.05 0.0 -4.05 -1.0 -5.05 -1.0 -5.05 -2.0 -3.05 -2.0 -3.05 -1.0 3.95 -1.0 3.95 -2.0 5.95 -2.0" fill="#ffffff" fill-rule="evenodd" stroke="none"/>
    <path d="M5.95 -2.0 L6.95 -2.0 6.95 1.0 5.95 1.0 5.95 2.0 3.95 2.0 3.95 1.0 -3.05 1.0 -3.05 2.0 -5.05 2.0 -5.05 1.0 -6.05 1.0 -6.05 -2.0 -5.05 -2.0 -5.05 -3.0 -3.05 -3.0 -3.05 -2.0 3.95 -2.0 3.95 -3.0 5.95 -3.0 5.95 -2.0 3.95 -2.0 3.95 -1.0 -3.05 -1.0 -3.05 -2.0 -5.05 -2.0 -5.05 -1.0 -4.05 -1.0 -4.05 0.0 -5.05 0.0 -5.05 1.0 -3.05 1.0 -3.05 0.0 3.95 0.0 3.95 1.0 5.95 1.0 5.95 0.0 4.95 0.0 4.95 -1.0 5.95 -1.0 5.95 -2.0" fill="#000000" fill-rule="evenodd" stroke="none"/>
  </g>
</svg>
