<?xml version="1.0" encoding="UTF-8" standalone="no"?>
<svg xmlns:ffdec="https://www.free-decompiler.com/flash" xmlns:xlink="http://www.w3.org/1999/xlink" ffdec:objectType="shape" height="12.2px" width="11.9px" xmlns="http://www.w3.org/2000/svg">
  <g transform="matrix(1.0, 0.0, 0.0, 1.0, -6.05, -5.75)">
    <path d="M6.95 6.95 L8.95 6.95 8.95 8.95 9.95 8.95 9.95 10.95 10.95 10.95 10.95 12.95 11.95 12.95 11.95 13.95 16.95 13.95 16.95 14.95 12.95 14.95 12.95 15.95 11.95 15.95 11.95 16.95 10.95 16.95 10.95 13.95 9.95 13.95 9.95 11.95 8.95 11.95 8.95 9.95 7.95 9.95 7.95 7.95 6.95 7.95 6.95 6.95" fill="#ffffff" fill-rule="evenodd" stroke="none"/>
    <path d="M6.95 6.1 L8.1 6.1 8.1 5.75 8.95 5.75 8.95 6.95 9.95 6.95 9.95 8.95 10.95 8.95 10.95 10.95 11.95 10.95 11.95 12.95 17.95 12.95 17.95 15.95 13.95 15.95 13.95 16.95 12.95 16.95 12.95 17.95 9.95 17.95 9.95 13.95 8.95 13.95 8.95 11.95 7.95 11.95 7.95 9.95 6.95 9.95 6.95 7.95 6.05 7.95 6.05 6.95 6.95 6.95 6.95 6.1 M6.95 6.95 L6.95 7.95 7.95 7.95 7.95 9.95 8.95 9.95 8.95 11.95 9.95 11.95 9.95 13.95 10.95 13.95 10.95 16.95 11.95 16.95 11.95 15.95 12.95 15.95 12.95 14.95 16.95 14.95 16.95 13.95 11.95 13.95 11.95 12.95 10.95 12.95 10.95 10.95 9.95 10.95 9.95 8.95 8.95 8.95 8.95 6.95 6.95 6.95" fill="#000000" fill-rule="evenodd" stroke="none"/>
    <path d="M6.05 6.95 L6.05 6.9 6.85 6.9 6.85 6.1 6.95 6.1 6.95 6.95 6.05 6.95" fill="#808080" fill-rule="evenodd" stroke="none"/>
  </g>
</svg>
