<?xml version="1.0" encoding="UTF-8" standalone="no"?>
<svg xmlns:ffdec="https://www.free-decompiler.com/flash" xmlns:xlink="http://www.w3.org/1999/xlink" ffdec:objectType="shape" height="2.05px" width="15.0px" xmlns="http://www.w3.org/2000/svg">
  <g transform="matrix(1.0, 0.0, 0.0, 1.0, 8.1, -0.95)">
    <path d="M6.9 2.95 L6.9 3.0 0.95 3.0 0.95 2.0 1.0 2.0 1.0 2.95 6.9 2.95 M6.0 1.0 L6.9 1.0 6.9 1.95 6.0 1.95 6.0 1.0 M-7.0 1.0 L-7.0 1.95 -7.05 1.95 -7.05 1.0 -7.0 1.0 M-8.0 2.0 L-8.0 2.95 -2.0 2.95 -2.0 2.0 -1.95 2.0 -1.95 3.0 -8.1 3.0 -8.1 2.0 -8.0 2.0" fill="#ffffff" fill-rule="evenodd" stroke="none"/>
    <path d="M1.0 2.0 L3.0 2.0 3.0 1.0 4.0 1.0 4.0 2.05 5.05 2.05 5.05 0.95 6.0 0.95 6.0 1.0 6.0 1.95 6.9 1.95 6.9 2.95 1.0 2.95 1.0 2.0 M-7.0 1.0 L-6.1 1.0 -6.1 1.95 -4.95 1.95 -4.95 0.95 -4.0 0.95 -4.0 2.0 -2.0 2.0 -2.0 2.95 -8.0 2.95 -8.0 2.0 -7.05 2.0 -7.05 1.95 -7.0 1.95 -7.0 1.0" fill="#000000" fill-rule="evenodd" stroke="none"/>
  </g>
</svg>
