<?xml version="1.0" encoding="UTF-8" standalone="no"?>
<svg xmlns:ffdec="https://www.free-decompiler.com/flash" xmlns:xlink="http://www.w3.org/1999/xlink" ffdec:objectType="shape" height="3.0px" width="14.9px" xmlns="http://www.w3.org/2000/svg">
  <g transform="matrix(1.0, 0.0, 0.0, 1.0, 7.95, -0.95)">
    <path d="M1.05 1.95 L3.05 1.95 3.05 1.0 4.0 1.0 4.0 2.0 5.05 2.0 5.05 0.95 6.05 0.95 6.05 2.0 6.95 2.0 6.95 2.9 5.95 2.9 5.95 3.95 2.05 3.95 2.05 2.95 1.95 2.95 1.05 2.95 1.05 1.95 M-2.0 2.95 L-2.0 2.9 -2.95 2.9 -2.95 3.95 -6.95 3.95 -6.95 2.95 -7.95 2.95 -7.95 2.0 -6.95 2.0 -6.95 1.0 -6.05 1.0 -6.05 2.0 -4.95 2.0 -4.95 0.95 -4.0 0.95 -4.0 1.95 -1.95 1.95 -1.95 2.95 -2.0 2.95" fill="#000000" fill-rule="evenodd" stroke="none"/>
    <path d="M2.05 3.95 L1.95 3.95 1.95 2.95 2.05 2.95 2.05 3.95 M1.05 2.95 L1.0 2.95 1.0 1.95 1.05 1.95 1.05 2.95 M-2.0 2.95 L-1.95 2.95 -1.95 3.95 -2.0 3.95 -2.0 2.95" fill="#ffffff" fill-rule="evenodd" stroke="none"/>
  </g>
</svg>
