<?xml version="1.0" encoding="UTF-8" standalone="no"?>
<svg xmlns:ffdec="https://www.free-decompiler.com/flash" xmlns:xlink="http://www.w3.org/1999/xlink" ffdec:objectType="shape" height="14.0px" width="8.0px" xmlns="http://www.w3.org/2000/svg">
  <g transform="matrix(1.0, 0.0, 0.0, 1.0, 12.35, 3.05)">
    <path d="M-6.35 4.95 L-4.35 4.95 -4.35 5.95 -5.35 5.95 -5.35 6.95 -6.35 6.95 -6.35 7.95 -7.35 7.95 -7.35 8.95 -8.35 8.95 -8.35 9.95 -10.35 9.95 -10.35 3.95 -11.35 3.95 -11.35 0.95 -10.35 0.95 -10.35 -1.05 -9.35 -1.05 -9.35 -2.05 -7.35 -2.05 -7.35 2.95 -8.35 2.95 -8.35 3.95 -9.35 3.95 -9.35 7.95 -8.35 7.95 -8.35 6.95 -7.35 6.95 -7.35 5.95 -6.35 5.95 -6.35 4.95" fill="#ffffff" fill-rule="evenodd" stroke="none"/>
    <path d="M-4.35 5.95 L-4.35 6.95 -5.35 6.95 -5.35 7.95 -6.35 7.95 -6.35 8.95 -7.35 8.95 -7.35 9.95 -8.35 9.95 -8.35 10.95 -11.35 10.95 -11.35 3.95 -12.35 3.95 -12.35 0.95 -11.35 0.95 -11.35 -1.05 -10.35 -1.05 -10.35 -2.05 -9.35 -2.05 -9.35 -3.05 -7.35 -3.05 -7.35 -2.05 -6.35 -2.05 -6.35 2.95 -7.35 2.95 -7.35 3.95 -8.35 3.95 -8.35 5.95 -7.35 5.95 -7.35 4.95 -6.35 4.95 -6.35 5.95 -7.35 5.95 -7.35 6.95 -8.35 6.95 -8.35 7.95 -9.35 7.95 -9.35 3.95 -8.35 3.95 -8.35 2.95 -7.35 2.95 -7.35 -2.05 -9.35 -2.05 -9.35 -1.05 -10.35 -1.05 -10.35 0.95 -11.35 0.95 -11.35 3.95 -10.35 3.95 -10.35 9.95 -8.35 9.95 -8.35 8.95 -7.35 8.95 -7.35 7.95 -6.35 7.95 -6.35 6.95 -5.35 6.95 -5.35 5.95 -4.35 5.95" fill="#000000" fill-rule="evenodd" stroke="none"/>
  </g>
</svg>
