<?xml version="1.0" encoding="UTF-8" standalone="no"?>
<svg xmlns:ffdec="https://www.free-decompiler.com/flash" xmlns:xlink="http://www.w3.org/1999/xlink" ffdec:objectType="shape" height="6.05px" width="15.0px" xmlns="http://www.w3.org/2000/svg">
  <g transform="matrix(1.0, 0.0, 0.0, 1.0, 7.9, 1.05)">
    <path d="M4.0 -0.95 L3.1 -0.95 3.1 0.05 1.1 0.05 1.1 0.0 3.05 0.0 3.05 -1.05 4.0 -1.05 4.0 -0.95 M3.15 2.05 L4.1 2.05 4.1 3.05 6.1 3.05 6.1 4.0 6.05 4.0 6.05 4.05 2.1 4.05 2.1 3.1 3.15 3.1 3.15 2.05 M6.0 -0.95 L5.1 -0.95 5.1 -1.05 5.2 -1.05 5.2 -1.0 6.0 -1.0 6.0 -0.95 M5.1 0.0 L5.1 0.05 4.1 0.05 4.1 0.0 5.1 0.0 M2.1 5.0 L1.1 5.0 1.1 4.05 2.1 4.05 2.1 5.0 M-5.95 -0.95 L-6.9 -0.95 -6.9 -1.05 -5.95 -1.05 -5.95 -0.95 M-7.9 1.05 L-5.9 1.05 -5.9 2.05 -4.9 2.05 -4.9 3.05 -2.9 3.05 -2.9 4.05 -6.9 4.05 -6.9 3.05 -5.95 3.05 -5.95 1.1 -7.9 1.1 -7.9 1.05 M-3.85 0.05 L-3.9 0.05 -3.9 -0.95 -4.85 -0.95 -4.85 -1.05 -3.85 -1.05 -3.85 0.05 M-2.9 5.0 L-2.9 4.05 -1.9 4.05 -1.9 5.0 -2.9 5.0" fill="#ffffff" fill-rule="evenodd" stroke="none"/>
    <path d="M1.1 0.05 L3.1 0.05 3.1 -0.95 4.0 -0.95 4.0 0.0 4.1 0.0 4.1 0.05 5.1 0.05 5.1 0.0 5.1 -0.95 6.0 -0.95 6.0 0.1 7.1 0.1 7.1 1.05 6.1 1.05 6.1 3.05 7.1 3.05 7.1 4.0 6.1 4.0 6.1 3.05 4.1 3.05 4.1 2.05 3.15 2.05 3.15 1.0 1.1 1.0 1.1 0.05 M6.05 4.05 L6.05 5.0 2.1 5.0 2.1 4.05 1.1 4.05 1.1 3.05 2.1 3.05 2.1 3.1 2.1 4.05 6.05 4.05 M-6.9 -0.95 L-5.95 -0.95 -5.95 0.1 -4.85 0.1 -4.85 -0.95 -3.9 -0.95 -3.9 0.05 -3.85 0.05 -3.85 0.15 -1.9 0.15 -1.9 1.05 -2.9 1.05 -2.9 3.05 -4.9 3.05 -4.9 2.05 -5.9 2.05 -5.9 1.05 -7.9 1.05 -7.9 0.1 -6.9 0.1 -6.9 -0.95 M-1.9 4.05 L-2.9 4.05 -2.9 5.0 -6.9 5.0 -6.9 4.05 -7.9 4.05 -7.9 3.05 -6.9 3.05 -6.9 4.05 -2.9 4.05 -2.9 3.05 -1.9 3.05 -1.9 4.05" fill="#000000" fill-rule="evenodd" stroke="none"/>
  </g>
</svg>
