<?xml version="1.0" encoding="UTF-8" standalone="no"?>
<svg xmlns:ffdec="https://www.free-decompiler.com/flash" xmlns:xlink="http://www.w3.org/1999/xlink" ffdec:objectType="shape" height="11.95px" width="13.0px" xmlns="http://www.w3.org/2000/svg">
  <g transform="matrix(1.0, 0.0, 0.0, 1.0, 6.1, 6.95)">
    <path d="M2.9 -4.95 L2.9 -6.95 4.9 -6.95 4.9 -5.95 3.9 -5.95 3.9 -4.95 2.9 -4.95 2.9 -3.95 1.9 -3.95 1.9 -2.95 0.9 -2.95 0.9 -1.95 -0.1 -1.95 -0.1 -1.0 -1.1 -1.0 -1.1 0.0 -2.1 0.0 -2.1 1.0 -3.1 1.0 -3.1 2.0 -5.1 2.0 -5.1 3.0 -3.1 3.0 -3.1 4.0 -2.1 4.0 -2.1 2.0 -1.1 2.0 -1.1 1.0 -0.1 1.0 -0.1 0.0 0.9 0.0 0.9 -1.0 1.9 -1.0 1.9 -1.95 2.9 -1.95 2.9 -2.95 3.9 -2.95 3.9 -3.95 5.9 -3.95 5.9 -4.95 4.9 -4.95 4.9 -5.95 6.9 -5.95 6.9 -2.95 3.9 -2.95 3.9 -1.95 2.9 -1.95 2.9 -0.95 1.9 -0.95 1.9 0.0 0.9 0.0 0.9 1.0 -0.1 1.0 -0.1 2.0 -1.1 2.0 -1.1 5.0 -4.1 5.0 -4.1 4.0 -6.1 4.0 -6.1 2.0 -5.1 2.0 -5.1 1.0 -3.1 1.0 -3.1 0.0 -2.1 0.0 -2.1 -1.0 -1.1 -1.0 -1.1 -2.0 -0.1 -2.0 -0.1 -2.95 0.9 -2.95 0.9 -3.95 1.9 -3.95 1.9 -4.95 2.9 -4.95" fill="#000000" fill-rule="evenodd" stroke="none"/>
    <path d="M2.9 -4.95 L3.9 -4.95 3.9 -5.95 4.9 -5.95 4.9 -4.95 5.9 -4.95 5.9 -3.95 3.9 -3.95 3.9 -2.95 2.9 -2.95 2.9 -1.95 1.9 -1.95 1.9 -1.0 0.9 -1.0 0.9 0.0 -0.1 0.0 -0.1 1.0 -1.1 1.0 -1.1 2.0 -2.1 2.0 -2.1 4.0 -3.1 4.0 -3.1 3.0 -5.1 3.0 -5.1 2.0 -3.1 2.0 -3.1 1.0 -2.1 1.0 -2.1 0.0 -1.1 0.0 -1.1 -1.0 -0.1 -1.0 -0.1 -1.95 0.9 -1.95 0.9 -2.95 1.9 -2.95 1.9 -3.95 2.9 -3.95 2.9 -4.95" fill="#ffffff" fill-rule="evenodd" stroke="none"/>
  </g>
</svg>
