<?xml version="1.0" encoding="UTF-8" standalone="no"?>
<svg xmlns:ffdec="https://www.free-decompiler.com/flash" xmlns:xlink="http://www.w3.org/1999/xlink" ffdec:objectType="shape" height="12.2px" width="11.9px" xmlns="http://www.w3.org/2000/svg">
  <g transform="matrix(1.0, 0.0, 0.0, 1.0, 16.35, -5.75)">
    <path d="M-10.35 12.95 L-10.35 13.95 -15.35 13.95 -15.35 14.95 -11.35 14.95 -11.35 15.95 -10.35 15.95 -10.35 16.95 -9.35 16.95 -9.35 13.95 -8.35 13.95 -8.35 17.95 -11.35 17.95 -11.35 16.95 -12.35 16.95 -12.35 15.95 -16.35 15.95 -16.35 12.95 -10.35 12.95 -10.35 10.95 -9.35 10.95 -9.35 8.95 -8.35 8.95 -8.35 6.95 -7.35 6.95 -7.35 5.75 -6.5 5.75 -6.5 6.1 -5.35 6.1 -5.35 6.95 -4.45 6.95 -4.45 7.95 -5.35 7.95 -5.35 9.95 -6.35 9.95 -6.35 11.95 -7.35 11.95 -7.35 13.95 -8.35 13.95 -8.35 11.95 -7.35 11.95 -7.35 9.95 -6.35 9.95 -6.35 7.95 -5.35 7.95 -5.35 6.95 -7.35 6.95 -7.35 8.95 -8.35 8.95 -8.35 10.95 -9.35 10.95 -9.35 12.95 -10.35 12.95" fill="#000000" fill-rule="evenodd" stroke="none"/>
    <path d="M-8.35 13.95 L-9.35 13.95 -9.35 16.95 -10.35 16.95 -10.35 15.95 -11.35 15.95 -11.35 14.95 -15.35 14.95 -15.35 13.95 -10.35 13.95 -10.35 12.95 -9.35 12.95 -9.35 10.95 -8.35 10.95 -8.35 8.95 -7.35 8.95 -7.35 6.95 -5.35 6.95 -5.35 7.95 -6.35 7.95 -6.35 9.95 -7.35 9.95 -7.35 11.95 -8.35 11.95 -8.35 13.95" fill="#ffffff" fill-rule="evenodd" stroke="none"/>
    <path d="M-5.35 6.1 L-5.25 6.1 -5.25 6.9 -4.45 6.9 -4.45 6.95 -5.35 6.95 -5.35 6.1" fill="#808080" fill-rule="evenodd" stroke="none"/>
  </g>
</svg>
