<?xml version="1.0" encoding="UTF-8" standalone="no"?>
<svg xmlns:ffdec="https://www.free-decompiler.com/flash" xmlns:xlink="http://www.w3.org/1999/xlink" ffdec:objectType="shape" height="16.0px" width="22.95px" xmlns="http://www.w3.org/2000/svg">
  <g transform="matrix(1.0, 0.0, 0.0, 1.0, 11.1, 8.0)">
    <path d="M2.0 -7.0 L2.0 -4.95 2.85 -4.95 2.85 0.0 3.85 0.0 3.85 2.0 2.85 2.0 2.85 3.0 7.85 3.0 7.85 2.0 6.85 2.0 6.85 0.0 5.85 0.0 5.85 -3.0 4.85 -3.0 4.85 -4.95 4.0 -4.95 4.0 -7.0 2.0 -7.0 M5.0 -8.0 L5.0 -4.95 5.85 -4.95 5.85 -4.0 6.85 -4.0 6.85 0.0 7.85 0.0 7.85 2.0 8.85 2.0 8.85 4.0 9.85 4.0 9.85 5.0 10.85 5.0 10.85 6.0 11.85 6.0 11.85 8.0 3.85 8.0 3.85 4.0 2.3 4.0 2.3 2.0 2.85 2.0 2.85 0.0 1.85 0.0 1.85 -4.95 1.0 -4.95 1.0 -8.0 5.0 -8.0 M6.85 4.0 L4.85 4.0 4.85 6.0 9.85 6.0 9.85 5.0 6.85 5.0 6.85 4.0 M-2.0 0.0 L-2.0 -5.9 -1.1 -5.9 -1.1 -7.0 -3.1 -7.0 -3.1 -5.9 -4.0 -5.9 -4.0 -3.0 -5.0 -3.0 -5.0 0.0 -6.0 0.0 -6.0 -4.0 -5.0 -4.0 -5.0 -5.9 -4.1 -5.9 -4.1 -8.0 -0.1 -8.0 -0.1 -5.9 -1.0 -5.9 -1.0 0.0 -2.0 0.0 M-6.1 0.0 L-6.1 2.0 -7.1 2.0 -7.1 3.0 -2.1 3.0 -2.1 2.0 -3.1 2.0 -3.1 0.0 -2.1 0.0 -2.1 2.0 -1.0 2.0 -1.0 4.0 -3.1 4.0 -3.1 8.0 -11.1 8.0 -11.1 6.0 -10.1 6.0 -10.1 5.0 -9.1 5.0 -9.1 4.0 -8.1 4.0 -8.1 2.0 -7.1 2.0 -7.1 0.0 -6.1 0.0 M-4.1 4.0 L-6.1 4.0 -6.1 5.0 -9.1 5.0 -9.1 6.0 -4.1 6.0 -4.1 4.0" fill="#000000" fill-rule="evenodd" stroke="none"/>
    <path d="M2.0 -7.0 L4.0 -7.0 4.0 -4.95 4.85 -4.95 4.85 -3.0 5.85 -3.0 5.85 0.0 6.85 0.0 6.85 2.0 7.85 2.0 7.85 3.0 2.85 3.0 2.85 2.0 3.85 2.0 3.85 0.0 2.85 0.0 2.85 -4.95 2.0 -4.95 2.0 -7.0 M-6.0 0.0 L-5.0 0.0 -5.0 -3.0 -4.0 -3.0 -4.0 -5.9 -3.1 -5.9 -3.1 -7.0 -1.1 -7.0 -1.1 -5.9 -2.0 -5.9 -2.0 0.0 -2.1 0.0 -3.1 0.0 -3.1 2.0 -2.1 2.0 -2.1 3.0 -7.1 3.0 -7.1 2.0 -6.1 2.0 -6.1 0.0 -6.0 0.0" fill="#656565" fill-rule="evenodd" stroke="none"/>
    <path d="M6.85 4.0 L6.85 5.0 9.85 5.0 9.85 6.0 4.85 6.0 4.85 4.0 6.85 4.0 M-4.1 4.0 L-4.1 6.0 -9.1 6.0 -9.1 5.0 -6.1 5.0 -6.1 4.0 -4.1 4.0" fill="#c8cbc8" fill-rule="evenodd" stroke="none"/>
  </g>
</svg>
