<?xml version="1.0" encoding="UTF-8" standalone="no"?>
<svg xmlns:ffdec="https://www.free-decompiler.com/flash" xmlns:xlink="http://www.w3.org/1999/xlink" ffdec:objectType="shape" height="19.0px" width="14.0px" xmlns="http://www.w3.org/2000/svg">
  <g transform="matrix(1.0, 0.0, 0.0, 1.0, 7.0, 9.0)">
    <path d="M-1.0 -9.0 L2.0 -9.0 2.0 -7.0 7.0 -7.0 7.0 -4.0 5.0 -4.0 5.0 -2.0 4.0 -2.0 4.0 0.0 5.0 0.0 5.0 2.0 6.0 2.0 6.0 3.0 7.0 3.0 7.0 4.0 5.0 4.0 5.0 7.0 6.0 7.0 6.0 8.0 7.0 8.0 7.0 10.0 -6.0 10.0 -6.0 8.0 -5.0 8.0 -5.0 7.0 -4.0 7.0 -4.0 6.0 -6.0 6.0 -6.0 5.0 -5.0 5.0 -5.0 3.0 -4.0 3.0 -4.0 0.0 -3.0 0.0 -3.0 -1.0 -4.0 -1.0 -4.0 -2.0 -5.0 -2.0 -5.0 -3.0 -7.0 -3.0 -7.0 -6.0 -5.0 -6.0 -5.0 -7.0 -1.0 -7.0 -1.0 -9.0 M0.0 -8.0 L0.0 -6.0 -4.0 -6.0 -4.0 -5.0 -2.0 -5.0 -2.0 -4.0 2.0 -4.0 2.0 -5.0 4.0 -5.0 4.0 -6.0 1.0 -6.0 1.0 -8.0 0.0 -8.0 M-2.0 5.0 L-2.0 4.0 3.0 4.0 3.0 3.0 5.0 3.0 5.0 2.0 4.0 2.0 4.0 1.0 3.0 1.0 3.0 -2.0 4.0 -2.0 4.0 -4.0 5.0 -4.0 5.0 -5.0 6.0 -5.0 6.0 -6.0 5.0 -6.0 5.0 -5.0 4.0 -5.0 4.0 -4.0 3.0 -4.0 3.0 -3.0 -3.0 -3.0 -3.0 -4.0 -5.0 -4.0 -5.0 -5.0 -6.0 -5.0 -6.0 -4.0 -5.0 -4.0 -5.0 -3.0 -3.0 -3.0 -3.0 -2.0 -2.0 -2.0 -2.0 1.0 -3.0 1.0 -3.0 4.0 -4.0 4.0 -4.0 5.0 -2.0 5.0 -2.0 6.0 -3.0 6.0 -3.0 7.0 -4.0 7.0 -4.0 8.0 -5.0 8.0 -5.0 9.0 6.0 9.0 6.0 8.0 5.0 8.0 5.0 7.0 4.0 7.0 4.0 5.0 -2.0 5.0" fill="#000000" fill-rule="evenodd" stroke="none"/>
    <path d="M4.0 -5.0 L5.0 -5.0 5.0 -6.0 6.0 -6.0 6.0 -5.0 5.0 -5.0 5.0 -4.0 4.0 -4.0 4.0 -2.0 3.0 -2.0 3.0 1.0 4.0 1.0 4.0 2.0 5.0 2.0 5.0 3.0 3.0 3.0 3.0 4.0 -2.0 4.0 -2.0 5.0 -4.0 5.0 -4.0 4.0 -3.0 4.0 -3.0 1.0 -2.0 1.0 -2.0 -2.0 -3.0 -2.0 -3.0 -3.0 -5.0 -3.0 -5.0 -4.0 -6.0 -4.0 -6.0 -5.0 -5.0 -5.0 -5.0 -4.0 -3.0 -4.0 -3.0 -3.0 3.0 -3.0 3.0 -4.0 4.0 -4.0 4.0 -5.0" fill="#656565" fill-rule="evenodd" stroke="none"/>
    <path d="M0.0 -8.0 L1.0 -8.0 1.0 -6.0 4.0 -6.0 4.0 -5.0 2.0 -5.0 2.0 -4.0 -2.0 -4.0 -2.0 -5.0 -4.0 -5.0 -4.0 -6.0 0.0 -6.0 0.0 -8.0" fill="#ffffff" fill-rule="evenodd" stroke="none"/>
    <path d="M-2.0 5.0 L4.0 5.0 4.0 7.0 5.0 7.0 5.0 8.0 6.0 8.0 6.0 9.0 -5.0 9.0 -5.0 8.0 -4.0 8.0 -4.0 7.0 -3.0 7.0 -3.0 6.0 -2.0 6.0 -2.0 5.0" fill="#c8cbc8" fill-rule="evenodd" stroke="none"/>
  </g>
</svg>
