<?xml version="1.0" encoding="UTF-8" standalone="no"?>
<svg xmlns:ffdec="https://www.free-decompiler.com/flash" xmlns:xlink="http://www.w3.org/1999/xlink" ffdec:objectType="shape" height="13.0px" width="5.0px" xmlns="http://www.w3.org/2000/svg">
  <g transform="matrix(1.0, 0.0, 0.0, 1.0, 2.05, 7.0)">
    <path d="M1.95 -6.0 L1.95 -4.0 0.95 -4.0 0.95 3.0 1.95 3.0 1.95 5.0 0.95 5.0 0.95 4.0 -0.05 4.0 -0.05 5.0 -1.05 5.0 -1.05 3.0 -0.05 3.0 -0.05 -4.0 -1.05 -4.0 -1.05 -6.0 -0.05 -6.0 -0.05 -5.0 0.95 -5.0 0.95 -6.0 1.95 -6.0" fill="#ffffff" fill-rule="evenodd" stroke="none"/>
    <path d="M1.95 -6.0 L2.95 -6.0 2.95 -4.0 1.95 -4.0 1.95 3.0 2.95 3.0 2.95 5.0 1.95 5.0 1.95 6.0 -1.05 6.0 -1.05 5.0 -2.05 5.0 -2.05 3.0 -1.05 3.0 -1.05 -4.0 -2.05 -4.0 -2.05 -6.0 -1.05 -6.0 -1.05 -7.0 1.95 -7.0 1.95 -6.0 0.95 -6.0 0.95 -5.0 -0.05 -5.0 -0.05 -6.0 -1.05 -6.0 -1.05 -4.0 -0.05 -4.0 -0.05 3.0 -1.05 3.0 -1.05 5.0 -0.05 5.0 -0.05 4.0 0.95 4.0 0.95 5.0 1.95 5.0 1.95 3.0 0.95 3.0 0.95 -4.0 1.95 -4.0 1.95 -6.0" fill="#000000" fill-rule="evenodd" stroke="none"/>
  </g>
</svg>
