<?xml version="1.0" encoding="UTF-8" standalone="no"?>
<svg xmlns:ffdec="https://www.free-decompiler.com/flash" xmlns:xlink="http://www.w3.org/1999/xlink" ffdec:objectType="shape" height="26.0px" width="38.95px" xmlns="http://www.w3.org/2000/svg">
  <g transform="matrix(1.0, 0.0, 0.0, 1.0, -9.05, 4.0)">
    <path d="M10.8 -1.0 L15.0 -1.0 15.0 1.0 16.0 1.0 16.0 3.0 17.0 3.0 17.0 5.0 18.0 5.0 18.0 7.0 19.0 7.0 19.0 9.0 20.0 9.0 20.0 11.0 21.0 11.0 21.0 13.0 22.0 13.0 22.0 15.0 23.0 15.0 23.0 17.0 21.0 17.0 21.0 15.0 20.0 15.0 20.0 13.0 19.0 13.0 19.0 11.0 18.0 11.0 18.0 9.0 17.0 9.0 17.0 7.0 16.0 7.0 16.0 5.0 15.0 5.0 15.0 3.0 14.0 3.0 14.0 1.0 10.8 1.0 10.8 -1.0 M42.0 -1.0 L46.2 -1.0 46.2 1.0 43.0 1.0 43.0 3.0 42.0 3.0 42.0 5.0 41.0 5.0 41.0 7.0 40.0 7.0 40.0 9.0 39.0 9.0 39.0 11.0 38.0 11.0 38.0 13.0 37.0 13.0 37.0 15.0 36.0 15.0 36.0 17.0 34.0 17.0 34.0 15.0 35.0 15.0 35.0 13.0 36.0 13.0 36.0 11.0 37.0 11.0 37.0 9.0 38.0 9.0 38.0 7.0 39.0 7.0 39.0 5.0 40.0 5.0 40.0 3.0 41.0 3.0 41.0 1.0 42.0 1.0 42.0 -1.0 M10.3 -2.0 L10.3 -3.0 46.75 -3.0 46.75 -2.0 10.3 -2.0" fill="#ffffff" fill-rule="evenodd" stroke="none"/>
    <path d="M10.8 -1.0 L10.8 1.0 14.0 1.0 14.0 3.0 15.0 3.0 15.0 5.0 16.0 5.0 16.0 7.0 17.0 7.0 17.0 9.0 18.0 9.0 18.0 11.0 19.0 11.0 19.0 13.0 20.0 13.0 20.0 15.0 21.0 15.0 21.0 17.0 23.0 17.0 23.0 15.0 22.0 15.0 22.0 13.0 21.0 13.0 21.0 11.0 20.0 11.0 20.0 9.0 19.0 9.0 19.0 7.0 18.0 7.0 18.0 5.0 17.0 5.0 17.0 3.0 16.0 3.0 16.0 1.0 15.0 1.0 15.0 -1.0 10.8 -1.0 M24.0 22.0 L23.0 22.0 23.0 21.0 22.0 21.0 22.0 19.0 21.0 19.0 21.0 17.0 20.0 17.0 20.0 15.0 19.0 15.0 19.0 13.0 18.0 13.0 18.0 11.0 17.0 11.0 17.0 9.0 16.0 9.0 16.0 7.0 15.0 7.0 15.0 5.0 14.0 5.0 14.0 3.0 13.0 3.0 13.0 2.0 10.0 2.0 10.0 -1.0 9.05 -1.0 9.05 -4.0 48.0 -4.0 48.0 -1.0 47.0 -1.0 47.0 2.0 44.0 2.0 44.0 3.0 43.0 3.0 43.0 5.0 42.0 5.0 42.0 7.0 41.0 7.0 41.0 9.0 40.0 9.0 40.0 11.0 39.0 11.0 39.0 13.0 38.0 13.0 38.0 15.0 37.0 15.0 37.0 17.0 36.0 17.0 36.0 19.0 35.0 19.0 35.0 21.0 34.0 21.0 34.0 22.0 33.0 22.0 33.0 21.0 34.0 21.0 34.0 19.0 35.0 19.0 35.0 18.0 34.0 18.0 34.0 17.0 33.0 17.0 33.0 19.0 32.0 19.0 32.0 20.0 31.0 20.0 31.0 19.0 32.0 19.0 32.0 17.0 33.0 17.0 33.0 15.0 34.0 15.0 34.0 13.0 35.0 13.0 35.0 11.0 36.0 11.0 36.0 9.0 37.0 9.0 37.0 7.0 38.0 7.0 38.0 5.0 39.0 5.0 39.0 3.0 40.0 3.0 40.0 1.0 41.0 1.0 41.0 -1.0 16.0 -1.0 16.0 1.0 17.0 1.0 17.0 3.0 18.0 3.0 18.0 5.0 19.0 5.0 19.0 7.0 20.0 7.0 20.0 9.0 21.0 9.0 21.0 11.0 22.0 11.0 22.0 13.0 23.0 13.0 23.0 15.0 24.0 15.0 24.0 17.0 25.0 17.0 25.0 19.0 26.0 19.0 26.0 20.0 25.0 20.0 25.0 19.0 24.0 19.0 24.0 17.0 23.0 17.0 23.0 18.0 22.0 18.0 22.0 19.0 23.0 19.0 23.0 21.0 24.0 21.0 24.0 22.0 M10.3 -2.0 L46.75 -2.0 46.75 -3.0 10.3 -3.0 10.3 -2.0 M42.0 -1.0 L42.0 1.0 41.0 1.0 41.0 3.0 40.0 3.0 40.0 5.0 39.0 5.0 39.0 7.0 38.0 7.0 38.0 9.0 37.0 9.0 37.0 11.0 36.0 11.0 36.0 13.0 35.0 13.0 35.0 15.0 34.0 15.0 34.0 17.0 36.0 17.0 36.0 15.0 37.0 15.0 37.0 13.0 38.0 13.0 38.0 11.0 39.0 11.0 39.0 9.0 40.0 9.0 40.0 7.0 41.0 7.0 41.0 5.0 42.0 5.0 42.0 3.0 43.0 3.0 43.0 1.0 46.2 1.0 46.2 -1.0 42.0 -1.0" fill="#000000" fill-rule="evenodd" stroke="none"/>
    <path d="M33.0 22.0 L32.0 22.0 32.0 20.0 32.0 19.0 33.0 19.0 33.0 17.0 34.0 17.0 34.0 18.0 35.0 18.0 35.0 19.0 34.0 19.0 34.0 21.0 33.0 21.0 33.0 22.0 M25.0 20.0 L25.0 22.0 24.0 22.0 24.0 21.0 23.0 21.0 23.0 19.0 22.0 19.0 22.0 18.0 23.0 18.0 23.0 17.0 24.0 17.0 24.0 19.0 25.0 19.0 25.0 20.0" fill="#656565" fill-rule="evenodd" stroke="none"/>
  </g>
</svg>
