<?xml version="1.0" encoding="UTF-8" standalone="no"?>
<svg xmlns:ffdec="https://www.free-decompiler.com/flash" xmlns:xlink="http://www.w3.org/1999/xlink" ffdec:objectType="shape" height="24.0px" width="38.95px" xmlns="http://www.w3.org/2000/svg">
  <g transform="matrix(1.0, 0.0, 0.0, 1.0, -9.05, 2.0)">
    <path d="M10.3 -1.0 L10.3 0.0 46.75 0.0 46.75 -1.0 10.3 -1.0 M14.95 16.0 L14.0 16.0 14.0 15.0 13.0 15.0 13.0 4.0 10.0 4.0 10.0 1.0 9.05 1.0 9.05 -2.0 48.0 -2.0 48.0 1.0 47.0 1.0 47.0 4.0 44.0 4.0 44.0 14.95 43.0 14.95 43.0 16.0 42.05 16.0 42.05 15.0 43.0 14.95 43.0 3.0 46.2 3.0 46.2 1.0 42.0 1.0 42.0 3.0 41.0 3.0 41.0 14.0 40.0 14.0 40.0 15.1 39.0 15.1 39.0 16.0 38.0 16.0 38.0 17.0 37.0 17.0 37.0 18.0 36.0 18.0 36.0 20.0 38.0 20.0 38.0 19.0 39.0 19.0 39.0 18.0 40.0 18.0 40.0 17.0 41.0 17.0 41.0 16.05 42.0 16.05 42.0 17.0 41.0 17.0 41.0 18.0 40.0 18.0 40.0 19.0 39.0 19.0 39.0 20.0 38.0 20.0 38.0 21.0 35.0 21.0 35.0 22.0 34.0 22.0 34.0 21.0 33.0 21.0 33.0 19.0 32.0 19.0 32.0 18.0 36.0 18.0 36.0 17.0 37.0 17.0 37.0 16.0 38.0 16.0 38.0 15.0 39.0 15.0 39.0 14.0 40.0 14.0 40.0 3.0 41.0 3.0 41.0 1.0 16.0 1.0 16.0 3.0 17.0 3.0 17.0 14.0 18.0 14.0 18.0 15.0 19.0 15.0 19.0 16.0 20.0 16.0 20.0 17.0 21.0 17.0 21.0 18.0 25.0 18.0 25.0 19.0 24.0 19.0 24.0 21.0 23.0 21.0 23.0 22.0 22.0 22.0 22.0 21.0 19.0 21.0 19.0 20.0 18.0 20.0 18.0 19.0 17.0 19.0 17.0 18.0 16.0 18.0 16.0 17.0 15.0 17.0 15.0 16.05 16.0 16.05 16.0 17.0 17.0 17.0 17.0 18.0 18.0 18.0 18.0 19.0 19.0 19.0 19.0 20.0 21.0 20.0 21.0 18.0 20.0 18.0 20.0 17.0 19.0 17.0 19.0 16.0 18.0 16.0 18.0 15.1 17.0 15.1 17.0 14.0 16.0 14.0 16.0 3.0 15.0 3.0 15.0 1.0 10.8 1.0 10.8 3.0 14.0 3.0 14.0 14.95 14.95 15.0 14.95 16.0 M22.0 21.0 L23.0 21.0 23.0 19.0 22.0 19.0 22.0 21.0 M34.0 19.4 L34.0 19.7 34.0 20.95 34.0 21.0 34.05 21.0 35.0 21.0 35.0 19.0 34.0 19.0 34.0 19.4" fill="#000000" fill-rule="evenodd" stroke="none"/>
    <path d="M10.3 -1.0 L46.75 -1.0 46.75 0.0 10.3 0.0 10.3 -1.0 M42.05 16.0 L42.0 16.05 41.0 16.05 41.0 17.0 40.0 17.0 40.0 18.0 39.0 18.0 39.0 19.0 38.0 19.0 38.0 20.0 36.0 20.0 36.0 18.0 37.0 18.0 37.0 17.0 38.0 17.0 38.0 16.0 39.0 16.0 39.0 15.1 40.0 15.1 40.0 14.0 41.0 14.0 41.0 3.0 42.0 3.0 42.0 1.0 46.2 1.0 46.2 3.0 43.0 3.0 43.0 14.95 42.05 15.0 42.05 16.0 M15.0 16.05 L14.95 16.0 14.95 15.0 14.0 14.95 14.0 3.0 10.8 3.0 10.8 1.0 15.0 1.0 15.0 3.0 16.0 3.0 16.0 14.0 17.0 14.0 17.0 15.1 18.0 15.1 18.0 16.0 19.0 16.0 19.0 17.0 20.0 17.0 20.0 18.0 21.0 18.0 21.0 20.0 19.0 20.0 19.0 19.0 18.0 19.0 18.0 18.0 17.0 18.0 17.0 17.0 16.0 17.0 16.0 16.05 15.0 16.05" fill="#ffffff" fill-rule="evenodd" stroke="none"/>
    <path d="M22.0 21.0 L22.0 19.0 23.0 19.0 23.0 21.0 22.0 21.0 M34.0 19.7 L34.05 19.4 34.0 19.4 34.0 19.0 35.0 19.0 35.0 21.0 34.05 21.0 34.0 20.95 34.0 19.7" fill="#656565" fill-rule="evenodd" stroke="none"/>
  </g>
</svg>
