<?xml version="1.0" encoding="UTF-8" standalone="no"?>
<svg xmlns:ffdec="https://www.free-decompiler.com/flash" xmlns:xlink="http://www.w3.org/1999/xlink" ffdec:objectType="shape" height="14.0px" width="19.0px" xmlns="http://www.w3.org/2000/svg">
  <g transform="matrix(1.0, 0.0, 0.0, 1.0, 9.0, 6.0)">
    <path d="M2.0 -1.0 L2.0 5.0 4.0 5.0 4.0 -1.0 2.0 -1.0 M4.0 -2.0 L4.0 -5.0 2.0 -5.0 2.0 -2.0 4.0 -2.0 M5.0 -6.0 L5.0 4.0 7.0 4.0 7.0 5.0 10.0 5.0 10.0 8.0 -9.0 8.0 -9.0 6.0 -8.0 6.0 -8.0 5.0 -6.0 5.0 -6.0 4.0 -4.0 4.0 -4.0 -6.0 0.0 -6.0 0.0 5.0 1.0 5.0 1.0 -6.0 5.0 -6.0 M6.0 5.0 L5.0 5.0 5.0 6.0 4.0 6.0 4.0 7.0 7.0 7.0 7.0 6.0 6.0 6.0 6.0 5.0 M-3.0 -1.0 L-3.0 5.0 -1.0 5.0 -1.0 -1.0 -3.0 -1.0 M-3.0 -5.0 L-3.0 -2.0 -1.0 -2.0 -1.0 -5.0 -3.0 -5.0 M-4.0 5.0 L-5.0 5.0 -5.0 6.0 -6.0 6.0 -6.0 7.0 -3.0 7.0 -3.0 6.0 -4.0 6.0 -4.0 5.0" fill="#000000" fill-rule="evenodd" stroke="none"/>
    <path d="M4.0 -2.0 L2.0 -2.0 2.0 -5.0 4.0 -5.0 4.0 -2.0 M2.0 -1.0 L4.0 -1.0 4.0 5.0 2.0 5.0 2.0 -1.0 M-3.0 -5.0 L-1.0 -5.0 -1.0 -2.0 -3.0 -2.0 -3.0 -5.0 M-3.0 -1.0 L-1.0 -1.0 -1.0 5.0 -3.0 5.0 -3.0 -1.0" fill="#ffffff" fill-rule="evenodd" stroke="none"/>
    <path d="M6.0 5.0 L6.0 6.0 7.0 6.0 7.0 7.0 4.0 7.0 4.0 6.0 5.0 6.0 5.0 5.0 6.0 5.0 M-4.0 5.0 L-4.0 6.0 -3.0 6.0 -3.0 7.0 -6.0 7.0 -6.0 6.0 -5.0 6.0 -5.0 5.0 -4.0 5.0" fill="#c8cbc8" fill-rule="evenodd" stroke="none"/>
  </g>
</svg>
