<?xml version="1.0" encoding="UTF-8" standalone="no"?>
<svg xmlns:ffdec="https://www.free-decompiler.com/flash" xmlns:xlink="http://www.w3.org/1999/xlink" ffdec:objectType="shape" height="29.0px" width="33.0px" xmlns="http://www.w3.org/2000/svg">
  <g transform="matrix(1.0, 0.0, 0.0, 1.0, 16.0, 15.0)">
    <path d="M13.0 -13.0 L13.0 -11.0 14.0 -11.0 14.0 -9.0 13.0 -9.0 13.0 -7.0 14.0 -7.0 14.0 -6.0 15.0 -6.0 15.0 -5.0 16.0 -5.0 16.0 -2.0 15.0 -2.0 15.0 -1.0 14.0 -1.0 14.0 1.0 13.0 1.0 13.0 6.0 14.0 6.0 14.0 7.0 15.0 7.0 15.0 6.0 17.0 6.0 17.0 9.0 16.0 9.0 16.0 10.0 15.0 10.0 15.0 11.0 14.0 11.0 14.0 12.0 13.0 12.0 13.0 14.0 10.0 14.0 10.0 13.0 9.0 13.0 9.0 12.0 8.0 12.0 8.0 10.0 9.0 10.0 9.0 -3.0 8.0 -3.0 8.0 -4.0 5.0 -4.0 5.0 -5.0 4.0 -5.0 4.0 -6.0 3.0 -6.0 3.0 -7.0 0.0 -7.0 0.0 -6.0 1.0 -6.0 1.0 -5.0 2.0 -5.0 2.0 -4.0 1.0 -4.0 1.0 -3.0 -2.0 -3.0 -2.0 -4.0 -3.0 -4.0 -3.0 -5.0 -7.0 -5.0 -7.0 -4.0 -8.0 -4.0 -8.0 10.0 -7.0 10.0 -7.0 12.0 -8.0 12.0 -8.0 13.0 -9.0 13.0 -9.0 14.0 -13.0 14.0 -13.0 13.0 -14.0 13.0 -14.0 12.0 -15.0 12.0 -15.0 11.0 -16.0 11.0 -16.0 8.0 -15.0 8.0 -15.0 9.0 -14.0 9.0 -14.0 7.0 -15.0 7.0 -15.0 4.0 -14.0 4.0 -14.0 2.0 -13.0 2.0 -13.0 1.0 -14.0 1.0 -14.0 0.0 -15.0 0.0 -15.0 -2.0 -14.0 -2.0 -14.0 -3.0 -13.0 -3.0 -13.0 -6.0 -14.0 -6.0 -14.0 -10.0 -13.0 -10.0 -13.0 -11.0 -12.0 -11.0 -12.0 -12.0 -10.0 -12.0 -10.0 -11.0 -9.0 -11.0 -9.0 -12.0 -8.0 -12.0 -8.0 -13.0 -7.0 -13.0 -7.0 -14.0 -5.0 -14.0 -5.0 -15.0 5.0 -15.0 5.0 -14.0 7.0 -14.0 7.0 -13.0 9.0 -13.0 9.0 -14.0 11.0 -14.0 11.0 -13.0 13.0 -13.0 M4.0 -14.0 L-4.0 -14.0 -4.0 -13.0 -7.0 -13.0 -7.0 -12.0 -8.0 -12.0 -8.0 -11.0 -9.0 -11.0 -9.0 -10.0 -11.0 -10.0 -11.0 -11.0 -12.0 -11.0 -12.0 -10.0 -13.0 -10.0 -13.0 -7.0 -12.0 -7.0 -12.0 -3.0 -13.0 -3.0 -13.0 -2.0 -14.0 -2.0 -14.0 0.0 -12.0 0.0 -12.0 3.0 -13.0 3.0 -13.0 4.0 -14.0 4.0 -14.0 7.0 -13.0 7.0 -13.0 9.0 -14.0 9.0 -14.0 10.0 -15.0 10.0 -15.0 11.0 -14.0 11.0 -14.0 12.0 -13.0 12.0 -13.0 13.0 -10.0 13.0 -10.0 12.0 -8.0 12.0 -8.0 11.0 -9.0 11.0 -9.0 -1.0 -11.0 -1.0 -11.0 -6.0 -10.0 -6.0 -10.0 -7.0 -8.0 -7.0 -8.0 -8.0 -7.0 -8.0 -7.0 -9.0 -6.0 -9.0 -6.0 -10.0 -5.0 -10.0 -5.0 -11.0 -4.0 -11.0 -4.0 -12.0 5.0 -12.0 5.0 -11.0 6.0 -11.0 6.0 -10.0 7.0 -10.0 7.0 -9.0 8.0 -9.0 8.0 -8.0 9.0 -8.0 9.0 -7.0 11.0 -7.0 11.0 -6.0 12.0 -6.0 12.0 -1.0 10.0 -1.0 10.0 11.0 9.0 11.0 9.0 12.0 11.0 12.0 11.0 13.0 12.0 13.0 12.0 12.0 13.0 12.0 13.0 11.0 14.0 11.0 14.0 10.0 15.0 10.0 15.0 9.0 16.0 9.0 16.0 7.0 15.0 7.0 15.0 8.0 13.0 8.0 13.0 6.0 12.0 6.0 12.0 0.0 13.0 0.0 13.0 -2.0 14.0 -2.0 14.0 -3.0 15.0 -3.0 15.0 -4.0 14.0 -4.0 14.0 -6.0 13.0 -6.0 13.0 -7.0 12.0 -7.0 12.0 -9.0 13.0 -9.0 13.0 -10.0 12.0 -10.0 12.0 -12.0 11.0 -12.0 11.0 -13.0 9.0 -13.0 9.0 -12.0 6.0 -12.0 6.0 -13.0 4.0 -13.0 4.0 -14.0 M8.0 -8.0 L7.0 -8.0 7.0 -9.0 6.0 -9.0 6.0 -10.0 5.0 -10.0 5.0 -11.0 -4.0 -11.0 -4.0 -10.0 -5.0 -10.0 -5.0 -9.0 -6.0 -9.0 -6.0 -8.0 -7.0 -8.0 -7.0 -7.0 -8.0 -7.0 -8.0 -6.0 -10.0 -6.0 -10.0 -2.0 -9.0 -2.0 -9.0 -5.0 -7.0 -5.0 -7.0 -6.0 -3.0 -6.0 -3.0 -5.0 -2.0 -5.0 -2.0 -4.0 1.0 -4.0 1.0 -5.0 0.0 -5.0 0.0 -6.0 -1.0 -6.0 -1.0 -7.0 0.0 -7.0 0.0 -8.0 3.0 -8.0 3.0 -7.0 4.0 -7.0 4.0 -6.0 5.0 -6.0 5.0 -5.0 8.0 -5.0 8.0 -4.0 10.0 -4.0 10.0 -2.0 11.0 -2.0 11.0 -6.0 9.0 -6.0 9.0 -7.0 8.0 -7.0 8.0 -8.0" fill="#000000" fill-rule="evenodd" stroke="none"/>
    <path d="M8.0 -8.0 L8.0 -7.0 9.0 -7.0 9.0 -6.0 11.0 -6.0 11.0 -2.0 10.0 -2.0 10.0 -4.0 8.0 -4.0 8.0 -5.0 5.0 -5.0 5.0 -6.0 4.0 -6.0 4.0 -7.0 3.0 -7.0 3.0 -8.0 0.0 -8.0 0.0 -7.0 -1.0 -7.0 -1.0 -6.0 0.0 -6.0 0.0 -5.0 1.0 -5.0 1.0 -4.0 -2.0 -4.0 -2.0 -5.0 -3.0 -5.0 -3.0 -6.0 -7.0 -6.0 -7.0 -5.0 -9.0 -5.0 -9.0 -2.0 -10.0 -2.0 -10.0 -6.0 -8.0 -6.0 -8.0 -7.0 -7.0 -7.0 -7.0 -8.0 -6.0 -8.0 -6.0 -9.0 -5.0 -9.0 -5.0 -10.0 -4.0 -10.0 -4.0 -11.0 5.0 -11.0 5.0 -10.0 6.0 -10.0 6.0 -9.0 7.0 -9.0 7.0 -8.0 8.0 -8.0 8.0 -9.0 7.0 -9.0 7.0 -10.0 6.0 -10.0 6.0 -11.0 5.0 -11.0 5.0 -12.0 -4.0 -12.0 -4.0 -11.0 -5.0 -11.0 -5.0 -10.0 -6.0 -10.0 -6.0 -9.0 -7.0 -9.0 -7.0 -8.0 -8.0 -8.0 -8.0 -7.0 -10.0 -7.0 -10.0 -6.0 -11.0 -6.0 -11.0 -1.0 -9.0 -1.0 -9.0 11.0 -8.0 11.0 -8.0 12.0 -10.0 12.0 -10.0 13.0 -13.0 13.0 -13.0 12.0 -14.0 12.0 -14.0 11.0 -15.0 11.0 -15.0 10.0 -14.0 10.0 -14.0 9.0 -13.0 9.0 -13.0 7.0 -14.0 7.0 -14.0 4.0 -13.0 4.0 -13.0 3.0 -12.0 3.0 -12.0 0.0 -14.0 0.0 -14.0 -2.0 -13.0 -2.0 -13.0 -3.0 -12.0 -3.0 -12.0 -7.0 -13.0 -7.0 -13.0 -10.0 -12.0 -10.0 -12.0 -11.0 -11.0 -11.0 -11.0 -10.0 -9.0 -10.0 -9.0 -11.0 -8.0 -11.0 -8.0 -12.0 -7.0 -12.0 -7.0 -13.0 -4.0 -13.0 -4.0 -14.0 4.0 -14.0 4.0 -13.0 6.0 -13.0 6.0 -12.0 9.0 -12.0 9.0 -13.0 11.0 -13.0 11.0 -12.0 12.0 -12.0 12.0 -10.0 13.0 -10.0 13.0 -9.0 12.0 -9.0 12.0 -7.0 13.0 -7.0 13.0 -6.0 14.0 -6.0 14.0 -4.0 15.0 -4.0 15.0 -3.0 14.0 -3.0 14.0 -2.0 13.0 -2.0 13.0 0.0 12.0 0.0 12.0 6.0 13.0 6.0 13.0 8.0 15.0 8.0 15.0 7.0 16.0 7.0 16.0 9.0 15.0 9.0 15.0 10.0 14.0 10.0 14.0 11.0 13.0 11.0 13.0 12.0 12.0 12.0 12.0 13.0 11.0 13.0 11.0 12.0 9.0 12.0 9.0 11.0 10.0 11.0 10.0 -1.0 12.0 -1.0 12.0 -6.0 11.0 -6.0 11.0 -7.0 9.0 -7.0 9.0 -8.0 8.0 -8.0" fill="#636363" fill-rule="evenodd" stroke="none"/>
  </g>
</svg>
