<?xml version="1.0" encoding="UTF-8" standalone="no"?>
<svg xmlns:ffdec="https://www.free-decompiler.com/flash" xmlns:xlink="http://www.w3.org/1999/xlink" ffdec:objectType="shape" height="22.05px" width="49.0px" xmlns="http://www.w3.org/2000/svg">
  <g transform="matrix(1.0, 0.0, 0.0, 1.0, 25.0, 29.0)">
    <path d="M16.0 -23.0 L19.0 -23.0 19.0 -24.0 20.0 -24.0 20.0 -25.0 12.0 -25.0 12.0 -23.0 11.0 -23.0 11.0 -21.0 10.0 -21.0 10.0 -18.0 9.0 -18.0 9.0 -16.0 8.0 -16.0 8.0 -14.0 7.0 -14.0 7.0 -12.0 6.0 -12.0 6.0 -10.0 5.0 -10.0 5.0 -8.0 4.0 -8.0 4.0 -10.0 5.0 -10.0 5.0 -12.0 6.0 -12.0 6.0 -14.0 7.0 -14.0 7.0 -16.0 8.0 -16.0 8.0 -19.0 9.0 -19.0 9.0 -21.0 10.0 -21.0 10.0 -23.0 11.0 -23.0 11.0 -26.0 21.0 -26.0 21.0 -24.0 20.0 -24.0 20.0 -23.0 19.0 -23.0 19.0 -22.0 15.0 -22.0 15.0 -23.0 16.0 -23.0 M6.0 -8.0 L6.0 -9.0 7.0 -9.0 7.0 -11.0 8.0 -11.0 8.0 -13.0 9.0 -13.0 9.0 -15.0 10.0 -15.0 10.0 -17.0 11.0 -17.0 11.0 -20.0 12.0 -20.0 12.0 -22.0 13.0 -22.0 13.0 -23.0 14.0 -23.0 14.0 -24.0 15.0 -24.0 15.0 -23.0 14.0 -23.0 14.0 -22.0 13.0 -22.0 13.0 -20.0 12.0 -20.0 12.0 -17.0 11.0 -17.0 11.0 -15.0 10.0 -15.0 10.0 -12.0 9.0 -12.0 9.0 -10.0 8.0 -10.0 8.0 -8.0 7.0 -8.0 7.0 -7.0 6.0 -7.0 6.0 -8.0" fill="#000000" fill-rule="evenodd" stroke="none"/>
    <path d="M5.0 -8.0 L5.0 -10.0 6.0 -10.0 6.0 -12.0 7.0 -12.0 7.0 -14.0 8.0 -14.0 8.0 -16.0 9.0 -16.0 9.0 -18.0 10.0 -18.0 10.0 -21.0 11.0 -21.0 11.0 -23.0 12.0 -23.0 12.0 -25.0 20.0 -25.0 20.0 -24.0 19.0 -24.0 19.0 -23.0 16.0 -23.0 16.0 -24.0 15.0 -24.0 14.0 -24.0 14.0 -23.0 13.0 -23.0 13.0 -22.0 12.0 -22.0 12.0 -20.0 11.0 -20.0 11.0 -17.0 10.0 -17.0 10.0 -15.0 9.0 -15.0 9.0 -13.0 8.0 -13.0 8.0 -11.0 7.0 -11.0 7.0 -9.0 6.0 -9.0 6.0 -8.0 5.0 -8.0" fill="#ffffff" fill-rule="evenodd" stroke="none"/>
    <path d="M-7.0 -7.95 L-7.0 -6.95 -8.0 -6.95 -8.0 -7.95 -9.0 -7.95 -9.0 -9.95 -10.0 -9.95 -10.0 -11.95 -11.0 -11.95 -11.0 -14.95 -12.0 -14.95 -12.0 -16.95 -13.0 -16.95 -13.0 -19.95 -14.0 -19.95 -14.0 -21.95 -15.0 -21.95 -15.0 -22.95 -16.0 -22.95 -16.0 -21.95 -20.0 -21.95 -20.0 -22.95 -21.0 -22.95 -21.0 -23.95 -22.0 -23.95 -22.0 -25.95 -12.0 -25.95 -12.0 -22.95 -11.0 -22.95 -11.0 -20.95 -10.0 -20.95 -10.0 -18.95 -9.0 -18.95 -9.0 -15.95 -8.0 -15.95 -8.0 -13.95 -7.0 -13.95 -7.0 -11.95 -6.0 -11.95 -6.0 -9.95 -5.0 -9.95 -5.0 -7.95 -6.0 -7.95 -6.0 -9.95 -7.0 -9.95 -7.0 -11.95 -8.0 -11.95 -8.0 -13.95 -9.0 -13.95 -9.0 -15.95 -10.0 -15.95 -10.0 -17.95 -11.0 -17.95 -11.0 -20.95 -12.0 -20.95 -12.0 -22.95 -13.0 -22.95 -13.0 -24.95 -21.0 -24.95 -21.0 -23.95 -20.0 -23.95 -20.0 -22.95 -17.0 -22.95 -16.0 -22.95 -16.0 -23.95 -15.0 -23.95 -15.0 -22.95 -14.0 -22.95 -14.0 -21.95 -13.0 -21.95 -13.0 -19.95 -12.0 -19.95 -12.0 -16.95 -11.0 -16.95 -11.0 -14.95 -10.0 -14.95 -10.0 -12.95 -9.0 -12.95 -9.0 -10.95 -8.0 -10.95 -8.0 -8.95 -7.0 -8.95 -7.0 -7.95" fill="#000000" fill-rule="evenodd" stroke="none"/>
    <path d="M-6.0 -7.95 L-7.0 -7.95 -7.0 -8.95 -8.0 -8.95 -8.0 -10.95 -9.0 -10.95 -9.0 -12.95 -10.0 -12.95 -10.0 -14.95 -11.0 -14.95 -11.0 -16.95 -12.0 -16.95 -12.0 -19.95 -13.0 -19.95 -13.0 -21.95 -14.0 -21.95 -14.0 -22.95 -15.0 -22.95 -15.0 -23.95 -16.0 -23.95 -17.0 -23.95 -17.0 -22.95 -20.0 -22.95 -20.0 -23.95 -21.0 -23.95 -21.0 -24.95 -13.0 -24.95 -13.0 -22.95 -12.0 -22.95 -12.0 -20.95 -11.0 -20.95 -11.0 -17.95 -10.0 -17.95 -10.0 -15.95 -9.0 -15.95 -9.0 -13.95 -8.0 -13.95 -8.0 -11.95 -7.0 -11.95 -7.0 -9.95 -6.0 -9.95 -6.0 -7.95" fill="#ffffff" fill-rule="evenodd" stroke="none"/>
    <path d="M24.0 -28.0 L24.0 -26.0 23.0 -26.0 23.0 -25.0 -24.0 -25.0 -24.0 -26.0 -25.0 -26.0 -25.0 -28.0 -24.0 -28.0 -24.0 -29.0 23.0 -29.0 23.0 -28.0 24.0 -28.0 M1.0 -28.0 L-23.0 -28.0 -23.0 -26.0 22.0 -26.0 22.0 -28.0 3.0 -28.0 1.0 -28.0" fill="#000000" fill-rule="evenodd" stroke="none"/>
    <path d="M3.0 -28.0 L22.0 -28.0 22.0 -26.0 -23.0 -26.0 -23.0 -28.0 1.0 -28.0 1.0 -27.0 3.0 -27.0 3.0 -28.0 M-17.9 -22.95 L-17.9 -23.95 -15.9 -23.95 -15.9 -22.95 -17.9 -22.95" fill="#ffffff" fill-rule="evenodd" stroke="none"/>
  </g>
</svg>
