<?xml version="1.0" encoding="UTF-8" standalone="no"?>
<svg xmlns:ffdec="https://www.free-decompiler.com/flash" xmlns:xlink="http://www.w3.org/1999/xlink" ffdec:objectType="shape" height="21.0px" width="17.0px" xmlns="http://www.w3.org/2000/svg">
  <g transform="matrix(1.0, 0.0, 0.0, 1.0, 8.0, 9.0)">
    <path d="M-1.0 -9.0 L2.0 -9.0 2.0 -7.0 5.0 -7.0 5.0 -6.0 7.0 -6.0 7.0 -5.0 8.0 -5.0 8.0 -4.0 9.0 -4.0 9.0 -3.0 8.0 -3.0 8.0 -2.0 7.0 -2.0 7.0 -1.0 4.0 -1.0 4.0 2.0 5.0 2.0 5.0 6.0 6.0 6.0 6.0 7.0 7.0 7.0 7.0 9.0 8.0 9.0 8.0 10.0 9.0 10.0 9.0 12.0 -8.0 12.0 -8.0 10.0 -7.0 10.0 -7.0 9.0 -6.0 9.0 -6.0 7.0 -5.0 7.0 -5.0 6.0 -4.0 6.0 -4.0 2.0 -3.0 2.0 -3.0 -1.0 -6.0 -1.0 -6.0 -2.0 -7.0 -2.0 -7.0 -3.0 -8.0 -3.0 -8.0 -4.0 -7.0 -4.0 -7.0 -5.0 -6.0 -5.0 -6.0 -6.0 -4.0 -6.0 -4.0 -7.0 -1.0 -7.0 -1.0 -9.0 M1.0 -8.0 L0.0 -8.0 0.0 -6.0 1.0 -6.0 1.0 -8.0 M6.0 -5.0 L5.0 -5.0 5.0 -4.0 1.0 -4.0 1.0 -3.0 2.0 -3.0 2.0 1.0 1.0 1.0 1.0 2.0 0.0 2.0 0.0 1.0 -1.0 1.0 -1.0 -3.0 0.0 -3.0 0.0 -4.0 -4.0 -4.0 -4.0 -5.0 -5.0 -5.0 -5.0 -4.0 -6.0 -4.0 -6.0 -3.0 -5.0 -3.0 -5.0 -2.0 -4.0 -2.0 -4.0 -3.0 -3.0 -3.0 -3.0 -2.0 -2.0 -2.0 -2.0 3.0 -3.0 3.0 -3.0 5.0 -2.0 5.0 -2.0 4.0 -1.0 4.0 -1.0 3.0 2.0 3.0 2.0 4.0 3.0 4.0 3.0 5.0 4.0 5.0 4.0 3.0 3.0 3.0 3.0 -2.0 4.0 -2.0 4.0 -3.0 5.0 -3.0 5.0 -2.0 6.0 -2.0 6.0 -3.0 7.0 -3.0 7.0 -4.0 6.0 -4.0 6.0 -5.0 M4.0 -6.0 L2.0 -6.0 2.0 -5.0 4.0 -5.0 4.0 -6.0 M1.0 -5.0 L0.0 -5.0 0.0 -4.0 1.0 -4.0 1.0 -5.0 M1.0 6.0 L1.0 7.0 2.0 7.0 2.0 6.0 1.0 6.0 M2.0 4.0 L1.0 4.0 1.0 5.0 2.0 5.0 2.0 4.0 M3.0 6.0 L3.0 7.0 4.0 7.0 4.0 6.0 3.0 6.0 M1.0 -3.0 L0.0 -3.0 0.0 1.0 1.0 1.0 1.0 -3.0 M6.0 8.0 L5.0 8.0 5.0 9.0 6.0 9.0 6.0 8.0 M6.0 10.0 L5.0 10.0 5.0 11.0 6.0 11.0 6.0 10.0 M8.0 10.0 L7.0 10.0 7.0 11.0 8.0 11.0 8.0 10.0 M4.0 8.0 L3.0 8.0 3.0 9.0 4.0 9.0 4.0 8.0 M2.0 8.0 L1.0 8.0 1.0 9.0 2.0 9.0 2.0 8.0 M2.0 10.0 L1.0 10.0 1.0 11.0 2.0 11.0 2.0 10.0 M3.0 11.0 L4.0 11.0 4.0 10.0 3.0 10.0 3.0 11.0 M-1.0 -6.0 L-3.0 -6.0 -3.0 -5.0 -1.0 -5.0 -1.0 -6.0 M-1.0 6.0 L-1.0 7.0 0.0 7.0 0.0 6.0 -1.0 6.0 M-1.0 4.0 L-1.0 5.0 0.0 5.0 0.0 4.0 -1.0 4.0 M-3.0 6.0 L-3.0 7.0 -2.0 7.0 -2.0 6.0 -3.0 6.0 M-1.0 9.0 L0.0 9.0 0.0 8.0 -1.0 8.0 -1.0 9.0 M-2.0 8.0 L-3.0 8.0 -3.0 9.0 -2.0 9.0 -2.0 8.0 M-4.0 8.0 L-5.0 8.0 -5.0 9.0 -4.0 9.0 -4.0 8.0 M-3.0 11.0 L-2.0 11.0 -2.0 10.0 -3.0 10.0 -3.0 11.0 M-4.0 10.0 L-5.0 10.0 -5.0 11.0 -4.0 11.0 -4.0 10.0 M0.0 11.0 L0.0 10.0 -1.0 10.0 -1.0 11.0 0.0 11.0 M-7.0 10.0 L-7.0 11.0 -6.0 11.0 -6.0 10.0 -7.0 10.0" fill="#000000" fill-rule="evenodd" stroke="none"/>
    <path d="M1.0 -8.0 L1.0 -6.0 0.0 -6.0 0.0 -8.0 1.0 -8.0 M4.0 -6.0 L4.0 -5.0 2.0 -5.0 2.0 -6.0 4.0 -6.0 M6.0 -5.0 L6.0 -4.0 7.0 -4.0 7.0 -3.0 6.0 -3.0 6.0 -2.0 5.0 -2.0 5.0 -3.0 4.0 -3.0 4.0 -2.0 3.0 -2.0 3.0 3.0 4.0 3.0 4.0 5.0 3.0 5.0 3.0 4.0 2.0 4.0 2.0 3.0 -1.0 3.0 -1.0 4.0 -2.0 4.0 -2.0 5.0 -3.0 5.0 -3.0 3.0 -2.0 3.0 -2.0 -2.0 -3.0 -2.0 -3.0 -3.0 -4.0 -3.0 -4.0 -2.0 -5.0 -2.0 -5.0 -3.0 -6.0 -3.0 -6.0 -4.0 -5.0 -4.0 -5.0 -5.0 -4.0 -5.0 -4.0 -4.0 0.0 -4.0 0.0 -3.0 -1.0 -3.0 -1.0 1.0 0.0 1.0 0.0 2.0 1.0 2.0 1.0 1.0 2.0 1.0 2.0 -3.0 1.0 -3.0 1.0 -4.0 5.0 -4.0 5.0 -5.0 6.0 -5.0 M-1.0 -6.0 L-1.0 -5.0 -3.0 -5.0 -3.0 -6.0 -1.0 -6.0" fill="#ffffff" fill-rule="evenodd" stroke="none"/>
    <path d="M3.0 6.0 L4.0 6.0 4.0 7.0 3.0 7.0 3.0 6.0 M2.0 4.0 L2.0 5.0 1.0 5.0 1.0 4.0 2.0 4.0 M1.0 6.0 L2.0 6.0 2.0 7.0 1.0 7.0 1.0 6.0 M1.0 -5.0 L1.0 -4.0 0.0 -4.0 0.0 -5.0 1.0 -5.0 M1.0 -3.0 L1.0 1.0 0.0 1.0 0.0 -3.0 1.0 -3.0 M3.0 11.0 L3.0 10.0 4.0 10.0 4.0 11.0 3.0 11.0 M2.0 10.0 L2.0 11.0 1.0 11.0 1.0 10.0 2.0 10.0 M2.0 8.0 L2.0 9.0 1.0 9.0 1.0 8.0 2.0 8.0 M4.0 8.0 L4.0 9.0 3.0 9.0 3.0 8.0 4.0 8.0 M8.0 10.0 L8.0 11.0 7.0 11.0 7.0 10.0 8.0 10.0 M6.0 10.0 L6.0 11.0 5.0 11.0 5.0 10.0 6.0 10.0 M6.0 8.0 L6.0 9.0 5.0 9.0 5.0 8.0 6.0 8.0 M-7.0 10.0 L-6.0 10.0 -6.0 11.0 -7.0 11.0 -7.0 10.0 M0.0 11.0 L-1.0 11.0 -1.0 10.0 0.0 10.0 0.0 11.0 M-4.0 10.0 L-4.0 11.0 -5.0 11.0 -5.0 10.0 -4.0 10.0 M-3.0 11.0 L-3.0 10.0 -2.0 10.0 -2.0 11.0 -3.0 11.0 M-4.0 8.0 L-4.0 9.0 -5.0 9.0 -5.0 8.0 -4.0 8.0 M-2.0 8.0 L-2.0 9.0 -3.0 9.0 -3.0 8.0 -2.0 8.0 M-1.0 9.0 L-1.0 8.0 0.0 8.0 0.0 9.0 -1.0 9.0 M-3.0 6.0 L-2.0 6.0 -2.0 7.0 -3.0 7.0 -3.0 6.0 M-1.0 4.0 L0.0 4.0 0.0 5.0 -1.0 5.0 -1.0 4.0 M-1.0 6.0 L0.0 6.0 0.0 7.0 -1.0 7.0 -1.0 6.0" fill="#767676" fill-rule="evenodd" stroke="none"/>
  </g>
</svg>
