<?xml version="1.0" encoding="UTF-8" standalone="no"?>
<svg xmlns:ffdec="https://www.free-decompiler.com/flash" xmlns:xlink="http://www.w3.org/1999/xlink" ffdec:objectType="shape" height="14.0px" width="10.0px" xmlns="http://www.w3.org/2000/svg">
  <g transform="matrix(1.0, 0.0, 0.0, 1.0, 6.5, 5.5)">
    <path d="M-5.5 -5.5 L-5.5 -4.5 2.5 -4.5 2.5 -5.5 3.5 -5.5 3.5 -3.5 1.15 -3.5 1.15 -2.5 -0.5 -2.5 -0.5 -0.3 0.5 -0.3 0.5 2.6 -0.5 2.6 -0.5 0.6 -1.5 0.6 -1.5 -2.5 -1.0 -2.5 -1.0 -3.5 -3.0 -3.5 -3.0 -2.5 -3.5 -2.5 -3.5 -1.5 -4.5 -1.5 -4.5 0.6 -5.5 0.6 -5.5 -2.5 -4.0 -2.5 -4.0 -3.5 -6.5 -3.5 -6.5 -5.5 -5.5 -5.5 M-2.5 4.5 L1.5 4.5 1.5 3.5 0.5 3.5 0.5 2.6 1.5 2.6 1.5 3.5 2.5 3.5 2.5 8.5 -5.5 8.5 -5.5 6.5 -4.5 6.5 -4.5 5.5 -2.5 5.5 -2.5 4.5 M-3.5 4.5 L-4.5 4.5 -4.5 0.6 -3.5 0.6 -3.5 4.5" fill="#000000" fill-rule="evenodd" stroke="none"/>
    <path d="M2.5 -5.5 L2.5 -4.5 -5.5 -4.5 -5.5 -5.5 2.5 -5.5" fill="#c8cbc8" fill-rule="evenodd" stroke="none"/>
    <path d="M-4.5 0.6 L-4.5 -1.5 -3.5 -1.5 -3.5 -2.5 -3.0 -2.5 -3.0 -3.5 -1.0 -3.5 -1.0 -2.5 -1.5 -2.5 -1.5 0.6 -0.5 0.6 -0.5 2.6 0.5 2.6 0.5 3.5 1.5 3.5 1.5 4.5 -2.5 4.5 -3.5 4.5 -3.5 0.6 -4.5 0.6" fill="#656565" fill-rule="evenodd" stroke="none"/>
  </g>
</svg>
