<?xml version="1.0" encoding="UTF-8" standalone="no"?>
<svg xmlns:ffdec="https://www.free-decompiler.com/flash" xmlns:xlink="http://www.w3.org/1999/xlink" ffdec:objectType="shape" height="11.0px" width="11.0px" xmlns="http://www.w3.org/2000/svg">
  <g transform="matrix(1.0, 0.0, 0.0, 1.0, 5.5, 5.5)">
    <path d="M-4.5 -4.5 L-4.5 -2.5 -3.5 -2.5 -3.5 -0.5 -2.5 -0.5 -2.5 1.5 -1.5 1.5 -1.5 4.5 -0.5 4.5 -0.5 3.5 0.5 3.5 0.5 2.5 4.5 2.5 4.5 1.5 -0.5 1.5 -0.5 0.5 -1.5 0.5 -1.5 -1.5 -2.5 -1.5 -2.5 -3.5 -3.5 -3.5 -3.5 -4.5 -4.5 -4.5 M-0.5 -1.5 L-0.5 0.5 5.5 0.5 5.5 3.5 1.5 3.5 1.5 4.5 0.5 4.5 0.5 5.5 -2.5 5.5 -2.5 1.5 -3.5 1.5 -3.5 -0.5 -4.5 -0.5 -4.5 -2.5 -5.5 -2.5 -5.5 -5.5 -2.5 -5.5 -2.5 -3.5 -1.5 -3.5 -1.5 -1.5 -0.5 -1.5" fill="#000000" fill-rule="evenodd" stroke="none"/>
    <path d="M-4.5 -4.5 L-3.5 -4.5 -3.5 -3.5 -2.5 -3.5 -2.5 -1.5 -1.5 -1.5 -1.5 0.5 -0.5 0.5 -0.5 1.5 4.5 1.5 4.5 2.5 0.5 2.5 0.5 3.5 -0.5 3.5 -0.5 4.5 -1.5 4.5 -1.5 1.5 -2.5 1.5 -2.5 -0.5 -3.5 -0.5 -3.5 -2.5 -4.5 -2.5 -4.5 -4.5" fill="#ffffff" fill-rule="evenodd" stroke="none"/>
  </g>
</svg>
