<?xml version="1.0" encoding="UTF-8" standalone="no"?>
<svg xmlns:ffdec="https://www.free-decompiler.com/flash" xmlns:xlink="http://www.w3.org/1999/xlink" ffdec:objectType="shape" height="17.0px" width="9.0px" xmlns="http://www.w3.org/2000/svg">
  <g transform="matrix(1.0, 0.0, 0.0, 1.0, 9.75, 5.5)">
    <path d="M-4.7 -4.5 L-4.7 0.55 -5.7 0.55 -5.7 2.55 -6.7 2.55 -6.7 4.55 -7.7 4.55 -7.7 6.4 -7.7 7.4 -8.75 7.4 -8.75 9.5 -7.75 9.5 -7.75 8.5 -6.75 8.5 -6.75 9.5 -5.75 9.5 -5.75 10.5 -1.75 10.5 -1.75 9.5 -3.75 9.5 -3.75 8.5 -4.75 8.5 -4.75 7.5 -5.75 7.5 -5.7 3.5 -4.6 3.5 -4.65 3.45 -4.65 2.55 -3.7 2.55 -3.7 -4.5 -4.7 -4.5 M-2.7 -5.5 L-2.7 2.5 -3.65 2.5 -3.65 2.55 -3.7 2.55 -3.65 4.5 -4.8 4.5 -4.75 7.5 -3.75 7.5 -3.75 8.5 -0.75 8.5 -0.75 10.5 -1.75 10.5 -1.75 11.5 -5.75 11.5 -5.75 10.5 -6.75 10.5 -6.75 9.5 -7.75 9.5 -7.75 10.5 -8.75 10.5 -8.75 9.5 -9.75 9.5 -9.75 7.4 -8.75 7.4 -8.7 5.35 -8.75 5.35 -8.75 4.5 -7.7 4.5 -7.7 2.55 -6.85 2.55 -6.85 0.55 -5.7 0.55 -5.7 -5.5 -2.7 -5.5" fill="#000000" fill-rule="evenodd" stroke="none"/>
    <path d="M-4.7 -4.5 L-3.7 -4.5 -3.7 2.55 -4.65 2.55 -4.65 3.45 -4.6 3.5 -5.7 3.5 -5.75 7.5 -4.75 7.5 -4.75 8.5 -3.75 8.5 -3.75 9.5 -1.75 9.5 -1.75 10.5 -5.75 10.5 -5.75 9.5 -6.75 9.5 -6.75 8.5 -7.75 8.5 -7.75 9.5 -8.75 9.5 -8.75 7.4 -7.7 7.4 -7.7 6.4 -7.7 4.55 -6.7 4.55 -6.7 2.55 -5.7 2.55 -5.7 0.55 -4.7 0.55 -4.7 -4.5" fill="#ffffff" fill-rule="evenodd" stroke="none"/>
  </g>
</svg>
