<?xml version="1.0" encoding="UTF-8" standalone="no"?>
<svg xmlns:ffdec="https://www.free-decompiler.com/flash" xmlns:xlink="http://www.w3.org/1999/xlink" ffdec:objectType="shape" height="20.9px" width="17.05px" xmlns="http://www.w3.org/2000/svg">
  <g transform="matrix(1.0, 0.0, 0.0, 1.0, 19.75, 5.5)">
    <path d="M-3.7 2.45 L-3.7 -4.5 -4.7 -4.5 -4.7 1.5 -5.7 1.5 -5.7 -5.5 -2.7 -5.5 -2.7 2.5 -3.65 2.5 -3.65 2.55 -3.7 2.55 -3.7 2.45 M-5.7 1.5 L-5.7 2.5 -6.7 2.5 -6.7 3.5 -7.7 3.5 -7.7 4.5 -8.7 4.5 -8.7 5.5 -9.7 5.5 -9.7 4.5 -8.7 4.5 -8.7 3.5 -7.7 3.5 -7.7 2.5 -6.7 2.5 -6.7 1.5 -5.7 1.5 M-9.75 5.5 L-9.75 6.5 -10.75 6.5 -10.75 5.5 -9.75 5.5 M-10.8 6.5 L-10.8 7.4 -11.8 7.4 -11.8 6.4 -12.7 6.4 -12.7 5.55 -11.7 5.55 -11.7 6.4 -10.8 6.4 -10.8 6.5 M-12.75 6.4 L-12.75 8.4 -9.8 8.4 -9.75 7.45 -8.8 7.45 -8.75 6.45 -7.75 6.45 -7.75 5.45 -6.75 5.45 -6.75 4.45 -5.75 4.45 -5.75 3.45 -4.75 3.45 -4.75 2.45 -3.75 2.45 -3.75 3.45 -4.75 3.45 -4.75 4.45 -5.75 4.45 -5.75 5.45 -6.75 5.45 -6.75 6.45 -7.75 6.45 -7.75 7.45 Q-8.45 7.7 -8.8 7.45 L-8.8 8.4 -9.8 8.4 -9.8 9.4 -12.75 9.4 -12.75 10.4 -13.75 10.4 -13.75 11.4 -14.75 11.4 -14.75 12.4 -15.75 12.4 -15.75 14.4 -16.75 14.4 -16.75 15.4 -18.75 15.4 -18.75 14.4 -19.75 14.4 -19.75 12.4 -18.75 12.4 -18.75 11.4 -16.75 11.4 -16.75 10.4 -15.75 10.4 -15.75 9.4 -14.75 9.4 -14.75 8.4 -13.75 8.4 -13.75 6.4 -12.75 6.4 M-16.75 11.4 L-16.75 12.4 -18.75 12.4 -18.75 13.4 -17.75 13.4 -17.75 14.4 -16.75 14.4 -16.75 12.4 -15.75 12.4 -15.75 11.4 -14.75 11.4 -14.75 10.4 -13.75 10.4 -13.75 9.4 -12.8 9.4 -12.8 8.4 -13.75 8.4 -13.75 9.4 -14.75 9.4 -14.75 10.4 -15.75 10.4 -15.75 11.4 -16.75 11.4" fill="#000000" fill-rule="evenodd" stroke="none"/>
    <path d="M-5.7 1.5 L-4.7 1.5 -4.7 -4.5 -3.7 -4.5 -3.7 2.45 -3.75 2.45 -4.75 2.45 -4.75 3.45 -5.75 3.45 -5.75 4.45 -6.75 4.45 -6.75 5.45 -7.75 5.45 -7.75 6.45 -8.75 6.45 -8.8 7.45 -9.75 7.45 -9.8 8.4 -12.75 8.4 -12.75 6.4 -12.7 6.4 -11.8 6.4 -11.8 7.4 -10.8 7.4 -10.8 6.5 -10.75 6.5 -9.75 6.5 -9.75 5.5 -9.7 5.5 -8.7 5.5 -8.7 4.5 -7.7 4.5 -7.7 3.5 -6.7 3.5 -6.7 2.5 -5.7 2.5 -5.7 1.5 M-16.75 11.4 L-15.75 11.4 -15.75 10.4 -14.75 10.4 -14.75 9.4 -13.75 9.4 -13.75 8.4 -12.8 8.4 -12.8 9.4 -13.75 9.4 -13.75 10.4 -14.75 10.4 -14.75 11.4 -15.75 11.4 -15.75 12.4 -16.75 12.4 -16.75 14.4 -17.75 14.4 -17.75 13.4 -18.75 13.4 -18.75 12.4 -16.75 12.4 -16.75 11.4" fill="#ffffff" fill-rule="evenodd" stroke="none"/>
  </g>
</svg>
