<?xml version="1.0" encoding="UTF-8" standalone="no"?>
<svg xmlns:ffdec="https://www.free-decompiler.com/flash" xmlns:xlink="http://www.w3.org/1999/xlink" ffdec:objectType="shape" height="20.95px" width="13.05px" xmlns="http://www.w3.org/2000/svg">
  <g transform="matrix(1.0, 0.0, 0.0, 1.0, 15.75, 5.5)">
    <path d="M-2.7 -5.5 L-2.7 2.5 -3.65 2.5 -3.65 2.55 -3.7 2.55 -3.65 4.5 -4.8 4.5 -4.8 8.45 -5.8 8.45 -5.8 9.45 -8.75 9.45 -8.75 10.45 -9.75 10.45 -9.75 11.45 -10.75 11.45 -10.75 12.45 -11.75 12.45 -11.75 14.45 -12.75 14.45 -12.75 15.45 -14.75 15.45 -14.75 14.45 -15.75 14.45 -15.75 12.45 -14.75 12.45 -14.75 11.45 -12.75 11.45 -12.75 10.45 -11.75 10.45 -11.75 9.45 -10.75 9.45 -10.75 8.45 -9.75 8.45 -9.75 6.45 -8.75 6.45 -8.75 6.4 -8.7 6.4 -8.7 5.35 -8.75 5.35 -8.75 4.5 -7.7 4.5 -7.7 2.55 -6.85 2.55 -6.85 0.55 -5.7 0.55 -5.7 -5.5 -2.7 -5.5 M-4.7 -4.5 L-4.7 0.55 -5.7 0.55 -5.7 2.55 -6.7 2.55 -6.7 4.55 -7.7 4.55 -7.7 6.45 -6.8 6.45 -6.8 7.45 -7.8 7.45 -7.8 6.45 -8.75 6.45 -8.75 8.45 -5.8 8.45 -5.7 3.5 -4.6 3.5 -4.65 3.45 -4.65 2.55 -3.7 2.55 -3.7 -4.5 -4.7 -4.5 M-9.75 8.45 L-9.75 9.45 -8.8 9.45 -8.8 8.45 -9.75 8.45 M-9.75 9.45 L-10.75 9.45 -10.75 10.45 -9.75 10.45 -9.75 9.45 M-10.75 11.45 L-10.75 10.45 -11.75 10.45 -11.75 11.45 -12.75 11.45 -12.75 12.45 -14.75 12.45 -14.75 13.45 -13.75 13.45 -13.75 14.45 -12.75 14.45 -12.75 12.45 -11.75 12.45 -11.75 11.45 -10.75 11.45" fill="#000000" fill-rule="evenodd" stroke="none"/>
    <path d="M-9.75 9.45 L-9.75 10.45 -10.75 10.45 -10.75 9.45 -9.75 9.45 -9.75 8.45 -8.8 8.45 -8.8 9.45 -9.75 9.45 M-4.7 -4.5 L-3.7 -4.5 -3.7 2.55 -4.65 2.55 -4.65 3.45 -4.6 3.5 -5.7 3.5 -5.8 8.45 -8.75 8.45 -8.75 6.45 -7.8 6.45 -7.8 7.45 -6.8 7.45 -6.8 6.45 -7.7 6.45 -7.7 4.55 -6.7 4.55 -6.7 2.55 -5.7 2.55 -5.7 0.55 -4.7 0.55 -4.7 -4.5 M-10.75 11.45 L-11.75 11.45 -11.75 12.45 -12.75 12.45 -12.75 14.45 -13.75 14.45 -13.75 13.45 -14.75 13.45 -14.75 12.45 -12.75 12.45 -12.75 11.45 -11.75 11.45 -11.75 10.45 -10.75 10.45 -10.75 11.45" fill="#ffffff" fill-rule="evenodd" stroke="none"/>
  </g>
</svg>
