<?xml version="1.0" encoding="UTF-8" standalone="no"?>
<svg xmlns:ffdec="https://www.free-decompiler.com/flash" xmlns:xlink="http://www.w3.org/1999/xlink" ffdec:objectType="shape" height="19.0px" width="10.95px" xmlns="http://www.w3.org/2000/svg">
  <g transform="matrix(1.0, 0.0, 0.0, 1.0, 9.55, 5.5)">
    <path d="M-2.5 1.45 L-2.7 1.45 -2.7 1.5 -3.5 1.5 -3.5 -0.5 -4.5 -0.5 -4.5 -2.5 -5.5 -2.5 -5.5 -5.5 -2.5 -5.5 -2.5 -3.5 -1.5 -3.5 -1.5 -1.5 -0.6 -1.5 -0.6 0.5 0.4 0.5 0.4 2.5 1.4 2.5 1.4 6.5 0.4 6.5 0.4 7.5 -2.55 7.5 -2.55 8.5 -3.55 8.5 -3.55 9.5 -4.55 9.5 -4.55 10.5 -5.55 10.5 -5.55 12.5 -6.55 12.5 -6.55 13.5 -8.55 13.5 -8.55 12.5 -9.55 12.5 -9.55 10.5 -8.55 10.5 -8.55 9.5 -6.55 9.5 -6.55 8.5 -5.55 8.5 -5.55 7.5 -4.55 7.5 -4.55 6.5 -3.55 6.5 -3.55 4.5 -2.55 4.5 -2.55 4.45 -2.5 4.45 -2.5 3.4 -2.55 3.4 -2.55 1.5 -1.5 1.5 -1.5 4.5 -0.6 4.5 -0.6 5.5 -1.6 5.5 -1.6 4.5 -2.55 4.5 -2.55 6.5 0.4 6.5 0.4 2.5 -0.6 2.5 -0.6 0.5 -1.6 0.5 -1.6 -1.5 -2.5 -1.5 -2.5 -3.5 -3.5 -3.5 -3.5 -4.5 -4.5 -4.5 -4.5 -2.5 -3.5 -2.5 -3.5 -0.5 -2.5 -0.5 -2.5 1.45 M-8.55 11.5 L-7.55 11.5 -7.55 12.5 -6.55 12.5 -6.55 10.5 -8.55 10.5 -8.55 11.5 M-6.55 10.5 L-5.55 10.5 -5.55 9.5 -4.55 9.5 -4.55 8.5 -3.55 8.5 -3.55 7.5 -2.6 7.5 -2.6 6.5 -3.55 6.5 -3.55 7.5 -4.55 7.5 -4.55 8.5 -5.55 8.5 -5.55 9.5 -6.55 9.5 -6.55 10.5" fill="#000000" fill-rule="evenodd" stroke="none"/>
    <path d="M-2.55 1.5 L-2.5 1.45 -2.5 -0.5 -3.5 -0.5 -3.5 -2.5 -4.5 -2.5 -4.5 -4.5 -3.5 -4.5 -3.5 -3.5 -2.5 -3.5 -2.5 -1.5 -1.6 -1.5 -1.6 0.5 -0.6 0.5 -0.6 2.5 0.4 2.5 0.4 6.5 -2.55 6.5 -2.55 4.5 -1.6 4.5 -1.6 5.5 -0.6 5.5 -0.6 4.5 -1.5 4.5 -1.5 1.5 -2.55 1.5 M-8.55 11.5 L-8.55 10.5 -6.55 10.5 -6.55 12.5 -7.55 12.5 -7.55 11.5 -8.55 11.5 M-6.55 10.5 L-6.55 9.5 -5.55 9.5 -5.55 8.5 -4.55 8.5 -4.55 7.5 -3.55 7.5 -3.55 6.5 -2.6 6.5 -2.6 7.5 -3.55 7.5 -3.55 8.5 -4.55 8.5 -4.55 9.5 -5.55 9.5 -5.55 10.5 -6.55 10.5" fill="#ffffff" fill-rule="evenodd" stroke="none"/>
  </g>
</svg>
