<?xml version="1.0" encoding="UTF-8" standalone="no"?>
<svg xmlns:ffdec="https://www.free-decompiler.com/flash" xmlns:xlink="http://www.w3.org/1999/xlink" ffdec:objectType="shape" height="12.0px" width="12.0px" xmlns="http://www.w3.org/2000/svg">
  <g transform="matrix(1.0, 0.0, 0.0, 1.0, 6.0, 6.0)">
    <path d="M-4.0 -4.0 L-4.0 -6.0 -2.0 -6.0 -2.0 -5.0 -3.0 -5.0 -3.0 -4.0 -4.0 -4.0 -4.0 -3.0 -5.0 -3.0 -5.0 -2.0 -2.0 -2.0 -2.0 -1.0 -1.0 -1.0 -1.0 0.0 0.0 0.0 0.0 1.0 1.0 1.0 1.0 2.0 2.0 2.0 2.0 5.0 3.0 5.0 3.0 4.0 4.0 4.0 4.0 3.0 5.0 3.0 5.0 2.0 3.0 2.0 3.0 1.0 2.0 1.0 2.0 0.0 1.0 0.0 1.0 -1.0 0.0 -1.0 0.0 -2.0 -1.0 -2.0 -1.0 -3.0 -2.0 -3.0 -2.0 -5.0 -1.0 -5.0 -1.0 -3.0 0.0 -3.0 0.0 -2.0 1.0 -2.0 1.0 -1.0 2.0 -1.0 2.0 0.0 3.0 0.0 3.0 1.0 5.0 1.0 5.0 2.0 6.0 2.0 6.0 4.0 4.0 4.0 4.0 6.0 2.0 6.0 2.0 5.0 1.0 5.0 1.0 2.0 0.0 2.0 0.0 1.0 -1.0 1.0 -1.0 0.0 -2.0 0.0 -2.0 -1.0 -5.0 -1.0 -5.0 -2.0 -6.0 -2.0 -6.0 -4.0 -4.0 -4.0" fill="#000000" fill-rule="evenodd" stroke="none"/>
    <path d="M-4.0 -4.0 L-3.0 -4.0 -3.0 -5.0 -2.0 -5.0 -2.0 -3.0 -1.0 -3.0 -1.0 -2.0 0.0 -2.0 0.0 -1.0 1.0 -1.0 1.0 0.0 2.0 0.0 2.0 1.0 3.0 1.0 3.0 2.0 5.0 2.0 5.0 3.0 4.0 3.0 4.0 4.0 3.0 4.0 3.0 5.0 2.0 5.0 2.0 2.0 1.0 2.0 1.0 1.0 0.0 1.0 0.0 0.0 -1.0 0.0 -1.0 -1.0 -2.0 -1.0 -2.0 -2.0 -5.0 -2.0 -5.0 -3.0 -4.0 -3.0 -4.0 -4.0" fill="#ffffff" fill-rule="evenodd" stroke="none"/>
  </g>
</svg>
