<?xml version="1.0" encoding="UTF-8" standalone="no"?>
<svg xmlns:ffdec="https://www.free-decompiler.com/flash" xmlns:xlink="http://www.w3.org/1999/xlink" ffdec:objectType="shape" height="10.95px" width="24.05px" xmlns="http://www.w3.org/2000/svg">
  <g transform="matrix(1.0, 0.0, 0.0, 1.0, 26.8, 9.45)">
    <path d="M-24.8 -7.45 L-25.8 -7.45 -25.8 -6.45 -23.8 -6.45 -23.8 -8.45 -24.8 -8.45 -24.8 -7.45 M-23.8 -8.45 L-22.8 -8.45 -22.8 -6.45 -21.8 -6.45 -21.8 -5.45 -20.8 -5.45 -20.8 -4.45 -19.8 -4.45 -19.8 -3.45 -17.8 -3.45 -17.8 -2.45 -17.75 -2.45 -11.75 -2.5 -11.75 -3.5 -7.75 -3.5 -7.75 -4.5 -6.75 -4.5 -6.75 -5.4 -2.75 -5.4 -2.75 -2.5 -4.75 -2.5 -4.75 -1.5 -5.75 -1.5 -5.75 -0.5 -9.75 -0.5 -9.75 0.5 -15.9 0.6 -15.9 1.5 -19.8 1.5 -19.8 0.5 -20.8 0.5 -20.8 -2.45 -21.8 -2.45 -21.8 -3.45 -22.8 -3.45 -22.8 -4.45 -23.8 -4.45 -23.8 -5.45 -25.8 -5.45 -25.8 -6.45 -26.8 -6.45 -26.8 -8.45 -25.8 -8.45 -25.8 -9.45 -23.8 -9.45 -23.8 -8.45 M-23.8 -6.45 L-23.8 -5.45 -22.8 -5.45 -22.8 -6.45 -23.8 -6.45 M-21.8 -3.45 L-20.8 -3.45 -20.8 -4.45 -21.8 -4.45 -21.8 -3.45 M-21.8 -5.45 L-22.8 -5.45 -22.8 -4.45 -21.8 -4.45 -21.8 -5.45 M-20.8 -2.5 L-19.8 -2.5 -19.8 -3.45 -20.8 -3.45 -20.8 -2.5 M-17.8 -2.45 L-19.8 -2.45 -19.8 0.5 -15.9 0.6 -15.9 -0.5 -9.75 -0.5 -9.75 -1.5 -5.75 -1.5 -5.75 -2.5 -4.75 -2.5 -4.75 -3.5 -3.75 -3.5 -3.75 -4.5 -6.75 -4.5 -6.75 -3.5 -7.75 -3.5 -7.75 -2.5 -11.75 -2.5 -11.75 -1.5 -17.8 -1.4 -17.8 -0.5 -18.8 -0.5 -18.8 -1.5 -17.8 -1.5 -17.8 -2.45 M-17.75 -2.4 L-17.6 -2.4 -17.75 -2.45 -17.75 -2.4" fill="#000000" fill-rule="evenodd" stroke="none"/>
    <path d="M-24.8 -7.45 L-24.8 -8.45 -23.8 -8.45 -23.8 -6.45 -25.8 -6.45 -25.8 -7.45 -24.8 -7.45 M-20.8 -2.5 L-20.8 -3.45 -19.8 -3.45 -19.8 -2.5 -20.8 -2.5 M-21.8 -5.45 L-21.8 -4.45 -22.8 -4.45 -22.8 -5.45 -21.8 -5.45 M-21.8 -3.45 L-21.8 -4.45 -20.8 -4.45 -20.8 -3.45 -21.8 -3.45 M-23.8 -6.45 L-22.8 -6.45 -22.8 -5.45 -23.8 -5.45 -23.8 -6.45 M-17.8 -2.45 L-17.8 -1.5 -18.8 -1.5 -18.8 -0.5 -17.8 -0.5 -17.8 -1.4 -11.75 -1.5 -11.75 -2.5 -7.75 -2.5 -7.75 -3.5 -6.75 -3.5 -6.75 -4.5 -3.75 -4.5 -3.75 -3.5 -4.75 -3.5 -4.75 -2.5 -5.75 -2.5 -5.75 -1.5 -9.75 -1.5 -9.75 -0.5 -15.9 -0.5 -15.9 0.6 -19.8 0.5 -19.8 -2.45 -17.8 -2.45" fill="#ffffff" fill-rule="evenodd" stroke="none"/>
  </g>
</svg>
