<?xml version="1.0" encoding="UTF-8" standalone="no"?>
<svg xmlns:ffdec="https://www.free-decompiler.com/flash" xmlns:xlink="http://www.w3.org/1999/xlink" ffdec:objectType="shape" height="23.6px" width="10.95px" xmlns="http://www.w3.org/2000/svg">
  <g transform="matrix(1.0, 0.0, 0.0, 1.0, 8.75, 29.0)">
    <path d="M1.2 -25.0 L-0.8 -25.0 -0.8 -24.0 -1.8 -24.0 -1.8 -23.0 -2.8 -23.0 -2.8 -22.0 -3.8 -22.0 -3.8 -20.0 -4.8 -20.0 -4.8 -19.95 -4.75 -18.0 -5.7 -18.0 -5.65 -14.4 -4.65 -14.4 -4.6 -10.4 -3.6 -10.4 -3.6 -9.4 -2.7 -9.4 -2.7 -5.4 -5.6 -5.4 -5.6 -7.4 -6.6 -7.4 -6.6 -8.4 -7.6 -8.4 -7.65 -12.4 -8.6 -12.4 -8.75 -22.0 -7.75 -22.0 -7.75 -23.0 -4.8 -23.0 -4.8 -24.0 -3.8 -24.0 -3.8 -25.0 -2.8 -25.0 -2.8 -26.0 -1.8 -26.0 -1.8 -28.0 -0.8 -28.0 -0.8 -29.0 1.2 -29.0 1.2 -28.0 2.2 -28.0 2.2 -26.0 1.2 -26.0 1.2 -25.0 M0.2 -28.0 L-0.8 -28.0 -0.8 -26.0 1.2 -26.0 1.2 -27.0 0.2 -27.0 0.2 -28.0 M-0.8 -25.0 L-0.8 -26.0 -1.8 -26.0 -1.8 -25.0 -2.8 -25.0 -2.8 -24.0 -3.8 -24.0 -3.8 -23.0 -4.75 -23.0 -4.75 -22.0 -3.8 -22.0 -3.8 -23.0 -2.8 -23.0 -2.8 -24.0 -1.8 -24.0 -1.8 -25.0 -0.8 -25.0 M-4.8 -19.95 L-4.85 -19.95 -4.85 -19.8 -4.8 -19.95 M-4.8 -22.0 L-7.75 -22.0 -7.8 -18.1 -7.75 -20.05 -7.65 -12.4 -6.65 -12.4 -6.6 -8.4 -5.6 -8.4 -5.6 -7.4 -4.6 -7.4 -4.6 -6.4 -3.6 -6.4 -3.6 -9.4 -4.6 -9.4 -4.6 -10.4 -5.6 -10.4 -5.65 -14.4 -6.65 -14.4 -6.7 -18.0 -5.8 -18.0 -5.85 -20.0 -6.75 -20.0 -6.75 -21.0 -5.75 -21.0 -5.75 -20.0 -4.8 -20.0 -4.8 -22.0" fill="#000000" fill-rule="evenodd" stroke="none"/>
    <path d="M0.2 -28.0 L0.2 -27.0 1.2 -27.0 1.2 -26.0 -0.8 -26.0 -0.8 -28.0 0.2 -28.0 M-0.8 -25.0 L-1.8 -25.0 -1.8 -24.0 -2.8 -24.0 -2.8 -23.0 -3.8 -23.0 -3.8 -22.0 -4.75 -22.0 -4.75 -23.0 -3.8 -23.0 -3.8 -24.0 -2.8 -24.0 -2.8 -25.0 -1.8 -25.0 -1.8 -26.0 -0.8 -26.0 -0.8 -25.0 M-4.8 -22.0 L-4.8 -20.0 -5.75 -20.0 -5.75 -21.0 -6.75 -21.0 -6.75 -20.0 -5.85 -20.0 -5.8 -18.0 -6.7 -18.0 -6.65 -14.4 -5.65 -14.4 -5.6 -10.4 -4.6 -10.4 -4.6 -9.4 -3.6 -9.4 -3.6 -6.4 -4.6 -6.4 -4.6 -7.4 -5.6 -7.4 -5.6 -8.4 -6.6 -8.4 -6.65 -12.4 -7.65 -12.4 -7.75 -20.05 -7.8 -18.1 -7.75 -22.0 -4.8 -22.0" fill="#ffffff" fill-rule="evenodd" stroke="none"/>
  </g>
</svg>
