<?xml version="1.0" encoding="UTF-8" standalone="no"?>
<svg xmlns:ffdec="https://www.free-decompiler.com/flash" xmlns:xlink="http://www.w3.org/1999/xlink" ffdec:objectType="shape" height="8.5px" width="13.0px" xmlns="http://www.w3.org/2000/svg">
  <g transform="matrix(1.0, 0.0, 0.0, 1.0, 1.5, 2.5)">
    <path d="M9.5 -1.5 L10.5 -1.5 10.5 2.0 11.5 2.0 11.5 6.0 -1.5 6.0 -1.5 1.5 -0.5 1.5 -0.5 0.5 1.5 0.5 1.5 -2.5 9.5 -2.5 9.5 -1.5 M8.5 -0.5 L8.5 -1.5 2.5 -1.5 2.5 1.5 0.5 1.5 0.5 2.5 -0.5 2.5 -0.5 5.0 10.5 5.0 10.5 2.0 9.5 2.0 9.5 -0.5 8.5 -0.5" fill="#000000" fill-rule="evenodd" stroke="none"/>
    <path d="M8.5 -0.5 L9.5 -0.5 9.5 2.0 10.5 2.0 10.5 5.0 -0.5 5.0 -0.5 2.5 0.5 2.5 0.5 1.5 2.5 1.5 2.5 -1.5 8.5 -1.5 8.5 -0.5" fill="#cccccc" fill-rule="evenodd" stroke="none"/>
  </g>
</svg>
