<?xml version="1.0" encoding="UTF-8" standalone="no"?>
<svg xmlns:ffdec="https://www.free-decompiler.com/flash" xmlns:xlink="http://www.w3.org/1999/xlink" ffdec:objectType="shape" height="15.05px" width="16.7px" xmlns="http://www.w3.org/2000/svg">
  <g transform="matrix(1.0, 0.0, 0.0, 1.0, 5.6, 20.45)">
    <path d="M0.15 -19.4 L0.15 -18.45 -1.6 -18.45 -1.6 -17.45 -2.6 -17.45 -2.6 -16.45 -3.6 -16.45 -3.6 -15.45 -4.6 -15.45 -4.6 -6.4 -3.6 -6.4 -3.6 -7.3 -3.6 -13.45 -2.6 -13.45 -2.6 -15.45 -1.6 -15.45 -1.6 -16.45 -0.6 -16.45 -0.6 -17.45 2.05 -17.45 2.05 -17.55 2.1 -17.55 2.1 -18.45 3.1 -18.45 3.1 -17.45 2.1 -17.45 2.1 -16.5 4.1 -16.5 4.1 -19.45 0.2 -19.5 2.15 -19.45 0.15 -19.4 0.15 -20.4 4.1 -20.45 4.1 -19.45 5.1 -19.45 5.1 -16.5 6.1 -16.5 6.1 -15.5 5.1 -15.5 5.1 -16.45 4.1 -16.45 4.1 -15.5 2.1 -15.5 2.1 -16.5 2.05 -16.5 2.05 -16.55 1.9 -16.55 2.05 -16.5 0.15 -16.45 -0.6 -16.45 -0.6 -15.45 -1.6 -15.45 -1.6 -13.45 -2.6 -13.45 -2.7 -5.4 -5.6 -5.4 -5.6 -15.45 -4.6 -15.45 -4.6 -17.45 -2.6 -17.45 -2.6 -18.45 -1.6 -18.45 -1.6 -19.45 0.15 -19.4 M5.1 -14.5 L4.1 -14.5 4.1 -15.5 5.1 -15.5 5.1 -14.5 6.1 -14.5 6.1 -13.5 7.1 -13.5 7.1 -14.5 6.1 -14.5 6.1 -15.5 7.1 -15.5 7.1 -14.5 8.1 -14.5 8.1 -13.5 10.1 -13.5 10.1 -12.5 11.1 -12.5 11.1 -10.5 10.1 -10.5 10.1 -9.5 8.1 -9.5 8.1 -10.5 7.1 -10.5 7.1 -12.5 6.1 -12.5 6.1 -13.5 5.1 -13.5 5.1 -14.5 M7.1 -12.5 L8.1 -12.5 8.1 -10.5 9.1 -10.5 9.1 -11.5 10.1 -11.5 10.1 -12.5 8.1 -12.5 8.1 -13.5 7.1 -13.5 7.1 -12.5" fill="#000000" fill-rule="evenodd" stroke="none"/>
    <path d="M0.15 -19.4 L2.15 -19.45 0.2 -19.5 4.1 -19.45 4.1 -16.5 2.1 -16.5 2.1 -17.45 3.1 -17.45 3.1 -18.45 2.1 -18.45 2.1 -17.55 2.05 -17.55 2.05 -17.45 -0.6 -17.45 -0.6 -16.45 -1.6 -16.45 -1.6 -15.45 -2.6 -15.45 -2.6 -13.45 -3.6 -13.45 -3.6 -7.3 -3.6 -6.4 -4.6 -6.4 -4.6 -15.45 -3.6 -15.45 -3.6 -16.45 -2.6 -16.45 -2.6 -17.45 -1.6 -17.45 -1.6 -18.45 0.15 -18.45 0.15 -19.4 M4.1 -15.5 L4.1 -16.45 5.1 -16.45 5.1 -15.5 6.1 -15.5 6.1 -14.5 7.1 -14.5 7.1 -13.5 6.1 -13.5 6.1 -14.5 5.1 -14.5 5.1 -15.5 4.1 -15.5 M7.1 -12.5 L7.1 -13.5 8.1 -13.5 8.1 -12.5 10.1 -12.5 10.1 -11.5 9.1 -11.5 9.1 -10.5 8.1 -10.5 8.1 -12.5 7.1 -12.5" fill="#ffffff" fill-rule="evenodd" stroke="none"/>
  </g>
</svg>
