<?xml version="1.0" encoding="UTF-8" standalone="no"?>
<svg xmlns:ffdec="https://www.free-decompiler.com/flash" xmlns:xlink="http://www.w3.org/1999/xlink" ffdec:objectType="shape" height="9.0px" width="20.05px" xmlns="http://www.w3.org/2000/svg">
  <g transform="matrix(1.0, 0.0, 0.0, 1.0, 22.8, 6.45)">
    <path d="M-20.8 -6.45 L-20.8 -5.45 -19.8 -5.45 -19.8 -4.45 -18.8 -4.45 -18.8 -3.45 -17.8 -3.45 -17.8 -2.45 -17.65 -2.4 -17.65 -2.45 -11.75 -2.5 -11.75 -3.5 -7.75 -3.5 -7.75 -4.5 -6.75 -4.5 -6.75 -5.4 -2.75 -5.4 -2.75 -2.5 -4.75 -2.5 -4.75 -1.5 -5.75 -1.5 -5.75 -0.5 -9.75 -0.5 -9.75 0.5 -15.9 0.6 -15.9 1.5 -17.8 1.55 -17.8 2.55 -20.8 2.55 -20.8 0.55 -19.8 0.55 -19.8 -1.45 -20.8 -1.45 -20.8 -2.45 -21.8 -2.45 -21.8 -3.45 -22.8 -3.45 -22.8 -6.45 -20.8 -6.45 M-20.8 -3.45 L-20.8 -2.45 -19.8 -2.45 -19.8 -1.45 -18.8 -1.45 -18.8 0.55 -19.8 0.55 -19.8 1.55 -17.8 1.55 -17.8 0.6 -15.9 0.6 -15.9 -0.5 -9.75 -0.5 -9.75 -1.5 -5.75 -1.5 -5.75 -2.5 -4.75 -2.5 -4.75 -3.5 -3.75 -3.5 -3.75 -4.5 -6.75 -4.5 -6.75 -3.5 -7.75 -3.5 -7.75 -2.5 -11.75 -2.5 -11.75 -1.5 -17.8 -1.5 -17.8 -2.45 -18.8 -2.45 -18.8 -3.45 -19.8 -3.45 -19.8 -4.45 -20.8 -4.45 -20.8 -5.45 -21.8 -5.45 -21.8 -3.45 -20.8 -3.45" fill="#000000" fill-rule="evenodd" stroke="none"/>
    <path d="M-20.8 -3.45 L-21.8 -3.45 -21.8 -5.45 -20.8 -5.45 -20.8 -4.45 -19.8 -4.45 -19.8 -3.45 -18.8 -3.45 -18.8 -2.45 -17.8 -2.45 -17.8 -1.5 -11.75 -1.5 -11.75 -2.5 -7.75 -2.5 -7.75 -3.5 -6.75 -3.5 -6.75 -4.5 -3.75 -4.5 -3.75 -3.5 -4.75 -3.5 -4.75 -2.5 -5.75 -2.5 -5.75 -1.5 -9.75 -1.5 -9.75 -0.5 -15.9 -0.5 -15.9 0.6 -17.8 0.6 -17.8 1.55 -19.8 1.55 -19.8 0.55 -18.8 0.55 -18.8 -1.45 -19.8 -1.45 -19.8 -2.45 -20.8 -2.45 -20.8 -3.45" fill="#ffffff" fill-rule="evenodd" stroke="none"/>
  </g>
</svg>
