<?xml version="1.0" encoding="UTF-8" standalone="no"?>
<svg xmlns:ffdec="https://www.free-decompiler.com/flash" xmlns:xlink="http://www.w3.org/1999/xlink" ffdec:objectType="shape" height="13.0px" width="6.0px" xmlns="http://www.w3.org/2000/svg">
  <g transform="matrix(1.0, 0.0, 0.0, 1.0, 12.0, 2.0)">
    <path d="M-6.0 2.0 L-6.0 4.0 -7.0 4.0 -7.0 3.0 -8.0 3.0 -8.0 6.0 -7.0 6.0 -7.0 5.0 -6.0 5.0 -6.0 6.0 -7.0 6.0 -7.0 7.0 -10.0 7.0 -10.0 4.0 -9.0 4.0 -9.0 3.0 -10.0 3.0 -10.0 1.0 -9.0 1.0 -9.0 2.0 -8.0 2.0 -8.0 1.0 -7.0 1.0 -7.0 2.0 -6.0 2.0 M-8.0 11.0 L-12.0 11.0 -12.0 10.0 -8.0 10.0 -8.0 9.0 -7.0 9.0 -7.0 10.0 -8.0 10.0 -8.0 11.0" fill="#000000" fill-rule="evenodd" stroke="none"/>
    <path d="M-7.0 -1.0 L-10.0 -1.0 -10.0 -2.0 -7.0 -2.0 -7.0 -1.0 -6.0 -1.0 -6.0 0.0 -7.0 0.0 -7.0 -1.0" fill="#000000" fill-rule="evenodd" stroke="none"/>
  </g>
</svg>
