<?xml version="1.0" encoding="UTF-8" standalone="no"?>
<svg xmlns:ffdec="https://www.free-decompiler.com/flash" xmlns:xlink="http://www.w3.org/1999/xlink" ffdec:objectType="shape" height="9.05px" width="17.5px" xmlns="http://www.w3.org/2000/svg">
  <g transform="matrix(1.0, 0.0, 0.0, 1.0, 9.0, 4.05)">
    <path d="M3.5 -4.0 L3.5 -3.05 3.4 -3.05 3.4 -4.0 3.5 -4.0 M7.5 -3.05 L7.5 -4.0 7.55 -4.0 7.55 -3.05 7.5 -3.05 M4.55 2.95 L4.5 2.95 4.5 2.0 4.55 2.0 4.55 2.95 M3.5 2.9 L3.5 2.95 1.6 2.95 1.6 2.9 3.5 2.9 M2.5 4.95 L6.5 4.95 6.5 5.0 2.5 5.0 2.5 4.95 M7.5 3.85 L7.5 3.0 7.55 3.0 7.55 3.85 7.5 3.85 M-7.5 -2.1 L-7.5 -3.0 -7.45 -3.0 -7.45 -2.1 -7.5 -2.1 M-3.5 -3.05 L-3.5 -4.0 -3.45 -4.0 -3.45 -3.05 -3.5 -3.05 M-1.5 3.0 L-1.45 3.0 -1.45 3.85 -1.5 3.85 -1.5 3.0 M-2.5 4.95 L-2.5 5.0 -6.45 5.0 -6.45 4.95 -2.5 4.95" fill="#ffffff" fill-rule="evenodd" stroke="none"/>
    <path d="M3.5 -3.05 L3.5 -4.0 3.5 -4.05 7.5 -4.05 7.5 -4.0 7.5 -3.05 3.5 -3.05 M7.55 -3.05 L7.55 -3.0 8.5 -3.0 8.5 -2.1 7.5 -2.1 7.5 -3.05 7.55 -3.05 M4.55 2.95 L4.55 3.0 5.55 3.0 5.55 2.0 6.5 2.0 6.5 3.0 7.5 3.0 7.5 3.85 6.5 3.85 6.5 4.95 2.5 4.95 2.5 3.85 1.6 3.85 1.6 2.95 3.5 2.95 3.5 2.9 3.5 2.0 4.5 2.0 4.5 2.95 4.55 2.95 M-7.5 -2.1 L-7.5 -2.0 -9.0 -2.0 -9.0 -3.0 -8.45 -3.0 -8.45 -3.05 -7.5 -3.05 -7.5 -3.0 -7.5 -2.1 M-3.5 -3.05 L-7.45 -3.05 -7.45 -4.05 -3.5 -4.05 -3.5 -4.0 -3.5 -3.05 M-1.5 3.0 L-1.5 3.85 -2.5 3.85 -2.5 4.95 -6.45 4.95 -6.45 3.85 -7.5 3.85 -7.5 3.0 -6.5 3.0 -6.5 2.0 -5.5 2.0 -5.5 3.0 -4.4 3.0 -4.4 2.0 -3.5 2.0 -3.5 3.0 -1.5 3.0" fill="#000000" fill-rule="evenodd" stroke="none"/>
  </g>
</svg>
