<?xml version="1.0" encoding="UTF-8" standalone="no"?>
<svg xmlns:ffdec="https://www.free-decompiler.com/flash" xmlns:xlink="http://www.w3.org/1999/xlink" ffdec:objectType="shape" height="10.0px" width="17.0px" xmlns="http://www.w3.org/2000/svg">
  <g transform="matrix(1.0, 0.0, 0.0, 1.0, 8.5, 5.0)">
    <path d="M3.45 1.0 L3.45 -0.05 4.5 -0.05 4.5 0.0 3.5 0.0 3.5 1.0 3.45 1.0 M5.5 0.0 L5.5 -0.05 6.45 -0.05 6.45 0.0 5.5 0.0 M6.5 3.95 L6.5 4.0 2.5 4.0 2.5 3.0 1.5 3.0 1.5 4.0 2.5 4.0 2.5 5.0 1.45 5.0 1.45 1.0 1.5 1.0 1.5 2.0 4.5 2.0 4.5 3.0 6.5 3.0 6.5 3.95 M-6.5 0.0 L-6.5 -0.05 -5.5 -0.05 -5.5 0.0 -6.5 0.0 M-4.55 1.0 L-4.55 -0.05 -3.55 -0.05 -3.55 0.0 -4.5 0.0 -4.5 1.0 -4.55 1.0 M-1.5 2.0 L-1.5 3.0 -2.5 3.0 -2.5 2.0 -1.5 2.0 M-2.5 3.95 L-2.55 3.95 -2.55 4.0 -6.5 4.0 -6.5 3.0 -7.5 3.0 -7.5 2.0 -4.5 2.0 -4.5 3.0 -2.5 3.0 -2.5 3.95 M-7.5 1.0 L-7.5 0.95 -6.5 0.95 -6.5 1.0 -7.5 1.0" fill="#ffffff" fill-rule="evenodd" stroke="none"/>
    <path d="M4.5 0.0 L4.5 1.0 5.5 1.0 5.5 0.0 6.45 0.0 6.45 1.0 7.5 1.0 7.5 1.9 6.5 1.9 6.5 3.0 7.5 3.0 7.5 3.95 6.5 3.95 6.5 3.0 4.5 3.0 4.5 2.0 1.5 2.0 1.5 1.0 3.45 1.0 3.5 1.0 3.5 0.0 4.5 0.0 M6.5 4.0 L6.5 5.0 2.5 5.0 2.5 4.0 1.5 4.0 1.5 3.0 2.5 3.0 2.5 4.0 6.5 4.0 M-5.5 0.0 L-5.5 1.0 -4.55 1.0 -4.5 1.0 -4.5 0.0 -3.55 0.0 -3.55 1.0 -1.5 1.0 -1.5 2.0 -2.5 2.0 -2.5 3.0 -1.5 3.0 -1.5 3.95 -2.5 3.95 -2.5 3.0 -4.5 3.0 -4.5 2.0 -7.5 2.0 -7.5 1.0 -6.5 1.0 -6.5 0.95 -6.5 0.0 -5.5 0.0 M-2.55 4.0 L-2.55 5.0 -6.5 5.0 -6.5 4.0 -7.5 4.0 -7.5 3.0 -6.5 3.0 -6.5 4.0 -2.55 4.0" fill="#000000" fill-rule="evenodd" stroke="none"/>
    <path d="M7.5 -4.0 L3.5 -4.0 3.5 -5.0 7.5 -5.0 7.5 -4.0 8.5 -4.0 8.5 -3.0 7.5 -3.0 7.5 -4.0 M-7.5 -4.0 L-7.5 -5.0 -3.5 -5.0 -3.5 -4.0 -7.5 -4.0 -7.5 -3.0 -8.5 -3.0 -8.5 -4.0 -7.5 -4.0" fill="#000000" fill-rule="evenodd" stroke="none"/>
  </g>
</svg>
