<?xml version="1.0" encoding="UTF-8" standalone="no"?>
<svg xmlns:ffdec="https://www.free-decompiler.com/flash" xmlns:xlink="http://www.w3.org/1999/xlink" ffdec:objectType="shape" height="12.0px" width="11.0px" xmlns="http://www.w3.org/2000/svg">
  <g transform="matrix(1.0, 0.0, 0.0, 1.0, -4.0, 6.0)">
    <path d="M11.0 1.0 L9.0 1.0 9.0 -1.0 8.0 -1.0 8.0 -3.0 7.0 -3.0 7.0 -5.0 5.0 -5.0 5.0 -4.0 6.0 -4.0 6.0 -2.0 7.0 -2.0 7.0 0.0 8.0 0.0 8.0 2.0 9.0 2.0 9.0 3.0 10.0 3.0 10.0 4.0 11.0 4.0 11.0 2.0 12.0 2.0 12.0 1.0 12.0 0.0 13.0 0.0 13.0 -1.0 14.0 -1.0 14.0 1.0 13.0 1.0 13.0 3.0 12.0 3.0 12.0 4.0 11.0 4.0 11.0 6.0 10.0 6.0 10.0 5.0 9.0 5.0 9.0 3.0 8.0 3.0 8.0 2.0 7.0 2.0 7.0 0.0 6.0 0.0 6.0 -2.0 5.0 -2.0 5.0 -4.0 4.0 -4.0 4.0 -6.0 7.0 -6.0 7.0 -5.0 8.0 -5.0 8.0 -3.0 9.0 -3.0 9.0 -1.0 10.0 -1.0 10.0 0.0 11.0 0.0 11.0 1.0 M11.0 0.0 L11.0 -2.0 12.0 -2.0 12.0 -3.0 13.0 -3.0 13.0 -4.0 15.0 -4.0 15.0 -1.0 14.0 -1.0 14.0 -2.0 14.0 -3.0 13.0 -3.0 13.0 -2.0 12.0 -2.0 12.0 0.0 11.0 0.0" fill="#000000" fill-rule="evenodd" stroke="none"/>
    <path d="M12.0 1.0 L12.0 2.0 11.0 2.0 11.0 4.0 10.0 4.0 10.0 3.0 9.0 3.0 9.0 2.0 8.0 2.0 8.0 0.0 7.0 0.0 7.0 -2.0 6.0 -2.0 6.0 -4.0 5.0 -4.0 5.0 -5.0 7.0 -5.0 7.0 -3.0 8.0 -3.0 8.0 -1.0 9.0 -1.0 9.0 1.0 11.0 1.0 12.0 1.0 M8.0 3.0 L9.0 3.0 9.0 5.0 10.0 5.0 10.0 6.0 8.0 6.0 8.0 3.0 M14.0 -1.0 L13.0 -1.0 13.0 0.0 12.0 0.0 12.0 -2.0 13.0 -2.0 14.0 -2.0 14.0 -1.0" fill="#ffffff" fill-rule="evenodd" stroke="none"/>
  </g>
</svg>
