<?xml version="1.0" encoding="UTF-8" standalone="no"?>
<svg xmlns:ffdec="https://www.free-decompiler.com/flash" xmlns:xlink="http://www.w3.org/1999/xlink" ffdec:objectType="shape" height="15.0px" width="15.4px" xmlns="http://www.w3.org/2000/svg">
  <g transform="matrix(1.0, 0.0, 0.0, 1.0, -11.0, -18.0)">
    <path d="M26.4 22.0 L26.0 22.0 26.0 21.0 24.0 21.0 24.0 20.0 22.0 20.0 18.0 20.0 18.0 21.0 17.0 21.0 17.0 19.0 24.0 19.0 24.0 18.0 26.4 18.0 26.4 19.0 25.0 19.0 25.0 20.0 26.4 20.0 26.4 22.0 M22.0 21.0 L23.0 21.0 23.0 22.0 25.0 22.0 25.0 23.0 26.0 23.0 26.0 28.0 25.0 28.0 25.0 30.0 26.4 30.0 26.4 31.0 22.0 31.0 22.0 30.0 24.0 30.0 24.0 28.0 25.0 28.0 25.0 23.0 22.0 23.0 22.0 22.0 19.0 22.0 19.0 24.0 18.0 24.0 18.0 29.0 17.0 29.0 17.0 31.0 14.0 31.0 14.0 30.0 13.0 30.0 13.0 29.0 13.0 26.0 14.0 26.0 14.0 25.0 15.0 25.0 15.0 23.0 16.0 23.0 16.0 25.0 15.0 25.0 15.0 26.0 14.0 26.0 14.0 30.0 16.0 30.0 16.0 28.0 17.0 28.0 17.0 24.0 18.0 24.0 18.0 22.0 19.0 22.0 19.0 21.0 22.0 21.0 M16.0 23.0 L16.0 21.0 17.0 21.0 17.0 23.0 16.0 23.0" fill="#000000" fill-rule="evenodd" stroke="none"/>
    <path d="M22.0 20.0 L22.0 21.0 19.0 21.0 19.0 22.0 18.0 22.0 18.0 24.0 17.0 24.0 17.0 28.0 16.0 28.0 16.0 30.0 14.0 30.0 14.0 26.0 15.0 26.0 15.0 25.0 16.0 25.0 16.0 23.0 17.0 23.0 17.0 21.0 18.0 21.0 18.0 20.0 22.0 20.0 M26.4 20.0 L25.0 20.0 25.0 19.0 26.4 19.0 26.4 20.0" fill="#ffffff" fill-rule="evenodd" stroke="none"/>
    <path d="M22.0 20.0 L24.0 20.0 24.0 21.0 26.0 21.0 26.0 22.0 26.4 22.0 26.4 30.0 25.0 30.0 25.0 28.0 26.0 28.0 26.0 23.0 25.0 23.0 25.0 22.0 23.0 22.0 23.0 21.0 22.0 21.0 22.0 20.0" fill="#656565" fill-rule="evenodd" stroke="none"/>
    <path d="M18.0 29.0 L18.0 30.0 19.0 30.0 19.0 31.0 21.0 31.0 21.0 33.0 19.0 33.0 19.0 32.0 17.0 32.0 17.0 31.0 17.0 29.0 18.0 29.0 M13.0 29.0 L12.0 29.0 12.0 28.0 11.0 28.0 11.0 27.0 12.0 27.0 12.0 26.0 13.0 26.0 13.0 29.0" fill="#666666" fill-rule="evenodd" stroke="none"/>
  </g>
</svg>
