<?xml version="1.0" encoding="UTF-8" standalone="no"?>
<svg xmlns:ffdec="https://www.free-decompiler.com/flash" xmlns:xlink="http://www.w3.org/1999/xlink" ffdec:objectType="shape" height="16.0px" width="19.0px" xmlns="http://www.w3.org/2000/svg">
  <g transform="matrix(1.0, 0.0, 0.0, 1.0, 9.0, 8.0)">
    <path d="M2.0 -7.0 L4.0 -7.0 4.0 -3.0 5.0 -3.0 5.0 2.0 6.0 2.0 6.0 3.0 1.0 3.0 1.0 2.0 2.0 2.0 2.0 -7.0 M0.0 2.0 L0.0 3.0 -5.0 3.0 -5.0 2.0 -4.0 2.0 -4.0 -3.0 -3.0 -3.0 -3.0 -7.0 -1.0 -7.0 -1.0 2.0 0.0 2.0" fill="#656565" fill-rule="evenodd" stroke="none"/>
    <path d="M5.0 -8.0 L5.0 -4.0 6.0 -4.0 6.0 2.0 7.0 2.0 7.0 4.0 8.0 4.0 8.0 5.0 9.0 5.0 9.0 6.0 10.0 6.0 10.0 8.0 2.0 8.0 2.0 4.0 -1.0 4.0 -1.0 8.0 -9.0 8.0 -9.0 6.0 -8.0 6.0 -8.0 5.0 -7.0 5.0 -7.0 4.0 -6.0 4.0 -6.0 2.0 -5.0 2.0 -5.0 -4.0 -4.0 -4.0 -4.0 -8.0 0.0 -8.0 0.0 2.0 1.0 2.0 1.0 -8.0 5.0 -8.0 M2.0 -7.0 L2.0 2.0 1.0 2.0 1.0 3.0 6.0 3.0 6.0 2.0 5.0 2.0 5.0 -3.0 4.0 -3.0 4.0 -7.0 2.0 -7.0 M8.0 5.0 L5.0 5.0 5.0 4.0 3.0 4.0 3.0 6.0 8.0 6.0 8.0 5.0 M0.0 2.0 L-1.0 2.0 -1.0 -7.0 -3.0 -7.0 -3.0 -3.0 -4.0 -3.0 -4.0 2.0 -5.0 2.0 -5.0 3.0 0.0 3.0 0.0 2.0 M-4.0 5.0 L-7.0 5.0 -7.0 6.0 -2.0 6.0 -2.0 4.0 -4.0 4.0 -4.0 5.0" fill="#000000" fill-rule="evenodd" stroke="none"/>
    <path d="M8.0 5.0 L8.0 6.0 3.0 6.0 3.0 4.0 5.0 4.0 5.0 5.0 8.0 5.0 M-4.0 5.0 L-4.0 4.0 -2.0 4.0 -2.0 6.0 -7.0 6.0 -7.0 5.0 -4.0 5.0" fill="#c8cbc8" fill-rule="evenodd" stroke="none"/>
  </g>
</svg>
