<?xml version="1.0" encoding="UTF-8" standalone="no"?>
<svg xmlns:ffdec="https://www.free-decompiler.com/flash" xmlns:xlink="http://www.w3.org/1999/xlink" ffdec:objectType="shape" height="12.0px" width="21.0px" xmlns="http://www.w3.org/2000/svg">
  <g transform="matrix(1.0, 0.0, 0.0, 1.0, 6.95, 1.05)">
    <path d="M8.05 -0.05 L6.05 -0.05 6.05 -1.05 8.05 -1.05 8.05 -0.05 9.05 -0.05 9.05 0.95 10.05 0.95 10.05 1.95 11.05 1.95 11.05 3.95 7.05 3.95 7.05 4.95 6.05 4.95 6.05 5.95 5.05 5.95 5.05 6.95 4.05 6.95 4.05 8.95 3.05 8.95 3.05 9.95 2.05 9.95 2.05 10.95 -2.95 10.95 -2.95 9.95 -4.95 9.95 -4.95 8.95 -5.95 8.95 -5.95 7.95 -6.95 7.95 -6.95 6.95 -5.95 6.95 -5.95 7.95 -4.95 7.95 -4.95 8.95 -1.95 8.95 -1.95 9.95 1.05 9.95 1.05 8.95 2.05 8.95 2.05 7.95 3.05 7.95 3.05 6.95 4.05 6.95 4.05 5.95 5.05 5.95 5.05 4.95 6.05 4.95 6.05 3.95 7.05 3.95 7.05 2.95 10.05 2.95 10.05 1.95 9.05 1.95 9.05 0.95 8.05 0.95 8.05 -0.05 M6.05 -0.05 L6.05 0.95 5.05 0.95 5.05 3.95 4.05 3.95 4.05 4.95 3.05 4.95 3.05 5.95 2.05 5.95 2.05 6.95 1.05 6.95 1.05 7.95 -2.95 7.95 -2.95 6.95 -3.95 6.95 -3.95 5.95 -4.95 5.95 -4.95 4.95 -3.95 4.95 -3.95 5.95 -1.95 5.95 -1.95 6.95 0.05 6.95 0.05 5.95 1.05 5.95 1.05 4.95 2.05 4.95 2.05 3.95 3.05 3.95 3.05 2.95 4.05 2.95 4.05 1.95 4.05 0.95 5.05 0.95 5.05 -0.05 6.05 -0.05" fill="#000000" fill-rule="evenodd" stroke="none"/>
    <path d="M6.05 -0.05 L8.05 -0.05 8.05 0.95 9.05 0.95 9.05 1.95 10.05 1.95 10.05 2.95 7.05 2.95 7.05 3.95 6.05 3.95 6.05 4.95 5.05 4.95 5.05 5.95 4.05 5.95 4.05 6.95 3.05 6.95 3.05 7.95 2.05 7.95 2.05 8.95 1.05 8.95 1.05 9.95 -1.95 9.95 -1.95 8.95 -4.95 8.95 -4.95 7.95 -5.95 7.95 -5.95 6.95 -4.95 6.95 -4.95 5.95 -3.95 5.95 -3.95 6.95 -2.95 6.95 -2.95 7.95 1.05 7.95 1.05 6.95 2.05 6.95 2.05 5.95 3.05 5.95 3.05 4.95 4.05 4.95 4.05 3.95 5.05 3.95 5.05 0.95 6.05 0.95 6.05 -0.05" fill="#ffffff" fill-rule="evenodd" stroke="none"/>
    <path d="M11.05 1.95 L12.05 1.95 12.05 2.95 14.05 2.95 14.05 4.95 11.05 4.95 11.05 3.95 11.05 1.95 M4.05 1.95 L3.05 1.95 3.05 -0.05 5.05 -0.05 5.05 0.95 4.05 0.95 4.05 1.95" fill="#666666" fill-rule="evenodd" stroke="none"/>
  </g>
</svg>
