<?xml version="1.0" encoding="UTF-8" standalone="no"?>
<svg xmlns:ffdec="https://www.free-decompiler.com/flash" xmlns:xlink="http://www.w3.org/1999/xlink" ffdec:objectType="shape" height="8.0px" width="24.0px" xmlns="http://www.w3.org/2000/svg">
  <g transform="matrix(1.0, 0.0, 0.0, 1.0, 5.95, -0.95)">
    <path d="M14.05 3.95 L14.05 4.95 15.05 4.95 15.05 5.95 8.05 5.95 8.05 6.95 6.05 6.95 6.05 7.95 2.05 7.95 2.05 8.95 -4.95 8.95 -4.95 7.95 -5.95 7.95 -5.95 6.95 -4.95 6.95 -2.95 6.95 -2.95 7.95 0.05 7.95 0.05 6.95 6.05 6.95 6.05 5.95 7.05 5.95 7.05 4.95 13.05 4.95 13.05 3.95 12.05 3.95 12.05 2.95 11.05 2.95 11.05 1.95 9.05 1.95 9.05 2.95 8.05 2.95 8.05 3.95 6.05 3.95 6.05 4.95 4.05 4.95 4.05 5.95 -4.95 5.95 -4.95 4.95 3.05 4.95 3.05 3.95 6.05 3.95 6.05 2.95 8.05 2.95 8.05 1.95 9.05 1.95 9.05 0.95 12.05 0.95 12.05 1.95 13.05 1.95 13.05 2.95 14.05 2.95 14.05 3.95" fill="#000000" fill-rule="evenodd" stroke="none"/>
    <path d="M-4.95 6.95 L-4.95 5.95 4.05 5.95 4.05 4.95 6.05 4.95 6.05 3.95 8.05 3.95 8.05 2.95 9.05 2.95 9.05 1.95 11.05 1.95 11.05 2.95 12.05 2.95 12.05 3.95 13.05 3.95 13.05 4.95 7.05 4.95 7.05 5.95 6.05 5.95 6.05 6.95 0.05 6.95 0.05 7.95 -2.95 7.95 -2.95 6.95 -4.95 6.95" fill="#ffffff" fill-rule="evenodd" stroke="none"/>
    <path d="M14.05 3.95 L17.05 3.95 17.05 4.95 18.05 4.95 18.05 6.95 16.05 6.95 16.05 5.95 15.05 5.95 15.05 4.95 14.05 4.95 14.05 3.95 M6.05 2.95 L6.05 0.95 7.05 0.95 7.05 1.95 8.05 1.95 8.05 2.95 6.05 2.95" fill="#666666" fill-rule="evenodd" stroke="none"/>
  </g>
</svg>
