<?xml version="1.0" encoding="UTF-8" standalone="no"?>
<svg xmlns:ffdec="https://www.free-decompiler.com/flash" xmlns:xlink="http://www.w3.org/1999/xlink" ffdec:objectType="shape" height="14.0px" width="29.0px" xmlns="http://www.w3.org/2000/svg">
  <g transform="matrix(1.0, 0.0, 0.0, 1.0, 10.95, -2.95)">
    <path d="M-2.05 5.95 L-3.95 5.95 -3.95 4.95 -5.95 4.95 -5.95 5.95 -4.95 5.95 -4.95 6.95 -2.95 6.95 -2.95 7.95 -2.05 7.95 -2.05 12.95 -2.95 12.95 -2.95 7.95 -5.95 7.95 -5.95 5.95 -6.95 5.95 -6.95 4.95 -5.95 4.95 -5.95 3.95 -3.95 3.95 -3.95 2.95 -2.05 2.95 -2.05 3.95 -2.95 3.95 -2.95 4.95 -2.05 4.95 -2.05 5.95 M-4.95 15.95 L-5.95 15.95 -5.95 16.95 -7.95 16.95 -7.95 15.95 -8.95 15.95 -8.95 11.95 -9.95 11.95 -9.95 10.95 -10.95 10.95 -10.95 8.95 -9.95 8.95 -9.95 7.95 -8.95 7.95 -8.95 6.95 -7.95 6.95 -7.95 5.95 -6.95 5.95 -6.95 6.95 -7.95 6.95 -7.95 7.95 -8.95 7.95 -8.95 8.95 -9.95 8.95 -9.95 10.95 -8.95 10.95 -8.95 11.95 -7.95 11.95 -7.95 15.95 -5.95 15.95 -5.95 13.95 -4.95 13.95 -4.95 11.95 -6.95 11.95 -6.95 10.95 -7.95 10.95 -7.95 8.95 -6.95 8.95 -6.95 7.95 -5.95 7.95 -5.95 8.95 -6.95 8.95 -6.95 10.95 -4.95 10.95 -4.95 11.95 -3.95 11.95 -3.95 12.95 -2.95 12.95 -2.95 13.95 -4.95 13.95 -4.95 15.95" fill="#000000" fill-rule="evenodd" stroke="none"/>
    <path d="M-2.05 4.95 L-2.95 4.95 -2.95 3.95 -2.05 3.95 -2.05 4.95 M-6.95 5.95 L-5.95 5.95 -5.95 7.95 -6.95 7.95 -6.95 8.95 -7.95 8.95 -7.95 10.95 -6.95 10.95 -6.95 11.95 -4.95 11.95 -4.95 13.95 -5.95 13.95 -5.95 15.95 -7.95 15.95 -7.95 11.95 -8.95 11.95 -8.95 10.95 -9.95 10.95 -9.95 8.95 -8.95 8.95 -8.95 7.95 -7.95 7.95 -7.95 6.95 -6.95 6.95 -6.95 5.95" fill="#ffffff" fill-rule="evenodd" stroke="none"/>
    <path d="M-2.05 7.95 L-2.95 7.95 -2.95 6.95 -4.95 6.95 -4.95 5.95 -5.95 5.95 -5.95 4.95 -3.95 4.95 -3.95 5.95 -2.05 5.95 -2.05 7.95 M-2.95 12.95 L-2.05 12.95 -2.05 14.95 -2.95 14.95 -2.95 13.95 -2.95 12.95" fill="#656565" fill-rule="evenodd" stroke="none"/>
    <path d="M-2.95 13.95 L-2.95 14.95 -2.05 14.95 -1.95 14.95 -1.95 15.95 -4.95 15.95 -4.95 13.95 -2.95 13.95" fill="#666666" fill-rule="evenodd" stroke="none"/>
    <path d="M13.05 10.95 L13.05 11.95 11.05 11.95 11.05 10.95 10.05 10.95 10.05 9.95 9.05 9.95 9.05 8.95 8.05 8.95 8.05 6.95 9.05 6.95 9.05 7.95 10.05 7.95 10.05 8.95 11.05 8.95 11.05 9.95 12.05 9.95 12.05 10.95 13.05 10.95 13.05 8.95 17.05 8.95 17.05 9.95 18.05 9.95 18.05 10.95 17.05 10.95 17.05 12.95 15.05 12.95 15.05 13.95 14.05 13.95 14.05 15.95 12.05 15.95 12.05 14.95 11.05 14.95 11.05 13.95 10.05 13.95 10.05 12.95 9.05 12.95 9.05 11.95 8.05 11.95 8.05 10.95 7.05 10.95 7.05 9.95 6.05 9.95 6.05 7.95 5.05 7.95 5.05 6.95 6.05 6.95 6.05 7.95 7.05 7.95 7.05 9.95 8.05 9.95 8.05 10.95 9.05 10.95 9.05 11.95 10.05 11.95 10.05 12.95 11.05 12.95 11.05 13.95 12.05 13.95 12.05 14.95 13.05 14.95 13.05 12.95 15.05 12.95 15.05 11.95 16.05 11.95 16.05 9.95 15.05 9.95 14.05 9.95 14.05 10.95 13.05 10.95 M7.05 6.95 L7.05 5.95 8.05 5.95 8.05 6.95 7.05 6.95" fill="#000000" fill-rule="evenodd" stroke="none"/>
    <path d="M8.05 6.95 L8.05 8.95 9.05 8.95 9.05 9.95 10.05 9.95 10.05 10.95 11.05 10.95 11.05 11.95 13.05 11.95 13.05 10.95 14.05 10.95 15.05 10.95 15.05 9.95 16.05 9.95 16.05 11.95 15.05 11.95 15.05 12.95 13.05 12.95 13.05 14.95 12.05 14.95 12.05 13.95 11.05 13.95 11.05 12.95 10.05 12.95 10.05 11.95 9.05 11.95 9.05 10.95 8.05 10.95 8.05 9.95 7.05 9.95 7.05 7.95 6.05 7.95 6.05 6.95 7.05 6.95 8.05 6.95" fill="#ffffff" fill-rule="evenodd" stroke="none"/>
  </g>
</svg>
