<?xml version="1.0" encoding="UTF-8" standalone="no"?>
<svg xmlns:ffdec="https://www.free-decompiler.com/flash" xmlns:xlink="http://www.w3.org/1999/xlink" ffdec:objectType="shape" height="18.0px" width="31.0px" xmlns="http://www.w3.org/2000/svg">
  <g transform="matrix(1.0, 0.0, 0.0, 1.0, 17.0, 8.0)">
    <path d="M4.0 -5.0 L4.0 -2.0 5.0 -2.0 5.0 1.0 6.0 1.0 6.0 -3.0 5.0 -3.0 5.0 -5.0 5.0 -8.0 6.0 -8.0 6.0 -3.0 7.0 -3.0 7.0 0.0 8.0 0.0 8.0 3.0 9.0 3.0 9.0 4.0 10.0 4.0 10.0 5.0 11.0 5.0 11.0 6.0 13.0 6.0 13.0 7.0 14.0 7.0 14.0 9.0 10.0 9.0 10.0 8.0 8.0 8.0 8.0 10.0 7.0 10.0 7.0 9.0 6.0 9.0 6.0 6.0 5.0 6.0 5.0 2.0 4.0 2.0 4.0 -2.0 3.0 -2.0 3.0 -4.0 2.0 -4.0 2.0 -5.0 4.0 -5.0 M13.0 7.0 L11.0 7.0 11.0 6.0 9.0 6.0 9.0 5.0 8.0 5.0 8.0 4.0 7.0 4.0 7.0 1.0 6.0 1.0 6.0 5.0 7.0 5.0 7.0 8.0 8.0 8.0 8.0 7.0 10.0 7.0 10.0 8.0 13.0 8.0 13.0 7.0 M-7.0 -5.0 L-5.0 -5.0 -5.0 -4.0 -6.0 -4.0 -6.0 -2.0 -7.0 -2.0 -7.0 2.0 -8.0 2.0 -8.0 6.0 -9.0 6.0 -9.0 9.0 -10.0 9.0 -10.0 10.0 -11.0 10.0 -11.0 8.0 -13.0 8.0 -13.0 9.0 -17.0 9.0 -17.0 7.0 -16.0 7.0 -16.0 6.0 -14.0 6.0 -14.0 5.0 -13.0 5.0 -13.0 4.0 -12.0 4.0 -12.0 3.0 -11.0 3.0 -11.0 0.0 -10.0 0.0 -10.0 -3.0 -9.0 -3.0 -9.0 -8.0 -8.0 -8.0 -8.0 -5.0 -8.0 -3.0 -9.0 -3.0 -9.0 1.0 -10.0 1.0 -10.0 4.0 -11.0 4.0 -11.0 5.0 -12.0 5.0 -12.0 6.0 -14.0 6.0 -14.0 7.0 -15.0 7.0 -15.0 8.0 -13.0 8.0 -13.0 7.0 -11.0 7.0 -11.0 8.0 -10.0 8.0 -10.0 5.0 -9.0 5.0 -9.0 1.0 -8.0 1.0 -8.0 -2.0 -7.0 -2.0 -7.0 -5.0" fill="#000000" fill-rule="evenodd" stroke="none"/>
    <path d="M4.0 -5.0 L5.0 -5.0 5.0 -3.0 6.0 -3.0 6.0 1.0 5.0 1.0 5.0 -2.0 4.0 -2.0 4.0 -5.0 M13.0 7.0 L13.0 8.0 10.0 8.0 10.0 7.0 8.0 7.0 8.0 8.0 7.0 8.0 7.0 5.0 6.0 5.0 6.0 1.0 7.0 1.0 7.0 4.0 8.0 4.0 8.0 5.0 9.0 5.0 9.0 6.0 11.0 6.0 11.0 7.0 13.0 7.0 M-8.0 -5.0 L-7.0 -5.0 -7.0 -2.0 -8.0 -2.0 -8.0 1.0 -9.0 1.0 -9.0 5.0 -10.0 5.0 -10.0 8.0 -11.0 8.0 -11.0 7.0 -13.0 7.0 -13.0 8.0 -15.0 8.0 -15.0 7.0 -14.0 7.0 -14.0 6.0 -12.0 6.0 -12.0 5.0 -11.0 5.0 -11.0 4.0 -10.0 4.0 -10.0 1.0 -9.0 1.0 -9.0 -3.0 -8.0 -3.0 -8.0 -5.0" fill="#ffffff" fill-rule="evenodd" stroke="none"/>
  </g>
</svg>
