<?xml version="1.0" encoding="UTF-8" standalone="no"?>
<svg xmlns:ffdec="https://www.free-decompiler.com/flash" xmlns:xlink="http://www.w3.org/1999/xlink" ffdec:objectType="shape" height="17.0px" width="21.0px" xmlns="http://www.w3.org/2000/svg">
  <g transform="matrix(1.0, 0.0, 0.0, 1.0, 12.0, 6.0)">
    <path d="M5.0 -5.0 L5.0 -6.0 6.0 -6.0 6.0 -4.0 7.0 -4.0 7.0 5.0 8.0 5.0 8.0 7.0 9.0 7.0 9.0 11.0 7.0 11.0 7.0 10.0 6.0 10.0 6.0 9.0 5.0 9.0 5.0 10.0 4.0 10.0 4.0 2.15 4.05 2.1 4.0 2.1 4.0 -1.0 3.0 -1.0 3.0 -4.0 4.0 -4.0 4.0 -2.0 5.0 -2.0 5.0 8.0 6.0 8.0 6.0 9.0 7.0 9.0 7.0 10.0 8.0 10.0 8.0 8.0 7.0 8.0 7.0 6.0 6.0 6.0 6.0 2.15 6.05 2.15 6.0 2.1 6.0 -3.0 5.0 -3.0 5.0 -5.0 M-7.0 -5.0 L-6.0 -5.0 -6.0 2.0 -7.0 2.0 -7.0 9.0 -8.0 9.0 -8.0 8.0 -9.0 8.0 -9.0 11.0 -11.0 11.0 -11.0 10.0 -12.0 10.0 -12.0 5.0 -10.0 5.0 -10.0 1.1 -9.95 1.1 -10.0 1.0 -10.0 -1.0 -9.0 -1.0 -9.0 -6.0 -8.0 -6.0 -8.0 -5.0 -8.0 0.0 -9.0 0.0 -9.0 1.05 -9.0 1.1 -9.0 6.0 -11.0 6.0 -11.0 9.0 -10.0 9.0 -10.0 7.0 -8.0 7.0 -8.0 1.1 -7.0 1.1 -7.0 1.05 -7.0 -5.0" fill="#000000" fill-rule="evenodd" stroke="none"/>
    <path d="M4.0 -4.0 L4.0 -5.0 5.0 -5.0 5.0 -3.0 6.0 -3.0 6.0 2.1 5.95 2.1 6.0 2.15 6.0 6.0 7.0 6.0 7.0 8.0 8.0 8.0 8.0 10.0 7.0 10.0 7.0 9.0 6.0 9.0 6.0 8.0 5.0 8.0 5.0 -2.0 4.0 -2.0 4.0 -4.0 M-8.0 -5.0 L-7.0 -5.0 -7.0 1.05 -8.0 1.05 -8.0 1.1 -8.0 7.0 -10.0 7.0 -10.0 9.0 -11.0 9.0 -11.0 6.0 -9.0 6.0 -9.0 1.1 -9.0 1.05 -9.0 0.0 -8.0 0.0 -8.0 -5.0" fill="#ffffff" fill-rule="evenodd" stroke="none"/>
  </g>
</svg>
