<?xml version="1.0" encoding="UTF-8" standalone="no"?>
<svg xmlns:ffdec="https://www.free-decompiler.com/flash" xmlns:xlink="http://www.w3.org/1999/xlink" ffdec:objectType="shape" height="19.0px" width="15.0px" xmlns="http://www.w3.org/2000/svg">
  <g transform="matrix(1.0, 0.0, 0.0, 1.0, 7.0, -0.95)">
    <path d="M6.0 2.95 L6.0 4.95 7.0 4.95 7.0 2.95 6.0 2.95 M7.0 2.95 L8.0 2.95 8.0 4.95 7.0 4.95 7.0 5.95 6.0 5.95 6.0 6.95 5.0 6.95 5.0 7.95 4.0 7.95 4.0 9.95 5.0 9.95 5.0 11.95 6.0 11.95 6.0 12.95 7.0 12.95 7.0 13.95 5.0 13.95 5.0 16.95 6.0 16.95 6.0 17.95 7.0 17.95 7.0 19.95 -6.0 19.95 -6.0 17.95 -5.0 17.95 -5.0 16.95 -4.0 16.95 -4.0 15.95 -6.0 15.95 -6.0 14.95 -5.0 14.95 -5.0 12.95 -4.0 12.95 -4.0 9.95 -3.0 9.95 -3.0 8.95 -4.0 8.95 -4.0 6.95 -5.0 6.95 -5.0 5.95 -6.0 5.95 -6.0 4.95 -7.0 4.95 -7.0 2.95 -6.0 2.95 -6.0 1.95 -3.0 1.95 -3.0 2.95 -1.0 2.95 -1.0 0.95 2.0 0.95 2.0 2.95 4.0 2.95 4.0 1.95 7.0 1.95 7.0 2.95 M-2.0 14.95 L-2.0 13.95 3.0 13.95 3.0 12.95 5.0 12.95 5.0 11.95 4.0 11.95 4.0 10.95 3.0 10.95 3.0 7.95 4.0 7.95 4.0 6.95 5.0 6.95 5.0 5.95 6.0 5.95 6.0 4.95 5.0 4.95 5.0 5.95 4.0 5.95 4.0 6.95 -3.0 6.95 -3.0 5.95 -4.0 5.95 -4.0 2.95 -5.0 2.95 -5.0 3.95 -6.0 3.95 -6.0 4.95 -5.0 4.95 -5.0 5.95 -4.0 5.95 -4.0 6.95 -3.0 6.95 -3.0 7.95 -2.0 7.95 -2.0 10.95 -3.0 10.95 -3.0 13.95 -4.0 13.95 -4.0 14.95 -2.0 14.95 -2.0 15.95 -3.0 15.95 -3.0 16.95 -4.0 16.95 -4.0 17.95 -5.0 17.95 -5.0 18.95 6.0 18.95 6.0 17.95 5.0 17.95 5.0 16.95 4.0 16.95 4.0 14.95 -2.0 14.95 M5.0 4.95 L5.0 3.95 1.0 3.95 1.0 1.95 0.0 1.95 0.0 3.95 -3.0 3.95 -3.0 4.95 -2.0 4.95 -2.0 5.95 3.0 5.95 3.0 4.95 5.0 4.95" fill="#000000" fill-rule="evenodd" stroke="none"/>
    <path d="M6.0 2.95 L7.0 2.95 7.0 4.95 6.0 4.95 6.0 2.95 M6.0 4.95 L6.0 5.95 5.0 5.95 5.0 6.95 4.0 6.95 4.0 7.95 3.0 7.95 3.0 10.95 4.0 10.95 4.0 11.95 5.0 11.95 5.0 12.95 3.0 12.95 3.0 13.95 -2.0 13.95 -2.0 14.95 -4.0 14.95 -4.0 13.95 -3.0 13.95 -3.0 10.95 -2.0 10.95 -2.0 7.95 -3.0 7.95 -3.0 6.95 -4.0 6.95 -4.0 5.95 -5.0 5.95 -5.0 4.95 -6.0 4.95 -6.0 3.95 -5.0 3.95 -5.0 2.95 -4.0 2.95 -4.0 5.95 -3.0 5.95 -3.0 6.95 4.0 6.95 4.0 5.95 5.0 5.95 5.0 4.95 6.0 4.95" fill="#656565" fill-rule="evenodd" stroke="none"/>
    <path d="M5.0 4.95 L3.0 4.95 3.0 5.95 -2.0 5.95 -2.0 4.95 -3.0 4.95 -3.0 3.95 0.0 3.95 0.0 1.95 1.0 1.95 1.0 3.95 5.0 3.95 5.0 4.95" fill="#ffffff" fill-rule="evenodd" stroke="none"/>
    <path d="M-2.0 14.95 L4.0 14.95 4.0 16.95 5.0 16.95 5.0 17.95 6.0 17.95 6.0 18.95 -5.0 18.95 -5.0 17.95 -4.0 17.95 -4.0 16.95 -3.0 16.95 -3.0 15.95 -2.0 15.95 -2.0 14.95" fill="#c8cbc8" fill-rule="evenodd" stroke="none"/>
  </g>
</svg>
