<?xml version="1.0" encoding="UTF-8" standalone="no"?>
<svg xmlns:ffdec="https://www.free-decompiler.com/flash" xmlns:xlink="http://www.w3.org/1999/xlink" ffdec:objectType="shape" height="24.0px" width="19.0px" xmlns="http://www.w3.org/2000/svg">
  <g transform="matrix(1.0, 0.0, 0.0, 1.0, 9.5, 12.0)">
    <path d="M8.5 -8.0 L9.5 -8.0 9.5 8.0 8.5 8.0 8.5 9.0 7.5 9.0 7.5 10.0 6.5 10.0 6.5 11.0 4.5 11.0 4.5 12.0 -4.5 12.0 -4.5 11.0 -6.5 11.0 -6.5 10.0 -7.5 10.0 -7.5 9.0 -8.5 9.0 -8.5 8.0 -9.5 8.0 -9.5 -8.0 -8.5 -8.0 -8.5 8.0 -7.5 8.0 -7.5 9.0 -6.5 9.0 -6.5 10.0 -4.5 10.0 -4.5 11.0 4.5 11.0 4.5 10.0 6.5 10.0 6.5 9.0 7.5 9.0 7.5 8.0 8.5 8.0 8.5 -8.0" fill="#000000" fill-rule="evenodd" stroke="none"/>
    <path d="M-8.5 -8.0 L-8.5 -9.0 -7.5 -9.0 -7.5 -10.0 -6.5 -10.0 -6.5 -11.0 -5.5 -11.0 -5.5 -12.0 5.5 -12.0 5.5 -11.0 6.5 -11.0 6.5 -10.0 7.5 -10.0 7.5 -9.0 8.5 -9.0 8.5 -8.0 8.5 8.0 7.5 8.0 7.5 9.0 6.5 9.0 6.5 10.0 4.5 10.0 4.5 11.0 -4.5 11.0 -4.5 10.0 -6.5 10.0 -6.5 9.0 -7.5 9.0 -7.5 8.0 -8.5 8.0 -8.5 -8.0" fill="#ffffff" fill-rule="evenodd" stroke="none"/>
  </g>
</svg>
