<?xml version="1.0" encoding="UTF-8" standalone="no"?>
<svg xmlns:ffdec="https://www.free-decompiler.com/flash" xmlns:xlink="http://www.w3.org/1999/xlink" ffdec:objectType="shape" height="29.0px" width="19.0px" xmlns="http://www.w3.org/2000/svg">
  <g transform="matrix(1.0, 0.0, 0.0, 1.0, 9.2, -5.95)">
    <path d="M1.05 19.95 L3.05 19.95 3.05 24.95 4.05 24.95 4.05 26.95 5.05 26.95 5.05 28.95 6.05 28.95 6.05 29.95 1.05 29.95 1.05 28.95 2.05 28.95 2.05 23.95 1.05 23.95 1.05 19.95 M-3.95 19.95 L-1.95 19.95 -1.95 24.95 -0.95 24.95 -0.95 28.95 0.05 28.95 0.05 29.95 -4.95 29.95 -4.95 28.95 -3.95 28.95 -3.95 19.95" fill="#656565" fill-rule="evenodd" stroke="none"/>
    <path d="M3.05 19.95 L4.05 19.95 4.05 23.95 5.05 23.95 5.05 25.95 6.05 25.95 6.05 28.95 7.05 28.95 7.05 30.95 7.8 30.95 7.8 31.95 8.8 31.95 8.8 32.95 9.8 32.95 9.8 34.95 1.8 34.95 1.8 30.95 -1.2 30.95 -1.2 34.95 -9.2 34.95 -9.2 32.95 -8.2 32.95 -8.2 31.95 -7.2 31.95 -7.2 30.95 -5.95 30.95 -5.95 28.95 -4.95 28.95 -4.95 18.95 -3.95 18.95 -3.95 19.95 -3.95 28.95 -4.95 28.95 -4.95 29.95 0.05 29.95 0.05 28.95 1.05 28.95 1.05 24.95 0.05 24.95 0.05 28.95 -0.95 28.95 -0.95 24.95 -1.95 24.95 -1.95 19.95 -0.95 19.95 -0.95 23.95 0.05 23.95 0.05 19.95 1.05 19.95 1.05 23.95 2.05 23.95 2.05 28.95 1.05 28.95 1.05 29.95 6.05 29.95 6.05 28.95 5.05 28.95 5.05 26.95 4.05 26.95 4.05 24.95 3.05 24.95 3.05 19.95 M7.8 31.95 L4.8 31.95 4.8 30.95 2.8 30.95 2.8 32.95 7.8 32.95 7.8 31.95 M-7.95 6.95 L-7.95 5.95 -6.95 5.95 -6.95 6.95 -7.95 6.95 M-2.2 30.95 L-4.2 30.95 -4.2 31.95 -7.2 31.95 -7.2 32.95 -2.2 32.95 -2.2 30.95" fill="#000000" fill-rule="evenodd" stroke="none"/>
    <path d="M7.8 31.95 L7.8 32.95 2.8 32.95 2.8 30.95 4.8 30.95 4.8 31.95 7.8 31.95 M-2.2 30.95 L-2.2 32.95 -7.2 32.95 -7.2 31.95 -4.2 31.95 -4.2 30.95 -2.2 30.95" fill="#c8cbc8" fill-rule="evenodd" stroke="none"/>
  </g>
</svg>
