<?xml version="1.0" encoding="UTF-8" standalone="no"?>
<svg xmlns:ffdec="https://www.free-decompiler.com/flash" xmlns:xlink="http://www.w3.org/1999/xlink" ffdec:objectType="shape" height="11.0px" width="24.85px" xmlns="http://www.w3.org/2000/svg">
  <g transform="matrix(1.0, 0.0, 0.0, 1.0, 12.95, -6.95)">
    <path d="M4.9 7.95 L4.9 8.95 5.9 8.95 5.9 9.95 6.9 9.95 6.9 10.95 5.9 10.95 5.9 16.95 6.9 16.95 6.9 14.95 7.9 14.95 7.9 16.95 10.9 16.95 10.9 14.95 8.9 14.95 8.9 13.95 7.9 13.95 7.9 12.95 6.9 12.95 6.9 11.95 7.9 11.95 7.9 8.95 6.9 8.95 6.9 7.95 5.9 7.95 5.9 6.95 6.9 6.95 6.9 7.95 7.9 7.95 7.9 8.95 8.9 8.95 8.9 11.95 7.9 11.95 7.9 12.95 8.9 12.95 8.9 13.95 10.9 13.95 10.9 14.95 11.9 14.95 11.9 16.95 10.9 16.95 10.9 17.95 7.9 17.95 7.9 16.95 6.9 16.95 6.9 17.95 5.9 17.95 5.9 16.95 4.9 16.95 4.9 10.95 5.9 10.95 5.9 9.95 4.9 9.95 4.9 8.95 3.9 8.95 3.9 7.95 4.9 7.95 M-5.95 7.95 L-4.95 7.95 -4.95 8.95 -5.95 8.95 -5.95 9.95 -6.95 9.95 -6.95 10.95 -5.95 10.95 -5.95 16.95 -6.95 16.95 -6.95 17.95 -7.95 17.95 -7.95 16.95 -8.95 16.95 -8.95 17.95 -11.95 17.95 -11.95 16.95 -12.95 16.95 -12.95 14.95 -11.95 14.95 -11.95 13.95 -9.95 13.95 -9.95 12.95 -8.95 12.95 -8.95 11.95 -9.95 11.95 -9.95 8.95 -8.95 8.95 -8.95 7.95 -7.95 7.95 -7.95 6.95 -6.95 6.95 -6.95 7.95 -7.95 7.95 -7.95 8.95 -8.95 8.95 -8.95 11.95 -7.95 11.95 -7.95 12.95 -8.95 12.95 -8.95 13.95 -9.95 13.95 -9.95 14.95 -11.95 14.95 -11.95 16.95 -8.95 16.95 -8.95 14.95 -7.95 14.95 -7.95 16.95 -6.95 16.95 -6.95 10.95 -7.95 10.95 -7.95 9.95 -6.95 9.95 -6.95 8.95 -5.95 8.95 -5.95 7.95" fill="#000000" fill-rule="evenodd" stroke="none"/>
    <path d="M5.9 6.95 L5.9 7.95 6.9 7.95 6.9 8.95 7.9 8.95 7.9 11.95 6.9 11.95 6.9 12.95 7.9 12.95 7.9 13.95 8.9 13.95 8.9 14.95 10.9 14.95 10.9 16.95 7.9 16.95 7.9 14.95 6.9 14.95 6.9 16.95 5.9 16.95 5.9 10.95 6.9 10.95 6.9 9.95 5.9 9.95 5.9 8.95 4.9 8.95 4.9 7.95 4.9 6.95 5.9 6.95 M-6.95 6.95 L-5.95 6.95 -5.95 7.95 -5.95 8.95 -6.95 8.95 -6.95 9.95 -7.95 9.95 -7.95 10.95 -6.95 10.95 -6.95 16.95 -7.95 16.95 -7.95 14.95 -8.95 14.95 -8.95 16.95 -11.95 16.95 -11.95 14.95 -9.95 14.95 -9.95 13.95 -8.95 13.95 -8.95 12.95 -7.95 12.95 -7.95 11.95 -8.95 11.95 -8.95 8.95 -7.95 8.95 -7.95 7.95 -6.95 7.95 -6.95 6.95" fill="#ffffff" fill-rule="evenodd" stroke="none"/>
  </g>
</svg>
