<?xml version="1.0" encoding="UTF-8" standalone="no"?>
<svg xmlns:ffdec="https://www.free-decompiler.com/flash" xmlns:xlink="http://www.w3.org/1999/xlink" ffdec:objectType="shape" height="17.05px" width="21.0px" xmlns="http://www.w3.org/2000/svg">
  <g transform="matrix(1.0, 0.0, 0.0, 1.0, 12.45, -0.95)">
    <path d="M-2.45 2.95 L-2.45 3.95 -6.45 3.95 -6.45 4.95 -4.45 4.95 -4.45 5.95 0.55 5.95 0.55 4.95 2.55 4.95 2.55 3.95 -1.45 3.95 -1.45 2.95 -2.45 2.95 M-6.95 17.95 L-6.95 16.95 -9.45 16.95 -9.45 15.95 -10.45 15.95 -10.45 14.95 -11.45 14.95 -11.45 13.95 -10.45 13.95 -10.45 12.95 -9.45 12.95 -9.45 11.95 -10.45 11.95 -10.45 10.95 -11.45 10.95 -11.45 9.95 -12.45 9.95 -12.45 8.95 -11.45 8.95 -11.45 7.95 -10.45 7.95 -10.45 6.95 -9.45 6.95 -9.45 4.95 -8.95 4.95 -8.95 3.95 -6.45 3.95 -6.45 2.95 -3.95 2.95 -3.95 1.95 -2.95 1.95 -2.95 0.95 0.05 0.95 0.05 2.95 2.55 2.95 2.55 3.95 4.55 3.95 4.55 4.95 5.55 4.95 5.55 6.95 6.55 6.95 6.55 7.95 7.55 7.95 7.55 8.95 8.55 8.95 8.55 9.95 7.55 9.95 7.55 10.95 6.55 10.95 6.55 11.95 5.55 11.95 5.55 12.95 6.55 12.95 6.55 13.95 7.55 13.95 7.55 14.95 6.55 14.95 6.55 15.95 5.55 15.95 5.55 16.95 4.05 16.95 4.05 17.0 3.1 17.0 3.1 16.95 1.65 16.95 1.65 15.95 1.6 15.95 1.6 14.85 -3.95 14.85 -3.95 13.95 1.05 13.95 1.05 12.95 1.55 12.95 1.55 11.95 0.55 11.95 0.55 9.95 1.05 9.95 1.05 7.95 2.55 7.95 2.55 6.95 3.55 6.95 3.55 5.95 4.55 5.95 4.55 4.95 2.55 4.95 2.55 5.95 0.55 5.95 0.55 6.95 -4.45 6.95 -4.45 5.95 -6.45 5.95 -6.45 4.95 -7.95 4.95 -7.95 5.95 -6.95 5.95 -6.95 6.95 -5.95 6.95 -5.95 7.95 -5.45 7.95 -5.45 9.95 -4.45 9.95 -4.45 11.95 -5.45 11.95 -5.45 14.95 -4.0 14.95 -4.0 15.95 -5.0 15.95 -5.0 16.95 -6.0 16.95 -6.0 17.95 -6.95 17.95 M4.55 8.95 L3.55 8.95 3.55 7.95 2.55 7.95 2.55 9.95 3.05 9.95 3.05 10.95 3.55 10.95 3.55 9.95 4.55 9.95 4.55 8.95 5.55 8.95 5.55 9.95 4.55 9.95 4.55 10.95 3.55 10.95 3.55 11.95 2.55 11.95 2.55 15.95 5.55 15.95 5.55 14.95 6.55 14.95 6.55 13.95 5.55 13.95 5.55 12.95 4.55 12.95 4.55 11.95 5.55 11.95 5.55 10.95 6.55 10.95 6.55 9.95 7.55 9.95 7.55 8.95 6.55 8.95 6.55 7.95 5.55 7.95 5.55 6.95 3.55 6.95 3.55 7.95 4.55 7.95 4.55 8.95 M2.05 10.95 L1.55 10.95 1.55 11.95 2.05 11.95 2.05 10.95 M4.55 12.95 L4.55 13.95 3.55 13.95 3.55 12.95 4.55 12.95 M-10.45 8.95 L-11.45 8.95 -11.45 9.95 -10.45 9.95 -10.45 10.95 -9.45 10.95 -9.45 11.95 -8.45 11.95 -8.45 12.95 -7.45 12.95 -7.45 13.95 -8.45 13.95 -8.45 12.95 -9.45 12.95 -9.45 13.95 -10.45 13.95 -10.45 14.95 -9.45 14.95 -9.45 15.95 -6.45 15.95 -6.45 11.95 -7.45 11.95 -7.45 10.95 -8.45 10.95 -8.45 9.95 -9.45 9.95 -9.45 8.95 -8.45 8.95 -8.45 7.95 -7.45 7.95 -7.45 6.95 -9.45 6.95 -9.45 7.95 -10.45 7.95 -10.45 8.95 M-8.45 9.95 L-7.45 9.95 -7.45 10.95 -6.45 10.95 -6.45 11.95 -5.45 11.95 -5.45 9.95 -6.45 9.95 -6.45 7.95 -7.45 7.95 -7.45 8.95 -8.45 8.95 -8.45 9.95" fill="#000000" fill-rule="evenodd" stroke="none"/>
    <path d="M-2.45 2.95 L-1.45 2.95 -1.45 3.95 2.55 3.95 2.55 4.95 0.55 4.95 0.55 5.95 -4.45 5.95 -4.45 4.95 -6.45 4.95 -6.45 3.95 -2.45 3.95 -2.45 2.95 M4.55 8.95 L4.55 7.95 3.55 7.95 3.55 6.95 5.55 6.95 5.55 7.95 6.55 7.95 6.55 8.95 7.55 8.95 7.55 9.95 6.55 9.95 6.55 10.95 5.55 10.95 5.55 11.95 4.55 11.95 4.55 12.95 5.55 12.95 5.55 13.95 6.55 13.95 6.55 14.95 5.55 14.95 5.55 15.95 2.55 15.95 2.55 11.95 3.55 11.95 3.55 10.95 4.55 10.95 4.55 9.95 5.55 9.95 5.55 8.95 4.55 8.95 M-10.45 8.95 L-10.45 7.95 -9.45 7.95 -9.45 6.95 -7.45 6.95 -7.45 7.95 -8.45 7.95 -8.45 8.95 -9.45 8.95 -9.45 9.95 -8.45 9.95 -8.45 10.95 -7.45 10.95 -7.45 11.95 -6.45 11.95 -6.45 15.95 -9.45 15.95 -9.45 14.95 -10.45 14.95 -10.45 13.95 -9.45 13.95 -9.45 12.95 -8.45 12.95 -8.45 13.95 -7.45 13.95 -7.45 12.95 -8.45 12.95 -8.45 11.95 -9.45 11.95 -9.45 10.95 -10.45 10.95 -10.45 9.95 -11.45 9.95 -11.45 8.95 -10.45 8.95 M4.55 12.95 L3.55 12.95 3.55 13.95 4.55 13.95 4.55 12.95" fill="#ffffff" fill-rule="evenodd" stroke="none"/>
    <path d="M-3.95 14.85 L-4.0 14.85 -4.0 14.95 -5.45 14.95 -5.45 11.95 -4.45 11.95 -4.45 9.95 -5.45 9.95 -5.45 7.95 -5.95 7.95 -5.95 6.95 -6.95 6.95 -6.95 5.95 -7.95 5.95 -7.95 4.95 -6.45 4.95 -6.45 5.95 -4.45 5.95 -4.45 6.95 0.55 6.95 0.55 5.95 2.55 5.95 2.55 4.95 4.55 4.95 4.55 5.95 3.55 5.95 3.55 6.95 2.55 6.95 2.55 7.95 1.05 7.95 1.05 9.95 0.55 9.95 0.55 11.95 1.55 11.95 1.55 12.95 1.05 12.95 1.05 13.95 -3.95 13.95 -3.95 14.85" fill="#656565" fill-rule="evenodd" stroke="none"/>
    <path d="M-6.0 17.95 L-6.0 18.0 -6.95 18.0 -6.95 17.95 -6.0 17.95" fill="#c8cbc8" fill-rule="evenodd" stroke="none"/>
  </g>
</svg>
