<?xml version="1.0" encoding="UTF-8" standalone="no"?>
<svg xmlns:ffdec="https://www.free-decompiler.com/flash" xmlns:xlink="http://www.w3.org/1999/xlink" ffdec:objectType="shape" height="21.0px" width="19.0px" xmlns="http://www.w3.org/2000/svg">
  <g transform="matrix(1.0, 0.0, 0.0, 1.0, 9.45, -13.95)">
    <path d="M1.55 19.95 L2.55 19.95 2.55 21.95 1.55 21.95 1.55 19.95 M2.55 21.95 L3.55 21.95 3.55 24.95 4.55 24.95 4.55 26.95 5.55 26.95 5.55 28.95 9.55 28.95 9.55 31.95 7.55 31.95 7.55 32.95 5.55 32.95 5.55 33.95 3.55 33.95 3.55 34.95 1.55 34.95 1.55 34.9 1.5 34.9 1.5 30.95 -1.45 30.95 -1.45 34.95 -9.45 34.95 -9.45 32.95 -8.5 32.95 -8.5 31.95 -7.5 31.95 -7.5 32.95 -2.45 32.95 -2.45 30.95 -4.45 30.95 -4.45 31.95 -7.45 31.95 -7.45 30.95 -6.45 30.95 -6.45 28.95 -5.45 28.95 -5.45 24.95 -6.45 24.95 -6.45 19.95 -5.45 19.95 -5.45 24.95 -4.45 24.95 -4.45 28.95 -5.45 28.95 -5.45 29.95 -0.45 29.95 -0.45 28.95 0.55 28.95 0.55 29.95 5.55 29.95 5.55 28.95 4.55 28.95 4.55 26.95 3.55 26.95 3.55 24.95 2.55 24.95 2.55 21.95 M-3.45 19.95 L-2.45 19.95 -2.45 22.95 -1.45 22.95 -1.45 19.95 -0.45 19.95 -0.45 23.95 0.55 23.95 0.55 26.95 1.55 26.95 1.55 28.95 0.55 28.95 0.55 26.95 -0.45 26.95 -0.45 28.95 -1.45 28.95 -1.45 26.95 -2.45 26.95 -2.45 22.95 -3.45 22.95 -3.45 19.95 M7.05 29.95 L6.05 29.95 6.05 30.95 2.5 30.95 2.5 32.95 3.05 32.95 3.05 31.95 6.05 31.95 6.05 30.95 7.05 30.95 7.05 29.95 M-2.95 17.95 L-5.95 17.95 -5.95 16.95 -2.95 16.95 -2.95 17.95 M-1.45 26.95 L-0.45 26.95 -0.45 23.95 -1.45 23.95 -1.45 26.95" fill="#000000" fill-rule="evenodd" stroke="none"/>
    <path d="M-7.5 31.95 L-7.45 31.95 -4.45 31.95 -4.45 30.95 -2.45 30.95 -2.45 32.95 -7.5 32.95 -7.5 31.95 M7.05 29.95 L7.05 30.95 6.05 30.95 6.05 31.95 3.05 31.95 3.05 32.95 2.5 32.95 2.5 30.95 6.05 30.95 6.05 29.95 7.05 29.95" fill="#c8cbc8" fill-rule="evenodd" stroke="none"/>
    <path d="M1.55 19.95 L1.55 21.95 2.55 21.95 2.55 24.95 3.55 24.95 3.55 26.95 4.55 26.95 4.55 28.95 5.55 28.95 5.55 29.95 0.55 29.95 0.55 28.95 1.55 28.95 1.55 26.95 0.55 26.95 0.55 23.95 -0.45 23.95 -0.45 19.95 1.55 19.95 M-5.45 19.95 L-3.45 19.95 -3.45 22.95 -2.45 22.95 -2.45 26.95 -1.45 26.95 -1.45 28.95 -0.45 28.95 -0.45 29.95 -5.45 29.95 -5.45 28.95 -4.45 28.95 -4.45 24.95 -5.45 24.95 -5.45 19.95" fill="#656565" fill-rule="evenodd" stroke="none"/>
    <path d="M0.55 14.95 L-4.45 14.95 -4.45 15.95 -5.45 15.95 -5.45 16.95 -6.45 16.95 -6.45 17.95 -7.45 17.95 -7.45 18.95 3.55 18.95 3.55 17.95 2.55 17.95 2.55 16.95 1.55 16.95 1.55 15.95 0.55 15.95 0.55 14.95 M2.55 15.95 L2.55 16.95 3.55 16.95 3.55 17.95 4.5 17.95 4.5 19.95 -8.4 19.95 -8.4 17.95 -7.45 17.95 -7.45 15.95 -6.45 15.95 -6.45 14.95 -4.45 14.95 -4.45 13.95 1.55 13.95 1.55 15.95 2.55 15.95" fill="#000000" fill-rule="evenodd" stroke="none"/>
    <path d="M0.55 14.95 L0.55 15.95 1.55 15.95 1.55 16.95 2.55 16.95 2.55 17.95 3.55 17.95 3.55 18.95 -7.45 18.95 -7.45 17.95 -6.45 17.95 -6.45 16.95 -5.45 16.95 -5.45 15.95 -4.45 15.95 -4.45 14.95 0.55 14.95" fill="#c8cbc8" fill-rule="evenodd" stroke="none"/>
  </g>
</svg>
