<?xml version="1.0" encoding="UTF-8" standalone="no"?>
<svg xmlns:ffdec="https://www.free-decompiler.com/flash" xmlns:xlink="http://www.w3.org/1999/xlink" ffdec:objectType="shape" height="29.0px" width="32.0px" xmlns="http://www.w3.org/2000/svg">
  <g transform="matrix(1.0, 0.0, 0.0, 1.0, 18.1, 16.0)">
    <path d="M-10.1 -14.0 L-7.1 -14.0 -7.1 -15.0 -0.1 -15.0 -0.1 -14.0 2.9 -14.0 2.9 -13.0 4.9 -13.0 4.9 -12.0 2.9 -12.0 2.9 -13.0 -0.1 -13.0 -0.1 -14.0 -6.1 -14.0 -6.1 -13.0 -9.1 -13.0 -9.1 -12.0 -11.1 -12.0 -11.1 -11.0 -13.1 -11.0 -13.1 -10.0 -14.1 -10.0 -14.1 -9.0 -15.1 -9.0 -15.1 -8.0 -12.1 -8.0 -12.1 -9.0 -10.1 -9.0 -10.1 -10.0 -7.1 -10.0 -7.1 -11.0 -0.1 -11.0 -0.1 -10.0 2.9 -10.0 2.9 -9.0 4.9 -9.0 4.9 -8.0 5.9 -8.0 5.9 -7.0 6.9 -7.0 6.9 -6.0 5.9 -6.0 5.9 -7.0 3.9 -7.0 3.9 -8.0 1.9 -8.0 1.9 -9.0 -4.1 -9.0 -4.1 -8.0 -6.1 -8.0 -6.1 -7.0 -8.1 -7.0 -8.1 -5.0 12.9 -5.0 12.9 -4.0 -8.1 -4.0 -8.1 -3.0 -5.1 -3.0 -5.1 -2.0 -3.1 -2.0 -3.1 0.0 -2.1 0.0 -2.1 5.0 -3.1 5.0 -3.1 7.0 -4.1 7.0 -4.1 8.0 -6.1 8.0 -6.1 7.0 -7.1 7.0 -7.1 10.0 -6.1 10.0 -6.1 11.0 -5.1 11.0 -5.1 12.0 -11.1 12.0 -11.1 11.0 -12.1 11.0 -12.1 10.0 -10.1 10.0 -10.1 11.0 -9.1 11.0 -9.1 10.0 -10.1 10.0 -10.1 9.0 -14.1 9.0 -14.1 4.0 -13.1 4.0 -13.1 1.0 -11.1 1.0 -11.1 2.0 -12.1 2.0 -12.1 4.0 -10.1 4.0 -10.1 1.0 -9.1 1.0 -9.1 2.0 -8.1 2.0 -8.1 0.0 -7.1 0.0 -7.1 -1.0 -11.1 -1.0 -11.1 0.0 -13.1 0.0 -13.1 -5.0 -11.1 -5.0 -11.1 -4.0 -8.1 -4.0 -8.1 -5.0 -11.1 -5.0 -11.1 -6.0 -14.1 -6.0 -14.1 -7.0 -17.1 -7.0 -17.1 -9.0 -16.1 -9.0 -16.1 -10.0 -15.1 -10.0 -15.1 -11.0 -14.1 -11.0 -14.1 -12.0 -12.1 -12.0 -12.1 -13.0 -10.1 -13.0 -10.1 -14.0 M-9.1 5.0 L-8.1 5.0 -8.1 4.0 -9.1 4.0 -9.1 5.0 -12.1 5.0 -12.1 6.0 -9.1 6.0 -9.1 5.0" fill="#ffffff" fill-rule="evenodd" stroke="none"/>
    <path d="M-10.1 -14.0 L-10.1 -15.0 -8.1 -15.0 -8.1 -16.0 4.9 -16.0 4.9 -15.0 5.9 -15.0 5.9 -14.0 7.9 -14.0 7.9 -13.0 8.9 -13.0 8.9 -12.0 9.9 -12.0 9.9 -11.0 10.9 -11.0 10.9 -10.0 11.9 -10.0 11.9 -8.0 12.9 -8.0 12.9 -6.0 13.9 -6.0 13.9 -3.0 11.9 -3.0 11.9 0.0 10.9 0.0 10.9 2.0 9.9 2.0 9.9 4.0 8.9 4.0 8.9 8.0 9.9 8.0 9.9 7.0 10.9 7.0 10.9 6.0 11.9 6.0 11.9 10.0 10.9 10.0 10.9 11.0 9.9 11.0 9.9 12.0 7.9 12.0 7.9 13.0 -11.1 13.0 -11.1 12.0 -5.1 12.0 -5.1 11.0 -6.1 11.0 -6.1 10.0 -7.1 10.0 -7.1 7.0 -6.1 7.0 -6.1 8.0 -4.1 8.0 -4.1 7.0 -3.1 7.0 -3.1 5.0 -2.1 5.0 -2.1 0.0 -3.1 0.0 -3.1 -2.0 -5.1 -2.0 -5.1 -3.0 -8.1 -3.0 -8.1 -4.0 12.9 -4.0 12.9 -5.0 -8.1 -5.0 -8.1 -7.0 -6.1 -7.0 -6.1 -8.0 -4.1 -8.0 -4.1 -9.0 1.9 -9.0 1.9 -8.0 3.9 -8.0 3.9 -7.0 5.9 -7.0 5.9 -6.0 6.9 -6.0 6.9 -7.0 5.9 -7.0 5.9 -8.0 4.9 -8.0 4.9 -9.0 2.9 -9.0 2.9 -10.0 -0.1 -10.0 -0.1 -11.0 -7.1 -11.0 -7.1 -10.0 -10.1 -10.0 -10.1 -9.0 -12.1 -9.0 -12.1 -8.0 -15.1 -8.0 -15.1 -9.0 -14.1 -9.0 -14.1 -10.0 -13.1 -10.0 -13.1 -11.0 -11.1 -11.0 -11.1 -12.0 -9.1 -12.0 -9.1 -13.0 -6.1 -13.0 -6.1 -14.0 -0.1 -14.0 -0.1 -13.0 2.9 -13.0 2.9 -12.0 4.9 -12.0 4.9 -13.0 2.9 -13.0 2.9 -14.0 -0.1 -14.0 -0.1 -15.0 -7.1 -15.0 -7.1 -14.0 -10.1 -14.0 -10.1 -13.0 -12.1 -13.0 -12.1 -14.0 -10.1 -14.0 M-12.1 11.0 L-11.1 11.0 -11.1 12.0 -12.1 12.0 -12.1 11.0 -13.1 11.0 -13.1 10.0 -14.1 10.0 -14.1 9.0 -15.1 9.0 -15.1 4.0 -14.1 4.0 -14.1 -6.0 -18.1 -6.0 -18.1 -9.0 -17.1 -9.0 -17.1 -10.0 -16.1 -10.0 -16.1 -11.0 -15.1 -11.0 -15.1 -12.0 -14.1 -12.0 -14.1 -13.0 -12.1 -13.0 -12.1 -12.0 -14.1 -12.0 -14.1 -11.0 -15.1 -11.0 -15.1 -10.0 -16.1 -10.0 -16.1 -9.0 -17.1 -9.0 -17.1 -7.0 -14.1 -7.0 -14.1 -6.0 -11.1 -6.0 -11.1 -5.0 -8.1 -5.0 -8.1 -4.0 -11.1 -4.0 -11.1 -5.0 -13.1 -5.0 -13.1 0.0 -11.1 0.0 -11.1 -1.0 -7.1 -1.0 -7.1 0.0 -8.1 0.0 -8.1 2.0 -9.1 2.0 -9.1 1.0 -10.1 1.0 -10.1 4.0 -12.1 4.0 -12.1 2.0 -11.1 2.0 -11.1 1.0 -13.1 1.0 -13.1 4.0 -14.1 4.0 -14.1 9.0 -10.1 9.0 -10.1 10.0 -9.1 10.0 -9.1 11.0 -10.1 11.0 -10.1 10.0 -12.1 10.0 -12.1 11.0 M-9.1 5.0 L-9.1 6.0 -12.1 6.0 -12.1 5.0 -9.1 5.0 -9.1 4.0 -8.1 4.0 -8.1 5.0 -9.1 5.0" fill="#000000" fill-rule="evenodd" stroke="none"/>
  </g>
</svg>
