<?xml version="1.0" encoding="UTF-8" standalone="no"?>
<svg xmlns:ffdec="https://www.free-decompiler.com/flash" xmlns:xlink="http://www.w3.org/1999/xlink" ffdec:objectType="shape" height="9.0px" width="52.0px" xmlns="http://www.w3.org/2000/svg">
  <g transform="matrix(1.0, 0.0, 0.0, 1.0, 12.0, -50.45)">
    <path d="M37.0 54.45 L37.0 55.45 38.0 55.45 38.0 56.45 37.0 56.45 37.0 55.45 36.0 55.45 36.0 54.45 35.0 54.45 35.0 53.45 36.0 53.45 36.0 54.45 37.0 54.45 M39.0 56.45 L39.0 57.45 38.0 57.45 38.0 56.45 39.0 56.45 M34.0 51.45 L34.0 52.45 35.0 52.45 35.0 53.45 34.0 53.45 34.0 52.45 33.0 52.45 33.0 51.45 34.0 51.45 M19.0 54.45 L19.0 58.45 16.0 58.45 16.0 54.45 19.0 54.45" fill="#d1d1d1" fill-rule="evenodd" stroke="none"/>
    <path d="M38.0 55.45 L37.0 55.45 37.0 54.45 38.0 54.45 38.0 55.45 39.0 55.45 39.0 56.45 40.0 56.45 40.0 58.45 39.0 58.45 39.0 59.45 35.0 59.45 35.0 58.45 34.0 58.45 34.0 59.45 -12.0 59.45 -12.0 57.45 -11.0 57.45 -11.0 56.45 -9.0 56.45 -9.0 55.45 -4.0 55.45 -4.0 56.45 2.0 56.45 2.0 55.45 8.0 55.45 8.0 54.45 14.0 54.45 14.0 53.45 15.0 53.45 15.0 54.45 16.0 54.45 16.0 53.45 19.0 53.45 19.0 52.45 20.0 52.45 20.0 55.45 24.0 55.45 24.0 54.45 28.0 54.45 28.0 53.45 31.0 53.45 31.0 52.45 32.0 52.45 32.0 50.45 34.0 50.45 34.0 51.45 35.0 51.45 35.0 52.45 36.0 52.45 36.0 53.45 35.0 53.45 35.0 54.45 36.0 54.45 36.0 55.45 37.0 55.45 37.0 56.45 38.0 56.45 38.0 55.45 M36.0 53.45 L37.0 53.45 37.0 54.45 36.0 54.45 36.0 53.45 M34.0 51.45 L33.0 51.45 33.0 52.45 34.0 52.45 34.0 53.45 35.0 53.45 35.0 52.45 34.0 52.45 34.0 51.45 M39.0 56.45 L38.0 56.45 38.0 57.45 39.0 57.45 39.0 56.45 M31.0 53.45 L31.0 54.45 28.0 54.45 28.0 55.45 25.0 55.45 25.0 56.45 26.0 56.45 26.0 58.45 34.0 58.45 34.0 57.45 33.0 57.45 33.0 55.45 32.0 55.45 32.0 53.45 31.0 53.45 M-2.0 57.45 L-5.0 57.45 -5.0 56.45 -9.0 56.45 -9.0 57.45 -11.0 57.45 -11.0 58.45 -2.0 58.45 -2.0 57.45 M0.0 58.45 L6.0 58.45 6.0 57.45 5.0 57.45 5.0 56.45 2.0 56.45 2.0 57.45 0.0 57.45 0.0 58.45 M20.0 56.45 L20.0 58.45 24.0 58.45 24.0 56.45 20.0 56.45 M19.0 54.45 L16.0 54.45 16.0 58.45 19.0 58.45 19.0 54.45 M14.0 54.45 L14.0 55.45 8.0 55.45 8.0 56.45 7.0 56.45 7.0 58.45 15.0 58.45 15.0 54.45 14.0 54.45" fill="#000000" fill-rule="evenodd" stroke="none"/>
    <path d="M31.0 53.45 L32.0 53.45 32.0 55.45 33.0 55.45 33.0 57.45 34.0 57.45 34.0 58.45 26.0 58.45 26.0 56.45 25.0 56.45 25.0 55.45 28.0 55.45 28.0 54.45 31.0 54.45 31.0 53.45 M20.0 56.45 L24.0 56.45 24.0 58.45 20.0 58.45 20.0 56.45 M14.0 54.45 L15.0 54.45 15.0 58.45 7.0 58.45 7.0 56.45 8.0 56.45 8.0 55.45 14.0 55.45 14.0 54.45" fill="#777777" fill-rule="evenodd" stroke="none"/>
    <path d="M0.0 58.45 L0.0 57.45 2.0 57.45 2.0 56.45 5.0 56.45 5.0 57.45 6.0 57.45 6.0 58.45 0.0 58.45 M-2.0 57.45 L-2.0 58.45 -11.0 58.45 -11.0 57.45 -9.0 57.45 -9.0 56.45 -5.0 56.45 -5.0 57.45 -2.0 57.45" fill="#ffffff" fill-rule="evenodd" stroke="none"/>
  </g>
</svg>
