<?xml version="1.0" encoding="UTF-8" standalone="no"?>
<svg xmlns:ffdec="https://www.free-decompiler.com/flash" xmlns:xlink="http://www.w3.org/1999/xlink" ffdec:objectType="shape" height="14.0px" width="39.0px" xmlns="http://www.w3.org/2000/svg">
  <g transform="matrix(1.0, 0.0, 0.0, 1.0, -4.0, -45.45)">
    <path d="M42.0 55.45 L42.0 56.45 43.0 56.45 43.0 58.45 41.0 58.45 41.0 59.45 39.0 59.45 39.0 58.45 38.0 58.45 38.0 57.45 37.0 57.45 37.0 56.45 35.0 56.45 35.0 57.45 31.0 57.45 31.0 58.45 29.0 58.45 29.0 59.45 25.0 59.45 25.0 55.45 26.0 55.45 26.0 53.45 25.0 53.45 25.0 54.45 23.0 54.45 23.0 55.45 21.0 55.45 21.0 56.45 19.0 56.45 19.0 57.45 17.0 57.45 17.0 56.45 14.0 56.45 14.0 57.45 13.0 57.45 13.0 59.45 4.0 59.45 4.0 57.45 5.0 57.45 5.0 56.45 8.0 56.45 8.0 55.45 11.0 55.45 11.0 54.45 12.0 54.45 12.0 52.45 13.0 52.45 13.0 49.45 14.0 49.45 14.0 48.45 17.0 48.45 17.0 51.45 19.0 51.45 19.0 50.45 21.0 50.45 21.0 49.45 22.0 49.45 22.0 48.45 23.0 48.45 23.0 47.45 24.0 47.45 24.0 46.45 25.0 46.45 25.0 45.45 27.0 45.45 27.0 47.45 28.0 47.45 28.0 46.45 33.0 46.45 33.0 47.45 34.0 47.45 34.0 51.45 35.0 51.45 35.0 50.45 37.0 50.45 37.0 51.45 38.0 51.45 38.0 52.45 39.0 52.45 39.0 53.45 40.0 53.45 40.0 54.45 41.0 54.45 41.0 55.45 42.0 55.45 M42.0 56.45 L41.0 56.45 41.0 57.45 42.0 57.45 42.0 56.45 M41.0 55.45 L40.0 55.45 40.0 56.45 41.0 56.45 41.0 55.45 M27.0 49.45 L26.0 49.45 26.0 46.45 25.0 46.45 25.0 47.45 24.0 47.45 24.0 48.45 23.0 48.45 23.0 49.45 22.0 49.45 22.0 50.45 21.0 50.45 21.0 51.45 19.0 51.45 19.0 52.45 17.0 52.45 17.0 51.45 16.0 51.45 16.0 53.45 17.0 53.45 17.0 54.45 18.0 54.45 18.0 56.45 19.0 56.45 19.0 55.45 21.0 55.45 21.0 54.45 23.0 54.45 23.0 53.45 25.0 53.45 25.0 52.45 27.0 52.45 27.0 49.45 28.0 49.45 28.0 51.45 29.0 51.45 29.0 52.45 28.0 52.45 28.0 53.45 27.0 53.45 27.0 55.45 26.0 55.45 26.0 56.45 27.0 56.45 27.0 55.45 29.0 55.45 29.0 56.45 28.0 56.45 28.0 58.45 29.0 58.45 29.0 57.45 31.0 57.45 31.0 56.45 35.0 56.45 35.0 55.45 34.0 55.45 34.0 54.45 33.0 54.45 33.0 53.45 31.0 53.45 31.0 52.45 32.0 52.45 32.0 51.45 33.0 51.45 33.0 50.45 30.0 50.45 30.0 49.45 32.0 49.45 32.0 48.45 33.0 48.45 33.0 47.45 28.0 47.45 28.0 48.45 27.0 48.45 27.0 49.45 M33.0 51.45 L33.0 52.45 34.0 52.45 34.0 51.45 33.0 51.45 M17.0 54.45 L15.0 54.45 15.0 55.45 17.0 55.45 17.0 54.45 M13.0 52.45 L13.0 54.45 12.0 54.45 12.0 56.45 8.0 56.45 8.0 57.45 5.0 57.45 5.0 58.45 12.0 58.45 12.0 57.45 13.0 57.45 13.0 55.45 14.0 55.45 14.0 53.45 15.0 53.45 15.0 50.45 14.0 50.45 14.0 52.45 13.0 52.45 M37.0 51.45 L36.0 51.45 36.0 52.45 37.0 52.45 37.0 53.45 38.0 53.45 38.0 54.45 39.0 54.45 39.0 55.45 40.0 55.45 40.0 54.45 39.0 54.45 39.0 53.45 38.0 53.45 38.0 52.45 37.0 52.45 37.0 51.45 M31.0 53.45 L31.0 54.45 30.0 54.45 30.0 55.45 29.0 55.45 29.0 54.45 30.0 54.45 30.0 53.45 31.0 53.45 M30.0 50.45 L30.0 51.45 29.0 51.45 29.0 50.45 30.0 50.45" fill="#000000" fill-rule="evenodd" stroke="none"/>
    <path d="M41.0 55.45 L41.0 56.45 40.0 56.45 40.0 55.45 41.0 55.45 M42.0 56.45 L42.0 57.45 41.0 57.45 41.0 56.45 42.0 56.45 M27.0 49.45 L27.0 48.45 28.0 48.45 28.0 47.45 33.0 47.45 33.0 48.45 32.0 48.45 32.0 49.45 30.0 49.45 30.0 50.45 29.0 50.45 29.0 51.45 28.0 51.45 28.0 49.45 27.0 49.45 M37.0 51.45 L37.0 52.45 38.0 52.45 38.0 53.45 39.0 53.45 39.0 54.45 40.0 54.45 40.0 55.45 39.0 55.45 39.0 54.45 38.0 54.45 38.0 53.45 37.0 53.45 37.0 52.45 36.0 52.45 36.0 51.45 37.0 51.45" fill="#d1d1d1" fill-rule="evenodd" stroke="none"/>
    <path d="M25.0 46.45 L26.0 46.45 26.0 49.45 27.0 49.45 27.0 52.45 25.0 52.45 25.0 53.45 23.0 53.45 23.0 54.45 21.0 54.45 21.0 55.45 19.0 55.45 19.0 56.45 18.0 56.45 18.0 54.45 17.0 54.45 17.0 53.45 16.0 53.45 16.0 51.45 17.0 51.45 17.0 52.45 19.0 52.45 19.0 51.45 21.0 51.45 21.0 50.45 22.0 50.45 22.0 49.45 23.0 49.45 23.0 48.45 24.0 48.45 24.0 47.45 25.0 47.45 25.0 46.45 M30.0 50.45 L33.0 50.45 33.0 51.45 32.0 51.45 32.0 52.45 31.0 52.45 31.0 53.45 33.0 53.45 33.0 54.45 34.0 54.45 34.0 55.45 35.0 55.45 35.0 56.45 31.0 56.45 31.0 57.45 29.0 57.45 29.0 58.45 28.0 58.45 28.0 56.45 29.0 56.45 29.0 55.45 27.0 55.45 27.0 56.45 26.0 56.45 26.0 55.45 27.0 55.45 27.0 53.45 28.0 53.45 28.0 52.45 29.0 52.45 29.0 51.45 30.0 51.45 30.0 50.45 M31.0 53.45 L30.0 53.45 30.0 54.45 29.0 54.45 29.0 55.45 30.0 55.45 30.0 54.45 31.0 54.45 31.0 53.45" fill="#777777" fill-rule="evenodd" stroke="none"/>
    <path d="M17.0 54.45 L17.0 55.45 15.0 55.45 15.0 54.45 17.0 54.45 M13.0 52.45 L14.0 52.45 14.0 50.45 15.0 50.45 15.0 53.45 14.0 53.45 14.0 55.45 13.0 55.45 13.0 57.45 12.0 57.45 12.0 58.45 5.0 58.45 5.0 57.45 8.0 57.45 8.0 56.45 12.0 56.45 12.0 54.45 13.0 54.45 13.0 52.45" fill="#ffffff" fill-rule="evenodd" stroke="none"/>
  </g>
</svg>
