<?xml version="1.0" encoding="UTF-8" standalone="no"?>
<svg xmlns:ffdec="https://www.free-decompiler.com/flash" xmlns:xlink="http://www.w3.org/1999/xlink" ffdec:objectType="shape" height="23.0px" width="29.0px" xmlns="http://www.w3.org/2000/svg">
  <g transform="matrix(1.0, 0.0, 0.0, 1.0, -16.0, -36.45)">
    <path d="M19.0 37.45 L19.0 36.45 23.0 36.45 23.0 37.45 21.0 37.45 21.0 38.45 20.0 38.45 20.0 37.45 19.0 37.45 M23.0 37.45 L24.0 37.45 24.0 38.45 25.0 38.45 25.0 39.45 26.0 39.45 26.0 40.45 28.0 40.45 28.0 41.45 29.0 41.45 29.0 42.45 31.0 42.45 31.0 43.45 33.0 43.45 33.0 44.45 34.0 44.45 34.0 46.45 35.0 46.45 35.0 48.45 36.0 48.45 36.0 50.45 35.0 50.45 35.0 51.45 37.0 51.45 37.0 50.45 39.0 50.45 39.0 51.45 40.0 51.45 40.0 52.45 41.0 52.45 41.0 53.45 42.0 53.45 42.0 54.45 43.0 54.45 43.0 55.45 44.0 55.45 44.0 56.45 45.0 56.45 45.0 58.45 43.0 58.45 43.0 59.45 40.0 59.45 40.0 58.45 39.0 58.45 39.0 57.45 37.0 57.45 37.0 56.45 36.0 56.45 36.0 57.45 30.0 57.45 30.0 58.45 29.0 58.45 29.0 59.45 28.0 59.45 28.0 58.45 27.0 58.45 27.0 59.45 25.0 59.45 25.0 58.45 24.0 58.45 24.0 59.45 22.0 59.45 22.0 58.45 21.0 58.45 21.0 59.45 19.0 59.45 19.0 58.45 18.0 58.45 18.0 59.45 17.0 59.45 17.0 58.45 16.0 58.45 16.0 57.45 17.0 57.45 17.0 56.45 18.0 56.45 18.0 54.45 20.0 54.45 20.0 53.45 19.0 53.45 19.0 50.45 20.0 50.45 20.0 49.45 21.0 49.45 21.0 44.45 20.0 44.45 20.0 41.45 19.0 41.45 19.0 38.45 20.0 38.45 20.0 39.45 22.0 39.45 22.0 40.45 23.0 40.45 23.0 42.45 22.0 42.45 22.0 40.45 20.0 40.45 20.0 41.45 21.0 41.45 21.0 43.45 22.0 43.45 22.0 44.45 23.0 44.45 23.0 42.45 24.0 42.45 24.0 44.45 28.0 44.45 28.0 43.45 29.0 43.45 29.0 42.45 27.0 42.45 27.0 41.45 26.0 41.45 26.0 40.45 25.0 40.45 25.0 39.45 24.0 39.45 24.0 38.45 23.0 38.45 23.0 37.45 M23.0 50.45 L23.0 46.45 22.0 46.45 22.0 49.45 21.0 49.45 21.0 50.45 20.0 50.45 20.0 52.45 21.0 52.45 21.0 53.45 22.0 53.45 22.0 54.45 23.0 54.45 23.0 52.45 24.0 52.45 24.0 53.45 26.0 53.45 26.0 54.45 27.0 54.45 27.0 52.45 26.0 52.45 26.0 51.45 25.0 51.45 25.0 50.45 23.0 50.45 23.0 52.45 22.0 52.45 22.0 50.45 23.0 50.45 M26.0 46.45 L31.0 46.45 31.0 45.45 33.0 45.45 33.0 44.45 31.0 44.45 31.0 43.45 29.0 43.45 29.0 44.45 28.0 44.45 28.0 45.45 26.0 45.45 26.0 46.45 M35.0 50.45 L35.0 49.45 34.0 49.45 34.0 46.45 31.0 46.45 31.0 47.45 24.0 47.45 24.0 49.45 26.0 49.45 26.0 50.45 33.0 50.45 33.0 51.45 29.0 51.45 29.0 52.45 28.0 52.45 28.0 53.45 29.0 53.45 29.0 54.45 30.0 54.45 30.0 53.45 32.0 53.45 32.0 52.45 33.0 52.45 33.0 51.45 34.0 51.45 34.0 50.45 35.0 50.45 M29.0 57.45 L30.0 57.45 30.0 56.45 36.0 56.45 36.0 55.45 35.0 55.45 35.0 53.45 33.0 53.45 33.0 54.45 31.0 54.45 31.0 55.45 28.0 55.45 28.0 56.45 29.0 56.45 29.0 57.45 28.0 57.45 28.0 58.45 29.0 58.45 29.0 57.45 M21.0 58.45 L21.0 57.45 19.0 57.45 19.0 58.45 21.0 58.45 M17.0 58.45 L18.0 58.45 18.0 57.45 17.0 57.45 17.0 58.45 M22.0 58.45 L24.0 58.45 24.0 57.45 22.0 57.45 22.0 58.45 M25.0 58.45 L27.0 58.45 27.0 57.45 25.0 57.45 25.0 58.45 M44.0 56.45 L43.0 56.45 43.0 55.45 42.0 55.45 42.0 54.45 41.0 54.45 41.0 53.45 40.0 53.45 40.0 52.45 39.0 52.45 39.0 51.45 38.0 51.45 38.0 52.45 39.0 52.45 39.0 53.45 40.0 53.45 40.0 54.45 41.0 54.45 41.0 55.45 42.0 55.45 42.0 56.45 43.0 56.45 43.0 57.45 44.0 57.45 44.0 56.45" fill="#000000" fill-rule="evenodd" stroke="none"/>
    <path d="M20.0 38.45 L21.0 38.45 21.0 37.45 23.0 37.45 23.0 38.45 24.0 38.45 24.0 39.45 25.0 39.45 25.0 40.45 26.0 40.45 26.0 41.45 27.0 41.45 27.0 42.45 29.0 42.45 29.0 43.45 28.0 43.45 28.0 44.45 24.0 44.45 24.0 42.45 23.0 42.45 23.0 40.45 22.0 40.45 22.0 39.45 20.0 39.45 20.0 38.45 M23.0 50.45 L25.0 50.45 25.0 51.45 26.0 51.45 26.0 52.45 27.0 52.45 27.0 54.45 26.0 54.45 26.0 53.45 24.0 53.45 24.0 52.45 23.0 52.45 23.0 50.45 M35.0 50.45 L34.0 50.45 34.0 51.45 33.0 51.45 33.0 52.45 32.0 52.45 32.0 53.45 30.0 53.45 30.0 54.45 29.0 54.45 29.0 53.45 28.0 53.45 28.0 52.45 29.0 52.45 29.0 51.45 33.0 51.45 33.0 50.45 26.0 50.45 26.0 49.45 24.0 49.45 24.0 47.45 31.0 47.45 31.0 46.45 34.0 46.45 34.0 49.45 35.0 49.45 35.0 50.45 M29.0 57.45 L29.0 56.45 28.0 56.45 28.0 55.45 31.0 55.45 31.0 54.45 33.0 54.45 33.0 53.45 35.0 53.45 35.0 55.45 36.0 55.45 36.0 56.45 30.0 56.45 30.0 57.45 29.0 57.45" fill="#777777" fill-rule="evenodd" stroke="none"/>
    <path d="M19.0 37.45 L20.0 37.45 20.0 38.45 19.0 38.45 19.0 37.45 M22.0 40.45 L22.0 42.45 23.0 42.45 23.0 44.45 22.0 44.45 22.0 43.45 21.0 43.45 21.0 41.45 20.0 41.45 20.0 40.45 22.0 40.45 M21.0 49.45 L22.0 49.45 22.0 46.45 23.0 46.45 23.0 50.45 22.0 50.45 22.0 52.45 23.0 52.45 23.0 54.45 22.0 54.45 22.0 53.45 21.0 53.45 21.0 52.45 20.0 52.45 20.0 50.45 21.0 50.45 21.0 49.45" fill="#ffffff" fill-rule="evenodd" stroke="none"/>
    <path d="M26.0 46.45 L26.0 45.45 28.0 45.45 28.0 44.45 29.0 44.45 29.0 43.45 31.0 43.45 31.0 44.45 33.0 44.45 33.0 45.45 31.0 45.45 31.0 46.45 26.0 46.45 M29.0 57.45 L29.0 58.45 28.0 58.45 28.0 57.45 29.0 57.45 M44.0 56.45 L44.0 57.45 43.0 57.45 43.0 56.45 42.0 56.45 42.0 55.45 41.0 55.45 41.0 54.45 40.0 54.45 40.0 53.45 39.0 53.45 39.0 52.45 38.0 52.45 38.0 51.45 39.0 51.45 39.0 52.45 40.0 52.45 40.0 53.45 41.0 53.45 41.0 54.45 42.0 54.45 42.0 55.45 43.0 55.45 43.0 56.45 44.0 56.45 M25.0 58.45 L25.0 57.45 27.0 57.45 27.0 58.45 25.0 58.45 M22.0 58.45 L22.0 57.45 24.0 57.45 24.0 58.45 22.0 58.45 M17.0 58.45 L17.0 57.45 18.0 57.45 18.0 58.45 17.0 58.45 M21.0 58.45 L19.0 58.45 19.0 57.45 21.0 57.45 21.0 58.45" fill="#d1d1d1" fill-rule="evenodd" stroke="none"/>
  </g>
</svg>
