<?xml version="1.0" encoding="UTF-8" standalone="no"?>
<svg xmlns:ffdec="https://www.free-decompiler.com/flash" xmlns:xlink="http://www.w3.org/1999/xlink" ffdec:objectType="shape" height="57.0px" width="32.0px" xmlns="http://www.w3.org/2000/svg">
  <g transform="matrix(1.0, 0.0, 0.0, 1.0, 13.1, 22.0)">
    <path d="M11.95 11.0 L10.95 11.0 10.95 10.0 11.95 10.0 11.95 11.0 12.95 11.0 12.95 12.0 11.95 12.0 11.95 11.0 M9.95 9.0 L10.95 9.0 10.95 10.0 9.95 10.0 9.95 9.0 8.95 9.0 8.95 8.0 7.95 8.0 7.95 9.0 6.95 9.0 6.95 10.0 7.95 10.0 7.95 11.0 9.95 11.0 9.95 12.0 4.95 12.0 4.95 11.0 1.95 11.0 1.95 14.0 4.95 14.0 4.95 13.0 12.95 13.0 12.95 12.0 13.95 12.0 13.95 14.0 14.95 14.0 14.95 15.0 15.95 15.0 15.95 16.0 13.95 16.0 13.95 15.0 12.95 15.0 12.95 14.0 5.95 14.0 5.95 15.0 1.95 15.0 1.95 14.0 0.95 14.0 0.95 10.0 1.95 10.0 1.95 9.0 2.95 9.0 2.95 8.0 3.95 8.0 3.95 7.0 4.95 7.0 4.95 6.0 7.95 6.0 7.95 7.0 8.95 7.0 8.95 8.0 9.95 8.0 9.95 9.0 M15.95 16.0 L16.95 16.0 16.95 17.0 17.95 17.0 17.95 18.0 15.95 18.0 15.95 20.0 14.95 20.0 14.95 21.0 12.95 21.0 12.95 22.0 10.95 22.0 10.95 23.0 9.95 23.0 9.95 24.0 11.95 24.0 11.95 25.0 13.95 25.0 13.95 26.0 15.95 26.0 15.95 27.0 16.95 27.0 16.95 29.0 15.95 29.0 15.95 32.0 16.95 32.0 16.95 33.0 17.95 33.0 17.95 34.0 16.95 34.0 16.95 35.0 15.95 35.0 15.95 34.0 14.95 34.0 14.95 35.0 12.95 35.0 12.95 34.0 11.95 34.0 11.95 35.0 9.95 35.0 9.95 34.0 8.95 34.0 8.95 35.0 6.95 35.0 6.95 34.0 5.95 34.0 5.95 35.0 4.95 35.0 4.95 34.0 3.95 34.0 3.95 33.0 4.95 33.0 4.95 32.0 5.95 32.0 5.95 30.0 6.95 30.0 6.95 29.0 8.95 29.0 8.95 28.0 7.95 28.0 7.95 27.0 6.95 27.0 6.95 26.0 2.95 26.0 2.95 25.0 1.95 25.0 1.95 23.0 2.95 23.0 2.95 22.0 3.95 22.0 3.95 21.0 4.95 21.0 4.95 20.0 5.95 20.0 5.95 19.0 6.95 19.0 6.95 18.0 7.95 18.0 7.95 17.0 6.95 17.0 6.95 16.0 5.95 16.0 5.95 15.0 6.95 15.0 6.95 16.0 11.95 16.0 11.95 17.0 15.95 17.0 15.95 16.0 M5.95 8.0 L5.95 7.0 4.95 7.0 4.95 8.0 3.95 8.0 3.95 9.0 2.95 9.0 2.95 10.0 3.95 10.0 3.95 9.0 4.95 9.0 4.95 11.0 5.95 11.0 5.95 9.0 6.95 9.0 6.95 8.0 7.95 8.0 7.95 7.0 6.95 7.0 6.95 8.0 5.95 8.0 5.95 9.0 4.95 9.0 4.95 8.0 5.95 8.0 M4.95 23.0 L8.95 23.0 8.95 22.0 10.95 22.0 10.95 21.0 12.95 21.0 12.95 20.0 11.95 20.0 11.95 19.0 10.95 19.0 10.95 18.0 8.95 18.0 8.95 19.0 6.95 19.0 6.95 20.0 5.95 20.0 5.95 21.0 4.95 21.0 4.95 23.0 M7.95 24.0 L7.95 25.0 6.95 25.0 6.95 26.0 7.95 26.0 7.95 27.0 8.95 27.0 8.95 28.0 9.95 28.0 9.95 29.0 15.95 29.0 15.95 28.0 14.95 28.0 14.95 27.0 13.95 27.0 13.95 26.0 11.95 26.0 11.95 25.0 9.95 25.0 9.95 24.0 7.95 24.0 M6.95 34.0 L8.95 34.0 8.95 33.0 6.95 33.0 6.95 34.0 M4.95 34.0 L5.95 34.0 5.95 33.0 4.95 33.0 4.95 34.0 M16.95 33.0 L15.95 33.0 15.95 34.0 16.95 34.0 16.95 33.0 M9.95 34.0 L11.95 34.0 11.95 33.0 9.95 33.0 9.95 34.0 M14.95 34.0 L14.95 33.0 12.95 33.0 12.95 34.0 14.95 34.0 M11.95 19.0 L13.95 19.0 13.95 20.0 14.95 20.0 14.95 18.0 11.95 18.0 11.95 17.0 10.95 17.0 10.95 18.0 11.95 18.0 11.95 19.0" fill="#000000" fill-rule="evenodd" stroke="none"/>
    <path d="M10.95 10.0 L10.95 11.0 11.95 11.0 11.95 12.0 12.95 12.0 12.95 13.0 4.95 13.0 4.95 14.0 1.95 14.0 1.95 11.0 4.95 11.0 4.95 12.0 9.95 12.0 9.95 11.0 7.95 11.0 7.95 10.0 6.95 10.0 6.95 9.0 7.95 9.0 7.95 8.0 8.95 8.0 8.95 9.0 9.95 9.0 9.95 10.0 10.95 10.0 M2.95 9.0 L3.95 9.0 3.95 8.0 4.95 8.0 4.95 7.0 5.95 7.0 5.95 8.0 4.95 8.0 4.95 9.0 3.95 9.0 3.95 10.0 2.95 10.0 2.95 9.0" fill="#ffffff" fill-rule="evenodd" stroke="none"/>
    <path d="M5.95 15.0 L5.95 14.0 12.95 14.0 12.95 15.0 13.95 15.0 13.95 16.0 15.95 16.0 15.95 17.0 11.95 17.0 11.95 16.0 6.95 16.0 6.95 15.0 5.95 15.0 M5.95 8.0 L6.95 8.0 6.95 7.0 7.95 7.0 7.95 8.0 6.95 8.0 6.95 9.0 5.95 9.0 5.95 11.0 4.95 11.0 4.95 9.0 5.95 9.0 5.95 8.0 M7.95 24.0 L9.95 24.0 9.95 25.0 11.95 25.0 11.95 26.0 13.95 26.0 13.95 27.0 14.95 27.0 14.95 28.0 15.95 28.0 15.95 29.0 9.95 29.0 9.95 28.0 8.95 28.0 8.95 27.0 7.95 27.0 7.95 26.0 6.95 26.0 6.95 25.0 7.95 25.0 7.95 24.0 M4.95 23.0 L4.95 21.0 5.95 21.0 5.95 20.0 6.95 20.0 6.95 19.0 8.95 19.0 8.95 18.0 10.95 18.0 10.95 19.0 11.95 19.0 11.95 20.0 12.95 20.0 12.95 21.0 10.95 21.0 10.95 22.0 8.95 22.0 8.95 23.0 4.95 23.0" fill="#777777" fill-rule="evenodd" stroke="none"/>
    <path d="M11.95 19.0 L11.95 18.0 10.95 18.0 10.95 17.0 11.95 17.0 11.95 18.0 14.95 18.0 14.95 20.0 13.95 20.0 13.95 19.0 11.95 19.0 M14.95 34.0 L12.95 34.0 12.95 33.0 14.95 33.0 14.95 34.0 M9.95 34.0 L9.95 33.0 11.95 33.0 11.95 34.0 9.95 34.0 M16.95 33.0 L16.95 34.0 15.95 34.0 15.95 33.0 16.95 33.0 M4.95 34.0 L4.95 33.0 5.95 33.0 5.95 34.0 4.95 34.0 M6.95 34.0 L6.95 33.0 8.95 33.0 8.95 34.0 6.95 34.0" fill="#d1d1d1" fill-rule="evenodd" stroke="none"/>
    <path d="M-5.1 -20.0 L-5.1 -21.0 -3.1 -21.0 -3.1 -22.0 9.9 -22.0 9.9 -21.0 10.9 -21.0 10.9 -20.0 12.9 -20.0 12.9 -19.0 13.9 -19.0 13.9 -18.0 14.9 -18.0 14.9 -17.0 15.9 -17.0 15.9 -16.0 16.9 -16.0 16.9 -14.0 17.9 -14.0 17.9 -12.0 18.9 -12.0 18.9 -9.0 16.9 -9.0 16.9 -6.0 15.9 -6.0 15.9 -4.0 14.9 -4.0 14.9 -2.0 13.9 -2.0 13.9 2.0 14.9 2.0 14.9 1.0 15.9 1.0 15.9 0.0 16.9 0.0 16.9 4.0 15.9 4.0 15.9 5.0 14.9 5.0 14.9 6.0 12.9 6.0 12.9 7.0 -6.1 7.0 -6.1 6.0 -0.1 6.0 -0.1 5.0 -1.1 5.0 -1.1 4.0 -2.1 4.0 -2.1 1.0 -1.1 1.0 -1.1 2.0 0.9 2.0 0.9 1.0 1.9 1.0 1.9 -1.0 2.9 -1.0 2.9 -6.0 1.9 -6.0 1.9 -8.0 -0.1 -8.0 -0.1 -9.0 -3.1 -9.0 -3.1 -10.0 17.9 -10.0 17.9 -11.0 -3.1 -11.0 -3.1 -13.0 -1.1 -13.0 -1.1 -14.0 0.9 -14.0 0.9 -15.0 6.9 -15.0 6.9 -14.0 8.9 -14.0 8.9 -13.0 10.9 -13.0 10.9 -12.0 11.9 -12.0 11.9 -13.0 10.9 -13.0 10.9 -14.0 9.9 -14.0 9.9 -15.0 7.9 -15.0 7.9 -16.0 4.9 -16.0 4.9 -17.0 -2.1 -17.0 -2.1 -16.0 -5.1 -16.0 -5.1 -15.0 -7.1 -15.0 -7.1 -14.0 -10.1 -14.0 -10.1 -15.0 -9.1 -15.0 -9.1 -16.0 -8.1 -16.0 -8.1 -17.0 -6.1 -17.0 -6.1 -18.0 -4.1 -18.0 -4.1 -19.0 -1.1 -19.0 -1.1 -20.0 4.9 -20.0 4.9 -19.0 7.9 -19.0 7.9 -18.0 9.9 -18.0 9.9 -19.0 7.9 -19.0 7.9 -20.0 4.9 -20.0 4.9 -21.0 -2.1 -21.0 -2.1 -20.0 -5.1 -20.0 -5.1 -19.0 -7.1 -19.0 -7.1 -18.0 -9.1 -18.0 -9.1 -17.0 -10.1 -17.0 -10.1 -16.0 -11.1 -16.0 -11.1 -15.0 -12.1 -15.0 -12.1 -13.0 -9.1 -13.0 -9.1 -12.0 -6.1 -12.0 -6.1 -11.0 -3.1 -11.0 -3.1 -10.0 -6.1 -10.0 -6.1 -11.0 -8.1 -11.0 -8.1 -6.0 -6.1 -6.0 -6.1 -7.0 -2.1 -7.0 -2.1 -6.0 -3.1 -6.0 -3.1 -4.0 -4.1 -4.0 -4.1 -5.0 -5.1 -5.0 -5.1 -2.0 -7.1 -2.0 -7.1 -4.0 -6.1 -4.0 -6.1 -5.0 -8.1 -5.0 -8.1 -2.0 -9.1 -2.0 -9.1 3.0 -5.1 3.0 -5.1 4.0 -4.1 4.0 -4.1 5.0 -5.1 5.0 -5.1 4.0 -7.1 4.0 -7.1 5.0 -8.1 5.0 -8.1 4.0 -9.1 4.0 -9.1 3.0 -10.1 3.0 -10.1 -2.0 -9.1 -2.0 -9.1 -12.0 -13.1 -12.0 -13.1 -15.0 -12.1 -15.0 -12.1 -16.0 -11.1 -16.0 -11.1 -17.0 -10.1 -17.0 -10.1 -18.0 -9.1 -18.0 -9.1 -19.0 -7.1 -19.0 -7.1 -20.0 -5.1 -20.0 M-7.1 5.0 L-6.1 5.0 -6.1 6.0 -7.1 6.0 -7.1 5.0 M-4.1 -1.0 L-4.1 0.0 -7.1 0.0 -7.1 -1.0 -4.1 -1.0 -4.1 -2.0 -3.1 -2.0 -3.1 -1.0 -4.1 -1.0" fill="#000000" fill-rule="evenodd" stroke="none"/>
    <path d="M-5.1 -20.0 L-2.1 -20.0 -2.1 -21.0 4.9 -21.0 4.9 -20.0 7.9 -20.0 7.9 -19.0 9.9 -19.0 9.9 -18.0 7.9 -18.0 7.9 -19.0 4.9 -19.0 4.9 -20.0 -1.1 -20.0 -1.1 -19.0 -4.1 -19.0 -4.1 -18.0 -6.1 -18.0 -6.1 -17.0 -8.1 -17.0 -8.1 -16.0 -9.1 -16.0 -9.1 -15.0 -10.1 -15.0 -10.1 -14.0 -7.1 -14.0 -7.1 -15.0 -5.1 -15.0 -5.1 -16.0 -2.1 -16.0 -2.1 -17.0 4.9 -17.0 4.9 -16.0 7.9 -16.0 7.9 -15.0 9.9 -15.0 9.9 -14.0 10.9 -14.0 10.9 -13.0 11.9 -13.0 11.9 -12.0 10.9 -12.0 10.9 -13.0 8.9 -13.0 8.9 -14.0 6.9 -14.0 6.9 -15.0 0.9 -15.0 0.9 -14.0 -1.1 -14.0 -1.1 -13.0 -3.1 -13.0 -3.1 -11.0 17.9 -11.0 17.9 -10.0 -3.1 -10.0 -3.1 -9.0 -0.1 -9.0 -0.1 -8.0 1.9 -8.0 1.9 -6.0 2.9 -6.0 2.9 -1.0 1.9 -1.0 1.9 1.0 0.9 1.0 0.9 2.0 -1.1 2.0 -1.1 1.0 -2.1 1.0 -2.1 4.0 -1.1 4.0 -1.1 5.0 -0.1 5.0 -0.1 6.0 -6.1 6.0 -6.1 5.0 -7.1 5.0 -7.1 4.0 -5.1 4.0 -5.1 5.0 -4.1 5.0 -4.1 4.0 -5.1 4.0 -5.1 3.0 -9.1 3.0 -9.1 -2.0 -8.1 -2.0 -8.1 -5.0 -6.1 -5.0 -6.1 -4.0 -7.1 -4.0 -7.1 -2.0 -5.1 -2.0 -5.1 -5.0 -4.1 -5.0 -4.1 -4.0 -3.1 -4.0 -3.1 -6.0 -2.1 -6.0 -2.1 -7.0 -6.1 -7.0 -6.1 -6.0 -8.1 -6.0 -8.1 -11.0 -6.1 -11.0 -6.1 -10.0 -3.1 -10.0 -3.1 -11.0 -6.1 -11.0 -6.1 -12.0 -9.1 -12.0 -9.1 -13.0 -12.1 -13.0 -12.1 -15.0 -11.1 -15.0 -11.1 -16.0 -10.1 -16.0 -10.1 -17.0 -9.1 -17.0 -9.1 -18.0 -7.1 -18.0 -7.1 -19.0 -5.1 -19.0 -5.1 -20.0 M-4.1 -1.0 L-3.1 -1.0 -3.1 -2.0 -4.1 -2.0 -4.1 -1.0 -7.1 -1.0 -7.1 0.0 -4.1 0.0 -4.1 -1.0" fill="#ffffff" fill-rule="evenodd" stroke="none"/>
  </g>
</svg>
