<?xml version="1.0" encoding="UTF-8" standalone="no"?>
<svg xmlns:ffdec="https://www.free-decompiler.com/flash" xmlns:xlink="http://www.w3.org/1999/xlink" ffdec:objectType="shape" height="21.65px" width="25.0px" xmlns="http://www.w3.org/2000/svg">
  <g transform="matrix(1.0, 0.0, 0.0, 1.0, 11.95, -13.35)">
    <path d="M-2.95 13.35 L-2.95 14.0 4.05 14.0 4.05 13.35 5.05 13.35 5.05 20.05 6.05 20.05 6.05 24.05 7.05 24.05 7.05 26.05 8.05 26.05 8.05 27.05 9.05 27.05 9.05 28.05 7.05 28.05 7.05 29.0 10.05 29.0 10.05 30.0 11.05 30.0 11.05 32.0 12.05 32.0 12.05 33.0 11.05 33.0 11.05 34.0 10.05 34.0 10.05 33.0 8.05 33.0 8.05 34.0 7.05 34.0 7.05 33.0 5.05 33.0 5.05 34.0 4.05 34.0 4.05 33.0 2.05 33.0 2.05 34.0 1.05 34.0 1.05 33.0 0.05 33.0 0.05 34.0 -0.95 34.0 -0.95 33.0 -2.95 33.0 -2.95 34.0 -3.95 34.0 -3.95 33.0 -5.95 33.0 -5.95 34.0 -6.95 34.0 -6.95 33.0 -8.95 33.0 -8.95 34.0 -9.95 34.0 -9.95 33.0 -10.95 33.0 -10.95 32.0 -9.95 32.0 -9.95 30.0 -8.95 30.0 -8.95 29.0 -5.95 29.0 -5.95 28.05 -7.95 28.05 -7.95 27.05 -6.95 27.05 -6.95 26.05 -5.95 26.05 -5.95 24.05 -4.95 24.05 -4.95 20.05 -3.95 20.05 -3.95 13.35 -2.95 13.35 M-5.95 28.05 L-0.95 28.05 -0.95 24.05 -3.95 24.05 -3.95 25.05 -4.95 25.05 -4.95 27.05 -5.95 27.05 -5.95 28.05 M7.05 28.05 L7.05 27.05 6.05 27.05 6.05 25.05 5.05 25.05 5.05 24.05 2.05 24.05 2.05 28.05 7.05 28.05 M1.05 16.0 L0.05 16.0 0.05 32.0 1.05 32.0 1.05 16.0 M4.05 18.05 L2.05 18.05 2.05 21.05 4.05 21.05 4.05 18.05 M12.05 33.0 L13.05 33.0 13.05 34.0 12.05 34.0 12.05 33.0 M12.05 34.0 L12.05 35.0 11.05 35.0 11.05 34.0 12.05 34.0 M0.05 34.0 L1.05 34.0 1.05 35.0 0.05 35.0 0.05 34.0 M2.05 34.0 L4.05 34.0 4.05 35.0 2.05 35.0 2.05 34.0 M7.05 34.0 L7.05 35.0 5.05 35.0 5.05 34.0 7.05 34.0 M8.05 34.0 L10.05 34.0 10.05 35.0 8.05 35.0 8.05 34.0 M-0.95 18.05 L-2.95 18.05 -2.95 21.05 -0.95 21.05 -0.95 18.05 M-8.95 34.0 L-6.95 34.0 -6.95 35.0 -8.95 35.0 -8.95 34.0 M-3.95 34.0 L-3.95 35.0 -5.95 35.0 -5.95 34.0 -3.95 34.0 M-9.95 34.0 L-9.95 35.0 -10.95 35.0 -10.95 34.0 -9.95 34.0 M-10.95 33.0 L-10.95 34.0 -11.95 34.0 -11.95 33.0 -10.95 33.0 M-0.95 34.0 L-0.95 35.0 -2.95 35.0 -2.95 34.0 -0.95 34.0" fill="#000000" fill-rule="evenodd" stroke="none"/>
    <path d="M4.05 13.35 L4.05 14.0 -2.95 14.0 -2.95 13.35 4.05 13.35" fill="#ffffff" fill-rule="evenodd" stroke="none"/>
    <path d="M-10.95 33.0 L-9.95 33.0 -9.95 34.0 -10.95 34.0 -10.95 33.0 M-8.95 34.0 L-8.95 33.0 -6.95 33.0 -6.95 34.0 -8.95 34.0 M-5.95 34.0 L-5.95 33.0 -3.95 33.0 -3.95 34.0 -5.95 34.0 M-2.95 34.0 L-2.95 33.0 -0.95 33.0 -0.95 34.0 -2.95 34.0 M0.05 34.0 L0.05 33.0 1.05 33.0 1.05 34.0 0.05 34.0 M2.05 34.0 L2.05 33.0 4.05 33.0 4.05 34.0 2.05 34.0 M5.05 34.0 L5.05 33.0 7.05 33.0 7.05 34.0 5.05 34.0 M8.05 34.0 L8.05 33.0 10.05 33.0 10.05 34.0 8.05 34.0 M11.05 34.0 L11.05 33.0 12.05 33.0 12.05 34.0 11.05 34.0" fill="#d1d1d1" fill-rule="evenodd" stroke="none"/>
    <path d="M-5.95 28.05 L-5.95 27.05 -4.95 27.05 -4.95 25.05 -3.95 25.05 -3.95 24.05 -0.95 24.05 -0.95 28.05 -5.95 28.05 M7.05 28.05 L2.05 28.05 2.05 24.05 5.05 24.05 5.05 25.05 6.05 25.05 6.05 27.05 7.05 27.05 7.05 28.05 M4.05 18.05 L4.05 21.05 2.05 21.05 2.05 18.05 4.05 18.05 M-0.95 18.05 L-0.95 21.05 -2.95 21.05 -2.95 18.05 -0.95 18.05" fill="#656565" fill-rule="evenodd" stroke="none"/>
  </g>
</svg>
