<?xml version="1.0" encoding="UTF-8" standalone="no"?>
<svg xmlns:ffdec="https://www.free-decompiler.com/flash" xmlns:xlink="http://www.w3.org/1999/xlink" ffdec:objectType="shape" height="30.05px" width="33.0px" xmlns="http://www.w3.org/2000/svg">
  <g transform="matrix(1.0, 0.0, 0.0, 1.0, 0.0, -3.0)">
    <path d="M24.0 10.0 L26.0 10.0 26.0 11.0 27.0 11.0 27.0 12.0 29.0 12.0 29.0 13.0 30.0 13.0 30.0 21.0 29.0 21.0 29.0 23.0 28.0 23.0 28.0 27.0 29.0 27.0 29.0 28.0 31.0 28.0 31.0 26.0 32.0 26.0 32.0 27.0 33.0 27.0 33.0 30.0 32.0 30.0 32.0 31.0 31.0 31.0 31.0 32.0 30.0 32.0 30.0 33.0 27.0 33.0 27.0 32.0 26.0 32.0 26.0 31.0 24.0 31.0 24.0 32.0 21.0 32.0 21.0 33.0 15.0 33.05 15.0 33.0 12.0 33.0 12.0 32.0 9.0 32.0 9.0 31.0 7.0 31.0 7.0 32.0 6.0 32.0 6.0 33.0 3.0 33.0 3.0 32.0 2.0 32.0 2.0 31.0 1.0 31.0 1.0 30.0 0.0 30.0 0.0 27.0 1.0 27.0 1.0 26.0 2.0 26.0 2.0 28.0 4.0 28.0 4.0 27.0 5.0 27.0 5.0 23.0 4.0 23.0 4.0 21.0 3.0 21.0 3.0 13.0 4.0 13.0 4.0 12.0 6.0 12.0 6.0 11.0 7.0 11.0 7.0 10.0 9.0 10.0 9.0 9.0 24.0 9.0 24.0 10.0 M23.0 15.0 L20.0 15.0 20.0 16.0 19.0 16.0 19.0 17.0 17.0 17.0 17.0 16.0 15.0 16.0 15.0 15.0 13.0 15.0 13.0 14.0 11.0 14.0 11.0 13.0 10.0 13.0 10.0 14.0 9.0 14.0 9.0 15.0 8.0 15.0 8.0 17.0 9.0 17.0 9.0 18.0 13.0 18.0 13.0 19.0 9.0 19.0 9.0 18.0 8.0 18.0 8.0 29.0 9.0 29.0 9.0 30.0 10.0 30.0 10.0 31.0 12.0 31.0 12.0 32.0 21.0 32.0 21.0 31.0 23.0 31.0 23.0 30.0 24.0 30.0 24.0 29.0 25.0 29.0 25.0 18.0 24.0 18.0 24.0 19.0 20.0 19.0 20.0 18.0 24.0 18.0 24.0 17.0 25.0 17.0 25.0 15.0 24.0 15.0 24.0 14.0 23.0 14.0 23.0 15.0 M23.0 20.0 L24.0 20.0 24.0 22.0 23.0 22.0 23.0 24.0 21.0 24.0 21.0 23.0 20.0 23.0 20.0 22.0 18.0 22.0 18.0 21.0 19.0 21.0 19.0 20.0 20.0 20.0 20.0 21.0 21.0 21.0 21.0 20.0 22.0 20.0 22.0 21.0 23.0 21.0 23.0 20.0 M23.0 24.0 L24.0 24.0 24.0 25.0 23.0 25.0 23.0 26.0 19.0 26.0 19.0 25.0 18.0 25.0 18.0 24.0 19.0 24.0 19.0 25.0 23.0 25.0 23.0 24.0 M10.0 24.0 L10.0 25.0 14.0 25.0 14.0 24.0 12.0 24.0 12.0 23.0 11.0 23.0 11.0 22.0 9.0 22.0 9.0 20.0 10.0 20.0 10.0 21.0 11.0 21.0 11.0 20.0 12.0 20.0 12.0 21.0 13.0 21.0 13.0 20.0 14.0 20.0 14.0 21.0 15.0 21.0 15.0 22.0 14.0 22.0 14.0 24.0 15.0 24.0 15.0 25.0 14.0 25.0 14.0 26.0 10.0 26.0 10.0 25.0 9.0 25.0 9.0 24.0 10.0 24.0 M20.0 30.0 L13.0 30.0 13.0 29.0 20.0 29.0 20.0 30.0" fill="#000000" fill-rule="evenodd" stroke="none"/>
    <path d="M23.0 15.0 L23.0 14.0 24.0 14.0 24.0 15.0 25.0 15.0 25.0 17.0 24.0 17.0 24.0 18.0 20.0 18.0 20.0 19.0 24.0 19.0 24.0 18.0 25.0 18.0 25.0 29.0 24.0 29.0 24.0 30.0 23.0 30.0 23.0 31.0 21.0 31.0 21.0 32.0 12.0 32.0 12.0 31.0 10.0 31.0 10.0 30.0 9.0 30.0 9.0 29.0 8.0 29.0 8.0 18.0 9.0 18.0 9.0 19.0 13.0 19.0 13.0 18.0 9.0 18.0 9.0 17.0 8.0 17.0 8.0 15.0 9.0 15.0 9.0 14.0 10.0 14.0 10.0 13.0 11.0 13.0 11.0 14.0 13.0 14.0 13.0 15.0 15.0 15.0 15.0 16.0 17.0 16.0 17.0 17.0 19.0 17.0 19.0 16.0 20.0 16.0 20.0 15.0 23.0 15.0 M23.0 20.0 L23.0 21.0 22.0 21.0 22.0 20.0 21.0 20.0 21.0 21.0 20.0 21.0 20.0 20.0 19.0 20.0 19.0 21.0 18.0 21.0 18.0 22.0 20.0 22.0 20.0 23.0 21.0 23.0 21.0 24.0 23.0 24.0 23.0 22.0 24.0 22.0 24.0 20.0 23.0 20.0 M20.0 30.0 L20.0 29.0 13.0 29.0 13.0 30.0 20.0 30.0 M10.0 24.0 L9.0 24.0 9.0 25.0 10.0 25.0 10.0 26.0 14.0 26.0 14.0 25.0 15.0 25.0 15.0 24.0 14.0 24.0 14.0 22.0 15.0 22.0 15.0 21.0 14.0 21.0 14.0 20.0 13.0 20.0 13.0 21.0 12.0 21.0 12.0 20.0 11.0 20.0 11.0 21.0 10.0 21.0 10.0 20.0 9.0 20.0 9.0 22.0 11.0 22.0 11.0 23.0 12.0 23.0 12.0 24.0 14.0 24.0 14.0 25.0 10.0 25.0 10.0 24.0 M23.0 24.0 L23.0 25.0 19.0 25.0 19.0 24.0 18.0 24.0 18.0 25.0 19.0 25.0 19.0 26.0 23.0 26.0 23.0 25.0 24.0 25.0 24.0 24.0 23.0 24.0" fill="#ffffff" fill-rule="evenodd" stroke="none"/>
    <path d="M4.0 15.0 L3.0 15.0 3.0 13.0 2.0 13.0 2.0 10.0 3.0 10.0 3.0 8.0 4.0 8.0 4.0 7.0 5.0 7.0 5.0 6.0 6.0 6.0 6.0 5.0 8.0 5.0 8.0 4.0 11.0 4.0 11.0 5.0 13.0 5.0 13.0 3.0 20.0 3.0 20.0 5.0 22.0 5.0 22.0 4.0 25.0 4.0 25.0 5.0 27.0 5.0 27.0 6.0 28.0 6.0 28.0 7.0 29.0 7.0 29.0 8.0 30.0 8.0 30.0 10.0 31.0 10.0 31.0 13.0 30.0 13.0 30.0 15.0 29.0 15.0 29.0 14.0 27.0 14.0 27.0 13.0 26.0 13.0 26.0 12.0 24.0 12.0 24.0 10.0 25.0 10.0 25.0 9.0 26.0 9.0 26.0 8.0 27.0 8.0 27.0 7.0 25.0 7.0 25.0 8.0 23.0 8.0 23.0 9.0 22.0 9.0 22.0 11.0 18.0 11.0 18.0 5.0 17.0 5.0 17.0 4.0 16.0 4.0 16.0 5.0 15.0 5.0 15.0 11.0 11.0 11.0 11.0 9.0 10.0 9.0 10.0 8.0 8.0 8.0 8.0 7.0 6.0 7.0 6.0 8.0 7.0 8.0 7.0 9.0 8.0 9.0 8.0 10.0 9.0 10.0 9.0 12.0 7.0 12.0 7.0 13.0 6.0 13.0 6.0 14.0 4.0 14.0 4.0 15.0" fill="#000000" fill-rule="evenodd" stroke="none"/>
    <path d="M4.0 15.0 L4.0 14.0 6.0 14.0 6.0 13.0 7.0 13.0 7.0 12.0 9.0 12.0 9.0 10.0 8.0 10.0 8.0 9.0 7.0 9.0 7.0 8.0 6.0 8.0 6.0 7.0 8.0 7.0 8.0 8.0 10.0 8.0 10.0 9.0 11.0 9.0 11.0 11.0 15.0 11.0 15.0 5.0 16.0 5.0 16.0 4.0 17.0 4.0 17.0 5.0 18.0 5.0 18.0 11.0 22.0 11.0 22.0 9.0 23.0 9.0 23.0 8.0 25.0 8.0 25.0 7.0 27.0 7.0 27.0 8.0 26.0 8.0 26.0 9.0 25.0 9.0 25.0 10.0 24.0 10.0 24.0 12.0 26.0 12.0 26.0 13.0 27.0 13.0 27.0 14.0 29.0 14.0 29.0 15.0 27.0 15.0 27.0 14.0 26.0 14.0 26.0 13.0 24.0 13.0 24.0 12.0 9.0 12.0 9.0 13.0 7.0 13.0 7.0 14.0 6.0 14.0 6.0 15.0 4.0 15.0" fill="#ffffff" fill-rule="evenodd" stroke="none"/>
  </g>
</svg>
