<?xml version="1.0" encoding="UTF-8" standalone="no"?>
<svg xmlns:ffdec="https://www.free-decompiler.com/flash" xmlns:xlink="http://www.w3.org/1999/xlink" ffdec:objectType="shape" height="27.0px" width="41.0px" xmlns="http://www.w3.org/2000/svg">
  <g transform="matrix(1.0, 0.0, 0.0, 1.0, 0.0, -27.45)">
    <path d="M10.0 29.45 L10.0 28.45 12.0 28.45 12.0 27.45 14.0 27.45 14.0 28.45 13.0 28.45 13.0 29.45 10.0 29.45 10.0 31.45 11.0 31.45 11.0 30.45 13.0 30.45 13.0 29.45 14.0 29.45 14.0 28.45 15.0 28.45 15.0 29.45 16.0 29.45 16.0 30.45 17.0 30.45 17.0 31.45 18.0 31.45 18.0 33.45 19.0 33.45 19.0 34.45 20.0 34.45 20.0 35.45 22.0 35.45 22.0 36.45 23.0 36.45 23.0 37.45 24.0 37.45 24.0 38.45 25.0 38.45 25.0 39.45 27.0 39.45 27.0 40.45 29.0 40.45 29.0 41.45 32.0 41.45 32.0 42.45 33.0 42.45 33.0 41.45 35.0 41.45 35.0 42.45 36.0 42.45 36.0 43.45 37.0 43.45 37.0 44.45 38.0 44.45 38.0 45.45 39.0 45.45 39.0 46.45 40.0 46.45 40.0 47.45 41.0 47.45 41.0 49.45 39.0 49.45 39.0 50.45 36.0 50.45 36.0 49.45 35.0 49.45 35.0 51.45 34.0 51.45 34.0 52.45 35.0 52.45 35.0 53.45 34.0 53.45 34.0 54.45 33.0 54.45 33.0 53.45 31.0 53.45 31.0 52.45 30.0 52.45 30.0 49.45 29.0 49.45 29.0 50.45 28.0 50.45 28.0 49.45 27.0 49.45 27.0 48.45 26.0 48.45 26.0 47.45 23.0 47.45 23.0 46.45 22.0 46.45 22.0 44.45 21.0 44.45 21.0 43.45 20.0 43.45 20.0 42.45 19.0 42.45 19.0 43.45 18.0 43.45 18.0 44.45 17.0 44.45 17.0 43.45 16.0 43.45 16.0 41.45 15.0 41.45 15.0 40.45 14.0 40.45 14.0 37.45 13.0 37.45 13.0 35.45 12.0 35.45 12.0 33.45 11.0 33.45 11.0 32.45 10.0 32.45 10.0 33.45 7.0 33.45 7.0 34.45 1.0 34.45 1.0 33.45 0.0 33.45 0.0 30.45 4.0 30.45 4.0 31.45 6.0 31.45 6.0 30.45 8.0 30.45 8.0 29.45 10.0 29.45 M13.0 30.45 L13.0 31.45 12.0 31.45 12.0 33.45 13.0 33.45 13.0 35.45 14.0 35.45 14.0 37.45 15.0 37.45 15.0 40.45 16.0 40.45 16.0 39.45 17.0 39.45 17.0 38.45 18.0 38.45 18.0 37.45 19.0 37.45 19.0 36.45 20.0 36.45 20.0 35.45 19.0 35.45 19.0 34.45 18.0 34.45 18.0 33.45 17.0 33.45 17.0 31.45 16.0 31.45 16.0 30.45 15.0 30.45 15.0 29.45 14.0 29.45 14.0 30.45 13.0 30.45 M6.0 31.45 L6.0 32.45 4.0 32.45 4.0 31.45 1.0 31.45 1.0 33.45 7.0 33.45 7.0 32.45 8.0 32.45 8.0 31.45 6.0 31.45 M17.0 39.45 L17.0 40.45 16.0 40.45 16.0 41.45 17.0 41.45 17.0 43.45 18.0 43.45 18.0 42.45 19.0 42.45 19.0 41.45 20.0 41.45 20.0 40.45 21.0 40.45 21.0 39.45 22.0 39.45 22.0 38.45 23.0 38.45 23.0 37.45 22.0 37.45 22.0 36.45 20.0 36.45 20.0 37.45 19.0 37.45 19.0 38.45 18.0 38.45 18.0 39.45 17.0 39.45 M24.0 38.45 L23.0 38.45 23.0 39.45 22.0 39.45 22.0 40.45 23.0 40.45 23.0 41.45 24.0 41.45 24.0 42.45 26.0 42.45 26.0 40.45 25.0 40.45 25.0 39.45 24.0 39.45 24.0 38.45 M21.0 43.45 L22.0 43.45 22.0 44.45 24.0 44.45 24.0 42.45 23.0 42.45 23.0 41.45 21.0 41.45 21.0 43.45 M27.0 44.45 L28.0 44.45 28.0 45.45 27.0 45.45 27.0 44.45 26.0 44.45 26.0 45.45 25.0 45.45 25.0 46.45 26.0 46.45 26.0 47.45 27.0 47.45 27.0 48.45 28.0 48.45 28.0 49.45 29.0 49.45 29.0 46.45 28.0 46.45 28.0 45.45 30.0 45.45 30.0 46.45 31.0 46.45 31.0 44.45 32.0 44.45 32.0 42.45 29.0 42.45 29.0 41.45 28.0 41.45 28.0 42.45 27.0 42.45 27.0 44.45 M34.0 43.45 L35.0 43.45 35.0 42.45 34.0 42.45 34.0 43.45 M40.0 47.45 L39.0 47.45 39.0 46.45 38.0 46.45 38.0 45.45 37.0 45.45 37.0 44.45 36.0 44.45 36.0 43.45 35.0 43.45 35.0 44.45 36.0 44.45 36.0 45.45 37.0 45.45 37.0 46.45 38.0 46.45 38.0 47.45 39.0 47.45 39.0 48.45 40.0 48.45 40.0 47.45 M34.0 49.45 L35.0 49.45 35.0 48.45 34.0 48.45 34.0 49.45 33.0 49.45 33.0 51.45 34.0 51.45 34.0 49.45 M34.0 48.45 L34.0 47.45 33.0 47.45 33.0 48.45 34.0 48.45 M34.0 53.45 L34.0 52.45 33.0 52.45 33.0 53.45 34.0 53.45" fill="#000000" fill-rule="evenodd" stroke="none"/>
    <path d="M13.0 29.45 L13.0 28.45 14.0 28.45 14.0 29.45 13.0 29.45 M13.0 30.45 L14.0 30.45 14.0 29.45 15.0 29.45 15.0 30.45 16.0 30.45 16.0 31.45 17.0 31.45 17.0 33.45 18.0 33.45 18.0 34.45 19.0 34.45 19.0 35.45 20.0 35.45 20.0 36.45 19.0 36.45 19.0 37.45 18.0 37.45 18.0 38.45 17.0 38.45 17.0 39.45 16.0 39.45 16.0 40.45 15.0 40.45 15.0 37.45 14.0 37.45 14.0 35.45 13.0 35.45 13.0 33.45 12.0 33.45 12.0 31.45 13.0 31.45 13.0 30.45 M21.0 43.45 L21.0 41.45 23.0 41.45 23.0 42.45 24.0 42.45 24.0 44.45 22.0 44.45 22.0 43.45 21.0 43.45 M24.0 38.45 L24.0 39.45 25.0 39.45 25.0 40.45 26.0 40.45 26.0 42.45 24.0 42.45 24.0 41.45 23.0 41.45 23.0 40.45 22.0 40.45 22.0 39.45 23.0 39.45 23.0 38.45 24.0 38.45 M26.0 47.45 L26.0 46.45 25.0 46.45 25.0 45.45 26.0 45.45 26.0 44.45 27.0 44.45 27.0 42.45 28.0 42.45 28.0 41.45 29.0 41.45 29.0 42.45 32.0 42.45 32.0 44.45 31.0 44.45 31.0 46.45 30.0 46.45 30.0 45.45 28.0 45.45 28.0 46.45 29.0 46.45 29.0 49.45 28.0 49.45 28.0 48.45 27.0 48.45 27.0 47.45 26.0 47.45 M27.0 44.45 L27.0 45.45 28.0 45.45 28.0 44.45 27.0 44.45" fill="#777777" fill-rule="evenodd" stroke="none"/>
    <path d="M10.0 29.45 L13.0 29.45 13.0 30.45 11.0 30.45 11.0 31.45 10.0 31.45 10.0 29.45 M6.0 31.45 L8.0 31.45 8.0 32.45 7.0 32.45 7.0 33.45 1.0 33.45 1.0 31.45 4.0 31.45 4.0 32.45 6.0 32.45 6.0 31.45" fill="#ffffff" fill-rule="evenodd" stroke="none"/>
    <path d="M17.0 39.45 L18.0 39.45 18.0 38.45 19.0 38.45 19.0 37.45 20.0 37.45 20.0 36.45 22.0 36.45 22.0 37.45 23.0 37.45 23.0 38.45 22.0 38.45 22.0 39.45 21.0 39.45 21.0 40.45 20.0 40.45 20.0 41.45 19.0 41.45 19.0 42.45 18.0 42.45 18.0 43.45 17.0 43.45 17.0 41.45 16.0 41.45 16.0 40.45 17.0 40.45 17.0 39.45 M34.0 43.45 L34.0 42.45 35.0 42.45 35.0 43.45 34.0 43.45 M40.0 47.45 L40.0 48.45 39.0 48.45 39.0 47.45 38.0 47.45 38.0 46.45 37.0 46.45 37.0 45.45 36.0 45.45 36.0 44.45 35.0 44.45 35.0 43.45 36.0 43.45 36.0 44.45 37.0 44.45 37.0 45.45 38.0 45.45 38.0 46.45 39.0 46.45 39.0 47.45 40.0 47.45 M34.0 49.45 L34.0 51.45 33.0 51.45 33.0 49.45 34.0 49.45 M34.0 48.45 L33.0 48.45 33.0 47.45 34.0 47.45 34.0 48.45 M34.0 53.45 L33.0 53.45 33.0 52.45 34.0 52.45 34.0 53.45" fill="#d1d1d1" fill-rule="evenodd" stroke="none"/>
  </g>
</svg>
