<?xml version="1.0" encoding="UTF-8" standalone="no"?>
<svg xmlns:ffdec="https://www.free-decompiler.com/flash" xmlns:xlink="http://www.w3.org/1999/xlink" ffdec:objectType="shape" height="29.0px" width="32.0px" xmlns="http://www.w3.org/2000/svg">
  <g transform="matrix(1.0, 0.0, 0.0, 1.0, 31.1, 6.0)">
    <path d="M-28.1 -1.0 L-28.1 -2.0 -27.1 -2.0 -27.1 -1.0 -28.1 -1.0 -28.1 0.0 -29.1 0.0 -29.1 1.0 -30.1 1.0 -30.1 3.0 -27.1 3.0 -27.1 4.0 -24.1 4.0 -24.1 5.0 -21.1 5.0 -21.1 3.0 -19.1 3.0 -19.1 2.0 -17.1 2.0 -17.1 1.0 -11.1 1.0 -11.1 2.0 -9.1 2.0 -9.1 3.0 -7.1 3.0 -7.1 2.0 -8.1 2.0 -8.1 1.0 -10.1 1.0 -10.1 0.0 -13.1 0.0 -13.1 -1.0 -20.1 -1.0 -20.1 0.0 -23.1 0.0 -23.1 1.0 -25.1 1.0 -25.1 2.0 -28.1 2.0 -28.1 1.0 -27.1 1.0 -27.1 0.0 -26.1 0.0 -26.1 -1.0 -24.1 -1.0 -24.1 -2.0 -22.1 -2.0 -22.1 -3.0 -19.1 -3.0 -19.1 -4.0 -13.1 -4.0 -13.1 -5.0 -20.1 -5.0 -20.1 -4.0 -23.1 -4.0 -23.1 -3.0 -25.1 -3.0 -25.1 -2.0 -27.1 -2.0 -27.1 -3.0 -25.1 -3.0 -25.1 -4.0 -23.1 -4.0 -23.1 -5.0 -21.1 -5.0 -21.1 -6.0 -8.1 -6.0 -8.1 -5.0 -7.1 -5.0 -7.1 -4.0 -5.1 -4.0 -5.1 -3.0 -4.1 -3.0 -4.1 -2.0 -3.1 -2.0 -3.1 -1.0 -2.1 -1.0 -2.1 0.0 -1.1 0.0 -1.1 2.0 -0.1 2.0 -0.1 4.0 0.9 4.0 0.9 7.0 -1.1 7.0 -1.1 10.0 -2.1 10.0 -2.1 12.0 -3.1 12.0 -3.1 14.0 -4.1 14.0 -4.1 18.0 -3.1 18.0 -3.1 17.0 -2.1 17.0 -2.1 16.0 -1.1 16.0 -1.1 20.0 -2.1 20.0 -2.1 21.0 -3.1 21.0 -3.1 22.0 -5.1 22.0 -5.1 23.0 -24.1 23.0 -24.1 21.0 -23.1 21.0 -23.1 19.0 -24.1 19.0 -24.1 18.0 -28.1 18.0 -28.1 14.0 -27.1 14.0 -27.1 4.0 -31.1 4.0 -31.1 1.0 -30.1 1.0 -30.1 0.0 -29.1 0.0 -29.1 -1.0 -28.1 -1.0 M-21.1 8.0 L-22.1 8.0 -22.1 7.0 -21.1 7.0 -21.1 8.0 M-7.1 3.0 L-7.1 4.0 -6.1 4.0 -6.1 3.0 -7.1 3.0 M-21.1 5.0 L-21.1 6.0 -22.1 6.0 -22.1 7.0 -25.1 7.0 -25.1 6.0 -24.1 6.0 -24.1 5.0 -26.1 5.0 -26.1 14.0 -27.1 14.0 -27.1 17.0 -24.1 17.0 -24.1 18.0 -23.1 18.0 -23.1 19.0 -22.1 19.0 -22.1 21.0 -23.1 21.0 -23.1 22.0 -18.1 22.0 -18.1 21.0 -19.1 21.0 -19.1 20.0 -20.1 20.0 -20.1 17.0 -19.1 17.0 -19.1 18.0 -17.1 18.0 -17.1 17.0 -16.1 17.0 -16.1 15.0 -15.1 15.0 -15.1 10.0 -16.1 10.0 -16.1 8.0 -18.1 8.0 -18.1 7.0 -21.1 7.0 -21.1 6.0 -0.1 6.0 -0.1 5.0 -21.1 5.0 M-13.1 -4.0 L-13.1 -3.0 -10.1 -3.0 -10.1 -2.0 -8.1 -2.0 -8.1 -3.0 -10.1 -3.0 -10.1 -4.0 -13.1 -4.0 M-24.1 9.0 L-24.1 10.0 -23.1 10.0 -23.1 9.0 -22.1 9.0 -22.1 10.0 -21.1 10.0 -21.1 12.0 -22.1 12.0 -22.1 11.0 -23.1 11.0 -23.1 14.0 -25.1 14.0 -25.1 12.0 -24.1 12.0 -24.1 11.0 -25.1 11.0 -25.1 9.0 -24.1 9.0 M-22.1 15.0 L-22.1 16.0 -25.1 16.0 -25.1 15.0 -22.1 15.0 -22.1 14.0 -21.1 14.0 -21.1 15.0 -22.1 15.0" fill="#000000" fill-rule="evenodd" stroke="none"/>
    <path d="M-28.1 -1.0 L-27.1 -1.0 -27.1 -2.0 -25.1 -2.0 -25.1 -3.0 -23.1 -3.0 -23.1 -4.0 -20.1 -4.0 -20.1 -5.0 -13.1 -5.0 -13.1 -4.0 -19.1 -4.0 -19.1 -3.0 -22.1 -3.0 -22.1 -2.0 -24.1 -2.0 -24.1 -1.0 -26.1 -1.0 -26.1 0.0 -27.1 0.0 -27.1 1.0 -28.1 1.0 -28.1 2.0 -25.1 2.0 -25.1 1.0 -23.1 1.0 -23.1 0.0 -20.1 0.0 -20.1 -1.0 -13.1 -1.0 -13.1 0.0 -10.1 0.0 -10.1 1.0 -8.1 1.0 -8.1 2.0 -7.1 2.0 -7.1 3.0 -9.1 3.0 -9.1 2.0 -11.1 2.0 -11.1 1.0 -17.1 1.0 -17.1 2.0 -19.1 2.0 -19.1 3.0 -21.1 3.0 -21.1 5.0 -24.1 5.0 -24.1 4.0 -27.1 4.0 -27.1 3.0 -30.1 3.0 -30.1 1.0 -29.1 1.0 -29.1 0.0 -28.1 0.0 -28.1 -1.0 M-13.1 -4.0 L-10.1 -4.0 -10.1 -3.0 -8.1 -3.0 -8.1 -2.0 -10.1 -2.0 -10.1 -3.0 -13.1 -3.0 -13.1 -4.0 M-21.1 5.0 L-0.1 5.0 -0.1 6.0 -21.1 6.0 -21.1 7.0 -18.1 7.0 -18.1 8.0 -16.1 8.0 -16.1 10.0 -15.1 10.0 -15.1 15.0 -16.1 15.0 -16.1 17.0 -17.1 17.0 -17.1 18.0 -19.1 18.0 -19.1 17.0 -20.1 17.0 -20.1 20.0 -19.1 20.0 -19.1 21.0 -18.1 21.0 -18.1 22.0 -23.1 22.0 -23.1 21.0 -22.1 21.0 -22.1 19.0 -23.1 19.0 -23.1 18.0 -24.1 18.0 -24.1 17.0 -27.1 17.0 -27.1 14.0 -26.1 14.0 -26.1 5.0 -24.1 5.0 -24.1 6.0 -25.1 6.0 -25.1 7.0 -22.1 7.0 -22.1 6.0 -21.1 6.0 -21.1 5.0 M-7.1 3.0 L-6.1 3.0 -6.1 4.0 -7.1 4.0 -7.1 3.0 M-21.1 8.0 L-21.1 7.0 -22.1 7.0 -22.1 8.0 -21.1 8.0 M-24.1 9.0 L-25.1 9.0 -25.1 11.0 -24.1 11.0 -24.1 12.0 -25.1 12.0 -25.1 14.0 -23.1 14.0 -23.1 11.0 -22.1 11.0 -22.1 12.0 -21.1 12.0 -21.1 10.0 -22.1 10.0 -22.1 9.0 -23.1 9.0 -23.1 10.0 -24.1 10.0 -24.1 9.0 M-22.1 14.0 L-22.1 15.0 -21.1 15.0 -21.1 14.0 -22.1 14.0 M-22.1 15.0 L-25.1 15.0 -25.1 16.0 -22.1 16.0 -22.1 15.0" fill="#ffffff" fill-rule="evenodd" stroke="none"/>
  </g>
</svg>
