<?xml version="1.0" encoding="UTF-8" standalone="no"?>
<svg xmlns:ffdec="https://www.free-decompiler.com/flash" xmlns:xlink="http://www.w3.org/1999/xlink" ffdec:objectType="shape" height="17.0px" width="49.0px" xmlns="http://www.w3.org/2000/svg">
  <g transform="matrix(1.0, 0.0, 0.0, 1.0, 6.0, -41.45)">
    <path d="M39.0 44.45 L41.0 44.45 41.0 45.45 42.0 45.45 42.0 46.45 43.0 46.45 43.0 48.45 42.0 48.45 42.0 49.45 39.0 49.45 39.0 50.45 40.0 50.45 40.0 51.45 41.0 51.45 41.0 52.45 42.0 52.45 42.0 54.45 41.0 54.45 41.0 55.45 37.0 55.45 37.0 54.45 35.0 54.45 35.0 53.45 34.0 53.45 34.0 54.45 30.0 54.45 30.0 55.45 26.0 55.45 26.0 56.45 25.0 56.45 25.0 57.45 19.0 57.45 19.0 58.45 18.0 58.45 18.0 57.45 15.0 57.45 15.0 56.45 13.0 56.45 13.0 55.45 11.0 55.45 11.0 54.45 10.0 54.45 10.0 53.45 9.0 53.45 9.0 52.45 8.0 52.45 8.0 51.45 6.0 51.45 6.0 52.45 5.0 52.45 5.0 53.45 -5.0 53.45 -5.0 52.45 -6.0 52.45 -6.0 49.45 -2.0 49.45 -2.0 50.45 3.0 50.45 3.0 49.45 5.0 49.45 5.0 48.45 7.0 48.45 7.0 47.45 9.0 47.45 9.0 48.45 11.0 48.45 11.0 49.45 14.0 49.45 14.0 50.45 17.0 50.45 17.0 49.45 19.0 49.45 19.0 50.45 23.0 50.45 23.0 49.45 25.0 49.45 25.0 48.45 27.0 48.45 27.0 47.45 29.0 47.45 29.0 46.45 30.0 46.45 30.0 45.45 31.0 45.45 31.0 44.45 32.0 44.45 32.0 43.45 33.0 43.45 33.0 41.45 35.0 41.45 35.0 42.45 37.0 42.45 37.0 43.45 39.0 43.45 39.0 44.45 37.0 44.45 37.0 43.45 35.0 43.45 35.0 42.45 34.0 42.45 34.0 43.45 35.0 43.45 35.0 44.45 37.0 44.45 37.0 45.45 39.0 45.45 39.0 46.45 41.0 46.45 41.0 47.45 42.0 47.45 42.0 46.45 41.0 46.45 41.0 45.45 39.0 45.45 39.0 44.45 M38.0 50.45 L38.0 49.45 37.0 49.45 37.0 50.45 38.0 50.45 38.0 51.45 39.0 51.45 39.0 52.45 40.0 52.45 40.0 53.45 41.0 53.45 41.0 52.45 40.0 52.45 40.0 51.45 39.0 51.45 39.0 50.45 38.0 50.45 M34.0 52.45 L33.0 52.45 33.0 50.45 32.0 50.45 32.0 51.45 31.0 51.45 31.0 52.45 29.0 52.45 29.0 53.45 34.0 53.45 34.0 52.45 M5.0 49.45 L5.0 51.45 6.0 51.45 6.0 50.45 8.0 50.45 8.0 49.45 5.0 49.45 M8.0 49.45 L9.0 49.45 9.0 52.45 10.0 52.45 10.0 53.45 11.0 53.45 11.0 54.45 13.0 54.45 13.0 55.45 15.0 55.45 15.0 56.45 18.0 56.45 18.0 50.45 17.0 50.45 17.0 51.45 14.0 51.45 14.0 50.45 11.0 50.45 11.0 49.45 9.0 49.45 9.0 48.45 8.0 48.45 8.0 49.45 M-5.0 50.45 L-5.0 52.45 3.0 52.45 3.0 51.45 -2.0 51.45 -2.0 50.45 -5.0 50.45 M23.0 52.45 L27.0 52.45 27.0 51.45 26.0 51.45 26.0 49.45 25.0 49.45 25.0 50.45 23.0 50.45 23.0 52.45 22.0 52.45 22.0 51.45 19.0 51.45 19.0 56.45 24.0 56.45 24.0 54.45 23.0 54.45 23.0 52.45 M24.0 54.45 L25.0 54.45 25.0 55.45 26.0 55.45 26.0 54.45 28.0 54.45 28.0 53.45 24.0 53.45 24.0 54.45 M28.0 49.45 L28.0 51.45 31.0 51.45 31.0 50.45 32.0 50.45 32.0 47.45 31.0 47.45 31.0 46.45 30.0 46.45 30.0 47.45 29.0 47.45 29.0 48.45 27.0 48.45 27.0 49.45 28.0 49.45" fill="#000000" fill-rule="evenodd" stroke="none"/>
    <path d="M39.0 44.45 L39.0 45.45 41.0 45.45 41.0 46.45 42.0 46.45 42.0 47.45 41.0 47.45 41.0 46.45 39.0 46.45 39.0 45.45 37.0 45.45 37.0 44.45 35.0 44.45 35.0 43.45 34.0 43.45 34.0 42.45 35.0 42.45 35.0 43.45 37.0 43.45 37.0 44.45 39.0 44.45 M38.0 50.45 L37.0 50.45 37.0 49.45 38.0 49.45 38.0 50.45 39.0 50.45 39.0 51.45 40.0 51.45 40.0 52.45 41.0 52.45 41.0 53.45 40.0 53.45 40.0 52.45 39.0 52.45 39.0 51.45 38.0 51.45 38.0 50.45 M23.0 52.45 L23.0 54.45 24.0 54.45 24.0 56.45 19.0 56.45 19.0 51.45 22.0 51.45 22.0 52.45 23.0 52.45" fill="#d1d1d1" fill-rule="evenodd" stroke="none"/>
    <path d="M34.0 52.45 L34.0 53.45 29.0 53.45 29.0 52.45 31.0 52.45 31.0 51.45 32.0 51.45 32.0 50.45 33.0 50.45 33.0 52.45 34.0 52.45 M8.0 49.45 L8.0 48.45 9.0 48.45 9.0 49.45 11.0 49.45 11.0 50.45 14.0 50.45 14.0 51.45 17.0 51.45 17.0 50.45 18.0 50.45 18.0 56.45 15.0 56.45 15.0 55.45 13.0 55.45 13.0 54.45 11.0 54.45 11.0 53.45 10.0 53.45 10.0 52.45 9.0 52.45 9.0 49.45 8.0 49.45 M23.0 50.45 L25.0 50.45 25.0 49.45 26.0 49.45 26.0 51.45 27.0 51.45 27.0 52.45 23.0 52.45 23.0 50.45 M24.0 54.45 L24.0 53.45 28.0 53.45 28.0 54.45 26.0 54.45 26.0 55.45 25.0 55.45 25.0 54.45 24.0 54.45 M28.0 49.45 L27.0 49.45 27.0 48.45 29.0 48.45 29.0 47.45 30.0 47.45 30.0 46.45 31.0 46.45 31.0 47.45 32.0 47.45 32.0 50.45 31.0 50.45 31.0 51.45 28.0 51.45 28.0 49.45" fill="#777777" fill-rule="evenodd" stroke="none"/>
    <path d="M5.0 49.45 L8.0 49.45 8.0 50.45 6.0 50.45 6.0 51.45 5.0 51.45 5.0 49.45 M-5.0 50.45 L-2.0 50.45 -2.0 51.45 3.0 51.45 3.0 52.45 -5.0 52.45 -5.0 50.45" fill="#ffffff" fill-rule="evenodd" stroke="none"/>
  </g>
</svg>
