<?xml version="1.0" encoding="UTF-8" standalone="no"?>
<svg xmlns:ffdec="https://www.free-decompiler.com/flash" xmlns:xlink="http://www.w3.org/1999/xlink" ffdec:objectType="shape" height="29.0px" width="32.0px" xmlns="http://www.w3.org/2000/svg">
  <g transform="matrix(1.0, 0.0, 0.0, 1.0, 33.0, -5.0)">
    <path d="M-25.0 7.0 L-25.0 6.0 -23.0 6.0 -23.0 5.0 -10.0 5.0 -10.0 6.0 -9.0 6.0 -9.0 7.0 -7.0 7.0 -7.0 8.0 -6.0 8.0 -6.0 9.0 -5.0 9.0 -5.0 10.0 -4.0 10.0 -4.0 11.0 -3.0 11.0 -3.0 13.0 -2.0 13.0 -2.0 15.0 -1.0 15.0 -1.0 18.0 -3.0 18.0 -3.0 21.0 -4.0 21.0 -4.0 23.0 -5.0 23.0 -5.0 25.0 -6.0 25.0 -6.0 29.0 -5.0 29.0 -5.0 28.0 -4.0 28.0 -4.0 27.0 -3.0 27.0 -3.0 31.0 -4.0 31.0 -4.0 32.0 -5.0 32.0 -5.0 33.0 -7.0 33.0 -7.0 34.0 -26.0 34.0 -26.0 33.0 -20.0 33.0 -20.0 32.0 -21.0 32.0 -21.0 31.0 -22.0 31.0 -22.0 28.0 -21.0 28.0 -21.0 29.0 -19.0 29.0 -19.0 28.0 -18.0 28.0 -18.0 26.0 -17.0 26.0 -17.0 21.0 -18.0 21.0 -18.0 19.0 -20.0 19.0 -20.0 18.0 -23.0 18.0 -23.0 17.0 -2.0 17.0 -2.0 16.0 -23.0 16.0 -23.0 14.0 -21.0 14.0 -21.0 13.0 -19.0 13.0 -19.0 12.0 -13.0 12.0 -13.0 13.0 -11.0 13.0 -11.0 14.0 -9.0 14.0 -9.0 15.0 -8.0 15.0 -8.0 14.0 -9.0 14.0 -9.0 13.0 -10.0 13.0 -10.0 12.0 -12.0 12.0 -12.0 11.0 -15.0 11.0 -15.0 10.0 -22.0 10.0 -22.0 11.0 -25.0 11.0 -25.0 12.0 -27.0 12.0 -27.0 13.0 -30.0 13.0 -30.0 12.0 -29.0 12.0 -29.0 11.0 -28.0 11.0 -28.0 10.0 -26.0 10.0 -26.0 9.0 -24.0 9.0 -24.0 8.0 -21.0 8.0 -21.0 7.0 -15.0 7.0 -15.0 8.0 -12.0 8.0 -12.0 9.0 -10.0 9.0 -10.0 8.0 -12.0 8.0 -12.0 7.0 -15.0 7.0 -15.0 6.0 -22.0 6.0 -22.0 7.0 -25.0 7.0 -25.0 8.0 -27.0 8.0 -27.0 9.0 -29.0 9.0 -29.0 8.0 -27.0 8.0 -27.0 7.0 -25.0 7.0 M-27.0 32.0 L-26.0 32.0 -26.0 33.0 -27.0 33.0 -27.0 32.0 -28.0 32.0 -28.0 31.0 -29.0 31.0 -29.0 30.0 -30.0 30.0 -30.0 25.0 -29.0 25.0 -29.0 15.0 -33.0 15.0 -33.0 12.0 -32.0 12.0 -32.0 11.0 -31.0 11.0 -31.0 10.0 -30.0 10.0 -30.0 9.0 -29.0 9.0 -29.0 10.0 -30.0 10.0 -30.0 11.0 -31.0 11.0 -31.0 12.0 -32.0 12.0 -32.0 14.0 -29.0 14.0 -29.0 15.0 -26.0 15.0 -26.0 16.0 -23.0 16.0 -23.0 17.0 -26.0 17.0 -26.0 18.0 -23.0 18.0 -23.0 19.0 -26.0 19.0 -26.0 18.0 -27.0 18.0 -27.0 17.0 -28.0 17.0 -28.0 25.0 -29.0 25.0 -29.0 30.0 -28.0 30.0 -28.0 31.0 -27.0 31.0 -27.0 29.0 -25.0 29.0 -25.0 30.0 -24.0 30.0 -24.0 32.0 -26.0 32.0 -26.0 31.0 -27.0 31.0 -27.0 32.0 M-27.0 17.0 L-26.0 17.0 -26.0 16.0 -27.0 16.0 -27.0 17.0 M-26.0 23.0 L-25.0 23.0 -25.0 22.0 -24.0 22.0 -24.0 23.0 -23.0 23.0 -23.0 24.0 -27.0 24.0 -27.0 22.0 -26.0 22.0 -26.0 23.0" fill="#000000" fill-rule="evenodd" stroke="none"/>
    <path d="M-25.0 7.0 L-22.0 7.0 -22.0 6.0 -15.0 6.0 -15.0 7.0 -12.0 7.0 -12.0 8.0 -10.0 8.0 -10.0 9.0 -12.0 9.0 -12.0 8.0 -15.0 8.0 -15.0 7.0 -21.0 7.0 -21.0 8.0 -24.0 8.0 -24.0 9.0 -26.0 9.0 -26.0 10.0 -28.0 10.0 -28.0 11.0 -29.0 11.0 -29.0 12.0 -30.0 12.0 -30.0 13.0 -27.0 13.0 -27.0 12.0 -25.0 12.0 -25.0 11.0 -22.0 11.0 -22.0 10.0 -15.0 10.0 -15.0 11.0 -12.0 11.0 -12.0 12.0 -10.0 12.0 -10.0 13.0 -9.0 13.0 -9.0 14.0 -8.0 14.0 -8.0 15.0 -9.0 15.0 -9.0 14.0 -11.0 14.0 -11.0 13.0 -13.0 13.0 -13.0 12.0 -19.0 12.0 -19.0 13.0 -21.0 13.0 -21.0 14.0 -23.0 14.0 -23.0 16.0 -2.0 16.0 -2.0 17.0 -23.0 17.0 -23.0 18.0 -20.0 18.0 -20.0 19.0 -18.0 19.0 -18.0 21.0 -17.0 21.0 -17.0 26.0 -18.0 26.0 -18.0 28.0 -19.0 28.0 -19.0 29.0 -21.0 29.0 -21.0 28.0 -22.0 28.0 -22.0 31.0 -21.0 31.0 -21.0 32.0 -20.0 32.0 -20.0 33.0 -26.0 33.0 -26.0 32.0 -27.0 32.0 -27.0 31.0 -26.0 31.0 -26.0 32.0 -24.0 32.0 -24.0 30.0 -25.0 30.0 -25.0 29.0 -27.0 29.0 -27.0 31.0 -28.0 31.0 -28.0 30.0 -29.0 30.0 -29.0 25.0 -28.0 25.0 -28.0 17.0 -27.0 17.0 -27.0 18.0 -26.0 18.0 -26.0 19.0 -23.0 19.0 -23.0 18.0 -26.0 18.0 -26.0 17.0 -23.0 17.0 -23.0 16.0 -26.0 16.0 -26.0 15.0 -29.0 15.0 -29.0 14.0 -32.0 14.0 -32.0 12.0 -31.0 12.0 -31.0 11.0 -30.0 11.0 -30.0 10.0 -29.0 10.0 -29.0 9.0 -27.0 9.0 -27.0 8.0 -25.0 8.0 -25.0 7.0 M-26.0 23.0 L-26.0 22.0 -27.0 22.0 -27.0 24.0 -23.0 24.0 -23.0 23.0 -24.0 23.0 -24.0 22.0 -25.0 22.0 -25.0 23.0 -26.0 23.0 M-27.0 17.0 L-27.0 16.0 -26.0 16.0 -26.0 17.0 -27.0 17.0" fill="#ffffff" fill-rule="evenodd" stroke="none"/>
  </g>
</svg>
