<?xml version="1.0" encoding="UTF-8" standalone="no"?>
<svg xmlns:ffdec="https://www.free-decompiler.com/flash" xmlns:xlink="http://www.w3.org/1999/xlink" ffdec:objectType="shape" height="14.0px" width="50.0px" xmlns="http://www.w3.org/2000/svg">
  <g transform="matrix(1.0, 0.0, 0.0, 1.0, 11.0, -45.45)">
    <path d="M32.0 46.45 L33.0 46.45 33.0 45.45 35.0 45.45 35.0 46.45 36.0 46.45 36.0 45.45 37.0 45.45 37.0 46.45 38.0 46.45 38.0 47.45 37.0 47.45 37.0 48.45 35.0 48.45 35.0 49.45 34.0 49.45 34.0 50.45 35.0 50.45 35.0 51.45 36.0 51.45 36.0 52.45 37.0 52.45 37.0 53.45 38.0 53.45 38.0 54.45 39.0 54.45 39.0 56.45 38.0 56.45 38.0 58.45 36.0 58.45 36.0 57.45 34.0 57.45 34.0 56.45 33.0 56.45 33.0 57.45 30.0 57.45 30.0 58.45 28.0 58.45 28.0 59.45 -7.0 59.45 -7.0 58.45 -10.0 58.45 -10.0 57.45 -11.0 57.45 -11.0 54.45 -6.0 54.45 -6.0 55.45 -4.0 55.45 -4.0 56.45 3.0 56.45 3.0 55.45 5.0 55.45 5.0 54.45 10.0 54.45 10.0 53.45 12.0 53.45 12.0 52.45 14.0 52.45 14.0 53.45 15.0 53.45 15.0 52.45 17.0 52.45 17.0 51.45 18.0 51.45 18.0 50.45 19.0 50.45 19.0 52.45 22.0 52.45 22.0 51.45 23.0 51.45 23.0 50.45 24.0 50.45 24.0 49.45 25.0 49.45 25.0 47.45 24.0 47.45 24.0 46.45 25.0 46.45 25.0 45.45 26.0 45.45 26.0 46.45 27.0 46.45 27.0 45.45 29.0 45.45 29.0 46.45 30.0 46.45 30.0 45.45 32.0 45.45 32.0 46.45 30.0 46.45 30.0 47.45 32.0 47.45 32.0 46.45 M29.0 46.45 L27.0 46.45 27.0 47.45 29.0 47.45 29.0 46.45 M38.0 54.45 L37.0 54.45 37.0 53.45 36.0 53.45 36.0 52.45 35.0 52.45 35.0 51.45 34.0 51.45 34.0 50.45 33.0 50.45 33.0 49.45 32.0 49.45 32.0 50.45 33.0 50.45 33.0 51.45 34.0 51.45 34.0 52.45 35.0 52.45 35.0 53.45 36.0 53.45 36.0 54.45 37.0 54.45 37.0 55.45 38.0 55.45 38.0 54.45 M33.0 46.45 L33.0 47.45 35.0 47.45 35.0 46.45 33.0 46.45 M36.0 46.45 L36.0 47.45 37.0 47.45 37.0 46.45 36.0 46.45 M29.0 53.45 L29.0 52.45 30.0 52.45 30.0 51.45 31.0 51.45 31.0 50.45 30.0 50.45 30.0 51.45 29.0 51.45 29.0 50.45 26.0 50.45 26.0 49.45 25.0 49.45 25.0 50.45 24.0 50.45 24.0 51.45 23.0 51.45 23.0 52.45 24.0 52.45 24.0 53.45 26.0 53.45 26.0 54.45 28.0 54.45 28.0 55.45 27.0 55.45 27.0 56.45 28.0 56.45 28.0 57.45 30.0 57.45 30.0 56.45 32.0 56.45 32.0 55.45 31.0 55.45 31.0 54.45 30.0 54.45 30.0 53.45 29.0 53.45 29.0 54.45 28.0 54.45 28.0 53.45 26.0 53.45 26.0 52.45 28.0 52.45 28.0 51.45 29.0 51.45 29.0 52.45 28.0 52.45 28.0 53.45 29.0 53.45 M25.0 46.45 L25.0 47.45 26.0 47.45 26.0 46.45 25.0 46.45 M3.0 57.45 L0.0 57.45 0.0 58.45 3.0 58.45 3.0 57.45 5.0 57.45 5.0 58.45 14.0 58.45 14.0 55.45 13.0 55.45 13.0 53.45 12.0 53.45 12.0 54.45 10.0 54.45 10.0 55.45 5.0 55.45 5.0 56.45 3.0 56.45 3.0 57.45 M14.0 55.45 L15.0 55.45 15.0 58.45 19.0 58.45 19.0 56.45 18.0 56.45 18.0 52.45 17.0 52.45 17.0 53.45 15.0 53.45 15.0 54.45 14.0 54.45 14.0 55.45 M-2.0 57.45 L-4.0 57.45 -4.0 56.45 -6.0 56.45 -6.0 55.45 -10.0 55.45 -10.0 57.45 -7.0 57.45 -7.0 58.45 -2.0 58.45 -2.0 57.45 M20.0 56.45 L20.0 58.45 26.0 58.45 26.0 56.45 20.0 56.45 M23.0 55.45 L23.0 54.45 22.0 54.45 22.0 53.45 19.0 53.45 19.0 55.45 23.0 55.45" fill="#000000" fill-rule="evenodd" stroke="none"/>
    <path d="M32.0 46.45 L32.0 47.45 30.0 47.45 30.0 46.45 32.0 46.45 M29.0 46.45 L29.0 47.45 27.0 47.45 27.0 46.45 29.0 46.45 M36.0 46.45 L37.0 46.45 37.0 47.45 36.0 47.45 36.0 46.45 M33.0 46.45 L35.0 46.45 35.0 47.45 33.0 47.45 33.0 46.45 M38.0 54.45 L38.0 55.45 37.0 55.45 37.0 54.45 36.0 54.45 36.0 53.45 35.0 53.45 35.0 52.45 34.0 52.45 34.0 51.45 33.0 51.45 33.0 50.45 32.0 50.45 32.0 49.45 33.0 49.45 33.0 50.45 34.0 50.45 34.0 51.45 35.0 51.45 35.0 52.45 36.0 52.45 36.0 53.45 37.0 53.45 37.0 54.45 38.0 54.45 M25.0 46.45 L26.0 46.45 26.0 47.45 25.0 47.45 25.0 46.45 M14.0 55.45 L14.0 54.45 15.0 54.45 15.0 53.45 17.0 53.45 17.0 52.45 18.0 52.45 18.0 56.45 19.0 56.45 19.0 58.45 15.0 58.45 15.0 55.45 14.0 55.45" fill="#d1d1d1" fill-rule="evenodd" stroke="none"/>
    <path d="M29.0 53.45 L30.0 53.45 30.0 54.45 31.0 54.45 31.0 55.45 32.0 55.45 32.0 56.45 30.0 56.45 30.0 57.45 28.0 57.45 28.0 56.45 27.0 56.45 27.0 55.45 28.0 55.45 28.0 54.45 29.0 54.45 29.0 53.45 M26.0 53.45 L24.0 53.45 24.0 52.45 23.0 52.45 23.0 51.45 24.0 51.45 24.0 50.45 25.0 50.45 25.0 49.45 26.0 49.45 26.0 50.45 29.0 50.45 29.0 51.45 28.0 51.45 28.0 52.45 26.0 52.45 26.0 53.45 M3.0 57.45 L3.0 56.45 5.0 56.45 5.0 55.45 10.0 55.45 10.0 54.45 12.0 54.45 12.0 53.45 13.0 53.45 13.0 55.45 14.0 55.45 14.0 58.45 5.0 58.45 5.0 57.45 3.0 57.45 M23.0 55.45 L19.0 55.45 19.0 53.45 22.0 53.45 22.0 54.45 23.0 54.45 23.0 55.45 M20.0 56.45 L26.0 56.45 26.0 58.45 20.0 58.45 20.0 56.45" fill="#777777" fill-rule="evenodd" stroke="none"/>
    <path d="M3.0 57.45 L3.0 58.45 0.0 58.45 0.0 57.45 3.0 57.45 M-2.0 57.45 L-2.0 58.45 -7.0 58.45 -7.0 57.45 -10.0 57.45 -10.0 55.45 -6.0 55.45 -6.0 56.45 -4.0 56.45 -4.0 57.45 -2.0 57.45" fill="#ffffff" fill-rule="evenodd" stroke="none"/>
  </g>
</svg>
