<?xml version="1.0" encoding="UTF-8" standalone="no"?>
<svg xmlns:ffdec="https://www.free-decompiler.com/flash" xmlns:xlink="http://www.w3.org/1999/xlink" ffdec:objectType="shape" height="29.0px" width="17.0px" xmlns="http://www.w3.org/2000/svg">
  <g transform="matrix(1.0, 0.0, 0.0, 1.0, 11.05, -5.95)">
    <path d="M1.95 11.95 L1.95 13.95 2.95 13.95 2.95 14.95 3.95 14.95 3.95 15.95 4.95 15.95 4.95 16.95 5.95 16.95 5.95 17.95 3.95 17.95 3.95 19.95 2.95 19.95 2.95 20.95 0.95 20.95 0.95 21.95 -1.05 21.95 -1.05 22.95 -2.05 22.95 -2.05 23.95 -0.05 23.95 -0.05 24.95 1.95 24.95 1.95 25.95 3.95 25.95 3.95 26.95 4.95 26.95 4.95 28.95 3.95 28.95 3.95 31.95 4.95 31.95 4.95 32.95 5.95 32.95 5.95 33.95 4.95 33.95 4.95 34.95 3.95 34.95 3.95 33.95 2.95 33.95 2.95 34.95 0.95 34.95 0.95 33.95 -0.05 33.95 -0.05 34.95 -2.05 34.95 -2.05 33.95 -3.05 33.95 -3.05 34.95 -5.05 34.95 -5.05 33.95 -6.05 33.95 -6.05 34.95 -7.05 34.95 -7.05 33.95 -8.05 33.95 -8.05 32.95 -7.05 32.95 -7.05 31.95 -6.05 31.95 -6.05 29.95 -5.05 29.95 -5.05 28.95 -3.05 28.95 -3.05 27.95 -4.05 27.95 -4.05 26.95 -5.05 26.95 -5.05 25.95 -9.05 25.95 -9.05 24.95 -10.05 24.95 -10.05 22.95 -9.05 22.95 -9.05 21.95 -8.05 21.95 -8.05 20.95 -7.05 20.95 -7.05 19.95 -6.05 19.95 -6.05 18.95 -5.05 18.95 -5.05 17.95 -4.05 17.95 -4.05 16.95 -5.05 16.95 -5.05 15.95 -6.05 15.95 -6.05 14.95 -10.05 14.95 -10.05 13.95 -11.05 13.95 -11.05 9.95 -10.05 9.95 -10.05 8.95 -9.05 8.95 -9.05 7.95 -8.05 7.95 -8.05 6.95 -7.05 6.95 -7.05 5.95 -4.05 5.95 -4.05 6.95 -3.05 6.95 -3.05 7.95 -2.05 7.95 -2.05 8.95 -1.05 8.95 -1.05 9.95 -0.05 9.95 -0.05 10.95 0.95 10.95 0.95 11.95 1.95 11.95 M0.95 13.95 L-6.05 13.95 -6.05 14.95 -5.05 14.95 -5.05 15.95 -0.05 15.95 -0.05 16.95 3.95 16.95 3.95 15.95 1.95 15.95 1.95 14.95 0.95 14.95 0.95 13.95 M-1.05 17.95 L-3.05 17.95 -3.05 18.95 -5.05 18.95 -5.05 19.95 -6.05 19.95 -6.05 20.95 -7.05 20.95 -7.05 22.95 -3.05 22.95 -3.05 21.95 -1.05 21.95 -1.05 20.95 0.95 20.95 0.95 19.95 -0.05 19.95 -0.05 18.95 1.95 18.95 1.95 19.95 2.95 19.95 2.95 17.95 -0.05 17.95 -0.05 16.95 -1.05 16.95 -1.05 17.95 -0.05 17.95 -0.05 18.95 -1.05 18.95 -1.05 17.95 M-7.05 10.95 L-10.05 10.95 -10.05 13.95 -7.05 13.95 -7.05 12.95 0.95 12.95 0.95 11.95 -0.05 11.95 -0.05 10.95 -1.05 10.95 -1.05 9.95 -2.05 9.95 -2.05 8.95 -3.05 8.95 -3.05 7.95 -4.05 7.95 -4.05 6.95 -5.05 6.95 -5.05 7.95 -6.05 7.95 -6.05 6.95 -7.05 6.95 -7.05 7.95 -8.05 7.95 -8.05 8.95 -9.05 8.95 -9.05 9.95 -8.05 9.95 -8.05 8.95 -7.05 8.95 -7.05 10.95 -6.05 10.95 -6.05 8.95 -5.05 8.95 -5.05 9.95 -4.05 9.95 -4.05 10.95 -2.05 10.95 -2.05 11.95 -7.05 11.95 -7.05 10.95 M1.95 25.95 L-0.05 25.95 -0.05 24.95 -2.05 24.95 -2.05 23.95 -4.05 23.95 -4.05 24.95 -5.05 24.95 -5.05 25.95 -4.05 25.95 -4.05 26.95 -3.05 26.95 -3.05 27.95 -2.05 27.95 -2.05 28.95 3.95 28.95 3.95 27.95 2.95 27.95 2.95 26.95 1.95 26.95 1.95 25.95 M4.95 33.95 L4.95 32.95 3.95 32.95 3.95 33.95 4.95 33.95 M0.95 33.95 L2.95 33.95 2.95 32.95 0.95 32.95 0.95 33.95 M-6.05 7.95 L-6.05 8.95 -7.05 8.95 -7.05 7.95 -6.05 7.95 M-5.05 8.95 L-5.05 7.95 -4.05 7.95 -4.05 8.95 -5.05 8.95 M-6.05 32.95 L-7.05 32.95 -7.05 33.95 -6.05 33.95 -6.05 32.95 M-0.05 33.95 L-0.05 32.95 -2.05 32.95 -2.05 33.95 -0.05 33.95 M-3.05 33.95 L-3.05 32.95 -5.05 32.95 -5.05 33.95 -3.05 33.95" fill="#000000" fill-rule="evenodd" stroke="none"/>
    <path d="M0.95 11.95 L0.95 12.95 -7.05 12.95 -7.05 13.95 -10.05 13.95 -10.05 10.95 -7.05 10.95 -7.05 11.95 -2.05 11.95 -2.05 10.95 -4.05 10.95 -4.05 9.95 -5.05 9.95 -5.05 8.95 -4.05 8.95 -4.05 7.95 -3.05 7.95 -3.05 8.95 -2.05 8.95 -2.05 9.95 -1.05 9.95 -1.05 10.95 -0.05 10.95 -0.05 11.95 0.95 11.95 M-7.05 8.95 L-8.05 8.95 -8.05 9.95 -9.05 9.95 -9.05 8.95 -8.05 8.95 -8.05 7.95 -7.05 7.95 -7.05 6.95 -6.05 6.95 -6.05 7.95 -7.05 7.95 -7.05 8.95" fill="#ffffff" fill-rule="evenodd" stroke="none"/>
    <path d="M0.95 13.95 L0.95 14.95 1.95 14.95 1.95 15.95 3.95 15.95 3.95 16.95 -0.05 16.95 -0.05 15.95 -5.05 15.95 -5.05 14.95 -6.05 14.95 -6.05 13.95 0.95 13.95 M-0.05 18.95 L-0.05 19.95 0.95 19.95 0.95 20.95 -1.05 20.95 -1.05 21.95 -3.05 21.95 -3.05 22.95 -7.05 22.95 -7.05 20.95 -6.05 20.95 -6.05 19.95 -5.05 19.95 -5.05 18.95 -3.05 18.95 -3.05 17.95 -1.05 17.95 -1.05 18.95 -0.05 18.95 M-7.05 10.95 L-7.05 8.95 -6.05 8.95 -6.05 7.95 -5.05 7.95 -5.05 6.95 -4.05 6.95 -4.05 7.95 -5.05 7.95 -5.05 8.95 -6.05 8.95 -6.05 10.95 -7.05 10.95 M1.95 25.95 L1.95 26.95 2.95 26.95 2.95 27.95 3.95 27.95 3.95 28.95 -2.05 28.95 -2.05 27.95 -3.05 27.95 -3.05 26.95 -4.05 26.95 -4.05 25.95 -5.05 25.95 -5.05 24.95 -4.05 24.95 -4.05 23.95 -2.05 23.95 -2.05 24.95 -0.05 24.95 -0.05 25.95 1.95 25.95" fill="#777777" fill-rule="evenodd" stroke="none"/>
    <path d="M-1.05 17.95 L-1.05 16.95 -0.05 16.95 -0.05 17.95 2.95 17.95 2.95 19.95 1.95 19.95 1.95 18.95 -0.05 18.95 -0.05 17.95 -1.05 17.95 M4.95 33.95 L3.95 33.95 3.95 32.95 4.95 32.95 4.95 33.95 M0.95 33.95 L0.95 32.95 2.95 32.95 2.95 33.95 0.95 33.95 M-0.05 33.95 L-2.05 33.95 -2.05 32.95 -0.05 32.95 -0.05 33.95 M-6.05 32.95 L-6.05 33.95 -7.05 33.95 -7.05 32.95 -6.05 32.95 M-3.05 33.95 L-5.05 33.95 -5.05 32.95 -3.05 32.95 -3.05 33.95" fill="#d1d1d1" fill-rule="evenodd" stroke="none"/>
  </g>
</svg>
