<?xml version="1.0" encoding="UTF-8" standalone="no"?>
<svg xmlns:ffdec="https://www.free-decompiler.com/flash" xmlns:xlink="http://www.w3.org/1999/xlink" ffdec:objectType="shape" height="29.0px" width="32.0px" xmlns="http://www.w3.org/2000/svg">
  <g transform="matrix(1.0, 0.0, 0.0, 1.0, 0.0, 0.0)">
    <path d="M4.0 4.0 L4.0 3.0 6.0 3.0 6.0 2.0 8.0 2.0 8.0 1.0 10.0 1.0 10.0 0.0 23.0 0.0 23.0 1.0 24.0 1.0 24.0 2.0 26.0 2.0 26.0 3.0 27.0 3.0 27.0 4.0 28.0 4.0 28.0 5.0 29.0 5.0 29.0 6.0 30.0 6.0 30.0 8.0 31.0 8.0 31.0 10.0 32.0 10.0 32.0 13.0 30.0 13.0 30.0 16.0 29.0 16.0 29.0 18.0 28.0 18.0 28.0 20.0 27.0 20.0 27.0 24.0 28.0 24.0 28.0 23.0 29.0 23.0 29.0 22.0 30.0 22.0 30.0 26.0 29.0 26.0 29.0 27.0 28.0 27.0 28.0 28.0 26.0 28.0 26.0 29.0 7.0 29.0 7.0 28.0 6.0 28.0 6.0 27.0 5.0 27.0 5.0 26.0 4.0 26.0 4.0 25.0 3.0 25.0 3.0 20.0 4.0 20.0 4.0 10.0 0.0 10.0 0.0 7.0 1.0 7.0 1.0 6.0 2.0 6.0 2.0 5.0 3.0 5.0 3.0 4.0 4.0 4.0 4.0 5.0 3.0 5.0 3.0 6.0 2.0 6.0 2.0 7.0 1.0 7.0 1.0 9.0 4.0 9.0 4.0 10.0 7.0 10.0 7.0 11.0 5.0 11.0 5.0 20.0 4.0 20.0 4.0 25.0 8.0 25.0 8.0 26.0 6.0 26.0 6.0 27.0 7.0 27.0 7.0 28.0 13.0 28.0 13.0 27.0 12.0 27.0 12.0 26.0 11.0 26.0 11.0 23.0 12.0 23.0 12.0 24.0 14.0 24.0 14.0 23.0 15.0 23.0 15.0 21.0 16.0 21.0 16.0 16.0 15.0 16.0 15.0 14.0 13.0 14.0 13.0 13.0 10.0 13.0 10.0 12.0 31.0 12.0 31.0 11.0 10.0 11.0 10.0 9.0 12.0 9.0 12.0 8.0 14.0 8.0 14.0 7.0 20.0 7.0 20.0 8.0 22.0 8.0 22.0 9.0 24.0 9.0 24.0 10.0 25.0 10.0 25.0 9.0 24.0 9.0 24.0 8.0 23.0 8.0 23.0 7.0 21.0 7.0 21.0 6.0 18.0 6.0 18.0 5.0 11.0 5.0 11.0 6.0 8.0 6.0 8.0 7.0 6.0 7.0 6.0 8.0 3.0 8.0 3.0 7.0 4.0 7.0 4.0 6.0 5.0 6.0 5.0 5.0 7.0 5.0 7.0 4.0 9.0 4.0 9.0 3.0 12.0 3.0 12.0 2.0 18.0 2.0 18.0 3.0 21.0 3.0 21.0 4.0 23.0 4.0 23.0 3.0 21.0 3.0 21.0 2.0 18.0 2.0 18.0 1.0 11.0 1.0 11.0 2.0 8.0 2.0 8.0 3.0 6.0 3.0 6.0 4.0 4.0 4.0 M10.0 11.0 L10.0 12.0 9.0 12.0 9.0 13.0 10.0 13.0 10.0 14.0 9.0 14.0 9.0 13.0 6.0 13.0 6.0 12.0 7.0 12.0 7.0 11.0 10.0 11.0 M7.0 16.0 L8.0 16.0 8.0 15.0 9.0 15.0 9.0 16.0 10.0 16.0 10.0 18.0 9.0 18.0 9.0 17.0 8.0 17.0 8.0 20.0 6.0 20.0 6.0 18.0 7.0 18.0 7.0 17.0 6.0 17.0 6.0 15.0 7.0 15.0 7.0 16.0 M6.0 21.0 L9.0 21.0 9.0 20.0 10.0 20.0 10.0 21.0 9.0 21.0 9.0 22.0 6.0 22.0 6.0 21.0 M8.0 25.0 L8.0 24.0 9.0 24.0 9.0 25.0 8.0 25.0" fill="#000000" fill-rule="evenodd" stroke="none"/>
    <path d="M4.0 4.0 L6.0 4.0 6.0 3.0 8.0 3.0 8.0 2.0 11.0 2.0 11.0 1.0 18.0 1.0 18.0 2.0 21.0 2.0 21.0 3.0 23.0 3.0 23.0 4.0 21.0 4.0 21.0 3.0 18.0 3.0 18.0 2.0 12.0 2.0 12.0 3.0 9.0 3.0 9.0 4.0 7.0 4.0 7.0 5.0 5.0 5.0 5.0 6.0 4.0 6.0 4.0 7.0 3.0 7.0 3.0 8.0 6.0 8.0 6.0 7.0 8.0 7.0 8.0 6.0 11.0 6.0 11.0 5.0 18.0 5.0 18.0 6.0 21.0 6.0 21.0 7.0 23.0 7.0 23.0 8.0 24.0 8.0 24.0 9.0 25.0 9.0 25.0 10.0 24.0 10.0 24.0 9.0 22.0 9.0 22.0 8.0 20.0 8.0 20.0 7.0 14.0 7.0 14.0 8.0 12.0 8.0 12.0 9.0 10.0 9.0 10.0 11.0 31.0 11.0 31.0 12.0 10.0 12.0 10.0 13.0 13.0 13.0 13.0 14.0 15.0 14.0 15.0 16.0 16.0 16.0 16.0 21.0 15.0 21.0 15.0 23.0 14.0 23.0 14.0 24.0 12.0 24.0 12.0 23.0 11.0 23.0 11.0 26.0 12.0 26.0 12.0 27.0 13.0 27.0 13.0 28.0 7.0 28.0 7.0 27.0 6.0 27.0 6.0 26.0 8.0 26.0 8.0 25.0 4.0 25.0 4.0 20.0 5.0 20.0 5.0 11.0 7.0 11.0 7.0 10.0 4.0 10.0 4.0 9.0 1.0 9.0 1.0 7.0 2.0 7.0 2.0 6.0 3.0 6.0 3.0 5.0 4.0 5.0 4.0 4.0 M6.0 21.0 L6.0 22.0 9.0 22.0 9.0 21.0 10.0 21.0 10.0 20.0 9.0 20.0 9.0 21.0 6.0 21.0 M7.0 16.0 L7.0 15.0 6.0 15.0 6.0 17.0 7.0 17.0 7.0 18.0 6.0 18.0 6.0 20.0 8.0 20.0 8.0 17.0 9.0 17.0 9.0 18.0 10.0 18.0 10.0 16.0 9.0 16.0 9.0 15.0 8.0 15.0 8.0 16.0 7.0 16.0 M10.0 11.0 L7.0 11.0 7.0 12.0 6.0 12.0 6.0 13.0 9.0 13.0 9.0 14.0 10.0 14.0 10.0 13.0 9.0 13.0 9.0 12.0 10.0 12.0 10.0 11.0 M8.0 25.0 L9.0 25.0 9.0 24.0 8.0 24.0 8.0 25.0" fill="#ffffff" fill-rule="evenodd" stroke="none"/>
  </g>
</svg>
