<?xml version="1.0" encoding="UTF-8" standalone="no"?>
<svg xmlns:ffdec="https://www.free-decompiler.com/flash" xmlns:xlink="http://www.w3.org/1999/xlink" ffdec:objectType="shape" height="33.0px" width="38.0px" xmlns="http://www.w3.org/2000/svg">
  <g transform="matrix(1.0, 0.0, 0.0, 1.0, -7.0, -2.95)">
    <path d="M30.0 3.95 L31.0 3.95 31.0 4.95 33.0 4.95 33.0 5.95 34.0 5.95 34.0 6.95 35.0 6.95 35.0 7.95 37.0 7.95 37.0 8.95 39.0 8.95 39.0 9.95 40.0 9.95 40.0 8.95 41.0 8.95 41.0 7.95 43.0 7.95 43.0 8.95 44.0 8.95 44.0 9.95 45.0 9.95 45.0 10.95 44.0 10.95 44.0 11.95 43.0 11.95 43.0 12.95 38.0 12.95 38.0 11.95 36.0 11.95 36.0 10.95 33.0 10.95 33.0 9.95 32.0 9.95 32.0 8.95 26.0 8.95 26.0 9.95 24.0 9.95 24.0 10.95 22.0 10.95 22.0 11.95 21.0 11.95 21.0 12.95 19.0 12.95 19.0 13.95 18.0 13.95 18.0 14.95 17.0 14.95 17.0 16.95 18.0 16.95 18.0 19.95 17.0 19.95 17.0 20.95 16.0 20.95 16.0 23.95 17.0 23.95 17.0 28.95 18.0 28.95 18.0 30.95 19.0 30.95 19.0 32.95 20.0 32.95 20.0 33.95 21.0 33.95 21.0 34.95 20.0 34.95 20.0 35.95 19.0 35.95 19.0 34.95 16.0 34.95 16.0 33.95 13.0 33.95 13.0 32.95 10.0 32.95 10.0 31.95 8.0 31.95 8.0 30.95 7.0 30.95 7.0 29.95 8.0 29.95 8.0 28.95 9.0 28.95 9.0 25.95 8.0 25.95 8.0 23.95 9.0 23.95 9.0 18.95 10.0 18.95 10.0 15.95 11.0 15.95 11.0 14.95 12.0 14.95 12.0 12.95 13.0 12.95 13.0 10.95 14.0 10.95 14.0 8.95 13.0 8.95 13.0 7.95 14.0 7.95 14.0 6.95 17.0 6.95 17.0 5.95 18.0 5.95 18.0 4.95 20.0 4.95 20.0 3.95 23.0 3.95 23.0 2.95 30.0 2.95 30.0 3.95 27.0 3.95 27.0 4.95 29.0 4.95 29.0 5.95 31.0 5.95 31.0 6.95 29.0 6.95 29.0 5.95 27.0 5.95 27.0 4.95 26.0 4.95 26.0 3.95 23.0 3.95 23.0 4.95 20.0 4.95 20.0 5.95 19.0 5.95 19.0 6.95 17.0 6.95 17.0 7.95 14.0 7.95 14.0 8.95 16.0 8.95 16.0 9.95 15.0 9.95 15.0 10.95 14.0 10.95 14.0 12.95 13.0 12.95 13.0 14.95 12.0 14.95 12.0 15.95 11.0 15.95 11.0 16.95 14.0 16.95 14.0 15.95 16.0 15.95 16.0 14.95 17.0 14.95 17.0 13.95 18.0 13.95 18.0 12.95 19.0 12.95 19.0 11.95 21.0 11.95 21.0 10.95 22.0 10.95 22.0 9.95 24.0 9.95 24.0 8.95 26.0 8.95 26.0 7.95 31.0 7.95 31.0 6.95 33.0 6.95 33.0 5.95 31.0 5.95 31.0 4.95 30.0 4.95 30.0 3.95 M32.0 8.95 L34.0 8.95 34.0 7.95 32.0 7.95 32.0 8.95 M37.0 8.95 L36.0 8.95 36.0 10.95 38.0 10.95 38.0 11.95 43.0 11.95 43.0 10.95 44.0 10.95 44.0 9.95 43.0 9.95 43.0 8.95 41.0 8.95 41.0 9.95 40.0 9.95 40.0 10.95 39.0 10.95 39.0 9.95 37.0 9.95 37.0 8.95 M19.0 11.95 L18.0 11.95 18.0 10.95 16.0 10.95 16.0 9.95 18.0 9.95 18.0 10.95 19.0 10.95 19.0 11.95 M20.0 7.95 L21.0 7.95 21.0 8.95 20.0 8.95 20.0 7.95 19.0 7.95 19.0 6.95 20.0 6.95 20.0 7.95 M21.0 8.95 L22.0 8.95 22.0 9.95 21.0 9.95 21.0 8.95 M9.0 23.95 L9.0 25.95 12.0 25.95 12.0 26.95 16.0 26.95 16.0 23.95 15.0 23.95 15.0 19.95 14.0 19.95 14.0 18.95 13.0 18.95 13.0 17.95 11.0 17.95 11.0 18.95 10.0 18.95 10.0 23.95 9.0 23.95 M8.0 29.95 L8.0 30.95 9.0 30.95 9.0 29.95 8.0 29.95 M12.0 31.95 L12.0 30.95 10.0 30.95 10.0 31.95 12.0 31.95 M13.0 32.95 L15.0 32.95 15.0 31.95 13.0 31.95 13.0 32.95 M16.0 33.95 L18.0 33.95 18.0 32.95 16.0 32.95 16.0 33.95 M19.0 34.95 L20.0 34.95 20.0 33.95 19.0 33.95 19.0 34.95" fill="#000000" fill-rule="evenodd" stroke="none"/>
    <path d="M30.0 3.95 L30.0 4.95 31.0 4.95 31.0 5.95 29.0 5.95 29.0 4.95 27.0 4.95 27.0 3.95 30.0 3.95 M37.0 8.95 L37.0 9.95 39.0 9.95 39.0 10.95 40.0 10.95 40.0 9.95 41.0 9.95 41.0 8.95 43.0 8.95 43.0 9.95 44.0 9.95 44.0 10.95 43.0 10.95 43.0 11.95 38.0 11.95 38.0 10.95 36.0 10.95 36.0 8.95 37.0 8.95 M32.0 8.95 L32.0 7.95 34.0 7.95 34.0 8.95 32.0 8.95" fill="#ffffff" fill-rule="evenodd" stroke="none"/>
    <path d="M31.0 5.95 L33.0 5.95 33.0 6.95 31.0 6.95 31.0 7.95 26.0 7.95 26.0 8.95 24.0 8.95 24.0 9.95 22.0 9.95 22.0 8.95 21.0 8.95 21.0 7.95 20.0 7.95 20.0 6.95 19.0 6.95 19.0 5.95 20.0 5.95 20.0 4.95 23.0 4.95 23.0 3.95 26.0 3.95 26.0 4.95 27.0 4.95 27.0 5.95 29.0 5.95 29.0 6.95 31.0 6.95 31.0 5.95 M19.0 11.95 L19.0 12.95 18.0 12.95 18.0 13.95 17.0 13.95 17.0 14.95 16.0 14.95 16.0 15.95 14.0 15.95 14.0 16.95 11.0 16.95 11.0 15.95 12.0 15.95 12.0 14.95 13.0 14.95 13.0 12.95 14.0 12.95 14.0 10.95 15.0 10.95 15.0 9.95 16.0 9.95 16.0 10.95 18.0 10.95 18.0 11.95 19.0 11.95 M9.0 23.95 L10.0 23.95 10.0 18.95 11.0 18.95 11.0 17.95 13.0 17.95 13.0 18.95 14.0 18.95 14.0 19.95 15.0 19.95 15.0 23.95 16.0 23.95 16.0 26.95 12.0 26.95 12.0 25.95 9.0 25.95 9.0 23.95" fill="#777777" fill-rule="evenodd" stroke="none"/>
    <path d="M22.0 9.95 L22.0 10.95 21.0 10.95 21.0 11.95 19.0 11.95 19.0 10.95 18.0 10.95 18.0 9.95 16.0 9.95 16.0 8.95 14.0 8.95 14.0 7.95 17.0 7.95 17.0 6.95 19.0 6.95 19.0 7.95 20.0 7.95 20.0 8.95 21.0 8.95 21.0 9.95 22.0 9.95 M8.0 29.95 L9.0 29.95 9.0 30.95 8.0 30.95 8.0 29.95 M13.0 32.95 L13.0 31.95 15.0 31.95 15.0 32.95 13.0 32.95 M12.0 31.95 L10.0 31.95 10.0 30.95 12.0 30.95 12.0 31.95 M16.0 33.95 L16.0 32.95 18.0 32.95 18.0 33.95 16.0 33.95 M19.0 34.95 L19.0 33.95 20.0 33.95 20.0 34.95 19.0 34.95" fill="#d1d1d1" fill-rule="evenodd" stroke="none"/>
  </g>
</svg>
