<?xml version="1.0" encoding="UTF-8" standalone="no"?>
<svg xmlns:ffdec="https://www.free-decompiler.com/flash" xmlns:xlink="http://www.w3.org/1999/xlink" ffdec:objectType="shape" height="32.0px" width="29.0px" xmlns="http://www.w3.org/2000/svg">
  <g transform="matrix(1.0, 0.0, 0.0, 1.0, 52.0, 22.9)">
    <path d="M-50.0 1.1 L-51.0 1.1 -51.0 -0.9 -52.0 -0.9 -52.0 -13.9 -51.0 -13.9 -51.0 -14.9 -50.0 -14.9 -50.0 -16.9 -49.0 -16.9 -49.0 -17.9 -48.0 -17.9 -48.0 -18.9 -47.0 -18.9 -47.0 -19.9 -46.0 -19.9 -46.0 -20.9 -44.0 -20.9 -44.0 -21.9 -42.0 -21.9 -42.0 -22.9 -39.0 -22.9 -39.0 -20.9 -36.0 -20.9 -36.0 -19.9 -34.0 -19.9 -34.0 -18.9 -32.0 -18.9 -32.0 -17.9 -28.0 -17.9 -28.0 -18.9 -29.0 -18.9 -29.0 -19.9 -30.0 -19.9 -30.0 -20.9 -26.0 -20.9 -26.0 -19.9 -25.0 -19.9 -25.0 -18.9 -24.0 -18.9 -24.0 -16.9 -23.0 -16.9 -23.0 2.1 -24.0 2.1 -24.0 -3.9 -25.0 -3.9 -25.0 -2.9 -26.0 -2.9 -26.0 -1.9 -29.0 -1.9 -29.0 -2.9 -28.0 -2.9 -28.0 -4.9 -29.0 -4.9 -29.0 -5.9 -31.0 -5.9 -31.0 -6.9 -36.0 -6.9 -36.0 -5.9 -38.0 -5.9 -38.0 -3.9 -39.0 -3.9 -39.0 -0.9 -40.0 -0.9 -40.0 -21.9 -41.0 -21.9 -41.0 -0.9 -43.0 -0.9 -43.0 -2.9 -44.0 -2.9 -44.0 -4.9 -45.0 -4.9 -45.0 -10.9 -44.0 -10.9 -44.0 -12.9 -43.0 -12.9 -43.0 -14.9 -42.0 -14.9 -42.0 -15.9 -43.0 -15.9 -43.0 -14.9 -44.0 -14.9 -44.0 -13.9 -45.0 -13.9 -45.0 -11.9 -46.0 -11.9 -46.0 -8.9 -47.0 -8.9 -47.0 -1.9 -46.0 -1.9 -46.0 1.1 -45.0 1.1 -45.0 3.1 -44.0 3.1 -44.0 6.1 -45.0 6.1 -45.0 5.1 -46.0 5.1 -46.0 4.1 -47.0 4.1 -47.0 2.1 -48.0 2.1 -48.0 0.1 -49.0 0.1 -49.0 -2.9 -50.0 -2.9 -50.0 -8.9 -49.0 -8.9 -49.0 -11.9 -48.0 -11.9 -48.0 -13.9 -49.0 -13.9 -49.0 -11.9 -50.0 -11.9 -50.0 -8.9 -51.0 -8.9 -51.0 -1.9 -50.0 -1.9 -50.0 1.1 -49.0 1.1 -49.0 3.1 -48.0 3.1 -48.0 5.1 -47.0 5.1 -47.0 6.1 -46.0 6.1 -46.0 7.1 -45.0 7.1 -45.0 8.1 -43.0 8.1 -43.0 5.1 -42.0 5.1 -42.0 2.1 -41.0 2.1 -41.0 -0.9 -40.0 -0.9 -40.0 0.1 -39.0 0.1 -39.0 -0.9 -38.0 -0.9 -38.0 0.1 -39.0 0.1 -39.0 3.1 -40.0 3.1 -40.0 2.1 -41.0 2.1 -41.0 4.1 -32.0 4.1 -32.0 5.1 -27.0 5.1 -27.0 1.1 -28.0 1.1 -28.0 0.1 -27.0 0.1 -27.0 1.1 -26.0 1.1 -26.0 3.1 -25.0 3.1 -25.0 2.1 -24.0 2.1 -24.0 3.1 -25.0 3.1 -25.0 4.1 -26.0 4.1 -26.0 5.1 -27.0 5.1 -27.0 6.1 -32.0 6.1 -32.0 5.1 -42.0 5.1 -42.0 9.1 -45.0 9.1 -45.0 8.1 -46.0 8.1 -46.0 7.1 -47.0 7.1 -47.0 6.1 -48.0 6.1 -48.0 5.1 -49.0 5.1 -49.0 3.1 -50.0 3.1 -50.0 1.1 M-31.0 -0.9 L-31.0 0.1 -30.0 0.1 -30.0 3.1 -31.0 3.1 -31.0 0.1 -32.0 0.1 -32.0 -0.9 -31.0 -0.9 M-34.0 -0.9 L-34.0 0.1 -35.0 0.1 -35.0 1.1 -32.0 1.1 -32.0 3.1 -34.0 3.1 -34.0 2.1 -35.0 2.1 -35.0 3.1 -37.0 3.1 -37.0 2.1 -36.0 2.1 -36.0 1.1 -37.0 1.1 -37.0 0.1 -36.0 0.1 -36.0 -0.9 -34.0 -0.9" fill="#000000" fill-rule="evenodd" stroke="none"/>
    <path d="M-50.0 1.1 L-50.0 -1.9 -51.0 -1.9 -51.0 -8.9 -50.0 -8.9 -50.0 -11.9 -49.0 -11.9 -49.0 -13.9 -48.0 -13.9 -48.0 -11.9 -49.0 -11.9 -49.0 -8.9 -50.0 -8.9 -50.0 -2.9 -49.0 -2.9 -49.0 0.1 -48.0 0.1 -48.0 2.1 -47.0 2.1 -47.0 4.1 -46.0 4.1 -46.0 5.1 -45.0 5.1 -45.0 6.1 -44.0 6.1 -44.0 3.1 -45.0 3.1 -45.0 1.1 -46.0 1.1 -46.0 -1.9 -47.0 -1.9 -47.0 -8.9 -46.0 -8.9 -46.0 -11.9 -45.0 -11.9 -45.0 -13.9 -44.0 -13.9 -44.0 -14.9 -43.0 -14.9 -43.0 -15.9 -42.0 -15.9 -42.0 -14.9 -43.0 -14.9 -43.0 -12.9 -44.0 -12.9 -44.0 -10.9 -45.0 -10.9 -45.0 -4.9 -44.0 -4.9 -44.0 -2.9 -43.0 -2.9 -43.0 -0.9 -41.0 -0.9 -41.0 -21.9 -40.0 -21.9 -40.0 -0.9 -39.0 -0.9 -39.0 -3.9 -38.0 -3.9 -38.0 -5.9 -36.0 -5.9 -36.0 -6.9 -31.0 -6.9 -31.0 -5.9 -29.0 -5.9 -29.0 -4.9 -28.0 -4.9 -28.0 -2.9 -29.0 -2.9 -29.0 -1.9 -26.0 -1.9 -26.0 -2.9 -25.0 -2.9 -25.0 -3.9 -24.0 -3.9 -24.0 2.1 -25.0 2.1 -25.0 3.1 -26.0 3.1 -26.0 1.1 -27.0 1.1 -27.0 0.1 -28.0 0.1 -28.0 1.1 -27.0 1.1 -27.0 5.1 -32.0 5.1 -32.0 4.1 -41.0 4.1 -41.0 2.1 -40.0 2.1 -40.0 3.1 -39.0 3.1 -39.0 0.1 -38.0 0.1 -38.0 -0.9 -39.0 -0.9 -39.0 0.1 -40.0 0.1 -40.0 -0.9 -41.0 -0.9 -41.0 2.1 -42.0 2.1 -42.0 5.1 -43.0 5.1 -43.0 8.1 -45.0 8.1 -45.0 7.1 -46.0 7.1 -46.0 6.1 -47.0 6.1 -47.0 5.1 -48.0 5.1 -48.0 3.1 -49.0 3.1 -49.0 1.1 -50.0 1.1 M-34.0 -0.9 L-36.0 -0.9 -36.0 0.1 -37.0 0.1 -37.0 1.1 -36.0 1.1 -36.0 2.1 -37.0 2.1 -37.0 3.1 -35.0 3.1 -35.0 2.1 -34.0 2.1 -34.0 3.1 -32.0 3.1 -32.0 1.1 -35.0 1.1 -35.0 0.1 -34.0 0.1 -34.0 -0.9 M-31.0 -0.9 L-32.0 -0.9 -32.0 0.1 -31.0 0.1 -31.0 3.1 -30.0 3.1 -30.0 0.1 -31.0 0.1 -31.0 -0.9" fill="#ffffff" fill-rule="evenodd" stroke="none"/>
  </g>
</svg>
