<?xml version="1.0" encoding="UTF-8" standalone="no"?>
<svg xmlns:ffdec="https://www.free-decompiler.com/flash" xmlns:xlink="http://www.w3.org/1999/xlink" ffdec:objectType="shape" height="26.0px" width="43.0px" xmlns="http://www.w3.org/2000/svg">
  <g transform="matrix(1.0, 0.0, 0.0, 1.0, -2.0, 0.05)">
    <path d="M36.0 8.95 L36.0 9.95 35.0 9.95 35.0 8.95 36.0 8.95 M35.0 13.95 L35.0 12.95 37.0 12.95 37.0 14.95 38.0 14.95 38.0 15.95 36.0 15.95 36.0 13.95 35.0 13.95 M37.0 17.95 L39.0 17.95 39.0 20.95 40.0 20.95 40.0 21.95 41.0 21.95 41.0 22.95 42.0 22.95 42.0 23.95 44.0 23.95 44.0 24.95 41.0 24.95 41.0 23.95 38.0 23.95 38.0 24.95 37.0 24.95 37.0 22.95 38.0 22.95 38.0 19.95 37.0 19.95 37.0 17.95 M35.0 8.95 L34.0 8.95 34.0 7.95 35.0 7.95 35.0 8.95" fill="#ffffff" fill-rule="evenodd" stroke="none"/>
    <path d="M36.0 8.95 L37.0 8.95 37.0 11.95 38.0 11.95 38.0 14.95 37.0 14.95 37.0 12.95 35.0 12.95 35.0 13.95 34.0 13.95 34.0 11.95 36.0 11.95 36.0 10.95 35.0 10.95 35.0 9.95 36.0 9.95 36.0 8.95 35.0 8.95 35.0 9.95 34.0 9.95 34.0 8.95 33.0 8.95 33.0 6.95 32.0 6.95 32.0 5.95 30.0 5.95 30.0 4.95 28.0 4.95 28.0 3.95 27.0 3.95 27.0 2.95 26.0 2.95 26.0 1.95 25.0 1.95 25.0 4.95 26.0 4.95 26.0 8.95 30.0 8.95 30.0 9.95 33.0 9.95 33.0 10.95 34.0 10.95 34.0 11.95 33.0 11.95 33.0 10.95 29.0 10.95 29.0 9.95 22.0 9.95 22.0 13.95 21.0 13.95 21.0 16.95 20.0 16.95 20.0 17.95 19.0 17.95 19.0 18.95 16.0 18.95 16.0 17.95 14.0 17.95 14.0 16.95 13.0 16.95 13.0 15.95 12.0 15.95 12.0 14.95 11.0 14.95 11.0 13.95 10.0 13.95 10.0 12.95 9.0 12.95 9.0 11.95 8.0 11.95 8.0 10.95 7.0 10.95 7.0 9.95 6.0 9.95 6.0 6.95 5.0 6.95 5.0 4.95 4.0 4.95 4.0 2.95 3.0 2.95 3.0 1.95 2.0 1.95 2.0 0.95 3.0 0.95 3.0 -0.05 4.0 -0.05 4.0 0.95 7.0 0.95 7.0 1.95 10.0 1.95 10.0 2.95 13.0 2.95 13.0 3.95 15.0 3.95 15.0 4.95 16.0 4.95 16.0 5.95 17.0 5.95 17.0 4.95 18.0 4.95 18.0 1.95 22.0 1.95 22.0 2.95 24.0 2.95 24.0 1.95 25.0 1.95 25.0 0.95 26.0 0.95 26.0 1.95 28.0 1.95 28.0 2.95 29.0 2.95 29.0 3.95 30.0 3.95 30.0 4.95 32.0 4.95 32.0 5.95 34.0 5.95 34.0 6.95 35.0 6.95 35.0 7.95 36.0 7.95 36.0 8.95 M38.0 14.95 L39.0 14.95 39.0 15.95 40.0 15.95 40.0 20.95 41.0 20.95 41.0 21.95 42.0 21.95 42.0 22.95 44.0 22.95 44.0 23.95 45.0 23.95 45.0 25.95 41.0 25.95 41.0 24.95 38.0 24.95 38.0 25.95 36.0 25.95 36.0 22.95 37.0 22.95 37.0 19.95 36.0 19.95 36.0 16.95 35.0 16.95 35.0 13.95 36.0 13.95 36.0 15.95 38.0 15.95 38.0 14.95 M37.0 17.95 L37.0 19.95 38.0 19.95 38.0 22.95 37.0 22.95 37.0 24.95 38.0 24.95 38.0 23.95 41.0 23.95 41.0 24.95 44.0 24.95 44.0 23.95 42.0 23.95 42.0 22.95 41.0 22.95 41.0 21.95 40.0 21.95 40.0 20.95 39.0 20.95 39.0 17.95 37.0 17.95 M15.0 4.95 L14.0 4.95 14.0 5.95 15.0 5.95 15.0 4.95 M15.0 5.95 L15.0 6.95 14.0 6.95 14.0 8.95 15.0 8.95 15.0 10.95 16.0 10.95 16.0 5.95 15.0 5.95 M18.0 4.95 L18.0 5.95 17.0 5.95 17.0 13.95 18.0 13.95 18.0 15.95 19.0 15.95 19.0 16.95 20.0 16.95 20.0 11.95 21.0 11.95 21.0 7.95 20.0 7.95 20.0 6.95 19.0 6.95 19.0 4.95 18.0 4.95 M20.0 6.95 L21.0 6.95 21.0 7.95 22.0 7.95 22.0 8.95 25.0 8.95 25.0 4.95 24.0 4.95 24.0 3.95 21.0 3.95 21.0 2.95 19.0 2.95 19.0 4.95 20.0 4.95 20.0 6.95 M15.0 12.95 L15.0 10.95 14.0 10.95 14.0 9.95 11.0 9.95 11.0 8.95 7.0 8.95 7.0 9.95 9.0 9.95 9.0 11.95 10.0 11.95 10.0 12.95 11.0 12.95 11.0 13.95 12.0 13.95 12.0 14.95 13.0 14.95 13.0 15.95 14.0 15.95 14.0 16.95 15.0 16.95 15.0 15.95 16.0 15.95 16.0 12.95 15.0 12.95 M35.0 8.95 L35.0 7.95 34.0 7.95 34.0 8.95 35.0 8.95 M7.0 1.95 L5.0 1.95 5.0 2.95 7.0 2.95 7.0 1.95 M8.0 3.95 L10.0 3.95 10.0 2.95 8.0 2.95 8.0 3.95 M11.0 4.95 L13.0 4.95 13.0 3.95 11.0 3.95 11.0 4.95 M4.0 0.95 L3.0 0.95 3.0 1.95 4.0 1.95 4.0 0.95" fill="#000000" fill-rule="evenodd" stroke="none"/>
    <path d="M35.0 9.95 L35.0 10.95 36.0 10.95 36.0 11.95 34.0 11.95 34.0 10.95 33.0 10.95 33.0 9.95 30.0 9.95 30.0 8.95 26.0 8.95 26.0 4.95 25.0 4.95 25.0 1.95 26.0 1.95 26.0 2.95 27.0 2.95 27.0 3.95 28.0 3.95 28.0 4.95 30.0 4.95 30.0 5.95 32.0 5.95 32.0 6.95 33.0 6.95 33.0 8.95 34.0 8.95 34.0 9.95 35.0 9.95 M18.0 4.95 L19.0 4.95 19.0 6.95 20.0 6.95 20.0 7.95 21.0 7.95 21.0 11.95 20.0 11.95 20.0 16.95 19.0 16.95 19.0 15.95 18.0 15.95 18.0 13.95 17.0 13.95 17.0 5.95 18.0 5.95 18.0 4.95 M15.0 12.95 L16.0 12.95 16.0 15.95 15.0 15.95 15.0 16.95 14.0 16.95 14.0 15.95 13.0 15.95 13.0 14.95 12.0 14.95 12.0 13.95 11.0 13.95 11.0 12.95 10.0 12.95 10.0 11.95 9.0 11.95 9.0 9.95 7.0 9.95 7.0 8.95 11.0 8.95 11.0 9.95 14.0 9.95 14.0 10.95 15.0 10.95 15.0 12.95" fill="#777777" fill-rule="evenodd" stroke="none"/>
    <path d="M15.0 4.95 L15.0 5.95 14.0 5.95 14.0 4.95 15.0 4.95 M20.0 6.95 L20.0 4.95 19.0 4.95 19.0 2.95 21.0 2.95 21.0 3.95 24.0 3.95 24.0 4.95 25.0 4.95 25.0 8.95 22.0 8.95 22.0 7.95 21.0 7.95 21.0 6.95 20.0 6.95 M11.0 4.95 L11.0 3.95 13.0 3.95 13.0 4.95 11.0 4.95 M8.0 3.95 L8.0 2.95 10.0 2.95 10.0 3.95 8.0 3.95 M7.0 1.95 L7.0 2.95 5.0 2.95 5.0 1.95 7.0 1.95 M4.0 0.95 L4.0 1.95 3.0 1.95 3.0 0.95 4.0 0.95" fill="#d1d1d1" fill-rule="evenodd" stroke="none"/>
  </g>
</svg>
