<?xml version="1.0" encoding="UTF-8" standalone="no"?>
<svg xmlns:ffdec="https://www.free-decompiler.com/flash" xmlns:xlink="http://www.w3.org/1999/xlink" ffdec:objectType="shape" height="29.0px" width="32.0px" xmlns="http://www.w3.org/2000/svg">
  <g transform="matrix(1.0, 0.0, 0.0, 1.0, 19.0, -1.05)">
    <path d="M6.0 2.05 L6.0 3.05 7.0 3.05 7.0 4.05 5.0 4.05 5.0 5.05 4.0 5.05 4.0 6.05 5.0 6.05 5.0 5.05 9.0 5.05 9.0 10.05 8.0 10.05 8.0 19.05 6.0 19.05 6.0 18.05 7.0 18.05 7.0 17.05 4.0 17.05 4.0 16.05 3.0 16.05 3.0 17.05 0.0 17.05 0.0 16.05 -2.0 16.05 -2.0 14.05 -3.0 14.05 -3.0 9.05 -2.0 9.05 -2.0 7.05 -1.0 7.05 -1.0 6.05 1.0 6.05 1.0 7.05 2.0 7.05 2.0 4.05 1.0 4.05 1.0 3.05 0.0 3.05 0.0 2.05 6.0 2.05 M3.0 17.05 L4.0 17.05 4.0 18.05 3.0 18.05 3.0 17.05 M4.0 12.05 L3.0 12.05 3.0 14.05 4.0 14.05 4.0 15.05 5.0 15.05 5.0 14.05 6.0 14.05 6.0 15.05 7.0 15.05 7.0 13.05 6.0 13.05 6.0 12.05 7.0 12.05 7.0 10.05 5.0 10.05 5.0 13.05 4.0 13.05 4.0 12.05 M4.0 9.05 L3.0 9.05 3.0 10.05 4.0 10.05 4.0 9.05 7.0 9.05 7.0 8.05 4.0 8.05 4.0 9.05 M5.0 28.05 L2.0 28.05 2.0 29.05 -5.0 29.05 -5.0 28.05 -8.0 28.05 -8.0 27.05 -10.0 27.05 -10.0 26.05 -8.0 26.05 -8.0 27.05 -5.0 27.05 -5.0 28.05 1.0 28.05 1.0 27.05 4.0 27.05 4.0 26.05 6.0 26.05 6.0 25.05 8.0 25.05 8.0 24.05 9.0 24.05 9.0 23.05 10.0 23.05 10.0 22.05 7.0 22.05 7.0 23.05 5.0 23.05 5.0 24.05 2.0 24.05 2.0 25.05 -5.0 25.05 -5.0 24.05 -8.0 24.05 -8.0 23.05 -10.0 23.05 -10.0 22.05 -11.0 22.05 -11.0 21.05 -12.0 21.05 -12.0 20.05 -11.0 20.05 -11.0 21.05 -9.0 21.05 -9.0 22.05 -7.0 22.05 -7.0 23.05 -1.0 23.05 -1.0 22.05 1.0 22.05 1.0 21.05 3.0 21.05 3.0 19.05 -18.0 19.05 -18.0 18.05 3.0 18.05 3.0 19.05 6.0 19.05 6.0 20.05 9.0 20.05 9.0 21.05 12.0 21.05 12.0 23.05 11.0 23.05 11.0 24.05 10.0 24.05 10.0 25.05 9.0 25.05 9.0 26.05 7.0 26.05 7.0 27.05 5.0 27.05 5.0 28.05" fill="#ffffff" fill-rule="evenodd" stroke="none"/>
    <path d="M6.0 2.05 L7.0 2.05 7.0 3.05 6.0 3.05 6.0 2.05 0.0 2.05 0.0 3.05 1.0 3.05 1.0 4.05 2.0 4.05 2.0 7.05 1.0 7.05 1.0 6.05 -1.0 6.05 -1.0 7.05 -2.0 7.05 -2.0 9.05 -3.0 9.05 -3.0 14.05 -2.0 14.05 -2.0 16.05 0.0 16.05 0.0 17.05 3.0 17.05 3.0 16.05 4.0 16.05 4.0 17.05 7.0 17.05 7.0 18.05 6.0 18.05 6.0 19.05 8.0 19.05 8.0 10.05 9.0 10.05 9.0 5.05 5.0 5.05 5.0 6.05 4.0 6.05 4.0 5.05 5.0 5.05 5.0 4.05 7.0 4.05 7.0 3.05 8.0 3.05 8.0 4.05 9.0 4.05 9.0 5.05 10.0 5.05 10.0 10.05 9.0 10.05 9.0 20.05 13.0 20.05 13.0 23.05 12.0 23.05 12.0 24.05 11.0 24.05 11.0 25.05 10.0 25.05 10.0 26.05 9.0 26.05 9.0 27.05 7.0 27.05 7.0 28.05 5.0 28.05 5.0 29.05 3.0 29.05 3.0 30.05 -10.0 30.05 -10.0 29.05 -11.0 29.05 -11.0 28.05 -13.0 28.05 -13.0 27.05 -14.0 27.05 -14.0 26.05 -15.0 26.05 -15.0 25.05 -16.0 25.05 -16.0 24.05 -17.0 24.05 -17.0 22.05 -18.0 22.05 -18.0 20.05 -19.0 20.05 -19.0 17.05 -17.0 17.05 -17.0 14.05 -16.0 14.05 -16.0 12.05 -15.0 12.05 -15.0 10.05 -14.0 10.05 -14.0 6.05 -15.0 6.05 -15.0 7.05 -16.0 7.05 -16.0 8.05 -17.0 8.05 -17.0 4.05 -16.0 4.05 -16.0 3.05 -15.0 3.05 -15.0 2.05 -13.0 2.05 -13.0 1.05 6.0 1.05 6.0 2.05 M4.0 9.05 L4.0 8.05 7.0 8.05 7.0 9.05 4.0 9.05 4.0 10.05 3.0 10.05 3.0 9.05 4.0 9.05 M4.0 12.05 L4.0 13.05 5.0 13.05 5.0 10.05 7.0 10.05 7.0 12.05 6.0 12.05 6.0 13.05 7.0 13.05 7.0 15.05 6.0 15.05 6.0 14.05 5.0 14.05 5.0 15.05 4.0 15.05 4.0 14.05 3.0 14.05 3.0 12.05 4.0 12.05 M3.0 17.05 L3.0 18.05 4.0 18.05 4.0 17.05 3.0 17.05 M5.0 28.05 L5.0 27.05 7.0 27.05 7.0 26.05 9.0 26.05 9.0 25.05 10.0 25.05 10.0 24.05 11.0 24.05 11.0 23.05 12.0 23.05 12.0 21.05 9.0 21.05 9.0 20.05 6.0 20.05 6.0 19.05 3.0 19.05 3.0 18.05 -18.0 18.05 -18.0 19.05 3.0 19.05 3.0 21.05 1.0 21.05 1.0 22.05 -1.0 22.05 -1.0 23.05 -7.0 23.05 -7.0 22.05 -9.0 22.05 -9.0 21.05 -11.0 21.05 -11.0 20.05 -12.0 20.05 -12.0 21.05 -11.0 21.05 -11.0 22.05 -10.0 22.05 -10.0 23.05 -8.0 23.05 -8.0 24.05 -5.0 24.05 -5.0 25.05 2.0 25.05 2.0 24.05 5.0 24.05 5.0 23.05 7.0 23.05 7.0 22.05 10.0 22.05 10.0 23.05 9.0 23.05 9.0 24.05 8.0 24.05 8.0 25.05 6.0 25.05 6.0 26.05 4.0 26.05 4.0 27.05 1.0 27.05 1.0 28.05 -5.0 28.05 -5.0 27.05 -8.0 27.05 -8.0 26.05 -10.0 26.05 -10.0 27.05 -8.0 27.05 -8.0 28.05 -5.0 28.05 -5.0 29.05 2.0 29.05 2.0 28.05 5.0 28.05" fill="#000000" fill-rule="evenodd" stroke="none"/>
  </g>
</svg>
