<?xml version="1.0" encoding="UTF-8" standalone="no"?>
<svg xmlns:ffdec="https://www.free-decompiler.com/flash" xmlns:xlink="http://www.w3.org/1999/xlink" ffdec:objectType="shape" height="48.0px" width="19.0px" xmlns="http://www.w3.org/2000/svg">
  <g transform="matrix(1.0, 0.0, 0.0, 1.0, -12.0, 14.05)">
    <path d="M30.0 -14.05 L30.0 -13.05 31.0 -13.05 31.0 -12.05 30.0 -12.05 30.0 -9.05 29.0 -9.05 29.0 -6.05 28.0 -6.05 28.0 -3.05 27.0 -3.05 27.0 -1.05 26.0 -1.05 26.0 -0.05 25.0 -0.05 25.0 0.95 26.0 0.95 26.0 1.95 29.0 1.95 29.0 6.95 28.0 6.95 28.0 9.95 29.0 9.95 29.0 10.95 28.0 10.95 28.0 11.95 26.0 11.95 26.0 12.95 25.0 12.95 25.0 13.95 24.0 13.95 24.0 14.95 23.0 14.95 23.0 16.95 22.0 16.95 22.0 17.95 21.0 17.95 21.0 29.95 23.0 29.95 23.0 30.95 25.0 30.95 25.0 31.95 26.0 31.95 26.0 33.95 18.0 33.95 18.0 21.95 17.0 21.95 17.0 19.95 16.0 19.95 16.0 14.95 17.0 14.95 17.0 12.95 18.0 12.95 18.0 10.95 19.0 10.95 19.0 8.95 20.0 8.95 20.0 6.95 21.0 6.95 21.0 5.95 17.0 5.95 17.0 4.95 14.0 4.95 14.0 3.95 13.0 3.95 13.0 2.95 12.0 2.95 12.0 -0.05 13.0 -0.05 13.0 -2.05 14.0 -2.05 14.0 -3.05 15.0 -3.05 15.0 -4.05 16.0 -4.05 16.0 -5.05 17.0 -5.05 17.0 -6.05 18.0 -6.05 18.0 -7.05 19.0 -7.05 19.0 -8.05 20.0 -8.05 20.0 -9.05 21.0 -9.05 21.0 -10.05 24.0 -10.05 24.0 -11.05 26.0 -11.05 26.0 -12.05 28.0 -12.05 28.0 -13.05 29.0 -13.05 29.0 -14.05 30.0 -14.05 M28.0 -6.05 L28.0 -8.05 27.0 -8.05 27.0 -6.05 28.0 -6.05 M29.0 -9.05 L29.0 -11.05 28.0 -11.05 28.0 -9.05 29.0 -9.05 M30.0 -13.05 L29.0 -13.05 29.0 -12.05 30.0 -12.05 30.0 -13.05 M20.0 -1.05 L20.0 -2.05 21.0 -2.05 21.0 -5.05 22.0 -5.05 22.0 -9.05 21.0 -9.05 21.0 -7.05 19.0 -7.05 19.0 -6.05 18.0 -6.05 18.0 -5.05 17.0 -5.05 17.0 -4.05 16.0 -4.05 16.0 -3.05 15.0 -3.05 15.0 -2.05 14.0 -2.05 14.0 -1.05 15.0 -1.05 15.0 -0.05 18.0 -0.05 18.0 -1.05 20.0 -1.05 20.0 -0.05 25.0 -0.05 25.0 -1.05 24.0 -1.05 24.0 -2.05 22.0 -2.05 22.0 -1.05 20.0 -1.05 M25.0 -1.05 L26.0 -1.05 26.0 -2.05 25.0 -2.05 25.0 -1.05 M14.0 3.95 L19.0 3.95 19.0 4.95 23.0 4.95 23.0 3.95 24.0 3.95 24.0 2.95 26.0 2.95 26.0 1.95 25.0 1.95 25.0 0.95 17.0 0.95 17.0 1.95 15.0 1.95 15.0 2.95 14.0 2.95 14.0 3.95 M27.0 -3.05 L27.0 -5.05 26.0 -5.05 26.0 -3.05 27.0 -3.05 M26.0 8.95 L27.0 8.95 27.0 6.95 28.0 6.95 28.0 2.95 26.0 2.95 26.0 3.95 24.0 3.95 24.0 4.95 23.0 4.95 23.0 5.95 22.0 5.95 22.0 6.95 24.0 6.95 24.0 7.95 21.0 7.95 21.0 8.95 20.0 8.95 20.0 10.95 19.0 10.95 19.0 12.95 18.0 12.95 18.0 14.95 17.0 14.95 17.0 16.95 18.0 16.95 18.0 17.95 17.0 17.95 17.0 19.95 18.0 19.95 18.0 21.95 19.0 21.95 19.0 20.95 20.0 20.95 20.0 17.95 21.0 17.95 21.0 15.95 22.0 15.95 22.0 14.95 23.0 14.95 23.0 13.95 24.0 13.95 24.0 12.95 25.0 12.95 25.0 11.95 26.0 11.95 26.0 10.95 27.0 10.95 27.0 9.95 26.0 9.95 26.0 8.95 24.0 8.95 24.0 7.95 26.0 7.95 26.0 8.95 M19.0 21.95 L19.0 23.95 20.0 23.95 20.0 21.95 19.0 21.95 M18.0 19.95 L18.0 17.95 19.0 17.95 19.0 19.95 18.0 19.95 M19.0 26.95 L19.0 32.95 25.0 32.95 25.0 31.95 22.0 31.95 22.0 30.95 20.0 30.95 20.0 26.95 19.0 26.95" fill="#000000" fill-rule="evenodd" stroke="none"/>
    <path d="M30.0 -13.05 L30.0 -12.05 29.0 -12.05 29.0 -13.05 30.0 -13.05 M29.0 -9.05 L28.0 -9.05 28.0 -11.05 29.0 -11.05 29.0 -9.05 M28.0 -6.05 L27.0 -6.05 27.0 -8.05 28.0 -8.05 28.0 -6.05 M25.0 -1.05 L25.0 -2.05 26.0 -2.05 26.0 -1.05 25.0 -1.05 M27.0 -3.05 L26.0 -3.05 26.0 -5.05 27.0 -5.05 27.0 -3.05 M24.0 3.95 L26.0 3.95 26.0 2.95 28.0 2.95 28.0 6.95 27.0 6.95 27.0 8.95 26.0 8.95 26.0 7.95 24.0 7.95 24.0 6.95 22.0 6.95 22.0 5.95 23.0 5.95 23.0 4.95 24.0 4.95 24.0 3.95" fill="#d1d1d1" fill-rule="evenodd" stroke="none"/>
    <path d="M21.0 -9.05 L22.0 -9.05 22.0 -5.05 21.0 -5.05 21.0 -2.05 20.0 -2.05 20.0 -1.05 18.0 -1.05 18.0 -0.05 15.0 -0.05 15.0 -1.05 14.0 -1.05 14.0 -2.05 15.0 -2.05 15.0 -3.05 16.0 -3.05 16.0 -4.05 17.0 -4.05 17.0 -5.05 18.0 -5.05 18.0 -6.05 19.0 -6.05 19.0 -7.05 21.0 -7.05 21.0 -9.05 M14.0 3.95 L14.0 2.95 15.0 2.95 15.0 1.95 17.0 1.95 17.0 0.95 25.0 0.95 25.0 1.95 26.0 1.95 26.0 2.95 24.0 2.95 24.0 3.95 23.0 3.95 23.0 4.95 19.0 4.95 19.0 3.95 14.0 3.95 M26.0 8.95 L26.0 9.95 27.0 9.95 27.0 10.95 26.0 10.95 26.0 11.95 25.0 11.95 25.0 12.95 24.0 12.95 24.0 13.95 23.0 13.95 23.0 14.95 22.0 14.95 22.0 15.95 21.0 15.95 21.0 17.95 20.0 17.95 20.0 20.95 19.0 20.95 19.0 21.95 18.0 21.95 18.0 19.95 19.0 19.95 19.0 17.95 18.0 17.95 18.0 16.95 17.0 16.95 17.0 14.95 18.0 14.95 18.0 12.95 19.0 12.95 19.0 10.95 20.0 10.95 20.0 8.95 21.0 8.95 21.0 7.95 24.0 7.95 24.0 8.95 26.0 8.95" fill="#777777" fill-rule="evenodd" stroke="none"/>
    <path d="M19.0 21.95 L20.0 21.95 20.0 23.95 19.0 23.95 19.0 21.95 M18.0 19.95 L17.0 19.95 17.0 17.95 18.0 17.95 18.0 19.95 M19.0 26.95 L20.0 26.95 20.0 30.95 22.0 30.95 22.0 31.95 25.0 31.95 25.0 32.95 19.0 32.95 19.0 26.95" fill="#ffffff" fill-rule="evenodd" stroke="none"/>
  </g>
</svg>
