<?xml version="1.0" encoding="UTF-8" standalone="no"?>
<svg xmlns:ffdec="https://www.free-decompiler.com/flash" xmlns:xlink="http://www.w3.org/1999/xlink" ffdec:objectType="shape" height="32.0px" width="29.0px" xmlns="http://www.w3.org/2000/svg">
  <g transform="matrix(1.0, 0.0, 0.0, 1.0, -4.9, 19.9)">
    <path d="M13.9 -15.9 L8.9 -15.9 8.9 -11.9 9.9 -11.9 9.9 -10.9 8.9 -10.9 8.9 -11.9 7.9 -11.9 7.9 -13.9 6.9 -13.9 6.9 -12.9 5.9 -12.9 5.9 -6.9 6.9 -6.9 6.9 -7.9 7.9 -7.9 7.9 -8.9 10.9 -8.9 10.9 -7.9 9.9 -7.9 9.9 -5.9 10.9 -5.9 10.9 -4.9 12.9 -4.9 12.9 -3.9 17.9 -3.9 17.9 -4.9 19.9 -4.9 19.9 -6.9 20.9 -6.9 20.9 -9.9 19.9 -9.9 19.9 -10.9 20.9 -10.9 20.9 -13.9 21.9 -13.9 21.9 -12.9 22.9 -12.9 22.9 -14.9 13.9 -14.9 13.9 -15.9 23.9 -15.9 23.9 -12.9 22.9 -12.9 22.9 -9.9 21.9 -9.9 21.9 -10.9 20.9 -10.9 20.9 -9.9 21.9 -9.9 21.9 11.1 22.9 11.1 22.9 -9.9 24.9 -9.9 24.9 -7.9 25.9 -7.9 25.9 -5.9 26.9 -5.9 26.9 0.1 25.9 0.1 25.9 2.1 24.9 2.1 24.9 4.1 23.9 4.1 23.9 5.1 24.9 5.1 24.9 4.1 25.9 4.1 25.9 3.1 26.9 3.1 26.9 1.1 27.9 1.1 27.9 -1.9 28.9 -1.9 28.9 -8.9 27.9 -8.9 27.9 -11.9 26.9 -11.9 26.9 -13.9 25.9 -13.9 25.9 -16.9 26.9 -16.9 26.9 -15.9 27.9 -15.9 27.9 -14.9 28.9 -14.9 28.9 -12.9 29.9 -12.9 29.9 -10.9 30.9 -10.9 30.9 -7.9 31.9 -7.9 31.9 -1.9 30.9 -1.9 30.9 1.1 29.9 1.1 29.9 3.1 30.9 3.1 30.9 1.1 31.9 1.1 31.9 -1.9 32.9 -1.9 32.9 -8.9 31.9 -8.9 31.9 -11.9 32.9 -11.9 32.9 -9.9 33.9 -9.9 33.9 3.1 32.9 3.1 32.9 4.1 31.9 4.1 31.9 6.1 30.9 6.1 30.9 7.1 29.9 7.1 29.9 8.1 28.9 8.1 28.9 9.1 27.9 9.1 27.9 10.1 25.9 10.1 25.9 11.1 23.9 11.1 23.9 12.1 20.9 12.1 20.9 10.1 17.9 10.1 17.9 9.1 15.9 9.1 15.9 8.1 13.9 8.1 13.9 7.1 9.9 7.1 9.9 8.1 10.9 8.1 10.9 9.1 11.9 9.1 11.9 10.1 7.9 10.1 7.9 9.1 6.9 9.1 6.9 8.1 5.9 8.1 5.9 6.1 4.9 6.1 4.9 -12.9 5.9 -12.9 5.9 -13.9 6.9 -13.9 6.9 -14.9 7.9 -14.9 7.9 -15.9 8.9 -15.9 8.9 -16.9 13.9 -16.9 13.9 -15.9 M11.9 -13.9 L12.9 -13.9 12.9 -10.9 11.9 -10.9 11.9 -13.9 M16.9 -13.9 L18.9 -13.9 18.9 -12.9 17.9 -12.9 17.9 -11.9 18.9 -11.9 18.9 -10.9 17.9 -10.9 17.9 -9.9 15.9 -9.9 15.9 -10.9 16.9 -10.9 16.9 -11.9 13.9 -11.9 13.9 -13.9 15.9 -13.9 15.9 -12.9 16.9 -12.9 16.9 -13.9 M12.9 -10.9 L13.9 -10.9 13.9 -9.9 12.9 -9.9 12.9 -10.9 M23.9 -15.9 L23.9 -19.9 26.9 -19.9 26.9 -18.9 27.9 -18.9 27.9 -17.9 28.9 -17.9 28.9 -16.9 29.9 -16.9 29.9 -15.9 30.9 -15.9 30.9 -13.9 31.9 -13.9 31.9 -11.9 30.9 -11.9 30.9 -13.9 29.9 -13.9 29.9 -15.9 28.9 -15.9 28.9 -16.9 27.9 -16.9 27.9 -17.9 26.9 -17.9 26.9 -18.9 24.9 -18.9 24.9 -15.9 23.9 -15.9" fill="#000000" fill-rule="evenodd" stroke="none"/>
    <path d="M13.9 -15.9 L13.9 -14.9 22.9 -14.9 22.9 -12.9 21.9 -12.9 21.9 -13.9 20.9 -13.9 20.9 -10.9 19.9 -10.9 19.9 -9.9 20.9 -9.9 20.9 -6.9 19.9 -6.9 19.9 -4.9 17.9 -4.9 17.9 -3.9 12.9 -3.9 12.9 -4.9 10.9 -4.9 10.9 -5.9 9.9 -5.9 9.9 -7.9 10.9 -7.9 10.9 -8.9 7.9 -8.9 7.9 -7.9 6.9 -7.9 6.9 -6.9 5.9 -6.9 5.9 -12.9 6.9 -12.9 6.9 -13.9 7.9 -13.9 7.9 -11.9 8.9 -11.9 8.9 -10.9 9.9 -10.9 9.9 -11.9 8.9 -11.9 8.9 -15.9 13.9 -15.9 M31.9 -11.9 L31.9 -8.9 32.9 -8.9 32.9 -1.9 31.9 -1.9 31.9 1.1 30.9 1.1 30.9 3.1 29.9 3.1 29.9 1.1 30.9 1.1 30.9 -1.9 31.9 -1.9 31.9 -7.9 30.9 -7.9 30.9 -10.9 29.9 -10.9 29.9 -12.9 28.9 -12.9 28.9 -14.9 27.9 -14.9 27.9 -15.9 26.9 -15.9 26.9 -16.9 25.9 -16.9 25.9 -13.9 26.9 -13.9 26.9 -11.9 27.9 -11.9 27.9 -8.9 28.9 -8.9 28.9 -1.9 27.9 -1.9 27.9 1.1 26.9 1.1 26.9 3.1 25.9 3.1 25.9 4.1 24.9 4.1 24.9 5.1 23.9 5.1 23.9 4.1 24.9 4.1 24.9 2.1 25.9 2.1 25.9 0.1 26.9 0.1 26.9 -5.9 25.9 -5.9 25.9 -7.9 24.9 -7.9 24.9 -9.9 22.9 -9.9 22.9 11.1 21.9 11.1 21.9 -9.9 20.9 -9.9 20.9 -10.9 21.9 -10.9 21.9 -9.9 22.9 -9.9 22.9 -12.9 23.9 -12.9 23.9 -15.9 24.9 -15.9 24.9 -18.9 26.9 -18.9 26.9 -17.9 27.9 -17.9 27.9 -16.9 28.9 -16.9 28.9 -15.9 29.9 -15.9 29.9 -13.9 30.9 -13.9 30.9 -11.9 31.9 -11.9 M11.9 -13.9 L11.9 -10.9 12.9 -10.9 12.9 -13.9 11.9 -13.9 M16.9 -13.9 L16.9 -12.9 15.9 -12.9 15.9 -13.9 13.9 -13.9 13.9 -11.9 16.9 -11.9 16.9 -10.9 15.9 -10.9 15.9 -9.9 17.9 -9.9 17.9 -10.9 18.9 -10.9 18.9 -11.9 17.9 -11.9 17.9 -12.9 18.9 -12.9 18.9 -13.9 16.9 -13.9 M12.9 -10.9 L12.9 -9.9 13.9 -9.9 13.9 -10.9 12.9 -10.9" fill="#ffffff" fill-rule="evenodd" stroke="none"/>
  </g>
</svg>
