<?xml version="1.0" encoding="UTF-8" standalone="no"?>
<svg xmlns:ffdec="https://www.free-decompiler.com/flash" xmlns:xlink="http://www.w3.org/1999/xlink" ffdec:objectType="shape" height="34.0px" width="43.0px" xmlns="http://www.w3.org/2000/svg">
  <g transform="matrix(1.0, 0.0, 0.0, 1.0, 0.0, 3.05)">
    <path d="M41.0 12.95 L42.0 12.95 42.0 13.95 43.0 13.95 43.0 14.95 42.0 14.95 42.0 15.95 41.0 15.95 41.0 14.95 38.0 14.95 38.0 13.95 35.0 13.95 35.0 12.95 32.0 12.95 32.0 11.95 30.0 11.95 30.0 10.95 29.0 10.95 29.0 9.95 28.0 9.95 28.0 10.95 27.0 10.95 27.0 13.95 23.0 13.95 23.0 16.95 21.0 16.95 21.0 15.95 15.0 15.95 15.0 16.95 13.0 16.95 13.0 17.95 11.0 17.95 11.0 18.95 9.0 18.95 9.0 19.95 8.0 19.95 8.0 20.95 7.0 20.95 7.0 22.95 5.0 22.95 5.0 23.95 4.0 23.95 4.0 25.95 5.0 25.95 5.0 27.95 6.0 27.95 6.0 30.95 4.0 30.95 4.0 29.95 3.0 29.95 3.0 28.95 2.0 28.95 2.0 27.95 1.0 27.95 1.0 26.95 0.0 26.95 0.0 23.95 1.0 23.95 1.0 22.95 2.0 22.95 2.0 21.95 3.0 21.95 3.0 20.95 4.0 20.95 4.0 19.95 5.0 19.95 5.0 18.95 6.0 18.95 6.0 17.95 7.0 17.95 7.0 16.95 8.0 16.95 8.0 13.95 9.0 13.95 9.0 12.95 10.0 12.95 10.0 11.95 12.0 11.95 12.0 10.95 14.0 10.95 14.0 9.95 17.0 9.95 17.0 8.95 21.0 8.95 21.0 7.95 23.0 7.95 23.0 1.95 24.0 1.95 24.0 -1.05 25.0 -1.05 25.0 -2.05 26.0 -2.05 26.0 -3.05 29.0 -3.05 29.0 -2.05 31.0 -2.05 31.0 -1.05 32.0 -1.05 32.0 -0.05 33.0 -0.05 33.0 0.95 34.0 0.95 34.0 1.95 35.0 1.95 35.0 2.95 36.0 2.95 36.0 3.95 37.0 3.95 37.0 4.95 38.0 4.95 38.0 5.95 39.0 5.95 39.0 8.95 40.0 8.95 40.0 10.95 41.0 10.95 41.0 12.95 M42.0 13.95 L41.0 13.95 41.0 14.95 42.0 14.95 42.0 13.95 M31.0 -1.05 L30.0 -1.05 30.0 -0.05 29.0 -0.05 29.0 2.95 30.0 2.95 30.0 4.95 31.0 4.95 31.0 5.95 34.0 5.95 34.0 6.95 38.0 6.95 38.0 5.95 36.0 5.95 36.0 3.95 35.0 3.95 35.0 2.95 34.0 2.95 34.0 1.95 33.0 1.95 33.0 0.95 32.0 0.95 32.0 -0.05 31.0 -0.05 31.0 -1.05 M26.0 10.95 L27.0 10.95 27.0 9.95 28.0 9.95 28.0 1.95 27.0 1.95 27.0 -0.05 26.0 -0.05 26.0 -1.05 25.0 -1.05 25.0 3.95 24.0 3.95 24.0 7.95 23.0 7.95 23.0 8.95 21.0 8.95 21.0 10.95 22.0 10.95 22.0 12.95 26.0 12.95 26.0 10.95 25.0 10.95 25.0 8.95 24.0 8.95 24.0 7.95 25.0 7.95 25.0 8.95 26.0 8.95 26.0 10.95 M10.0 15.95 L10.0 16.95 8.0 16.95 8.0 17.95 11.0 17.95 11.0 16.95 13.0 16.95 13.0 15.95 15.0 15.95 15.0 14.95 21.0 14.95 21.0 15.95 22.0 15.95 22.0 13.95 21.0 13.95 21.0 10.95 20.0 10.95 20.0 9.95 17.0 9.95 17.0 10.95 15.0 10.95 15.0 11.95 13.0 11.95 13.0 12.95 11.0 12.95 11.0 15.95 10.0 15.95 10.0 13.95 9.0 13.95 9.0 15.95 10.0 15.95 M29.0 4.95 L29.0 9.95 30.0 9.95 30.0 8.95 31.0 8.95 31.0 6.95 30.0 6.95 30.0 4.95 29.0 4.95 M30.0 10.95 L31.0 10.95 31.0 9.95 30.0 9.95 30.0 10.95 M37.0 11.95 L35.0 11.95 35.0 12.95 37.0 12.95 37.0 11.95 M38.0 12.95 L38.0 13.95 40.0 13.95 40.0 12.95 38.0 12.95 M32.0 11.95 L34.0 11.95 34.0 10.95 32.0 10.95 32.0 11.95 M6.0 18.95 L6.0 19.95 5.0 19.95 5.0 20.95 7.0 20.95 7.0 19.95 8.0 19.95 8.0 18.95 6.0 18.95 M3.0 21.95 L3.0 22.95 2.0 22.95 2.0 23.95 1.0 23.95 1.0 26.95 2.0 26.95 2.0 27.95 3.0 27.95 3.0 28.95 4.0 28.95 4.0 29.95 5.0 29.95 5.0 27.95 4.0 27.95 4.0 25.95 3.0 25.95 3.0 23.95 4.0 23.95 4.0 22.95 5.0 22.95 5.0 21.95 3.0 21.95" fill="#000000" fill-rule="evenodd" stroke="none"/>
    <path d="M42.0 13.95 L42.0 14.95 41.0 14.95 41.0 13.95 42.0 13.95 M26.0 10.95 L26.0 12.95 22.0 12.95 22.0 10.95 21.0 10.95 21.0 8.95 23.0 8.95 23.0 7.95 24.0 7.95 24.0 8.95 25.0 8.95 25.0 10.95 26.0 10.95 M32.0 11.95 L32.0 10.95 34.0 10.95 34.0 11.95 32.0 11.95 M38.0 12.95 L40.0 12.95 40.0 13.95 38.0 13.95 38.0 12.95 M37.0 11.95 L37.0 12.95 35.0 12.95 35.0 11.95 37.0 11.95 M30.0 10.95 L30.0 9.95 31.0 9.95 31.0 10.95 30.0 10.95" fill="#d1d1d1" fill-rule="evenodd" stroke="none"/>
    <path d="M31.0 -1.05 L31.0 -0.05 32.0 -0.05 32.0 0.95 33.0 0.95 33.0 1.95 34.0 1.95 34.0 2.95 35.0 2.95 35.0 3.95 36.0 3.95 36.0 5.95 38.0 5.95 38.0 6.95 34.0 6.95 34.0 5.95 31.0 5.95 31.0 4.95 30.0 4.95 30.0 2.95 29.0 2.95 29.0 -0.05 30.0 -0.05 30.0 -1.05 31.0 -1.05 M25.0 -1.05 L26.0 -1.05 26.0 -0.05 27.0 -0.05 27.0 1.95 28.0 1.95 28.0 9.95 27.0 9.95 27.0 10.95 26.0 10.95 26.0 8.95 25.0 8.95 25.0 7.95 24.0 7.95 24.0 3.95 25.0 3.95 25.0 -1.05 M21.0 10.95 L21.0 13.95 22.0 13.95 22.0 15.95 21.0 15.95 21.0 14.95 15.0 14.95 15.0 15.95 13.0 15.95 13.0 16.95 11.0 16.95 11.0 17.95 8.0 17.95 8.0 16.95 10.0 16.95 10.0 15.95 11.0 15.95 11.0 12.95 13.0 12.95 13.0 11.95 15.0 11.95 15.0 10.95 17.0 10.95 17.0 9.95 20.0 9.95 20.0 10.95 21.0 10.95" fill="#777777" fill-rule="evenodd" stroke="none"/>
    <path d="M10.0 15.95 L9.0 15.95 9.0 13.95 10.0 13.95 10.0 15.95 M6.0 18.95 L8.0 18.95 8.0 19.95 7.0 19.95 7.0 20.95 5.0 20.95 5.0 19.95 6.0 19.95 6.0 18.95 M3.0 21.95 L5.0 21.95 5.0 22.95 4.0 22.95 4.0 23.95 3.0 23.95 3.0 25.95 4.0 25.95 4.0 27.95 5.0 27.95 5.0 29.95 4.0 29.95 4.0 28.95 3.0 28.95 3.0 27.95 2.0 27.95 2.0 26.95 1.0 26.95 1.0 23.95 2.0 23.95 2.0 22.95 3.0 22.95 3.0 21.95" fill="#ffffff" fill-rule="evenodd" stroke="none"/>
  </g>
</svg>
