<?xml version="1.0" encoding="UTF-8" standalone="no"?>
<svg xmlns:ffdec="https://www.free-decompiler.com/flash" xmlns:xlink="http://www.w3.org/1999/xlink" ffdec:objectType="shape" height="46.0px" width="42.0px" xmlns="http://www.w3.org/2000/svg">
  <g transform="matrix(1.0, 0.0, 0.0, 1.0, 0.0, -7.95)">
    <path d="M8.0 9.95 L7.0 9.95 7.0 8.95 8.0 8.95 8.0 9.95 9.0 9.95 9.0 10.95 10.0 10.95 10.0 11.95 11.0 11.95 11.0 12.95 12.0 12.95 12.0 13.95 13.0 13.95 13.0 14.95 14.0 14.95 14.0 15.95 17.0 15.95 17.0 16.95 18.0 16.95 18.0 17.95 19.0 17.95 19.0 19.95 20.0 19.95 20.0 21.95 21.0 21.95 21.0 24.95 22.0 24.95 22.0 28.95 23.0 28.95 23.0 30.95 27.0 30.95 27.0 31.95 32.0 31.95 32.0 32.95 33.0 32.95 33.0 33.95 34.0 33.95 34.0 36.95 35.0 36.95 35.0 39.95 36.0 39.95 36.0 42.95 37.0 42.95 37.0 43.95 38.0 43.95 38.0 46.95 39.0 46.95 39.0 48.95 40.0 48.95 40.0 50.95 41.0 50.95 41.0 51.95 42.0 51.95 42.0 52.95 41.0 52.95 41.0 53.95 40.0 53.95 40.0 52.95 37.0 52.95 37.0 51.95 34.0 51.95 34.0 50.95 31.0 50.95 31.0 49.95 29.0 49.95 29.0 48.95 28.0 48.95 28.0 47.95 29.0 47.95 29.0 46.95 30.0 46.95 30.0 37.95 29.0 37.95 29.0 36.95 21.0 36.95 21.0 35.95 20.0 35.95 20.0 34.95 17.0 34.95 17.0 30.95 14.0 30.95 14.0 28.95 15.0 28.95 15.0 22.95 14.0 22.95 14.0 20.95 13.0 20.95 13.0 18.95 12.0 18.95 12.0 16.95 11.0 16.95 11.0 15.95 10.0 15.95 10.0 14.95 8.0 14.95 8.0 12.95 7.0 12.95 7.0 11.95 5.0 11.95 5.0 12.95 3.0 12.95 3.0 13.95 0.0 13.95 0.0 11.95 1.0 11.95 1.0 10.95 2.0 10.95 2.0 9.95 3.0 9.95 3.0 8.95 4.0 8.95 4.0 9.95 3.0 9.95 3.0 10.95 2.0 10.95 2.0 11.95 1.0 11.95 1.0 12.95 3.0 12.95 3.0 11.95 5.0 11.95 5.0 10.95 7.0 10.95 7.0 11.95 8.0 11.95 8.0 12.95 9.0 12.95 9.0 10.95 8.0 10.95 8.0 9.95 M4.0 8.95 L4.0 7.95 7.0 7.95 7.0 8.95 4.0 8.95 M10.0 14.95 L11.0 14.95 11.0 15.95 12.0 15.95 12.0 13.95 11.0 13.95 11.0 12.95 10.0 12.95 10.0 14.95 M15.0 17.95 L14.0 17.95 14.0 15.95 13.0 15.95 13.0 18.95 14.0 18.95 14.0 20.95 15.0 20.95 15.0 22.95 16.0 22.95 16.0 28.95 15.0 28.95 15.0 29.95 17.0 29.95 17.0 28.95 20.0 28.95 20.0 27.95 21.0 27.95 21.0 24.95 20.0 24.95 20.0 22.95 19.0 22.95 19.0 20.95 18.0 20.95 18.0 18.95 15.0 18.95 15.0 17.95 17.0 17.95 17.0 16.95 15.0 16.95 15.0 17.95 M23.0 31.95 L23.0 30.95 22.0 30.95 22.0 28.95 20.0 28.95 20.0 29.95 18.0 29.95 18.0 33.95 20.0 33.95 20.0 32.95 22.0 32.95 22.0 31.95 23.0 31.95 23.0 32.95 22.0 32.95 22.0 33.95 20.0 33.95 20.0 34.95 21.0 34.95 21.0 35.95 29.0 35.95 29.0 34.95 31.0 34.95 31.0 33.95 32.0 33.95 32.0 32.95 27.0 32.95 27.0 31.95 23.0 31.95 M37.0 43.95 L36.0 43.95 36.0 42.95 35.0 42.95 35.0 39.95 34.0 39.95 34.0 36.95 31.0 36.95 31.0 44.95 37.0 44.95 37.0 43.95 M31.0 49.95 L33.0 49.95 33.0 48.95 31.0 48.95 31.0 49.95 M34.0 50.95 L36.0 50.95 36.0 49.95 34.0 49.95 34.0 50.95 M37.0 51.95 L39.0 51.95 39.0 50.95 37.0 50.95 37.0 51.95 M40.0 52.95 L41.0 52.95 41.0 51.95 40.0 51.95 40.0 52.95 M30.0 48.95 L30.0 47.95 29.0 47.95 29.0 48.95 30.0 48.95" fill="#000000" fill-rule="evenodd" stroke="none"/>
    <path d="M7.0 8.95 L7.0 9.95 8.0 9.95 8.0 10.95 9.0 10.95 9.0 12.95 8.0 12.95 8.0 11.95 7.0 11.95 7.0 10.95 5.0 10.95 5.0 11.95 3.0 11.95 3.0 12.95 1.0 12.95 1.0 11.95 2.0 11.95 2.0 10.95 3.0 10.95 3.0 9.95 4.0 9.95 4.0 8.95 7.0 8.95 M10.0 14.95 L10.0 12.95 11.0 12.95 11.0 13.95 12.0 13.95 12.0 15.95 11.0 15.95 11.0 14.95 10.0 14.95 M15.0 17.95 L15.0 16.95 17.0 16.95 17.0 17.95 15.0 17.95" fill="#ffffff" fill-rule="evenodd" stroke="none"/>
    <path d="M13.0 18.95 L13.0 15.95 14.0 15.95 14.0 17.95 15.0 17.95 15.0 18.95 18.0 18.95 18.0 20.95 19.0 20.95 19.0 22.95 20.0 22.95 20.0 24.95 21.0 24.95 21.0 27.95 20.0 27.95 20.0 28.95 17.0 28.95 17.0 29.95 15.0 29.95 15.0 28.95 16.0 28.95 16.0 22.95 15.0 22.95 15.0 20.95 14.0 20.95 14.0 18.95 13.0 18.95 M23.0 31.95 L27.0 31.95 27.0 32.95 32.0 32.95 32.0 33.95 31.0 33.95 31.0 34.95 29.0 34.95 29.0 35.95 21.0 35.95 21.0 34.95 20.0 34.95 20.0 33.95 22.0 33.95 22.0 32.95 23.0 32.95 23.0 31.95 M37.0 43.95 L37.0 44.95 31.0 44.95 31.0 36.95 34.0 36.95 34.0 39.95 35.0 39.95 35.0 42.95 36.0 42.95 36.0 43.95 37.0 43.95" fill="#777777" fill-rule="evenodd" stroke="none"/>
    <path d="M20.0 28.95 L22.0 28.95 22.0 30.95 23.0 30.95 23.0 31.95 22.0 31.95 22.0 32.95 20.0 32.95 20.0 33.95 18.0 33.95 18.0 29.95 20.0 29.95 20.0 28.95 M34.0 50.95 L34.0 49.95 36.0 49.95 36.0 50.95 34.0 50.95 M31.0 49.95 L31.0 48.95 33.0 48.95 33.0 49.95 31.0 49.95 M30.0 48.95 L29.0 48.95 29.0 47.95 30.0 47.95 30.0 48.95 M40.0 52.95 L40.0 51.95 41.0 51.95 41.0 52.95 40.0 52.95 M37.0 51.95 L37.0 50.95 39.0 50.95 39.0 51.95 37.0 51.95" fill="#d1d1d1" fill-rule="evenodd" stroke="none"/>
  </g>
</svg>
