<?xml version="1.0" encoding="UTF-8" standalone="no"?>
<svg xmlns:ffdec="https://www.free-decompiler.com/flash" xmlns:xlink="http://www.w3.org/1999/xlink" ffdec:objectType="shape" height="29.0px" width="17.0px" xmlns="http://www.w3.org/2000/svg">
  <g transform="matrix(1.0, 0.0, 0.0, 1.0, -5.0, -19.45)">
    <path d="M21.0 23.45 L22.0 23.45 22.0 27.45 21.0 27.45 21.0 28.45 17.0 28.45 17.0 29.45 16.0 29.45 16.0 30.45 15.0 30.45 15.0 31.45 16.0 31.45 16.0 32.45 17.0 32.45 17.0 33.45 18.0 33.45 18.0 34.45 19.0 34.45 19.0 35.45 20.0 35.45 20.0 36.45 21.0 36.45 21.0 38.45 20.0 38.45 20.0 39.45 16.0 39.45 16.0 40.45 15.0 40.45 15.0 41.45 14.0 41.45 14.0 42.45 16.0 42.45 16.0 43.45 17.0 43.45 17.0 45.45 18.0 45.45 18.0 46.45 19.0 46.45 19.0 47.45 18.0 47.45 18.0 48.45 17.0 48.45 17.0 47.45 16.0 47.45 16.0 48.45 14.0 48.45 14.0 47.45 13.0 47.45 13.0 48.45 11.0 48.45 11.0 47.45 10.0 47.45 10.0 48.45 8.0 48.45 8.0 47.45 7.0 47.45 7.0 48.45 6.0 48.45 6.0 47.45 5.0 47.45 5.0 46.45 6.0 46.45 6.0 45.45 7.0 45.45 7.0 42.45 6.0 42.45 6.0 40.45 7.0 40.45 7.0 39.45 9.0 39.45 9.0 38.45 11.0 38.45 11.0 37.45 13.0 37.45 13.0 36.45 12.0 36.45 12.0 35.45 10.0 35.45 10.0 34.45 8.0 34.45 8.0 33.45 7.0 33.45 7.0 31.45 5.0 31.45 5.0 30.45 6.0 30.45 6.0 29.45 7.0 29.45 7.0 28.45 8.0 28.45 8.0 27.45 9.0 27.45 9.0 25.45 10.0 25.45 10.0 24.45 11.0 24.45 11.0 23.45 12.0 23.45 12.0 22.45 13.0 22.45 13.0 21.45 14.0 21.45 14.0 20.45 15.0 20.45 15.0 19.45 18.0 19.45 18.0 20.45 19.0 20.45 19.0 21.45 20.0 21.45 20.0 22.45 21.0 22.45 21.0 23.45 M15.0 21.45 L16.0 21.45 16.0 20.45 15.0 20.45 15.0 21.45 14.0 21.45 14.0 22.45 13.0 22.45 13.0 23.45 12.0 23.45 12.0 24.45 11.0 24.45 11.0 25.45 10.0 25.45 10.0 26.45 18.0 26.45 18.0 27.45 21.0 27.45 21.0 24.45 18.0 24.45 18.0 25.45 13.0 25.45 13.0 24.45 15.0 24.45 15.0 23.45 16.0 23.45 16.0 22.45 17.0 22.45 17.0 21.45 18.0 21.45 18.0 22.45 17.0 22.45 17.0 24.45 18.0 24.45 18.0 22.45 19.0 22.45 19.0 23.45 20.0 23.45 20.0 22.45 19.0 22.45 19.0 21.45 18.0 21.45 18.0 20.45 17.0 20.45 17.0 21.45 16.0 21.45 16.0 22.45 15.0 22.45 15.0 21.45 M17.0 27.45 L10.0 27.45 10.0 28.45 9.0 28.45 9.0 29.45 7.0 29.45 7.0 30.45 11.0 30.45 11.0 29.45 16.0 29.45 16.0 28.45 17.0 28.45 17.0 27.45 M12.0 31.45 L12.0 30.45 11.0 30.45 11.0 31.45 8.0 31.45 8.0 33.45 9.0 33.45 9.0 32.45 11.0 32.45 11.0 33.45 10.0 33.45 10.0 34.45 12.0 34.45 12.0 35.45 14.0 35.45 14.0 36.45 18.0 36.45 18.0 34.45 17.0 34.45 17.0 33.45 16.0 33.45 16.0 32.45 14.0 32.45 14.0 31.45 12.0 31.45 12.0 32.45 11.0 32.45 11.0 31.45 12.0 31.45 M7.0 42.45 L13.0 42.45 13.0 41.45 14.0 41.45 14.0 40.45 15.0 40.45 15.0 39.45 16.0 39.45 16.0 38.45 15.0 38.45 15.0 37.45 13.0 37.45 13.0 38.45 11.0 38.45 11.0 39.45 9.0 39.45 9.0 40.45 8.0 40.45 8.0 41.45 7.0 41.45 7.0 42.45 M6.0 46.45 L6.0 47.45 7.0 47.45 7.0 46.45 6.0 46.45 M8.0 47.45 L10.0 47.45 10.0 46.45 8.0 46.45 8.0 47.45 M11.0 47.45 L13.0 47.45 13.0 46.45 11.0 46.45 11.0 47.45 M14.0 47.45 L16.0 47.45 16.0 46.45 14.0 46.45 14.0 47.45 M17.0 47.45 L18.0 47.45 18.0 46.45 17.0 46.45 17.0 47.45" fill="#000000" fill-rule="evenodd" stroke="none"/>
    <path d="M15.0 21.45 L15.0 22.45 16.0 22.45 16.0 23.45 15.0 23.45 15.0 24.45 13.0 24.45 13.0 25.45 18.0 25.45 18.0 24.45 21.0 24.45 21.0 27.45 18.0 27.45 18.0 26.45 10.0 26.45 10.0 25.45 11.0 25.45 11.0 24.45 12.0 24.45 12.0 23.45 13.0 23.45 13.0 22.45 14.0 22.45 14.0 21.45 15.0 21.45 M17.0 21.45 L17.0 20.45 18.0 20.45 18.0 21.45 19.0 21.45 19.0 22.45 20.0 22.45 20.0 23.45 19.0 23.45 19.0 22.45 18.0 22.45 18.0 21.45 17.0 21.45" fill="#ffffff" fill-rule="evenodd" stroke="none"/>
    <path d="M15.0 21.45 L15.0 20.45 16.0 20.45 16.0 21.45 15.0 21.45 M16.0 22.45 L16.0 21.45 17.0 21.45 17.0 22.45 16.0 22.45 M18.0 22.45 L18.0 24.45 17.0 24.45 17.0 22.45 18.0 22.45 M17.0 27.45 L17.0 28.45 16.0 28.45 16.0 29.45 11.0 29.45 11.0 30.45 7.0 30.45 7.0 29.45 9.0 29.45 9.0 28.45 10.0 28.45 10.0 27.45 17.0 27.45 M12.0 31.45 L14.0 31.45 14.0 32.45 16.0 32.45 16.0 33.45 17.0 33.45 17.0 34.45 18.0 34.45 18.0 36.45 14.0 36.45 14.0 35.45 12.0 35.45 12.0 34.45 10.0 34.45 10.0 33.45 11.0 33.45 11.0 32.45 12.0 32.45 12.0 31.45 M7.0 42.45 L7.0 41.45 8.0 41.45 8.0 40.45 9.0 40.45 9.0 39.45 11.0 39.45 11.0 38.45 13.0 38.45 13.0 37.45 15.0 37.45 15.0 38.45 16.0 38.45 16.0 39.45 15.0 39.45 15.0 40.45 14.0 40.45 14.0 41.45 13.0 41.45 13.0 42.45 7.0 42.45" fill="#777777" fill-rule="evenodd" stroke="none"/>
    <path d="M11.0 30.45 L12.0 30.45 12.0 31.45 11.0 31.45 11.0 32.45 9.0 32.45 9.0 33.45 8.0 33.45 8.0 31.45 11.0 31.45 11.0 30.45 M6.0 46.45 L7.0 46.45 7.0 47.45 6.0 47.45 6.0 46.45 M11.0 47.45 L11.0 46.45 13.0 46.45 13.0 47.45 11.0 47.45 M8.0 47.45 L8.0 46.45 10.0 46.45 10.0 47.45 8.0 47.45 M14.0 47.45 L14.0 46.45 16.0 46.45 16.0 47.45 14.0 47.45 M17.0 47.45 L17.0 46.45 18.0 46.45 18.0 47.45 17.0 47.45" fill="#d1d1d1" fill-rule="evenodd" stroke="none"/>
  </g>
</svg>
