<?xml version="1.0" encoding="UTF-8" standalone="no"?>
<svg xmlns:ffdec="https://www.free-decompiler.com/flash" xmlns:xlink="http://www.w3.org/1999/xlink" ffdec:objectType="shape" height="12.0px" width="33.95px" xmlns="http://www.w3.org/2000/svg">
  <g transform="matrix(1.0, 0.0, 0.0, 1.0, 18.0, 6.0)">
    <path d="M4.95 -4.0 L5.95 -4.0 5.95 -2.0 6.95 -2.0 6.95 0.0 7.95 0.0 7.95 2.0 8.95 2.0 8.95 5.0 9.95 5.0 9.95 4.0 10.95 4.0 10.95 3.0 14.95 3.0 14.95 2.0 9.95 2.0 9.95 1.0 8.95 1.0 8.95 -1.0 7.95 -1.0 7.95 -3.0 6.95 -3.0 6.95 -5.0 4.95 -5.0 4.95 -4.0 3.95 -4.0 3.95 -6.0 6.95 -6.0 6.95 -5.0 7.95 -5.0 7.95 -3.0 8.95 -3.0 8.95 -1.0 9.95 -1.0 9.95 1.0 15.95 1.0 15.95 4.0 11.95 4.0 11.95 5.0 10.95 5.0 10.95 6.0 7.95 6.0 7.95 2.0 6.95 2.0 6.95 0.0 5.95 0.0 5.95 -2.0 4.95 -2.0 4.95 -4.0" fill="#000000" fill-rule="evenodd" stroke="none"/>
    <path d="M4.95 -4.0 L4.95 -5.0 6.95 -5.0 6.95 -3.0 7.95 -3.0 7.95 -1.0 8.95 -1.0 8.95 1.0 9.95 1.0 9.95 2.0 14.95 2.0 14.95 3.0 10.95 3.0 10.95 4.0 9.95 4.0 9.95 5.0 8.95 5.0 8.95 2.0 7.95 2.0 7.95 0.0 6.95 0.0 6.95 -2.0 5.95 -2.0 5.95 -4.0 4.95 -4.0" fill="#ffffff" fill-rule="evenodd" stroke="none"/>
    <path d="M-11.0 -1.0 L-10.0 -1.0 -10.0 -3.0 -9.0 -3.0 -9.0 -5.0 -7.0 -5.0 -7.0 -4.0 -8.0 -4.0 -8.0 -2.0 -9.0 -2.0 -9.0 0.0 -10.0 0.0 -10.0 2.0 -11.0 2.0 -11.0 5.0 -12.0 5.0 -12.0 4.0 -13.0 4.0 -13.0 3.0 -17.0 3.0 -17.0 2.0 -12.0 2.0 -12.0 1.0 -11.0 1.0 -11.0 -1.0" fill="#ffffff" fill-rule="evenodd" stroke="none"/>
    <path d="M-11.0 -1.0 L-11.0 -3.0 -10.0 -3.0 -10.0 -5.0 -9.0 -5.0 -9.0 -6.0 -6.0 -6.0 -6.0 -4.0 -7.0 -4.0 -7.0 -2.0 -8.0 -2.0 -8.0 0.0 -9.0 0.0 -9.0 2.0 -10.0 2.0 -10.0 6.0 -13.0 6.0 -13.0 5.0 -14.0 5.0 -14.0 4.0 -18.0 4.0 -18.0 1.0 -12.0 1.0 -12.0 -1.0 -11.0 -1.0 -11.0 1.0 -12.0 1.0 -12.0 2.0 -17.0 2.0 -17.0 3.0 -13.0 3.0 -13.0 4.0 -12.0 4.0 -12.0 5.0 -11.0 5.0 -11.0 2.0 -10.0 2.0 -10.0 0.0 -9.0 0.0 -9.0 -2.0 -8.0 -2.0 -8.0 -4.0 -7.0 -4.0 -7.0 -5.0 -9.0 -5.0 -9.0 -3.0 -10.0 -3.0 -10.0 -1.0 -11.0 -1.0" fill="#000000" fill-rule="evenodd" stroke="none"/>
  </g>
</svg>
