<?xml version="1.0" encoding="UTF-8" standalone="no"?>
<svg xmlns:ffdec="https://www.free-decompiler.com/flash" xmlns:xlink="http://www.w3.org/1999/xlink" ffdec:objectType="shape" height="39.0px" width="19.0px" xmlns="http://www.w3.org/2000/svg">
  <g transform="matrix(1.0, 0.0, 0.0, 1.0, -5.0, -2.45)">
    <path d="M23.0 5.45 L22.0 5.45 22.0 3.45 21.0 3.45 21.0 5.45 20.0 5.45 20.0 3.45 19.0 3.45 19.0 2.45 23.0 2.45 23.0 5.45 24.0 5.45 24.0 9.45 23.0 9.45 23.0 10.45 22.0 10.45 22.0 12.45 21.0 12.45 21.0 13.45 20.0 13.45 20.0 16.45 19.0 16.45 19.0 17.45 18.0 17.45 18.0 18.45 17.0 18.45 17.0 19.45 16.0 19.45 16.0 20.45 15.0 20.45 15.0 22.45 16.0 22.45 16.0 25.45 15.0 25.45 15.0 26.45 14.0 26.45 14.0 29.45 15.0 29.45 15.0 34.45 16.0 34.45 16.0 36.45 17.0 36.45 17.0 38.45 18.0 38.45 18.0 39.45 19.0 39.45 19.0 40.45 18.0 40.45 18.0 41.45 17.0 41.45 17.0 40.45 14.0 40.45 14.0 39.45 11.0 39.45 11.0 38.45 8.0 38.45 8.0 37.45 6.0 37.45 6.0 36.45 5.0 36.45 5.0 35.45 6.0 35.45 6.0 34.45 7.0 34.45 7.0 31.45 6.0 31.45 6.0 29.45 7.0 29.45 7.0 24.45 8.0 24.45 8.0 21.45 9.0 21.45 9.0 20.45 10.0 20.45 10.0 18.45 11.0 18.45 11.0 16.45 10.0 16.45 10.0 15.45 9.0 15.45 9.0 14.45 8.0 14.45 8.0 12.45 9.0 12.45 9.0 11.45 10.0 11.45 10.0 10.45 12.0 10.45 12.0 9.45 13.0 9.45 13.0 8.45 14.0 8.45 14.0 7.45 15.0 7.45 15.0 6.45 16.0 6.45 16.0 5.45 17.0 5.45 17.0 4.45 18.0 4.45 18.0 3.45 19.0 3.45 19.0 5.45 20.0 5.45 20.0 6.45 19.0 6.45 19.0 7.45 18.0 7.45 18.0 8.45 17.0 8.45 17.0 9.45 16.0 9.45 16.0 10.45 17.0 10.45 17.0 11.45 19.0 11.45 19.0 12.45 21.0 12.45 21.0 10.45 22.0 10.45 22.0 9.45 23.0 9.45 23.0 7.45 21.0 7.45 21.0 5.45 22.0 5.45 22.0 6.45 23.0 6.45 23.0 5.45 M19.0 6.45 L19.0 5.45 17.0 5.45 17.0 6.45 16.0 6.45 16.0 7.45 15.0 7.45 15.0 8.45 14.0 8.45 14.0 9.45 13.0 9.45 13.0 10.45 12.0 10.45 12.0 11.45 10.0 11.45 10.0 12.45 9.0 12.45 9.0 14.45 10.0 14.45 10.0 15.45 12.0 15.45 12.0 14.45 11.0 14.45 11.0 13.45 12.0 13.45 12.0 14.45 13.0 14.45 13.0 11.45 14.0 11.45 14.0 10.45 15.0 10.45 15.0 9.45 16.0 9.45 16.0 8.45 17.0 8.45 17.0 7.45 18.0 7.45 18.0 6.45 19.0 6.45 M14.0 15.45 L13.0 15.45 13.0 16.45 12.0 16.45 12.0 18.45 11.0 18.45 11.0 20.45 10.0 20.45 10.0 21.45 9.0 21.45 9.0 22.45 12.0 22.45 12.0 21.45 14.0 21.45 14.0 20.45 15.0 20.45 15.0 19.45 16.0 19.45 16.0 18.45 17.0 18.45 17.0 17.45 16.0 17.45 16.0 16.45 14.0 16.45 14.0 15.45 16.0 15.45 16.0 16.45 19.0 16.45 19.0 12.45 17.0 12.45 17.0 11.45 14.0 11.45 14.0 15.45 M8.0 24.45 L8.0 29.45 7.0 29.45 7.0 31.45 10.0 31.45 10.0 32.45 14.0 32.45 14.0 29.45 13.0 29.45 13.0 25.45 12.0 25.45 12.0 24.45 11.0 24.45 11.0 23.45 9.0 23.45 9.0 24.45 8.0 24.45 M11.0 38.45 L13.0 38.45 13.0 37.45 11.0 37.45 11.0 38.45 M6.0 35.45 L6.0 36.45 7.0 36.45 7.0 35.45 6.0 35.45 M17.0 40.45 L18.0 40.45 18.0 39.45 17.0 39.45 17.0 40.45 M14.0 39.45 L16.0 39.45 16.0 38.45 14.0 38.45 14.0 39.45 M8.0 37.45 L10.0 37.45 10.0 36.45 8.0 36.45 8.0 37.45" fill="#000000" fill-rule="evenodd" stroke="none"/>
    <path d="M21.0 5.45 L21.0 3.45 22.0 3.45 22.0 5.45 23.0 5.45 23.0 6.45 22.0 6.45 22.0 5.45 21.0 5.45 M19.0 6.45 L18.0 6.45 18.0 7.45 17.0 7.45 17.0 8.45 16.0 8.45 16.0 9.45 15.0 9.45 15.0 10.45 14.0 10.45 14.0 11.45 13.0 11.45 13.0 14.45 12.0 14.45 12.0 13.45 11.0 13.45 11.0 14.45 12.0 14.45 12.0 15.45 10.0 15.45 10.0 14.45 9.0 14.45 9.0 12.45 10.0 12.45 10.0 11.45 12.0 11.45 12.0 10.45 13.0 10.45 13.0 9.45 14.0 9.45 14.0 8.45 15.0 8.45 15.0 7.45 16.0 7.45 16.0 6.45 17.0 6.45 17.0 5.45 19.0 5.45 19.0 6.45" fill="#ffffff" fill-rule="evenodd" stroke="none"/>
    <path d="M19.0 3.45 L20.0 3.45 20.0 5.45 21.0 5.45 21.0 7.45 23.0 7.45 23.0 9.45 22.0 9.45 22.0 10.45 21.0 10.45 21.0 12.45 19.0 12.45 19.0 11.45 17.0 11.45 17.0 10.45 16.0 10.45 16.0 9.45 17.0 9.45 17.0 8.45 18.0 8.45 18.0 7.45 19.0 7.45 19.0 6.45 20.0 6.45 20.0 5.45 19.0 5.45 19.0 3.45 M14.0 15.45 L14.0 16.45 16.0 16.45 16.0 17.45 17.0 17.45 17.0 18.45 16.0 18.45 16.0 19.45 15.0 19.45 15.0 20.45 14.0 20.45 14.0 21.45 12.0 21.45 12.0 22.45 9.0 22.45 9.0 21.45 10.0 21.45 10.0 20.45 11.0 20.45 11.0 18.45 12.0 18.45 12.0 16.45 13.0 16.45 13.0 15.45 14.0 15.45 M8.0 24.45 L9.0 24.45 9.0 23.45 11.0 23.45 11.0 24.45 12.0 24.45 12.0 25.45 13.0 25.45 13.0 29.45 14.0 29.45 14.0 32.45 10.0 32.45 10.0 31.45 7.0 31.45 7.0 29.45 8.0 29.45 8.0 24.45" fill="#777777" fill-rule="evenodd" stroke="none"/>
    <path d="M14.0 15.45 L14.0 11.45 17.0 11.45 17.0 12.45 19.0 12.45 19.0 16.45 16.0 16.45 16.0 15.45 14.0 15.45 M11.0 38.45 L11.0 37.45 13.0 37.45 13.0 38.45 11.0 38.45 M14.0 39.45 L14.0 38.45 16.0 38.45 16.0 39.45 14.0 39.45 M17.0 40.45 L17.0 39.45 18.0 39.45 18.0 40.45 17.0 40.45 M6.0 35.45 L7.0 35.45 7.0 36.45 6.0 36.45 6.0 35.45 M8.0 37.45 L8.0 36.45 10.0 36.45 10.0 37.45 8.0 37.45" fill="#d1d1d1" fill-rule="evenodd" stroke="none"/>
  </g>
</svg>
