<?xml version="1.0" encoding="UTF-8" standalone="no"?>
<svg xmlns:ffdec="https://www.free-decompiler.com/flash" xmlns:xlink="http://www.w3.org/1999/xlink" ffdec:objectType="shape" height="32.0px" width="43.0px" xmlns="http://www.w3.org/2000/svg">
  <g transform="matrix(1.0, 0.0, 0.0, 1.0, 3.0, 0.55)">
    <path d="M32.0 4.45 L39.0 4.45 39.0 3.45 40.0 3.45 40.0 5.45 32.0 5.45 32.0 4.45 30.0 4.45 30.0 3.45 28.0 3.45 28.0 2.45 24.0 2.45 24.0 3.45 23.0 3.45 23.0 5.45 22.0 5.45 22.0 6.45 21.0 6.45 21.0 7.45 20.0 7.45 20.0 9.45 19.0 9.45 19.0 11.45 20.0 11.45 20.0 12.45 23.0 12.45 23.0 13.45 24.0 13.45 24.0 15.45 25.0 15.45 25.0 17.45 24.0 17.45 24.0 19.45 23.0 19.45 23.0 22.45 22.0 22.45 22.0 23.45 23.0 23.45 23.0 24.45 24.0 24.45 24.0 26.45 25.0 26.45 25.0 27.45 26.0 27.45 26.0 28.45 25.0 28.45 25.0 29.45 24.0 29.45 24.0 28.45 23.0 28.45 23.0 29.45 22.0 29.45 22.0 30.45 21.0 30.45 21.0 31.45 20.0 31.45 20.0 30.45 19.0 30.45 19.0 31.45 17.0 31.45 17.0 30.45 16.0 30.45 16.0 31.45 14.0 31.45 14.0 30.45 13.0 30.45 13.0 31.45 11.0 31.45 11.0 30.45 10.0 30.45 10.0 31.45 9.0 31.45 9.0 30.45 8.0 30.45 8.0 29.45 9.0 29.45 9.0 28.45 10.0 28.45 10.0 25.45 11.0 25.45 11.0 23.45 12.0 23.45 12.0 21.45 13.0 21.45 13.0 20.45 14.0 20.45 14.0 19.45 15.0 19.45 15.0 18.45 13.0 18.45 13.0 17.45 10.0 17.45 10.0 16.45 9.0 16.45 9.0 15.45 8.0 15.45 8.0 13.45 6.0 13.45 6.0 12.45 7.0 12.45 7.0 11.45 8.0 11.45 8.0 10.45 7.0 10.45 7.0 9.45 8.0 9.45 8.0 8.45 10.0 8.45 10.0 7.45 11.0 7.45 11.0 6.45 12.0 6.45 12.0 4.45 8.0 4.45 8.0 5.45 7.0 5.45 7.0 6.45 6.0 6.45 6.0 7.45 5.0 7.45 5.0 8.45 4.0 8.45 4.0 9.45 -3.0 9.45 -3.0 7.45 -2.0 7.45 -2.0 6.45 -1.0 6.45 -1.0 5.45 1.0 5.45 1.0 4.45 3.0 4.45 3.0 5.45 4.0 5.45 4.0 4.45 5.0 4.45 5.0 3.45 6.0 3.45 6.0 2.45 7.0 2.45 7.0 1.45 22.0 1.45 22.0 0.45 24.0 0.45 24.0 -0.55 29.0 -0.55 29.0 0.45 31.0 0.45 31.0 1.45 33.0 1.45 33.0 2.45 34.0 2.45 34.0 1.45 35.0 1.45 35.0 0.45 37.0 0.45 37.0 1.45 38.0 1.45 38.0 2.45 37.0 2.45 37.0 1.45 35.0 1.45 35.0 2.45 34.0 2.45 34.0 3.45 33.0 3.45 33.0 2.45 31.0 2.45 31.0 1.45 29.0 1.45 29.0 0.45 24.0 0.45 24.0 1.45 28.0 1.45 28.0 2.45 30.0 2.45 30.0 3.45 32.0 3.45 32.0 4.45 M38.0 2.45 L39.0 2.45 39.0 3.45 38.0 3.45 38.0 2.45 M20.0 3.45 L20.0 2.45 15.0 2.45 15.0 3.45 20.0 3.45 20.0 4.45 14.0 4.45 14.0 3.45 13.0 3.45 13.0 2.45 12.0 2.45 12.0 3.45 13.0 3.45 13.0 5.45 14.0 5.45 14.0 6.45 12.0 6.45 12.0 7.45 11.0 7.45 11.0 8.45 10.0 8.45 10.0 9.45 15.0 9.45 15.0 10.45 9.0 10.45 9.0 11.45 8.0 11.45 8.0 12.45 16.0 12.45 16.0 13.45 17.0 13.45 17.0 11.45 18.0 11.45 18.0 9.45 19.0 9.45 19.0 7.45 20.0 7.45 20.0 6.45 21.0 6.45 21.0 5.45 22.0 5.45 22.0 3.45 23.0 3.45 23.0 2.45 24.0 2.45 24.0 1.45 23.0 1.45 23.0 2.45 22.0 2.45 22.0 3.45 20.0 3.45 M17.0 13.45 L17.0 14.45 19.0 14.45 19.0 15.45 23.0 15.45 23.0 14.45 22.0 14.45 22.0 13.45 20.0 13.45 20.0 12.45 18.0 12.45 18.0 13.45 17.0 13.45 M6.0 3.45 L6.0 4.45 5.0 4.45 5.0 5.45 4.0 5.45 4.0 6.45 3.0 6.45 3.0 5.45 1.0 5.45 1.0 6.45 -1.0 6.45 -1.0 7.45 -2.0 7.45 -2.0 8.45 4.0 8.45 4.0 7.45 5.0 7.45 5.0 6.45 6.0 6.45 6.0 5.45 7.0 5.45 7.0 4.45 8.0 4.45 8.0 3.45 11.0 3.45 11.0 2.45 7.0 2.45 7.0 3.45 6.0 3.45 M10.0 15.45 L10.0 16.45 13.0 16.45 13.0 17.45 19.0 17.45 19.0 16.45 18.0 16.45 18.0 15.45 16.0 15.45 16.0 14.45 15.0 14.45 15.0 13.45 9.0 13.45 9.0 15.45 10.0 15.45 M17.0 11.45 L15.0 11.45 15.0 10.45 17.0 10.45 17.0 11.45 M13.0 21.45 L13.0 23.45 12.0 23.45 12.0 25.45 17.0 25.45 17.0 24.45 18.0 24.45 18.0 21.45 19.0 21.45 19.0 20.45 16.0 20.45 16.0 19.45 15.0 19.45 15.0 20.45 14.0 20.45 14.0 21.45 13.0 21.45 M23.0 18.45 L21.0 18.45 21.0 19.45 20.0 19.45 20.0 21.45 19.0 21.45 19.0 23.45 21.0 23.45 21.0 22.45 22.0 22.45 22.0 19.45 23.0 19.45 23.0 18.45 M23.0 28.45 L23.0 27.45 21.0 27.45 21.0 28.45 23.0 28.45 M24.0 28.45 L25.0 28.45 25.0 27.45 24.0 27.45 24.0 28.45 M9.0 29.45 L9.0 30.45 10.0 30.45 10.0 29.45 9.0 29.45 M11.0 30.45 L13.0 30.45 13.0 29.45 11.0 29.45 11.0 30.45 M14.0 30.45 L16.0 30.45 16.0 29.45 14.0 29.45 14.0 30.45 M17.0 30.45 L19.0 30.45 19.0 29.45 17.0 29.45 17.0 30.45 M20.0 30.45 L21.0 30.45 21.0 29.45 20.0 29.45 20.0 30.45" fill="#000000" fill-rule="evenodd" stroke="none"/>
    <path d="M39.0 3.45 L39.0 4.45 32.0 4.45 32.0 3.45 30.0 3.45 30.0 2.45 28.0 2.45 28.0 1.45 24.0 1.45 24.0 0.45 29.0 0.45 29.0 1.45 31.0 1.45 31.0 2.45 33.0 2.45 33.0 3.45 34.0 3.45 34.0 2.45 35.0 2.45 35.0 1.45 37.0 1.45 37.0 2.45 38.0 2.45 38.0 3.45 39.0 3.45 M20.0 3.45 L15.0 3.45 15.0 2.45 20.0 2.45 20.0 3.45 M6.0 3.45 L7.0 3.45 7.0 2.45 11.0 2.45 11.0 3.45 8.0 3.45 8.0 4.45 7.0 4.45 7.0 5.45 6.0 5.45 6.0 6.45 5.0 6.45 5.0 7.45 4.0 7.45 4.0 8.45 -2.0 8.45 -2.0 7.45 -1.0 7.45 -1.0 6.45 1.0 6.45 1.0 5.45 3.0 5.45 3.0 6.45 4.0 6.45 4.0 5.45 5.0 5.45 5.0 4.45 6.0 4.45 6.0 3.45" fill="#ffffff" fill-rule="evenodd" stroke="none"/>
    <path d="M20.0 3.45 L22.0 3.45 22.0 2.45 23.0 2.45 23.0 1.45 24.0 1.45 24.0 2.45 23.0 2.45 23.0 3.45 22.0 3.45 22.0 5.45 21.0 5.45 21.0 6.45 20.0 6.45 20.0 7.45 19.0 7.45 19.0 9.45 18.0 9.45 18.0 11.45 17.0 11.45 17.0 10.45 15.0 10.45 15.0 9.45 10.0 9.45 10.0 8.45 11.0 8.45 11.0 7.45 12.0 7.45 12.0 6.45 14.0 6.45 14.0 5.45 13.0 5.45 13.0 3.45 12.0 3.45 12.0 2.45 13.0 2.45 13.0 3.45 14.0 3.45 14.0 4.45 20.0 4.45 20.0 3.45 M17.0 13.45 L18.0 13.45 18.0 12.45 20.0 12.45 20.0 13.45 22.0 13.45 22.0 14.45 23.0 14.45 23.0 15.45 19.0 15.45 19.0 14.45 17.0 14.45 17.0 13.45 M10.0 15.45 L9.0 15.45 9.0 13.45 15.0 13.45 15.0 14.45 16.0 14.45 16.0 15.45 18.0 15.45 18.0 16.45 19.0 16.45 19.0 17.45 13.0 17.45 13.0 16.45 10.0 16.45 10.0 15.45 M23.0 18.45 L23.0 19.45 22.0 19.45 22.0 22.45 21.0 22.45 21.0 23.45 19.0 23.45 19.0 21.45 20.0 21.45 20.0 19.45 21.0 19.45 21.0 18.45 23.0 18.45 M13.0 21.45 L14.0 21.45 14.0 20.45 15.0 20.45 15.0 19.45 16.0 19.45 16.0 20.45 19.0 20.45 19.0 21.45 18.0 21.45 18.0 24.45 17.0 24.45 17.0 25.45 12.0 25.45 12.0 23.45 13.0 23.45 13.0 21.45" fill="#777777" fill-rule="evenodd" stroke="none"/>
    <path d="M17.0 11.45 L17.0 13.45 16.0 13.45 16.0 12.45 8.0 12.45 8.0 11.45 9.0 11.45 9.0 10.45 15.0 10.45 15.0 11.45 17.0 11.45 M23.0 28.45 L21.0 28.45 21.0 27.45 23.0 27.45 23.0 28.45 M24.0 28.45 L24.0 27.45 25.0 27.45 25.0 28.45 24.0 28.45 M20.0 30.45 L20.0 29.45 21.0 29.45 21.0 30.45 20.0 30.45 M17.0 30.45 L17.0 29.45 19.0 29.45 19.0 30.45 17.0 30.45 M14.0 30.45 L14.0 29.45 16.0 29.45 16.0 30.45 14.0 30.45 M11.0 30.45 L11.0 29.45 13.0 29.45 13.0 30.45 11.0 30.45 M9.0 29.45 L10.0 29.45 10.0 30.45 9.0 30.45 9.0 29.45" fill="#d1d1d1" fill-rule="evenodd" stroke="none"/>
  </g>
</svg>
