<?xml version="1.0" encoding="UTF-8" standalone="no"?>
<svg xmlns:ffdec="https://www.free-decompiler.com/flash" xmlns:xlink="http://www.w3.org/1999/xlink" ffdec:objectType="shape" height="34.0px" width="43.0px" xmlns="http://www.w3.org/2000/svg">
  <g transform="matrix(1.0, 0.0, 0.0, 1.0, 4.0, -14.45)">
    <path d="M37.0 16.45 L37.0 17.45 38.0 17.45 38.0 18.45 26.0 18.45 26.0 19.45 25.0 19.45 25.0 20.45 23.0 20.45 23.0 19.45 24.0 19.45 24.0 18.45 25.0 18.45 25.0 17.45 33.0 17.45 33.0 16.45 34.0 16.45 34.0 15.45 36.0 15.45 36.0 16.45 37.0 16.45 M11.0 21.45 L9.0 21.45 9.0 20.45 8.0 20.45 8.0 19.45 -3.0 19.45 -3.0 18.45 -2.0 18.45 -2.0 17.45 0.0 17.45 0.0 16.45 2.0 16.45 2.0 17.45 3.0 17.45 3.0 18.45 9.0 18.45 9.0 19.45 10.0 19.45 10.0 20.45 11.0 20.45 11.0 21.45 M13.0 22.45 L13.0 21.45 16.0 21.45 16.0 20.45 17.0 20.45 17.0 19.45 18.0 19.45 18.0 20.45 21.0 20.45 21.0 21.45 20.0 21.45 20.0 22.45 19.0 22.45 19.0 23.45 14.0 23.45 14.0 22.45 13.0 22.45" fill="#ffffff" fill-rule="evenodd" stroke="none"/>
    <path d="M39.0 19.45 L26.0 19.45 26.0 20.45 25.0 20.45 25.0 21.45 24.0 21.45 24.0 22.45 23.0 22.45 23.0 23.45 22.0 23.45 22.0 25.45 21.0 25.45 21.0 26.45 20.0 26.45 20.0 27.45 19.0 27.45 19.0 29.45 18.0 29.45 18.0 32.45 22.0 32.45 22.0 33.45 25.0 33.45 25.0 34.45 26.0 34.45 26.0 37.45 25.0 37.45 25.0 38.45 24.0 38.45 24.0 39.45 23.0 39.45 23.0 40.45 22.0 40.45 22.0 41.45 21.0 41.45 21.0 42.45 19.0 42.45 19.0 43.45 21.0 43.45 21.0 44.45 22.0 44.45 22.0 45.45 23.0 45.45 23.0 47.45 22.0 47.45 22.0 48.45 21.0 48.45 21.0 47.45 20.0 47.45 20.0 48.45 18.0 48.45 18.0 47.45 17.0 47.45 17.0 48.45 15.0 48.45 15.0 47.45 14.0 47.45 14.0 48.45 12.0 48.45 12.0 47.45 11.0 47.45 11.0 48.45 9.0 48.45 9.0 47.45 8.0 47.45 8.0 48.45 6.0 48.45 6.0 47.45 5.0 47.45 5.0 48.45 4.0 48.45 4.0 47.45 3.0 47.45 3.0 46.45 4.0 46.45 4.0 45.45 5.0 45.45 5.0 43.45 4.0 43.45 4.0 42.45 5.0 42.45 5.0 41.45 6.0 41.45 6.0 40.45 7.0 40.45 7.0 39.45 9.0 39.45 9.0 38.45 11.0 38.45 11.0 37.45 9.0 37.45 9.0 36.45 8.0 36.45 8.0 35.45 7.0 35.45 7.0 32.45 6.0 32.45 6.0 31.45 7.0 31.45 7.0 30.45 8.0 30.45 8.0 28.45 10.0 28.45 10.0 27.45 11.0 27.45 11.0 23.45 10.0 23.45 10.0 22.45 9.0 22.45 9.0 21.45 8.0 21.45 8.0 20.45 -4.0 20.45 -4.0 17.45 -3.0 17.45 -3.0 16.45 0.0 16.45 0.0 15.45 2.0 15.45 2.0 16.45 3.0 16.45 3.0 17.45 9.0 17.45 9.0 18.45 10.0 18.45 10.0 19.45 11.0 19.45 11.0 20.45 16.0 20.45 16.0 18.45 19.0 18.45 19.0 19.45 23.0 19.45 23.0 18.45 24.0 18.45 24.0 17.45 25.0 17.45 25.0 16.45 33.0 16.45 33.0 15.45 34.0 15.45 34.0 14.45 36.0 14.45 36.0 15.45 37.0 15.45 37.0 16.45 38.0 16.45 38.0 17.45 39.0 17.45 39.0 19.45 M23.0 20.45 L25.0 20.45 25.0 19.45 26.0 19.45 26.0 18.45 38.0 18.45 38.0 17.45 37.0 17.45 37.0 16.45 36.0 16.45 36.0 15.45 34.0 15.45 34.0 16.45 33.0 16.45 33.0 17.45 25.0 17.45 25.0 18.45 24.0 18.45 24.0 19.45 23.0 19.45 23.0 20.45 22.0 20.45 22.0 22.45 21.0 22.45 21.0 23.45 19.0 23.45 19.0 22.45 20.0 22.45 20.0 21.45 21.0 21.45 21.0 20.45 18.0 20.45 18.0 19.45 17.0 19.45 17.0 20.45 16.0 20.45 16.0 21.45 13.0 21.45 13.0 22.45 12.0 22.45 12.0 21.45 11.0 21.45 11.0 22.45 12.0 22.45 12.0 26.45 13.0 26.45 13.0 27.45 11.0 27.45 11.0 28.45 13.0 28.45 13.0 29.45 9.0 29.45 9.0 30.45 8.0 30.45 8.0 31.45 12.0 31.45 12.0 32.45 16.0 32.45 16.0 31.45 17.0 31.45 17.0 29.45 18.0 29.45 18.0 27.45 19.0 27.45 19.0 26.45 20.0 26.45 20.0 25.45 21.0 25.45 21.0 23.45 22.0 23.45 22.0 22.45 23.0 22.45 23.0 20.45 M12.0 32.45 L8.0 32.45 8.0 34.45 9.0 34.45 9.0 36.45 15.0 36.45 15.0 34.45 16.0 34.45 16.0 33.45 12.0 33.45 12.0 32.45 M11.0 21.45 L11.0 20.45 10.0 20.45 10.0 19.45 9.0 19.45 9.0 18.45 3.0 18.45 3.0 17.45 2.0 17.45 2.0 16.45 0.0 16.45 0.0 17.45 -2.0 17.45 -2.0 18.45 -3.0 18.45 -3.0 19.45 8.0 19.45 8.0 20.45 9.0 20.45 9.0 21.45 11.0 21.45 M14.0 23.45 L13.0 23.45 13.0 22.45 14.0 22.45 14.0 23.45 19.0 23.45 19.0 24.45 14.0 24.45 14.0 23.45 M13.0 29.45 L15.0 29.45 15.0 30.45 13.0 30.45 13.0 29.45 M15.0 30.45 L16.0 30.45 16.0 31.45 15.0 31.45 15.0 30.45 M4.0 46.45 L4.0 47.45 5.0 47.45 5.0 46.45 4.0 46.45 M6.0 47.45 L8.0 47.45 8.0 46.45 6.0 46.45 6.0 47.45 M24.0 38.45 L24.0 37.45 19.0 37.45 19.0 38.45 18.0 38.45 18.0 37.45 13.0 37.45 13.0 38.45 12.0 38.45 12.0 39.45 11.0 39.45 11.0 40.45 10.0 40.45 10.0 41.45 14.0 41.45 14.0 40.45 15.0 40.45 15.0 39.45 16.0 39.45 16.0 38.45 18.0 38.45 18.0 39.45 17.0 39.45 17.0 40.45 16.0 40.45 16.0 41.45 20.0 41.45 20.0 40.45 21.0 40.45 21.0 39.45 22.0 39.45 22.0 38.45 24.0 38.45 M11.0 47.45 L11.0 46.45 9.0 46.45 9.0 47.45 11.0 47.45 M12.0 47.45 L14.0 47.45 14.0 46.45 12.0 46.45 12.0 47.45 M15.0 47.45 L16.0 47.45 16.0 46.45 15.0 46.45 15.0 47.45 M20.0 34.45 L20.0 36.45 21.0 36.45 21.0 34.45 22.0 34.45 22.0 33.45 19.0 33.45 19.0 34.45 20.0 34.45 M18.0 47.45 L20.0 47.45 20.0 46.45 18.0 46.45 18.0 47.45 M21.0 47.45 L22.0 47.45 22.0 46.45 21.0 46.45 21.0 47.45" fill="#000000" fill-rule="evenodd" stroke="none"/>
    <path d="M23.0 20.45 L23.0 22.45 22.0 22.45 22.0 23.45 21.0 23.45 21.0 25.45 20.0 25.45 20.0 26.45 19.0 26.45 19.0 27.45 18.0 27.45 18.0 29.45 17.0 29.45 17.0 31.45 16.0 31.45 16.0 30.45 15.0 30.45 15.0 29.45 13.0 29.45 13.0 28.45 11.0 28.45 11.0 27.45 13.0 27.45 13.0 26.45 12.0 26.45 12.0 22.45 11.0 22.45 11.0 21.45 12.0 21.45 12.0 22.45 13.0 22.45 13.0 23.45 14.0 23.45 14.0 24.45 19.0 24.45 19.0 23.45 21.0 23.45 21.0 22.45 22.0 22.45 22.0 20.45 23.0 20.45 M12.0 32.45 L12.0 33.45 16.0 33.45 16.0 34.45 15.0 34.45 15.0 36.45 9.0 36.45 9.0 34.45 8.0 34.45 8.0 32.45 12.0 32.45 M24.0 38.45 L22.0 38.45 22.0 39.45 21.0 39.45 21.0 40.45 20.0 40.45 20.0 41.45 16.0 41.45 16.0 40.45 17.0 40.45 17.0 39.45 18.0 39.45 18.0 38.45 16.0 38.45 16.0 39.45 15.0 39.45 15.0 40.45 14.0 40.45 14.0 41.45 10.0 41.45 10.0 40.45 11.0 40.45 11.0 39.45 12.0 39.45 12.0 38.45 13.0 38.45 13.0 37.45 18.0 37.45 18.0 38.45 19.0 38.45 19.0 37.45 24.0 37.45 24.0 38.45 M20.0 34.45 L19.0 34.45 19.0 33.45 22.0 33.45 22.0 34.45 21.0 34.45 21.0 36.45 20.0 36.45 20.0 34.45" fill="#777777" fill-rule="evenodd" stroke="none"/>
    <path d="M16.0 31.45 L16.0 32.45 12.0 32.45 12.0 31.45 8.0 31.45 8.0 30.45 9.0 30.45 9.0 29.45 13.0 29.45 13.0 30.45 15.0 30.45 15.0 31.45 16.0 31.45 M6.0 47.45 L6.0 46.45 8.0 46.45 8.0 47.45 6.0 47.45 M4.0 46.45 L5.0 46.45 5.0 47.45 4.0 47.45 4.0 46.45 M11.0 47.45 L9.0 47.45 9.0 46.45 11.0 46.45 11.0 47.45 M15.0 47.45 L15.0 46.45 16.0 46.45 16.0 47.45 15.0 47.45 M12.0 47.45 L12.0 46.45 14.0 46.45 14.0 47.45 12.0 47.45 M21.0 47.45 L21.0 46.45 22.0 46.45 22.0 47.45 21.0 47.45 M18.0 47.45 L18.0 46.45 20.0 46.45 20.0 47.45 18.0 47.45" fill="#d1d1d1" fill-rule="evenodd" stroke="none"/>
  </g>
</svg>
