<?xml version="1.0" encoding="UTF-8" standalone="no"?>
<svg xmlns:ffdec="https://www.free-decompiler.com/flash" xmlns:xlink="http://www.w3.org/1999/xlink" ffdec:objectType="shape" height="35.0px" width="20.0px" xmlns="http://www.w3.org/2000/svg">
  <g transform="matrix(1.0, 0.0, 0.0, 1.0, 10.0, 0.05)">
    <path d="M-5.0 2.95 L-5.0 -0.05 -2.0 -0.05 -2.0 1.95 -1.0 1.95 -1.0 2.95 -3.0 2.95 -3.0 0.95 -4.0 0.95 -4.0 2.95 -5.0 2.95 -5.0 3.95 -6.0 3.95 -6.0 4.95 -4.0 4.95 -4.0 3.95 -3.0 3.95 -1.0 3.95 -1.0 2.95 0.0 2.95 0.0 10.95 1.0 10.95 1.0 11.95 2.0 11.95 2.0 13.95 3.0 13.95 3.0 14.95 4.0 14.95 4.0 15.95 3.0 15.95 3.0 21.95 4.0 21.95 4.0 23.95 5.0 23.95 5.0 24.95 6.0 24.95 6.0 25.95 7.0 25.95 7.0 27.95 8.0 27.95 8.0 31.95 9.0 31.95 9.0 32.95 10.0 32.95 10.0 33.95 9.0 33.95 9.0 34.95 8.0 34.95 8.0 33.95 7.0 33.95 7.0 34.95 5.0 34.95 5.0 33.95 4.0 33.95 4.0 34.95 2.0 34.95 2.0 33.95 1.0 33.95 1.0 34.95 -1.0 34.95 -1.0 33.95 -2.0 33.95 -2.0 34.95 -3.0 34.95 -3.0 33.95 -4.0 33.95 -4.0 32.95 -3.0 32.95 -3.0 31.95 -2.0 31.95 -2.0 28.95 -4.0 28.95 -4.0 27.95 -5.0 27.95 -5.0 26.95 -6.0 26.95 -6.0 25.95 -7.0 25.95 -7.0 24.95 -8.0 24.95 -8.0 23.95 -9.0 23.95 -9.0 20.95 -8.0 20.95 -8.0 18.95 -7.0 18.95 -7.0 17.95 -6.0 17.95 -6.0 15.95 -7.0 15.95 -7.0 14.95 -10.0 14.95 -10.0 11.95 -6.0 11.95 -6.0 10.95 -5.0 10.95 -5.0 8.95 -6.0 8.95 -6.0 7.95 -7.0 7.95 -7.0 3.95 -6.0 3.95 -6.0 2.95 -5.0 2.95 M0.0 10.95 L-1.0 10.95 -1.0 11.95 0.0 11.95 0.0 10.95 M1.0 12.95 L-1.0 12.95 -1.0 11.95 -2.0 11.95 -2.0 12.95 -3.0 12.95 -3.0 14.95 2.0 14.95 2.0 13.95 1.0 13.95 1.0 12.95 M-1.0 19.95 L0.0 19.95 0.0 21.95 2.0 21.95 2.0 15.95 -1.0 15.95 -1.0 19.95 -3.0 19.95 -3.0 18.95 -2.0 18.95 -2.0 15.95 -3.0 15.95 -3.0 16.95 -5.0 16.95 -5.0 17.95 -6.0 17.95 -6.0 18.95 -7.0 18.95 -7.0 21.95 -6.0 21.95 -6.0 20.95 -4.0 20.95 -4.0 21.95 -3.0 21.95 -3.0 22.95 -6.0 22.95 -6.0 25.95 -5.0 25.95 -5.0 26.95 -4.0 26.95 -4.0 27.95 -2.0 27.95 -2.0 26.95 0.0 26.95 0.0 25.95 -1.0 25.95 -1.0 24.95 -2.0 24.95 -2.0 23.95 -1.0 23.95 -1.0 19.95 M1.0 23.95 L1.0 26.95 2.0 26.95 2.0 28.95 4.0 28.95 4.0 27.95 6.0 27.95 6.0 25.95 5.0 25.95 5.0 24.95 4.0 24.95 4.0 23.95 1.0 23.95 M5.0 33.95 L7.0 33.95 7.0 32.95 5.0 32.95 5.0 33.95 M2.0 33.95 L4.0 33.95 4.0 32.95 2.0 32.95 2.0 33.95 M1.0 32.95 L-1.0 32.95 -1.0 33.95 1.0 33.95 1.0 32.95 M8.0 33.95 L9.0 33.95 9.0 32.95 8.0 32.95 8.0 33.95 M-4.0 5.95 L-1.0 5.95 -1.0 4.95 -4.0 4.95 -4.0 5.95 -6.0 5.95 -6.0 7.95 -5.0 7.95 -5.0 6.95 -4.0 6.95 -4.0 5.95 M-4.0 6.95 L-4.0 7.95 -2.0 7.95 -2.0 6.95 -4.0 6.95 M-5.0 10.95 L-5.0 12.95 -9.0 12.95 -9.0 13.95 -6.0 13.95 -6.0 14.95 -5.0 14.95 -5.0 15.95 -4.0 15.95 -4.0 12.95 -3.0 12.95 -3.0 10.95 -5.0 10.95 M-4.0 20.95 L-4.0 19.95 -3.0 19.95 -3.0 20.95 -4.0 20.95 M-2.0 23.95 L-3.0 23.95 -3.0 22.95 -2.0 22.95 -2.0 23.95 M-2.0 32.95 L-3.0 32.95 -3.0 33.95 -2.0 33.95 -2.0 32.95" fill="#000000" fill-rule="evenodd" stroke="none"/>
    <path d="M-5.0 2.95 L-4.0 2.95 -4.0 0.95 -3.0 0.95 -3.0 2.95 -3.0 3.95 -4.0 3.95 -4.0 4.95 -6.0 4.95 -6.0 3.95 -5.0 3.95 -5.0 2.95" fill="#ffffff" fill-rule="evenodd" stroke="none"/>
    <path d="M0.0 10.95 L0.0 11.95 -1.0 11.95 -1.0 10.95 0.0 10.95 M-1.0 19.95 L-1.0 15.95 2.0 15.95 2.0 21.95 0.0 21.95 0.0 19.95 -1.0 19.95 M-2.0 23.95 L-2.0 24.95 -1.0 24.95 -1.0 25.95 0.0 25.95 0.0 26.95 -2.0 26.95 -2.0 27.95 -4.0 27.95 -4.0 26.95 -5.0 26.95 -5.0 25.95 -6.0 25.95 -6.0 22.95 -3.0 22.95 -3.0 23.95 -2.0 23.95 M-4.0 20.95 L-6.0 20.95 -6.0 21.95 -7.0 21.95 -7.0 18.95 -6.0 18.95 -6.0 17.95 -5.0 17.95 -5.0 16.95 -3.0 16.95 -3.0 15.95 -2.0 15.95 -2.0 18.95 -3.0 18.95 -3.0 19.95 -4.0 19.95 -4.0 20.95 M1.0 23.95 L4.0 23.95 4.0 24.95 5.0 24.95 5.0 25.95 6.0 25.95 6.0 27.95 4.0 27.95 4.0 28.95 2.0 28.95 2.0 26.95 1.0 26.95 1.0 23.95 M-4.0 5.95 L-4.0 4.95 -1.0 4.95 -1.0 5.95 -4.0 5.95 -4.0 6.95 -5.0 6.95 -5.0 7.95 -6.0 7.95 -6.0 5.95 -4.0 5.95" fill="#777777" fill-rule="evenodd" stroke="none"/>
    <path d="M-3.0 2.95 L-1.0 2.95 -1.0 3.95 -3.0 3.95 -3.0 2.95 M-4.0 6.95 L-2.0 6.95 -2.0 7.95 -4.0 7.95 -4.0 6.95 M-5.0 10.95 L-3.0 10.95 -3.0 12.95 -4.0 12.95 -4.0 15.95 -5.0 15.95 -5.0 14.95 -6.0 14.95 -6.0 13.95 -9.0 13.95 -9.0 12.95 -5.0 12.95 -5.0 10.95" fill="#f9f9f9" fill-rule="evenodd" stroke="none"/>
    <path d="M1.0 12.95 L1.0 13.95 2.0 13.95 2.0 14.95 -3.0 14.95 -3.0 12.95 -2.0 12.95 -2.0 11.95 -1.0 11.95 -1.0 12.95 1.0 12.95 M5.0 33.95 L5.0 32.95 7.0 32.95 7.0 33.95 5.0 33.95 M2.0 33.95 L2.0 32.95 4.0 32.95 4.0 33.95 2.0 33.95 M8.0 33.95 L8.0 32.95 9.0 32.95 9.0 33.95 8.0 33.95 M1.0 32.95 L1.0 33.95 -1.0 33.95 -1.0 32.95 1.0 32.95 M-2.0 32.95 L-2.0 33.95 -3.0 33.95 -3.0 32.95 -2.0 32.95" fill="#d1d1d1" fill-rule="evenodd" stroke="none"/>
  </g>
</svg>
