<?xml version="1.0" encoding="UTF-8" standalone="no"?>
<svg xmlns:ffdec="https://www.free-decompiler.com/flash" xmlns:xlink="http://www.w3.org/1999/xlink" ffdec:objectType="shape" height="35.0px" width="34.0px" xmlns="http://www.w3.org/2000/svg">
  <g transform="matrix(1.0, 0.0, 0.0, 1.0, 15.0, 0.05)">
    <path d="M-2.0 -0.05 L-2.0 1.95 -1.0 1.95 -1.0 3.95 0.0 3.95 0.0 4.95 1.0 4.95 1.0 5.95 3.0 5.95 3.0 8.95 4.0 8.95 4.0 12.95 5.0 12.95 5.0 14.95 4.0 14.95 4.0 17.95 5.0 17.95 5.0 18.95 6.0 18.95 6.0 20.95 8.0 20.95 8.0 21.95 12.0 21.95 12.0 22.95 16.0 22.95 16.0 21.95 17.0 21.95 17.0 20.95 18.0 20.95 18.0 21.95 19.0 21.95 19.0 22.95 18.0 22.95 18.0 23.95 19.0 23.95 19.0 25.95 18.0 25.95 18.0 26.95 19.0 26.95 19.0 28.95 18.0 28.95 18.0 29.95 19.0 29.95 19.0 31.95 18.0 31.95 18.0 32.95 19.0 32.95 19.0 33.95 18.0 33.95 18.0 34.95 17.0 34.95 17.0 33.95 16.0 33.95 16.0 32.95 14.0 32.95 14.0 31.95 13.0 31.95 13.0 28.95 11.0 28.95 11.0 27.95 10.0 27.95 10.0 26.95 9.0 26.95 9.0 25.95 8.0 25.95 8.0 24.95 4.0 24.95 4.0 22.95 3.0 22.95 3.0 21.95 2.0 21.95 2.0 20.95 1.0 20.95 1.0 19.95 -2.0 19.95 -2.0 20.95 -3.0 20.95 -3.0 22.95 -4.0 22.95 -4.0 24.95 -3.0 24.95 -3.0 25.95 -2.0 25.95 -2.0 26.95 -1.0 26.95 -1.0 31.95 0.0 31.95 0.0 32.95 1.0 32.95 1.0 33.95 0.0 33.95 0.0 34.95 -1.0 34.95 -1.0 33.95 -2.0 33.95 -2.0 34.95 -4.0 34.95 -4.0 33.95 -5.0 33.95 -5.0 34.95 -7.0 34.95 -7.0 33.95 -8.0 33.95 -8.0 34.95 -10.0 34.95 -10.0 33.95 -11.0 33.95 -11.0 34.95 -12.0 34.95 -12.0 33.95 -13.0 33.95 -13.0 32.95 -12.0 32.95 -12.0 31.95 -11.0 31.95 -11.0 29.95 -10.0 29.95 -10.0 28.95 -8.0 28.95 -8.0 27.95 -7.0 27.95 -7.0 25.95 -8.0 25.95 -8.0 24.95 -9.0 24.95 -9.0 22.95 -8.0 22.95 -8.0 21.95 -7.0 21.95 -7.0 19.95 -6.0 19.95 -6.0 17.95 -5.0 17.95 -5.0 16.95 -4.0 16.95 -4.0 15.95 -6.0 15.95 -6.0 14.95 -5.0 14.95 -5.0 11.95 -7.0 11.95 -7.0 12.95 -8.0 12.95 -8.0 14.95 -9.0 14.95 -9.0 15.95 -11.0 15.95 -11.0 14.95 -12.0 14.95 -12.0 13.95 -15.0 13.95 -15.0 10.95 -9.0 10.95 -9.0 9.95 -8.0 9.95 -8.0 8.95 -7.0 8.95 -7.0 3.95 -6.0 3.95 -6.0 2.95 -5.0 2.95 -5.0 -0.05 -2.0 -0.05 M-4.0 0.95 L-4.0 1.95 -3.0 1.95 -3.0 0.95 -4.0 0.95 M-5.0 4.95 L-5.0 5.95 -3.0 5.95 -3.0 8.95 -4.0 8.95 -4.0 10.95 -1.0 10.95 -1.0 11.95 0.0 11.95 0.0 10.95 -1.0 10.95 -1.0 8.95 -2.0 8.95 -2.0 5.95 -3.0 5.95 -3.0 4.95 -5.0 4.95 -5.0 3.95 -2.0 3.95 -2.0 2.95 -5.0 2.95 -5.0 3.95 -6.0 3.95 -6.0 4.95 -5.0 4.95 M2.0 13.95 L1.0 13.95 1.0 12.95 -1.0 12.95 -1.0 11.95 -4.0 11.95 -4.0 14.95 2.0 14.95 2.0 13.95 3.0 13.95 3.0 14.95 4.0 14.95 4.0 12.95 3.0 12.95 3.0 8.95 1.0 8.95 1.0 9.95 1.0 10.95 2.0 10.95 2.0 13.95 M-4.0 8.95 L-4.0 6.95 -6.0 6.95 -6.0 7.95 -5.0 7.95 -5.0 8.95 -4.0 8.95 M0.0 5.95 L0.0 4.95 -1.0 4.95 -1.0 5.95 -1.0 6.95 0.0 6.95 0.0 5.95 M-8.0 10.95 L-9.0 10.95 -9.0 11.95 -14.0 11.95 -14.0 12.95 -11.0 12.95 -11.0 13.95 -10.0 13.95 -10.0 14.95 -9.0 14.95 -9.0 13.95 -9.0 12.95 -8.0 12.95 -8.0 11.95 -7.0 11.95 -7.0 10.95 -8.0 10.95 M-5.0 17.95 L-5.0 19.95 -6.0 19.95 -6.0 21.95 -7.0 21.95 -7.0 22.95 -4.0 22.95 -4.0 20.95 -3.0 20.95 -3.0 19.95 -2.0 19.95 -2.0 18.95 -1.0 18.95 -1.0 17.95 0.0 17.95 0.0 16.95 1.0 16.95 1.0 17.95 0.0 17.95 0.0 18.95 1.0 18.95 1.0 19.95 2.0 19.95 2.0 20.95 3.0 20.95 3.0 21.95 4.0 21.95 4.0 22.95 5.0 22.95 5.0 21.95 6.0 21.95 6.0 20.95 5.0 20.95 5.0 18.95 4.0 18.95 4.0 17.95 3.0 17.95 3.0 15.95 -3.0 15.95 -3.0 16.95 -4.0 16.95 -4.0 17.95 -5.0 17.95 M-3.0 25.95 L-4.0 25.95 -4.0 24.95 -6.0 24.95 -6.0 27.95 -7.0 27.95 -7.0 28.95 -2.0 28.95 -2.0 26.95 -3.0 26.95 -3.0 25.95 M-7.0 33.95 L-5.0 33.95 -5.0 32.95 -7.0 32.95 -7.0 33.95 M-8.0 32.95 L-10.0 32.95 -10.0 33.95 -8.0 33.95 -8.0 32.95 M-1.0 33.95 L0.0 33.95 0.0 32.95 -1.0 32.95 -1.0 33.95 M-12.0 32.95 L-12.0 33.95 -11.0 33.95 -11.0 32.95 -12.0 32.95 M-4.0 33.95 L-2.0 33.95 -2.0 32.95 -4.0 32.95 -4.0 33.95 M8.0 24.95 L9.0 24.95 9.0 25.95 10.0 25.95 10.0 26.95 11.0 26.95 11.0 27.95 12.0 27.95 12.0 22.95 8.0 22.95 8.0 21.95 7.0 21.95 7.0 23.95 8.0 23.95 8.0 24.95 M17.0 22.95 L18.0 22.95 18.0 21.95 17.0 21.95 17.0 22.95 M18.0 32.95 L17.0 32.95 17.0 33.95 18.0 33.95 18.0 32.95 M18.0 28.95 L18.0 26.95 17.0 26.95 17.0 28.95 18.0 28.95 M18.0 31.95 L18.0 29.95 17.0 29.95 17.0 31.95 18.0 31.95 M18.0 25.95 L18.0 23.95 17.0 23.95 17.0 25.95 18.0 25.95" fill="#000000" fill-rule="evenodd" stroke="none"/>
    <path d="M-4.0 0.95 L-3.0 0.95 -3.0 1.95 -4.0 1.95 -4.0 0.95 M-5.0 4.95 L-6.0 4.95 -6.0 3.95 -5.0 3.95 -5.0 2.95 -2.0 2.95 -2.0 3.95 -5.0 3.95 -5.0 4.95 M-1.0 5.95 L0.0 5.95 0.0 6.95 -1.0 6.95 -1.0 5.95" fill="#ffffff" fill-rule="evenodd" stroke="none"/>
    <path d="M2.0 10.95 L1.0 10.95 1.0 9.95 2.0 9.95 2.0 10.95 M-1.0 5.95 L-1.0 4.95 0.0 4.95 0.0 5.95 -1.0 5.95 M-8.0 11.95 L-8.0 10.95 -7.0 10.95 -7.0 11.95 -8.0 11.95" fill="#fafafa" fill-rule="evenodd" stroke="none"/>
    <path d="M-4.0 8.95 L-3.0 8.95 -3.0 5.95 -5.0 5.95 -5.0 4.95 -3.0 4.95 -3.0 5.95 -2.0 5.95 -2.0 8.95 -1.0 8.95 -1.0 10.95 0.0 10.95 0.0 11.95 -1.0 11.95 -1.0 10.95 -4.0 10.95 -4.0 8.95 M-5.0 17.95 L-4.0 17.95 -4.0 16.95 -3.0 16.95 -3.0 15.95 3.0 15.95 3.0 17.95 4.0 17.95 4.0 18.95 5.0 18.95 5.0 20.95 6.0 20.95 6.0 21.95 5.0 21.95 5.0 22.95 4.0 22.95 4.0 21.95 3.0 21.95 3.0 20.95 2.0 20.95 2.0 19.95 1.0 19.95 1.0 18.95 0.0 18.95 0.0 17.95 1.0 17.95 1.0 16.95 0.0 16.95 0.0 17.95 -1.0 17.95 -1.0 18.95 -2.0 18.95 -2.0 19.95 -3.0 19.95 -3.0 20.95 -4.0 20.95 -4.0 22.95 -7.0 22.95 -7.0 21.95 -6.0 21.95 -6.0 19.95 -5.0 19.95 -5.0 17.95 M-3.0 25.95 L-3.0 26.95 -2.0 26.95 -2.0 28.95 -7.0 28.95 -7.0 27.95 -6.0 27.95 -6.0 24.95 -4.0 24.95 -4.0 25.95 -3.0 25.95 M8.0 24.95 L8.0 23.95 7.0 23.95 7.0 21.95 8.0 21.95 8.0 22.95 12.0 22.95 12.0 27.95 11.0 27.95 11.0 26.95 10.0 26.95 10.0 25.95 9.0 25.95 9.0 24.95 8.0 24.95" fill="#777777" fill-rule="evenodd" stroke="none"/>
    <path d="M2.0 13.95 L2.0 10.95 2.0 9.95 1.0 9.95 1.0 8.95 3.0 8.95 3.0 12.95 4.0 12.95 4.0 14.95 3.0 14.95 3.0 13.95 2.0 13.95 M-4.0 8.95 L-5.0 8.95 -5.0 7.95 -6.0 7.95 -6.0 6.95 -4.0 6.95 -4.0 8.95 M-10.0 13.95 L-11.0 13.95 -11.0 12.95 -14.0 12.95 -14.0 11.95 -9.0 11.95 -9.0 10.95 -8.0 10.95 -8.0 11.95 -8.0 12.95 -9.0 12.95 -9.0 13.95 -10.0 13.95" fill="#f9f9f9" fill-rule="evenodd" stroke="none"/>
    <path d="M-1.0 11.95 L-1.0 12.95 1.0 12.95 1.0 13.95 2.0 13.95 2.0 14.95 -4.0 14.95 -4.0 11.95 -1.0 11.95 M-7.0 33.95 L-7.0 32.95 -5.0 32.95 -5.0 33.95 -7.0 33.95 M-1.0 33.95 L-1.0 32.95 0.0 32.95 0.0 33.95 -1.0 33.95 M-8.0 32.95 L-8.0 33.95 -10.0 33.95 -10.0 32.95 -8.0 32.95 M-4.0 33.95 L-4.0 32.95 -2.0 32.95 -2.0 33.95 -4.0 33.95 M-12.0 32.95 L-11.0 32.95 -11.0 33.95 -12.0 33.95 -12.0 32.95 M17.0 22.95 L17.0 21.95 18.0 21.95 18.0 22.95 17.0 22.95 M18.0 25.95 L17.0 25.95 17.0 23.95 18.0 23.95 18.0 25.95 M18.0 31.95 L17.0 31.95 17.0 29.95 18.0 29.95 18.0 31.95 M18.0 28.95 L17.0 28.95 17.0 26.95 18.0 26.95 18.0 28.95 M18.0 32.95 L18.0 33.95 17.0 33.95 17.0 32.95 18.0 32.95" fill="#d1d1d1" fill-rule="evenodd" stroke="none"/>
    <path d="M-10.0 13.95 L-9.0 13.95 -9.0 14.95 -10.0 14.95 -10.0 13.95" fill="#f8f8f8" fill-rule="evenodd" stroke="none"/>
  </g>
</svg>
