<?xml version="1.0" encoding="UTF-8" standalone="no"?>
<svg xmlns:ffdec="https://www.free-decompiler.com/flash" xmlns:xlink="http://www.w3.org/1999/xlink" ffdec:objectType="shape" height="35.0px" width="26.0px" xmlns="http://www.w3.org/2000/svg">
  <g transform="matrix(1.0, 0.0, 0.0, 1.0, 11.0, 0.05)">
    <path d="M-2.0 -0.05 L-2.0 1.95 -1.0 1.95 -1.0 6.95 0.0 6.95 0.0 10.95 1.0 10.95 1.0 11.95 2.0 11.95 2.0 13.95 3.0 13.95 3.0 14.95 4.0 14.95 4.0 15.95 3.0 15.95 3.0 20.95 4.0 20.95 4.0 21.95 9.0 21.95 9.0 22.95 12.0 22.95 12.0 21.95 13.0 21.95 13.0 20.95 14.0 20.95 14.0 21.95 15.0 21.95 15.0 22.95 14.0 22.95 14.0 23.95 15.0 23.95 15.0 25.95 14.0 25.95 14.0 26.95 15.0 26.95 15.0 28.95 14.0 28.95 14.0 29.95 15.0 29.95 15.0 31.95 14.0 31.95 14.0 32.95 15.0 32.95 15.0 33.95 14.0 33.95 14.0 34.95 13.0 34.95 13.0 33.95 12.0 33.95 12.0 32.95 10.0 32.95 10.0 31.95 9.0 31.95 9.0 28.95 7.0 28.95 7.0 27.95 6.0 27.95 6.0 26.95 5.0 26.95 5.0 25.95 4.0 25.95 4.0 24.95 0.0 24.95 0.0 26.95 1.0 26.95 1.0 31.95 2.0 31.95 2.0 32.95 3.0 32.95 3.0 33.95 2.0 33.95 2.0 34.95 1.0 34.95 1.0 33.95 0.0 33.95 0.0 34.95 -2.0 34.95 -2.0 33.95 -3.0 33.95 -3.0 34.95 -5.0 34.95 -5.0 33.95 -6.0 33.95 -6.0 34.95 -8.0 34.95 -8.0 33.95 -9.0 33.95 -9.0 34.95 -10.0 34.95 -10.0 33.95 -11.0 33.95 -11.0 32.95 -10.0 32.95 -10.0 31.95 -9.0 31.95 -9.0 29.95 -8.0 29.95 -8.0 28.95 -6.0 28.95 -6.0 27.95 -5.0 27.95 -5.0 25.95 -4.0 25.95 -4.0 24.95 -5.0 24.95 -5.0 23.95 -6.0 23.95 -6.0 21.95 -5.0 21.95 -5.0 20.95 -4.0 20.95 -4.0 16.95 -7.0 16.95 -7.0 15.95 -8.0 15.95 -8.0 14.95 -11.0 14.95 -11.0 11.95 -7.0 11.95 -7.0 10.95 -6.0 10.95 -6.0 7.95 -7.0 7.95 -7.0 3.95 -6.0 3.95 -6.0 2.95 -5.0 2.95 -5.0 -0.05 -2.0 -0.05 M-4.0 2.95 L-5.0 2.95 -5.0 3.95 -4.0 3.95 -2.0 3.95 -2.0 2.95 -4.0 2.95 M-3.0 0.95 L-4.0 0.95 -4.0 1.95 -3.0 1.95 -3.0 0.95 M-5.0 4.95 L-5.0 5.95 -6.0 5.95 -6.0 6.95 -5.0 6.95 -5.0 5.95 -2.0 5.95 -2.0 4.95 -5.0 4.95 -5.0 3.95 -6.0 3.95 -6.0 4.95 -5.0 4.95 M-5.0 6.95 L-5.0 7.95 -3.0 7.95 -3.0 6.95 -5.0 6.95 M-3.0 11.95 L-3.0 12.95 -4.0 12.95 -4.0 14.95 2.0 14.95 2.0 13.95 1.0 13.95 1.0 12.95 -1.0 12.95 -1.0 11.95 -3.0 11.95 M-1.0 11.95 L0.0 11.95 0.0 10.95 -1.0 10.95 -1.0 11.95 M-6.0 10.95 L-6.0 12.95 -10.0 12.95 -10.0 13.95 -7.0 13.95 -7.0 14.95 -6.0 14.95 -6.0 15.95 -5.0 15.95 -5.0 12.95 -4.0 12.95 -4.0 10.95 -6.0 10.95 M-1.0 16.95 L-1.0 20.95 0.0 20.95 0.0 22.95 1.0 22.95 1.0 21.95 3.0 21.95 3.0 20.95 2.0 20.95 2.0 15.95 -3.0 15.95 -3.0 21.95 -1.0 21.95 -1.0 20.95 -2.0 20.95 -2.0 16.95 -1.0 16.95 M-3.0 23.95 L-3.0 25.95 -4.0 25.95 -4.0 27.95 -5.0 27.95 -5.0 28.95 0.0 28.95 0.0 26.95 -1.0 26.95 -1.0 23.95 -3.0 23.95 M-1.0 23.95 L0.0 23.95 0.0 22.95 -1.0 22.95 -1.0 23.95 M-6.0 32.95 L-8.0 32.95 -8.0 33.95 -6.0 33.95 -6.0 32.95 M-9.0 33.95 L-9.0 32.95 -10.0 32.95 -10.0 33.95 -9.0 33.95 M-2.0 33.95 L0.0 33.95 0.0 32.95 -2.0 32.95 -2.0 33.95 M-3.0 33.95 L-3.0 32.95 -5.0 32.95 -5.0 33.95 -3.0 33.95 M4.0 21.95 L3.0 21.95 3.0 23.95 4.0 23.95 4.0 24.95 5.0 24.95 5.0 25.95 6.0 25.95 6.0 26.95 7.0 26.95 7.0 27.95 8.0 27.95 8.0 22.95 4.0 22.95 4.0 21.95 M14.0 21.95 L13.0 21.95 13.0 22.95 14.0 22.95 14.0 21.95 M13.0 23.95 L13.0 25.95 14.0 25.95 14.0 23.95 13.0 23.95 M13.0 26.95 L13.0 28.95 14.0 28.95 14.0 26.95 13.0 26.95 M13.0 29.95 L13.0 31.95 14.0 31.95 14.0 29.95 13.0 29.95 M13.0 33.95 L14.0 33.95 14.0 32.95 13.0 32.95 13.0 33.95 M2.0 32.95 L1.0 32.95 1.0 33.95 2.0 33.95 2.0 32.95" fill="#000000" fill-rule="evenodd" stroke="none"/>
    <path d="M-4.0 3.95 L-5.0 3.95 -5.0 2.95 -4.0 2.95 -4.0 3.95 M-3.0 0.95 L-3.0 1.95 -4.0 1.95 -4.0 0.95 -3.0 0.95 M-5.0 4.95 L-6.0 4.95 -6.0 3.95 -5.0 3.95 -5.0 4.95" fill="#ffffff" fill-rule="evenodd" stroke="none"/>
    <path d="M-5.0 6.95 L-6.0 6.95 -6.0 5.95 -5.0 5.95 -5.0 4.95 -2.0 4.95 -2.0 5.95 -5.0 5.95 -5.0 6.95 M-1.0 11.95 L-1.0 10.95 0.0 10.95 0.0 11.95 -1.0 11.95 M-3.0 23.95 L-1.0 23.95 -1.0 26.95 0.0 26.95 0.0 28.95 -5.0 28.95 -5.0 27.95 -4.0 27.95 -4.0 25.95 -3.0 25.95 -3.0 23.95 M-1.0 16.95 L-2.0 16.95 -2.0 20.95 -1.0 20.95 -1.0 21.95 -3.0 21.95 -3.0 15.95 2.0 15.95 2.0 20.95 3.0 20.95 3.0 21.95 1.0 21.95 1.0 22.95 0.0 22.95 0.0 20.95 -1.0 20.95 -1.0 16.95 M4.0 21.95 L4.0 22.95 8.0 22.95 8.0 27.95 7.0 27.95 7.0 26.95 6.0 26.95 6.0 25.95 5.0 25.95 5.0 24.95 4.0 24.95 4.0 23.95 3.0 23.95 3.0 21.95 4.0 21.95" fill="#777777" fill-rule="evenodd" stroke="none"/>
    <path d="M-4.0 3.95 L-4.0 2.95 -2.0 2.95 -2.0 3.95 -4.0 3.95 M-5.0 6.95 L-3.0 6.95 -3.0 7.95 -5.0 7.95 -5.0 6.95 M-6.0 10.95 L-4.0 10.95 -4.0 12.95 -5.0 12.95 -5.0 15.95 -6.0 15.95 -6.0 14.95 -7.0 14.95 -7.0 13.95 -10.0 13.95 -10.0 12.95 -6.0 12.95 -6.0 10.95" fill="#f9f9f9" fill-rule="evenodd" stroke="none"/>
    <path d="M-3.0 11.95 L-1.0 11.95 -1.0 12.95 1.0 12.95 1.0 13.95 2.0 13.95 2.0 14.95 -4.0 14.95 -4.0 12.95 -3.0 12.95 -3.0 11.95 M-2.0 33.95 L-2.0 32.95 0.0 32.95 0.0 33.95 -2.0 33.95 M-9.0 33.95 L-10.0 33.95 -10.0 32.95 -9.0 32.95 -9.0 33.95 M-6.0 32.95 L-6.0 33.95 -8.0 33.95 -8.0 32.95 -6.0 32.95 M-3.0 33.95 L-5.0 33.95 -5.0 32.95 -3.0 32.95 -3.0 33.95 M14.0 21.95 L14.0 22.95 13.0 22.95 13.0 21.95 14.0 21.95 M13.0 29.95 L14.0 29.95 14.0 31.95 13.0 31.95 13.0 29.95 M13.0 26.95 L14.0 26.95 14.0 28.95 13.0 28.95 13.0 26.95 M13.0 23.95 L14.0 23.95 14.0 25.95 13.0 25.95 13.0 23.95 M13.0 33.95 L13.0 32.95 14.0 32.95 14.0 33.95 13.0 33.95 M2.0 32.95 L2.0 33.95 1.0 33.95 1.0 32.95 2.0 32.95" fill="#d1d1d1" fill-rule="evenodd" stroke="none"/>
  </g>
</svg>
