<?xml version="1.0" encoding="UTF-8" standalone="no"?>
<svg xmlns:ffdec="https://www.free-decompiler.com/flash" xmlns:xlink="http://www.w3.org/1999/xlink" ffdec:objectType="shape" height="35.0px" width="23.0px" xmlns="http://www.w3.org/2000/svg">
  <g transform="matrix(1.0, 0.0, 0.0, 1.0, 13.0, 0.05)">
    <path d="M-2.0 -0.05 L-2.0 1.95 -1.0 1.95 -1.0 4.95 0.0 4.95 0.0 6.95 2.0 6.95 2.0 12.95 3.0 12.95 3.0 14.95 4.0 14.95 4.0 15.95 3.0 15.95 3.0 20.95 4.0 20.95 4.0 21.95 5.0 21.95 5.0 22.95 4.0 22.95 4.0 23.95 5.0 23.95 5.0 24.95 6.0 24.95 6.0 25.95 7.0 25.95 7.0 27.95 8.0 27.95 8.0 31.95 9.0 31.95 9.0 32.95 10.0 32.95 10.0 33.95 9.0 33.95 9.0 34.95 8.0 34.95 8.0 33.95 7.0 33.95 7.0 34.95 5.0 34.95 5.0 33.95 4.0 33.95 4.0 34.95 2.0 34.95 2.0 33.95 1.0 33.95 1.0 34.95 -1.0 34.95 -1.0 33.95 -2.0 33.95 -2.0 34.95 -3.0 34.95 -3.0 33.95 -4.0 33.95 -4.0 32.95 -3.0 32.95 -3.0 31.95 -2.0 31.95 -2.0 28.95 -4.0 28.95 -4.0 27.95 -5.0 27.95 -5.0 26.95 -6.0 26.95 -6.0 24.95 -9.0 24.95 -9.0 23.95 -10.0 23.95 -10.0 20.95 -9.0 20.95 -9.0 19.95 -8.0 19.95 -8.0 18.95 -7.0 18.95 -7.0 17.95 -6.0 17.95 -6.0 16.95 -9.0 16.95 -9.0 15.95 -10.0 15.95 -10.0 14.95 -13.0 14.95 -13.0 11.95 -9.0 11.95 -9.0 10.95 -8.0 10.95 -8.0 6.95 -7.0 6.95 -7.0 3.95 -6.0 3.95 -6.0 2.95 -5.0 2.95 -5.0 -0.05 -2.0 -0.05 M-3.0 1.95 L-3.0 0.95 -4.0 0.95 -4.0 1.95 -3.0 1.95 M-4.0 2.95 L-5.0 2.95 -5.0 3.95 -4.0 3.95 -2.0 3.95 -2.0 2.95 -4.0 2.95 M-4.0 5.95 L-1.0 5.95 -1.0 4.95 -4.0 4.95 -4.0 5.95 -6.0 5.95 -6.0 7.95 -5.0 7.95 -5.0 8.95 -4.0 8.95 -4.0 10.95 -2.0 10.95 -2.0 8.95 -3.0 8.95 -3.0 6.95 -4.0 6.95 -4.0 5.95 M-5.0 3.95 L-6.0 3.95 -6.0 4.95 -5.0 4.95 -5.0 3.95 M-8.0 10.95 L-8.0 12.95 -12.0 12.95 -12.0 13.95 -9.0 13.95 -9.0 14.95 -8.0 14.95 -8.0 15.95 -7.0 15.95 -7.0 12.95 -6.0 12.95 -6.0 10.95 -8.0 10.95 M-2.0 7.95 L0.0 7.95 0.0 6.95 -2.0 6.95 -2.0 7.95 M-3.0 13.95 L-3.0 12.95 -1.0 12.95 -1.0 11.95 -4.0 11.95 -4.0 13.95 -3.0 13.95 -3.0 14.95 -4.0 14.95 -4.0 15.95 -1.0 15.95 -1.0 16.95 -5.0 16.95 -5.0 17.95 -6.0 17.95 -6.0 18.95 -7.0 18.95 -7.0 19.95 -8.0 19.95 -8.0 20.95 -7.0 20.95 -7.0 21.95 -6.0 21.95 -6.0 20.95 -4.0 20.95 -4.0 22.95 -6.0 22.95 -6.0 24.95 -5.0 24.95 -5.0 26.95 -4.0 26.95 -4.0 27.95 -3.0 27.95 -3.0 26.95 -2.0 26.95 -2.0 24.95 -3.0 24.95 -3.0 23.95 -2.0 23.95 -2.0 22.95 -1.0 22.95 -1.0 19.95 0.0 19.95 0.0 21.95 2.0 21.95 2.0 16.95 1.0 16.95 1.0 15.95 2.0 15.95 2.0 12.95 1.0 12.95 1.0 10.95 0.0 10.95 0.0 13.95 -3.0 13.95 M-5.0 16.95 L-5.0 15.95 -6.0 15.95 -6.0 16.95 -5.0 16.95 M-5.0 12.95 L-6.0 12.95 -6.0 14.95 -5.0 14.95 -5.0 12.95 M-1.0 15.95 L-1.0 14.95 1.0 14.95 1.0 15.95 -1.0 15.95 M-3.0 19.95 L-3.0 18.95 -2.0 18.95 -2.0 17.95 0.0 17.95 0.0 18.95 -1.0 18.95 -1.0 19.95 -3.0 19.95 -3.0 20.95 -4.0 20.95 -4.0 19.95 -3.0 19.95 M-3.0 23.95 L-4.0 23.95 -4.0 22.95 -3.0 22.95 -3.0 23.95 M-1.0 33.95 L1.0 33.95 1.0 32.95 -1.0 32.95 -1.0 33.95 M-3.0 32.95 L-3.0 33.95 -2.0 33.95 -2.0 32.95 -3.0 32.95 M1.0 16.95 L1.0 17.95 0.0 17.95 0.0 16.95 1.0 16.95 M4.0 21.95 L3.0 21.95 3.0 22.95 4.0 22.95 4.0 21.95 M3.0 23.95 L3.0 25.95 4.0 25.95 4.0 23.95 3.0 23.95 M4.0 26.95 L5.0 26.95 5.0 27.95 6.0 27.95 6.0 25.95 4.0 25.95 4.0 26.95 3.0 26.95 3.0 28.95 4.0 28.95 4.0 26.95 M8.0 33.95 L9.0 33.95 9.0 32.95 8.0 32.95 8.0 33.95 M5.0 33.95 L7.0 33.95 7.0 32.95 5.0 32.95 5.0 33.95 M4.0 33.95 L4.0 32.95 3.0 32.95 3.0 33.95 4.0 33.95 M4.0 29.95 L3.0 29.95 3.0 31.95 4.0 31.95 4.0 29.95" fill="#000000" fill-rule="evenodd" stroke="none"/>
    <path d="M-3.0 1.95 L-4.0 1.95 -4.0 0.95 -3.0 0.95 -3.0 1.95 M-4.0 3.95 L-5.0 3.95 -5.0 2.95 -4.0 2.95 -4.0 3.95 M-5.0 3.95 L-5.0 4.95 -6.0 4.95 -6.0 3.95 -5.0 3.95" fill="#ffffff" fill-rule="evenodd" stroke="none"/>
    <path d="M-4.0 5.95 L-4.0 4.95 -1.0 4.95 -1.0 5.95 -4.0 5.95 -4.0 6.95 -3.0 6.95 -3.0 8.95 -2.0 8.95 -2.0 10.95 -4.0 10.95 -4.0 8.95 -5.0 8.95 -5.0 7.95 -6.0 7.95 -6.0 5.95 -4.0 5.95 M1.0 15.95 L1.0 16.95 2.0 16.95 2.0 21.95 0.0 21.95 0.0 19.95 -1.0 19.95 -1.0 18.95 0.0 18.95 0.0 17.95 -2.0 17.95 -2.0 18.95 -3.0 18.95 -3.0 19.95 -4.0 19.95 -4.0 20.95 -6.0 20.95 -6.0 21.95 -7.0 21.95 -7.0 20.95 -8.0 20.95 -8.0 19.95 -7.0 19.95 -7.0 18.95 -6.0 18.95 -6.0 17.95 -5.0 17.95 -5.0 16.95 -1.0 16.95 -1.0 15.95 1.0 15.95 M-3.0 23.95 L-3.0 24.95 -2.0 24.95 -2.0 26.95 -3.0 26.95 -3.0 27.95 -4.0 27.95 -4.0 26.95 -5.0 26.95 -5.0 24.95 -6.0 24.95 -6.0 22.95 -4.0 22.95 -4.0 23.95 -3.0 23.95 M1.0 16.95 L0.0 16.95 0.0 17.95 1.0 17.95 1.0 16.95 M6.0 25.95 L6.0 27.95 5.0 27.95 5.0 26.95 4.0 26.95 4.0 25.95 6.0 25.95" fill="#777777" fill-rule="evenodd" stroke="none"/>
    <path d="M-4.0 3.95 L-4.0 2.95 -2.0 2.95 -2.0 3.95 -4.0 3.95 M-2.0 7.95 L-2.0 6.95 0.0 6.95 0.0 7.95 -2.0 7.95 M-8.0 10.95 L-6.0 10.95 -6.0 12.95 -7.0 12.95 -7.0 15.95 -8.0 15.95 -8.0 14.95 -9.0 14.95 -9.0 13.95 -12.0 13.95 -12.0 12.95 -8.0 12.95 -8.0 10.95 M-3.0 13.95 L0.0 13.95 0.0 10.95 1.0 10.95 1.0 12.95 2.0 12.95 2.0 15.95 1.0 15.95 1.0 14.95 -1.0 14.95 -1.0 15.95 -4.0 15.95 -4.0 14.95 -3.0 14.95 -3.0 13.95" fill="#f9f9f9" fill-rule="evenodd" stroke="none"/>
    <path d="M-3.0 13.95 L-4.0 13.95 -4.0 11.95 -1.0 11.95 -1.0 12.95 -3.0 12.95 -3.0 13.95 M-1.0 33.95 L-1.0 32.95 1.0 32.95 1.0 33.95 -1.0 33.95 M-3.0 32.95 L-2.0 32.95 -2.0 33.95 -3.0 33.95 -3.0 32.95 M4.0 21.95 L4.0 22.95 3.0 22.95 3.0 21.95 4.0 21.95 M3.0 23.95 L4.0 23.95 4.0 25.95 3.0 25.95 3.0 23.95 M4.0 26.95 L4.0 28.95 3.0 28.95 3.0 26.95 4.0 26.95 M4.0 29.95 L4.0 31.95 3.0 31.95 3.0 29.95 4.0 29.95 M4.0 33.95 L3.0 33.95 3.0 32.95 4.0 32.95 4.0 33.95 M5.0 33.95 L5.0 32.95 7.0 32.95 7.0 33.95 5.0 33.95 M8.0 33.95 L8.0 32.95 9.0 32.95 9.0 33.95 8.0 33.95" fill="#d1d1d1" fill-rule="evenodd" stroke="none"/>
  </g>
</svg>
