<?xml version="1.0" encoding="UTF-8" standalone="no"?>
<svg xmlns:ffdec="https://www.free-decompiler.com/flash" xmlns:xlink="http://www.w3.org/1999/xlink" ffdec:objectType="shape" height="33.0px" width="39.0px" xmlns="http://www.w3.org/2000/svg">
  <g transform="matrix(1.0, 0.0, 0.0, 1.0, -2.0, -8.65)">
    <path d="M41.0 14.65 L40.0 14.65 40.0 15.65 38.0 15.65 38.0 16.65 35.0 16.65 35.0 17.65 33.0 17.65 33.0 18.65 32.0 18.65 32.0 17.65 30.0 17.65 30.0 18.65 27.0 18.65 27.0 19.65 25.0 19.65 25.0 21.65 24.0 21.65 24.0 22.65 19.0 22.65 19.0 23.65 24.0 23.65 24.0 24.65 25.0 24.65 25.0 26.65 24.0 26.65 24.0 27.65 23.0 27.65 23.0 28.65 20.0 28.65 20.0 27.65 18.0 27.65 18.0 26.65 17.0 26.65 17.0 29.65 18.0 29.65 18.0 35.65 19.0 35.65 19.0 37.65 20.0 37.65 20.0 38.65 21.0 38.65 21.0 39.65 22.0 39.65 22.0 41.65 14.0 41.65 14.0 37.65 11.0 37.65 11.0 41.65 3.0 41.65 3.0 39.65 4.0 39.65 4.0 38.65 5.0 38.65 5.0 37.65 6.0 37.65 6.0 35.65 7.0 35.65 7.0 30.65 5.0 30.65 5.0 29.65 4.0 29.65 4.0 28.65 3.0 28.65 3.0 26.65 2.0 26.65 2.0 19.65 3.0 19.65 3.0 16.65 4.0 16.65 4.0 15.65 5.0 15.65 5.0 14.65 4.0 14.65 4.0 13.65 2.0 13.65 2.0 11.65 3.0 11.65 3.0 10.65 5.0 10.65 5.0 9.65 9.0 9.65 9.0 8.65 12.0 8.65 12.0 9.65 14.0 9.65 14.0 10.65 16.0 10.65 16.0 11.65 23.0 11.65 23.0 14.65 22.0 14.65 22.0 15.65 19.0 15.65 19.0 16.65 20.0 16.65 20.0 17.65 22.0 17.65 22.0 16.65 24.0 16.65 24.0 15.65 27.0 15.65 27.0 14.65 29.0 14.65 29.0 13.65 30.0 13.65 30.0 12.65 31.0 12.65 31.0 10.65 32.0 10.65 32.0 11.65 33.0 11.65 33.0 10.65 34.0 10.65 34.0 11.65 35.0 11.65 35.0 10.65 36.0 10.65 36.0 11.65 37.0 11.65 37.0 10.65 38.0 10.65 38.0 11.65 39.0 11.65 39.0 10.65 40.0 10.65 40.0 11.65 41.0 11.65 41.0 14.65 M27.0 16.65 L24.0 16.65 24.0 17.65 22.0 17.65 22.0 18.65 19.0 18.65 19.0 19.65 17.0 19.65 17.0 21.65 19.0 21.65 19.0 20.65 20.0 20.65 20.0 19.65 23.0 19.65 23.0 18.65 24.0 18.65 24.0 19.65 25.0 19.65 25.0 18.65 27.0 18.65 27.0 17.65 30.0 17.65 30.0 16.65 32.0 16.65 32.0 17.65 33.0 17.65 33.0 16.65 35.0 16.65 35.0 15.65 38.0 15.65 38.0 14.65 40.0 14.65 40.0 12.65 31.0 12.65 31.0 14.65 29.0 14.65 29.0 15.65 27.0 15.65 27.0 16.65 M14.0 10.65 L11.0 10.65 11.0 9.65 10.0 9.65 10.0 10.65 5.0 10.65 5.0 11.65 7.0 11.65 7.0 12.65 12.0 12.65 12.0 11.65 14.0 11.65 14.0 10.65 M23.0 19.65 L23.0 20.65 21.0 20.65 21.0 21.65 24.0 21.65 24.0 19.65 23.0 19.65 M15.0 13.65 L15.0 12.65 16.0 12.65 16.0 11.65 15.0 11.65 15.0 12.65 13.0 12.65 13.0 13.65 6.0 13.65 6.0 12.65 4.0 12.65 4.0 11.65 3.0 11.65 3.0 12.65 4.0 12.65 4.0 13.65 6.0 13.65 6.0 14.65 11.0 14.65 11.0 15.65 13.0 15.65 13.0 13.65 15.0 13.65 15.0 14.65 16.0 14.65 16.0 13.65 15.0 13.65 M15.0 14.65 L14.0 14.65 14.0 15.65 15.0 15.65 15.0 14.65 M17.0 21.65 L16.0 21.65 16.0 19.65 15.0 19.65 15.0 17.65 7.0 17.65 7.0 18.65 6.0 18.65 6.0 19.65 5.0 19.65 5.0 20.65 4.0 20.65 4.0 24.65 5.0 24.65 5.0 26.65 6.0 26.65 6.0 28.65 8.0 28.65 8.0 27.65 11.0 27.65 11.0 26.65 14.0 26.65 14.0 25.65 17.0 25.65 17.0 24.65 18.0 24.65 18.0 23.65 17.0 23.65 17.0 21.65 M10.0 22.65 L10.0 26.65 8.0 26.65 8.0 24.65 7.0 24.65 7.0 21.65 9.0 21.65 9.0 22.65 10.0 22.65 M19.0 18.65 L19.0 16.65 18.0 16.65 18.0 18.65 19.0 18.65 M13.0 21.65 L14.0 21.65 14.0 24.65 12.0 24.65 12.0 22.65 11.0 22.65 11.0 20.65 13.0 20.65 13.0 21.65 M13.0 35.65 L13.0 36.65 18.0 36.65 18.0 35.65 17.0 35.65 17.0 30.65 16.0 30.65 16.0 26.65 15.0 26.65 15.0 27.65 14.0 27.65 14.0 35.65 13.0 35.65 13.0 30.65 12.0 30.65 12.0 35.65 13.0 35.65 M12.0 35.65 L11.0 35.65 11.0 31.65 8.0 31.65 8.0 35.65 7.0 35.65 7.0 36.65 12.0 36.65 12.0 35.65 M8.0 29.65 L8.0 30.65 9.0 30.65 9.0 29.65 8.0 29.65 M11.0 29.65 L11.0 28.65 10.0 28.65 10.0 29.65 11.0 29.65 M10.0 37.65 L8.0 37.65 8.0 38.65 5.0 38.65 5.0 39.65 10.0 39.65 10.0 37.65 M17.0 38.65 L17.0 37.65 15.0 37.65 15.0 39.65 20.0 39.65 20.0 38.65 17.0 38.65" fill="#000000" fill-rule="evenodd" stroke="none"/>
    <path d="M27.0 16.65 L27.0 15.65 29.0 15.65 29.0 14.65 31.0 14.65 31.0 12.65 40.0 12.65 40.0 14.65 38.0 14.65 38.0 15.65 35.0 15.65 35.0 16.65 33.0 16.65 33.0 17.65 32.0 17.65 32.0 16.65 30.0 16.65 30.0 17.65 27.0 17.65 27.0 18.65 25.0 18.65 25.0 19.65 24.0 19.65 24.0 18.65 23.0 18.65 23.0 19.65 20.0 19.65 20.0 20.65 19.0 20.65 19.0 21.65 17.0 21.65 17.0 19.65 19.0 19.65 19.0 18.65 22.0 18.65 22.0 17.65 24.0 17.65 24.0 16.65 27.0 16.65 M3.0 11.65 L4.0 11.65 4.0 12.65 6.0 12.65 6.0 13.65 13.0 13.65 13.0 12.65 15.0 12.65 15.0 11.65 16.0 11.65 16.0 12.65 15.0 12.65 15.0 13.65 13.0 13.65 13.0 15.65 11.0 15.65 11.0 14.65 6.0 14.65 6.0 13.65 4.0 13.65 4.0 12.65 3.0 12.65 3.0 11.65 M13.0 35.65 L14.0 35.65 14.0 27.65 15.0 27.65 15.0 26.65 16.0 26.65 16.0 30.65 17.0 30.65 17.0 35.65 18.0 35.65 18.0 36.65 13.0 36.65 13.0 35.65 M12.0 35.65 L12.0 36.65 7.0 36.65 7.0 35.65 8.0 35.65 8.0 31.65 11.0 31.65 11.0 35.65 12.0 35.65 M11.0 29.65 L10.0 29.65 10.0 28.65 11.0 28.65 11.0 29.65 M8.0 29.65 L9.0 29.65 9.0 30.65 8.0 30.65 8.0 29.65" fill="#777777" fill-rule="evenodd" stroke="none"/>
    <path d="M23.0 19.65 L24.0 19.65 24.0 21.65 21.0 21.65 21.0 20.65 23.0 20.65 23.0 19.65 M14.0 10.65 L14.0 11.65 12.0 11.65 12.0 12.65 7.0 12.65 7.0 11.65 5.0 11.65 5.0 10.65 10.0 10.65 10.0 9.65 11.0 9.65 11.0 10.65 14.0 10.65 M15.0 13.65 L16.0 13.65 16.0 14.65 15.0 14.65 15.0 13.65 M19.0 18.65 L18.0 18.65 18.0 16.65 19.0 16.65 19.0 18.65" fill="#ffffff" fill-rule="evenodd" stroke="none"/>
    <path d="M17.0 21.65 L17.0 23.65 18.0 23.65 18.0 24.65 17.0 24.65 17.0 25.65 14.0 25.65 14.0 26.65 11.0 26.65 11.0 27.65 8.0 27.65 8.0 28.65 6.0 28.65 6.0 26.65 5.0 26.65 5.0 24.65 4.0 24.65 4.0 20.65 5.0 20.65 5.0 19.65 6.0 19.65 6.0 18.65 7.0 18.65 7.0 17.65 15.0 17.65 15.0 19.65 16.0 19.65 16.0 21.65 17.0 21.65 M10.0 22.65 L9.0 22.65 9.0 21.65 7.0 21.65 7.0 24.65 8.0 24.65 8.0 26.65 10.0 26.65 10.0 22.65 M13.0 21.65 L13.0 20.65 11.0 20.65 11.0 22.65 12.0 22.65 12.0 24.65 14.0 24.65 14.0 21.65 13.0 21.65 M17.0 38.65 L20.0 38.65 20.0 39.65 15.0 39.65 15.0 37.65 17.0 37.65 17.0 38.65 M10.0 37.65 L10.0 39.65 5.0 39.65 5.0 38.65 8.0 38.65 8.0 37.65 10.0 37.65" fill="#d1d1d1" fill-rule="evenodd" stroke="none"/>
  </g>
</svg>
