<?xml version="1.0" encoding="UTF-8" standalone="no"?>
<svg xmlns:ffdec="https://www.free-decompiler.com/flash" xmlns:xlink="http://www.w3.org/1999/xlink" ffdec:objectType="shape" height="13.0px" width="9.0px" xmlns="http://www.w3.org/2000/svg">
  <g transform="matrix(1.0, 0.0, 0.0, 1.0, -11.0, -21.15)">
    <path d="M13.0 22.15 L14.0 22.15 14.0 25.15 15.0 25.15 15.0 26.15 16.0 26.15 16.0 27.15 17.0 27.15 17.0 28.15 18.0 28.15 18.0 29.15 19.0 29.15 19.0 30.15 20.0 30.15 20.0 33.15 19.0 33.15 19.0 34.15 16.0 34.15 16.0 33.15 15.0 33.15 15.0 29.15 14.0 29.15 14.0 28.15 13.0 28.15 13.0 27.15 12.0 27.15 12.0 26.15 11.0 26.15 11.0 21.15 12.0 21.15 12.0 26.15 13.0 26.15 13.0 27.15 14.0 27.15 14.0 28.15 15.0 28.15 15.0 29.15 16.0 29.15 16.0 33.15 18.0 33.15 18.0 32.15 19.0 32.15 19.0 30.15 18.0 30.15 18.0 29.15 17.0 29.15 17.0 28.15 16.0 28.15 16.0 27.15 15.0 27.15 15.0 26.15 14.0 26.15 14.0 25.15 13.0 25.15 13.0 22.15" fill="#000000" fill-rule="evenodd" stroke="none"/>
    <path d="M12.0 21.15 L13.0 21.15 13.0 22.15 13.0 25.15 14.0 25.15 14.0 26.15 15.0 26.15 15.0 27.15 16.0 27.15 16.0 28.15 17.0 28.15 17.0 29.15 18.0 29.15 18.0 30.15 19.0 30.15 19.0 32.15 18.0 32.15 18.0 33.15 16.0 33.15 16.0 29.15 15.0 29.15 15.0 28.15 14.0 28.15 14.0 27.15 13.0 27.15 13.0 26.15 12.0 26.15 12.0 21.15" fill="#ffffff" fill-rule="evenodd" stroke="none"/>
  </g>
</svg>
