<?xml version="1.0" encoding="UTF-8" standalone="no"?>
<svg xmlns:ffdec="https://www.free-decompiler.com/flash" xmlns:xlink="http://www.w3.org/1999/xlink" ffdec:objectType="shape" height="29.0px" width="33.0px" xmlns="http://www.w3.org/2000/svg">
  <g transform="matrix(1.0, 0.0, 0.0, 1.0, 0.0, -10.1)">
    <path d="M25.0 11.1 L25.0 12.1 26.0 12.1 26.0 13.1 27.0 13.1 27.0 14.1 28.0 14.1 28.0 16.1 29.0 16.1 29.0 19.1 30.0 19.1 30.0 27.1 29.0 27.1 29.0 29.1 28.0 29.1 28.0 33.1 29.0 33.1 29.0 34.1 31.0 34.1 31.0 32.1 32.0 32.1 32.0 33.1 33.0 33.1 33.0 36.1 32.0 36.1 32.0 37.1 31.0 37.1 31.0 38.1 30.0 38.1 30.0 39.1 27.0 39.1 27.0 38.1 6.0 38.1 6.0 39.1 3.0 39.1 3.0 38.1 2.0 38.1 2.0 37.1 1.0 37.1 1.0 36.1 0.0 36.1 0.0 33.1 1.0 33.1 1.0 32.1 2.0 32.1 2.0 34.1 4.0 34.1 4.0 33.1 5.0 33.1 5.0 29.1 4.0 29.1 4.0 27.1 3.0 27.1 3.0 19.1 4.0 19.1 4.0 17.1 5.0 17.1 5.0 14.1 6.0 14.1 6.0 13.1 8.0 13.1 8.0 12.1 9.0 12.1 9.0 11.1 11.0 11.1 11.0 10.1 22.0 10.1 22.0 11.1 25.0 11.1 M24.0 19.1 L24.0 20.1 20.0 20.1 20.0 19.1 24.0 19.1 M25.0 18.1 L24.0 18.1 24.0 17.1 23.0 17.1 23.0 18.1 20.0 18.1 20.0 19.1 19.0 19.1 19.0 20.1 17.0 20.1 17.0 19.1 15.0 19.1 15.0 18.1 13.0 18.1 13.0 17.1 11.0 17.1 11.0 16.1 10.0 16.1 10.0 17.1 9.0 17.1 9.0 18.1 8.0 18.1 8.0 20.1 9.0 20.1 9.0 21.1 8.0 21.1 8.0 34.1 9.0 34.1 9.0 35.1 10.0 35.1 10.0 36.1 12.0 36.1 12.0 37.1 21.0 37.1 21.0 36.1 23.0 36.1 23.0 35.1 24.0 35.1 24.0 34.1 25.0 34.1 25.0 21.1 24.0 21.1 24.0 20.1 25.0 20.1 25.0 18.1 M21.0 23.1 L22.0 23.1 22.0 22.1 23.0 22.1 23.0 24.1 24.0 24.1 24.0 26.1 23.0 26.1 23.0 27.1 24.0 27.1 24.0 28.1 23.0 28.1 23.0 29.1 19.0 29.1 19.0 28.1 18.0 28.1 18.0 27.1 19.0 27.1 19.0 28.1 21.0 28.1 21.0 27.1 20.0 27.1 20.0 25.1 21.0 25.1 21.0 24.1 19.0 24.1 19.0 25.1 18.0 25.1 18.0 24.1 19.0 24.1 19.0 23.1 20.0 23.1 20.0 22.1 21.0 22.1 21.0 23.1 M10.0 24.1 L10.0 22.1 11.0 22.1 11.0 23.1 12.0 23.1 12.0 22.1 13.0 22.1 13.0 23.1 14.0 23.1 14.0 24.1 15.0 24.1 15.0 26.1 14.0 26.1 14.0 27.1 15.0 27.1 15.0 28.1 14.0 28.1 14.0 29.1 10.0 29.1 10.0 28.1 9.0 28.1 9.0 27.1 10.0 27.1 10.0 28.1 12.0 28.1 12.0 27.1 11.0 27.1 11.0 25.1 12.0 25.1 12.0 24.1 10.0 24.1 10.0 25.1 9.0 25.1 9.0 24.1 10.0 24.1 M9.0 20.1 L9.0 19.1 13.0 19.1 13.0 20.1 9.0 20.1 M14.0 26.1 L14.0 25.1 13.0 25.1 13.0 26.1 14.0 26.1 M13.0 32.1 L20.0 32.1 20.0 31.1 21.0 31.1 21.0 32.1 20.0 32.1 20.0 33.1 13.0 33.1 13.0 32.1 12.0 32.1 12.0 31.1 13.0 31.1 13.0 32.1 M23.0 25.1 L22.0 25.1 22.0 26.1 23.0 26.1 23.0 25.1" fill="#000000" fill-rule="evenodd" stroke="none"/>
    <path d="M25.0 18.1 L25.0 20.1 24.0 20.1 24.0 21.1 25.0 21.1 25.0 34.1 24.0 34.1 24.0 35.1 23.0 35.1 23.0 36.1 21.0 36.1 21.0 37.1 12.0 37.1 12.0 36.1 10.0 36.1 10.0 35.1 9.0 35.1 9.0 34.1 8.0 34.1 8.0 21.1 9.0 21.1 9.0 20.1 8.0 20.1 8.0 18.1 9.0 18.1 9.0 17.1 10.0 17.1 10.0 16.1 11.0 16.1 11.0 17.1 13.0 17.1 13.0 18.1 15.0 18.1 15.0 19.1 17.0 19.1 17.0 20.1 19.0 20.1 19.0 19.1 20.0 19.1 20.0 18.1 23.0 18.1 23.0 17.1 24.0 17.1 24.0 18.1 25.0 18.1 M24.0 19.1 L20.0 19.1 20.0 20.1 24.0 20.1 24.0 19.1 M10.0 24.1 L9.0 24.1 9.0 25.1 10.0 25.1 10.0 24.1 12.0 24.1 12.0 25.1 11.0 25.1 11.0 27.1 12.0 27.1 12.0 28.1 10.0 28.1 10.0 27.1 9.0 27.1 9.0 28.1 10.0 28.1 10.0 29.1 14.0 29.1 14.0 28.1 15.0 28.1 15.0 27.1 14.0 27.1 14.0 26.1 15.0 26.1 15.0 24.1 14.0 24.1 14.0 23.1 13.0 23.1 13.0 22.1 12.0 22.1 12.0 23.1 11.0 23.1 11.0 22.1 10.0 22.1 10.0 24.1 M21.0 23.1 L21.0 22.1 20.0 22.1 20.0 23.1 19.0 23.1 19.0 24.1 18.0 24.1 18.0 25.1 19.0 25.1 19.0 24.1 21.0 24.1 21.0 25.1 20.0 25.1 20.0 27.1 21.0 27.1 21.0 28.1 19.0 28.1 19.0 27.1 18.0 27.1 18.0 28.1 19.0 28.1 19.0 29.1 23.0 29.1 23.0 28.1 24.0 28.1 24.0 27.1 23.0 27.1 23.0 26.1 24.0 26.1 24.0 24.1 23.0 24.1 23.0 22.1 22.0 22.1 22.0 23.1 21.0 23.1 M9.0 20.1 L13.0 20.1 13.0 19.1 9.0 19.1 9.0 20.1 M23.0 25.1 L23.0 26.1 22.0 26.1 22.0 25.1 23.0 25.1 M13.0 32.1 L13.0 31.1 12.0 31.1 12.0 32.1 13.0 32.1 13.0 33.1 20.0 33.1 20.0 32.1 21.0 32.1 21.0 31.1 20.0 31.1 20.0 32.1 13.0 32.1 M14.0 26.1 L13.0 26.1 13.0 25.1 14.0 25.1 14.0 26.1" fill="#ffffff" fill-rule="evenodd" stroke="none"/>
  </g>
</svg>
