<?xml version="1.0" encoding="UTF-8" standalone="no"?>
<svg xmlns:ffdec="https://www.free-decompiler.com/flash" xmlns:xlink="http://www.w3.org/1999/xlink" ffdec:objectType="shape" height="9.0px" width="12.0px" xmlns="http://www.w3.org/2000/svg">
  <g transform="matrix(1.0, 0.0, 0.0, 1.0, -11.0, -18.15)">
    <path d="M13.0 22.15 L14.0 22.15 14.0 23.15 16.0 23.15 16.0 22.15 17.0 22.15 17.0 21.15 18.0 21.15 18.0 20.15 19.0 20.15 19.0 19.15 20.0 19.15 20.0 18.15 22.0 18.15 22.0 19.15 23.0 19.15 23.0 23.15 22.0 23.15 22.0 24.15 19.0 24.15 19.0 25.15 17.0 25.15 17.0 26.15 15.0 26.15 15.0 27.15 12.0 27.15 12.0 26.15 11.0 26.15 11.0 21.15 12.0 21.15 12.0 26.15 15.0 26.15 15.0 25.15 17.0 25.15 17.0 24.15 19.0 24.15 19.0 23.15 22.0 23.15 22.0 19.15 21.0 19.15 21.0 20.15 20.0 20.15 20.0 21.15 19.0 21.15 19.0 22.15 18.0 22.15 18.0 23.15 16.0 23.15 16.0 24.15 14.0 24.15 14.0 25.15 13.0 25.15 13.0 22.15" fill="#000000" fill-rule="evenodd" stroke="none"/>
    <path d="M12.0 21.15 L13.0 21.15 13.0 22.15 13.0 25.15 14.0 25.15 14.0 24.15 16.0 24.15 16.0 23.15 18.0 23.15 18.0 22.15 19.0 22.15 19.0 21.15 20.0 21.15 20.0 20.15 21.0 20.15 21.0 19.15 22.0 19.15 22.0 23.15 19.0 23.15 19.0 24.15 17.0 24.15 17.0 25.15 15.0 25.15 15.0 26.15 12.0 26.15 12.0 21.15" fill="#ffffff" fill-rule="evenodd" stroke="none"/>
  </g>
</svg>
