<?xml version="1.0" encoding="UTF-8" standalone="no"?>
<svg xmlns:ffdec="https://www.free-decompiler.com/flash" xmlns:xlink="http://www.w3.org/1999/xlink" ffdec:objectType="shape" height="33.0px" width="40.0px" xmlns="http://www.w3.org/2000/svg">
  <g transform="matrix(1.0, 0.0, 0.0, 1.0, 0.0, -8.65)">
    <path d="M24.0 17.65 L24.0 18.65 19.0 18.65 19.0 19.65 20.0 19.65 20.0 20.65 30.0 20.65 30.0 17.65 32.0 17.65 32.0 16.65 33.0 16.65 33.0 17.65 32.0 17.65 32.0 18.65 34.0 18.65 34.0 17.65 35.0 17.65 35.0 18.65 34.0 18.65 34.0 19.65 36.0 19.65 36.0 18.65 37.0 18.65 37.0 19.65 36.0 19.65 36.0 20.65 38.0 20.65 38.0 19.65 39.0 19.65 39.0 20.65 38.0 20.65 38.0 21.65 39.0 21.65 39.0 22.0 40.0 22.0 40.0 25.0 39.0 25.0 39.0 25.65 31.0 25.65 31.0 24.65 23.0 24.65 23.0 25.65 19.0 25.65 19.0 26.65 21.0 26.65 21.0 27.65 22.0 27.65 22.0 29.65 21.0 29.65 21.0 30.65 19.0 30.65 19.0 31.65 16.0 31.65 16.0 35.65 17.0 35.65 17.0 37.65 18.0 37.65 18.0 38.65 19.0 38.65 19.0 39.65 20.0 39.65 20.0 41.65 12.0 41.65 12.0 37.65 9.0 37.65 9.0 41.65 1.0 41.65 1.0 39.65 2.0 39.65 2.0 38.65 3.0 38.65 3.0 37.65 4.0 37.65 4.0 35.65 5.0 35.65 5.0 29.65 4.0 29.65 4.0 28.65 3.0 28.65 3.0 27.65 2.0 27.65 2.0 26.65 1.0 26.65 1.0 25.65 0.0 25.65 0.0 18.65 1.0 18.65 1.0 17.65 2.0 17.65 2.0 15.65 3.0 15.65 3.0 14.65 4.0 14.65 4.0 13.65 3.0 13.65 3.0 11.65 4.0 11.65 4.0 10.65 6.0 10.65 6.0 9.65 9.0 9.65 9.0 8.65 12.0 8.65 12.0 9.65 15.0 9.65 15.0 10.65 17.0 10.65 17.0 11.65 18.0 11.65 18.0 13.65 22.0 13.65 22.0 14.65 23.0 14.65 23.0 15.65 24.0 15.65 24.0 16.65 25.0 16.65 25.0 17.65 24.0 17.65 M22.0 22.65 L22.0 21.65 16.0 21.65 16.0 23.65 19.0 23.65 19.0 22.65 22.0 22.65 22.0 23.65 20.0 23.65 20.0 24.65 23.0 24.65 23.0 22.65 22.0 22.65 M23.0 22.65 L24.0 22.65 24.0 23.65 31.0 23.65 31.0 24.65 39.0 24.65 39.0 22.65 38.0 22.65 38.0 21.65 36.0 21.65 36.0 20.65 34.0 20.65 34.0 19.65 32.0 19.65 32.0 18.65 31.0 18.65 31.0 21.65 23.0 21.65 23.0 22.65 M15.0 10.65 L11.0 10.65 11.0 9.65 10.0 9.65 10.0 10.65 6.0 10.65 6.0 11.65 8.0 11.65 8.0 12.65 13.0 12.65 13.0 11.65 15.0 11.65 15.0 10.65 M16.0 11.65 L16.0 12.65 17.0 12.65 17.0 11.65 16.0 11.65 M4.0 11.65 L4.0 12.65 5.0 12.65 5.0 11.65 4.0 11.65 M5.0 16.65 L5.0 17.65 4.0 17.65 4.0 19.65 3.0 19.65 3.0 24.65 4.0 24.65 4.0 25.65 15.0 25.65 15.0 19.65 13.0 19.65 13.0 18.65 12.0 18.65 12.0 17.65 11.0 17.65 11.0 16.65 5.0 16.65 M5.0 19.65 L8.0 19.65 8.0 24.65 5.0 24.65 5.0 19.65 M10.0 19.65 L12.0 19.65 12.0 24.65 10.0 24.65 10.0 19.65 M16.0 12.65 L14.0 12.65 14.0 13.65 16.0 13.65 16.0 12.65 M16.0 13.65 L16.0 15.65 17.0 15.65 17.0 13.65 16.0 13.65 M14.0 14.65 L14.0 16.65 15.0 16.65 15.0 14.65 14.0 14.65 14.0 13.65 12.0 13.65 12.0 14.65 14.0 14.65 M18.0 19.65 L18.0 20.65 19.0 20.65 19.0 19.65 18.0 19.65 M17.0 24.65 L17.0 25.65 19.0 25.65 19.0 24.65 17.0 24.65 M11.0 35.65 L11.0 36.65 16.0 36.65 16.0 35.65 15.0 35.65 15.0 30.65 14.0 30.65 14.0 28.65 12.0 28.65 12.0 35.65 11.0 35.65 11.0 28.65 10.0 28.65 10.0 35.65 11.0 35.65 M10.0 35.65 L9.0 35.65 9.0 30.65 6.0 30.65 6.0 35.65 5.0 35.65 5.0 36.65 10.0 36.65 10.0 35.65 M4.0 26.65 L4.0 27.65 5.0 27.65 5.0 26.65 4.0 26.65 M8.0 27.65 L8.0 26.65 7.0 26.65 7.0 27.65 8.0 27.65 M6.0 38.65 L3.0 38.65 3.0 39.65 8.0 39.65 8.0 37.65 6.0 37.65 6.0 38.65 M18.0 38.65 L15.0 38.65 15.0 37.65 13.0 37.65 13.0 39.65 18.0 39.65 18.0 38.65" fill="#000000" fill-rule="evenodd" stroke="none"/>
    <path d="M22.0 22.65 L19.0 22.65 19.0 23.65 16.0 23.65 16.0 21.65 22.0 21.65 22.0 22.65 M23.0 22.65 L23.0 21.65 31.0 21.65 31.0 18.65 32.0 18.65 32.0 19.65 34.0 19.65 34.0 20.65 36.0 20.65 36.0 21.65 38.0 21.65 38.0 22.65 39.0 22.65 39.0 24.65 31.0 24.65 31.0 23.65 24.0 23.65 24.0 22.65 23.0 22.65 M4.0 11.65 L5.0 11.65 5.0 12.65 4.0 12.65 4.0 11.65 M16.0 11.65 L17.0 11.65 17.0 12.65 16.0 12.65 16.0 11.65 M16.0 12.65 L16.0 13.65 14.0 13.65 14.0 12.65 16.0 12.65 M14.0 14.65 L12.0 14.65 12.0 13.65 14.0 13.65 14.0 14.65 M11.0 35.65 L12.0 35.65 12.0 28.65 14.0 28.65 14.0 30.65 15.0 30.65 15.0 35.65 16.0 35.65 16.0 36.65 11.0 36.65 11.0 35.65 M10.0 35.65 L10.0 36.65 5.0 36.65 5.0 35.65 6.0 35.65 6.0 30.65 9.0 30.65 9.0 35.65 10.0 35.65 M8.0 27.65 L7.0 27.65 7.0 26.65 8.0 26.65 8.0 27.65 M4.0 26.65 L5.0 26.65 5.0 27.65 4.0 27.65 4.0 26.65" fill="#777777" fill-rule="evenodd" stroke="none"/>
    <path d="M22.0 22.65 L23.0 22.65 23.0 24.65 20.0 24.65 20.0 23.65 22.0 23.65 22.0 22.65 M15.0 10.65 L15.0 11.65 13.0 11.65 13.0 12.65 8.0 12.65 8.0 11.65 6.0 11.65 6.0 10.65 10.0 10.65 10.0 9.65 11.0 9.65 11.0 10.65 15.0 10.65 M16.0 13.65 L17.0 13.65 17.0 15.65 16.0 15.65 16.0 13.65 M18.0 19.65 L19.0 19.65 19.0 20.65 18.0 20.65 18.0 19.65" fill="#ffffff" fill-rule="evenodd" stroke="none"/>
    <path d="M5.0 16.65 L11.0 16.65 11.0 17.65 12.0 17.65 12.0 18.65 13.0 18.65 13.0 19.65 15.0 19.65 15.0 25.65 4.0 25.65 4.0 24.65 3.0 24.65 3.0 19.65 4.0 19.65 4.0 17.65 5.0 17.65 5.0 16.65 M10.0 19.65 L10.0 24.65 12.0 24.65 12.0 19.65 10.0 19.65 M5.0 19.65 L5.0 24.65 8.0 24.65 8.0 19.65 5.0 19.65 M18.0 38.65 L18.0 39.65 13.0 39.65 13.0 37.65 15.0 37.65 15.0 38.65 18.0 38.65 M6.0 38.65 L6.0 37.65 8.0 37.65 8.0 39.65 3.0 39.65 3.0 38.65 6.0 38.65" fill="#d1d1d1" fill-rule="evenodd" stroke="none"/>
  </g>
</svg>
