<?xml version="1.0" encoding="UTF-8" standalone="no"?>
<svg xmlns:ffdec="https://www.free-decompiler.com/flash" xmlns:xlink="http://www.w3.org/1999/xlink" ffdec:objectType="shape" height="30.0px" width="33.0px" xmlns="http://www.w3.org/2000/svg">
  <g transform="matrix(1.0, 0.0, 0.0, 1.0, 0.0, -10.1)">
    <path d="M22.0 11.1 L25.0 11.1 25.0 12.1 26.0 12.1 26.0 13.1 27.0 13.1 27.0 14.1 28.0 14.1 28.0 16.1 29.0 16.1 29.0 19.1 30.0 19.1 30.0 27.1 29.0 27.1 29.0 29.1 28.0 29.1 28.0 32.1 29.0 32.1 29.0 33.1 31.0 33.1 31.0 31.1 32.0 31.1 32.0 32.1 33.0 32.1 33.0 35.1 32.0 35.1 32.0 36.1 31.0 36.1 31.0 37.1 30.0 37.1 30.0 38.1 27.0 38.1 27.0 37.1 26.0 37.1 26.0 36.1 25.0 36.1 25.0 38.1 24.0 38.1 24.0 39.1 21.0 39.1 21.0 40.1 12.0 40.1 12.0 39.1 9.0 39.1 9.0 38.1 8.0 38.1 8.0 36.1 7.0 36.1 7.0 37.1 6.0 37.1 6.0 38.1 3.0 38.1 3.0 37.1 2.0 37.1 2.0 36.1 1.0 36.1 1.0 35.1 0.0 35.1 0.0 32.1 1.0 32.1 1.0 31.1 2.0 31.1 2.0 33.1 4.0 33.1 4.0 32.1 5.0 32.1 5.0 29.1 4.0 29.1 4.0 27.1 3.0 27.1 3.0 19.1 4.0 19.1 4.0 17.1 5.0 17.1 5.0 14.1 6.0 14.1 6.0 13.1 8.0 13.1 8.0 12.1 9.0 12.1 9.0 11.1 11.0 11.1 11.0 10.1 22.0 10.1 22.0 11.1 M24.0 25.1 L20.0 25.1 20.0 24.1 19.0 24.1 19.0 25.1 17.0 25.1 17.0 24.1 15.0 24.1 15.0 23.1 13.0 23.1 13.0 22.1 11.0 22.1 11.0 21.1 10.0 21.1 10.0 22.1 9.0 22.1 9.0 23.1 8.0 23.1 8.0 36.1 9.0 36.1 9.0 37.1 10.0 37.1 10.0 38.1 12.0 38.1 12.0 39.1 21.0 39.1 21.0 38.1 23.0 38.1 23.0 37.1 24.0 37.1 24.0 36.1 25.0 36.1 25.0 23.1 24.0 23.1 24.0 22.1 23.0 22.1 23.0 23.1 20.0 23.1 20.0 24.1 24.0 24.1 24.0 25.1 M9.0 24.1 L13.0 24.1 13.0 25.1 9.0 25.1 9.0 24.1 M20.0 27.1 L21.0 27.1 21.0 28.1 22.0 28.1 22.0 27.1 23.0 27.1 23.0 28.1 24.0 28.1 24.0 30.1 23.0 30.1 23.0 32.1 24.0 32.1 24.0 33.1 23.0 33.1 23.0 34.1 19.0 34.1 19.0 33.1 18.0 33.1 18.0 32.1 19.0 32.1 19.0 33.1 23.0 33.1 23.0 32.1 21.0 32.1 21.0 31.1 20.0 31.1 20.0 29.1 19.0 29.1 19.0 30.1 18.0 30.1 18.0 29.1 19.0 29.1 19.0 28.1 20.0 28.1 20.0 27.1 M14.0 28.1 L14.0 29.1 15.0 29.1 15.0 30.1 14.0 30.1 14.0 32.1 15.0 32.1 15.0 33.1 14.0 33.1 14.0 34.1 10.0 34.1 10.0 33.1 9.0 33.1 9.0 32.1 10.0 32.1 10.0 33.1 14.0 33.1 14.0 32.1 12.0 32.1 12.0 31.1 11.0 31.1 11.0 29.1 10.0 29.1 10.0 30.1 9.0 30.1 9.0 28.1 10.0 28.1 10.0 27.1 11.0 27.1 11.0 28.1 12.0 28.1 12.0 27.1 13.0 27.1 13.0 28.1 14.0 28.1 M14.0 29.1 L13.0 29.1 13.0 30.1 14.0 30.1 14.0 29.1 M12.0 36.1 L13.0 36.1 13.0 37.1 20.0 37.1 20.0 36.1 21.0 36.1 21.0 37.1 20.0 37.1 20.0 38.1 13.0 38.1 13.0 37.1 12.0 37.1 12.0 36.1 M22.0 30.1 L23.0 30.1 23.0 29.1 22.0 29.1 22.0 30.1" fill="#000000" fill-rule="evenodd" stroke="none"/>
    <path d="M22.0 30.1 L22.0 29.1 23.0 29.1 23.0 30.1 22.0 30.1 M12.0 36.1 L12.0 37.1 13.0 37.1 13.0 38.1 20.0 38.1 20.0 37.1 21.0 37.1 21.0 36.1 20.0 36.1 20.0 37.1 13.0 37.1 13.0 36.1 12.0 36.1 M14.0 29.1 L14.0 30.1 13.0 30.1 13.0 29.1 14.0 29.1 14.0 28.1 13.0 28.1 13.0 27.1 12.0 27.1 12.0 28.1 11.0 28.1 11.0 27.1 10.0 27.1 10.0 28.1 9.0 28.1 9.0 30.1 10.0 30.1 10.0 29.1 11.0 29.1 11.0 31.1 12.0 31.1 12.0 32.1 14.0 32.1 14.0 33.1 10.0 33.1 10.0 32.1 9.0 32.1 9.0 33.1 10.0 33.1 10.0 34.1 14.0 34.1 14.0 33.1 15.0 33.1 15.0 32.1 14.0 32.1 14.0 30.1 15.0 30.1 15.0 29.1 14.0 29.1 M20.0 27.1 L20.0 28.1 19.0 28.1 19.0 29.1 18.0 29.1 18.0 30.1 19.0 30.1 19.0 29.1 20.0 29.1 20.0 31.1 21.0 31.1 21.0 32.1 23.0 32.1 23.0 33.1 19.0 33.1 19.0 32.1 18.0 32.1 18.0 33.1 19.0 33.1 19.0 34.1 23.0 34.1 23.0 33.1 24.0 33.1 24.0 32.1 23.0 32.1 23.0 30.1 24.0 30.1 24.0 28.1 23.0 28.1 23.0 27.1 22.0 27.1 22.0 28.1 21.0 28.1 21.0 27.1 20.0 27.1 M9.0 24.1 L9.0 25.1 13.0 25.1 13.0 24.1 9.0 24.1 M24.0 25.1 L24.0 24.1 20.0 24.1 20.0 23.1 23.0 23.1 23.0 22.1 24.0 22.1 24.0 23.1 25.0 23.1 25.0 36.1 24.0 36.1 24.0 37.1 23.0 37.1 23.0 38.1 21.0 38.1 21.0 39.1 12.0 39.1 12.0 38.1 10.0 38.1 10.0 37.1 9.0 37.1 9.0 36.1 8.0 36.1 8.0 23.1 9.0 23.1 9.0 22.1 10.0 22.1 10.0 21.1 11.0 21.1 11.0 22.1 13.0 22.1 13.0 23.1 15.0 23.1 15.0 24.1 17.0 24.1 17.0 25.1 19.0 25.1 19.0 24.1 20.0 24.1 20.0 25.1 24.0 25.1" fill="#ffffff" fill-rule="evenodd" stroke="none"/>
  </g>
</svg>
