<?xml version="1.0" encoding="UTF-8" standalone="no"?>
<svg xmlns:ffdec="https://www.free-decompiler.com/flash" xmlns:xlink="http://www.w3.org/1999/xlink" ffdec:objectType="shape" height="8.0px" width="12.0px" xmlns="http://www.w3.org/2000/svg">
  <g transform="matrix(1.0, 0.0, 0.0, 1.0, -10.0, -21.15)">
    <path d="M11.0 21.15 L12.0 21.15 12.0 25.15 15.0 25.15 15.0 26.15 19.0 26.15 19.0 25.15 21.0 25.15 21.0 28.15 18.0 28.15 18.0 27.15 14.0 27.15 14.0 26.15 11.0 26.15 11.0 21.15" fill="#ffffff" fill-rule="evenodd" stroke="none"/>
    <path d="M12.0 21.15 L13.0 21.15 13.0 24.15 15.0 24.15 15.0 25.15 19.0 25.15 19.0 24.15 22.0 24.15 22.0 28.15 21.0 28.15 21.0 29.15 18.0 29.15 18.0 28.15 14.0 28.15 14.0 27.15 11.0 27.15 11.0 26.15 10.0 26.15 10.0 21.15 11.0 21.15 11.0 26.15 14.0 26.15 14.0 27.15 18.0 27.15 18.0 28.15 21.0 28.15 21.0 25.15 19.0 25.15 19.0 26.15 15.0 26.15 15.0 25.15 12.0 25.15 12.0 21.15" fill="#000000" fill-rule="evenodd" stroke="none"/>
  </g>
</svg>
