<?xml version="1.0" encoding="UTF-8" standalone="no"?>
<svg xmlns:ffdec="https://www.free-decompiler.com/flash" xmlns:xlink="http://www.w3.org/1999/xlink" ffdec:objectType="shape" height="40.0px" width="35.0px" xmlns="http://www.w3.org/2000/svg">
  <g transform="matrix(1.0, 0.0, 0.0, 1.0, 0.0, -0.05)">
    <path d="M33.0 4.05 L33.0 3.05 34.0 3.05 34.0 4.05 33.0 4.05 33.0 5.05 31.0 5.05 31.0 6.05 30.0 6.05 30.0 7.05 28.0 7.05 28.0 8.05 27.0 8.05 27.0 9.05 25.0 9.05 25.0 10.05 24.0 10.05 24.0 14.05 25.0 14.05 25.0 16.05 26.0 16.05 26.0 17.05 27.0 17.05 27.0 20.05 26.0 20.05 26.0 21.05 25.0 21.05 25.0 22.05 24.0 22.05 24.0 21.05 23.0 21.05 23.0 20.05 22.0 20.05 22.0 19.05 21.0 19.05 21.0 18.05 20.0 18.05 20.0 19.05 19.0 19.05 19.0 22.05 18.0 22.05 18.0 25.05 19.0 25.05 19.0 27.05 16.0 27.05 16.0 29.05 17.0 29.05 17.0 30.05 19.0 30.05 19.0 31.05 20.0 31.05 20.0 32.05 21.0 32.05 21.0 33.05 22.0 33.05 22.0 34.05 23.0 34.05 23.0 40.05 15.0 40.05 15.0 38.05 16.0 38.05 16.0 37.05 17.0 37.05 17.0 36.05 16.0 36.05 16.0 33.05 15.0 33.05 15.0 32.05 14.0 32.05 14.0 31.05 13.0 31.05 13.0 30.05 12.0 30.05 12.0 27.05 11.0 27.05 11.0 28.05 10.0 28.05 10.0 29.05 9.0 29.05 9.0 34.05 10.0 34.05 10.0 36.05 8.0 36.05 8.0 40.05 0.0 40.05 0.0 38.05 1.0 38.05 1.0 37.05 2.0 37.05 2.0 36.05 3.0 36.05 3.0 35.05 2.0 35.05 2.0 34.05 3.0 34.05 3.0 32.05 4.0 32.05 4.0 29.05 5.0 29.05 5.0 28.05 3.0 28.05 3.0 27.05 2.0 27.05 2.0 23.05 3.0 23.05 3.0 20.05 4.0 20.05 4.0 19.05 5.0 19.05 5.0 18.05 6.0 18.05 6.0 17.05 7.0 17.05 7.0 16.05 8.0 16.05 8.0 15.05 10.0 15.05 10.0 13.05 9.0 13.05 9.0 12.05 7.0 12.05 7.0 10.05 8.0 10.05 8.0 9.05 13.0 9.05 13.0 8.05 16.0 8.05 16.0 10.05 17.0 10.05 17.0 9.05 18.0 9.05 18.0 8.05 21.0 8.05 21.0 9.05 22.0 9.05 22.0 8.05 24.0 8.05 24.0 7.05 25.0 7.05 25.0 6.05 26.0 6.05 26.0 3.05 27.0 3.05 27.0 4.05 28.0 4.05 28.0 2.05 29.0 2.05 29.0 3.05 30.0 3.05 30.0 1.05 31.0 1.05 31.0 2.05 32.0 2.05 32.0 0.05 33.0 0.05 33.0 1.05 35.0 1.05 35.0 3.05 34.0 3.05 34.0 2.05 32.0 2.05 32.0 3.05 30.0 3.05 30.0 4.05 29.0 4.05 29.0 5.05 27.0 5.05 27.0 7.05 28.0 7.05 28.0 6.05 30.0 6.05 30.0 5.05 31.0 5.05 31.0 4.05 33.0 4.05 M25.0 8.05 L24.0 8.05 24.0 9.05 25.0 9.05 25.0 8.05 27.0 8.05 27.0 7.05 25.0 7.05 25.0 8.05 M21.0 11.05 L20.0 11.05 20.0 14.05 22.0 14.05 22.0 15.05 23.0 15.05 23.0 17.05 24.0 17.05 24.0 19.05 23.0 19.05 23.0 20.05 24.0 20.05 24.0 21.05 25.0 21.05 25.0 20.05 26.0 20.05 26.0 18.05 25.0 18.05 25.0 16.05 24.0 16.05 24.0 14.05 23.0 14.05 23.0 10.05 21.0 10.05 21.0 11.05 M21.0 9.05 L20.0 9.05 20.0 10.05 21.0 10.05 21.0 9.05 M22.0 18.05 L22.0 19.05 23.0 19.05 23.0 17.05 21.0 17.05 21.0 18.05 22.0 18.05 M14.0 9.05 L14.0 10.05 11.0 10.05 11.0 11.05 12.0 11.05 12.0 12.05 15.0 12.05 15.0 11.05 16.0 11.05 16.0 10.05 15.0 10.05 15.0 9.05 14.0 9.05 M12.0 14.05 L12.0 12.05 11.0 12.05 11.0 11.05 10.0 11.05 10.0 10.05 8.0 10.05 8.0 11.05 9.0 11.05 9.0 12.05 10.0 12.05 10.0 13.05 11.0 13.05 11.0 14.05 12.0 14.05 12.0 15.05 10.0 15.05 10.0 16.05 9.0 16.05 9.0 17.05 8.0 17.05 8.0 18.05 7.0 18.05 7.0 19.05 6.0 19.05 6.0 20.05 5.0 20.05 5.0 25.05 6.0 25.05 6.0 26.05 7.0 26.05 7.0 25.05 7.0 24.05 8.0 24.05 9.0 24.05 9.0 23.05 9.0 22.05 11.0 22.05 11.0 21.05 12.0 21.05 12.0 20.05 13.0 20.05 13.0 19.05 14.0 19.05 14.0 18.05 16.0 18.05 16.0 15.05 15.0 15.05 15.0 13.05 14.0 13.05 14.0 14.05 12.0 14.05 M16.0 15.05 L17.0 15.05 17.0 14.05 18.0 14.05 18.0 13.05 19.0 13.05 19.0 12.05 18.0 12.05 18.0 13.05 17.0 13.05 17.0 14.05 16.0 14.05 16.0 15.05 M20.0 10.05 L19.0 10.05 19.0 11.05 20.0 11.05 20.0 10.05 M8.0 18.05 L9.0 18.05 9.0 21.05 8.0 21.05 8.0 18.05 M12.0 16.05 L12.0 19.05 11.0 19.05 11.0 16.05 12.0 16.05 M12.0 24.05 L11.0 24.05 11.0 25.05 16.0 25.05 16.0 26.05 18.0 26.05 18.0 25.05 17.0 25.05 17.0 22.05 16.0 22.05 16.0 21.05 14.0 21.05 14.0 22.05 13.0 22.05 13.0 23.05 12.0 23.05 12.0 24.05 M18.0 20.05 L16.0 20.05 16.0 21.05 18.0 21.05 18.0 20.05 M5.0 29.05 L5.0 32.05 4.0 32.05 4.0 34.05 3.0 34.05 3.0 35.05 9.0 35.05 9.0 34.05 8.0 34.05 8.0 29.05 9.0 29.05 9.0 28.05 10.0 28.05 10.0 27.05 11.0 27.05 11.0 26.05 9.0 26.05 9.0 27.05 8.0 27.05 8.0 28.05 6.0 28.05 6.0 29.05 5.0 29.05 M16.0 29.05 L15.0 29.05 15.0 26.05 13.0 26.05 13.0 30.05 14.0 30.05 14.0 31.05 15.0 31.05 15.0 32.05 16.0 32.05 16.0 33.05 17.0 33.05 17.0 35.05 22.0 35.05 22.0 34.05 21.0 34.05 21.0 33.05 20.0 33.05 20.0 32.05 19.0 32.05 19.0 31.05 17.0 31.05 17.0 30.05 16.0 30.05 16.0 29.05 M20.0 37.05 L17.0 37.05 17.0 38.05 22.0 38.05 22.0 36.05 20.0 36.05 20.0 37.05 M5.0 37.05 L2.0 37.05 2.0 38.05 7.0 38.05 7.0 36.05 5.0 36.05 5.0 37.05" fill="#000000" fill-rule="evenodd" stroke="none"/>
    <path d="M34.0 3.05 L33.0 3.05 33.0 4.05 31.0 4.05 31.0 5.05 30.0 5.05 30.0 6.05 28.0 6.05 28.0 7.05 27.0 7.05 27.0 5.05 29.0 5.05 29.0 4.05 30.0 4.05 30.0 3.05 32.0 3.05 32.0 2.05 34.0 2.05 34.0 3.05 M25.0 8.05 L25.0 9.05 24.0 9.05 24.0 8.05 25.0 8.05 25.0 7.05 27.0 7.05 27.0 8.05 25.0 8.05 M11.0 11.05 L11.0 12.05 12.0 12.05 12.0 14.05 11.0 14.05 11.0 13.05 10.0 13.05 10.0 12.05 9.0 12.05 9.0 11.05 8.0 11.05 8.0 10.05 10.0 10.05 10.0 11.05 11.0 11.05 M16.0 15.05 L16.0 14.05 17.0 14.05 17.0 13.05 18.0 13.05 18.0 12.05 19.0 12.05 19.0 13.05 18.0 13.05 18.0 14.05 17.0 14.05 17.0 15.05 16.0 15.05 M9.0 23.05 L9.0 24.05 8.0 24.05 8.0 23.05 9.0 23.05 M7.0 25.05 L7.0 26.05 6.0 26.05 6.0 25.05 7.0 25.05 M18.0 20.05 L18.0 21.05 16.0 21.05 16.0 20.05 18.0 20.05 M16.0 29.05 L16.0 30.05 17.0 30.05 17.0 31.05 19.0 31.05 19.0 32.05 20.0 32.05 20.0 33.05 21.0 33.05 21.0 34.05 22.0 34.05 22.0 35.05 17.0 35.05 17.0 33.05 16.0 33.05 16.0 32.05 15.0 32.05 15.0 31.05 14.0 31.05 14.0 30.05 13.0 30.05 13.0 26.05 15.0 26.05 15.0 29.05 16.0 29.05 M5.0 29.05 L6.0 29.05 6.0 28.05 8.0 28.05 8.0 27.05 9.0 27.05 9.0 26.05 11.0 26.05 11.0 27.05 10.0 27.05 10.0 28.05 9.0 28.05 9.0 29.05 8.0 29.05 8.0 34.05 9.0 34.05 9.0 35.05 3.0 35.05 3.0 34.05 4.0 34.05 4.0 32.05 5.0 32.05 5.0 29.05" fill="#777777" fill-rule="evenodd" stroke="none"/>
    <path d="M21.0 11.05 L21.0 10.05 23.0 10.05 23.0 14.05 24.0 14.05 24.0 16.05 25.0 16.05 25.0 18.05 26.0 18.05 26.0 20.05 25.0 20.05 25.0 21.05 24.0 21.05 24.0 20.05 23.0 20.05 23.0 19.05 24.0 19.05 24.0 17.05 23.0 17.05 23.0 15.05 22.0 15.05 22.0 14.05 20.0 14.05 20.0 11.05 21.0 11.05 M14.0 9.05 L15.0 9.05 15.0 10.05 16.0 10.05 16.0 11.05 15.0 11.05 15.0 12.05 12.0 12.05 12.0 11.05 11.0 11.05 11.0 10.05 14.0 10.05 14.0 9.05 M22.0 18.05 L21.0 18.05 21.0 17.05 23.0 17.05 23.0 19.05 22.0 19.05 22.0 18.05" fill="#ffffff" fill-rule="evenodd" stroke="none"/>
    <path d="M12.0 14.05 L14.0 14.05 14.0 13.05 15.0 13.05 15.0 15.05 16.0 15.05 16.0 18.05 14.0 18.05 14.0 19.05 13.0 19.05 13.0 20.05 12.0 20.05 12.0 21.05 11.0 21.05 11.0 22.05 9.0 22.05 9.0 23.05 8.0 23.05 8.0 24.05 7.0 24.05 7.0 25.05 6.0 25.05 5.0 25.05 5.0 20.05 6.0 20.05 6.0 19.05 7.0 19.05 7.0 18.05 8.0 18.05 8.0 17.05 9.0 17.05 9.0 16.05 10.0 16.05 10.0 15.05 12.0 15.05 12.0 14.05 M8.0 18.05 L8.0 21.05 9.0 21.05 9.0 18.05 8.0 18.05 M12.0 24.05 L12.0 23.05 13.0 23.05 13.0 22.05 14.0 22.05 14.0 21.05 16.0 21.05 16.0 22.05 17.0 22.05 17.0 25.05 18.0 25.05 18.0 26.05 16.0 26.05 16.0 25.05 11.0 25.05 11.0 24.05 12.0 24.05 M12.0 16.05 L11.0 16.05 11.0 19.05 12.0 19.05 12.0 16.05 M20.0 37.05 L20.0 36.05 22.0 36.05 22.0 38.05 17.0 38.05 17.0 37.05 20.0 37.05 M5.0 37.05 L5.0 36.05 7.0 36.05 7.0 38.05 2.0 38.05 2.0 37.05 5.0 37.05" fill="#d1d1d1" fill-rule="evenodd" stroke="none"/>
  </g>
</svg>
