<?xml version="1.0" encoding="UTF-8" standalone="no"?>
<svg xmlns:ffdec="https://www.free-decompiler.com/flash" xmlns:xlink="http://www.w3.org/1999/xlink" ffdec:objectType="shape" height="30.0px" width="33.0px" xmlns="http://www.w3.org/2000/svg">
  <g transform="matrix(1.0, 0.0, 0.0, 1.0, 0.0, 0.0)">
    <path d="M29.0 6.0 L29.0 9.0 30.0 9.0 30.0 17.0 29.0 17.0 29.0 19.0 28.0 19.0 28.0 22.0 29.0 22.0 29.0 23.0 31.0 23.0 31.0 21.0 32.0 21.0 32.0 22.0 33.0 22.0 33.0 25.0 32.0 25.0 32.0 26.0 31.0 26.0 31.0 27.0 30.0 27.0 30.0 28.0 27.0 28.0 27.0 27.0 26.0 27.0 26.0 26.0 25.0 26.0 25.0 28.0 24.0 28.0 24.0 29.0 21.0 29.0 21.0 30.0 12.0 30.0 12.0 29.0 9.0 29.0 9.0 28.0 8.0 28.0 8.0 26.0 7.0 26.0 7.0 27.0 6.0 27.0 6.0 28.0 3.0 28.0 3.0 27.0 2.0 27.0 2.0 26.0 1.0 26.0 1.0 25.0 0.0 25.0 0.0 22.0 1.0 22.0 1.0 21.0 2.0 21.0 2.0 23.0 4.0 23.0 4.0 22.0 5.0 22.0 5.0 19.0 4.0 19.0 4.0 17.0 3.0 17.0 3.0 9.0 4.0 9.0 4.0 7.0 5.0 7.0 5.0 4.0 6.0 4.0 6.0 3.0 8.0 3.0 8.0 2.0 9.0 2.0 9.0 1.0 11.0 1.0 11.0 0.0 22.0 0.0 22.0 1.0 25.0 1.0 25.0 2.0 26.0 2.0 26.0 3.0 27.0 3.0 27.0 4.0 28.0 4.0 28.0 6.0 29.0 6.0 M23.0 12.0 L23.0 13.0 20.0 13.0 20.0 14.0 19.0 14.0 19.0 15.0 17.0 15.0 17.0 14.0 15.0 14.0 15.0 13.0 13.0 13.0 13.0 12.0 11.0 12.0 11.0 11.0 10.0 11.0 10.0 12.0 9.0 12.0 9.0 13.0 8.0 13.0 8.0 26.0 9.0 26.0 9.0 27.0 10.0 27.0 10.0 28.0 12.0 28.0 12.0 29.0 21.0 29.0 21.0 28.0 23.0 28.0 23.0 27.0 24.0 27.0 24.0 26.0 25.0 26.0 25.0 13.0 24.0 13.0 24.0 12.0 23.0 12.0 M24.0 16.0 L20.0 16.0 20.0 15.0 24.0 15.0 24.0 16.0 M23.0 18.0 L23.0 19.0 24.0 19.0 24.0 21.0 23.0 21.0 23.0 22.0 24.0 22.0 24.0 23.0 23.0 23.0 23.0 24.0 19.0 24.0 19.0 23.0 18.0 23.0 18.0 22.0 19.0 22.0 19.0 23.0 20.0 23.0 20.0 22.0 21.0 22.0 21.0 21.0 23.0 21.0 23.0 20.0 19.0 20.0 19.0 21.0 18.0 21.0 18.0 20.0 19.0 20.0 19.0 19.0 20.0 19.0 20.0 18.0 21.0 18.0 21.0 19.0 22.0 19.0 22.0 18.0 23.0 18.0 M9.0 15.0 L13.0 15.0 13.0 16.0 9.0 16.0 9.0 15.0 M9.0 21.0 L9.0 19.0 10.0 19.0 10.0 18.0 11.0 18.0 11.0 19.0 12.0 19.0 12.0 18.0 13.0 18.0 13.0 19.0 14.0 19.0 14.0 20.0 15.0 20.0 15.0 21.0 14.0 21.0 14.0 22.0 15.0 22.0 15.0 23.0 14.0 23.0 14.0 24.0 10.0 24.0 10.0 23.0 9.0 23.0 9.0 22.0 10.0 22.0 10.0 23.0 11.0 23.0 11.0 22.0 12.0 22.0 12.0 21.0 14.0 21.0 14.0 20.0 10.0 20.0 10.0 21.0 9.0 21.0 M20.0 26.0 L21.0 26.0 21.0 27.0 20.0 27.0 20.0 28.0 13.0 28.0 13.0 27.0 12.0 27.0 12.0 26.0 13.0 26.0 13.0 27.0 20.0 27.0 20.0 26.0" fill="#000000" fill-rule="evenodd" stroke="none"/>
    <path d="M23.0 12.0 L24.0 12.0 24.0 13.0 25.0 13.0 25.0 26.0 24.0 26.0 24.0 27.0 23.0 27.0 23.0 28.0 21.0 28.0 21.0 29.0 12.0 29.0 12.0 28.0 10.0 28.0 10.0 27.0 9.0 27.0 9.0 26.0 8.0 26.0 8.0 13.0 9.0 13.0 9.0 12.0 10.0 12.0 10.0 11.0 11.0 11.0 11.0 12.0 13.0 12.0 13.0 13.0 15.0 13.0 15.0 14.0 17.0 14.0 17.0 15.0 19.0 15.0 19.0 14.0 20.0 14.0 20.0 13.0 23.0 13.0 23.0 12.0 M24.0 16.0 L24.0 15.0 20.0 15.0 20.0 16.0 24.0 16.0 M23.0 18.0 L22.0 18.0 22.0 19.0 21.0 19.0 21.0 18.0 20.0 18.0 20.0 19.0 19.0 19.0 19.0 20.0 18.0 20.0 18.0 21.0 19.0 21.0 19.0 20.0 23.0 20.0 23.0 21.0 21.0 21.0 21.0 22.0 20.0 22.0 20.0 23.0 19.0 23.0 19.0 22.0 18.0 22.0 18.0 23.0 19.0 23.0 19.0 24.0 23.0 24.0 23.0 23.0 24.0 23.0 24.0 22.0 23.0 22.0 23.0 21.0 24.0 21.0 24.0 19.0 23.0 19.0 23.0 18.0 M9.0 15.0 L9.0 16.0 13.0 16.0 13.0 15.0 9.0 15.0 M20.0 26.0 L20.0 27.0 13.0 27.0 13.0 26.0 12.0 26.0 12.0 27.0 13.0 27.0 13.0 28.0 20.0 28.0 20.0 27.0 21.0 27.0 21.0 26.0 20.0 26.0 M9.0 21.0 L10.0 21.0 10.0 20.0 14.0 20.0 14.0 21.0 12.0 21.0 12.0 22.0 11.0 22.0 11.0 23.0 10.0 23.0 10.0 22.0 9.0 22.0 9.0 23.0 10.0 23.0 10.0 24.0 14.0 24.0 14.0 23.0 15.0 23.0 15.0 22.0 14.0 22.0 14.0 21.0 15.0 21.0 15.0 20.0 14.0 20.0 14.0 19.0 13.0 19.0 13.0 18.0 12.0 18.0 12.0 19.0 11.0 19.0 11.0 18.0 10.0 18.0 10.0 19.0 9.0 19.0 9.0 21.0" fill="#ffffff" fill-rule="evenodd" stroke="none"/>
  </g>
</svg>
