<?xml version="1.0" encoding="UTF-8" standalone="no"?>
<svg xmlns:ffdec="https://www.free-decompiler.com/flash" xmlns:xlink="http://www.w3.org/1999/xlink" ffdec:objectType="shape" height="39.0px" width="41.0px" xmlns="http://www.w3.org/2000/svg">
  <g transform="matrix(1.0, 0.0, 0.0, 1.0, 0.0, -6.15)">
    <path d="M41.0 9.15 L40.0 9.15 40.0 11.15 39.0 11.15 39.0 13.15 38.0 13.15 38.0 15.15 37.0 15.15 37.0 16.15 36.0 16.15 36.0 17.15 35.0 17.15 35.0 19.15 34.0 19.15 34.0 21.15 33.0 21.15 33.0 25.15 32.0 25.15 32.0 27.15 33.0 27.15 33.0 26.15 36.0 26.15 36.0 27.15 37.0 27.15 37.0 30.15 36.0 30.15 36.0 31.15 34.0 31.15 34.0 32.15 32.0 32.15 32.0 33.15 30.0 33.15 30.0 36.15 31.0 36.15 31.0 39.15 30.0 39.15 30.0 41.15 31.0 41.15 31.0 42.15 32.0 42.15 32.0 43.15 33.0 43.15 33.0 45.15 24.0 45.15 24.0 43.15 21.0 43.15 21.0 42.15 19.0 42.15 19.0 41.15 18.0 41.15 18.0 40.15 17.0 40.15 17.0 38.15 16.0 38.15 16.0 37.15 15.0 37.15 15.0 38.15 14.0 38.15 14.0 39.15 13.0 39.15 13.0 40.15 12.0 40.15 12.0 41.15 11.0 41.15 11.0 42.15 7.0 42.15 7.0 43.15 5.0 43.15 5.0 42.15 4.0 42.15 4.0 43.15 3.0 43.15 3.0 44.15 2.0 44.15 2.0 45.15 0.0 45.15 0.0 37.15 7.0 37.15 7.0 38.15 9.0 38.15 9.0 37.15 10.0 37.15 10.0 36.15 11.0 36.15 11.0 34.15 12.0 34.15 12.0 32.15 13.0 32.15 13.0 31.15 11.0 31.15 11.0 30.15 12.0 30.15 12.0 28.15 11.0 28.15 11.0 27.15 9.0 27.15 9.0 26.15 7.0 26.15 7.0 25.15 6.0 25.15 6.0 22.15 7.0 22.15 7.0 21.15 9.0 21.15 9.0 20.15 11.0 20.15 11.0 19.15 16.0 19.15 16.0 18.15 19.0 18.15 19.0 19.15 20.0 19.15 20.0 20.15 23.0 20.15 23.0 19.15 24.0 19.15 24.0 18.15 26.0 18.15 26.0 19.15 27.0 19.15 27.0 21.15 26.0 21.15 26.0 22.15 25.0 22.15 25.0 23.15 27.0 23.15 27.0 24.15 28.0 24.15 28.0 23.15 29.0 23.15 29.0 21.15 30.0 21.15 30.0 19.15 31.0 19.15 31.0 17.15 32.0 17.15 32.0 15.15 31.0 15.15 31.0 13.15 32.0 13.15 32.0 12.15 33.0 12.15 33.0 11.15 32.0 11.15 32.0 10.15 33.0 10.15 33.0 9.15 34.0 9.15 34.0 8.15 35.0 8.15 35.0 7.15 36.0 7.15 36.0 8.15 37.0 8.15 37.0 6.15 40.0 6.15 40.0 7.15 41.0 7.15 41.0 9.15 M36.0 9.15 L36.0 8.15 35.0 8.15 35.0 9.15 34.0 9.15 34.0 10.15 33.0 10.15 33.0 11.15 34.0 11.15 34.0 12.15 33.0 12.15 33.0 13.15 32.0 13.15 32.0 14.15 34.0 14.15 34.0 15.15 33.0 15.15 33.0 17.15 32.0 17.15 32.0 19.15 31.0 19.15 31.0 21.15 30.0 21.15 30.0 23.15 29.0 23.15 29.0 24.15 30.0 24.15 30.0 23.15 32.0 23.15 32.0 21.15 33.0 21.15 33.0 19.15 34.0 19.15 34.0 17.15 35.0 17.15 35.0 15.15 37.0 15.15 37.0 13.15 38.0 13.15 38.0 11.15 39.0 11.15 39.0 9.15 40.0 9.15 40.0 7.15 38.0 7.15 38.0 8.15 37.0 8.15 37.0 9.15 36.0 9.15 36.0 10.15 35.0 10.15 35.0 11.15 34.0 11.15 34.0 10.15 35.0 10.15 35.0 9.15 36.0 9.15 M30.0 24.15 L30.0 26.15 31.0 26.15 31.0 25.15 32.0 25.15 32.0 24.15 30.0 24.15 M22.0 21.15 L20.0 21.15 20.0 20.15 18.0 20.15 18.0 19.15 17.0 19.15 17.0 20.15 14.0 20.15 14.0 21.15 16.0 21.15 16.0 22.15 22.0 22.15 22.0 21.15 M25.0 24.15 L25.0 25.15 26.0 25.15 26.0 26.15 27.0 26.15 27.0 24.15 25.0 24.15 M9.0 21.15 L9.0 22.15 7.0 22.15 7.0 25.15 9.0 25.15 9.0 26.15 11.0 26.15 11.0 27.15 15.0 27.15 15.0 24.15 13.0 24.15 13.0 26.15 12.0 26.15 12.0 25.15 10.0 25.15 10.0 24.15 8.0 24.15 8.0 23.15 10.0 23.15 10.0 21.15 9.0 21.15 M12.0 21.15 L12.0 20.15 11.0 20.15 11.0 21.15 12.0 21.15 12.0 22.15 14.0 22.15 14.0 23.15 16.0 23.15 16.0 25.15 18.0 25.15 18.0 29.15 17.0 29.15 17.0 30.15 18.0 30.15 18.0 29.15 20.0 29.15 20.0 25.15 21.0 25.15 21.0 23.15 16.0 23.15 16.0 22.15 14.0 22.15 14.0 21.15 12.0 21.15 M21.0 25.15 L21.0 27.15 22.0 27.15 22.0 25.15 21.0 25.15 M13.0 24.15 L13.0 23.15 11.0 23.15 11.0 24.15 13.0 24.15 M15.0 29.15 L13.0 29.15 13.0 30.15 15.0 30.15 15.0 29.15 M17.0 27.15 L16.0 27.15 16.0 28.15 17.0 28.15 17.0 27.15 M14.0 32.15 L13.0 32.15 13.0 34.15 12.0 34.15 12.0 35.15 16.0 35.15 16.0 31.15 14.0 31.15 14.0 32.15 M11.0 36.15 L11.0 37.15 10.0 37.15 10.0 38.15 9.0 38.15 9.0 39.15 7.0 39.15 7.0 38.15 5.0 38.15 5.0 42.15 6.0 42.15 6.0 41.15 11.0 41.15 11.0 40.15 12.0 40.15 12.0 39.15 13.0 39.15 13.0 38.15 14.0 38.15 14.0 37.15 15.0 37.15 15.0 36.15 11.0 36.15 M19.0 32.15 L18.0 32.15 18.0 38.15 19.0 38.15 19.0 39.15 20.0 39.15 20.0 40.15 22.0 40.15 22.0 41.15 25.0 41.15 25.0 40.15 26.0 40.15 26.0 38.15 27.0 38.15 27.0 36.15 28.0 36.15 28.0 34.15 29.0 34.15 29.0 32.15 30.0 32.15 30.0 31.15 29.0 31.15 29.0 30.15 27.0 30.15 27.0 29.15 25.0 29.15 25.0 28.15 24.0 28.15 24.0 27.15 23.0 27.15 23.0 28.15 22.0 28.15 22.0 29.15 21.0 29.15 21.0 30.15 20.0 30.15 20.0 31.15 19.0 31.15 19.0 32.15 M4.0 38.15 L2.0 38.15 2.0 43.15 3.0 43.15 3.0 40.15 4.0 40.15 4.0 38.15 M32.0 28.15 L32.0 27.15 30.0 27.15 30.0 29.15 31.0 29.15 31.0 28.15 32.0 28.15 M28.0 25.15 L28.0 27.15 27.0 27.15 27.0 28.15 28.0 28.15 28.0 29.15 29.0 29.15 29.0 25.15 28.0 25.15 M25.0 31.15 L25.0 32.15 27.0 32.15 27.0 34.15 25.0 34.15 25.0 33.15 23.0 33.15 23.0 31.15 25.0 31.15 M25.0 36.15 L25.0 38.15 23.0 38.15 23.0 37.15 21.0 37.15 21.0 35.15 23.0 35.15 23.0 36.15 25.0 36.15 M29.0 39.15 L29.0 38.15 28.0 38.15 28.0 39.15 29.0 39.15 M26.0 43.15 L31.0 43.15 31.0 42.15 26.0 42.15 26.0 43.15 M27.0 40.15 L27.0 41.15 28.0 41.15 28.0 40.15 27.0 40.15" fill="#000000" fill-rule="evenodd" stroke="none"/>
    <path d="M36.0 9.15 L37.0 9.15 37.0 8.15 38.0 8.15 38.0 7.15 40.0 7.15 40.0 9.15 39.0 9.15 39.0 11.15 38.0 11.15 38.0 13.15 37.0 13.15 37.0 15.15 35.0 15.15 35.0 17.15 34.0 17.15 34.0 19.15 33.0 19.15 33.0 21.15 32.0 21.15 32.0 23.15 30.0 23.15 30.0 24.15 29.0 24.15 29.0 23.15 30.0 23.15 30.0 21.15 31.0 21.15 31.0 19.15 32.0 19.15 32.0 17.15 33.0 17.15 33.0 15.15 34.0 15.15 34.0 14.15 32.0 14.15 32.0 13.15 33.0 13.15 33.0 12.15 34.0 12.15 34.0 11.15 35.0 11.15 35.0 10.15 36.0 10.15 36.0 9.15 M12.0 21.15 L11.0 21.15 11.0 20.15 12.0 20.15 12.0 21.15 14.0 21.15 14.0 22.15 16.0 22.15 16.0 23.15 21.0 23.15 21.0 25.15 20.0 25.15 20.0 29.15 18.0 29.15 18.0 30.15 17.0 30.15 17.0 29.15 18.0 29.15 18.0 25.15 16.0 25.15 16.0 23.15 14.0 23.15 14.0 22.15 12.0 22.15 12.0 21.15 M17.0 27.15 L17.0 28.15 16.0 28.15 16.0 27.15 17.0 27.15 M15.0 29.15 L15.0 30.15 13.0 30.15 13.0 29.15 15.0 29.15 M11.0 36.15 L15.0 36.15 15.0 37.15 14.0 37.15 14.0 38.15 13.0 38.15 13.0 39.15 12.0 39.15 12.0 40.15 11.0 40.15 11.0 41.15 6.0 41.15 6.0 42.15 5.0 42.15 5.0 38.15 7.0 38.15 7.0 39.15 9.0 39.15 9.0 38.15 10.0 38.15 10.0 37.15 11.0 37.15 11.0 36.15 M28.0 25.15 L29.0 25.15 29.0 29.15 28.0 29.15 28.0 28.15 27.0 28.15 27.0 27.15 28.0 27.15 28.0 25.15 M29.0 39.15 L28.0 39.15 28.0 38.15 29.0 38.15 29.0 39.15 M27.0 40.15 L28.0 40.15 28.0 41.15 27.0 41.15 27.0 40.15" fill="#777777" fill-rule="evenodd" stroke="none"/>
    <path d="M30.0 24.15 L32.0 24.15 32.0 25.15 31.0 25.15 31.0 26.15 30.0 26.15 30.0 24.15 M9.0 21.15 L10.0 21.15 10.0 23.15 8.0 23.15 8.0 24.15 10.0 24.15 10.0 25.15 12.0 25.15 12.0 26.15 13.0 26.15 13.0 24.15 15.0 24.15 15.0 27.15 11.0 27.15 11.0 26.15 9.0 26.15 9.0 25.15 7.0 25.15 7.0 22.15 9.0 22.15 9.0 21.15 M25.0 24.15 L27.0 24.15 27.0 26.15 26.0 26.15 26.0 25.15 25.0 25.15 25.0 24.15 M22.0 21.15 L22.0 22.15 16.0 22.15 16.0 21.15 14.0 21.15 14.0 20.15 17.0 20.15 17.0 19.15 18.0 19.15 18.0 20.15 20.0 20.15 20.0 21.15 22.0 21.15" fill="#ffffff" fill-rule="evenodd" stroke="none"/>
    <path d="M14.0 32.15 L14.0 31.15 16.0 31.15 16.0 35.15 12.0 35.15 12.0 34.15 13.0 34.15 13.0 32.15 14.0 32.15 M19.0 32.15 L19.0 31.15 20.0 31.15 20.0 30.15 21.0 30.15 21.0 29.15 22.0 29.15 22.0 28.15 23.0 28.15 23.0 27.15 24.0 27.15 24.0 28.15 25.0 28.15 25.0 29.15 27.0 29.15 27.0 30.15 29.0 30.15 29.0 31.15 30.0 31.15 30.0 32.15 29.0 32.15 29.0 34.15 28.0 34.15 28.0 36.15 27.0 36.15 27.0 38.15 26.0 38.15 26.0 40.15 25.0 40.15 25.0 41.15 22.0 41.15 22.0 40.15 20.0 40.15 20.0 39.15 19.0 39.15 19.0 38.15 18.0 38.15 18.0 32.15 19.0 32.15 M4.0 38.15 L4.0 40.15 3.0 40.15 3.0 43.15 2.0 43.15 2.0 38.15 4.0 38.15 M25.0 36.15 L23.0 36.15 23.0 35.15 21.0 35.15 21.0 37.15 23.0 37.15 23.0 38.15 25.0 38.15 25.0 36.15 M25.0 31.15 L23.0 31.15 23.0 33.15 25.0 33.15 25.0 34.15 27.0 34.15 27.0 32.15 25.0 32.15 25.0 31.15 M26.0 43.15 L26.0 42.15 31.0 42.15 31.0 43.15 26.0 43.15" fill="#d1d1d1" fill-rule="evenodd" stroke="none"/>
  </g>
</svg>
