<?xml version="1.0" encoding="UTF-8" standalone="no"?>
<svg xmlns:ffdec="https://www.free-decompiler.com/flash" xmlns:xlink="http://www.w3.org/1999/xlink" ffdec:objectType="shape" height="40.0px" width="39.0px" xmlns="http://www.w3.org/2000/svg">
  <g transform="matrix(1.0, 0.0, 0.0, 1.0, 0.0, -5.15)">
    <path d="M35.0 7.15 L35.0 5.15 38.0 5.15 38.0 6.15 36.0 6.15 36.0 7.15 35.0 7.15 35.0 8.15 34.0 8.15 34.0 9.15 33.0 9.15 33.0 10.15 32.0 10.15 32.0 11.15 31.0 11.15 31.0 12.15 30.0 12.15 30.0 13.15 32.0 13.15 32.0 14.15 31.0 14.15 31.0 16.15 30.0 16.15 30.0 18.15 29.0 18.15 29.0 20.15 28.0 20.15 28.0 22.15 30.0 22.15 30.0 20.15 31.0 20.15 31.0 18.15 32.0 18.15 32.0 16.15 33.0 16.15 33.0 14.15 35.0 14.15 35.0 12.15 36.0 12.15 36.0 10.15 37.0 10.15 37.0 8.15 38.0 8.15 38.0 6.15 39.0 6.15 39.0 8.15 38.0 8.15 38.0 10.15 37.0 10.15 37.0 12.15 36.0 12.15 36.0 14.15 35.0 14.15 35.0 15.15 34.0 15.15 34.0 16.15 33.0 16.15 33.0 18.15 32.0 18.15 32.0 20.15 31.0 20.15 31.0 24.15 30.0 24.15 30.0 26.15 31.0 26.15 31.0 25.15 34.0 25.15 34.0 26.15 35.0 26.15 35.0 29.15 34.0 29.15 34.0 30.15 32.0 30.15 32.0 31.15 30.0 31.15 30.0 32.15 28.0 32.15 28.0 34.15 29.0 34.15 29.0 39.15 30.0 39.15 30.0 41.15 31.0 41.15 31.0 42.15 32.0 42.15 32.0 43.15 33.0 43.15 33.0 45.15 24.0 45.15 24.0 42.15 19.0 42.15 19.0 41.15 17.0 41.15 17.0 40.15 16.0 40.15 16.0 39.15 15.0 39.15 15.0 38.15 14.0 38.15 14.0 39.15 13.0 39.15 13.0 40.15 12.0 40.15 12.0 41.15 11.0 41.15 11.0 42.15 7.0 42.15 7.0 43.15 5.0 43.15 5.0 42.15 4.0 42.15 4.0 43.15 3.0 43.15 3.0 44.15 2.0 44.15 2.0 45.15 0.0 45.15 0.0 37.15 7.0 37.15 7.0 38.15 9.0 38.15 9.0 37.15 10.0 37.15 10.0 36.15 11.0 36.15 11.0 34.15 12.0 34.15 12.0 32.15 13.0 32.15 13.0 31.15 11.0 31.15 11.0 30.15 12.0 30.15 12.0 28.15 13.0 28.15 13.0 26.15 14.0 26.15 14.0 23.15 13.0 23.15 13.0 20.15 14.0 20.15 14.0 19.15 16.0 19.15 16.0 18.15 19.0 18.15 19.0 19.15 21.0 19.15 21.0 18.15 22.0 18.15 22.0 17.15 24.0 17.15 24.0 18.15 25.0 18.15 25.0 20.15 24.0 20.15 24.0 22.15 25.0 22.15 25.0 23.15 26.0 23.15 26.0 22.15 27.0 22.15 27.0 20.15 28.0 20.15 28.0 18.15 29.0 18.15 29.0 16.15 30.0 16.15 30.0 14.15 29.0 14.15 29.0 12.15 30.0 12.15 30.0 11.15 31.0 11.15 31.0 10.15 30.0 10.15 30.0 9.15 31.0 9.15 31.0 8.15 32.0 8.15 32.0 7.15 33.0 7.15 33.0 6.15 34.0 6.15 34.0 7.15 35.0 7.15 M33.0 7.15 L33.0 8.15 34.0 8.15 34.0 7.15 33.0 7.15 M33.0 8.15 L32.0 8.15 32.0 9.15 31.0 9.15 31.0 10.15 32.0 10.15 32.0 9.15 33.0 9.15 33.0 8.15 M24.0 23.15 L24.0 25.15 25.0 25.15 25.0 23.15 24.0 23.15 24.0 22.15 23.0 22.15 23.0 23.15 24.0 23.15 M27.0 23.15 L28.0 23.15 28.0 22.15 27.0 22.15 27.0 23.15 M27.0 24.15 L26.0 24.15 26.0 26.15 27.0 26.15 27.0 24.15 M30.0 24.15 L30.0 23.15 28.0 23.15 28.0 25.15 29.0 25.15 29.0 24.15 30.0 24.15 M15.0 21.15 L17.0 21.15 17.0 22.15 19.0 22.15 19.0 21.15 20.0 21.15 20.0 20.15 18.0 20.15 18.0 19.15 17.0 19.15 17.0 20.15 15.0 20.15 15.0 21.15 14.0 21.15 14.0 22.15 15.0 22.15 15.0 21.15 M28.0 27.15 L25.0 27.15 25.0 26.15 23.0 26.15 23.0 25.15 21.0 25.15 21.0 24.15 19.0 24.15 19.0 23.15 17.0 23.15 17.0 22.15 15.0 22.15 15.0 23.15 16.0 23.15 16.0 24.15 18.0 24.15 18.0 25.15 20.0 25.15 20.0 26.15 22.0 26.15 22.0 27.15 23.0 27.15 23.0 28.15 22.0 28.15 22.0 27.15 20.0 27.15 20.0 26.15 18.0 26.15 18.0 25.15 16.0 25.15 16.0 24.15 15.0 24.15 15.0 26.15 14.0 26.15 14.0 29.15 13.0 29.15 13.0 30.15 15.0 30.15 15.0 29.15 16.0 29.15 16.0 28.15 18.0 28.15 18.0 27.15 20.0 27.15 20.0 28.15 19.0 28.15 19.0 29.15 18.0 29.15 18.0 30.15 17.0 30.15 17.0 31.15 16.0 31.15 16.0 37.15 17.0 37.15 17.0 38.15 18.0 38.15 18.0 39.15 20.0 39.15 20.0 40.15 23.0 40.15 23.0 39.15 24.0 39.15 24.0 37.15 25.0 37.15 25.0 35.15 26.0 35.15 26.0 33.15 27.0 33.15 27.0 31.15 25.0 31.15 25.0 33.15 23.0 33.15 23.0 32.15 21.0 32.15 21.0 30.15 23.0 30.15 23.0 31.15 24.0 31.15 24.0 30.15 23.0 30.15 23.0 28.15 24.0 28.15 24.0 29.15 25.0 29.15 25.0 30.15 28.0 30.15 28.0 27.15 30.0 27.15 30.0 26.15 28.0 26.15 28.0 27.15 M13.0 32.15 L13.0 34.15 12.0 34.15 12.0 35.15 14.0 35.15 14.0 32.15 13.0 32.15 M11.0 36.15 L11.0 37.15 10.0 37.15 10.0 38.15 9.0 38.15 9.0 39.15 7.0 39.15 7.0 38.15 5.0 38.15 5.0 42.15 6.0 42.15 6.0 41.15 11.0 41.15 11.0 40.15 12.0 40.15 12.0 39.15 13.0 39.15 13.0 38.15 14.0 38.15 14.0 36.15 11.0 36.15 M19.0 34.15 L21.0 34.15 21.0 35.15 23.0 35.15 23.0 37.15 21.0 37.15 21.0 36.15 19.0 36.15 19.0 34.15 M4.0 40.15 L4.0 38.15 2.0 38.15 2.0 43.15 3.0 43.15 3.0 40.15 4.0 40.15 M27.0 37.15 L26.0 37.15 26.0 38.15 27.0 38.15 27.0 37.15 M26.0 40.15 L26.0 39.15 25.0 39.15 25.0 40.15 26.0 40.15 M29.0 39.15 L27.0 39.15 27.0 40.15 29.0 40.15 29.0 39.15 M26.0 43.15 L31.0 43.15 31.0 42.15 28.0 42.15 28.0 41.15 26.0 41.15 26.0 43.15" fill="#000000" fill-rule="evenodd" stroke="none"/>
    <path d="M35.0 7.15 L36.0 7.15 36.0 6.15 38.0 6.15 38.0 8.15 37.0 8.15 37.0 10.15 36.0 10.15 36.0 12.15 35.0 12.15 35.0 14.15 33.0 14.15 33.0 16.15 32.0 16.15 32.0 18.15 31.0 18.15 31.0 20.15 30.0 20.15 30.0 22.15 28.0 22.15 28.0 20.15 29.0 20.15 29.0 18.15 30.0 18.15 30.0 16.15 31.0 16.15 31.0 14.15 32.0 14.15 32.0 13.15 30.0 13.15 30.0 12.15 31.0 12.15 31.0 11.15 32.0 11.15 32.0 10.15 33.0 10.15 33.0 9.15 34.0 9.15 34.0 8.15 35.0 8.15 35.0 7.15 M27.0 23.15 L27.0 22.15 28.0 22.15 28.0 23.15 27.0 23.15 M24.0 23.15 L23.0 23.15 23.0 22.15 24.0 22.15 24.0 23.15 M27.0 24.15 L27.0 26.15 26.0 26.15 26.0 24.15 27.0 24.15 M15.0 21.15 L15.0 22.15 14.0 22.15 14.0 21.15 15.0 21.15 M20.0 27.15 L18.0 27.15 18.0 28.15 16.0 28.15 16.0 29.15 15.0 29.15 15.0 30.15 13.0 30.15 13.0 29.15 14.0 29.15 14.0 26.15 15.0 26.15 15.0 24.15 16.0 24.15 16.0 25.15 18.0 25.15 18.0 26.15 20.0 26.15 20.0 27.15 M11.0 36.15 L14.0 36.15 14.0 38.15 13.0 38.15 13.0 39.15 12.0 39.15 12.0 40.15 11.0 40.15 11.0 41.15 6.0 41.15 6.0 42.15 5.0 42.15 5.0 38.15 7.0 38.15 7.0 39.15 9.0 39.15 9.0 38.15 10.0 38.15 10.0 37.15 11.0 37.15 11.0 36.15 M29.0 39.15 L29.0 40.15 27.0 40.15 27.0 39.15 29.0 39.15 M26.0 40.15 L25.0 40.15 25.0 39.15 26.0 39.15 26.0 40.15 M27.0 37.15 L27.0 38.15 26.0 38.15 26.0 37.15 27.0 37.15" fill="#777777" fill-rule="evenodd" stroke="none"/>
    <path d="M24.0 23.15 L25.0 23.15 25.0 25.15 24.0 25.15 24.0 23.15 M30.0 24.15 L29.0 24.15 29.0 25.15 28.0 25.15 28.0 23.15 30.0 23.15 30.0 24.15 M15.0 21.15 L15.0 20.15 17.0 20.15 17.0 19.15 18.0 19.15 18.0 20.15 20.0 20.15 20.0 21.15 19.0 21.15 19.0 22.15 17.0 22.15 17.0 21.15 15.0 21.15 M15.0 22.15 L17.0 22.15 17.0 23.15 19.0 23.15 19.0 24.15 21.0 24.15 21.0 25.15 23.0 25.15 23.0 26.15 25.0 26.15 25.0 27.15 28.0 27.15 28.0 30.15 25.0 30.15 25.0 29.15 24.0 29.15 24.0 28.15 23.0 28.15 23.0 27.15 22.0 27.15 22.0 26.15 20.0 26.15 20.0 25.15 18.0 25.15 18.0 24.15 16.0 24.15 16.0 23.15 15.0 23.15 15.0 22.15" fill="#ffffff" fill-rule="evenodd" stroke="none"/>
    <path d="M23.0 28.15 L23.0 30.15 24.0 30.15 24.0 31.15 23.0 31.15 23.0 30.15 21.0 30.15 21.0 32.15 23.0 32.15 23.0 33.15 25.0 33.15 25.0 31.15 27.0 31.15 27.0 33.15 26.0 33.15 26.0 35.15 25.0 35.15 25.0 37.15 24.0 37.15 24.0 39.15 23.0 39.15 23.0 40.15 20.0 40.15 20.0 39.15 18.0 39.15 18.0 38.15 17.0 38.15 17.0 37.15 16.0 37.15 16.0 31.15 17.0 31.15 17.0 30.15 18.0 30.15 18.0 29.15 19.0 29.15 19.0 28.15 20.0 28.15 20.0 27.15 22.0 27.15 22.0 28.15 23.0 28.15 M13.0 32.15 L14.0 32.15 14.0 35.15 12.0 35.15 12.0 34.15 13.0 34.15 13.0 32.15 M4.0 40.15 L3.0 40.15 3.0 43.15 2.0 43.15 2.0 38.15 4.0 38.15 4.0 40.15 M19.0 34.15 L19.0 36.15 21.0 36.15 21.0 37.15 23.0 37.15 23.0 35.15 21.0 35.15 21.0 34.15 19.0 34.15 M26.0 43.15 L26.0 41.15 28.0 41.15 28.0 42.15 31.0 42.15 31.0 43.15 26.0 43.15" fill="#d1d1d1" fill-rule="evenodd" stroke="none"/>
  </g>
</svg>
