<?xml version="1.0" encoding="UTF-8" standalone="no"?>
<svg xmlns:ffdec="https://www.free-decompiler.com/flash" xmlns:xlink="http://www.w3.org/1999/xlink" ffdec:objectType="shape" height="27.0px" width="28.95px" xmlns="http://www.w3.org/2000/svg">
  <g transform="matrix(1.0, 0.0, 0.0, 1.0, 7.0, 1.05)">
    <path d="M17.0 4.95 L17.0 5.95 15.0 5.95 15.0 6.95 13.0 6.95 13.0 7.95 12.0 7.95 12.0 8.95 11.0 8.95 11.0 9.95 9.0 9.95 9.0 10.95 8.0 10.95 8.0 11.95 6.0 11.95 6.0 12.95 5.0 12.95 5.0 13.95 4.0 13.95 4.0 11.95 5.0 11.95 5.0 10.95 6.0 10.95 6.0 9.95 7.0 9.95 7.0 8.95 9.0 8.95 9.0 7.95 10.0 7.95 10.0 6.95 12.0 6.95 12.0 5.95 13.0 5.95 13.0 2.95 20.0 2.95 20.0 3.95 19.0 3.95 19.0 4.95 17.0 4.95" fill="#777777" fill-rule="evenodd" stroke="none"/>
    <path d="M18.0 -0.05 L18.0 0.95 17.0 0.95 17.0 -0.05 18.0 -0.05 M20.0 -0.05 L20.0 0.95 19.0 0.95 19.0 -0.05 20.0 -0.05 M16.0 -0.05 L16.0 0.95 15.0 0.95 15.0 -0.05 16.0 -0.05 M21.0 3.95 L20.0 3.95 20.0 4.95 19.0 4.95 19.0 5.95 17.0 5.95 17.0 6.95 15.0 6.95 15.0 7.95 13.0 7.95 13.0 8.95 12.0 8.95 12.0 9.95 11.0 9.95 11.0 10.95 9.0 10.95 9.0 11.95 8.0 11.95 8.0 12.95 6.0 12.95 6.0 13.95 5.0 13.95 5.0 14.95 6.0 14.95 6.0 15.95 7.0 15.95 7.0 14.95 9.0 14.95 9.0 16.95 8.0 16.95 8.0 17.95 9.0 17.95 9.0 20.95 8.0 20.95 8.0 19.95 4.0 19.95 4.0 20.95 3.0 20.95 3.0 24.95 2.0 24.95 2.0 25.95 -4.0 25.95 -4.0 24.95 -5.0 24.95 -5.0 23.95 -6.0 23.95 -6.0 20.95 -7.0 20.95 -7.0 16.95 -6.0 16.95 -6.0 13.95 -5.0 13.95 -5.0 11.95 -3.0 11.95 -3.0 10.95 -1.0 10.95 -1.0 9.95 0.0 9.95 0.0 6.95 1.0 6.95 1.0 5.95 4.0 5.95 4.0 9.95 3.0 9.95 3.0 10.95 5.0 10.95 5.0 9.95 6.0 9.95 6.0 8.95 7.0 8.95 7.0 7.95 9.0 7.95 9.0 6.95 10.0 6.95 10.0 5.95 12.0 5.95 12.0 2.95 11.9 1.95 21.0 1.95 21.0 3.95 M17.0 4.95 L19.0 4.95 19.0 3.95 20.0 3.95 20.0 2.95 13.0 2.95 13.0 5.95 12.0 5.95 12.0 6.95 10.0 6.95 10.0 7.95 9.0 7.95 9.0 8.95 7.0 8.95 7.0 9.95 6.0 9.95 6.0 10.95 5.0 10.95 5.0 11.95 4.0 11.95 4.0 13.95 5.0 13.95 5.0 12.95 6.0 12.95 6.0 11.95 8.0 11.95 8.0 10.95 9.0 10.95 9.0 9.95 11.0 9.95 11.0 8.95 12.0 8.95 12.0 7.95 13.0 7.95 13.0 6.95 15.0 6.95 15.0 5.95 17.0 5.95 17.0 4.95 M-2.0 15.95 L-2.0 16.95 -1.0 16.95 -1.0 19.95 -3.0 19.95 -3.0 15.95 -2.0 15.95 M0.0 24.95 L0.0 23.95 -1.0 23.95 -1.0 24.95 0.0 24.95 M1.0 22.95 L2.0 22.95 2.0 21.95 1.0 21.95 1.0 22.95 M1.0 17.95 L0.0 17.95 0.0 16.95 -1.0 16.95 -1.0 13.95 1.0 13.95 1.0 17.95 3.0 17.95 3.0 15.95 2.0 15.95 2.0 13.95 1.0 13.95 1.0 10.95 0.0 10.95 0.0 11.95 -2.0 11.95 -2.0 12.95 -3.0 12.95 -3.0 14.95 -4.0 14.95 -4.0 15.95 -5.0 15.95 -5.0 18.95 -4.0 18.95 -4.0 21.95 -3.0 21.95 -3.0 22.95 -1.0 22.95 -1.0 21.95 0.0 21.95 0.0 20.95 1.0 20.95 1.0 17.95" fill="#000000" fill-rule="evenodd" stroke="none"/>
    <path d="M0.0 10.95 L1.0 10.95 1.0 13.95 2.0 13.95 2.0 15.95 3.0 15.95 3.0 17.95 1.0 17.95 1.0 20.95 0.0 20.95 0.0 21.95 -1.0 21.95 -1.0 22.95 -3.0 22.95 -3.0 21.95 -4.0 21.95 -4.0 18.95 -5.0 18.95 -5.0 15.95 -4.0 15.95 -4.0 14.95 -3.0 14.95 -3.0 12.95 -2.0 12.95 -2.0 11.95 0.0 11.95 0.0 10.95 M1.0 17.95 L1.0 13.95 -1.0 13.95 -1.0 16.95 0.0 16.95 0.0 17.95 1.0 17.95 M1.0 22.95 L1.0 21.95 2.0 21.95 2.0 22.95 1.0 22.95 M0.0 24.95 L-1.0 24.95 -1.0 23.95 0.0 23.95 0.0 24.95 M-2.0 15.95 L-3.0 15.95 -3.0 19.95 -1.0 19.95 -1.0 16.95 -2.0 16.95 -2.0 15.95" fill="#d1d1d1" fill-rule="evenodd" stroke="none"/>
    <path d="M13.1 11.95 L13.1 14.95 12.1 14.95 12.1 15.95 8.1 15.95 8.0 12.95 7.1 12.95 7.1 10.95 6.1 10.95 6.1 8.95 7.1 8.95 7.1 6.95 8.1 6.95 8.1 5.95 10.1 5.95 10.1 8.95 11.1 8.95 11.1 11.95 13.1 11.95 M8.1 8.95 L7.1 8.95 7.1 10.95 8.1 10.95 8.1 11.95 9.1 11.95 9.1 14.95 11.1 14.95 11.1 13.95 12.1 13.95 12.1 12.95 11.1 12.95 11.1 11.95 10.1 11.95 10.1 9.95 9.1 9.95 9.1 7.95 8.1 7.95 8.1 8.95" fill="#000000" fill-rule="evenodd" stroke="none"/>
    <path d="M8.1 8.95 L8.1 7.95 9.1 7.95 9.1 9.95 10.1 9.95 10.1 11.95 11.1 11.95 11.1 12.95 12.1 12.95 12.1 13.95 11.1 13.95 11.1 14.95 9.1 14.95 9.1 11.95 8.1 11.95 8.1 10.95 7.1 10.95 7.1 8.95 8.1 8.95" fill="#ffffff" fill-rule="evenodd" stroke="none"/>
    <path d="M15.6 2.95 L14.6 2.95 14.6 1.95 15.6 1.95 15.6 0.95 19.95 0.95 19.95 -1.05 20.95 -1.05 20.95 -0.05 21.95 -0.05 21.95 2.95 20.95 2.95 20.95 0.95 19.95 0.95 19.95 1.95 16.6 1.95 16.6 2.95 15.6 2.95 M0.1 8.95 L0.1 9.95 -0.9 9.95 -0.9 11.95 0.1 11.95 0.1 14.95 -0.9 14.95 -0.9 17.95 -3.9 17.95 -3.9 15.95 -4.9 15.95 -4.9 9.95 -4.05 9.95 -4.0 8.95 -2.9 8.95 -2.9 6.95 -0.9 6.95 -0.9 5.95 0.1 5.95 0.1 4.95 2.1 4.95 2.1 5.95 1.1 5.95 1.1 6.95 0.1 6.95 -0.9 6.95 -0.95 7.95 -2.0 7.95 -1.95 9.95 -2.95 9.95 -2.95 11.95 -3.95 11.95 -3.9 15.95 -2.9 15.95 -2.9 16.95 -1.9 16.95 -1.9 13.95 -0.9 13.95 -0.9 12.95 -1.9 12.95 -1.9 9.95 -0.9 9.95 -0.9 8.95 0.1 8.95" fill="#000000" fill-rule="evenodd" stroke="none"/>
    <path d="M0.1 6.95 L0.1 8.95 -0.9 8.95 -0.9 9.95 -1.9 9.95 -1.9 12.95 -0.9 12.95 -0.9 13.95 -1.9 13.95 -1.9 16.95 -2.9 16.95 -2.9 15.95 -3.9 15.95 -3.95 11.95 -2.95 11.95 -2.95 9.95 -1.95 9.95 -2.0 7.95 -0.95 7.95 -0.9 6.95 0.1 6.95" fill="#ffffff" fill-rule="evenodd" stroke="none"/>
    <path d="M20.95 2.95 L16.6 2.95 16.6 3.95 15.6 3.95 15.6 2.95 16.6 2.95 16.6 1.95 19.95 1.95 19.95 0.95 20.95 0.95 20.95 2.95" fill="#777777" fill-rule="evenodd" stroke="none"/>
  </g>
</svg>
