<?xml version="1.0" encoding="UTF-8" standalone="no"?>
<svg xmlns:ffdec="https://www.free-decompiler.com/flash" xmlns:xlink="http://www.w3.org/1999/xlink" ffdec:objectType="shape" height="17.0px" width="24.0px" xmlns="http://www.w3.org/2000/svg">
  <g transform="matrix(1.0, 0.0, 0.0, 1.0, 6.9, -17.95)">
    <path d="M9.1 17.95 L10.1 17.95 10.1 19.95 8.1 19.95 8.1 22.95 7.1 22.95 7.1 19.95 5.1 19.95 5.1 24.95 4.1 24.95 4.1 22.95 3.1 22.95 3.1 20.95 4.1 20.95 4.1 19.95 1.1 19.95 1.1 20.95 0.1 20.95 0.1 17.95 1.1 17.95 1.1 18.95 9.1 18.95 9.1 17.95 M8.1 22.95 L13.1 22.95 13.1 23.95 17.1 23.95 17.1 32.95 15.1 32.95 15.1 31.95 14.1 31.95 14.1 28.95 11.1 28.95 11.1 27.95 9.1 27.95 9.1 26.95 7.1 26.95 7.1 25.95 5.1 25.95 5.1 24.95 7.1 24.95 7.1 25.95 9.1 25.95 9.1 26.95 11.1 26.95 11.1 27.95 13.1 27.95 13.1 23.95 8.1 23.95 8.1 22.95 M0.1 20.95 L0.1 22.95 -0.9 22.95 -0.9 20.95 0.1 20.95 M-0.9 22.95 L-0.9 24.95 -1.9 24.95 -1.9 28.95 -2.9 28.95 -2.9 30.95 2.1 30.95 2.1 29.95 1.1 29.95 1.1 24.95 2.1 24.95 2.1 22.95 3.1 22.95 3.1 24.95 2.1 24.95 2.1 29.95 3.1 29.95 3.1 30.95 2.1 30.95 2.1 34.95 -6.9 34.95 -6.9 32.95 -5.9 32.95 -5.9 31.95 -2.9 31.95 -2.9 30.95 -3.9 30.95 -3.9 28.95 -2.9 28.95 -2.9 24.95 -1.9 24.95 -1.9 22.95 -0.9 22.95" fill="#000000" fill-rule="evenodd" stroke="none"/>
    <path d="M0.1 20.95 L1.1 20.95 1.1 19.95 4.1 19.95 4.1 20.95 3.1 20.95 3.1 22.95 2.1 22.95 2.1 24.95 1.1 24.95 1.1 29.95 2.1 29.95 2.1 30.95 -2.9 30.95 -2.9 28.95 -1.9 28.95 -1.9 24.95 -0.9 24.95 -0.9 22.95 0.1 22.95 0.1 20.95 M5.1 24.95 L5.1 19.95 7.1 19.95 7.1 22.95 8.1 22.95 8.1 23.95 13.1 23.95 13.1 27.95 11.1 27.95 11.1 26.95 9.1 26.95 9.1 25.95 7.1 25.95 7.1 24.95 5.1 24.95" fill="#656565" fill-rule="evenodd" stroke="none"/>
    <path d="M9.1 17.95 L9.1 18.95 1.1 18.95 1.1 17.95 9.1 17.95" fill="#c8cbc8" fill-rule="evenodd" stroke="none"/>
  </g>
</svg>
