<?xml version="1.0" encoding="UTF-8" standalone="no"?>
<svg xmlns:ffdec="https://www.free-decompiler.com/flash" xmlns:xlink="http://www.w3.org/1999/xlink" ffdec:objectType="shape" height="17.0px" width="14.0px" xmlns="http://www.w3.org/2000/svg">
  <g transform="matrix(1.0, 0.0, 0.0, 1.0, 1.9, -17.95)">
    <path d="M9.1 17.95 L10.1 17.95 10.1 19.95 9.1 19.95 9.1 24.95 8.1 24.95 8.1 19.95 6.1 19.95 6.1 25.95 7.1 25.95 7.1 26.95 8.1 26.95 8.1 28.95 7.1 28.95 7.1 29.95 10.1 29.95 10.1 27.95 11.1 27.95 11.1 29.95 12.1 29.95 12.1 34.95 3.1 34.95 3.1 32.95 4.1 32.95 4.1 31.95 5.1 31.95 5.1 30.95 4.1 30.95 4.1 31.95 3.1 31.95 3.1 32.95 1.1 32.95 1.1 33.95 -1.9 33.95 -1.9 31.95 -0.9 31.95 -0.9 30.95 0.1 30.95 0.1 29.95 1.1 29.95 1.1 28.95 2.1 28.95 2.1 27.95 3.1 27.95 3.1 26.95 4.1 26.95 4.1 25.95 5.1 25.95 5.1 24.95 4.1 24.95 4.1 23.95 5.1 23.95 5.1 20.95 4.1 20.95 4.1 19.95 1.1 19.95 1.1 20.95 0.1 20.95 0.1 17.95 1.1 17.95 1.1 18.95 9.1 18.95 9.1 17.95 M9.1 24.95 L10.1 24.95 10.1 27.95 9.1 27.95 9.1 24.95 M4.1 23.95 L3.1 23.95 3.1 22.95 2.1 22.95 2.1 21.95 3.1 21.95 3.1 20.95 4.1 20.95 4.1 23.95 M0.1 20.95 L0.1 24.95 1.1 24.95 1.1 26.95 2.1 26.95 2.1 27.95 1.1 27.95 1.1 26.95 0.1 26.95 0.1 24.95 -0.9 24.95 -0.9 20.95 0.1 20.95" fill="#000000" fill-rule="evenodd" stroke="none"/>
    <path d="M0.1 20.95 L1.1 20.95 1.1 19.95 4.1 19.95 4.1 20.95 3.1 20.95 3.1 21.95 2.1 21.95 2.1 22.95 3.1 22.95 3.1 23.95 4.1 23.95 4.1 24.95 5.1 24.95 5.1 25.95 4.1 25.95 4.1 26.95 3.1 26.95 3.1 27.95 2.1 27.95 2.1 26.95 1.1 26.95 1.1 24.95 0.1 24.95 0.1 20.95 M10.1 27.95 L10.1 29.95 7.1 29.95 7.1 28.95 8.1 28.95 8.1 26.95 7.1 26.95 7.1 25.95 6.1 25.95 6.1 19.95 8.1 19.95 8.1 24.95 9.1 24.95 9.1 27.95 10.1 27.95" fill="#656565" fill-rule="evenodd" stroke="none"/>
    <path d="M9.1 17.95 L9.1 18.95 1.1 18.95 1.1 17.95 9.1 17.95" fill="#c8cbc8" fill-rule="evenodd" stroke="none"/>
  </g>
</svg>
