<?xml version="1.0" encoding="UTF-8" standalone="no"?>
<svg xmlns:ffdec="https://www.free-decompiler.com/flash" xmlns:xlink="http://www.w3.org/1999/xlink" ffdec:objectType="shape" height="17.0px" width="29.0px" xmlns="http://www.w3.org/2000/svg">
  <g transform="matrix(1.0, 0.0, 0.0, 1.0, 10.9, -17.95)">
    <path d="M9.1 17.95 L10.1 17.95 10.1 21.95 11.1 21.95 11.1 22.95 12.1 22.95 12.1 23.95 13.1 23.95 13.1 24.95 14.1 24.95 14.1 25.95 15.1 25.95 15.1 26.95 16.1 26.95 16.1 28.95 17.1 28.95 17.1 29.95 18.1 29.95 18.1 31.95 17.1 31.95 17.1 32.95 15.1 32.95 15.1 33.95 13.1 33.95 13.1 34.95 8.1 34.95 8.1 33.95 9.1 33.95 9.1 32.95 10.1 32.95 10.1 31.95 11.1 31.95 11.1 28.95 10.1 28.95 10.1 26.95 9.1 26.95 9.1 24.95 8.1 24.95 8.1 23.95 7.1 23.95 7.1 22.95 6.1 22.95 6.1 21.95 4.1 21.95 4.1 22.95 3.1 22.95 3.1 23.95 2.1 23.95 2.1 25.95 1.1 25.95 1.1 27.95 0.1 27.95 0.1 29.95 -0.9 29.95 -0.9 31.95 -1.9 31.95 -1.9 33.95 -2.9 33.95 -2.9 34.95 -4.9 34.95 -4.9 33.95 -6.9 33.95 -6.9 32.95 -7.9 32.95 -7.9 31.95 -8.9 31.95 -8.9 30.95 -9.9 30.95 -9.9 29.95 -10.9 29.95 -10.9 28.95 -9.9 28.95 -9.9 27.95 -6.9 27.95 -6.9 28.95 -4.9 28.95 -4.9 27.95 -3.9 27.95 -3.9 26.95 -2.9 26.95 -2.9 24.95 -1.9 24.95 -1.9 22.95 -0.9 22.95 -0.9 20.95 0.1 20.95 0.1 17.95 1.1 17.95 1.1 18.95 9.1 18.95 9.1 17.95 M7.1 22.95 L8.1 22.95 8.1 23.95 9.1 23.95 9.1 24.95 10.1 24.95 10.1 26.95 11.1 26.95 11.1 28.95 12.1 28.95 12.1 29.95 13.1 29.95 13.1 28.95 14.1 28.95 14.1 27.95 15.1 27.95 15.1 26.95 14.1 26.95 14.1 25.95 13.1 25.95 13.1 24.95 12.1 24.95 12.1 23.95 11.1 23.95 11.1 22.95 10.1 22.95 10.1 21.95 9.1 21.95 9.1 19.95 6.1 19.95 6.1 21.95 7.1 21.95 7.1 22.95 M3.1 22.95 L3.1 21.95 4.1 21.95 4.1 20.95 5.1 20.95 5.1 19.95 1.1 19.95 1.1 21.95 0.1 21.95 0.1 22.95 -0.9 22.95 -0.9 24.95 -1.9 24.95 -1.9 26.95 -2.9 26.95 -2.9 27.95 -3.9 27.95 -3.9 29.95 -2.9 29.95 -2.9 30.95 -1.9 30.95 -1.9 29.95 -0.9 29.95 -0.9 27.95 0.1 27.95 0.1 25.95 1.1 25.95 1.1 23.95 2.1 23.95 2.1 22.95 3.1 22.95" fill="#000000" fill-rule="evenodd" stroke="none"/>
    <path d="M3.1 22.95 L2.1 22.95 2.1 23.95 1.1 23.95 1.1 25.95 0.1 25.95 0.1 27.95 -0.9 27.95 -0.9 29.95 -1.9 29.95 -1.9 30.95 -2.9 30.95 -2.9 29.95 -3.9 29.95 -3.9 27.95 -2.9 27.95 -2.9 26.95 -1.9 26.95 -1.9 24.95 -0.9 24.95 -0.9 22.95 0.1 22.95 0.1 21.95 1.1 21.95 1.1 19.95 5.1 19.95 5.1 20.95 4.1 20.95 4.1 21.95 3.1 21.95 3.1 22.95 M7.1 22.95 L7.1 21.95 6.1 21.95 6.1 19.95 9.1 19.95 9.1 21.95 10.1 21.95 10.1 22.95 11.1 22.95 11.1 23.95 12.1 23.95 12.1 24.95 13.1 24.95 13.1 25.95 14.1 25.95 14.1 26.95 15.1 26.95 15.1 27.95 14.1 27.95 14.1 28.95 13.1 28.95 13.1 29.95 12.1 29.95 12.1 28.95 11.1 28.95 11.1 26.95 10.1 26.95 10.1 24.95 9.1 24.95 9.1 23.95 8.1 23.95 8.1 22.95 7.1 22.95" fill="#656565" fill-rule="evenodd" stroke="none"/>
    <path d="M1.1 17.95 L9.1 17.95 9.1 18.95 1.1 18.95 1.1 17.95" fill="#c8cbc8" fill-rule="evenodd" stroke="none"/>
  </g>
</svg>
