<?xml version="1.0" encoding="UTF-8" standalone="no"?>
<svg xmlns:ffdec="https://www.free-decompiler.com/flash" xmlns:xlink="http://www.w3.org/1999/xlink" ffdec:objectType="shape" height="17.0px" width="12.0px" xmlns="http://www.w3.org/2000/svg">
  <g transform="matrix(1.0, 0.0, 0.0, 1.0, -0.1, -17.95)">
    <path d="M9.1 17.95 L10.1 17.95 10.1 19.95 8.1 19.95 8.1 20.95 7.1 20.95 7.1 23.95 8.1 23.95 8.1 24.95 9.1 24.95 9.1 25.95 8.1 25.95 8.1 26.95 7.1 26.95 7.1 24.95 6.1 24.95 6.1 19.95 3.1 19.95 3.1 23.95 2.1 23.95 2.1 21.95 1.1 21.95 1.1 23.95 0.1 23.95 0.1 20.95 1.1 20.95 1.1 19.95 0.1 19.95 0.1 17.95 1.1 17.95 1.1 18.95 9.1 18.95 9.1 17.95 M9.1 25.95 L10.1 25.95 10.1 26.95 11.1 26.95 11.1 27.95 12.1 27.95 12.1 29.95 11.1 29.95 11.1 30.95 9.1 30.95 9.1 34.95 0.1 34.95 0.1 32.95 1.1 32.95 1.1 31.95 4.1 31.95 4.1 30.95 3.1 30.95 3.1 28.95 4.1 28.95 4.1 26.95 3.1 26.95 3.1 25.95 2.1 25.95 2.1 24.95 1.1 24.95 1.1 23.95 2.1 23.95 2.1 24.95 3.1 24.95 3.1 23.95 4.1 23.95 4.1 26.95 5.1 26.95 5.1 28.95 4.1 28.95 4.1 30.95 9.1 30.95 9.1 29.95 8.1 29.95 8.1 26.95 9.1 26.95 9.1 25.95 M9.1 26.95 L9.1 27.95 10.1 27.95 10.1 26.95 9.1 26.95" fill="#000000" fill-rule="evenodd" stroke="none"/>
    <path d="M1.1 23.95 L1.1 21.95 2.1 21.95 2.1 23.95 3.1 23.95 3.1 19.95 6.1 19.95 6.1 24.95 7.1 24.95 7.1 26.95 8.1 26.95 8.1 25.95 9.1 25.95 9.1 26.95 8.1 26.95 8.1 29.95 9.1 29.95 9.1 30.95 4.1 30.95 4.1 28.95 5.1 28.95 5.1 26.95 4.1 26.95 4.1 23.95 3.1 23.95 3.1 24.95 2.1 24.95 2.1 23.95 1.1 23.95 M9.1 26.95 L10.1 26.95 10.1 27.95 9.1 27.95 9.1 26.95" fill="#656565" fill-rule="evenodd" stroke="none"/>
    <path d="M9.1 17.95 L9.1 18.95 1.1 18.95 1.1 17.95 9.1 17.95" fill="#c8cbc8" fill-rule="evenodd" stroke="none"/>
  </g>
</svg>
