<?xml version="1.0" encoding="UTF-8" standalone="no"?>
<svg xmlns:ffdec="https://www.free-decompiler.com/flash" xmlns:xlink="http://www.w3.org/1999/xlink" ffdec:objectType="shape" height="8.0px" width="6.1px" xmlns="http://www.w3.org/2000/svg">
  <g transform="matrix(1.0, 0.0, 0.0, 1.0, 3.05, 3.5)">
    <path d="M3.05 3.5 L3.05 4.5 1.9 4.45 1.9 4.5 -3.05 4.5 -3.05 1.5 -2.05 1.5 -2.05 -0.5 -1.05 -0.5 -1.05 -2.5 -0.05 -2.5 -0.05 -3.5 1.95 -3.5 1.95 -2.5 2.95 -2.5 2.95 -1.5 1.95 -1.5 1.95 0.5 0.95 0.5 0.95 1.5 3.05 1.5 3.05 2.5 -0.05 2.5 -0.05 0.5 0.95 0.5 0.95 -1.5 1.95 -1.5 1.95 -2.5 -0.05 -2.5 -0.05 -0.5 -1.05 -0.5 -1.05 1.5 -2.05 1.5 -2.05 3.5 3.05 3.5" fill="#000000" fill-rule="evenodd" stroke="none"/>
    <path d="M3.05 2.5 L3.05 3.5 -2.05 3.5 -2.05 1.5 -1.05 1.5 -1.05 -0.5 -0.05 -0.5 -0.05 -2.5 1.95 -2.5 1.95 -1.5 0.95 -1.5 0.95 0.5 -0.05 0.5 -0.05 2.5 3.05 2.5" fill="#ffffff" fill-rule="evenodd" stroke="none"/>
  </g>
</svg>
