<?xml version="1.0" encoding="UTF-8" standalone="no"?>
<svg xmlns:ffdec="https://www.free-decompiler.com/flash" xmlns:xlink="http://www.w3.org/1999/xlink" ffdec:objectType="shape" height="13.0px" width="15.0px" xmlns="http://www.w3.org/2000/svg">
  <g transform="matrix(1.0, 0.0, 0.0, 1.0, 10.0, 7.0)">
    <path d="M4.0 -7.0 L5.0 -7.0 5.0 -2.95 4.0 -2.95 4.0 -7.0 M4.0 -2.95 L4.0 -0.2 3.0 -0.2 3.0 2.0 2.85 2.0 2.85 2.05 1.85 2.05 1.85 3.0 1.0 3.0 1.0 4.0 0.0 4.0 0.0 5.0 -1.0 5.0 -1.0 6.0 -3.0 6.0 -3.0 5.0 -4.0 5.0 -4.0 4.0 -5.0 4.0 -5.0 -1.0 -4.0 -1.0 -4.0 -2.0 -3.0 -2.0 -3.0 -3.0 -1.0 -3.0 -1.0 -3.8 0.0 -3.8 0.0 -5.0 1.0 -5.0 1.0 -3.8 0.0 -3.8 0.0 -3.0 -1.0 -3.0 -1.0 -2.0 -2.0 -2.0 -2.0 2.0 2.0 2.0 2.0 -0.2 3.0 -0.2 3.0 -2.95 4.0 -2.95 M-2.0 2.0 L-3.0 2.0 -3.0 -1.0 -4.0 -1.0 -4.0 4.0 -3.0 4.0 -3.0 5.0 -1.0 5.0 -1.0 4.0 0.0 4.0 0.0 3.0 -2.0 3.0 -2.0 2.0" fill="#000000" fill-rule="evenodd" stroke="none"/>
    <path d="M4.0 -7.0 L4.0 -2.95 3.0 -2.95 3.0 -0.2 2.0 -0.2 2.0 2.0 -2.0 2.0 -2.0 -2.0 -1.0 -2.0 -1.0 -3.0 0.0 -3.0 0.0 -3.8 1.0 -3.8 1.0 -5.0 1.0 -7.0 4.0 -7.0" fill="#656565" fill-rule="evenodd" stroke="none"/>
    <path d="M-2.0 2.0 L-2.0 3.0 0.0 3.0 0.0 4.0 -1.0 4.0 -1.0 5.0 -3.0 5.0 -3.0 4.0 -4.0 4.0 -4.0 -1.0 -3.0 -1.0 -3.0 2.0 -2.0 2.0" fill="#c8cbc8" fill-rule="evenodd" stroke="none"/>
    <path d="M-3.0 -7.0 L-3.0 -5.0 -4.0 -5.0 -4.0 -3.8 -5.0 -3.8 -5.0 -3.0 -6.0 -3.0 -6.0 -2.0 -7.0 -2.0 -7.0 2.0 -3.0 2.0 -3.0 -0.2 -2.0 -0.2 -2.0 -2.95 -1.0 -2.95 -1.0 -4.0 0.0 -4.0 0.0 -7.0 1.0 -7.0 1.0 -4.0 0.0 -4.0 0.0 -2.95 -1.0 -2.95 -1.0 -0.2 -2.0 -0.2 -2.0 2.0 -2.15 2.0 -2.15 2.05 -3.15 2.05 -3.15 3.0 -4.0 3.0 -4.0 4.0 -5.0 4.0 -5.0 5.0 -6.0 5.0 -6.0 6.0 -8.0 6.0 -8.0 5.0 -9.0 5.0 -9.0 4.0 -10.0 4.0 -10.0 -1.0 -9.0 -1.0 -9.0 4.0 -8.0 4.0 -8.0 5.0 -6.0 5.0 -6.0 4.0 -5.0 4.0 -5.0 3.0 -7.0 3.0 -7.0 2.0 -8.0 2.0 -8.0 -1.0 -9.0 -1.0 -9.0 -2.0 -8.0 -2.0 -8.0 -3.0 -6.0 -3.0 -6.0 -3.8 -5.0 -3.8 -5.0 -5.0 -4.0 -5.0 -4.0 -7.0 -3.0 -7.0" fill="#000000" fill-rule="evenodd" stroke="none"/>
    <path d="M0.0 -7.0 L0.0 -4.0 -1.0 -4.0 -1.0 -2.95 -2.0 -2.95 -2.0 -0.2 -3.0 -0.2 -3.0 2.0 -7.0 2.0 -7.0 -2.0 -6.0 -2.0 -6.0 -3.0 -5.0 -3.0 -5.0 -3.8 -4.0 -3.8 -4.0 -5.0 -3.0 -5.0 -3.0 -7.0 0.0 -7.0" fill="#656565" fill-rule="evenodd" stroke="none"/>
    <path d="M-9.0 -1.0 L-8.0 -1.0 -8.0 2.0 -7.0 2.0 -7.0 3.0 -5.0 3.0 -5.0 4.0 -6.0 4.0 -6.0 5.0 -8.0 5.0 -8.0 4.0 -9.0 4.0 -9.0 -1.0" fill="#c8cbc8" fill-rule="evenodd" stroke="none"/>
  </g>
</svg>
