<?xml version="1.0" encoding="UTF-8" standalone="no"?>
<svg xmlns:ffdec="https://www.free-decompiler.com/flash" xmlns:xlink="http://www.w3.org/1999/xlink" ffdec:objectType="shape" height="28.0px" width="35.0px" xmlns="http://www.w3.org/2000/svg">
  <g transform="matrix(1.0, 0.0, 0.0, 1.0, 17.0, 15.0)">
    <path d="M9.0 -13.0 L10.0 -13.0 10.0 -12.0 11.0 -12.0 11.0 -11.0 12.0 -11.0 12.0 -9.0 13.0 -9.0 13.0 -6.0 14.0 -6.0 14.0 2.0 13.0 2.0 13.0 4.0 12.0 4.0 12.0 7.0 13.0 7.0 13.0 8.0 16.0 8.0 16.0 6.0 17.0 6.0 17.0 7.0 18.0 7.0 18.0 10.0 17.0 10.0 17.0 11.0 14.95 11.0 14.95 12.0 14.0 12.0 14.0 13.0 11.0 13.0 11.0 12.0 10.0 12.0 10.0 11.0 9.0 11.0 9.0 -4.0 8.0 -4.0 8.0 -5.0 7.0 -5.0 7.0 -4.0 4.0 -4.0 4.0 -3.0 3.0 -3.0 3.0 -2.0 1.0 -2.0 1.0 -3.0 -1.0 -3.0 -1.0 -4.0 -3.0 -4.0 -3.0 -5.0 -5.0 -5.0 -5.0 -6.0 -6.0 -6.0 -6.0 -5.0 -7.0 -5.0 -7.0 -4.0 -8.0 -4.0 -8.0 11.0 -9.0 11.0 -9.0 12.0 -10.0 12.0 -10.0 13.0 -13.0 13.0 -13.0 12.0 -14.0 12.0 -14.0 11.0 -16.0 11.0 -16.0 10.0 -17.0 10.0 -17.0 7.0 -16.0 7.0 -16.0 6.0 -15.0 6.0 -15.0 8.0 -12.0 8.0 -12.0 7.0 -11.0 7.0 -11.0 4.0 -12.0 4.0 -12.0 2.0 -13.0 2.0 -13.0 -6.0 -12.0 -6.0 -12.0 -8.0 -11.0 -8.0 -11.0 -11.0 -10.0 -11.0 -10.0 -12.0 -8.0 -12.0 -8.0 -13.0 -7.0 -13.0 -7.0 -14.0 -5.0 -14.0 -5.0 -15.0 6.0 -15.0 6.0 -14.0 9.0 -14.0 9.0 -13.0" fill="#000000" fill-rule="evenodd" stroke="none"/>
  </g>
</svg>
