<?xml version="1.0" encoding="UTF-8" standalone="no"?>
<svg xmlns:ffdec="https://www.free-decompiler.com/flash" xmlns:xlink="http://www.w3.org/1999/xlink" ffdec:objectType="shape" height="6.05px" width="42.8px" xmlns="http://www.w3.org/2000/svg">
  <g transform="matrix(1.0, 0.0, 0.0, 1.0, 21.9, 10.0)">
    <path d="M13.0 -7.0 L14.0 -7.0 14.0 -5.0 15.0 -5.0 15.0 -6.0 16.0 -6.0 16.0 -7.0 19.9 -7.0 19.9 -8.0 14.9 -8.0 14.9 -9.0 6.0 -9.0 6.0 -7.0 7.0 -6.9 9.0 -6.9 9.0 -7.95 13.0 -8.0 13.0 -7.0 10.0 -7.0 10.0 -6.05 5.0 -6.0 5.0 -9.0 4.0 -9.0 4.0 -7.0 3.0 -7.0 3.0 -8.0 3.0 -9.0 1.0 -9.0 1.0 -10.0 15.9 -10.0 15.9 -9.0 20.9 -9.0 20.9 -6.0 17.0 -6.0 17.0 -5.1 15.8 -5.1 15.8 -4.0 13.0 -3.95 13.0 -7.0 M3.0 -5.0 L4.0 -5.0 4.0 -6.0 5.0 -6.0 5.0 -5.0 4.0 -5.0 4.0 -4.0 3.0 -4.0 3.0 -5.0" fill="#000000" fill-rule="evenodd" stroke="none"/>
    <path d="M13.0 -7.0 L13.0 -8.0 9.0 -7.95 9.0 -6.9 7.0 -6.9 6.0 -7.0 6.0 -9.0 14.9 -9.0 14.9 -8.0 19.9 -8.0 19.9 -7.0 16.0 -7.0 16.0 -6.0 15.0 -6.0 15.0 -5.0 14.0 -5.0 14.0 -7.0 13.0 -7.0 M1.0 -9.0 L3.0 -9.0 3.0 -8.0 0.0 -8.0 0.0 -9.0 1.0 -9.0 M15.0 -6.0 L14.9 -6.0 14.95 -5.95 15.0 -6.0" fill="#ffffff" fill-rule="evenodd" stroke="none"/>
    <path d="M3.0 -7.0 L4.0 -7.0 4.0 -9.0 5.0 -9.0 5.0 -6.0 4.0 -6.0 4.0 -5.0 3.0 -5.0 2.0 -5.0 2.0 -6.0 3.0 -6.0 3.0 -7.0" fill="#656565" fill-rule="evenodd" stroke="none"/>
    <path d="M15.0 -6.0 L14.95 -5.95 14.9 -6.0 15.0 -6.0" fill="#ff0000" fill-rule="evenodd" stroke="none"/>
    <path d="M-14.0 -7.0 L-15.0 -7.0 -15.0 -5.0 -16.0 -5.0 -16.0 -6.0 -17.0 -6.0 -17.0 -7.0 -20.9 -7.0 -20.9 -8.0 -15.9 -8.0 -15.9 -9.0 -7.0 -9.0 -7.0 -7.0 -8.0 -6.9 -10.0 -6.9 -10.0 -7.95 -14.0 -8.0 -14.0 -7.0 -11.0 -7.0 -11.0 -6.05 -6.0 -6.0 -6.0 -9.0 -5.0 -9.0 -5.0 -7.0 -4.0 -7.0 -4.0 -8.0 -4.0 -9.0 -2.0 -9.0 -2.0 -10.0 -16.9 -10.0 -16.9 -9.0 -21.9 -9.0 -21.9 -6.0 -18.0 -6.0 -18.0 -5.1 -16.8 -5.1 -16.8 -4.0 -14.0 -3.95 -14.0 -7.0 M-4.0 -5.0 L-5.0 -5.0 -5.0 -6.0 -6.0 -6.0 -6.0 -5.0 -5.0 -5.0 -5.0 -4.0 -4.0 -4.0 -4.0 -5.0" fill="#000000" fill-rule="evenodd" stroke="none"/>
    <path d="M-14.0 -7.0 L-14.0 -8.0 -10.0 -7.95 -10.0 -6.9 -8.0 -6.9 -7.0 -7.0 -7.0 -9.0 -15.9 -9.0 -15.9 -8.0 -20.9 -8.0 -20.9 -7.0 -17.0 -7.0 -17.0 -6.0 -16.0 -6.0 -16.0 -5.0 -15.0 -5.0 -15.0 -7.0 -14.0 -7.0 M-2.0 -9.0 L-4.0 -9.0 -4.0 -8.0 -1.0 -8.0 -1.0 -9.0 -2.0 -9.0 M-16.0 -6.0 L-15.9 -6.0 -15.95 -5.95 -16.0 -6.0" fill="#ffffff" fill-rule="evenodd" stroke="none"/>
    <path d="M-4.0 -7.0 L-5.0 -7.0 -5.0 -9.0 -6.0 -9.0 -6.0 -6.0 -5.0 -6.0 -5.0 -5.0 -4.0 -5.0 -3.0 -5.0 -3.0 -6.0 -4.0 -6.0 -4.0 -7.0" fill="#656565" fill-rule="evenodd" stroke="none"/>
    <path d="M-16.0 -6.0 L-15.95 -5.95 -15.9 -6.0 -16.0 -6.0" fill="#ff0000" fill-rule="evenodd" stroke="none"/>
  </g>
</svg>
