<?xml version="1.0" encoding="UTF-8" standalone="no"?>
<svg xmlns:ffdec="https://www.free-decompiler.com/flash" xmlns:xlink="http://www.w3.org/1999/xlink" ffdec:objectType="shape" height="19.8px" width="11.0px" xmlns="http://www.w3.org/2000/svg">
  <g transform="matrix(1.0, 0.0, 0.0, 1.0, 5.0, 9.95)">
    <path d="M-4.0 -5.15 L0.0 -5.15 0.0 -7.15 0.05 -7.15 0.05 -8.15 0.0 -8.15 0.0 -8.95 1.0 -8.95 1.0 -7.95 1.05 -7.95 1.05 -6.7 1.0 -6.7 1.0 -5.15 5.0 -5.15 5.0 -4.15 -4.0 -4.15 -4.0 -5.15 M3.0 2.85 L3.0 3.85 4.0 3.85 4.0 5.85 -3.0 5.85 -3.0 3.85 -2.0 3.85 -2.0 2.85 -1.0 2.85 -1.0 1.85 2.0 1.85 2.0 2.85 3.0 2.85 M1.0 3.85 L0.0 3.85 0.0 4.85 1.0 4.85 1.0 3.85" fill="#ffffff" fill-rule="evenodd" stroke="none"/>
    <path d="M5.0 -5.15 L1.0 -5.15 1.0 -6.7 1.05 -6.7 1.05 -7.95 1.0 -7.95 1.0 -8.95 0.0 -8.95 0.0 -8.15 0.05 -8.15 0.05 -7.15 0.0 -7.15 0.0 -5.15 -4.0 -5.15 -4.0 -6.15 -1.0 -6.15 -1.0 -9.95 2.0 -9.95 2.0 -6.15 5.0 -6.15 5.0 -5.15 M-4.0 -4.15 L5.0 -4.15 5.0 -2.15 4.0 -2.15 4.0 -1.15 3.0 -1.15 3.0 1.85 4.0 1.85 4.0 2.85 5.0 2.85 5.0 5.85 6.0 5.85 6.0 8.85 5.0 8.85 5.0 9.85 -4.0 9.85 -4.0 8.85 -5.0 8.85 -5.0 5.85 -4.0 5.85 -4.0 2.85 -3.0 2.85 -3.0 1.85 -2.0 1.85 -2.0 -1.15 -3.0 -1.15 -3.0 -2.15 -4.0 -2.15 -4.0 -4.15 M3.0 -3.15 L-2.0 -3.15 -2.0 -2.15 -1.0 -2.15 -1.0 0.85 2.0 0.85 2.0 -2.15 3.0 -2.15 3.0 -3.15 M1.0 3.85 L1.0 4.85 0.0 4.85 0.0 3.85 1.0 3.85 M3.0 2.85 L2.0 2.85 2.0 1.85 -1.0 1.85 -1.0 2.85 -2.0 2.85 -2.0 3.85 -3.0 3.85 -3.0 5.85 4.0 5.85 4.0 3.85 3.0 3.85 3.0 2.85" fill="#000000" fill-rule="evenodd" stroke="none"/>
    <path d="M3.0 -3.15 L3.0 -2.15 2.0 -2.15 2.0 0.85 -1.0 0.85 -1.0 -2.15 -2.0 -2.15 -2.0 -3.15 3.0 -3.15" fill="#767676" fill-rule="evenodd" stroke="none"/>
  </g>
</svg>
