<?xml version="1.0" encoding="UTF-8" standalone="no"?>
<svg xmlns:ffdec="https://www.free-decompiler.com/flash" xmlns:xlink="http://www.w3.org/1999/xlink" ffdec:objectType="shape" height="12.0px" width="33.0px" xmlns="http://www.w3.org/2000/svg">
  <g transform="matrix(1.0, 0.0, 0.0, 1.0, 17.2, 8.25)">
    <path d="M6.8 -7.25 L7.8 -7.25 7.8 -5.25 6.8 -5.25 6.8 -7.25 3.8 -7.25 3.8 -8.25 6.8 -8.25 6.8 -7.25 M7.8 -5.25 L8.8 -5.25 8.8 -3.25 9.8 -3.25 9.8 -1.25 15.8 -1.25 15.8 1.75 11.8 1.75 11.8 2.75 10.8 2.75 10.8 3.75 7.8 3.75 7.8 -0.25 6.8 -0.25 6.8 -2.25 5.8 -2.25 5.8 -4.25 4.8 -4.25 4.8 -5.25 3.2 -5.25 3.2 -6.25 3.8 -6.25 5.8 -6.25 5.8 -4.25 6.8 -4.25 6.8 -2.25 7.8 -2.25 7.8 -0.25 8.8 -0.25 8.8 2.75 9.8 2.75 9.8 1.75 10.8 1.75 10.8 0.75 14.8 0.75 14.8 -0.25 9.8 -0.25 9.8 -1.25 8.8 -1.25 8.8 -3.25 7.8 -3.25 7.8 -5.25" fill="#000000" fill-rule="evenodd" stroke="none"/>
    <path d="M6.8 -7.25 L6.8 -5.25 7.8 -5.25 7.8 -3.25 8.8 -3.25 8.8 -1.25 9.8 -1.25 9.8 -0.25 14.8 -0.25 14.8 0.75 10.8 0.75 10.8 1.75 9.8 1.75 9.8 2.75 8.8 2.75 8.8 -0.25 7.8 -0.25 7.8 -2.25 6.8 -2.25 6.8 -4.25 5.8 -4.25 5.8 -6.25 3.8 -6.25 Q1.25 -6.75 3.8 -7.25 L6.8 -7.25" fill="#ffffff" fill-rule="evenodd" stroke="none"/>
    <path d="M-4.6 -6.25 L-7.2 -6.25 -7.2 -4.25 -8.2 -4.25 -8.2 -2.25 -9.2 -2.25 -9.2 -0.25 -10.2 -0.25 -10.2 2.75 -11.2 2.75 -11.2 1.75 -12.2 1.75 -12.2 0.75 -16.2 0.75 -16.2 -0.25 -11.2 -0.25 -11.2 -1.25 -10.2 -1.25 -10.2 -3.25 -9.2 -3.25 -9.2 -5.25 -8.2 -5.25 -8.2 -7.25 -4.55 -7.25 -4.55 -6.25 -4.6 -6.25" fill="#ffffff" fill-rule="evenodd" stroke="none"/>
    <path d="M-4.55 -7.25 L-8.2 -7.25 -8.2 -5.25 -9.2 -5.25 -9.2 -3.25 -10.2 -3.25 -10.2 -1.25 -11.2 -1.25 -11.2 -0.25 -16.2 -0.25 -16.2 0.75 -12.2 0.75 -12.2 1.75 -11.2 1.75 -11.2 2.75 -10.2 2.75 -10.2 -0.25 -9.2 -0.25 -9.2 -2.25 -8.2 -2.25 -8.2 -4.25 -7.2 -4.25 -7.2 -6.25 -4.6 -6.25 -4.6 -5.25 -6.2 -5.25 -6.2 -4.25 -7.2 -4.25 -7.2 -2.25 -8.2 -2.25 -8.2 -0.25 -9.2 -0.25 -9.2 3.75 -12.2 3.75 -12.2 2.75 -13.2 2.75 -13.2 1.75 -17.2 1.75 -17.2 -1.25 -11.2 -1.25 -11.2 -3.25 -10.2 -3.25 -10.2 -5.25 -9.2 -5.25 -9.2 -7.25 -8.2 -7.25 -8.2 -8.25 -4.55 -8.25 -4.55 -7.25" fill="#000000" fill-rule="evenodd" stroke="none"/>
  </g>
</svg>
