<?xml version="1.0" encoding="UTF-8" standalone="no"?>
<svg xmlns:ffdec="https://www.free-decompiler.com/flash" xmlns:xlink="http://www.w3.org/1999/xlink" ffdec:objectType="shape" height="11.0px" width="35.15px" xmlns="http://www.w3.org/2000/svg">
  <g transform="matrix(1.0, 0.0, 0.0, 1.0, 18.2, 9.25)">
    <path d="M5.1 -8.25 L5.0 -8.25 5.0 -8.0 5.0 -7.25 3.95 -7.25 3.0 -7.25 3.0 -8.25 4.95 -8.25 4.95 -9.25 5.95 -9.25 5.95 -8.25 6.95 -8.25 6.95 -7.25 5.9 -7.25 5.9 -8.25 5.1 -8.25 M3.95 -6.25 L5.95 -6.25 5.95 -5.25 6.95 -5.25 6.95 -4.25 7.95 -4.25 7.95 -3.25 9.95 -3.25 9.95 0.75 10.95 0.75 10.95 -1.25 11.95 -1.25 11.95 -0.25 15.95 -0.25 15.95 -1.25 13.95 -1.25 13.95 -2.25 11.95 -2.25 11.95 -4.25 8.95 -4.25 8.95 -5.25 7.95 -5.25 7.95 -6.25 6.95 -6.25 6.95 -7.25 7.95 -7.25 7.95 -6.25 8.95 -6.25 8.95 -5.25 11.95 -5.25 11.95 -4.25 12.95 -4.25 12.95 -3.25 13.95 -3.25 13.95 -2.25 15.95 -2.25 15.95 -1.25 16.95 -1.25 16.95 0.75 10.95 0.75 10.95 1.75 8.95 1.75 8.95 -2.25 7.95 -2.25 7.95 -3.25 6.95 -3.25 6.95 -4.25 5.95 -4.25 5.95 -5.25 3.95 -5.25 3.95 -6.25" fill="#000000" fill-rule="evenodd" stroke="none"/>
    <path d="M5.0 -8.0 L5.1 -8.0 5.1 -8.25 5.9 -8.25 5.9 -7.25 6.95 -7.25 6.95 -6.25 7.95 -6.25 7.95 -5.25 8.95 -5.25 8.95 -4.25 11.95 -4.25 11.95 -2.25 13.95 -2.25 13.95 -1.25 15.95 -1.25 15.95 -0.25 11.95 -0.25 11.95 -1.25 10.95 -1.25 10.95 0.75 9.95 0.75 9.95 -3.25 7.95 -3.25 7.95 -4.25 6.95 -4.25 6.95 -5.25 5.95 -5.25 5.95 -6.25 3.95 -6.25 2.65 -6.25 3.8 -6.6 1.05 -6.8 3.95 -7.25 5.0 -7.25 5.0 -8.0" fill="#ffffff" fill-rule="evenodd" stroke="none"/>
    <path d="M-4.85 -7.25 L-6.2 -7.25 -6.2 -8.25 -7.2 -8.25 -7.2 -7.25 -8.2 -7.25 -8.2 -6.25 -9.2 -6.25 -9.2 -5.25 -10.2 -5.25 -10.2 -4.25 -13.2 -4.25 -13.2 -2.25 -15.2 -2.25 -15.2 -1.25 -17.2 -1.25 -17.2 -0.25 -13.2 -0.25 -13.2 -1.25 -12.2 -1.25 -12.2 0.75 -11.2 0.75 -11.2 -3.25 -9.2 -3.25 -9.2 -4.25 -8.2 -4.25 -8.2 -5.25 -7.2 -5.25 -7.2 -6.25 -4.85 -6.25 -4.75 -6.25 -4.75 -5.25 -7.2 -5.25 -7.2 -4.25 -8.2 -4.25 -8.2 -3.25 -9.2 -3.25 -9.2 -2.25 -10.2 -2.25 -10.2 1.75 -12.2 1.75 -12.2 0.75 -18.2 0.75 -18.2 -1.25 -17.2 -1.25 -17.2 -2.25 -15.2 -2.25 -15.2 -3.25 -14.2 -3.25 -14.2 -4.25 -13.2 -4.25 -13.2 -5.25 -10.2 -5.25 -10.2 -6.25 -9.2 -6.25 -9.2 -7.25 -8.2 -7.25 -8.2 -8.25 -7.2 -8.25 -7.2 -9.25 -6.2 -9.25 -6.2 -8.25 -4.65 -8.25 -4.65 -7.25 -4.85 -7.25" fill="#000000" fill-rule="evenodd" stroke="none"/>
    <path d="M-4.85 -6.25 L-7.2 -6.25 -7.2 -5.25 -8.2 -5.25 -8.2 -4.25 -9.2 -4.25 -9.2 -3.25 -11.2 -3.25 -11.2 0.75 -12.2 0.75 -12.2 -1.25 -13.2 -1.25 -13.2 -0.25 -17.2 -0.25 -17.2 -1.25 -15.2 -1.25 -15.2 -2.25 -13.2 -2.25 -13.2 -4.25 -10.2 -4.25 -10.2 -5.25 -9.2 -5.25 -9.2 -6.25 -8.2 -6.25 -8.2 -7.25 -7.2 -7.25 -7.2 -8.25 -6.2 -8.25 -6.2 -7.25 -4.85 -7.25 -4.85 -6.25" fill="#ffffff" fill-rule="evenodd" stroke="none"/>
  </g>
</svg>
