<?xml version="1.0" encoding="UTF-8" standalone="no"?>
<svg xmlns:ffdec="https://www.free-decompiler.com/flash" xmlns:xlink="http://www.w3.org/1999/xlink" ffdec:objectType="shape" height="13.65px" width="38.0px" xmlns="http://www.w3.org/2000/svg">
  <g transform="matrix(1.0, 0.0, 0.0, 1.0, 20.2, 18.9)">
    <path d="M7.8 -6.3 L7.8 -8.3 8.8 -8.3 8.8 -10.3 9.8 -10.3 9.8 -12.3 10.8 -12.3 10.8 -14.3 11.8 -14.3 11.8 -15.3 15.8 -15.3 15.8 -16.3 13.8 -16.3 13.8 -17.3 10.8 -17.3 10.8 -15.3 9.8 -15.3 9.8 -13.3 8.8 -13.3 8.8 -11.3 7.8 -11.3 7.8 -9.3 6.8 -9.3 6.8 -7.25 6.35 -7.25 2.95 -7.25 2.8 -7.25 2.8 -8.25 5.8 -8.25 5.8 -9.3 6.8 -9.3 6.8 -11.3 7.8 -11.3 7.8 -13.3 8.8 -13.3 8.8 -15.3 9.8 -15.3 9.8 -17.3 10.8 -17.3 10.8 -18.3 13.8 -18.3 13.8 -17.3 15.8 -17.3 15.8 -16.3 17.8 -16.3 17.8 -15.3 16.8 -15.3 16.8 -14.3 11.8 -14.3 11.8 -12.3 10.8 -12.3 10.8 -10.3 9.8 -10.3 9.8 -8.3 8.8 -8.3 8.8 -6.3 7.8 -6.3 M4.75 -6.25 L7.75 -6.25 7.8 -6.25 7.8 -5.25 3.1 -5.25 3.1 -6.25 4.75 -6.25" fill="#000000" fill-rule="evenodd" stroke="none"/>
    <path d="M6.35 -7.25 L6.8 -7.25 6.8 -9.3 7.8 -9.3 7.8 -11.3 8.8 -11.3 8.8 -13.3 9.8 -13.3 9.8 -15.3 10.8 -15.3 10.8 -17.3 13.8 -17.3 13.8 -16.3 15.8 -16.3 15.8 -15.3 11.8 -15.3 11.8 -14.3 10.8 -14.3 10.8 -12.3 9.8 -12.3 9.8 -10.3 8.8 -10.3 8.8 -8.3 7.8 -8.3 7.8 -6.3 7.75 -6.3 7.75 -6.25 4.75 -6.25 4.75 -6.3 6.35 -6.3 6.35 -7.25 M7.8 -6.25 L7.85 -6.25 7.85 -5.25 7.8 -5.25 7.8 -6.25" fill="#ffffff" fill-rule="evenodd" stroke="none"/>
    <path d="M6.35 -7.25 L6.35 -6.3 4.75 -6.3 2.95 -6.3 2.95 -7.25 6.35 -7.25" fill="#fdfdfd" fill-rule="evenodd" stroke="none"/>
    <path d="M-10.2 -6.9 L-10.2 -8.9 -11.2 -8.9 -11.2 -10.9 -12.2 -10.9 -12.2 -12.9 -13.2 -12.9 -13.2 -14.9 -14.2 -14.9 -14.2 -15.9 -18.2 -15.9 -18.2 -16.9 -16.2 -16.9 -16.2 -17.9 -13.2 -17.9 -13.2 -15.9 -12.2 -15.9 -12.2 -13.9 -11.2 -13.9 -11.2 -11.9 -10.2 -11.9 -10.2 -9.9 -9.2 -9.9 -9.2 -7.9 -7.2 -7.9 -7.2 -7.25 -4.75 -7.25 -3.6 -7.25 -3.6 -6.25 -5.15 -6.25 -8.15 -6.25 -8.15 -6.9 -10.15 -6.9 -10.2 -6.9" fill="#ffffff" fill-rule="evenodd" stroke="none"/>
    <path d="M-4.75 -7.25 L-7.2 -7.25 -7.2 -7.9 -9.2 -7.9 -9.2 -9.9 -10.2 -9.9 -10.2 -11.9 -11.2 -11.9 -11.2 -13.9 -12.2 -13.9 -12.2 -15.9 -13.2 -15.9 -13.2 -17.9 -16.2 -17.9 -16.2 -16.9 -18.2 -16.9 -18.2 -15.9 -14.2 -15.9 -14.2 -14.9 -13.2 -14.9 -13.2 -12.9 -12.2 -12.9 -12.2 -10.9 -11.2 -10.9 -11.2 -8.9 -10.2 -8.9 -10.2 -6.9 -11.2 -6.9 -11.2 -8.9 -12.2 -8.9 -12.2 -10.9 -13.2 -10.9 -13.2 -12.9 -14.2 -12.9 -14.2 -14.9 -19.2 -14.9 -19.2 -15.9 -20.2 -15.9 -20.2 -16.9 -18.2 -16.9 -18.2 -17.9 -16.2 -17.9 -16.2 -18.9 -13.2 -18.9 -13.2 -17.9 -12.2 -17.9 -12.2 -15.9 -11.2 -15.9 -11.2 -13.9 -10.2 -13.9 -10.2 -11.9 -9.2 -11.9 -9.2 -9.9 -8.2 -9.9 -8.2 -8.9 -7.2 -8.9 -7.2 -8.25 -4.75 -8.25 -4.75 -7.25 M-10.15 -6.9 L-8.15 -6.9 -8.15 -6.25 -5.15 -6.25 -5.15 -5.25 -8.15 -5.25 -8.15 -5.9 -10.15 -5.9 -10.15 -6.9" fill="#000000" fill-rule="evenodd" stroke="none"/>
    <path d="M-5.65 -5.25 L-5.65 -6.25 -4.65 -6.25 -4.65 -5.25 -5.65 -5.25" fill="#000000" fill-rule="evenodd" stroke="none"/>
  </g>
</svg>
