<?xml version="1.0" encoding="UTF-8" standalone="no"?>
<svg xmlns:ffdec="https://www.free-decompiler.com/flash" xmlns:xlink="http://www.w3.org/1999/xlink" ffdec:objectType="shape" height="14.0px" width="19.0px" xmlns="http://www.w3.org/2000/svg">
  <g transform="matrix(1.0, 0.0, 0.0, 1.0, 8.85, -21.0)">
    <path d="M2.15 26.0 L4.15 26.0 4.15 32.0 2.15 32.0 2.15 26.0 M2.15 22.0 L4.15 22.0 4.15 25.0 2.15 25.0 2.15 22.0 M-2.85 26.0 L-0.85 26.0 -0.85 32.0 -2.85 32.0 -2.85 26.0 M-2.85 22.0 L-0.85 22.0 -0.85 25.0 -2.85 25.0 -2.85 22.0" fill="#ffffff" fill-rule="evenodd" stroke="none"/>
    <path d="M5.15 21.0 L5.15 31.0 7.15 31.0 7.15 32.0 10.15 32.0 10.15 35.0 1.15 35.0 1.15 21.0 5.15 21.0 M2.15 22.0 L2.15 25.0 4.15 25.0 4.15 22.0 2.15 22.0 M2.15 26.0 L2.15 32.0 4.15 32.0 4.15 26.0 2.15 26.0 M0.2 35.0 L-8.85 35.0 -8.85 33.0 -7.85 33.0 -7.85 32.0 -5.85 32.0 -5.85 31.0 -3.85 31.0 -3.85 21.0 0.15 21.0 0.15 32.0 0.2 32.0 0.2 35.0 M-2.85 22.0 L-2.85 25.0 -0.85 25.0 -0.85 22.0 -2.85 22.0 M-2.85 26.0 L-2.85 32.0 -0.85 32.0 -0.85 26.0 -2.85 26.0" fill="#000000" fill-rule="evenodd" stroke="none"/>
  </g>
</svg>
