<?xml version="1.0" encoding="UTF-8" standalone="no"?>
<svg xmlns:ffdec="https://www.free-decompiler.com/flash" xmlns:xlink="http://www.w3.org/1999/xlink" ffdec:objectType="shape" height="11.0px" width="35.0px" xmlns="http://www.w3.org/2000/svg">
  <g transform="matrix(1.0, 0.0, 0.0, 1.0, 18.0, 6.95)">
    <path d="M4.0 -5.95 L5.0 -5.95 5.0 -6.95 6.0 -6.95 6.0 -5.95 7.0 -5.95 7.0 -4.95 8.0 -4.95 8.0 -3.95 9.0 -3.95 9.0 -2.95 12.0 -2.95 12.0 -1.95 13.0 -1.95 13.0 -0.95 14.0 -0.95 14.0 0.05 16.0 0.05 16.0 1.05 17.0 1.05 17.0 3.05 11.0 3.05 11.0 4.05 9.0 4.05 9.0 0.05 8.0 0.05 8.0 -0.95 7.0 -0.95 7.0 -1.95 6.0 -1.95 6.0 -2.95 5.0 -2.95 5.0 -3.95 3.95 -3.95 3.95 -4.95 4.0 -4.95 4.0 -5.95 M6.0 -2.95 L7.0 -2.95 7.0 -1.95 8.0 -1.95 8.0 -0.95 10.0 -0.95 10.0 3.05 11.0 3.05 11.0 1.05 12.0 1.05 12.0 2.05 16.0 2.05 16.0 1.05 14.0 1.05 14.0 0.05 12.0 0.05 12.0 -1.95 9.0 -1.95 9.0 -2.95 8.0 -2.95 8.0 -3.95 7.0 -3.95 7.0 -4.95 5.0 -4.95 5.0 -3.95 6.0 -3.95 6.0 -2.95" fill="#000000" fill-rule="evenodd" stroke="none"/>
    <path d="M3.95 -4.95 L3.95 -5.95 4.0 -5.95 4.0 -4.95 3.95 -4.95" fill="#90713a" fill-rule="evenodd" stroke="none"/>
    <path d="M6.0 -2.95 L6.0 -3.95 5.0 -3.95 5.0 -4.95 7.0 -4.95 7.0 -3.95 8.0 -3.95 8.0 -2.95 9.0 -2.95 9.0 -1.95 12.0 -1.95 12.0 0.05 14.0 0.05 14.0 1.05 16.0 1.05 16.0 2.05 12.0 2.05 12.0 1.05 11.0 1.05 11.0 3.05 10.0 3.05 10.0 -0.95 8.0 -0.95 8.0 -1.95 7.0 -1.95 7.0 -2.95 6.0 -2.95" fill="#ffffff" fill-rule="evenodd" stroke="none"/>
    <path d="M-13.0 -1.95 L-13.0 -2.95 -10.0 -2.95 -10.0 -1.95 -13.0 -1.95 -13.0 0.05 -15.0 0.05 -15.0 1.05 -17.0 1.05 -17.0 2.05 -13.0 2.05 -13.0 1.05 -12.0 1.05 -12.0 3.05 -11.0 3.05 -11.0 -0.95 -9.0 -0.95 -9.0 -1.95 -8.0 -1.95 -8.0 -2.95 -7.0 -2.95 -7.0 -3.95 -6.0 -3.95 -6.0 -4.95 -8.0 -4.95 -8.0 -3.95 -9.0 -3.95 -9.0 -2.95 -10.0 -2.95 -10.0 -3.95 -9.0 -3.95 -9.0 -4.95 -8.0 -4.95 -8.0 -5.95 -7.0 -5.95 -7.0 -6.95 -6.0 -6.95 -6.0 -5.95 -5.0 -5.95 -5.0 -4.95 -4.95 -4.95 -4.95 -3.95 -6.0 -3.95 -6.0 -2.95 -7.0 -2.95 -7.0 -1.95 -8.0 -1.95 -8.0 -0.95 -9.0 -0.95 -9.0 0.05 -10.0 0.05 -10.0 4.05 -12.0 4.05 -12.0 3.05 -18.0 3.05 -18.0 1.05 -17.0 1.05 -17.0 0.05 -15.0 0.05 -15.0 -0.95 -14.0 -0.95 -14.0 -1.95 -13.0 -1.95" fill="#000000" fill-rule="evenodd" stroke="none"/>
    <path d="M-13.0 -1.95 L-10.0 -1.95 -10.0 -2.95 -9.0 -2.95 -9.0 -3.95 -8.0 -3.95 -8.0 -4.95 -6.0 -4.95 -6.0 -3.95 -7.0 -3.95 -7.0 -2.95 -8.0 -2.95 -8.0 -1.95 -9.0 -1.95 -9.0 -0.95 -11.0 -0.95 -11.0 3.05 -12.0 3.05 -12.0 1.05 -13.0 1.05 -13.0 2.05 -17.0 2.05 -17.0 1.05 -15.0 1.05 -15.0 0.05 -13.0 0.05 -13.0 -1.95" fill="#ffffff" fill-rule="evenodd" stroke="none"/>
    <path d="M-5.0 -5.95 L-4.95 -5.95 -4.95 -4.95 -5.0 -4.95 -5.0 -5.95" fill="#90713a" fill-rule="evenodd" stroke="none"/>
  </g>
</svg>
