<?xml version="1.0" encoding="UTF-8" standalone="no"?>
<svg xmlns:ffdec="https://www.free-decompiler.com/flash" xmlns:xlink="http://www.w3.org/1999/xlink" ffdec:objectType="shape" height="13.1px" width="38.95px" xmlns="http://www.w3.org/2000/svg">
  <g transform="matrix(1.0, 0.0, 0.0, 1.0, 19.95, 19.0)">
    <path d="M7.0 -8.0 L6.0 -8.0 6.0 -9.0 7.0 -9.0 7.0 -10.0 8.0 -10.0 8.0 -12.0 9.0 -12.0 9.0 -14.0 10.0 -14.0 10.0 -16.0 11.0 -16.0 11.0 -18.0 12.0 -18.0 12.0 -19.0 15.0 -19.0 15.0 -18.0 17.0 -18.0 17.0 -17.0 19.0 -17.0 19.0 -16.0 18.0 -16.0 18.0 -15.0 13.0 -15.0 13.0 -13.0 12.0 -13.0 12.0 -11.0 11.0 -11.0 11.0 -9.0 10.0 -9.0 10.0 -7.0 9.0 -7.0 9.0 -9.0 10.0 -9.0 10.0 -11.0 11.0 -11.0 11.0 -13.0 12.0 -13.0 12.0 -15.0 13.0 -15.0 13.0 -16.0 17.0 -16.0 17.0 -17.0 15.0 -17.0 15.0 -18.0 12.0 -18.0 12.0 -16.0 11.0 -16.0 11.0 -14.0 10.0 -14.0 10.0 -12.0 9.0 -12.0 9.0 -10.0 8.0 -10.0 8.0 -8.0 7.0 -8.0 M8.95 -6.95 L9.0 -6.95 9.0 -5.95 7.0 -5.95 7.0 -6.95 8.95 -6.95" fill="#000000" fill-rule="evenodd" stroke="none"/>
    <path d="M9.0 -7.0 L8.95 -7.0 8.95 -6.95 7.0 -6.95 7.0 -5.95 6.05 -5.95 6.05 -6.95 5.95 -6.95 5.95 -7.95 7.0 -7.95 7.0 -8.0 8.0 -8.0 8.0 -10.0 9.0 -10.0 9.0 -12.0 10.0 -12.0 10.0 -14.0 11.0 -14.0 11.0 -16.0 12.0 -16.0 12.0 -18.0 15.0 -18.0 15.0 -17.0 17.0 -17.0 17.0 -16.0 13.0 -16.0 13.0 -15.0 12.0 -15.0 12.0 -13.0 11.0 -13.0 11.0 -11.0 10.0 -11.0 10.0 -9.0 9.0 -9.0 9.0 -7.0 M9.0 -6.95 L9.05 -6.95 9.05 -5.95 9.0 -5.95 9.0 -6.95" fill="#ffffff" fill-rule="evenodd" stroke="none"/>
    <path d="M-9.95 -6.9 L-9.95 -8.9 -10.95 -8.9 -10.95 -10.9 -11.95 -10.9 -11.95 -12.9 -12.95 -12.9 -12.95 -14.9 -13.95 -14.9 -13.95 -15.9 -17.95 -15.9 -17.95 -16.9 -15.95 -16.9 -15.95 -17.9 -12.95 -17.9 -12.95 -15.9 -11.95 -15.9 -11.95 -13.9 -10.95 -13.9 -10.95 -11.9 -9.95 -11.9 -9.95 -9.9 -8.95 -9.9 -8.95 -7.9 -6.95 -7.9 -6.95 -6.9 -7.9 -6.9 -9.9 -6.9 -9.95 -6.9" fill="#ffffff" fill-rule="evenodd" stroke="none"/>
    <path d="M-6.95 -7.9 L-8.95 -7.9 -8.95 -9.9 -9.95 -9.9 -9.95 -11.9 -10.95 -11.9 -10.95 -13.9 -11.95 -13.9 -11.95 -15.9 -12.95 -15.9 -12.95 -17.9 -15.95 -17.9 -15.95 -16.9 -17.95 -16.9 -17.95 -15.9 -13.95 -15.9 -13.95 -14.9 -12.95 -14.9 -12.95 -12.9 -11.95 -12.9 -11.95 -10.9 -10.95 -10.9 -10.95 -8.9 -9.95 -8.9 -9.95 -6.9 -10.95 -6.9 -10.95 -8.9 -11.95 -8.9 -11.95 -10.9 -12.95 -10.9 -12.95 -12.9 -13.95 -12.9 -13.95 -14.9 -18.95 -14.9 -18.95 -15.9 -19.95 -15.9 -19.95 -16.9 -17.95 -16.9 -17.95 -17.9 -15.95 -17.9 -15.95 -18.9 -12.95 -18.9 -12.95 -17.9 -11.95 -17.9 -11.95 -15.9 -10.95 -15.9 -10.95 -13.9 -9.95 -13.9 -9.95 -11.9 -8.95 -11.9 -8.95 -9.9 -7.95 -9.9 -7.95 -8.9 -6.95 -8.9 -6.95 -7.9 M-9.9 -6.9 L-7.9 -6.9 -7.9 -5.9 -9.9 -5.9 -9.9 -6.9" fill="#000000" fill-rule="evenodd" stroke="none"/>
  </g>
</svg>
