<?xml version="1.0" encoding="UTF-8" standalone="no"?>
<svg xmlns:ffdec="https://www.free-decompiler.com/flash" xmlns:xlink="http://www.w3.org/1999/xlink" ffdec:objectType="shape" height="28.0px" width="15.0px" xmlns="http://www.w3.org/2000/svg">
  <g transform="matrix(1.0, 0.0, 0.0, 1.0, 7.0, 9.0)">
    <path d="M-4.0 2.0 L-4.0 0.0 -3.0 0.0 -3.0 -1.0 -4.0 -1.0 -4.0 -2.0 -5.0 -2.0 -5.0 -3.0 -5.9 -3.0 -5.9 -3.95 -7.0 -3.95 -7.0 -6.0 -6.0 -6.0 -6.0 -7.0 -1.0 -7.0 -1.0 -9.0 2.0 -9.0 2.0 -7.0 7.0 -7.0 7.0 -6.0 8.0 -6.0 8.0 -4.0 6.8 -4.0 6.8 -3.0 6.0 -3.0 6.0 -2.0 4.0 -2.0 4.0 0.0 5.0 0.0 5.0 2.0 3.0 2.0 3.0 3.0 -1.0 3.0 -1.0 2.0 -4.0 2.0 M5.0 3.0 L5.0 6.0 6.0 6.0 6.0 10.0 7.0 10.0 7.0 14.0 5.0 14.0 5.0 16.0 7.0 16.0 7.0 18.0 6.0 18.0 6.0 17.0 5.0 17.0 5.0 18.0 4.0 18.0 4.0 17.0 3.0 17.0 3.0 18.0 2.0 18.0 2.0 17.0 1.0 17.0 1.0 18.0 0.0 18.0 0.0 17.0 -1.0 17.0 -1.0 18.0 -2.0 18.0 -2.0 17.0 -3.0 17.0 -3.0 18.0 -4.0 18.0 -4.0 17.0 -5.0 17.0 -5.0 18.0 -6.0 18.0 -6.0 17.95 -6.0 17.0 -7.0 17.0 -7.0 12.0 -6.0 12.0 -6.0 10.0 -7.0 10.0 -7.0 9.0 -6.0 9.0 -6.0 6.0 -5.0 6.0 -5.0 4.0 -4.0 4.0 -4.0 3.0 -2.0 3.0 -2.0 4.0 4.0 4.0 4.0 3.0 5.0 3.0 M-0.3 -4.0 L-0.3 -3.0 1.0 -3.0 1.0 -4.0 3.0 -4.0 3.0 -5.0 5.0 -5.0 5.0 -6.0 1.0 -6.0 1.0 -8.0 0.0 -8.0 0.0 -6.0 -4.0 -6.0 -4.0 -5.0 -2.0 -5.0 -2.0 -4.0 -0.3 -4.0 M1.0 8.0 L1.0 6.0 -1.0 6.0 -1.0 8.0 1.0 8.0 M4.0 12.0 L2.0 12.0 2.0 14.0 4.0 14.0 4.0 12.0 M3.0 10.0 L5.0 10.0 5.0 8.0 3.0 8.0 3.0 10.0 M3.0 6.0 L4.0 6.0 4.0 5.0 3.0 5.0 3.0 6.0 M-4.0 15.0 L-4.0 13.0 -6.0 13.0 -6.0 15.0 -4.0 15.0 M-5.0 7.0 L-5.0 9.0 -3.0 9.0 -3.0 7.0 -5.0 7.0 M-1.0 12.0 L-1.0 10.0 -3.0 10.0 -3.0 12.0 -1.0 12.0 M0.0 16.0 L0.0 14.0 -2.0 14.0 -2.0 16.0 0.0 16.0" fill="#000000" fill-rule="evenodd" stroke="none"/>
    <path d="M5.0 2.0 L5.0 3.0 4.0 3.0 4.0 4.0 -2.0 4.0 -2.0 3.0 -4.0 3.0 -4.0 2.0 -1.0 2.0 -1.0 3.0 3.0 3.0 3.0 2.0 5.0 2.0 M7.0 14.0 L7.0 16.0 5.0 16.0 5.0 14.0 7.0 14.0 M-7.0 12.0 L-7.0 10.0 -6.0 10.0 -6.0 12.0 -7.0 12.0 M-0.3 -4.0 L-2.0 -4.0 -2.0 -5.0 -4.0 -5.0 -4.0 -6.0 0.0 -6.0 0.0 -8.0 1.0 -8.0 1.0 -6.0 5.0 -6.0 5.0 -5.0 3.0 -5.0 3.0 -4.0 1.0 -4.0 1.0 -3.0 -0.3 -3.0 -0.3 -4.0 M3.0 6.0 L3.0 5.0 4.0 5.0 4.0 6.0 3.0 6.0 M3.0 10.0 L3.0 8.0 5.0 8.0 5.0 10.0 3.0 10.0 M4.0 12.0 L4.0 14.0 2.0 14.0 2.0 12.0 4.0 12.0 M1.0 8.0 L-1.0 8.0 -1.0 6.0 1.0 6.0 1.0 8.0 M0.0 16.0 L-2.0 16.0 -2.0 14.0 0.0 14.0 0.0 16.0 M-1.0 12.0 L-3.0 12.0 -3.0 10.0 -1.0 10.0 -1.0 12.0 M-5.0 7.0 L-3.0 7.0 -3.0 9.0 -5.0 9.0 -5.0 7.0 M-4.0 15.0 L-6.0 15.0 -6.0 13.0 -4.0 13.0 -4.0 15.0" fill="#ffffff" fill-rule="evenodd" stroke="none"/>
    <path d="M7.0 18.0 L7.0 19.0 -7.0 19.0 -7.0 18.0 -6.0 18.0 -5.0 18.0 -5.0 17.0 -4.0 17.0 -4.0 18.0 -3.0 18.0 -3.0 17.0 -2.0 17.0 -2.0 18.0 -1.0 18.0 -1.0 17.0 0.0 17.0 0.0 18.0 1.0 18.0 1.0 17.0 2.0 17.0 2.0 18.0 3.0 18.0 3.0 17.0 4.0 17.0 4.0 18.0 5.0 18.0 5.0 17.0 6.0 17.0 6.0 18.0 7.0 18.0 M-6.0 17.95 L-7.0 17.95 -7.0 17.0 -6.0 17.0 -6.0 17.95" fill="#999999" fill-rule="evenodd" stroke="none"/>
  </g>
</svg>
