<?xml version="1.0" encoding="UTF-8" standalone="no"?>
<svg xmlns:ffdec="https://www.free-decompiler.com/flash" xmlns:xlink="http://www.w3.org/1999/xlink" ffdec:objectType="shape" height="7.5px" width="10.0px" xmlns="http://www.w3.org/2000/svg">
  <g transform="matrix(1.0, 0.0, 0.0, 1.0, 9.05, 3.85)">
    <path d="M-2.1 3.65 L-8.1 3.65 -8.1 2.75 -7.1 2.75 -7.1 1.75 -6.1 1.75 -6.1 2.75 -5.1 2.75 -5.1 1.75 -4.1 1.75 -4.1 2.75 -2.1 2.75 -2.1 3.65 M-9.05 -2.25 L-9.05 -3.25 -4.1 -3.25 -4.1 -2.25 -9.05 -2.25" fill="#000000" fill-rule="evenodd" stroke="none"/>
    <path d="M-9.05 -3.25 L-9.05 -3.85 0.95 -3.85 0.95 -0.75 -0.8 -0.75 -0.8 3.65 -2.1 3.65 -2.1 2.75 -4.1 2.75 -4.1 1.75 -5.1 1.75 -5.1 2.75 -6.1 2.75 -6.1 1.75 -7.1 1.75 -7.1 2.75 -8.1 2.75 -8.1 3.65 -9.05 3.65 -9.05 -2.25 -4.1 -2.25 -4.1 -3.25 -9.05 -3.25" fill="#ffffff" fill-rule="evenodd" stroke="none"/>
  </g>
</svg>
