<?xml version="1.0" encoding="UTF-8" standalone="no"?>
<svg xmlns:ffdec="https://www.free-decompiler.com/flash" xmlns:xlink="http://www.w3.org/1999/xlink" ffdec:objectType="shape" height="16.0px" width="16.55px" xmlns="http://www.w3.org/2000/svg">
  <g transform="matrix(1.0, 0.0, 0.0, 1.0, -9.85, -18.0)">
    <path d="M12.85 23.0 L13.85 23.0 13.85 25.0 14.85 25.0 14.85 26.0 15.85 26.0 15.85 27.0 16.85 27.0 16.85 28.0 17.85 28.0 17.85 29.0 18.85 29.0 18.85 30.0 20.85 30.0 20.85 31.0 19.85 31.0 19.85 32.0 18.85 32.0 18.85 33.0 17.85 33.0 17.85 30.0 16.85 30.0 16.85 29.0 15.85 29.0 15.85 28.0 14.85 28.0 14.85 27.0 13.85 27.0 13.85 26.0 10.85 26.0 10.85 25.0 11.85 25.0 11.85 24.0 12.85 24.0 12.85 23.0 M9.85 24.0 L9.85 26.0 10.85 26.0 10.85 27.0 13.85 27.0 13.85 28.0 14.85 28.0 14.85 29.0 15.85 29.0 15.85 30.0 16.85 30.0 16.85 33.0 17.85 33.0 17.85 34.0 19.85 34.0 19.85 32.0 21.85 32.0 21.85 30.0 20.85 30.0 20.85 29.0 18.85 29.0 18.85 28.0 17.85 28.0 17.85 27.0 16.85 27.0 16.85 26.0 15.85 26.0 15.85 25.0 14.85 25.0 14.85 23.0 13.85 23.0 13.85 22.0 11.85 22.0 11.85 24.0 9.85 24.0" fill="#000000" fill-rule="evenodd" stroke="none"/>
    <path d="M12.85 23.0 L12.85 24.0 11.85 24.0 11.85 25.0 10.85 25.0 10.85 26.0 13.85 26.0 13.85 27.0 14.85 27.0 14.85 28.0 15.85 28.0 15.85 29.0 16.85 29.0 16.85 30.0 17.85 30.0 17.85 33.0 18.85 33.0 18.85 32.0 19.85 32.0 19.85 31.0 20.85 31.0 20.85 30.0 18.85 30.0 18.85 29.0 17.85 29.0 17.85 28.0 16.85 28.0 16.85 27.0 15.85 27.0 15.85 26.0 14.85 26.0 14.85 25.0 13.85 25.0 13.85 23.0 12.85 23.0" fill="#ffffff" fill-rule="evenodd" stroke="none"/>
    <path d="M26.4 22.0 L26.0 22.0 26.0 21.0 24.0 21.0 24.0 20.0 22.0 20.0 18.0 20.0 18.0 21.0 17.0 21.0 17.0 19.0 24.0 19.0 24.0 18.0 26.4 18.0 26.4 19.0 25.0 19.0 25.0 20.0 26.4 20.0 26.4 22.0 M22.0 21.0 L23.0 21.0 23.0 22.0 25.0 22.0 25.0 23.0 26.0 23.0 26.0 28.0 25.0 28.0 25.0 23.0 22.0 23.0 22.0 22.0 19.0 22.0 19.0 24.0 18.0 24.0 18.0 22.0 19.0 22.0 19.0 21.0 22.0 21.0 M16.0 23.0 L16.0 21.0 17.0 21.0 17.0 23.0 16.0 23.0 16.0 25.0 15.0 25.0 15.0 23.0 16.0 23.0 M14.0 30.0 L16.0 30.0 16.0 28.0 17.0 28.0 17.0 24.0 18.0 24.0 18.0 29.1 16.8 29.1 16.8 31.05 15.0 31.05 15.0 31.0 14.0 31.0 14.0 30.0 13.0 30.0 13.0 29.0 12.95 29.0 12.95 27.0 13.0 27.0 13.0 26.0 14.0 26.0 14.0 25.0 15.0 25.0 15.0 26.0 14.0 26.0 14.0 30.0" fill="#000000" fill-rule="evenodd" stroke="none"/>
    <path d="M22.0 20.0 L22.0 21.0 19.0 21.0 19.0 22.0 18.0 22.0 18.0 24.0 17.0 24.0 17.0 28.0 16.0 28.0 16.0 30.0 14.0 30.0 14.0 26.0 15.0 26.0 15.0 25.0 16.0 25.0 16.0 23.0 17.0 23.0 17.0 21.0 18.0 21.0 18.0 20.0 22.0 20.0 M26.4 20.0 L25.0 20.0 25.0 19.0 26.4 19.0 26.4 20.0" fill="#ffffff" fill-rule="evenodd" stroke="none"/>
    <path d="M22.0 20.0 L24.0 20.0 24.0 21.0 26.0 21.0 26.0 22.0 26.4 22.0 26.4 30.0 25.0 30.0 25.0 28.0 26.0 28.0 26.0 23.0 25.0 23.0 25.0 22.0 23.0 22.0 23.0 21.0 22.0 21.0 22.0 20.0" fill="#656565" fill-rule="evenodd" stroke="none"/>
  </g>
</svg>
