<?xml version="1.0" encoding="UTF-8" standalone="no"?>
<svg xmlns:ffdec="https://www.free-decompiler.com/flash" xmlns:xlink="http://www.w3.org/1999/xlink" ffdec:objectType="shape" height="15.1px" width="14.9px" xmlns="http://www.w3.org/2000/svg">
  <g transform="matrix(1.0, 0.0, 0.0, 1.0, -10.9, -18.0)">
    <path d="M14.85 19.1 L15.85 19.1 15.85 20.1 16.85 20.1 16.85 22.1 15.85 22.1 15.85 30.1 16.85 30.1 16.85 32.1 15.85 32.1 15.85 33.1 14.85 33.1 14.85 32.1 13.85 32.1 13.85 33.1 12.85 33.1 12.85 32.1 11.85 32.1 11.85 30.1 12.85 30.1 12.85 22.1 11.85 22.1 11.85 20.1 12.85 20.1 12.85 19.1 13.85 19.1 13.85 20.1 14.85 20.1 14.85 19.1 M12.85 20.1 L12.85 22.1 13.85 22.1 13.85 30.1 12.85 30.1 12.85 32.1 13.85 32.1 13.85 31.1 14.85 31.1 14.85 32.1 15.85 32.1 15.85 30.1 14.85 30.1 14.85 22.1 15.85 22.1 15.85 20.1 14.85 20.1 14.85 21.1 13.85 21.1 13.85 20.1 12.85 20.1" fill="#000000" fill-rule="evenodd" stroke="none"/>
    <path d="M12.85 20.1 L13.85 20.1 13.85 21.1 14.85 21.1 14.85 20.1 15.85 20.1 15.85 22.1 14.85 22.1 14.85 30.1 15.85 30.1 15.85 32.1 14.85 32.1 14.85 31.1 13.85 31.1 13.85 32.1 12.85 32.1 12.85 30.1 13.85 30.1 13.85 22.1 12.85 22.1 12.85 20.1" fill="#ffffff" fill-rule="evenodd" stroke="none"/>
    <path d="M25.8 21.0 L24.0 21.0 24.0 20.0 22.0 20.0 22.0 21.0 23.0 21.0 23.0 22.0 25.0 22.0 25.0 23.0 25.8 23.0 25.8 27.95 25.0 27.95 25.0 23.0 24.0 23.0 24.0 24.0 23.0 24.0 23.0 22.0 22.0 22.0 22.0 23.0 21.0 23.0 21.0 20.0 22.0 20.0 22.0 19.0 24.0 19.0 24.0 18.0 25.8 18.0 25.8 19.0 25.0 19.0 25.0 20.0 25.8 20.0 25.8 21.0 M22.0 26.0 L22.0 24.0 23.0 24.0 23.0 26.0 22.0 26.0 22.0 28.0 21.0 28.0 21.0 29.0 16.0 29.0 16.0 29.05 13.0 29.05 13.0 29.0 11.0 29.0 11.0 27.0 10.9 27.0 10.9 25.05 12.7 25.05 12.7 25.0 13.0 25.0 13.0 27.0 12.0 27.0 12.0 28.0 15.0 28.0 15.0 27.0 16.0 27.0 16.0 26.0 15.0 26.0 15.0 25.0 13.0 25.0 13.0 24.0 15.0 24.0 15.0 25.0 16.0 25.0 16.0 26.0 19.0 26.0 19.0 25.0 20.0 25.0 20.0 23.0 21.0 23.0 21.0 25.0 20.0 25.0 20.0 27.0 16.0 27.0 16.0 28.0 21.0 28.0 21.0 26.0 22.0 26.0" fill="#000000" fill-rule="evenodd" stroke="none"/>
    <path d="M25.8 20.0 L25.0 20.0 25.0 19.0 25.8 19.0 25.8 20.0 M21.0 23.0 L22.0 23.0 22.0 22.0 23.0 22.0 23.0 24.0 22.0 24.0 22.0 26.0 21.0 26.0 21.0 28.0 16.0 28.0 16.0 27.0 20.0 27.0 20.0 25.0 21.0 25.0 21.0 23.0 M13.0 25.0 L15.0 25.0 15.0 26.0 16.0 26.0 16.0 27.0 15.0 27.0 15.0 28.0 12.0 28.0 12.0 27.0 13.0 27.0 13.0 25.0" fill="#ffffff" fill-rule="evenodd" stroke="none"/>
    <path d="M25.8 23.0 L25.0 23.0 25.0 22.0 23.0 22.0 23.0 21.0 22.0 21.0 22.0 20.0 24.0 20.0 24.0 21.0 25.8 21.0 25.8 23.0" fill="#656565" fill-rule="evenodd" stroke="none"/>
  </g>
</svg>
