<?xml version="1.0" encoding="UTF-8" standalone="no"?>
<svg xmlns:ffdec="https://www.free-decompiler.com/flash" xmlns:xlink="http://www.w3.org/1999/xlink" ffdec:objectType="shape" height="8.0px" width="13.0px" xmlns="http://www.w3.org/2000/svg">
  <g transform="matrix(1.0, 0.0, 0.0, 1.0, 5.95, 4.0)">
    <path d="M-1.95 -2.0 L-1.95 -1.0 2.25 -1.0 2.25 0.0 3.05 0.0 3.05 -1.0 4.05 -1.0 4.05 -2.0 4.85 -2.0 4.85 -2.05 6.05 -2.05 6.05 -2.0 6.05 0.0 5.05 0.0 5.05 1.0 6.05 1.0 6.05 3.0 4.05 3.0 4.05 2.0 3.05 2.0 3.05 1.0 2.25 1.0 2.25 0.0 -1.95 0.0 -1.95 1.0 -2.95 1.0 -2.95 2.0 -4.95 2.0 -4.95 0.0 -3.95 0.0 -3.95 -1.0 -4.95 -1.0 -4.95 -3.0 -2.95 -3.0 -2.95 -2.0 -1.95 -2.0" fill="#ffffff" fill-rule="evenodd" stroke="none"/>
    <path d="M-1.95 -2.0 L2.25 -2.0 2.25 -1.0 -1.95 -1.0 -1.95 -2.0 -2.95 -2.0 -2.95 -3.0 -4.95 -3.0 -4.95 -1.0 -3.95 -1.0 -3.95 0.0 -4.95 0.0 -4.95 2.0 -2.95 2.0 -2.95 1.0 -1.95 1.0 -1.95 0.0 2.25 0.0 2.25 -1.0 3.05 -1.0 3.05 -2.0 4.05 -2.0 4.05 -3.0 6.05 -3.0 6.05 -2.05 4.85 -2.05 4.85 -2.0 4.05 -2.0 4.05 -1.0 3.05 -1.0 3.05 0.0 2.25 0.0 2.25 1.0 3.05 1.0 3.05 2.0 4.05 2.0 4.05 3.0 6.05 3.0 6.05 1.0 5.05 1.0 5.05 0.0 6.05 0.0 6.05 -2.0 7.05 -2.0 7.05 0.0 6.05 0.0 6.05 1.0 7.05 1.0 7.05 3.0 6.05 3.0 6.05 4.0 4.05 4.0 4.05 3.0 3.05 3.0 3.05 2.0 2.25 2.0 2.25 1.0 -1.95 1.0 -1.95 2.0 -2.95 2.0 -2.95 3.0 -4.95 3.0 -4.95 2.0 -5.95 2.0 -5.95 0.0 -4.95 0.0 -4.95 -1.0 -5.95 -1.0 -5.95 -3.0 -4.95 -3.0 -4.95 -4.0 -2.95 -4.0 -2.95 -3.0 -1.95 -3.0 -1.95 -2.0" fill="#000000" fill-rule="evenodd" stroke="none"/>
  </g>
</svg>
