<?xml version="1.0" encoding="UTF-8" standalone="no"?>
<svg xmlns:ffdec="https://www.free-decompiler.com/flash" xmlns:xlink="http://www.w3.org/1999/xlink" ffdec:objectType="shape" height="12.0px" width="7.0px" xmlns="http://www.w3.org/2000/svg">
  <g transform="matrix(1.0, 0.0, 0.0, 1.0, -1.5, 4.95)">
    <path d="M2.5 -4.95 L4.5 -4.95 4.5 -3.95 5.5 -3.95 5.5 -2.95 6.5 -2.95 6.5 -1.95 7.5 -1.95 7.5 3.05 8.5 3.05 8.5 5.05 7.5 5.05 7.5 6.05 6.5 6.05 6.5 5.05 4.5 5.05 4.5 6.05 3.5 6.05 3.5 7.05 2.5 7.05 2.5 6.05 1.5 6.05 1.5 4.05 2.5 4.05 2.5 3.05 3.5 3.05 3.5 2.05 4.5 2.05 4.5 -0.95 3.5 -0.95 3.5 -1.95 2.5 -1.95 2.5 -2.95 1.5 -2.95 1.5 -3.95 2.5 -3.95 2.5 -4.95 M2.5 -3.95 L2.5 -2.95 3.5 -2.95 3.5 -1.95 4.5 -1.95 4.5 -0.95 5.5 -0.95 5.5 3.05 3.5 3.05 3.5 4.05 2.5 4.05 2.5 6.05 3.5 6.05 3.5 5.05 4.5 5.05 4.5 4.05 6.5 4.05 6.5 5.05 7.5 5.05 7.5 3.05 6.5 3.05 6.5 -1.95 5.5 -1.95 5.5 -2.95 4.5 -2.95 4.5 -3.95 2.5 -3.95" fill="#000000" fill-rule="evenodd" stroke="none"/>
    <path d="M1.5 -3.95 L1.5 -4.95 2.5 -4.95 2.5 -3.95 1.5 -3.95" fill="#656565" fill-rule="evenodd" stroke="none"/>
    <path d="M2.5 -3.95 L4.5 -3.95 4.5 -2.95 5.5 -2.95 5.5 -1.95 6.5 -1.95 6.5 3.05 7.5 3.05 7.5 5.05 6.5 5.05 6.5 4.05 4.5 4.05 4.5 5.05 3.5 5.05 3.5 6.05 2.5 6.05 2.5 4.05 3.5 4.05 3.5 3.05 5.5 3.05 5.5 -0.95 4.5 -0.95 4.5 -1.95 3.5 -1.95 3.5 -2.95 2.5 -2.95 2.5 -3.95" fill="#ffffff" fill-rule="evenodd" stroke="none"/>
  </g>
</svg>
