<?xml version="1.0" encoding="UTF-8" standalone="no"?>
<svg xmlns:ffdec="https://www.free-decompiler.com/flash" xmlns:xlink="http://www.w3.org/1999/xlink" ffdec:objectType="shape" height="23.0px" width="15.05px" xmlns="http://www.w3.org/2000/svg">
  <g transform="matrix(1.0, 0.0, 0.0, 1.0, 12.0, 6.5)">
    <path d="M0.0 -2.5 L0.0 -0.5 -1.0 -0.5 -1.0 1.5 -2.0 1.5 -2.0 -0.5 -3.0 -0.5 -3.0 -2.5 -4.0 -2.5 -4.0 -4.5 -5.0 -4.5 -5.0 -5.5 -7.0 -5.5 -7.0 -2.5 -6.0 -2.5 -6.0 -3.5 -5.0 -3.5 -5.0 -1.5 -4.0 -1.5 -4.0 0.5 -3.0 0.5 -3.0 2.5 -2.0 2.5 -2.0 3.5 -1.0 3.5 -1.0 2.5 0.0 2.5 0.0 0.5 1.0 0.5 1.0 -1.5 2.0 -1.5 2.0 -2.5 3.0 -2.5 3.0 -1.5 2.0 -1.5 2.0 0.5 1.0 0.5 1.0 2.5 0.0 2.5 0.0 4.5 -1.0 4.5 -1.0 6.5 0.0 6.5 0.0 8.5 1.0 8.5 1.0 13.5 0.0 13.5 0.0 14.5 -1.0 14.5 -1.0 15.5 -3.0 15.5 -3.0 16.5 -8.0 16.5 -8.0 15.5 -10.0 15.5 -10.0 14.5 -11.0 14.5 -11.0 13.5 -12.0 13.5 -12.0 8.5 -11.0 8.5 -11.0 6.5 -10.0 6.5 -10.0 4.5 -9.0 4.5 -9.0 2.5 -8.0 2.5 -8.0 0.5 -7.0 0.5 -7.0 -2.5 -8.0 -2.5 -8.0 -5.5 -7.0 -5.5 -7.0 -6.5 -4.0 -6.5 -4.0 -5.5 -3.0 -5.5 -3.0 -2.5 -2.0 -2.5 -2.0 -0.5 -1.0 -0.5 -1.0 -2.5 0.0 -2.5 M-6.0 11.5 L-9.2 11.5 -9.2 10.5 -10.0 10.5 -10.0 8.5 -11.0 8.5 -11.0 13.5 -10.0 13.5 -10.0 14.5 -8.0 14.5 -8.0 15.5 -3.0 15.5 -3.0 14.5 -1.0 14.5 -1.0 13.5 0.0 13.5 0.0 8.5 -1.0 8.5 -1.0 10.5 -2.0 10.5 -2.0 8.5 -5.0 8.5 -5.0 9.5 -6.0 9.5 -6.0 11.5 -5.0 11.5 -5.0 9.5 -4.0 9.5 -4.0 10.5 -2.0 10.5 -2.0 11.5 -5.0 11.5 -5.0 12.5 -6.0 12.5 -6.0 11.5 M-6.0 9.5 L-6.0 8.5 -9.0 8.5 -9.0 10.5 -7.0 10.5 -7.0 9.5 -6.0 9.5 M-7.0 0.5 L-7.0 2.5 -8.0 2.5 -8.0 4.5 -9.0 4.5 -9.0 6.5 -10.0 6.5 -10.0 7.5 -1.0 7.5 -1.0 6.5 -2.0 6.5 -2.0 4.5 -3.0 4.5 -3.0 2.5 -4.0 2.5 -4.0 0.5 -5.0 0.5 -5.0 -1.5 -6.0 -1.5 -6.0 0.5 -7.0 0.5" fill="#000000" fill-rule="evenodd" stroke="none"/>
    <path d="M0.0 -2.5 L2.0 -2.5 2.0 -1.5 1.0 -1.5 1.0 0.5 0.0 0.5 0.0 2.5 -1.0 2.5 -1.0 3.5 -2.0 3.5 -2.0 2.5 -3.0 2.5 -3.0 0.5 -4.0 0.5 -4.0 -1.5 -5.0 -1.5 -5.0 -3.5 -6.0 -3.5 -6.0 -2.5 -7.0 -2.5 -7.0 -5.5 -5.0 -5.5 -5.0 -4.5 -4.0 -4.5 -4.0 -2.5 -3.0 -2.5 -3.0 -0.5 -2.0 -0.5 -2.0 1.5 -1.0 1.5 -1.0 -0.5 0.0 -0.5 0.0 -2.5" fill="#ffffff" fill-rule="evenodd" stroke="none"/>
    <path d="M3.0 -2.5 L3.05 -2.5 3.05 -1.5 3.0 -1.5 3.0 -2.5 M0.0 8.5 L0.0 13.5 -1.0 13.5 -1.0 14.5 -3.0 14.5 -3.0 15.5 -8.0 15.5 -8.0 14.5 -10.0 14.5 -10.0 13.5 -11.0 13.5 -11.0 8.5 -10.0 8.5 -10.0 10.5 -9.2 10.5 -9.2 11.5 -6.0 11.5 -6.0 12.5 -5.0 12.5 -5.0 11.5 -2.0 11.5 -2.0 10.5 -4.0 10.5 -4.0 9.5 -5.0 9.5 -5.0 8.5 -2.0 8.5 -2.0 10.5 -1.0 10.5 -1.0 8.5 0.0 8.5 M-6.0 9.5 L-7.0 9.5 -7.0 10.5 -9.0 10.5 -9.0 8.5 -6.0 8.5 -6.0 9.5" fill="#808080" fill-rule="evenodd" stroke="none"/>
    <path d="M-6.0 11.5 L-6.0 9.5 -5.0 9.5 -5.0 11.5 -6.0 11.5" fill="#c0c0c0" fill-rule="evenodd" stroke="none"/>
  </g>
</svg>
