<?xml version="1.0" encoding="UTF-8" standalone="no"?>
<svg xmlns:ffdec="https://www.free-decompiler.com/flash" xmlns:xlink="http://www.w3.org/1999/xlink" ffdec:objectType="shape" height="13.0px" width="8.0px" xmlns="http://www.w3.org/2000/svg">
  <g transform="matrix(1.0, 0.0, 0.0, 1.0, 1.5, 5.0)">
    <path d="M2.5 -5.0 L2.5 -4.0 1.5 -4.0 1.5 -5.0 2.5 -5.0" fill="#656565" fill-rule="evenodd" stroke="none"/>
    <path d="M1.5 -4.0 L2.5 -4.0 2.5 -5.0 3.5 -5.0 3.5 -3.0 1.5 -3.0 1.5 -2.0 2.5 -2.0 2.5 2.0 3.5 2.0 3.5 5.0 1.5 5.0 1.5 6.0 -0.5 6.0 -0.5 7.0 2.5 7.0 2.5 6.0 4.5 6.0 4.5 7.0 5.5 7.0 5.5 5.0 4.5 5.0 4.5 1.0 3.5 1.0 3.5 -3.0 4.5 -3.0 4.5 1.0 5.5 1.0 5.5 4.0 6.5 4.0 6.5 7.0 5.5 7.0 5.5 8.0 3.5 8.0 3.5 7.0 2.5 7.0 2.5 8.0 -0.5 8.0 -0.5 7.0 -1.5 7.0 -1.5 6.0 -0.5 6.0 -0.5 5.0 1.5 5.0 1.5 4.0 2.5 4.0 2.5 2.0 1.5 2.0 1.5 -2.0 0.5 -2.0 0.5 -3.0 1.5 -3.0 1.5 -4.0" fill="#000000" fill-rule="evenodd" stroke="none"/>
    <path d="M1.5 -3.0 L3.5 -3.0 3.5 1.0 4.5 1.0 4.5 5.0 5.5 5.0 5.5 7.0 4.5 7.0 4.5 6.0 2.5 6.0 2.5 7.0 -0.5 7.0 -0.5 6.0 1.5 6.0 1.5 5.0 3.5 5.0 3.5 2.0 2.5 2.0 2.5 -2.0 1.5 -2.0 1.5 -3.0" fill="#ffffff" fill-rule="evenodd" stroke="none"/>
  </g>
</svg>
