<?xml version="1.0" encoding="UTF-8" standalone="no"?>
<svg xmlns:ffdec="https://www.free-decompiler.com/flash" xmlns:xlink="http://www.w3.org/1999/xlink" ffdec:objectType="shape" height="12.0px" width="10.0px" xmlns="http://www.w3.org/2000/svg">
  <g transform="matrix(1.0, 0.0, 0.0, 1.0, 7.5, 4.05)">
    <path d="M0.5 -0.05 L0.5 -2.05 1.5 -2.05 1.5 -3.05 -0.5 -3.05 -0.5 -1.05 -1.5 -1.05 -1.5 -4.05 2.5 -4.05 2.5 -1.05 1.5 -1.05 1.5 -0.05 0.5 -0.05 0.5 2.95 -0.5 2.95 -0.5 6.95 -1.5 6.95 -1.5 7.95 -3.5 7.95 -3.5 6.95 -4.5 6.95 -4.5 5.95 -6.5 5.95 -6.5 4.95 -7.5 4.95 -7.5 2.95 -3.5 2.95 -3.5 1.95 -2.5 1.95 -2.5 -1.05 -1.5 -1.05 -1.5 1.95 -2.5 1.95 -2.5 3.95 -6.5 3.95 -6.5 4.95 -3.5 4.95 -3.5 5.95 -2.5 5.95 -2.5 6.95 -1.5 6.95 -1.5 2.95 -0.5 2.95 -0.5 -0.05 0.5 -0.05" fill="#000000" fill-rule="evenodd" stroke="none"/>
    <path d="M-1.5 -1.05 L-0.5 -1.05 -0.5 -3.05 1.5 -3.05 1.5 -2.05 0.5 -2.05 0.5 -0.05 -0.5 -0.05 -0.5 2.95 -1.5 2.95 -1.5 6.95 -2.5 6.95 -2.5 5.95 -3.5 5.95 -3.5 4.95 -6.5 4.95 -6.5 3.95 -2.5 3.95 -2.5 1.95 -1.5 1.95 -1.5 -1.05" fill="#ffffff" fill-rule="evenodd" stroke="none"/>
  </g>
</svg>
