<?xml version="1.0" encoding="UTF-8" standalone="no"?>
<svg xmlns:ffdec="https://www.free-decompiler.com/flash" xmlns:xlink="http://www.w3.org/1999/xlink" ffdec:objectType="shape" height="12.0px" width="12.0px" xmlns="http://www.w3.org/2000/svg">
  <g transform="matrix(1.0, 0.0, 0.0, 1.0, 11.5, 6.0)">
    <path d="M-0.5 -4.0 L0.5 -4.0 0.5 -2.0 -0.5 -2.0 -0.5 0.0 -1.5 0.0 -1.5 1.0 -2.5 1.0 -2.5 2.0 -3.5 2.0 -3.5 3.0 -4.5 3.0 -4.5 5.0 -5.5 5.0 -5.5 6.0 -7.5 6.0 -7.5 5.0 -8.5 5.0 -8.5 4.0 -10.5 4.0 -10.5 3.0 -11.5 3.0 -11.5 1.0 -5.5 1.0 -5.5 0.0 -4.5 0.0 -4.5 -1.0 -3.5 -1.0 -3.5 -3.0 -2.5 -3.0 -2.5 -5.0 -1.5 -5.0 -1.5 -6.0 -0.5 -6.0 -0.5 -5.0 -1.5 -5.0 -1.5 -4.0 -0.5 -4.0 M-0.5 -2.0 L-0.5 -3.0 -2.5 -3.0 -2.5 -1.0 -3.5 -1.0 -3.5 0.0 -4.5 0.0 -4.5 1.0 -5.5 1.0 -5.5 2.0 -10.5 2.0 -10.5 3.0 -7.5 3.0 -7.5 4.0 -6.5 4.0 -6.5 5.0 -5.5 5.0 -5.5 3.0 -4.5 3.0 -4.5 2.0 -3.5 2.0 -3.5 1.0 -2.5 1.0 -2.5 0.0 -1.5 0.0 -1.5 -2.0 -0.5 -2.0" fill="#000000" fill-rule="evenodd" stroke="none"/>
    <path d="M-0.5 -2.0 L-1.5 -2.0 -1.5 0.0 -2.5 0.0 -2.5 1.0 -3.5 1.0 -3.5 2.0 -4.5 2.0 -4.5 3.0 -5.5 3.0 -5.5 5.0 -6.5 5.0 -6.5 4.0 -7.5 4.0 -7.5 3.0 -10.5 3.0 -10.5 2.0 -5.5 2.0 -5.5 1.0 -4.5 1.0 -4.5 0.0 -3.5 0.0 -3.5 -1.0 -2.5 -1.0 -2.5 -3.0 -0.5 -3.0 -0.5 -2.0" fill="#ffffff" fill-rule="evenodd" stroke="none"/>
    <path d="M-0.5 -5.0 L-0.5 -4.0 -1.5 -4.0 -1.5 -5.0 -0.5 -5.0" fill="#656565" fill-rule="evenodd" stroke="none"/>
  </g>
</svg>
