<?xml version="1.0" encoding="UTF-8" standalone="no"?>
<svg xmlns:ffdec="https://www.free-decompiler.com/flash" xmlns:xlink="http://www.w3.org/1999/xlink" ffdec:objectType="shape" height="23.0px" width="16.95px" xmlns="http://www.w3.org/2000/svg">
  <g transform="matrix(1.0, 0.0, 0.0, 1.0, 15.0, 13.5)">
    <path d="M0.0 -3.5 L-4.0 -3.5 -4.0 -5.5 -5.0 -5.5 -5.0 -7.5 -6.0 -7.5 -6.0 -9.5 -7.0 -9.5 -7.0 -11.5 -8.0 -11.5 -8.0 -12.5 -10.0 -12.5 -10.0 -9.5 -9.0 -9.5 -9.0 -10.5 -8.0 -10.5 -8.0 -8.5 -7.0 -8.5 -7.0 -6.5 -6.0 -6.5 -6.0 -4.5 -5.0 -4.5 -5.0 -2.5 0.0 -2.5 0.0 -3.5 1.0 -3.5 1.0 -2.5 1.95 -2.5 1.95 -1.5 -4.0 -1.5 -4.0 -0.5 -5.0 -0.5 -5.0 -2.5 -6.0 -2.5 -6.0 -4.5 -7.0 -4.5 -7.0 -6.5 -8.0 -6.5 -8.0 -8.5 -9.0 -8.5 -9.0 -6.5 -10.0 -6.5 -10.0 -9.5 -11.0 -9.5 -11.0 -12.5 -10.0 -12.5 -10.0 -13.5 -7.0 -13.5 -7.0 -12.5 -6.0 -12.5 -6.0 -9.5 -5.0 -9.5 -5.0 -7.5 -4.0 -7.5 -4.0 -5.5 -3.0 -5.5 -3.0 -4.5 0.0 -4.5 0.0 -3.5 M-4.0 -0.5 L-3.0 -0.5 -3.0 1.5 -2.0 1.5 -2.0 6.5 -3.0 6.5 -3.0 7.5 -4.0 7.5 -4.0 8.5 -6.0 8.5 -6.0 9.5 -11.0 9.5 -11.0 8.5 -13.0 8.5 -13.0 7.5 -14.0 7.5 -14.0 6.5 -15.0 6.5 -15.0 1.5 -14.0 1.5 -14.0 -0.5 -13.0 -0.5 -13.0 -2.5 -12.0 -2.5 -12.0 -4.5 -11.0 -4.5 -11.0 -6.5 -10.0 -6.5 -10.0 -4.5 -11.0 -4.5 -11.0 -2.5 -12.0 -2.5 -12.0 -0.5 -13.0 -0.5 -13.0 0.5 -4.0 0.5 -4.0 -0.5 M-8.0 2.5 L-7.0 2.5 -7.0 3.5 -5.0 3.5 -5.0 4.5 -8.0 4.5 -8.0 2.5 -9.0 2.5 -9.0 4.5 -8.0 4.5 -8.0 5.5 -9.0 5.5 -9.0 4.5 -12.0 4.5 -12.0 3.5 -13.0 3.5 -13.0 1.5 -14.0 1.5 -14.0 6.5 -13.0 6.5 -13.0 7.5 -11.0 7.5 -11.0 8.5 -6.0 8.5 -6.0 7.5 -4.0 7.5 -4.0 6.5 -3.0 6.5 -3.0 1.5 -4.0 1.5 -4.0 3.5 -5.0 3.5 -5.0 1.5 -8.0 1.5 -8.0 2.5 M-9.0 1.5 L-12.0 1.5 -12.0 3.5 -10.0 3.5 -10.0 2.5 -9.0 2.5 -9.0 1.5" fill="#000000" fill-rule="evenodd" stroke="none"/>
    <path d="M0.0 -3.5 L0.0 -2.5 -5.0 -2.5 -5.0 -4.5 -6.0 -4.5 -6.0 -6.5 -7.0 -6.5 -7.0 -8.5 -8.0 -8.5 -8.0 -10.5 -9.0 -10.5 -9.0 -9.5 -10.0 -9.5 -10.0 -12.5 -8.0 -12.5 -8.0 -11.5 -7.0 -11.5 -7.0 -9.5 -6.0 -9.5 -6.0 -7.5 -5.0 -7.5 -5.0 -5.5 -4.0 -5.5 -4.0 -3.5 0.0 -3.5" fill="#ffffff" fill-rule="evenodd" stroke="none"/>
    <path d="M-8.0 4.5 L-5.0 4.5 -5.0 3.5 -7.0 3.5 -7.0 2.5 -8.0 2.5 -8.0 1.5 -5.0 1.5 -5.0 3.5 -4.0 3.5 -4.0 1.5 -3.0 1.5 -3.0 6.5 -4.0 6.5 -4.0 7.5 -6.0 7.5 -6.0 8.5 -11.0 8.5 -11.0 7.5 -13.0 7.5 -13.0 6.5 -14.0 6.5 -14.0 1.5 -13.0 1.5 -13.0 3.5 -12.0 3.5 -12.0 4.5 -9.0 4.5 -9.0 5.5 -8.0 5.5 -8.0 4.5 M-9.0 1.5 L-9.0 2.5 -10.0 2.5 -10.0 3.5 -12.0 3.5 -12.0 1.5 -9.0 1.5" fill="#808080" fill-rule="evenodd" stroke="none"/>
    <path d="M-8.0 2.5 L-8.0 4.5 -9.0 4.5 -9.0 2.5 -8.0 2.5" fill="#c0c0c0" fill-rule="evenodd" stroke="none"/>
  </g>
</svg>
