<?xml version="1.0" encoding="UTF-8" standalone="no"?>
<svg xmlns:ffdec="https://www.free-decompiler.com/flash" xmlns:xlink="http://www.w3.org/1999/xlink" ffdec:objectType="shape" height="12.0px" width="25.0px" xmlns="http://www.w3.org/2000/svg">
  <g transform="matrix(1.0, 0.0, 0.0, 1.0, 13.0, 7.0)">
    <path d="M6.0 -5.0 L8.0 -5.0 8.0 -4.0 9.0 -4.0 9.0 -3.0 10.0 -3.0 10.0 -2.0 11.0 -2.0 11.0 -1.0 10.0 -1.0 10.0 0.0 9.0 0.0 9.0 1.0 8.0 1.0 8.0 2.0 7.0 2.0 7.0 3.0 6.0 3.0 6.0 1.0 7.0 1.0 7.0 0.0 8.0 0.0 8.0 -1.0 9.0 -1.0 9.0 -2.0 8.0 -2.0 8.0 -3.0 7.0 -3.0 7.0 -4.0 6.0 -4.0 6.0 -5.0 M6.0 3.0 L6.0 4.0 1.0 4.0 1.0 2.0 3.0 2.0 3.0 1.0 4.0 1.0 4.0 2.0 5.0 2.0 5.0 3.0 6.0 3.0 M-5.0 2.0 L-5.0 1.0 -4.0 1.0 -4.0 2.0 -2.0 2.0 -2.0 4.0 -7.0 4.0 -7.0 3.0 -6.0 3.0 -6.0 2.0 -5.0 2.0 M-11.0 -1.0 L-12.0 -1.0 -12.0 -2.0 -11.0 -2.0 -11.0 -3.0 -10.0 -3.0 -10.0 -4.0 -9.0 -4.0 -9.0 -5.0 -7.0 -5.0 -7.0 -4.0 -8.0 -4.0 -8.0 -3.0 -9.0 -3.0 -9.0 -2.0 -10.0 -2.0 -10.0 -1.0 -9.0 -1.0 -9.0 0.0 -8.0 0.0 -8.0 1.0 -7.0 1.0 -7.0 3.0 -8.0 3.0 -8.0 2.0 -9.0 2.0 -9.0 1.0 -10.0 1.0 -10.0 0.0 -11.0 0.0 -11.0 -1.0" fill="#ffffff" fill-rule="evenodd" stroke="none"/>
    <path d="M6.0 -5.0 L6.0 -7.0 8.0 -7.0 8.0 -6.0 9.0 -6.0 9.0 -5.0 10.0 -5.0 10.0 -4.0 11.0 -4.0 11.0 -3.0 12.0 -3.0 12.0 -1.0 11.0 -1.0 11.0 -2.0 10.0 -2.0 10.0 -3.0 9.0 -3.0 9.0 -4.0 8.0 -4.0 8.0 -5.0 6.0 -5.0 6.0 -4.0 7.0 -4.0 7.0 -3.0 8.0 -3.0 8.0 -2.0 9.0 -2.0 9.0 -1.0 8.0 -1.0 8.0 0.0 7.0 0.0 7.0 1.0 6.0 1.0 6.0 3.0 7.0 3.0 7.0 2.0 8.0 2.0 8.0 1.0 9.0 1.0 9.0 0.0 10.0 0.0 10.0 -1.0 11.0 -1.0 11.0 0.0 10.0 0.0 10.0 1.0 9.0 1.0 9.0 2.0 8.0 2.0 8.0 3.0 7.0 3.0 7.0 4.0 6.0 4.0 6.0 5.0 1.0 5.0 1.0 4.0 0.0 4.0 0.0 1.0 2.0 1.0 2.0 0.0 3.0 0.0 3.0 -1.0 4.0 -1.0 4.0 0.0 5.0 0.0 5.0 1.0 6.0 1.0 6.0 0.0 7.0 0.0 7.0 -1.0 8.0 -1.0 8.0 -2.0 7.0 -2.0 7.0 -3.0 6.0 -3.0 6.0 -4.0 4.0 -4.0 4.0 -5.0 6.0 -5.0 M6.0 3.0 L5.0 3.0 5.0 2.0 4.0 2.0 4.0 1.0 3.0 1.0 3.0 2.0 1.0 2.0 1.0 4.0 6.0 4.0 6.0 3.0 M-11.0 -5.0 L-10.0 -5.0 -10.0 -6.0 -9.0 -6.0 -9.0 -7.0 -7.0 -7.0 -7.0 -5.0 -5.0 -5.0 -5.0 -4.0 -7.0 -4.0 -7.0 -3.0 -8.0 -3.0 -8.0 -2.0 -9.0 -2.0 -9.0 -1.0 -8.0 -1.0 -8.0 0.0 -7.0 0.0 -7.0 1.0 -6.0 1.0 -6.0 0.0 -5.0 0.0 -5.0 -1.0 -4.0 -1.0 -4.0 0.0 -3.0 0.0 -3.0 1.0 -1.0 1.0 -1.0 4.0 -2.0 4.0 -2.0 5.0 -7.0 5.0 -7.0 4.0 -8.0 4.0 -8.0 3.0 -9.0 3.0 -9.0 2.0 -10.0 2.0 -10.0 1.0 -11.0 1.0 -11.0 0.0 -12.0 0.0 -12.0 -1.0 -13.0 -1.0 -13.0 -3.0 -12.0 -3.0 -12.0 -4.0 -11.0 -4.0 -11.0 -5.0 M-11.0 -1.0 L-11.0 0.0 -10.0 0.0 -10.0 1.0 -9.0 1.0 -9.0 2.0 -8.0 2.0 -8.0 3.0 -7.0 3.0 -7.0 1.0 -8.0 1.0 -8.0 0.0 -9.0 0.0 -9.0 -1.0 -10.0 -1.0 -10.0 -2.0 -9.0 -2.0 -9.0 -3.0 -8.0 -3.0 -8.0 -4.0 -7.0 -4.0 -7.0 -5.0 -9.0 -5.0 -9.0 -4.0 -10.0 -4.0 -10.0 -3.0 -11.0 -3.0 -11.0 -2.0 -12.0 -2.0 -12.0 -1.0 -11.0 -1.0 M-5.0 2.0 L-6.0 2.0 -6.0 3.0 -7.0 3.0 -7.0 4.0 -2.0 4.0 -2.0 2.0 -4.0 2.0 -4.0 1.0 -5.0 1.0 -5.0 2.0" fill="#000000" fill-rule="evenodd" stroke="none"/>
  </g>
</svg>
