<?xml version="1.0" encoding="UTF-8" standalone="no"?>
<svg xmlns:ffdec="https://www.free-decompiler.com/flash" xmlns:xlink="http://www.w3.org/1999/xlink" ffdec:objectType="shape" height="10.0px" width="17.0px" xmlns="http://www.w3.org/2000/svg">
  <g transform="matrix(1.0, 0.0, 0.0, 1.0, 9.0, 5.0)">
    <path d="M3.5 -5.0 L3.5 -4.0 2.5 -4.0 2.5 -5.0 3.5 -5.0 M-2.5 -5.0 L-2.5 -4.0 -3.5 -4.0 -3.5 -5.0 -2.5 -5.0" fill="#000000" fill-rule="evenodd" stroke="none"/>
    <path d="M6.0 -1.0 L6.0 0.0 7.0 0.0 7.0 1.0 5.0 1.0 5.0 2.0 6.0 2.0 6.0 3.0 7.0 3.0 7.0 4.0 6.0 4.0 6.0 5.0 2.0 5.0 2.0 4.0 1.0 4.0 1.0 3.0 2.0 3.0 2.0 4.0 6.0 4.0 6.0 3.0 4.0 3.0 4.0 2.0 3.0 2.0 3.0 1.0 1.0 1.0 1.0 0.0 3.0 0.0 3.0 -1.0 4.0 -1.0 4.0 0.0 5.0 0.0 5.0 -1.0 6.0 -1.0 M3.0 -3.0 L3.0 -4.0 8.0 -4.0 8.0 -3.0 3.0 -3.0 M-4.0 -1.0 L-4.0 0.0 -2.0 0.0 -2.0 1.0 -4.0 1.0 -4.0 2.0 -3.0 2.0 -3.0 3.0 -2.0 3.0 -2.0 4.0 -3.0 4.0 -3.0 5.0 -7.0 5.0 -7.0 4.0 -8.0 4.0 -8.0 3.0 -7.0 3.0 -7.0 4.0 -3.0 4.0 -3.0 3.0 -5.0 3.0 -5.0 2.0 -6.0 2.0 -6.0 1.0 -8.0 1.0 -8.0 0.0 -7.0 0.0 -7.0 -1.0 -6.0 -1.0 -6.0 0.0 -5.0 0.0 -5.0 -1.0 -4.0 -1.0 M-9.0 -4.0 L-4.0 -4.0 -4.0 -3.0 -9.0 -3.0 -9.0 -4.0" fill="#000000" fill-rule="evenodd" stroke="none"/>
  </g>
</svg>
