<?xml version="1.0" encoding="UTF-8" standalone="no"?>
<svg xmlns:ffdec="https://www.free-decompiler.com/flash" xmlns:xlink="http://www.w3.org/1999/xlink" ffdec:objectType="shape" height="6.0px" width="9.0px" xmlns="http://www.w3.org/2000/svg">
  <g transform="matrix(1.0, 0.0, 0.0, 1.0, 0.0, 0.0)">
    <path d="M1.0 5.0 L8.0 5.0 8.0 4.0 7.0 4.0 7.0 2.0 6.0 2.0 6.0 1.0 4.0 1.0 4.0 3.0 2.0 3.0 2.0 4.0 1.0 4.0 1.0 5.0 M1.0 2.0 L3.0 2.0 3.0 0.0 7.0 0.0 7.0 1.0 8.0 1.0 8.0 4.0 9.0 4.0 9.0 6.0 0.0 6.0 0.0 3.0 1.0 3.0 1.0 2.0" fill="#000000" fill-rule="evenodd" stroke="none"/>
    <path d="M1.0 5.0 L1.0 4.0 2.0 4.0 2.0 3.0 4.0 3.0 4.0 1.0 6.0 1.0 6.0 2.0 7.0 2.0 7.0 4.0 8.0 4.0 8.0 5.0 1.0 5.0" fill="#cccccc" fill-rule="evenodd" stroke="none"/>
  </g>
</svg>
