<?xml version="1.0" encoding="UTF-8" standalone="no"?>
<svg xmlns:ffdec="https://www.free-decompiler.com/flash" xmlns:xlink="http://www.w3.org/1999/xlink" ffdec:objectType="shape" height="46.9px" width="50.05px" xmlns="http://www.w3.org/2000/svg">
  <g transform="matrix(1.0, 0.0, 0.0, 1.0, 22.6, 19.85)">
    <path d="M26.4 -3.85 L25.4 -3.85 25.4 -7.85 24.4 -7.85 24.4 -8.85 23.4 -8.85 23.4 -9.85 18.4 -9.85 18.4 -11.85 15.4 -11.85 15.4 -10.85 13.4 -10.85 13.4 -9.9 11.4 -9.9 11.4 -8.95 10.4 -8.95 10.4 -6.95 9.4 -6.95 9.4 -5.95 8.4 -5.95 8.4 -6.95 9.4 -6.95 9.4 -8.95 10.4 -8.95 10.4 -9.95 11.4 -9.95 11.4 -12.85 10.4 -12.85 10.4 -15.85 9.4 -15.85 9.4 -16.85 8.4 -16.85 8.4 -17.85 7.4 -17.85 7.4 -18.85 0.4 -18.85 0.4 -17.85 -1.6 -17.85 -1.6 -16.85 -2.6 -16.85 -2.6 -15.85 -3.65 -15.85 -3.65 -13.55 -4.6 -13.55 -4.6 -15.85 -5.6 -15.85 -5.6 -17.85 -8.6 -17.85 -8.6 -16.15 -9.6 -16.15 -9.6 -13.15 -10.6 -13.15 -10.6 -14.85 -14.6 -14.85 -14.6 -13.85 -16.6 -13.85 -16.6 -12.85 -17.6 -12.85 -17.6 -10.85 -18.6 -10.85 -18.6 -6.85 -17.6 -6.85 -17.6 -4.15 -16.6 -4.15 -16.6 -2.15 -15.6 -2.15 -15.6 -1.15 -14.6 -1.15 -14.6 -0.15 -15.6 -0.15 -15.6 -1.15 -16.6 -1.15 -16.6 -2.15 -17.6 -2.15 -17.6 -2.85 -19.6 -2.85 -19.6 -1.85 -20.6 -1.85 -20.6 1.15 -21.6 1.15 -21.6 6.15 -20.6 6.15 -20.6 8.15 -19.6 8.15 -19.6 9.15 -18.65 9.15 -18.65 10.15 -19.6 10.15 -19.6 9.15 -20.6 9.15 -20.6 8.15 -21.6 8.15 -21.6 6.15 -22.6 6.15 -22.6 1.15 -21.6 1.15 -21.6 -1.85 -20.6 -1.85 -20.6 -2.85 -19.6 -2.85 -19.6 -3.85 -18.6 -3.85 -18.6 -5.85 -19.6 -5.85 -19.6 -11.85 -18.6 -11.85 -18.6 -13.85 -17.6 -13.85 -17.6 -14.85 -15.6 -14.85 -15.6 -15.85 -10.6 -15.85 -10.6 -17.15 -9.6 -17.15 -9.6 -18.85 -4.6 -18.85 -4.6 -16.8 -3.6 -16.8 -3.6 -17.85 -2.6 -17.85 -2.6 -18.9 -0.6 -18.9 -0.6 -19.85 8.4 -19.85 8.4 -18.85 9.4 -18.85 9.4 -17.85 10.4 -17.85 10.4 -15.85 11.4 -15.85 11.4 -13.85 12.4 -13.85 12.4 -10.85 13.4 -10.85 13.4 -11.85 15.4 -11.85 15.4 -12.85 18.4 -12.85 18.4 -11.85 19.4 -11.85 19.4 -10.85 23.4 -10.85 23.4 -9.85 25.4 -9.85 25.4 -7.85 26.4 -7.85 26.4 -3.85 M-18.6 10.15 L-17.6 10.15 -17.6 11.15 -15.6 11.15 -15.6 12.1 -14.6 12.1 -14.6 14.15 -15.6 14.15 -15.6 16.15 -16.6 16.15 -16.6 20.15 -14.6 20.15 -14.6 21.15 -13.6 21.15 -13.6 22.15 -12.6 22.15 -12.6 23.15 -8.6 23.15 -8.6 22.05 -7.6 22.05 -7.6 24.1 -8.95 24.1 -8.95 24.15 -13.6 24.15 -13.6 23.15 -14.6 23.15 -14.6 22.15 -15.6 22.15 -15.6 21.15 -17.6 21.15 -17.6 15.1 -16.6 15.1 -16.6 13.15 -15.6 13.15 -15.6 12.15 -17.6 12.15 -17.6 11.15 -18.6 11.15 -18.6 10.15 M-7.55 24.1 L-7.55 24.05 -6.55 24.05 -6.55 25.05 -5.55 25.05 -5.55 26.05 11.45 26.05 11.45 27.05 -5.55 27.05 -5.55 26.05 -6.55 26.05 -6.55 25.05 -7.55 25.05 -7.55 24.1 M11.5 26.0 L11.5 25.0 13.5 25.0 13.5 24.0 14.45 24.0 14.45 23.0 15.4 23.0 15.4 19.05 16.4 19.05 16.4 14.05 15.4 14.05 15.4 12.05 14.4 12.05 14.4 10.05 13.4 10.05 13.4 9.15 11.4 9.15 11.4 8.15 9.4 8.15 9.4 3.15 10.4 3.15 10.4 2.15 11.4 2.15 11.4 3.15 10.4 3.15 10.4 7.15 11.4 7.15 11.4 8.15 14.45 8.15 14.45 9.1 19.4 9.1 19.4 9.15 19.4 10.1 15.4 10.1 15.4 11.05 16.4 11.05 16.4 14.05 17.4 14.05 17.4 20.05 16.4 20.05 16.4 23.0 15.45 23.0 15.45 24.0 14.5 24.0 14.5 26.0 11.5 26.0 M19.45 9.15 L19.45 8.15 20.4 8.15 20.4 7.15 22.4 7.15 22.4 6.15 23.4 6.15 23.4 4.15 24.4 4.15 24.4 3.15 25.4 3.15 25.4 1.1 26.4 1.1 26.4 4.1 25.4 4.1 25.4 5.15 24.4 5.15 24.4 7.15 23.4 7.15 23.4 8.15 21.4 8.15 21.4 9.15 19.45 9.15 M27.45 -3.85 L27.45 1.15 26.45 1.15 26.45 -3.85 27.45 -3.85" fill="#000000" fill-rule="evenodd" stroke="none"/>
    <path d="M-18.65 10.15 L-18.65 9.15 -19.6 9.15 -19.6 8.15 -20.6 8.15 -20.6 6.15 -21.6 6.15 -21.6 1.15 -20.6 1.15 -20.6 -1.85 -19.6 -1.85 -19.6 -2.85 -17.6 -2.85 -17.6 -2.15 -16.6 -2.15 -16.6 -1.15 -15.6 -1.15 -15.6 -0.15 -14.6 -0.15 -14.6 -1.15 -15.6 -1.15 -15.6 -2.15 -16.6 -2.15 -16.6 -4.15 -17.6 -4.15 -17.6 -6.85 -18.6 -6.85 -18.6 -10.85 -17.6 -10.85 -17.6 -12.85 -16.6 -12.85 -16.6 -13.85 -14.6 -13.85 -14.6 -14.85 -10.6 -14.85 -10.6 -13.15 -9.6 -13.15 -9.6 -16.15 -8.6 -16.15 -8.6 -17.85 -5.6 -17.85 -5.6 -15.85 -4.6 -15.85 -4.6 -13.55 -3.65 -13.55 -3.65 -15.85 -2.6 -15.85 -2.6 -16.85 -1.6 -16.85 -1.6 -17.85 0.4 -17.85 0.4 -18.85 7.4 -18.85 7.4 -17.85 8.4 -17.85 8.4 -16.85 9.4 -16.85 9.4 -15.85 10.4 -15.85 10.4 -12.85 11.4 -12.85 11.4 -9.95 10.4 -9.95 10.4 -8.95 9.4 -8.95 9.4 -6.95 8.4 -6.95 8.4 -5.95 9.4 -5.95 9.4 -6.95 10.4 -6.95 10.4 -8.95 11.4 -8.95 11.4 -9.9 13.4 -9.9 13.4 -10.85 15.4 -10.85 15.4 -11.85 18.4 -11.85 18.4 -9.85 23.4 -9.85 23.4 -8.85 24.4 -8.85 24.4 -7.85 25.4 -7.85 25.4 -3.85 26.4 -3.85 26.4 1.1 25.4 1.1 25.4 3.15 24.4 3.15 24.4 4.15 23.4 4.15 23.4 6.15 22.4 6.15 22.4 7.15 20.4 7.15 20.4 8.15 19.45 8.15 19.45 9.15 19.4 9.15 19.4 9.1 14.45 9.1 14.45 8.15 11.4 8.15 11.4 7.15 10.4 7.15 10.4 3.15 11.4 3.15 11.4 2.15 10.4 2.15 10.4 3.15 9.4 3.15 9.4 8.15 11.4 8.15 11.4 9.15 13.4 9.15 13.4 10.05 14.4 10.05 14.4 12.05 15.4 12.05 15.4 14.05 16.4 14.05 16.4 19.05 15.4 19.05 15.4 23.0 14.45 23.0 14.45 24.0 13.5 24.0 13.5 25.0 11.5 25.0 11.5 26.0 11.45 26.05 -5.55 26.05 -5.55 25.05 -6.55 25.05 -6.55 24.05 -7.55 24.05 -7.55 24.1 -7.6 24.1 -7.6 22.05 -8.6 22.05 -8.6 23.15 -12.6 23.15 -12.6 22.15 -13.6 22.15 -13.6 21.15 -14.6 21.15 -14.6 20.15 -16.6 20.15 -16.6 16.15 -15.6 16.15 -15.6 14.15 -14.6 14.15 -14.6 12.1 -15.6 12.1 -15.6 11.15 -17.6 11.15 -17.6 10.15 -18.6 10.15 -18.65 10.15" fill="#ffffff" fill-rule="evenodd" stroke="none"/>
  </g>
</svg>
