<?xml version="1.0" encoding="UTF-8" standalone="no"?>
<svg xmlns:ffdec="https://www.free-decompiler.com/flash" xmlns:xlink="http://www.w3.org/1999/xlink" ffdec:objectType="shape" height="66.95px" width="63.9px" xmlns="http://www.w3.org/2000/svg">
  <g transform="matrix(1.0, 0.0, 0.0, 1.0, 30.65, 38.9)">
    <path d="M-21.65 -21.9 L-21.65 -22.9 -20.65 -22.9 -20.65 -24.9 -19.65 -24.9 -19.65 -25.9 -18.65 -25.9 -18.65 -26.9 -17.8 -26.9 -17.8 -26.95 -12.8 -26.95 -12.8 -25.95 -11.65 -25.95 -11.65 -26.2 -11.65 -26.45 -11.65 -31.0 -10.65 -31.0 -10.65 -34.0 -9.65 -34.0 -9.65 -36.0 -8.75 -36.0 -8.75 -36.9 -8.7 -36.9 -8.7 -37.9 -5.75 -37.9 -5.75 -38.9 1.25 -38.9 1.25 -37.9 2.25 -37.9 2.25 -36.9 3.25 -36.9 3.25 -34.8 3.3 -34.8 3.3 -34.9 4.3 -34.9 4.3 -33.9 5.3 -33.9 5.3 -33.95 6.3 -33.95 6.3 -35.0 7.3 -35.0 7.45 -35.0 7.8 -35.0 8.3 -35.0 8.3 -36.0 15.3 -36.0 15.3 -34.0 17.3 -34.0 17.3 -33.0 18.3 -33.0 18.3 -31.0 19.4 -31.0 19.4 -30.95 19.35 -30.95 19.35 -29.95 20.35 -29.95 20.35 -28.0 21.35 -28.0 21.35 -18.0 24.25 -18.0 24.25 -17.0 26.25 -17.0 26.25 -15.0 27.25 -15.0 27.25 -9.0 28.25 -9.0 28.25 -8.0 30.25 -8.0 30.25 -7.0 31.25 -7.0 31.25 -6.0 32.25 -6.0 32.25 -4.0 33.25 -4.0 33.25 7.0 32.25 7.0 32.25 9.0 31.25 9.0 31.25 11.0 30.25 11.0 30.25 13.0 28.25 13.0 28.25 14.0 27.25 14.0 27.25 15.0 24.25 15.0 24.25 16.0 17.25 16.0 17.25 17.0 18.25 17.0 18.25 18.55 18.25 20.3 18.25 23.0 17.25 23.0 17.25 25.0 16.25 25.0 16.25 26.0 15.25 26.0 15.25 27.0 12.25 27.0 12.25 28.0 12.2 28.0 12.2 28.05 11.2 28.05 11.2 28.0 3.35 28.0 3.35 27.0 1.35 27.0 1.35 28.05 0.35 28.05 0.35 28.0 -7.5 28.0 -7.5 27.05 -9.7 27.05 -9.7 26.05 -11.7 26.05 -11.7 24.0 -14.5 24.0 -14.5 21.4 -15.7 21.4 -15.7 15.0 -17.65 15.0 -17.65 16.0 -19.65 16.0 -19.65 17.0 -26.7 17.0 -26.7 16.1 -28.65 16.1 -28.65 14.05 -29.65 14.05 -29.65 12.05 -30.65 12.05 -30.65 6.05 -29.65 6.05 -29.65 4.05 -28.65 4.05 -28.65 3.05 -28.5 3.05 -28.5 3.1 -27.65 3.1 -27.65 2.0 -26.0 2.0 -26.0 1.0 -24.7 1.0 -24.7 -0.95 -26.7 -0.95 -26.7 -1.9 -27.7 -1.9 -27.7 -2.9 -28.7 -2.9 -28.7 -3.9 -29.65 -3.9 -29.65 -9.9 -28.65 -9.9 -28.65 -10.9 -27.85 -10.9 -27.65 -10.9 -27.65 -8.9 -28.65 -8.9 -28.65 -4.9 -27.65 -4.9 -27.65 -3.9 -26.7 -3.9 -26.7 -2.9 -25.7 -2.9 -25.7 -1.9 -23.7 -1.9 -23.7 -0.9 -22.7 -0.9 -22.7 0.0 -19.0 0.0 -19.0 1.0 -18.0 1.0 -18.0 2.0 -17.0 2.0 -17.0 4.0 -18.0 4.0 -18.0 3.0 -19.0 3.0 -19.0 2.0 -20.0 2.0 -20.0 1.0 -23.7 1.0 -23.7 2.0 -24.75 2.0 -24.75 3.0 -27.0 3.0 -27.0 4.0 -27.25 4.0 -27.65 4.0 -27.65 5.05 -28.65 5.05 -28.65 7.05 -29.65 7.05 -29.65 11.05 -28.65 11.05 -28.65 13.05 -27.65 13.05 -27.65 13.6 -27.65 15.1 -25.6 15.1 -25.6 16.0 -20.65 16.0 -20.65 15.0 -18.65 15.0 -18.65 14.0 -14.15 14.0 -14.15 12.0 -12.15 12.0 -12.15 10.0 -11.15 10.0 -11.15 9.0 -10.15 9.0 -10.15 8.0 -8.15 8.0 -8.15 9.0 -9.15 9.0 -9.15 10.0 -10.15 10.0 -10.15 11.0 -11.15 11.0 -11.15 13.0 -13.15 13.0 -13.15 15.1 -14.5 15.1 -14.5 20.4 -13.5 20.4 -13.5 23.0 -10.7 23.0 -10.7 25.05 -8.7 25.05 -8.7 26.05 -6.0 26.05 -6.0 27.0 0.45 27.0 0.45 26.0 6.35 26.0 6.35 27.0 12.25 27.0 12.25 26.0 14.25 26.0 14.25 25.0 15.25 25.0 15.25 24.0 16.25 24.0 16.25 22.0 17.25 22.0 17.25 17.0 16.25 17.0 16.25 16.0 15.25 16.0 15.25 15.0 14.25 15.0 14.25 14.0 12.25 14.0 12.25 13.0 15.25 13.0 15.25 14.0 16.25 14.0 16.25 15.0 23.25 15.0 23.25 14.0 26.25 14.0 26.25 13.0 27.25 13.0 27.25 12.0 29.25 12.0 29.25 10.0 30.25 10.0 30.25 8.0 31.25 8.0 31.25 6.0 32.25 6.0 32.25 -3.0 31.25 -3.0 31.25 -5.0 30.25 -5.0 30.25 -6.0 29.25 -6.0 29.25 -7.0 27.25 -7.0 27.25 -8.0 26.25 -8.0 26.25 -9.0 25.25 -9.0 25.25 -10.0 26.25 -10.0 26.25 -14.0 25.25 -14.0 25.25 -16.0 23.25 -16.0 23.25 -17.0 21.25 -17.0 21.25 -16.0 20.25 -16.0 20.25 -14.0 19.35 -14.0 19.35 -18.0 20.35 -18.0 20.35 -27.0 19.35 -27.0 19.35 -29.0 18.35 -29.0 18.35 -30.0 17.35 -30.0 17.35 -30.05 17.3 -30.05 17.3 -32.0 16.3 -32.0 16.3 -33.0 14.3 -33.0 14.3 -35.0 9.3 -35.0 9.3 -34.0 7.3 -34.0 7.3 -32.95 5.3 -32.95 5.3 -31.9 6.3 -31.9 6.3 -27.9 5.3 -27.9 5.3 -26.9 4.3 -26.9 4.3 -25.9 2.3 -25.9 2.3 -26.9 3.3 -26.9 3.3 -27.9 4.3 -27.9 4.3 -28.9 5.3 -28.9 5.3 -30.9 4.3 -30.9 4.3 -33.0 3.2 -33.0 3.2 -34.8 2.25 -34.8 2.25 -35.9 1.25 -35.9 1.25 -36.9 0.25 -36.9 0.25 -37.9 -4.75 -37.9 -4.75 -36.9 -7.75 -36.9 -7.75 -35.05 -8.65 -35.05 -8.65 -35.0 -8.65 -33.0 -9.65 -33.0 -9.65 -30.0 -10.65 -30.0 -10.65 -24.0 -11.65 -24.0 -11.65 -24.9 -12.05 -24.9 -13.75 -24.9 -13.75 -25.9 -13.7 -25.9 -13.7 -25.95 -17.65 -25.95 -17.65 -25.9 -17.75 -25.9 -17.75 -24.9 -18.65 -24.9 -18.65 -23.9 -19.65 -23.9 -19.65 -22.9 -20.65 -22.9 -20.65 -21.9 -21.65 -21.9 M-27.85 -11.0 L-27.85 -12.1 -26.85 -12.1 -26.85 -13.1 -25.85 -13.1 -25.85 -14.1 -24.85 -14.1 -24.85 -15.1 -23.85 -15.1 -23.85 -21.0 -22.85 -21.0 -22.85 -20.95 -22.75 -20.95 -22.75 -20.9 -22.85 -20.9 -22.85 -15.1 -21.85 -15.1 -21.85 -14.1 -24.85 -14.1 -24.85 -13.1 -25.85 -13.1 -25.85 -12.1 -26.85 -12.1 -26.85 -11.0 -27.85 -11.0 M2.3 -25.9 L2.3 -24.9 1.3 -24.9 1.3 -25.9 2.3 -25.9 M18.25 -14.0 L19.25 -14.0 19.25 -12.0 18.25 -12.0 18.25 -14.0 M0.0 -13.0 L1.0 -13.0 1.0 -12.0 2.0 -12.0 2.0 -10.0 3.0 -10.0 3.0 -8.0 4.0 -8.0 4.0 -2.0 3.0 -2.0 3.0 -1.0 2.0 -1.0 2.0 0.0 0.0 0.0 0.0 -1.0 2.0 -1.0 2.0 -3.0 3.0 -3.0 3.0 -8.0 2.0 -8.0 2.0 -10.0 1.0 -10.0 1.0 -11.0 0.0 -11.0 0.0 -12.0 -1.0 -12.0 -1.0 -13.0 -3.0 -13.0 -3.0 -14.0 -4.0 -14.0 -4.0 -15.0 -3.0 -15.0 -3.0 -14.0 0.0 -14.0 0.0 -13.0 M-21.7 -21.95 L-21.7 -20.95 -22.7 -20.95 -22.7 -21.95 -21.7 -21.95 M-10.65 -24.0 L-9.65 -24.0 -9.65 -21.1 -8.65 -21.1 -8.65 -18.1 -9.65 -18.1 -9.65 -20.1 -10.65 -20.1 -10.65 -24.0 M-5.15 7.9 L-3.15 7.9 -3.15 8.9 -0.15 8.9 -0.15 9.9 0.85 9.9 0.85 10.9 1.85 10.9 1.85 16.9 0.85 16.9 0.85 17.9 -1.15 17.9 -1.15 18.9 -2.15 18.9 -2.15 17.9 -1.15 17.9 -1.15 16.9 -0.15 16.9 -0.15 15.9 0.85 15.9 0.85 11.9 -0.15 11.9 -0.15 10.9 -1.15 10.9 -1.15 9.9 -3.15 9.9 -3.15 8.9 -5.15 8.9 -5.15 7.9 M-17.0 4.0 L-16.0 4.0 -16.0 6.0 -17.0 6.0 -17.0 4.0 M12.15 13.0 L10.25 13.0 10.25 12.0 12.25 12.0 12.25 13.0 12.15 13.0 M6.35 26.0 L6.35 25.0 7.35 25.0 7.35 24.0 8.35 24.0 8.35 23.0 9.35 23.0 9.35 22.0 10.35 22.0 10.35 24.0 9.35 24.0 9.35 25.0 8.35 25.0 8.35 26.0 6.35 26.0" fill="#000000" fill-rule="evenodd" stroke="none"/>
    <path d="M-27.85 -10.9 L-27.85 -11.0 -26.85 -11.0 -26.85 -12.1 -25.85 -12.1 -25.85 -13.1 -24.85 -13.1 -24.85 -14.1 -21.85 -14.1 -21.85 -15.1 -22.85 -15.1 -22.85 -20.9 -22.75 -20.9 -21.65 -20.9 -21.65 -21.9 -20.65 -21.9 -20.65 -22.9 -19.65 -22.9 -19.65 -23.9 -18.65 -23.9 -18.65 -24.9 -17.75 -24.9 -17.75 -25.9 -17.65 -25.9 -13.75 -25.9 -13.75 -24.9 -12.05 -24.9 -12.05 -24.0 -11.65 -24.0 -10.65 -24.0 -10.65 -30.0 -9.65 -30.0 -9.65 -33.0 -8.65 -33.0 -8.65 -35.0 -7.75 -35.0 -7.75 -35.05 -7.75 -36.9 -4.75 -36.9 -4.75 -37.9 0.25 -37.9 0.25 -36.9 1.25 -36.9 1.25 -35.9 2.25 -35.9 2.25 -34.8 3.2 -34.8 3.2 -33.0 4.3 -33.0 4.3 -30.9 5.3 -30.9 5.3 -28.9 4.3 -28.9 4.3 -27.9 3.3 -27.9 3.3 -26.9 2.3 -26.9 2.3 -25.9 4.3 -25.9 4.3 -26.9 5.3 -26.9 5.3 -27.9 6.3 -27.9 6.3 -31.9 5.3 -31.9 5.3 -32.95 7.3 -32.95 7.3 -34.0 9.3 -34.0 9.3 -35.0 14.3 -35.0 14.3 -33.0 16.3 -33.0 16.3 -32.0 17.3 -32.0 17.3 -30.05 17.35 -30.05 17.35 -30.0 18.35 -30.0 18.35 -29.0 19.35 -29.0 19.35 -27.0 20.35 -27.0 20.35 -18.0 19.35 -18.0 19.35 -14.0 20.25 -14.0 20.25 -16.0 21.25 -16.0 21.25 -17.0 23.25 -17.0 23.25 -16.0 25.25 -16.0 25.25 -14.0 26.25 -14.0 26.25 -10.0 25.25 -10.0 25.25 -9.0 26.25 -9.0 26.25 -8.0 27.25 -8.0 27.25 -7.0 29.25 -7.0 29.25 -6.0 30.25 -6.0 30.25 -5.0 31.25 -5.0 31.25 -3.0 32.25 -3.0 32.25 6.0 31.25 6.0 31.25 8.0 30.25 8.0 30.25 10.0 29.25 10.0 29.25 12.0 27.25 12.0 27.25 13.0 26.25 13.0 26.25 14.0 23.25 14.0 23.25 15.0 16.25 15.0 16.25 14.0 15.25 14.0 15.25 13.0 12.25 13.0 12.25 12.0 10.25 12.0 10.25 13.0 12.15 13.0 12.15 14.0 12.25 14.0 14.25 14.0 14.25 15.0 15.25 15.0 15.25 16.0 16.25 16.0 16.25 17.0 17.25 17.0 17.25 22.0 16.25 22.0 16.25 24.0 15.25 24.0 15.25 25.0 14.25 25.0 14.25 26.0 12.25 26.0 12.25 27.0 6.35 27.0 6.35 26.0 0.45 26.0 0.45 27.0 -6.0 27.0 -6.0 26.05 -8.7 26.05 -8.7 25.05 -10.7 25.05 -10.7 23.0 -13.5 23.0 -13.5 20.4 -14.5 20.4 -14.5 15.1 -13.15 15.1 -13.15 13.0 -11.15 13.0 -11.15 11.0 -10.15 11.0 -10.15 10.0 -9.15 10.0 -9.15 9.0 -8.15 9.0 -8.15 8.0 -10.15 8.0 -10.15 9.0 -11.15 9.0 -11.15 10.0 -12.15 10.0 -12.15 12.0 -14.15 12.0 -14.15 14.0 -18.65 14.0 -18.65 15.0 -20.65 15.0 -20.65 16.0 -25.6 16.0 -25.6 15.1 -27.65 15.1 -27.65 13.6 -27.65 13.05 -28.65 13.05 -28.65 11.05 -29.65 11.05 -29.65 7.05 -28.65 7.05 -28.65 5.05 -27.65 5.05 -27.25 5.05 -27.25 4.0 -27.0 4.0 -27.0 3.0 -24.75 3.0 -24.75 2.0 -23.7 2.0 -23.7 1.0 -20.0 1.0 -20.0 2.0 -19.0 2.0 -19.0 3.0 -18.0 3.0 -18.0 4.0 -17.0 4.0 -17.0 2.0 -18.0 2.0 -18.0 1.0 -19.0 1.0 -19.0 0.0 -22.7 0.0 -22.7 -0.9 -23.7 -0.9 -23.7 -1.9 -25.7 -1.9 -25.7 -2.9 -26.7 -2.9 -26.7 -3.9 -27.65 -3.9 -27.65 -4.9 -28.65 -4.9 -28.65 -8.9 -27.65 -8.9 -27.65 -10.9 -27.85 -10.9 M2.3 -25.9 L1.3 -25.9 1.3 -24.9 2.3 -24.9 2.3 -25.9 M18.25 -14.0 L18.25 -12.0 19.25 -12.0 19.25 -14.0 18.25 -14.0 M0.0 -13.0 L0.0 -14.0 -3.0 -14.0 -3.0 -15.0 -4.0 -15.0 -4.0 -14.0 -3.0 -14.0 -3.0 -13.0 -1.0 -13.0 -1.0 -12.0 0.0 -12.0 0.0 -11.0 1.0 -11.0 1.0 -10.0 2.0 -10.0 2.0 -8.0 3.0 -8.0 3.0 -3.0 2.0 -3.0 2.0 -1.0 0.0 -1.0 0.0 0.0 2.0 0.0 2.0 -1.0 3.0 -1.0 3.0 -2.0 4.0 -2.0 4.0 -8.0 3.0 -8.0 3.0 -10.0 2.0 -10.0 2.0 -12.0 1.0 -12.0 1.0 -13.0 0.0 -13.0 M-10.65 -24.0 L-10.65 -20.1 -9.65 -20.1 -9.65 -18.1 -8.65 -18.1 -8.65 -21.1 -9.65 -21.1 -9.65 -24.0 -10.65 -24.0 M-17.0 4.0 L-17.0 6.0 -16.0 6.0 -16.0 4.0 -17.0 4.0 M-5.15 7.9 L-5.15 8.9 -3.15 8.9 -3.15 9.9 -1.15 9.9 -1.15 10.9 -0.15 10.9 -0.15 11.9 0.85 11.9 0.85 15.9 -0.15 15.9 -0.15 16.9 -1.15 16.9 -1.15 17.9 -2.15 17.9 -2.15 18.9 -1.15 18.9 -1.15 17.9 0.85 17.9 0.85 16.9 1.85 16.9 1.85 10.9 0.85 10.9 0.85 9.9 -0.15 9.9 -0.15 8.9 -3.15 8.9 -3.15 7.9 -5.15 7.9 M6.35 26.0 L8.35 26.0 8.35 25.0 9.35 25.0 9.35 24.0 10.35 24.0 10.35 22.0 9.35 22.0 9.35 23.0 8.35 23.0 8.35 24.0 7.35 24.0 7.35 25.0 6.35 25.0 6.35 26.0" fill="#ffffff" fill-rule="evenodd" stroke="none"/>
  </g>
</svg>
