<?xml version="1.0" encoding="UTF-8" standalone="no"?>
<svg xmlns:ffdec="https://www.free-decompiler.com/flash" xmlns:xlink="http://www.w3.org/1999/xlink" ffdec:objectType="shape" height="43.2px" width="58.95px" xmlns="http://www.w3.org/2000/svg">
  <g transform="matrix(1.0, 0.0, 0.0, 1.0, 29.7, 20.0)">
    <path d="M2.4 -19.0 L2.4 -18.0 3.4 -18.0 3.4 -17.0 4.4 -17.0 4.4 -13.0 3.4 -13.0 3.4 -12.0 1.4 -12.0 1.4 -13.0 -2.6 -13.0 -2.6 -14.0 -3.6 -14.0 -3.6 -15.0 -4.6 -15.0 -4.6 -18.0 -3.6 -18.0 -3.6 -20.0 0.4 -20.0 0.4 -19.0 2.4 -19.0 M10.5 -11.0 L10.45 -9.95 9.45 -10.0 9.45 -8.95 8.45 -8.95 8.45 -8.0 7.45 -8.0 7.45 -6.05 7.4 -6.05 6.45 -6.05 6.45 -8.05 7.45 -8.05 7.45 -10.0 8.45 -10.0 8.5 -11.0 10.5 -11.0 10.5 -12.0 14.5 -11.95 14.5 -10.9 16.45 -10.9 16.45 -8.85 21.45 -8.8 21.45 -6.8 22.45 -6.75 22.45 -6.05 23.4 -6.0 23.4 -2.7 24.4 -2.7 24.35 -0.65 23.35 -0.65 23.3 4.4 22.3 4.4 22.3 5.45 21.3 5.4 21.3 6.45 19.3 6.4 19.25 7.4 17.25 7.4 17.25 6.35 13.3 6.3 13.3 5.3 12.3 5.3 12.35 3.25 11.35 3.25 11.35 -0.8 12.35 -0.8 12.35 -1.85 9.4 -1.85 9.4 -2.9 7.4 -2.9 7.4 -6.0 8.4 -6.0 8.4 -3.9 9.4 -3.9 9.4 -2.9 13.4 -2.8 13.35 0.2 12.35 0.2 12.35 3.25 13.3 3.3 13.3 4.3 14.3 4.3 14.3 5.3 17.5 5.35 17.5 5.85 18.3 5.85 18.3 5.35 20.3 5.4 20.3 4.4 21.3 4.4 21.3 3.4 22.3 3.4 22.35 -0.65 23.35 -0.65 23.35 -1.65 22.35 -1.7 22.4 -4.75 21.4 -4.75 21.4 -5.75 20.4 -5.75 20.45 -7.8 17.45 -7.85 17.4 -4.8 16.4 -4.8 16.4 -2.8 15.4 -2.8 15.45 -5.85 16.4 -5.85 16.45 -7.85 15.45 -7.85 15.45 -9.9 14.45 -9.9 14.5 -10.9 10.5 -11.0 M0.4 -19.0 L-2.6 -19.0 -2.6 -17.0 -3.6 -17.0 -3.6 -16.0 -2.6 -16.0 -2.6 -15.0 -1.6 -15.0 -1.6 -14.0 3.4 -14.0 3.4 -16.0 2.4 -16.0 2.4 -17.0 1.4 -17.0 1.4 -18.0 0.4 -18.0 0.4 -19.0 M18.3 18.0 L17.35 18.0 17.35 17.95 17.3 17.95 17.3 17.05 18.3 17.05 18.3 16.05 19.3 16.05 19.3 17.05 20.3 17.05 20.3 18.1 19.3 18.05 19.3 19.1 18.35 19.1 18.35 18.05 19.3 18.05 19.3 17.05 18.3 17.05 18.3 18.0 M2.45 13.95 L2.45 12.95 3.45 12.95 3.45 11.95 4.45 11.95 4.45 10.95 9.45 10.95 9.45 7.95 10.45 7.95 10.45 6.95 14.45 6.95 14.45 7.95 11.45 7.95 11.45 8.95 10.45 8.95 10.45 12.95 8.45 12.95 8.45 11.95 5.45 11.95 5.45 12.95 4.45 12.95 4.45 13.95 2.45 13.95 2.45 14.95 6.45 14.95 6.45 15.95 10.45 15.95 10.45 14.95 12.45 14.95 12.45 13.95 13.4 13.95 13.45 13.95 13.45 13.05 13.45 11.95 14.45 11.95 14.45 7.95 15.45 7.95 15.45 11.95 14.45 11.95 14.45 14.95 13.45 14.95 13.45 15.95 11.45 15.95 11.45 16.95 5.45 16.95 5.45 15.95 2.45 15.95 2.45 14.95 1.45 14.95 1.45 13.95 2.45 13.95 M1.4 4.0 L-0.6 4.0 -0.6 5.0 -1.6 5.0 -1.6 6.0 -2.6 6.0 -2.6 8.0 -1.6 8.0 -1.6 9.0 0.4 9.0 0.4 8.0 1.4 8.0 1.4 7.0 0.4 7.0 0.4 6.0 2.4 6.0 2.4 5.0 1.4 5.0 1.4 4.0 M3.4 4.0 L3.4 7.0 2.4 7.0 2.4 9.0 1.4 9.0 1.4 10.0 -2.6 10.0 -2.6 8.0 -3.6 8.0 -3.6 6.0 -2.6 6.0 -2.6 4.0 -1.6 4.0 -1.6 3.0 2.4 3.0 2.4 4.0 3.4 4.0 M0.4 16.2 L-1.6 16.2 -1.6 18.2 -0.6 18.2 -0.6 19.2 -1.6 19.2 -1.6 20.2 -2.6 20.2 -2.6 21.2 -1.6 21.2 -1.6 22.2 -0.6 22.2 -0.6 21.2 1.4 21.2 1.4 18.2 0.4 18.2 0.4 16.2 1.4 16.2 1.4 17.2 2.4 17.2 2.4 21.2 1.4 21.2 1.4 22.2 -0.6 22.2 -0.6 23.2 -1.6 23.2 -1.6 22.2 -2.6 22.2 -2.6 21.2 -3.6 21.2 -3.6 20.2 -2.6 20.2 -2.6 19.2 -1.6 19.2 -1.6 18.2 -2.6 18.2 -2.6 15.2 0.4 15.2 0.4 16.2 M15.4 20.0 L15.35 20.0 15.3 21.0 14.3 21.0 14.3 20.0 15.35 20.0 15.35 19.0 16.35 19.0 16.35 20.0 17.35 20.0 17.3 21.05 16.3 21.0 16.35 20.0 16.2 20.0 15.4 20.0 M16.25 21.05 L16.25 22.05 15.35 22.05 15.35 21.0 16.25 21.05 M-13.7 6.15 L-13.7 7.15 -17.7 7.15 -17.7 6.15 -19.7 6.15 -19.7 5.15 -20.7 5.15 -20.7 3.15 -21.7 3.15 -21.7 0.4 -21.7 -2.1 -20.7 -2.15 -20.7 -3.15 -19.7 -3.15 -19.7 -4.15 -18.7 -4.15 -18.7 -5.15 -12.75 -5.2 -12.7 -4.15 -11.7 -4.15 -11.7 -3.15 -10.7 -3.15 -10.75 -1.1 -9.75 -1.1 -9.7 0.15 -9.7 5.15 -10.7 5.15 -10.7 6.15 -13.65 6.15 -13.65 5.15 -11.7 5.15 -11.7 4.15 -10.7 4.15 -10.7 0.2 -10.75 -1.1 -11.75 -1.1 -11.7 -2.1 -12.7 -2.15 -12.7 -3.15 -13.75 -3.15 -13.7 -4.2 -17.7 -4.15 -17.7 -3.15 -18.7 -3.15 -18.7 -2.15 -19.7 -2.15 -19.7 -1.15 -20.7 -1.1 -20.7 0.15 -20.7 2.15 -19.7 2.15 -19.7 4.15 -18.7 4.15 -18.7 5.15 -17.65 5.15 -17.65 6.15 -13.7 6.15 M-28.7 18.05 L-26.7 18.05 -26.7 16.0 -28.7 16.0 -28.7 18.05 -29.7 18.0 -29.7 16.0 -28.7 16.0 -28.7 15.0 -26.7 15.0 -26.7 16.0 -25.7 16.05 -25.7 18.05 -26.7 18.05 -26.7 19.05 -28.7 19.05 -28.7 18.05" fill="#000000" fill-rule="evenodd" stroke="none"/>
    <path d="M0.4 -19.0 L0.4 -18.0 1.4 -18.0 1.4 -17.0 2.4 -17.0 2.4 -16.0 3.4 -16.0 3.4 -14.0 -1.6 -14.0 -1.6 -15.0 -2.6 -15.0 -2.6 -16.0 -3.6 -16.0 -3.6 -17.0 -2.6 -17.0 -2.6 -19.0 0.4 -19.0 M7.4 -6.05 L7.45 -6.05 7.45 -8.0 8.45 -8.0 8.45 -8.95 9.45 -8.95 9.45 -10.0 10.45 -9.95 10.5 -11.0 14.5 -10.9 14.45 -9.9 15.45 -9.9 15.45 -7.85 16.45 -7.85 16.4 -5.85 15.45 -5.85 15.4 -2.8 16.4 -2.8 16.4 -4.8 17.4 -4.8 17.45 -7.85 20.45 -7.8 20.4 -5.75 21.4 -5.75 21.4 -4.75 22.4 -4.75 22.35 -1.7 23.35 -1.65 23.35 -0.65 22.35 -0.65 22.3 3.4 21.3 3.4 21.3 4.4 20.3 4.4 20.3 5.4 18.3 5.35 18.3 5.85 17.5 5.85 17.5 5.35 14.3 5.3 14.3 4.3 13.3 4.3 13.3 3.3 12.35 3.25 12.35 0.2 13.35 0.2 13.4 -2.8 9.4 -2.9 9.4 -3.9 8.4 -3.9 8.4 -6.0 7.4 -6.0 7.4 -6.05 M29.25 12.2 L29.2 12.2 29.2 11.3 29.25 11.3 29.25 12.2 M18.35 18.05 L18.35 18.0 18.3 18.0 18.3 17.05 19.3 17.05 19.3 18.05 18.35 18.05 M2.45 13.95 L4.45 13.95 4.45 12.95 5.45 12.95 5.45 11.95 8.45 11.95 8.45 12.95 10.45 12.95 10.45 8.95 11.45 8.95 11.45 7.95 14.45 7.95 14.45 11.95 13.45 11.95 13.45 13.05 13.4 13.05 13.4 13.95 12.45 13.95 12.45 14.95 10.45 14.95 10.45 15.95 6.45 15.95 6.45 14.95 2.45 14.95 2.45 13.95 M1.4 4.0 L1.4 5.0 2.4 5.0 2.4 6.0 0.4 6.0 0.4 7.0 1.4 7.0 1.4 8.0 0.4 8.0 0.4 9.0 -1.6 9.0 -1.6 8.0 -2.6 8.0 -2.6 6.0 -1.6 6.0 -1.6 5.0 -0.6 5.0 -0.6 4.0 1.4 4.0 M0.4 16.2 L0.4 18.2 1.4 18.2 1.4 21.2 -0.6 21.2 -0.6 22.2 -1.6 22.2 -1.6 21.2 -2.6 21.2 -2.6 20.2 -1.6 20.2 -1.6 19.2 -0.6 19.2 -0.6 18.2 -1.6 18.2 -1.6 16.2 0.4 16.2 M16.2 20.0 L16.15 20.25 16.25 20.25 16.25 21.05 15.35 21.0 15.4 20.0 16.2 20.0 M-13.65 6.15 L-13.7 6.15 -17.65 6.15 -17.65 5.15 -18.7 5.15 -18.7 4.15 -19.7 4.15 -19.7 2.15 -20.7 2.15 -20.7 0.15 -20.7 -1.1 -19.7 -1.15 -19.7 -2.15 -18.7 -2.15 -18.7 -3.15 -17.7 -3.15 -17.7 -4.15 -13.7 -4.2 -13.75 -3.15 -12.7 -3.15 -12.7 -2.15 -11.7 -2.1 -11.75 -1.1 -10.75 -1.1 -10.7 0.2 -10.7 4.15 -11.7 4.15 -11.7 5.15 -13.65 5.15 -13.65 6.15 M-28.7 18.05 L-28.7 16.0 -26.7 16.0 -26.7 18.05 -28.7 18.05" fill="#ffffff" fill-rule="evenodd" stroke="none"/>
  </g>
</svg>
