<?xml version="1.0" encoding="UTF-8" standalone="no"?>
<svg xmlns:ffdec="https://www.free-decompiler.com/flash" xmlns:xlink="http://www.w3.org/1999/xlink" ffdec:objectType="shape" height="22.95px" width="16.85px" xmlns="http://www.w3.org/2000/svg">
  <g transform="matrix(1.0, 0.0, 0.0, 1.0, -8.95, -8.05)">
    <path d="M11.95 24.05 L11.95 25.05 10.95 25.05 10.95 24.05 9.95 24.05 9.95 23.05 8.95 23.05 8.95 9.05 9.95 9.05 9.95 8.05 14.95 8.05 14.95 9.05 15.95 9.05 15.95 23.05 14.95 23.05 14.95 24.05 13.95 24.05 13.95 23.05 14.95 23.05 14.95 9.05 9.95 9.05 9.95 23.05 10.95 23.05 10.95 24.05 11.95 24.05" fill="#000000" fill-rule="evenodd" stroke="none"/>
    <path d="M13.95 24.05 L11.95 24.05 10.95 24.05 10.95 23.05 9.95 23.05 9.95 9.05 14.95 9.05 14.95 23.05 13.95 23.05 13.95 24.05" fill="#ffffff" fill-rule="evenodd" stroke="none"/>
    <path d="M25.8 19.0 L25.0 19.0 25.0 20.0 25.8 20.0 25.8 21.0 24.0 21.0 24.0 20.0 22.0 20.0 22.0 21.0 23.0 21.0 23.0 22.0 25.0 22.0 25.0 23.0 25.8 23.0 25.8 28.0 25.0 28.0 25.0 23.0 24.0 23.0 24.0 24.0 23.0 24.0 23.0 22.0 22.0 22.0 22.0 23.0 21.0 23.0 21.0 25.0 20.0 25.0 20.0 27.0 16.0 27.0 16.0 28.0 21.0 28.0 21.0 26.0 22.0 26.0 22.0 24.0 23.0 24.0 23.0 26.0 22.0 26.0 22.0 28.0 21.0 28.0 21.0 29.0 16.0 29.0 16.0 29.05 13.0 29.05 13.0 29.0 11.0 29.0 11.0 27.0 10.9 27.0 10.9 25.05 12.7 25.05 12.7 25.0 13.0 25.0 13.0 24.0 15.0 24.0 15.0 25.0 16.0 25.0 16.0 26.0 19.0 26.0 19.0 25.0 20.0 25.0 20.0 23.0 21.0 23.0 21.0 20.0 22.0 20.0 22.0 19.0 24.0 19.0 24.0 18.0 25.8 18.0 25.8 19.0 M16.0 26.0 L15.0 26.0 15.0 25.0 13.0 25.0 13.0 27.0 12.0 27.0 12.0 28.0 15.0 28.0 15.0 27.0 16.0 27.0 16.0 26.0 M25.0 28.0 L25.0 30.0 25.8 30.0 25.8 31.0 23.0 31.0 23.0 30.0 24.0 30.0 24.0 28.0 25.0 28.0" fill="#000000" fill-rule="evenodd" stroke="none"/>
    <path d="M25.8 20.0 L25.0 20.0 25.0 19.0 25.8 19.0 25.8 20.0 M21.0 23.0 L22.0 23.0 22.0 22.0 23.0 22.0 23.0 24.0 22.0 24.0 22.0 26.0 21.0 26.0 21.0 28.0 16.0 28.0 16.0 27.0 20.0 27.0 20.0 25.0 21.0 25.0 21.0 23.0 M16.0 26.0 L16.0 27.0 15.0 27.0 15.0 28.0 12.0 28.0 12.0 27.0 13.0 27.0 13.0 25.0 15.0 25.0 15.0 26.0 16.0 26.0" fill="#ffffff" fill-rule="evenodd" stroke="none"/>
    <path d="M22.0 20.0 L24.0 20.0 24.0 21.0 25.8 21.0 25.8 23.0 25.0 23.0 25.0 22.0 23.0 22.0 23.0 21.0 22.0 21.0 22.0 20.0 M25.0 28.0 L25.8 28.0 25.8 30.0 25.0 30.0 25.0 28.0" fill="#656565" fill-rule="evenodd" stroke="none"/>
  </g>
</svg>
