<?xml version="1.0" encoding="UTF-8" standalone="no"?>
<svg xmlns:ffdec="https://www.free-decompiler.com/flash" xmlns:xlink="http://www.w3.org/1999/xlink" ffdec:objectType="shape" height="24.0px" width="24.0px" xmlns="http://www.w3.org/2000/svg">
  <g transform="matrix(1.0, 0.0, 0.0, 1.0, 13.5, 17.0)">
    <path d="M1.5 -15.0 L1.5 -14.0 2.5 -14.0 2.5 -13.0 4.5 -13.0 4.5 -12.0 6.5 -12.0 6.5 -9.0 3.5 -9.0 3.5 -8.0 0.5 -8.0 0.5 -9.0 -1.5 -9.0 -1.5 -10.0 -3.5 -10.0 -3.5 -11.0 -5.5 -11.0 -5.5 -13.0 -6.5 -13.0 -6.5 -15.0 1.5 -15.0 M7.5 -8.0 L7.5 -9.0 8.5 -9.0 8.5 -1.0 7.5 -1.0 7.5 1.0 6.5 1.0 6.5 2.0 4.5 2.0 4.5 4.0 3.5 4.0 3.5 1.0 2.5 1.0 2.5 0.0 1.5 0.0 1.5 -1.0 0.5 -1.0 0.5 -2.0 -1.5 -2.0 -1.5 -3.0 -9.5 -3.0 -9.5 -2.0 -11.5 -2.0 -11.5 -9.0 -10.5 -9.0 -10.5 -11.0 -9.5 -11.0 -9.5 -13.0 -7.5 -13.0 -7.5 -12.0 -6.5 -12.0 -6.5 -10.0 -4.5 -10.0 -4.5 -9.0 -2.5 -9.0 -2.5 -8.0 -0.5 -8.0 -0.5 -7.0 4.5 -7.0 4.5 -8.0 7.5 -8.0 M1.5 2.0 L2.5 2.0 2.5 5.0 -5.5 5.0 -5.5 4.0 -7.5 4.0 -7.5 3.0 -8.5 3.0 -8.5 2.0 -9.5 2.0 -9.5 1.0 -10.5 1.0 -10.5 -1.0 -9.5 -1.0 -9.5 -2.0 -2.5 -2.0 -2.5 -1.0 -0.5 -1.0 -0.5 0.0 1.5 0.0 1.5 2.0" fill="#ffffff" fill-rule="evenodd" stroke="none"/>
    <path d="M1.5 -15.0 L-6.5 -15.0 -6.5 -13.0 -5.5 -13.0 -5.5 -11.0 -3.5 -11.0 -3.5 -10.0 -1.5 -10.0 -1.5 -9.0 0.5 -9.0 0.5 -8.0 3.5 -8.0 3.5 -9.0 6.5 -9.0 6.5 -12.0 4.5 -12.0 4.5 -13.0 2.5 -13.0 2.5 -14.0 1.5 -14.0 1.5 -15.0 M1.5 -16.0 L3.5 -16.0 3.5 -15.0 5.5 -15.0 5.5 -14.0 7.5 -14.0 7.5 -13.0 8.5 -13.0 8.5 -11.0 9.5 -11.0 9.5 -9.0 10.5 -9.0 10.5 -1.0 9.5 -1.0 9.5 1.0 8.5 1.0 8.5 3.0 6.5 3.0 6.5 4.0 5.5 4.0 5.5 6.0 2.5 6.0 2.5 7.0 -5.5 7.0 -5.5 6.0 -8.5 6.0 -8.5 5.0 -9.5 5.0 -9.5 4.0 -10.5 4.0 -10.5 3.0 -11.5 3.0 -11.5 1.0 -12.5 1.0 -12.5 -1.0 -13.5 -1.0 -13.5 -9.0 -12.5 -9.0 -12.5 -11.0 -11.5 -11.0 -11.5 -13.0 -10.5 -13.0 -10.5 -15.0 -7.5 -15.0 -7.5 -16.0 -6.5 -16.0 -6.5 -17.0 1.5 -17.0 1.5 -16.0 M7.5 -8.0 L4.5 -8.0 4.5 -7.0 -0.5 -7.0 -0.5 -8.0 -2.5 -8.0 -2.5 -9.0 -4.5 -9.0 -4.5 -10.0 -6.5 -10.0 -6.5 -12.0 -7.5 -12.0 -7.5 -13.0 -9.5 -13.0 -9.5 -11.0 -10.5 -11.0 -10.5 -9.0 -11.5 -9.0 -11.5 -2.0 -9.5 -2.0 -9.5 -3.0 -1.5 -3.0 -1.5 -2.0 0.5 -2.0 0.5 -1.0 1.5 -1.0 1.5 0.0 2.5 0.0 2.5 1.0 3.5 1.0 3.5 4.0 4.5 4.0 4.5 2.0 6.5 2.0 6.5 1.0 7.5 1.0 7.5 -1.0 8.5 -1.0 8.5 -9.0 7.5 -9.0 7.5 -8.0 M1.5 2.0 L1.5 0.0 -0.5 0.0 -0.5 -1.0 -2.5 -1.0 -2.5 -2.0 -9.5 -2.0 -9.5 -1.0 -10.5 -1.0 -10.5 1.0 -9.5 1.0 -9.5 2.0 -8.5 2.0 -8.5 3.0 -7.5 3.0 -7.5 4.0 -5.5 4.0 -5.5 5.0 2.5 5.0 2.5 2.0 1.5 2.0" fill="#000000" fill-rule="evenodd" stroke="none"/>
  </g>
</svg>
