<?xml version="1.0" encoding="UTF-8" standalone="no"?>
<svg xmlns:ffdec="https://www.free-decompiler.com/flash" xmlns:xlink="http://www.w3.org/1999/xlink" ffdec:objectType="shape" height="20.0px" width="13.85px" xmlns="http://www.w3.org/2000/svg">
  <g transform="matrix(1.0, 0.0, 0.0, 1.0, 6.1, 5.5)">
    <path d="M3.9 -3.5 L4.85 -3.5 4.85 -1.5 3.9 -1.5 4.0 0.5 5.0 0.5 5.0 2.5 5.9 2.5 5.9 4.5 6.9 4.5 6.9 6.5 7.75 6.5 7.75 12.5 5.9 12.5 5.9 13.5 3.9 13.5 3.9 14.5 -1.1 14.5 -1.1 13.5 -3.1 13.5 -3.1 12.5 -4.1 12.5 -4.1 11.5 -5.1 11.5 -5.1 6.5 -4.1 6.5 -4.1 4.5 -3.1 4.5 -3.1 3.5 -5.1 3.5 -5.1 2.5 -6.1 2.5 -6.1 0.5 -5.1 0.5 -5.1 -0.5 -4.1 -0.5 -4.1 -1.5 -3.1 -1.5 -3.1 -2.5 -2.1 -2.5 -2.1 -3.5 -1.1 -3.5 -1.1 -4.5 -0.1 -4.5 -0.1 -5.5 1.9 -5.5 1.9 -4.5 3.9 -4.5 3.9 -3.5 0.9 -3.5 0.9 -0.5 -1.1 -0.5 -1.1 -1.5 -0.1 -1.5 -0.1 -2.5 -2.1 -2.5 -2.1 -1.5 -3.1 -1.5 -3.1 -0.5 -4.1 -0.5 -4.1 0.5 -5.1 0.5 -5.1 2.5 -2.1 2.5 -2.1 1.5 -0.1 1.5 -0.1 0.5 1.9 0.5 1.9 -0.5 2.9 -0.5 2.9 -1.5 3.9 -1.5 3.9 -3.5 M1.9 0.5 L1.9 1.5 0.9 1.5 0.9 2.5 -1.1 2.5 -1.1 3.5 -2.1 3.5 -2.1 4.5 -3.1 4.5 -3.1 5.5 5.9 5.5 5.9 4.5 4.9 4.5 4.9 2.55 3.9 2.5 3.9 1.5 3.0 1.5 2.9 0.5 1.9 0.5 M0.9 -3.5 L0.9 -4.5 -0.1 -4.5 -0.1 -3.5 0.9 -3.5 M4.9 6.5 L1.9 6.5 1.9 7.5 2.9 7.5 2.9 8.5 4.9 8.5 4.9 6.5 M0.9 6.5 L-2.1 6.5 -2.1 8.5 -0.1 8.5 -0.1 7.5 0.9 7.5 0.9 6.5 M0.9 7.5 L0.9 9.5 1.9 9.5 1.9 7.5 0.9 7.5 M1.9 10.5 L0.9 10.5 0.9 9.5 -2.1 9.5 -2.1 8.5 -3.1 8.5 -3.1 6.5 -4.1 6.5 -4.1 11.5 -3.1 11.5 -3.1 12.5 -1.1 12.5 -1.1 13.5 3.9 13.5 3.9 12.5 5.9 12.5 5.9 11.5 6.9 11.5 6.9 6.5 5.9 6.5 5.9 8.5 4.9 8.5 4.9 9.5 1.9 9.5 1.9 10.5 M-3.1 -0.5 L-1.1 -0.5 -1.1 0.5 -3.1 0.5 -3.1 1.5 -4.1 1.5 -4.1 0.5 -3.1 0.5 -3.1 -0.5" fill="#000000" fill-rule="evenodd" stroke="none"/>
    <path d="M3.9 -3.5 L3.9 -1.5 2.9 -1.5 2.9 -0.5 1.9 -0.5 1.9 0.5 -0.1 0.5 -0.1 1.5 -2.1 1.5 -2.1 2.5 -5.1 2.5 -5.1 0.5 -4.1 0.5 -4.1 -0.5 -3.1 -0.5 -3.1 -1.5 -2.1 -1.5 -2.1 -2.5 -0.1 -2.5 -0.1 -1.5 -1.1 -1.5 -1.1 -0.5 0.9 -0.5 0.9 -3.5 3.9 -3.5 M-3.1 -0.5 L-3.1 0.5 -4.1 0.5 -4.1 1.5 -3.1 1.5 -3.1 0.5 -1.1 0.5 -1.1 -0.5 -3.1 -0.5" fill="#ffffff" fill-rule="evenodd" stroke="none"/>
    <path d="M0.9 -3.5 L-0.1 -3.5 -0.1 -4.5 0.9 -4.5 0.9 -3.5 M0.9 6.5 L0.9 7.5 -0.1 7.5 -0.1 8.5 -2.1 8.5 -2.1 6.5 0.9 6.5 M4.9 6.5 L4.9 8.5 2.9 8.5 2.9 7.5 1.9 7.5 1.9 6.5 4.9 6.5 M1.9 10.5 L1.9 9.5 4.9 9.5 4.9 8.5 5.9 8.5 5.9 6.5 6.9 6.5 6.9 11.5 5.9 11.5 5.9 12.5 3.9 12.5 3.9 13.5 -1.1 13.5 -1.1 12.5 -3.1 12.5 -3.1 11.5 -4.1 11.5 -4.1 6.5 -3.1 6.5 -3.1 8.5 -2.1 8.5 -2.1 9.5 0.9 9.5 0.9 10.5 1.9 10.5" fill="#808080" fill-rule="evenodd" stroke="none"/>
    <path d="M0.9 7.5 L1.9 7.5 1.9 9.5 0.9 9.5 0.9 7.5" fill="#c0c0c0" fill-rule="evenodd" stroke="none"/>
  </g>
</svg>
