<?xml version="1.0" encoding="UTF-8" standalone="no"?>
<svg xmlns:ffdec="https://www.free-decompiler.com/flash" xmlns:xlink="http://www.w3.org/1999/xlink" ffdec:objectType="shape" height="29.0px" width="39.0px" xmlns="http://www.w3.org/2000/svg">
  <g transform="matrix(1.0, 0.0, 0.0, 1.0, -11.0, 6.0)">
    <path d="M32.0 -1.0 L32.0 -2.0 34.0 -2.0 34.0 -1.0 32.0 -1.0 32.0 0.0 30.0 0.0 30.0 1.0 28.0 1.0 28.0 2.0 26.0 2.0 26.0 3.0 24.0 3.0 24.0 4.0 22.0 4.0 22.0 5.0 20.0 5.0 20.0 6.0 18.0 6.0 18.0 7.0 16.0 7.0 16.0 8.0 14.0 8.0 14.0 11.0 15.0 11.0 15.0 12.0 16.0 12.0 16.0 11.0 18.0 11.0 18.0 10.0 20.0 10.0 20.0 9.0 22.0 9.0 22.0 8.0 24.0 8.0 24.0 7.0 26.0 7.0 26.0 6.0 28.0 6.0 28.0 5.0 30.0 5.0 30.0 4.0 32.0 4.0 32.0 3.0 34.0 3.0 34.0 2.0 36.0 2.0 36.0 1.0 38.0 1.0 38.0 0.0 40.0 0.0 40.0 -1.0 42.0 -1.0 42.0 -2.0 43.0 -2.0 43.0 -4.0 42.0 -4.0 42.0 -5.0 40.0 -5.0 40.0 -4.0 38.0 -4.0 38.0 -3.0 36.0 -3.0 36.0 -2.0 34.0 -2.0 34.0 -3.0 36.0 -3.0 36.0 -4.0 38.0 -4.0 38.0 -5.0 40.0 -5.0 40.0 -6.0 43.0 -6.0 43.0 -4.0 44.0 -4.0 44.0 -2.0 44.05 -2.0 44.05 -1.0 42.0 -1.0 42.0 0.0 40.0 0.0 40.0 1.0 38.0 1.0 38.0 2.0 36.0 2.0 36.0 3.0 34.0 3.0 34.0 4.0 32.0 4.0 32.0 5.0 30.0 5.0 30.0 6.0 28.0 6.0 28.0 7.0 26.0 7.0 26.0 8.0 24.0 8.0 24.0 9.0 22.0 9.0 22.0 10.0 20.0 10.0 20.0 11.0 18.0 11.0 18.0 12.0 16.0 12.0 16.0 13.0 17.0 13.0 17.0 16.0 18.0 16.0 18.0 18.0 20.0 18.0 20.0 19.0 23.0 19.0 23.0 20.0 21.0 20.0 21.0 22.0 23.0 22.0 23.0 21.0 24.0 21.0 24.0 23.0 20.0 23.0 20.0 22.0 17.0 22.0 17.0 21.0 15.0 21.0 15.0 20.0 14.0 20.0 14.0 19.0 13.0 19.0 13.0 17.0 12.0 17.0 12.0 15.0 11.0 15.0 11.0 10.0 13.0 10.0 13.0 8.0 14.0 8.0 14.0 7.0 16.0 7.0 16.0 6.0 18.0 6.0 18.0 5.0 20.0 5.0 20.0 4.0 22.0 4.0 22.0 3.0 24.0 3.0 24.0 2.0 26.0 2.0 26.0 1.0 28.0 1.0 28.0 0.0 30.0 0.0 30.0 -1.0 32.0 -1.0 M32.0 20.0 L31.0 20.0 31.0 19.0 33.0 19.0 33.0 18.0 37.0 18.0 37.0 17.0 38.0 17.0 38.0 16.0 39.0 16.0 39.0 15.0 40.0 15.0 40.0 14.0 41.0 14.0 41.0 9.0 42.0 9.0 42.0 8.0 44.85 8.0 44.85 10.1 46.0 10.1 46.0 11.0 49.0 11.0 49.0 12.0 50.0 12.0 50.0 15.0 44.0 15.0 44.0 16.0 43.0 16.0 43.0 17.1 41.85 17.1 41.85 18.2 40.95 18.2 40.95 19.1 39.95 19.1 39.95 20.1 39.05 20.1 39.05 21.0 37.05 21.0 37.05 22.0 34.0 22.0 34.0 23.0 32.0 23.0 32.0 22.0 34.0 22.0 34.0 20.0 32.0 20.0 M42.0 10.0 L42.0 14.0 41.0 14.0 41.0 15.0 40.0 15.0 40.0 16.1 39.05 16.1 39.05 17.05 38.95 17.05 38.05 17.05 38.05 18.0 37.0 18.0 37.0 19.0 35.0 19.0 35.0 21.0 37.0 21.0 37.0 20.0 39.0 20.0 39.0 19.0 40.0 19.0 40.0 18.0 41.0 18.0 41.0 17.0 42.0 17.0 42.0 15.0 43.0 15.0 43.0 14.0 49.0 14.0 49.0 13.0 48.0 13.0 48.0 12.0 45.0 12.0 45.0 11.0 44.0 11.0 44.0 9.0 43.0 9.0 43.0 10.0 42.0 10.0 M41.25 12.9 L41.25 13.0 41.25 12.9 M12.0 11.0 L12.0 15.0 13.0 15.0 13.0 16.0 14.0 16.0 14.0 18.0 15.0 18.0 15.0 19.0 16.0 19.0 16.0 20.0 18.0 20.0 18.0 21.0 20.0 21.0 20.0 19.0 17.0 19.0 17.0 17.0 16.0 17.0 16.0 15.0 14.0 15.0 14.0 14.0 16.0 14.0 16.0 13.0 14.0 13.0 14.0 11.0 12.0 11.0" fill="#000000" fill-rule="evenodd" stroke="none"/>
    <path d="M32.0 -1.0 L34.0 -1.0 34.0 -2.0 36.0 -2.0 36.0 -3.0 38.0 -3.0 38.0 -4.0 40.0 -4.0 40.0 -5.0 42.0 -5.0 42.0 -4.0 43.0 -4.0 43.0 -2.0 42.0 -2.0 42.0 -1.0 40.0 -1.0 40.0 0.0 38.0 0.0 38.0 1.0 36.0 1.0 36.0 2.0 34.0 2.0 34.0 3.0 32.0 3.0 32.0 4.0 30.0 4.0 30.0 5.0 28.0 5.0 28.0 6.0 26.0 6.0 26.0 7.0 24.0 7.0 24.0 8.0 22.0 8.0 22.0 9.0 20.0 9.0 20.0 10.0 18.0 10.0 18.0 11.0 16.0 11.0 16.0 12.0 15.0 12.0 15.0 11.0 14.0 11.0 14.0 8.0 16.0 8.0 16.0 7.0 18.0 7.0 18.0 6.0 20.0 6.0 20.0 5.0 22.0 5.0 22.0 4.0 24.0 4.0 24.0 3.0 26.0 3.0 26.0 2.0 28.0 2.0 28.0 1.0 30.0 1.0 30.0 0.0 32.0 0.0 32.0 -1.0 M42.0 10.0 L43.0 10.0 43.0 9.0 44.0 9.0 44.0 11.0 45.0 11.0 45.0 12.0 48.0 12.0 48.0 13.0 49.0 13.0 49.0 14.0 43.0 14.0 43.0 15.0 42.0 15.0 42.0 17.0 41.0 17.0 41.0 18.0 40.0 18.0 40.0 19.0 39.0 19.0 39.0 20.0 37.0 20.0 37.0 21.0 35.0 21.0 35.0 19.0 37.0 19.0 37.0 18.0 38.05 18.0 38.05 17.05 38.95 17.05 39.05 17.05 39.05 16.1 40.0 16.1 40.0 15.0 41.0 15.0 41.0 14.0 42.0 14.0 42.0 10.0 M12.0 11.0 L14.0 11.0 14.0 13.0 16.0 13.0 16.0 14.0 14.0 14.0 14.0 15.0 16.0 15.0 16.0 17.0 17.0 17.0 17.0 19.0 20.0 19.0 20.0 21.0 18.0 21.0 18.0 20.0 16.0 20.0 16.0 19.0 15.0 19.0 15.0 18.0 14.0 18.0 14.0 16.0 13.0 16.0 13.0 15.0 12.0 15.0 12.0 11.0" fill="#ffffff" fill-rule="evenodd" stroke="none"/>
    <path d="M23.0 20.0 L23.0 21.0 23.0 22.0 21.0 22.0 21.0 20.0 23.0 20.0 M32.0 22.0 L32.0 20.0 34.0 20.0 34.0 22.0 32.0 22.0" fill="#656565" fill-rule="evenodd" stroke="none"/>
  </g>
</svg>
