<?xml version="1.0" encoding="UTF-8" standalone="no"?>
<svg xmlns:ffdec="https://www.free-decompiler.com/flash" xmlns:xlink="http://www.w3.org/1999/xlink" ffdec:objectType="shape" height="17.0px" width="11.0px" xmlns="http://www.w3.org/2000/svg">
  <g transform="matrix(1.0, 0.0, 0.0, 1.0, 5.5, 8.5)">
    <path d="M-3.5 -8.5 L-3.5 -7.5 4.5 -7.5 4.5 -8.5 5.5 -8.5 5.5 -6.5 2.5 -6.5 2.5 3.5 3.5 3.5 3.5 4.5 2.5 4.5 2.5 8.5 -5.5 8.5 -5.5 6.5 -4.5 6.5 -4.5 5.5 -2.5 5.5 -2.5 4.5 -3.5 4.5 -3.5 2.5 -2.5 2.5 -2.5 4.5 2.5 4.5 2.5 3.5 1.5 3.5 1.5 -6.5 -0.5 -6.5 -0.5 -2.5 -1.5 -2.5 -1.5 2.5 -2.5 2.5 -2.5 -3.5 -1.5 -3.5 -1.5 -6.5 -4.5 -6.5 -4.5 -8.5 -3.5 -8.5" fill="#000000" fill-rule="evenodd" stroke="none"/>
    <path d="M4.5 -8.5 L4.5 -7.5 -3.5 -7.5 -3.5 -8.5 4.5 -8.5" fill="#c8cbc8" fill-rule="evenodd" stroke="none"/>
    <path d="M-2.5 2.5 L-1.5 2.5 -1.5 -2.5 -0.5 -2.5 -0.5 -6.5 1.5 -6.5 1.5 3.5 2.5 3.5 2.5 4.5 -2.5 4.5 -2.5 2.5" fill="#656565" fill-rule="evenodd" stroke="none"/>
  </g>
</svg>
