<?xml version="1.0" encoding="UTF-8" standalone="no"?>
<svg xmlns:ffdec="https://www.free-decompiler.com/flash" xmlns:xlink="http://www.w3.org/1999/xlink" ffdec:objectType="shape" height="23.0px" width="13.9px" xmlns="http://www.w3.org/2000/svg">
  <g transform="matrix(1.0, 0.0, 0.0, 1.0, 16.4, 27.45)">
    <path d="M-12.45 -25.45 L-12.45 -27.45 -9.45 -27.45 -9.45 -24.45 -8.45 -24.45 -8.45 -23.45 -9.45 -23.45 -9.45 -22.45 -11.45 -22.45 -11.45 -23.45 -13.45 -23.45 -13.45 -25.45 -12.45 -25.45 -12.45 -24.45 -10.45 -24.45 -10.45 -26.45 -11.45 -26.45 -11.45 -25.45 -12.45 -25.45 M-8.45 -23.45 L-7.45 -23.45 -7.45 -18.5 -4.45 -18.5 -4.45 -16.4 -5.45 -16.4 -5.45 -17.4 -12.45 -17.4 -12.45 -20.4 -13.45 -20.4 -13.45 -16.4 -7.45 -16.4 -7.45 -15.4 -6.45 -15.4 -6.45 -14.4 -5.45 -14.4 -5.45 -13.4 -3.45 -13.4 -3.45 -15.4 -4.45 -15.4 -4.45 -16.3 -2.5 -16.3 -2.5 -12.45 -3.45 -12.45 -3.45 -7.45 -4.45 -7.45 -4.45 -6.45 -5.45 -6.45 -5.45 -5.45 -7.45 -5.45 -7.45 -4.45 -12.45 -4.45 -12.45 -5.45 -14.45 -5.45 -14.45 -6.45 -15.45 -6.45 -15.45 -7.45 -16.4 -7.45 -16.4 -13.45 -15.45 -13.45 -15.45 -15.45 -14.45 -15.45 -14.45 -20.4 -15.45 -20.4 -15.45 -21.5 -14.45 -21.5 -14.45 -23.45 -13.45 -23.45 -13.45 -22.45 -11.45 -22.45 -11.45 -18.5 -8.45 -18.5 -8.45 -20.45 -9.45 -20.45 -9.45 -22.45 -8.45 -22.45 -8.45 -23.45 M-9.45 -14.45 L-9.45 -15.4 -13.45 -15.4 -13.45 -13.45 -8.45 -13.45 -8.45 -14.45 -9.45 -14.45 M-10.45 -11.45 L-10.45 -12.45 -13.45 -12.45 -13.45 -10.45 -14.45 -10.45 -14.45 -12.45 -15.45 -12.45 -15.45 -7.45 -14.45 -7.45 -14.45 -6.45 -12.45 -6.45 -12.45 -5.45 -7.45 -5.45 -7.45 -6.45 -5.45 -6.45 -5.45 -7.45 -4.45 -7.45 -4.45 -12.45 -5.45 -12.45 -5.45 -10.45 -6.45 -10.45 -6.45 -12.45 -9.45 -12.45 -9.45 -11.45 -10.45 -11.45 -10.45 -9.45 -9.45 -9.45 -9.45 -11.45 -8.45 -11.45 -8.45 -10.45 -6.45 -10.45 -6.45 -9.45 -9.45 -9.45 -9.45 -8.45 -10.45 -8.45 -10.45 -9.45 -13.45 -9.45 -13.45 -10.45 -11.45 -10.45 -11.45 -11.45 -10.45 -11.45 M-12.45 -20.4 L-12.4 -20.4 -12.45 -20.4 M-12.45 -21.5 L-12.45 -21.45 -12.4 -21.5 -12.4 -21.55 -12.45 -21.55 -12.45 -21.5" fill="#000000" fill-rule="evenodd" stroke="none"/>
    <path d="M-12.45 -25.45 L-11.45 -25.45 -11.45 -26.45 -10.45 -26.45 -10.45 -24.45 -12.45 -24.45 -12.45 -25.45 M-9.45 -22.45 L-9.45 -23.45 -8.45 -23.45 -8.45 -22.45 -9.45 -22.45 M-4.45 -16.4 L-4.45 -16.3 -4.45 -15.4 -3.45 -15.4 -3.45 -13.4 -5.45 -13.4 -5.45 -14.4 -6.45 -14.4 -6.45 -15.4 -7.45 -15.4 -7.45 -16.4 -13.45 -16.4 -13.45 -20.4 -12.45 -20.4 -12.45 -17.4 -5.45 -17.4 -5.45 -16.4 -4.45 -16.4" fill="#ffffff" fill-rule="evenodd" stroke="none"/>
    <path d="M-13.45 -23.45 L-11.45 -23.45 -11.45 -22.45 -9.45 -22.45 -9.45 -20.45 -8.45 -20.45 -8.45 -18.5 -11.45 -18.5 -11.45 -22.45 -13.45 -22.45 -13.45 -23.45 M-9.45 -14.45 L-8.45 -14.45 -8.45 -13.45 -13.45 -13.45 -13.45 -15.4 -9.45 -15.4 -9.45 -14.45 M-12.45 -20.4 L-12.4 -20.4 -12.45 -20.4 M-9.45 -11.45 L-9.45 -12.45 -6.45 -12.45 -6.45 -10.45 -5.45 -10.45 -5.45 -12.45 -4.45 -12.45 -4.45 -7.45 -5.45 -7.45 -5.45 -6.45 -7.45 -6.45 -7.45 -5.45 -12.45 -5.45 -12.45 -6.45 -14.45 -6.45 -14.45 -7.45 -15.45 -7.45 -15.45 -12.45 -14.45 -12.45 -14.45 -10.45 -13.45 -10.45 -13.45 -12.45 -10.45 -12.45 -10.45 -11.45 -11.45 -11.45 -11.45 -10.45 -13.45 -10.45 -13.45 -9.45 -10.45 -9.45 -10.45 -8.45 -9.45 -8.45 -9.45 -9.45 -6.45 -9.45 -6.45 -10.45 -8.45 -10.45 -8.45 -11.45 -9.45 -11.45 M-12.45 -21.5 L-12.45 -21.55 -12.4 -21.55 -12.4 -21.5 -12.45 -21.45 -12.45 -21.5" fill="#808080" fill-rule="evenodd" stroke="none"/>
    <path d="M-10.45 -11.45 L-9.45 -11.45 -9.45 -9.45 -10.45 -9.45 -10.45 -11.45" fill="#c0c0c0" fill-rule="evenodd" stroke="none"/>
  </g>
</svg>
