<?xml version="1.0" encoding="UTF-8" standalone="no"?>
<svg xmlns:ffdec="https://www.free-decompiler.com/flash" xmlns:xlink="http://www.w3.org/1999/xlink" ffdec:objectType="shape" height="28.0px" width="39.0px" xmlns="http://www.w3.org/2000/svg">
  <g transform="matrix(1.0, 0.0, 0.0, 1.0, 19.95, -7.0)">
    <path d="M0.05 10.0 L1.05 10.0 1.05 8.0 2.05 8.0 2.05 7.0 3.05 7.0 3.05 8.0 4.05 8.0 4.05 10.0 6.05 10.0 6.05 11.0 3.05 11.0 3.05 9.0 2.05 9.0 2.05 11.0 0.05 11.0 0.05 10.0 -0.95 10.0 -0.95 9.0 -1.95 9.0 -1.95 11.0 -0.95 11.0 -0.95 12.0 -1.95 12.0 -1.95 19.0 -2.95 19.0 -2.95 21.0 -3.95 21.0 -3.95 22.0 -4.95 22.0 -4.95 23.0 -5.95 23.0 -5.95 24.0 -7.95 24.0 -7.95 25.0 -8.95 25.0 -8.95 26.0 -9.95 26.0 -9.95 28.0 -10.95 28.0 -10.95 30.0 -11.95 30.0 -11.95 34.0 -3.95 34.0 -2.95 34.0 -2.95 33.0 -1.95 33.0 -1.95 34.0 0.05 34.0 0.05 33.0 1.05 33.0 1.05 32.0 0.05 32.0 0.05 30.0 1.05 30.0 1.05 32.0 2.05 32.0 2.05 33.0 3.05 33.0 3.05 34.0 6.05 34.0 6.05 32.0 5.05 32.0 5.05 30.0 6.05 30.0 6.05 29.0 7.05 29.0 7.05 26.0 8.05 26.0 8.05 23.0 9.05 23.0 9.05 22.1 7.05 22.1 7.05 23.1 5.05 23.1 5.05 22.1 4.05 22.1 4.05 18.1 5.05 18.1 5.05 17.1 7.05 17.1 7.05 18.1 8.05 18.1 8.05 19.1 12.05 19.1 12.05 20.0 15.05 20.0 15.05 19.0 16.05 19.0 16.05 18.0 14.05 18.0 14.05 17.0 13.05 17.0 13.05 14.0 10.05 14.0 10.05 13.0 8.05 13.0 8.05 15.0 7.05 15.0 7.05 13.0 8.05 13.0 8.05 12.0 6.05 12.0 6.05 11.0 8.05 11.0 8.05 12.0 10.05 12.0 10.05 13.0 13.05 13.0 13.05 14.0 14.05 14.0 14.05 13.0 18.05 13.0 18.05 14.0 19.05 14.0 19.05 17.0 18.05 17.0 18.05 18.0 17.05 18.0 17.05 20.0 16.05 20.0 16.05 21.0 12.05 21.0 12.05 22.1 10.05 22.1 10.05 24.0 9.05 24.0 9.05 26.0 8.05 26.0 8.05 32.0 9.05 32.0 9.05 35.0 2.05 35.0 2.05 33.0 1.05 33.0 1.05 35.0 -14.95 35.0 -14.95 34.0 -17.95 34.0 -17.95 33.0 -18.95 33.0 -18.95 32.0 -19.95 32.0 -19.95 26.0 -18.95 26.0 -18.95 25.0 -17.95 25.0 -17.95 31.0 -16.95 31.0 -16.95 32.0 -15.95 32.0 -15.95 33.0 -12.95 33.0 -12.95 30.0 -11.95 30.0 -11.95 28.0 -10.95 28.0 -10.95 26.0 -9.95 26.0 -9.95 25.0 -8.95 25.0 -8.95 24.0 -7.95 24.0 -7.95 23.0 -5.95 23.0 -5.95 22.0 -4.95 22.0 -4.95 21.0 -3.95 21.0 -3.95 19.0 -2.95 19.0 -2.95 8.0 -0.95 8.0 -0.95 9.0 0.05 9.0 0.05 10.0 M-3.95 33.0 L-3.95 32.0 -5.95 32.0 -5.95 31.0 -6.95 31.0 -6.95 30.0 -5.95 30.0 -5.95 31.0 -3.95 31.0 -3.95 32.0 -2.95 32.0 -2.95 33.0 -3.95 33.0 M5.05 15.0 L4.05 15.0 4.05 13.0 5.05 13.0 5.05 15.0 M5.05 22.1 L7.05 22.1 7.05 21.1 11.05 21.1 11.05 20.1 7.05 20.1 7.05 18.1 5.05 18.1 5.05 20.1 6.05 20.1 6.05 21.1 5.05 21.1 5.05 22.1 M18.05 14.0 L16.05 14.0 16.05 15.0 18.05 15.0 18.05 14.0 M6.05 30.0 L6.05 32.0 7.05 32.0 7.05 34.0 8.05 34.0 8.05 32.0 7.05 32.0 7.05 30.0 6.05 30.0" fill="#000000" fill-rule="evenodd" stroke="none"/>
    <path d="M0.05 10.0 L0.05 11.0 2.05 11.0 2.05 9.0 3.05 9.0 3.05 11.0 6.05 11.0 6.05 12.0 8.05 12.0 8.05 13.0 7.05 13.0 7.05 15.0 8.05 15.0 8.05 13.0 10.05 13.0 10.05 14.0 13.05 14.0 13.05 17.0 14.05 17.0 14.05 18.0 16.05 18.0 16.05 19.0 15.05 19.0 15.05 20.0 12.05 20.0 12.05 19.1 8.05 19.1 8.05 18.1 7.05 18.1 7.05 17.1 5.05 17.1 5.05 18.1 4.05 18.1 4.05 22.1 5.05 22.1 5.05 23.1 7.05 23.1 7.05 22.1 9.05 22.1 9.05 23.0 8.05 23.0 8.05 26.0 7.05 26.0 7.05 29.0 6.05 29.0 6.05 30.0 5.05 30.0 5.05 32.0 6.05 32.0 6.05 34.0 3.05 34.0 3.05 33.0 2.05 33.0 2.05 32.0 1.05 32.0 1.05 30.0 0.05 30.0 0.05 32.0 1.05 32.0 1.05 33.0 0.05 33.0 0.05 34.0 -1.95 34.0 -1.95 33.0 -2.95 33.0 -2.95 32.0 -3.95 32.0 -3.95 31.0 -5.95 31.0 -5.95 30.0 -6.95 30.0 -6.95 31.0 -5.95 31.0 -5.95 32.0 -3.95 32.0 -3.95 33.0 -3.95 34.0 -11.95 34.0 -11.95 30.0 -10.95 30.0 -10.95 28.0 -9.95 28.0 -9.95 26.0 -8.95 26.0 -8.95 25.0 -7.95 25.0 -7.95 24.0 -5.95 24.0 -5.95 23.0 -4.95 23.0 -4.95 22.0 -3.95 22.0 -3.95 21.0 -2.95 21.0 -2.95 19.0 -1.95 19.0 -1.95 12.0 -0.95 12.0 -0.95 11.0 -1.95 11.0 -1.95 9.0 -0.95 9.0 -0.95 10.0 0.05 10.0 M5.05 15.0 L5.05 13.0 4.05 13.0 4.05 15.0 5.05 15.0 M6.05 30.0 L7.05 30.0 7.05 32.0 8.05 32.0 8.05 34.0 7.05 34.0 7.05 32.0 6.05 32.0 6.05 30.0" fill="#c5c5c5" fill-rule="evenodd" stroke="none"/>
    <path d="M18.05 14.0 L18.05 15.0 16.05 15.0 16.05 14.0 18.05 14.0 M5.05 22.1 L5.05 21.1 6.05 21.1 6.05 20.1 5.05 20.1 5.05 18.1 7.05 18.1 7.05 20.1 11.05 20.1 11.05 21.1 7.05 21.1 7.05 22.1 5.05 22.1" fill="#ffffff" fill-rule="evenodd" stroke="none"/>
    <path d="M-3.95 34.0 L-3.95 33.0 -2.95 33.0 -2.95 34.0 -3.95 34.0" fill="#d1d1d1" fill-rule="evenodd" stroke="none"/>
  </g>
</svg>
