<?xml version="1.0" encoding="UTF-8" standalone="no"?>
<svg xmlns:ffdec="https://www.free-decompiler.com/flash" xmlns:xlink="http://www.w3.org/1999/xlink" ffdec:objectType="shape" height="20.0px" width="20.0px" xmlns="http://www.w3.org/2000/svg">
  <g transform="matrix(1.0, 0.0, 0.0, 1.0, 15.5, 27.45)">
    <path d="M0.5 -12.45 L-2.5 -12.45 -2.5 -11.45 -3.5 -11.45 -3.5 -12.45 -6.5 -12.45 -6.5 -13.45 -7.5 -13.45 -7.5 -15.45 -8.5 -15.45 -8.5 -12.45 -7.5 -12.45 -7.5 -10.45 -6.5 -10.45 -6.5 -9.45 -4.5 -9.45 -4.5 -8.45 0.5 -8.45 0.5 -9.45 2.5 -9.45 2.5 -15.45 1.5 -15.45 1.5 -13.45 0.5 -13.45 0.5 -12.45 M-2.5 -13.45 L0.5 -13.45 0.5 -15.45 -3.5 -15.45 -3.5 -14.45 -4.5 -14.45 -4.5 -13.45 -3.5 -13.45 -3.5 -12.45 -2.5 -12.45 -2.5 -13.45 -3.5 -13.45 -3.5 -14.45 -2.5 -14.45 -2.5 -13.45 M-14.5 -17.45 L-8.5 -17.45 -8.5 -16.45 -7.5 -16.45 -7.5 -15.45 -6.5 -15.45 -6.5 -14.45 -4.5 -14.45 -4.5 -16.45 -3.5 -16.45 -3.5 -18.45 -2.5 -18.45 -2.5 -16.45 -0.5 -16.45 -0.5 -17.45 0.5 -17.45 0.5 -16.45 4.5 -16.45 4.5 -10.45 3.5 -10.45 3.5 -9.45 2.5 -9.45 2.5 -8.45 0.5 -8.45 0.5 -7.45 -4.5 -7.45 -4.5 -8.45 -6.5 -8.45 -6.5 -9.45 -7.5 -9.45 -7.5 -10.45 -15.45 -10.45 -15.45 -11.45 -14.5 -11.45 -14.5 -15.45 -13.5 -15.45 -13.5 -16.45 -14.5 -16.45 -14.5 -17.45 -15.5 -17.45 -15.5 -19.45 -14.5 -19.45 -14.5 -23.45 -13.5 -23.45 -13.5 -25.45 -12.5 -25.45 -12.5 -27.45 -9.5 -27.45 -9.5 -24.45 -10.5 -24.45 -10.5 -26.45 -11.5 -26.45 -11.5 -25.45 -12.5 -25.45 -12.5 -24.45 -10.5 -24.45 -10.5 -23.45 -9.5 -23.45 -9.5 -24.45 -6.5 -24.45 -6.5 -23.45 -3.5 -23.45 -3.5 -22.45 -2.5 -22.45 -2.5 -21.45 -1.5 -21.45 -1.5 -19.45 -0.5 -19.45 -0.5 -17.45 -1.5 -17.45 -1.5 -19.45 -2.5 -19.45 -2.5 -21.45 -3.5 -21.45 -3.5 -22.45 -6.5 -22.45 -6.5 -23.45 -7.5 -23.45 -7.5 -21.45 -4.5 -21.45 -4.5 -20.45 -3.5 -20.45 -3.5 -18.45 -4.5 -18.45 -4.5 -20.45 -7.5 -20.45 -7.5 -19.45 -6.5 -19.45 -6.5 -18.45 -5.5 -18.45 -5.5 -17.45 -4.5 -17.45 -4.5 -16.45 -5.5 -16.45 -5.5 -17.45 -6.5 -17.45 -6.5 -18.45 -13.5 -18.45 -13.5 -19.45 -14.5 -19.45 -14.5 -17.45 M-13.5 -15.45 L-13.5 -11.45 -8.5 -11.45 -8.5 -12.45 -9.5 -12.45 -9.5 -16.45 -12.5 -16.45 -12.5 -15.45 -13.5 -15.45 M-9.5 -23.45 L-9.5 -22.45 -8.5 -22.45 -8.5 -23.45 -9.5 -23.45 M-13.5 -23.45 L-13.5 -22.45 -11.5 -22.45 -11.5 -19.45 -8.5 -19.45 -8.5 -21.45 -10.5 -21.45 -10.5 -22.45 -11.5 -22.45 -11.5 -23.45 -13.5 -23.45 M-13.5 -19.45 L-12.5 -19.45 -12.5 -21.45 -13.5 -21.45 -13.5 -19.45" fill="#000000" fill-rule="evenodd" stroke="none"/>
    <path d="M0.5 -12.45 L0.5 -13.45 1.5 -13.45 1.5 -15.45 2.5 -15.45 2.5 -9.45 0.5 -9.45 0.5 -8.45 -4.5 -8.45 -4.5 -9.45 -6.5 -9.45 -6.5 -10.45 -7.5 -10.45 -7.5 -12.45 -8.5 -12.45 -8.5 -15.45 -7.5 -15.45 -7.5 -13.45 -6.5 -13.45 -6.5 -12.45 -3.5 -12.45 -3.5 -11.45 -2.5 -11.45 -2.5 -12.45 0.5 -12.45 M-3.5 -14.45 L-3.5 -15.45 0.5 -15.45 0.5 -13.45 -2.5 -13.45 -2.5 -14.45 -3.5 -14.45 M-13.5 -15.45 L-12.5 -15.45 -12.5 -16.45 -9.5 -16.45 -9.5 -12.45 -8.5 -12.45 -8.5 -11.45 -13.5 -11.45 -13.5 -15.45 M-13.5 -23.45 L-11.5 -23.45 -11.5 -22.45 -10.5 -22.45 -10.5 -21.45 -8.5 -21.45 -8.5 -19.45 -11.5 -19.45 -11.5 -22.45 -13.5 -22.45 -13.5 -23.45" fill="#808080" fill-rule="evenodd" stroke="none"/>
    <path d="M-4.5 -14.45 L-6.5 -14.45 -6.5 -15.45 -7.5 -15.45 -7.5 -16.45 -8.5 -16.45 -8.5 -17.45 -14.5 -17.45 -14.5 -19.45 -13.5 -19.45 -13.5 -18.45 -6.5 -18.45 -6.5 -17.45 -5.5 -17.45 -5.5 -16.45 -4.5 -16.45 -4.5 -14.45 M-0.5 -17.45 L-0.5 -16.45 -2.5 -16.45 -2.5 -18.45 -3.5 -18.45 -3.5 -20.45 -4.5 -20.45 -4.5 -21.45 -7.5 -21.45 -7.5 -23.45 -6.5 -23.45 -6.5 -22.45 -3.5 -22.45 -3.5 -21.45 -2.5 -21.45 -2.5 -19.45 -1.5 -19.45 -1.5 -17.45 -0.5 -17.45 M-12.5 -25.45 L-11.5 -25.45 -11.5 -26.45 -10.5 -26.45 -10.5 -24.45 -9.5 -24.45 -9.5 -23.45 -10.5 -23.45 -10.5 -24.45 -12.5 -24.45 -12.5 -25.45 M-9.5 -23.45 L-8.5 -23.45 -8.5 -22.45 -9.5 -22.45 -9.5 -23.45 M-13.5 -19.45 L-13.5 -21.45 -12.5 -21.45 -12.5 -19.45 -13.5 -19.45" fill="#ffffff" fill-rule="evenodd" stroke="none"/>
    <path d="M-2.5 -13.45 L-2.5 -12.45 -3.5 -12.45 -3.5 -13.45 -4.5 -13.45 -4.5 -14.45 -3.5 -14.45 -3.5 -13.45 -2.5 -13.45" fill="#c0c0c0" fill-rule="evenodd" stroke="none"/>
  </g>
</svg>
