<?xml version="1.0" encoding="UTF-8" standalone="no"?>
<svg xmlns:ffdec="https://www.free-decompiler.com/flash" xmlns:xlink="http://www.w3.org/1999/xlink" ffdec:objectType="shape" height="15.05px" width="14.0px" xmlns="http://www.w3.org/2000/svg">
  <g transform="matrix(1.0, 0.0, 0.0, 1.0, 19.45, 21.45)">
    <path d="M-18.45 -11.45 L-19.45 -11.45 -19.45 -16.45 -18.45 -16.45 -18.45 -17.45 -17.45 -17.45 -17.45 -18.45 -16.45 -18.45 -16.45 -19.45 -15.45 -19.45 -15.45 -20.45 -14.45 -20.45 -14.45 -21.45 -13.45 -21.45 -13.45 -20.45 -14.45 -20.45 -14.45 -19.45 -15.45 -19.45 -15.45 -18.45 -16.45 -18.45 -16.45 -17.45 -17.45 -17.45 -17.45 -16.45 -18.45 -16.45 -18.45 -15.45 -8.5 -15.5 -8.5 -16.45 -9.45 -16.45 -9.45 -17.45 -10.45 -17.45 -10.45 -18.45 -9.45 -18.45 -9.45 -17.45 -8.45 -17.45 -8.45 -16.5 -7.5 -16.5 -7.5 -15.5 -5.5 -15.55 -5.45 -9.4 -6.45 -9.4 -6.45 -8.4 -7.45 -8.4 -7.45 -7.4 -9.45 -7.4 -9.45 -6.4 -14.45 -6.4 -14.45 -7.4 -16.45 -7.4 -16.45 -8.4 -17.45 -8.4 -17.45 -9.4 -18.45 -9.4 -18.45 -11.4 -17.45 -11.4 -17.45 -9.4 -16.45 -9.4 -16.45 -8.4 -14.45 -8.4 -14.45 -7.4 -9.45 -7.4 -9.45 -8.4 -7.45 -8.4 -7.45 -14.4 -8.45 -14.4 -8.45 -12.4 -9.45 -12.4 -9.45 -14.4 -13.45 -14.4 -13.45 -13.4 -14.45 -13.4 -14.45 -14.35 -16.45 -14.35 -16.45 -13.4 -15.5 -13.4 -15.5 -12.4 -13.45 -12.4 -13.45 -11.4 -16.45 -11.4 -16.45 -12.4 -17.45 -12.4 -17.45 -14.4 -18.45 -14.4 -18.45 -11.45 M-10.45 -19.5 L-10.45 -18.45 -11.5 -18.45 -11.5 -19.5 -10.45 -19.5 M-13.45 -12.4 L-13.45 -13.4 -12.45 -13.4 -12.45 -12.4 -13.45 -12.4 M-12.45 -12.4 L-9.45 -12.4 -9.45 -11.4 -12.45 -11.4 -12.45 -10.4 -13.45 -10.4 -13.45 -11.4 -12.45 -11.4 -12.45 -12.4" fill="#000000" fill-rule="evenodd" stroke="none"/>
    <path d="M-18.45 -11.4 L-18.45 -11.45 -18.45 -14.4 -17.45 -14.4 -17.45 -12.4 -16.45 -12.4 -16.45 -11.4 -13.45 -11.4 -13.45 -10.4 -12.45 -10.4 -12.45 -11.4 -9.45 -11.4 -9.45 -12.4 -12.45 -12.4 -12.45 -13.4 -13.45 -13.4 -13.45 -12.4 -15.5 -12.4 -15.5 -13.4 -16.45 -13.4 -16.45 -14.35 -14.45 -14.35 -14.45 -13.4 -13.45 -13.4 -13.45 -14.4 -9.45 -14.4 -9.45 -12.4 -8.45 -12.4 -8.45 -14.4 -7.45 -14.4 -7.45 -8.4 -9.45 -8.4 -9.45 -7.4 -14.45 -7.4 -14.45 -8.4 -16.45 -8.4 -16.45 -9.4 -17.45 -9.4 -17.45 -11.4 -18.45 -11.4" fill="#808080" fill-rule="evenodd" stroke="none"/>
    <path d="M-13.45 -11.4 L-13.45 -12.4 -12.45 -12.4 -12.45 -11.4 -13.45 -11.4" fill="#c0c0c0" fill-rule="evenodd" stroke="none"/>
  </g>
</svg>
