<?xml version="1.0" encoding="UTF-8" standalone="no"?>
<svg xmlns:ffdec="https://www.free-decompiler.com/flash" xmlns:xlink="http://www.w3.org/1999/xlink" ffdec:objectType="shape" height="17.9px" width="34.55px" xmlns="http://www.w3.org/2000/svg">
  <g transform="matrix(1.0, 0.0, 0.0, 1.0, 22.1, 28.35)">
    <path d="M0.55 -25.5 L0.5 -25.5 0.55 -27.45 1.55 -27.45 1.55 -28.35 4.5 -28.35 4.5 -27.35 5.5 -27.35 5.5 -26.35 6.5 -26.35 6.5 -25.35 6.55 -25.5 8.45 -25.4 8.45 -26.4 11.45 -26.4 11.45 -25.4 12.45 -25.4 12.45 -23.4 11.45 -23.4 11.45 -21.4 12.45 -21.4 12.45 -19.4 11.45 -19.4 11.45 -18.4 10.45 -18.4 10.45 -17.45 7.45 -17.45 7.45 -18.4 10.45 -18.4 10.45 -19.4 11.45 -19.4 11.45 -21.4 9.45 -21.4 9.45 -20.4 8.45 -20.4 8.45 -19.4 7.45 -19.4 7.45 -18.4 5.45 -18.4 5.45 -17.45 -4.5 -17.45 -4.5 -18.45 -7.5 -18.55 -7.5 -16.85 -8.5 -16.85 -8.55 -17.85 -8.5 -18.45 -12.5 -18.45 -12.5 -16.85 -13.5 -16.85 -13.5 -20.5 -13.45 -20.5 -12.5 -20.5 -12.55 -19.5 -11.5 -19.5 -11.5 -19.45 -2.45 -19.45 -2.45 -20.45 -1.45 -20.45 -1.45 -21.45 -0.45 -21.45 -0.45 -20.45 3.45 -20.45 3.45 -21.4 4.45 -21.4 4.45 -20.4 5.45 -20.4 5.45 -21.4 6.45 -21.4 6.45 -22.4 7.45 -22.4 7.45 -23.4 6.45 -23.4 6.45 -22.4 5.45 -22.4 5.45 -23.4 4.5 -23.4 4.5 -24.25 4.55 -24.3 4.6 -24.4 6.45 -24.4 6.45 -24.35 6.5 -24.35 6.5 -25.35 5.5 -25.35 5.5 -26.35 4.5 -26.35 4.5 -27.35 1.55 -27.35 1.55 -25.5 0.55 -25.5 M-13.45 -20.55 L-14.45 -20.55 -14.5 -23.45 -13.5 -23.45 -13.5 -25.45 -12.5 -25.45 -12.5 -27.45 -9.5 -27.45 -9.5 -24.45 -6.5 -24.45 -6.5 -23.45 -5.5 -23.45 -5.5 -22.5 -4.5 -22.5 -4.5 -21.5 -3.4 -21.5 -3.4 -21.55 -3.45 -21.55 -3.45 -22.45 -2.4 -22.45 -2.4 -21.45 -3.35 -21.45 -3.35 -20.5 -11.45 -20.5 -11.45 -21.55 -11.45 -21.6 -10.5 -21.6 -10.5 -22.45 -11.5 -22.45 -11.5 -23.45 -13.5 -23.45 -13.5 -22.45 -11.5 -22.45 -11.5 -21.55 -13.45 -21.55 -13.45 -20.55 M-2.4 -22.5 L-2.4 -23.5 -1.45 -23.5 -1.45 -22.5 -2.4 -22.5 M-1.4 -23.55 L-1.4 -24.55 -0.45 -24.55 -0.45 -25.45 0.55 -25.45 0.55 -24.45 -0.4 -24.45 -0.4 -23.55 -1.4 -23.55 M1.7 -23.45 L1.55 -23.55 1.55 -24.45 2.55 -24.45 2.55 -25.4 4.45 -25.4 4.45 -24.4 2.55 -24.4 2.55 -23.45 1.7 -23.45 M9.45 -25.4 L8.45 -25.4 8.45 -24.4 9.45 -24.4 9.45 -23.4 11.45 -23.4 11.45 -24.4 10.45 -24.4 10.45 -25.4 9.45 -25.4 M8.45 -22.4 L8.45 -21.4 9.45 -21.4 9.45 -22.4 8.45 -22.4 M7.45 -20.4 L6.45 -20.4 6.45 -19.4 7.45 -19.4 7.45 -20.4 8.45 -20.4 8.45 -21.4 7.45 -21.4 7.45 -20.4 M5.45 -22.4 L5.45 -21.4 4.45 -21.4 4.45 -22.4 5.45 -22.4 M1.7 -23.4 L1.55 -23.4 1.55 -22.45 0.6 -22.45 0.55 -21.5 -0.45 -21.5 -0.45 -22.5 0.45 -22.5 0.55 -22.45 0.55 -23.45 1.55 -23.45 1.55 -23.5 1.7 -23.4 M-12.5 -25.45 L-12.5 -24.45 -10.5 -24.45 -10.5 -23.45 -9.5 -23.45 -9.5 -22.45 -8.5 -22.45 -8.5 -23.45 -9.5 -23.45 -9.5 -24.45 -10.5 -24.45 -10.5 -26.45 -11.5 -26.45 -11.5 -25.45 -12.5 -25.45 M3.45 -19.5 L3.45 -19.45 -2.4 -19.45 -2.4 -18.45 4.45 -18.45 4.45 -19.4 4.4 -19.4 3.45 -19.5 M-22.0 -18.4 L-22.1 -18.4 -22.1 -18.45 -22.0 -18.4 M-7.5 -23.45 L-7.5 -21.5 -5.5 -21.5 -5.5 -22.45 -6.5 -22.45 -6.5 -23.45 -7.5 -23.45" fill="#000000" fill-rule="evenodd" stroke="none"/>
    <path d="M7.45 -17.45 L5.45 -17.45 5.45 -18.4 7.45 -18.4 7.45 -19.4 8.45 -19.4 8.45 -20.4 9.45 -20.4 9.45 -21.4 11.45 -21.4 11.45 -19.4 10.45 -19.4 10.45 -18.4 7.45 -18.4 7.45 -17.45 M-13.45 -20.5 L-13.45 -20.55 -13.45 -21.55 -11.5 -21.55 -11.45 -21.55 -11.45 -20.5 -3.35 -20.5 -3.35 -21.45 -2.4 -21.45 -2.4 -22.45 -2.4 -22.5 -1.45 -22.5 -1.45 -23.5 -1.4 -23.55 -0.4 -23.55 -0.4 -24.45 0.55 -24.45 0.55 -25.45 0.55 -25.5 1.55 -25.5 1.55 -27.35 4.5 -27.35 4.5 -26.35 5.5 -26.35 5.5 -25.35 6.5 -25.35 6.5 -24.35 6.45 -24.35 6.45 -24.4 4.6 -24.4 4.55 -24.3 4.45 -24.4 4.45 -25.4 2.55 -25.4 2.55 -24.45 1.55 -24.45 1.55 -23.55 1.7 -23.45 1.7 -23.4 1.55 -23.5 1.55 -23.45 0.55 -23.45 0.55 -22.45 0.45 -22.5 -0.45 -22.5 -0.45 -21.5 -0.45 -21.45 -1.45 -21.45 -1.45 -20.45 -2.45 -20.45 -2.45 -19.45 -11.5 -19.45 -11.5 -19.5 -12.55 -19.5 -12.5 -20.5 -13.45 -20.5 M3.45 -19.5 L4.4 -19.4 4.45 -19.4 4.45 -18.45 -2.4 -18.45 -2.4 -19.45 3.45 -19.45 3.45 -19.5 M-12.5 -25.45 L-11.5 -25.45 -11.5 -26.45 -10.5 -26.45 -10.5 -24.45 -9.5 -24.45 -9.5 -23.45 -8.5 -23.45 -8.5 -22.45 -9.5 -22.45 -9.5 -23.45 -10.5 -23.45 -10.5 -24.45 -12.5 -24.45 -12.5 -25.45 M-7.5 -23.45 L-6.5 -23.45 -6.5 -22.45 -5.5 -22.45 -5.5 -21.5 -7.5 -21.5 -7.5 -23.45" fill="#ffffff" fill-rule="evenodd" stroke="none"/>
    <path d="M-8.5 -16.85 L-12.5 -16.85 -12.5 -18.45 -8.5 -18.45 -8.55 -17.85 -8.5 -16.85 M9.45 -24.4 L8.45 -24.4 8.45 -25.4 9.45 -25.4 9.45 -24.4 10.45 -24.4 11.45 -24.4 11.45 -23.4 9.45 -23.4 9.45 -24.4 M-13.5 -23.45 L-11.5 -23.45 -11.5 -22.45 -10.5 -22.45 -10.5 -21.6 -11.45 -21.6 -11.45 -21.55 -11.5 -21.55 -11.5 -22.45 -13.5 -22.45 -13.5 -23.45" fill="#808080" fill-rule="evenodd" stroke="none"/>
    <path d="M9.45 -24.4 L9.45 -25.4 10.45 -25.4 10.45 -24.4 9.45 -24.4" fill="#404040" fill-rule="evenodd" stroke="none"/>
    <path d="M5.45 -22.4 L6.45 -22.4 6.45 -23.4 7.45 -23.4 7.45 -22.4 6.45 -22.4 6.45 -21.4 5.45 -21.4 5.45 -20.4 4.45 -20.4 4.45 -21.4 5.45 -21.4 5.45 -22.4 M7.45 -20.4 L7.45 -19.4 6.45 -19.4 6.45 -20.4 7.45 -20.4 7.45 -21.4 8.45 -21.4 8.45 -20.4 7.45 -20.4 M8.45 -22.4 L9.45 -22.4 9.45 -21.4 8.45 -21.4 8.45 -22.4" fill="#c0c0c0" fill-rule="evenodd" stroke="none"/>
    <path d="M-6.5 -15.45 L-6.45 -15.5 -6.45 -15.45 -6.5 -15.45 M-6.5 -13.45 L-6.45 -13.45 -6.5 -13.45 M-7.5 -12.45 L-7.55 -12.4 -7.5 -12.4 -7.5 -10.45 -15.45 -10.45 -15.45 -11.45 -14.5 -11.45 -14.5 -15.45 -13.5 -15.45 -13.5 -11.45 -8.5 -11.45 -8.5 -17.45 -7.5 -17.45 -7.5 -12.45 M-12.5 -17.45 L-12.5 -15.45 -13.5 -15.45 -13.5 -17.45 -12.5 -17.45" fill="#000000" fill-rule="evenodd" stroke="none"/>
    <path d="M-7.5 -12.4 L-7.55 -12.4 -7.5 -12.45 -7.5 -12.4 M-8.5 -17.45 L-8.5 -11.45 -13.5 -11.45 -13.5 -15.45 -12.5 -15.45 -12.5 -17.45 -8.5 -17.45" fill="#808080" fill-rule="evenodd" stroke="none"/>
  </g>
</svg>
