<?xml version="1.0" encoding="UTF-8" standalone="no"?>
<svg xmlns:ffdec="https://www.free-decompiler.com/flash" xmlns:xlink="http://www.w3.org/1999/xlink" ffdec:objectType="shape" height="19.0px" width="27.9px" xmlns="http://www.w3.org/2000/svg">
  <g transform="matrix(1.0, 0.0, 0.0, 1.0, 15.45, 29.45)">
    <path d="M-1.5 -25.5 L-1.45 -28.55 -0.45 -28.55 -0.45 -29.45 2.5 -29.45 2.5 -28.45 -0.45 -28.45 -0.5 -25.5 -1.5 -25.5 -1.5 -24.5 -2.5 -24.5 -2.5 -23.5 -3.5 -23.5 -3.5 -22.5 -4.5 -22.5 -4.5 -21.45 -5.5 -21.45 -5.5 -20.5 -6.5 -20.5 -6.5 -19.5 -10.5 -19.5 -10.5 -20.5 -11.45 -20.5 -11.45 -21.55 -11.45 -21.6 -10.5 -21.6 -10.5 -22.45 -11.5 -22.45 -11.5 -23.45 -13.5 -23.45 -13.5 -25.45 -12.5 -25.45 -12.5 -27.45 -9.5 -27.45 -9.5 -24.45 -6.5 -24.45 -6.5 -23.45 -5.5 -23.45 -5.5 -22.5 -4.5 -22.5 -4.5 -23.5 -3.5 -23.5 -3.5 -24.5 -2.5 -24.5 -2.5 -25.5 -1.5 -25.5 M2.5 -28.45 L3.5 -28.45 3.5 -27.45 4.5 -27.45 4.5 -26.45 5.5 -26.45 5.5 -25.45 4.5 -25.45 4.5 -26.45 3.5 -26.45 3.5 -27.45 2.5 -27.45 2.5 -28.45 M4.45 -25.45 L4.45 -24.5 2.5 -24.5 2.5 -25.45 1.5 -25.45 1.5 -24.5 0.55 -24.5 0.55 -23.5 -0.45 -23.5 -0.45 -24.5 0.5 -24.5 0.5 -25.5 1.5 -25.5 1.5 -26.45 2.5 -26.45 2.5 -25.5 4.45 -25.5 4.45 -25.45 M-0.45 -23.45 L-0.45 -22.45 -1.45 -22.45 -1.45 -21.45 -2.45 -21.45 -2.45 -20.45 3.45 -20.45 3.45 -21.4 4.45 -21.4 4.45 -22.4 5.45 -22.4 5.45 -23.4 6.45 -23.4 6.45 -24.4 7.45 -24.4 7.45 -25.4 8.45 -25.4 8.45 -26.4 11.45 -26.4 11.45 -25.4 12.45 -25.4 12.45 -23.4 11.45 -23.4 11.45 -21.4 12.45 -21.4 12.45 -19.4 11.45 -19.4 11.45 -18.4 10.45 -18.4 10.45 -17.45 7.45 -17.45 7.45 -18.4 10.45 -18.4 10.45 -19.4 11.45 -19.4 11.45 -21.4 9.45 -21.4 9.45 -20.4 8.45 -20.4 8.45 -19.4 7.45 -19.4 7.45 -20.4 6.45 -20.4 6.45 -19.4 7.45 -19.4 7.45 -18.4 5.45 -18.4 5.45 -17.45 -4.5 -17.45 -4.5 -18.45 -5.45 -18.45 -5.45 -17.6 -5.5 -17.6 -5.5 -17.45 -11.45 -17.45 -11.45 -18.45 -5.45 -18.45 -5.45 -19.45 -4.45 -19.45 -4.45 -18.45 4.45 -18.45 4.45 -19.4 4.4 -19.4 3.45 -19.5 3.45 -19.45 -2.55 -19.45 -2.55 -20.45 -3.45 -20.45 -3.45 -21.45 -2.45 -21.45 -2.45 -22.45 -1.45 -22.45 -1.45 -23.45 -0.45 -23.45 M-12.5 -17.45 L-13.5 -17.45 -13.5 -20.5 -13.45 -20.5 -12.5 -20.5 -12.5 -19.5 -11.5 -19.5 -11.5 -18.5 -12.5 -18.5 -12.5 -17.45 M-13.45 -20.55 L-14.45 -20.55 -14.5 -23.45 -13.5 -23.45 -13.5 -22.45 -11.5 -22.45 -11.5 -21.55 -13.45 -21.55 -13.45 -20.55 M9.45 -25.4 L8.45 -25.4 8.45 -24.4 9.45 -24.4 9.45 -23.4 11.45 -23.4 11.45 -24.4 10.45 -24.4 10.45 -25.4 9.45 -25.4 M8.45 -22.4 L8.45 -21.4 9.45 -21.4 9.45 -22.4 8.45 -22.4 M6.45 -23.4 L6.45 -22.4 5.45 -22.4 5.45 -21.4 4.45 -21.4 4.45 -20.4 5.45 -20.4 5.45 -21.4 6.45 -21.4 6.45 -22.4 7.45 -22.4 7.45 -23.4 6.45 -23.4 M7.45 -20.4 L8.45 -20.4 8.45 -21.4 7.45 -21.4 7.45 -20.4 M-3.45 -19.45 L-4.45 -19.45 -4.45 -20.45 -3.45 -20.45 -3.45 -19.45 M-12.5 -25.45 L-12.5 -24.45 -10.5 -24.45 -10.5 -23.45 -9.5 -23.45 -9.5 -22.45 -8.5 -22.45 -8.5 -23.45 -9.5 -23.45 -9.5 -24.45 -10.5 -24.45 -10.5 -26.45 -11.5 -26.45 -11.5 -25.45 -12.5 -25.45 M-7.5 -23.45 L-7.5 -20.5 -6.5 -20.5 -6.5 -21.5 -5.5 -21.5 -5.5 -22.45 -6.5 -22.45 -6.5 -23.45 -7.5 -23.45 M-8.5 -21.55 L-10.45 -21.55 -10.45 -20.5 -8.5 -20.5 -8.5 -21.55" fill="#000000" fill-rule="evenodd" stroke="none"/>
    <path d="M-11.45 -17.45 L-12.5 -17.45 -12.5 -18.5 -11.5 -18.5 -11.45 -18.45 -11.45 -17.45 M-11.45 -21.55 L-11.5 -21.55 -11.5 -22.45 -13.5 -22.45 -13.5 -23.45 -11.5 -23.45 -11.5 -22.45 -10.5 -22.45 -10.5 -21.6 -11.45 -21.6 -11.45 -21.55 M9.45 -24.4 L8.45 -24.4 8.45 -25.4 9.45 -25.4 9.45 -24.4 10.45 -24.4 11.45 -24.4 11.45 -23.4 9.45 -23.4 9.45 -24.4 M-8.5 -21.55 L-8.5 -20.5 -10.45 -20.5 -10.45 -21.55 -8.5 -21.55" fill="#808080" fill-rule="evenodd" stroke="none"/>
    <path d="M9.45 -24.4 L9.45 -25.4 10.45 -25.4 10.45 -24.4 9.45 -24.4" fill="#404040" fill-rule="evenodd" stroke="none"/>
    <path d="M8.45 -22.4 L9.45 -22.4 9.45 -21.4 8.45 -21.4 8.45 -22.4 M6.45 -23.4 L7.45 -23.4 7.45 -22.4 6.45 -22.4 6.45 -21.4 5.45 -21.4 5.45 -20.4 4.45 -20.4 4.45 -21.4 5.45 -21.4 5.45 -22.4 6.45 -22.4 6.45 -23.4 M7.45 -20.4 L7.45 -21.4 8.45 -21.4 8.45 -20.4 7.45 -20.4 7.45 -19.4 6.45 -19.4 6.45 -20.4 7.45 -20.4" fill="#c0c0c0" fill-rule="evenodd" stroke="none"/>
    <path d="M-1.5 -25.5 L-0.5 -25.5 -0.45 -28.45 2.5 -28.45 2.5 -27.45 3.5 -27.45 3.5 -26.45 4.5 -26.45 4.5 -25.45 4.45 -25.45 4.45 -25.5 2.5 -25.5 2.5 -26.45 1.5 -26.45 1.5 -25.5 0.5 -25.5 0.5 -24.5 -0.45 -24.5 -0.45 -23.5 -0.45 -23.45 -1.45 -23.45 -1.45 -22.45 -2.45 -22.45 -2.45 -21.45 -3.45 -21.45 -3.45 -20.45 -2.55 -20.45 -2.55 -19.45 3.45 -19.45 3.45 -19.5 4.4 -19.4 4.45 -19.4 4.45 -18.45 -4.45 -18.45 -4.45 -19.45 -5.45 -19.45 -5.45 -18.45 -11.45 -18.45 -11.5 -18.5 -11.5 -19.5 -12.5 -19.5 -12.5 -20.5 -13.45 -20.5 -13.45 -20.55 -13.45 -21.55 -11.5 -21.55 -11.45 -21.55 -11.45 -20.5 -10.5 -20.5 -10.5 -19.5 -6.5 -19.5 -6.5 -20.5 -5.5 -20.5 -5.5 -21.45 -4.5 -21.45 -4.5 -22.5 -3.5 -22.5 -3.5 -23.5 -2.5 -23.5 -2.5 -24.5 -1.5 -24.5 -1.5 -25.5 M7.45 -17.45 L5.45 -17.45 5.45 -18.4 7.45 -18.4 7.45 -19.4 8.45 -19.4 8.45 -20.4 9.45 -20.4 9.45 -21.4 11.45 -21.4 11.45 -19.4 10.45 -19.4 10.45 -18.4 7.45 -18.4 7.45 -17.45 M-12.5 -25.45 L-11.5 -25.45 -11.5 -26.45 -10.5 -26.45 -10.5 -24.45 -9.5 -24.45 -9.5 -23.45 -8.5 -23.45 -8.5 -22.45 -9.5 -22.45 -9.5 -23.45 -10.5 -23.45 -10.5 -24.45 -12.5 -24.45 -12.5 -25.45 M-3.45 -19.45 L-3.45 -20.45 -4.45 -20.45 -4.45 -19.45 -3.45 -19.45 M-7.5 -23.45 L-6.5 -23.45 -6.5 -22.45 -5.5 -22.45 -5.5 -21.5 -6.5 -21.5 -6.5 -20.5 -7.5 -20.5 -7.5 -23.45" fill="#ffffff" fill-rule="evenodd" stroke="none"/>
    <path d="M-7.5 -12.45 L-7.55 -12.4 -7.5 -12.4 -7.5 -10.45 -15.45 -10.45 -15.45 -11.45 -14.5 -11.45 -14.5 -15.45 -13.5 -15.45 -13.5 -17.45 -12.5 -17.45 -12.5 -15.45 -13.5 -15.45 -13.5 -11.45 -8.5 -11.45 -8.5 -17.45 -7.5 -17.45 -7.5 -12.45 M-6.5 -13.45 L-6.45 -13.45 -6.5 -13.45 M-6.5 -15.45 L-6.45 -15.5 -6.45 -15.45 -6.5 -15.45" fill="#000000" fill-rule="evenodd" stroke="none"/>
    <path d="M-7.5 -12.45 L-7.5 -12.4 -7.55 -12.4 -7.5 -12.45 M-12.5 -17.45 L-8.5 -17.45 -8.5 -11.45 -13.5 -11.45 -13.5 -15.45 -12.5 -15.45 -12.5 -17.45" fill="#808080" fill-rule="evenodd" stroke="none"/>
  </g>
</svg>
