<?xml version="1.0" encoding="UTF-8" standalone="no"?>
<svg xmlns:ffdec="https://www.free-decompiler.com/flash" xmlns:xlink="http://www.w3.org/1999/xlink" ffdec:objectType="shape" height="28.0px" width="39.0px" xmlns="http://www.w3.org/2000/svg">
  <g transform="matrix(1.0, 0.0, 0.0, 1.0, 19.95, -7.0)">
    <path d="M-0.95 10.0 L0.05 10.0 0.05 9.0 1.05 9.0 1.05 11.0 0.05 11.0 0.05 12.0 1.05 12.0 1.05 19.0 2.05 19.0 2.05 21.0 3.05 21.0 3.05 22.0 4.05 22.0 4.05 23.0 5.05 23.0 5.05 24.0 7.05 24.0 7.05 25.0 8.05 25.0 8.05 26.0 9.05 26.0 9.05 28.0 10.05 28.0 10.05 30.0 11.05 30.0 11.05 34.0 3.05 34.0 3.05 33.0 3.05 32.0 5.05 32.0 5.05 31.0 6.05 31.0 6.05 30.0 5.05 30.0 5.05 31.0 3.05 31.0 3.05 32.0 2.05 32.0 2.05 33.0 1.05 33.0 1.05 34.0 -0.95 34.0 -0.95 33.0 -1.95 33.0 -1.95 32.0 -0.95 32.0 -0.95 30.0 -1.95 30.0 -1.95 32.0 -2.95 32.0 -2.95 33.0 -3.95 33.0 -3.95 34.0 -6.95 34.0 -6.95 32.0 -5.95 32.0 -5.95 30.0 -6.95 30.0 -6.95 29.0 -7.95 29.0 -7.95 26.0 -8.95 26.0 -8.95 23.0 -9.95 23.0 -9.95 22.0 -10.95 22.0 -10.95 21.0 -8.95 21.0 -8.95 20.0 -15.95 20.0 -15.95 19.0 -16.95 19.0 -16.95 18.0 -14.95 18.0 -14.95 17.0 -13.95 17.0 -13.95 14.0 -10.95 14.0 -10.95 13.0 -8.95 13.0 -8.95 15.0 -7.95 15.0 -7.95 13.0 -8.95 13.0 -8.95 12.0 -6.95 12.0 -6.95 11.0 -3.95 11.0 -3.95 9.0 -2.95 9.0 -2.95 11.0 -0.95 11.0 -0.95 10.0 M-8.95 34.0 L-8.95 32.0 -7.95 32.0 -7.95 34.0 -8.95 34.0 M-7.95 30.0 L-6.95 30.0 -6.95 32.0 -7.95 32.0 -7.95 30.0 M-4.95 15.0 L-4.95 13.0 -5.95 13.0 -5.95 15.0 -4.95 15.0" fill="#c5c5c5" fill-rule="evenodd" stroke="none"/>
    <path d="M0.05 9.0 L0.05 10.0 -0.95 10.0 -0.95 9.0 0.05 9.0 0.05 8.0 2.05 8.0 2.05 19.0 3.05 19.0 3.05 21.0 4.05 21.0 4.05 22.0 5.05 22.0 5.05 23.0 7.05 23.0 7.05 24.0 8.05 24.0 8.05 25.0 9.05 25.0 9.05 26.0 10.05 26.0 10.05 28.0 11.05 28.0 11.05 30.0 12.05 30.0 12.05 33.0 15.05 33.0 15.05 32.0 16.05 32.0 16.05 31.0 17.05 31.0 17.05 25.0 18.05 25.0 18.05 26.0 19.05 26.0 19.05 32.0 18.05 32.0 18.05 33.0 17.05 33.0 17.05 34.0 14.05 34.0 14.05 35.0 -1.95 35.0 -1.95 33.0 -2.95 33.0 -2.95 35.0 -9.95 35.0 -9.95 32.0 -8.95 32.0 -8.95 26.0 -9.95 26.0 -9.95 24.0 -10.95 24.0 -10.95 22.0 -12.95 22.0 -12.95 21.0 -16.95 21.0 -16.95 20.0 -17.95 20.0 -17.95 18.0 -18.95 18.0 -18.95 17.0 -19.95 17.0 -19.95 14.0 -18.95 14.0 -18.95 13.0 -14.95 13.0 -14.95 14.0 -13.95 14.0 -13.95 13.0 -10.95 13.0 -10.95 12.0 -8.95 12.0 -8.95 11.0 -6.95 11.0 -6.95 10.0 -4.95 10.0 -4.95 8.0 -3.95 8.0 -3.95 7.0 -2.95 7.0 -2.95 8.0 -1.95 8.0 -1.95 10.0 -0.95 10.0 -0.95 11.0 -2.95 11.0 -2.95 9.0 -3.95 9.0 -3.95 11.0 -6.95 11.0 -6.95 12.0 -8.95 12.0 -8.95 13.0 -7.95 13.0 -7.95 15.0 -8.95 15.0 -8.95 13.0 -10.95 13.0 -10.95 14.0 -13.95 14.0 -13.95 17.0 -14.95 17.0 -14.95 18.0 -16.95 18.0 -16.95 19.0 -15.95 19.0 -15.95 20.0 -8.95 20.0 -8.95 21.0 -10.95 21.0 -10.95 22.0 -9.95 22.0 -9.95 23.0 -8.95 23.0 -8.95 26.0 -7.95 26.0 -7.95 29.0 -6.95 29.0 -6.95 30.0 -5.95 30.0 -5.95 32.0 -6.95 32.0 -6.95 34.0 -3.95 34.0 -3.95 33.0 -2.95 33.0 -2.95 32.0 -1.95 32.0 -1.95 30.0 -0.95 30.0 -0.95 32.0 -1.95 32.0 -1.95 33.0 -0.95 33.0 -0.95 34.0 1.05 34.0 1.05 33.0 2.05 33.0 2.05 32.0 3.05 32.0 3.05 31.0 5.05 31.0 5.05 30.0 6.05 30.0 6.05 31.0 5.05 31.0 5.05 32.0 3.05 32.0 3.05 33.0 2.05 33.0 2.05 34.0 3.05 34.0 11.05 34.0 11.05 30.0 10.05 30.0 10.05 28.0 9.05 28.0 9.05 26.0 8.05 26.0 8.05 25.0 7.05 25.0 7.05 24.0 5.05 24.0 5.05 23.0 4.05 23.0 4.05 22.0 3.05 22.0 3.05 21.0 2.05 21.0 2.05 19.0 1.05 19.0 1.05 12.0 0.05 12.0 0.05 11.0 1.05 11.0 1.05 9.0 0.05 9.0 M-16.95 14.0 L-18.95 14.0 -18.95 15.0 -16.95 15.0 -16.95 14.0 M-4.95 15.0 L-5.95 15.0 -5.95 13.0 -4.95 13.0 -4.95 15.0 M-7.95 30.0 L-7.95 32.0 -6.95 32.0 -6.95 30.0 -7.95 30.0 M-8.95 34.0 L-7.95 34.0 -7.95 32.0 -8.95 32.0 -8.95 34.0" fill="#000000" fill-rule="evenodd" stroke="none"/>
    <path d="M3.05 33.0 L3.05 34.0 2.05 34.0 2.05 33.0 3.05 33.0" fill="#d1d1d1" fill-rule="evenodd" stroke="none"/>
    <path d="M-16.95 14.0 L-16.95 15.0 -18.95 15.0 -18.95 14.0 -16.95 14.0" fill="#ffffff" fill-rule="evenodd" stroke="none"/>
  </g>
</svg>
