<?xml version="1.0" encoding="UTF-8" standalone="no"?>
<svg xmlns:ffdec="https://www.free-decompiler.com/flash" xmlns:xlink="http://www.w3.org/1999/xlink" ffdec:objectType="shape" height="20.0px" width="19.0px" xmlns="http://www.w3.org/2000/svg">
  <g transform="matrix(1.0, 0.0, 0.0, 1.0, 15.45, 27.45)">
    <path d="M0.55 -18.45 L-0.45 -18.45 -0.45 -19.45 -1.45 -19.45 -1.45 -20.45 -3.45 -20.45 -3.45 -21.45 -5.45 -21.45 -5.45 -22.45 -7.45 -22.45 -7.45 -21.45 -6.45 -21.45 -6.45 -20.45 -4.45 -20.45 -4.45 -19.45 -2.45 -19.45 -2.45 -18.45 -1.45 -18.45 -1.45 -16.45 0.55 -16.45 0.55 -18.45 1.55 -18.45 1.55 -16.45 2.55 -16.45 2.55 -15.45 3.55 -15.45 3.55 -10.45 2.55 -10.45 2.55 -9.45 1.55 -9.45 1.55 -8.45 -0.45 -8.45 -0.45 -7.45 -5.45 -7.45 -5.45 -8.45 -7.45 -8.45 -7.45 -9.45 -8.45 -9.45 -8.45 -10.45 -7.45 -10.45 -7.45 -9.45 -5.45 -9.45 -5.45 -8.45 -0.45 -8.45 -0.45 -9.45 1.55 -9.45 1.55 -10.45 2.55 -10.45 2.55 -15.45 1.55 -15.45 1.55 -13.45 0.55 -13.45 0.55 -15.45 -1.45 -15.45 -1.45 -13.45 0.55 -13.45 0.55 -12.45 -2.45 -12.45 -2.45 -13.45 -3.45 -13.45 -3.45 -12.45 -6.45 -12.45 -6.45 -13.45 -5.45 -13.45 -5.45 -14.45 -6.45 -14.45 -6.45 -13.45 -7.45 -13.45 -7.45 -15.45 -8.45 -15.45 -8.45 -10.45 -14.8 -10.45 -14.8 -11.45 -14.45 -11.45 -14.45 -15.45 -13.45 -15.45 -13.45 -21.45 -14.45 -21.45 -14.45 -23.45 -13.45 -23.45 -13.45 -22.45 -11.45 -22.45 -11.45 -21.45 -10.45 -21.45 -10.45 -19.45 -8.45 -19.45 -8.45 -21.45 -9.45 -21.45 -9.45 -22.45 -8.45 -22.45 -8.45 -23.45 -9.45 -23.45 -9.45 -24.45 -7.45 -24.45 -7.45 -23.45 -5.45 -23.45 -5.45 -22.45 -3.45 -22.45 -3.45 -21.45 -1.45 -21.45 -1.45 -20.45 -0.45 -20.45 -0.45 -19.45 0.55 -19.45 0.55 -18.45 M-3.45 -17.45 L-4.45 -17.45 -4.45 -18.45 -11.45 -18.45 -11.45 -21.45 -12.45 -21.45 -12.45 -17.45 -6.45 -17.45 -6.45 -16.45 -5.45 -16.45 -5.45 -15.45 -4.45 -15.45 -4.45 -14.45 -2.45 -14.45 -2.45 -16.45 -3.45 -16.45 -3.45 -17.45 -2.45 -17.45 -2.45 -18.45 -3.45 -18.45 -3.45 -17.45 M-13.45 -15.45 L-13.45 -11.45 -9.45 -11.45 -9.45 -16.45 -12.45 -16.45 -12.45 -15.45 -13.45 -15.45 M-12.45 -25.45 L-12.45 -24.45 -10.45 -24.45 -10.45 -26.45 -11.45 -26.45 -11.45 -25.45 -12.45 -25.45 -12.45 -27.45 -9.45 -27.45 -9.45 -24.45 -10.45 -24.45 -10.45 -23.45 -9.45 -23.45 -9.45 -22.45 -11.45 -22.45 -11.45 -23.45 -13.45 -23.45 -13.45 -25.45 -12.45 -25.45 M-6.45 -20.45 L-7.45 -20.45 -7.45 -19.45 -6.45 -19.45 -6.45 -20.45 M-3.45 -12.45 L-2.45 -12.45 -2.45 -11.45 -3.45 -11.45 -3.45 -12.45 M-14.8 -10.45 L-15.45 -10.45 -15.45 -11.45 -14.8 -11.45 -14.8 -10.45" fill="#000000" fill-rule="evenodd" stroke="none"/>
    <path d="M0.55 -18.45 L0.55 -16.45 -1.45 -16.45 -1.45 -18.45 -2.45 -18.45 -2.45 -19.45 -4.45 -19.45 -4.45 -20.45 -6.45 -20.45 -6.45 -21.45 -7.45 -21.45 -7.45 -22.45 -5.45 -22.45 -5.45 -21.45 -3.45 -21.45 -3.45 -20.45 -1.45 -20.45 -1.45 -19.45 -0.45 -19.45 -0.45 -18.45 0.55 -18.45 M-9.45 -24.45 L-9.45 -23.45 -8.45 -23.45 -8.45 -22.45 -9.45 -22.45 -9.45 -23.45 -10.45 -23.45 -10.45 -24.45 -9.45 -24.45 M-11.45 -21.45 L-11.45 -18.45 -4.45 -18.45 -4.45 -17.45 -3.45 -17.45 -3.45 -16.45 -2.45 -16.45 -2.45 -14.45 -4.45 -14.45 -4.45 -15.45 -5.45 -15.45 -5.45 -16.45 -6.45 -16.45 -6.45 -17.45 -12.45 -17.45 -12.45 -21.45 -11.45 -21.45 M-12.45 -25.45 L-11.45 -25.45 -11.45 -26.45 -10.45 -26.45 -10.45 -24.45 -12.45 -24.45 -12.45 -25.45" fill="#ffffff" fill-rule="evenodd" stroke="none"/>
    <path d="M-9.45 -22.45 L-9.45 -21.45 -8.45 -21.45 -8.45 -19.45 -10.45 -19.45 -10.45 -21.45 -11.45 -21.45 -11.45 -22.45 -13.45 -22.45 -13.45 -23.45 -11.45 -23.45 -11.45 -22.45 -9.45 -22.45 M-13.45 -15.45 L-12.45 -15.45 -12.45 -16.45 -9.45 -16.45 -9.45 -11.45 -13.45 -11.45 -13.45 -15.45 M-8.45 -10.45 L-8.45 -15.45 -7.45 -15.45 -7.45 -13.45 -6.45 -13.45 -6.45 -14.45 -5.45 -14.45 -5.45 -13.45 -6.45 -13.45 -6.45 -12.45 -3.45 -12.45 -3.45 -11.45 -2.45 -11.45 -2.45 -12.45 0.55 -12.45 0.55 -13.45 -1.45 -13.45 -1.45 -15.45 0.55 -15.45 0.55 -13.45 1.55 -13.45 1.55 -15.45 2.55 -15.45 2.55 -10.45 1.55 -10.45 1.55 -9.45 -0.45 -9.45 -0.45 -8.45 -5.45 -8.45 -5.45 -9.45 -7.45 -9.45 -7.45 -10.45 -8.45 -10.45" fill="#808080" fill-rule="evenodd" stroke="none"/>
    <path d="M-3.45 -12.45 L-3.45 -13.45 -2.45 -13.45 -2.45 -12.45 -3.45 -12.45" fill="#c0c0c0" fill-rule="evenodd" stroke="none"/>
  </g>
</svg>
