<?xml version="1.0" encoding="UTF-8" standalone="no"?>
<svg xmlns:ffdec="https://www.free-decompiler.com/flash" xmlns:xlink="http://www.w3.org/1999/xlink" ffdec:objectType="shape" height="23.0px" width="20.0px" xmlns="http://www.w3.org/2000/svg">
  <g transform="matrix(1.0, 0.0, 0.0, 1.0, 23.45, 27.45)">
    <path d="M-12.45 -25.45 L-12.45 -27.45 -9.45 -27.45 -9.45 -24.45 -8.45 -24.45 -8.45 -23.45 -9.45 -23.45 -9.45 -22.45 -11.45 -22.45 -11.45 -23.45 -13.45 -23.45 -13.45 -25.45 -12.45 -25.45 -12.45 -24.45 -10.45 -24.45 -10.45 -26.45 -11.45 -26.45 -11.45 -25.45 -12.45 -25.45 M-8.45 -23.45 L-7.45 -23.45 -7.45 -18.45 -6.45 -18.45 -6.45 -16.45 -5.45 -16.45 -5.45 -14.45 -4.45 -14.45 -4.45 -12.45 -3.45 -12.45 -3.45 -7.45 -4.45 -7.45 -4.45 -6.45 -5.45 -6.45 -5.45 -5.45 -7.45 -5.45 -7.45 -4.45 -12.45 -4.45 -12.45 -5.45 -14.45 -5.45 -14.45 -6.45 -15.45 -6.45 -15.45 -7.45 -16.45 -7.45 -16.45 -10.45 -18.45 -10.45 -18.45 -11.45 -19.45 -11.45 -19.45 -12.45 -23.45 -12.45 -23.45 -15.45 -17.45 -15.45 -17.45 -16.45 -16.45 -16.45 -16.45 -18.45 -15.45 -18.45 -15.45 -20.45 -14.45 -20.45 -14.45 -23.45 -13.45 -23.45 -13.45 -22.45 -11.45 -22.45 -11.45 -19.45 -12.45 -19.45 -12.45 -15.45 -13.45 -15.45 -13.45 -13.45 -8.45 -13.45 -8.45 -14.45 -9.45 -14.45 -9.45 -18.45 -8.45 -18.45 -8.45 -20.45 -9.45 -20.45 -9.45 -22.45 -8.45 -22.45 -8.45 -23.45 M-12.45 -19.45 L-12.45 -21.45 -13.45 -21.45 -13.45 -20.45 -14.45 -20.45 -14.45 -18.45 -15.45 -18.45 -15.45 -16.45 -16.45 -16.45 -16.45 -15.45 -17.45 -15.45 -17.45 -14.45 -22.45 -14.45 -22.45 -13.45 -18.45 -13.45 -18.45 -12.45 -17.45 -12.45 -17.45 -11.45 -16.45 -11.45 -16.45 -13.45 -15.45 -13.45 -15.45 -15.45 -14.45 -15.45 -14.45 -17.45 -13.45 -17.45 -13.45 -19.45 -12.45 -19.45 M-7.45 -18.45 L-8.45 -18.45 -8.45 -14.45 -7.45 -14.45 -7.45 -13.45 -5.45 -13.45 -5.45 -14.45 -6.45 -14.45 -6.45 -16.45 -7.45 -16.45 -7.45 -18.45 M-10.45 -11.45 L-10.45 -12.45 -13.45 -12.45 -13.45 -10.45 -14.45 -10.45 -14.45 -12.45 -15.45 -12.45 -15.45 -7.45 -14.45 -7.45 -14.45 -6.45 -12.45 -6.45 -12.45 -5.45 -7.45 -5.45 -7.45 -6.45 -5.45 -6.45 -5.45 -7.45 -4.45 -7.45 -4.45 -12.45 -5.45 -12.45 -5.45 -10.45 -6.45 -10.45 -6.45 -12.45 -9.45 -12.45 -9.45 -11.45 -10.45 -11.45 -10.45 -9.45 -9.45 -9.45 -9.45 -11.45 -8.45 -11.45 -8.45 -10.45 -6.45 -10.45 -6.45 -9.45 -9.45 -9.45 -9.45 -8.45 -10.45 -8.45 -10.45 -9.45 -13.45 -9.45 -13.45 -10.45 -11.45 -10.45 -11.45 -11.45 -10.45 -11.45" fill="#000000" fill-rule="evenodd" stroke="none"/>
    <path d="M-12.45 -25.45 L-11.45 -25.45 -11.45 -26.45 -10.45 -26.45 -10.45 -24.45 -12.45 -24.45 -12.45 -25.45 M-9.45 -22.45 L-9.45 -23.45 -8.45 -23.45 -8.45 -22.45 -9.45 -22.45 M-12.45 -19.45 L-13.45 -19.45 -13.45 -17.45 -14.45 -17.45 -14.45 -15.45 -15.45 -15.45 -15.45 -13.45 -16.45 -13.45 -16.45 -11.45 -17.45 -11.45 -17.45 -12.45 -18.45 -12.45 -18.45 -13.45 -22.45 -13.45 -22.45 -14.45 -17.45 -14.45 -17.45 -15.45 -16.45 -15.45 -16.45 -16.45 -15.45 -16.45 -15.45 -18.45 -14.45 -18.45 -14.45 -20.45 -13.45 -20.45 -13.45 -21.45 -12.45 -21.45 -12.45 -19.45" fill="#ffffff" fill-rule="evenodd" stroke="none"/>
    <path d="M-13.45 -23.45 L-11.45 -23.45 -11.45 -22.45 -9.45 -22.45 -9.45 -20.45 -8.45 -20.45 -8.45 -18.45 -9.45 -18.45 -9.45 -14.45 -8.45 -14.45 -8.45 -13.45 -13.45 -13.45 -13.45 -15.45 -12.45 -15.45 -12.45 -19.45 -11.45 -19.45 -11.45 -22.45 -13.45 -22.45 -13.45 -23.45 M-9.45 -11.45 L-9.45 -12.45 -6.45 -12.45 -6.45 -10.45 -5.45 -10.45 -5.45 -12.45 -4.45 -12.45 -4.45 -7.45 -5.45 -7.45 -5.45 -6.45 -7.45 -6.45 -7.45 -5.45 -12.45 -5.45 -12.45 -6.45 -14.45 -6.45 -14.45 -7.45 -15.45 -7.45 -15.45 -12.45 -14.45 -12.45 -14.45 -10.45 -13.45 -10.45 -13.45 -12.45 -10.45 -12.45 -10.45 -11.45 -11.45 -11.45 -11.45 -10.45 -13.45 -10.45 -13.45 -9.45 -10.45 -9.45 -10.45 -8.45 -9.45 -8.45 -9.45 -9.45 -6.45 -9.45 -6.45 -10.45 -8.45 -10.45 -8.45 -11.45 -9.45 -11.45" fill="#808080" fill-rule="evenodd" stroke="none"/>
    <path d="M-10.45 -11.45 L-9.45 -11.45 -9.45 -9.45 -10.45 -9.45 -10.45 -11.45" fill="#c0c0c0" fill-rule="evenodd" stroke="none"/>
  </g>
</svg>
