<?xml version="1.0" encoding="UTF-8" standalone="no"?>
<svg xmlns:ffdec="https://www.free-decompiler.com/flash" xmlns:xlink="http://www.w3.org/1999/xlink" ffdec:objectType="shape" height="23.0px" width="15.05px" xmlns="http://www.w3.org/2000/svg">
  <g transform="matrix(1.0, 0.0, 0.0, 1.0, 13.1, 20.5)">
    <path d="M1.95 -6.5 L1.95 -4.5 0.9 -4.5 0.9 -2.5 -0.1 -2.5 -0.1 -0.5 -1.1 -0.5 -1.1 0.5 -2.1 0.5 -2.1 1.5 -4.1 1.5 -4.1 2.5 -9.1 2.5 -9.1 1.5 -11.1 1.5 -11.1 0.5 -12.1 0.5 -12.1 -0.5 -13.1 -0.5 -13.1 -5.5 -12.1 -5.5 -12.1 -7.5 -11.1 -7.5 -11.1 -9.5 -10.1 -9.5 -10.1 -11.5 -9.1 -11.5 -9.1 -13.5 -8.1 -13.5 -8.1 -16.5 -9.1 -16.5 -9.1 -19.5 -8.1 -19.5 -8.1 -20.5 -5.1 -20.5 -5.1 -19.5 -4.1 -19.5 -4.1 -16.5 -3.1 -16.5 -3.1 -14.5 -2.1 -14.5 -2.1 -12.5 -1.1 -12.5 -1.1 -10.5 -0.1 -10.5 -0.1 -8.5 0.9 -8.5 0.9 -6.5 1.95 -6.5 M0.9 -6.5 L-0.1 -6.5 -0.1 -8.5 -1.1 -8.5 -1.1 -10.5 -2.1 -10.5 -2.1 -12.5 -3.1 -12.5 -3.1 -14.5 -4.1 -14.5 -4.1 -16.5 -5.1 -16.5 -5.1 -18.5 -6.1 -18.5 -6.1 -19.5 -8.1 -19.5 -8.1 -16.5 -7.1 -16.5 -7.1 -17.5 -6.1 -17.5 -6.1 -15.5 -5.1 -15.5 -5.1 -13.5 -4.1 -13.5 -4.1 -11.5 -3.1 -11.5 -3.1 -9.5 -2.1 -9.5 -2.1 -7.5 -1.1 -7.5 -1.1 -5.5 -0.1 -5.5 -0.1 -4.5 0.9 -4.5 0.9 -6.5 M-8.1 -13.5 L-8.1 -11.5 -9.1 -11.5 -9.1 -9.5 -10.1 -9.5 -10.1 -7.5 -11.1 -7.5 -11.1 -6.5 -2.1 -6.5 -2.1 -7.5 -3.1 -7.5 -3.1 -9.5 -4.1 -9.5 -4.1 -11.5 -5.1 -11.5 -5.1 -13.5 -6.1 -13.5 -6.1 -15.5 -7.1 -15.5 -7.1 -13.5 -8.1 -13.5 M-12.1 -5.5 L-12.1 -0.5 -11.1 -0.5 -11.1 0.5 -9.1 0.5 -9.1 1.5 -4.1 1.5 -4.1 0.5 -2.1 0.5 -2.1 -0.5 -1.1 -0.5 -1.1 -5.5 -2.1 -5.5 -2.1 -3.5 -3.1 -3.5 -3.1 -2.5 -6.1 -2.5 -6.1 -1.5 -7.1 -1.5 -7.1 -2.5 -10.1 -2.5 -10.1 -3.5 -11.1 -3.5 -11.1 -5.5 -12.1 -5.5 M-7.1 -5.5 L-10.1 -5.5 -10.1 -3.5 -8.1 -3.5 -8.1 -4.5 -7.1 -4.5 -7.1 -5.5 M-6.1 -4.5 L-7.1 -4.5 -7.1 -2.5 -6.1 -2.5 -6.1 -4.5 -5.1 -4.5 -5.1 -3.5 -3.1 -3.5 -3.1 -5.5 -6.1 -5.5 -6.1 -4.5" fill="#000000" fill-rule="evenodd" stroke="none"/>
    <path d="M0.9 -6.5 L0.9 -4.5 -0.1 -4.5 -0.1 -5.5 -1.1 -5.5 -1.1 -7.5 -2.1 -7.5 -2.1 -9.5 -3.1 -9.5 -3.1 -11.5 -4.1 -11.5 -4.1 -13.5 -5.1 -13.5 -5.1 -15.5 -6.1 -15.5 -6.1 -17.5 -7.1 -17.5 -7.1 -16.5 -8.1 -16.5 -8.1 -19.5 -6.1 -19.5 -6.1 -18.5 -5.1 -18.5 -5.1 -16.5 -4.1 -16.5 -4.1 -14.5 -3.1 -14.5 -3.1 -12.5 -2.1 -12.5 -2.1 -10.5 -1.1 -10.5 -1.1 -8.5 -0.1 -8.5 -0.1 -6.5 0.9 -6.5" fill="#ffffff" fill-rule="evenodd" stroke="none"/>
    <path d="M1.9 -2.5 L1.95 -2.5 1.95 -1.5 1.9 -1.5 1.9 -2.5 M-7.1 -5.5 L-7.1 -4.5 -8.1 -4.5 -8.1 -3.5 -10.1 -3.5 -10.1 -5.5 -7.1 -5.5 M-12.1 -5.5 L-11.1 -5.5 -11.1 -3.5 -10.1 -3.5 -10.1 -2.5 -7.1 -2.5 -7.1 -1.5 -6.1 -1.5 -6.1 -2.5 -3.1 -2.5 -3.1 -3.5 -2.1 -3.5 -2.1 -5.5 -1.1 -5.5 -1.1 -0.5 -2.1 -0.5 -2.1 0.5 -4.1 0.5 -4.1 1.5 -9.1 1.5 -9.1 0.5 -11.1 0.5 -11.1 -0.5 -12.1 -0.5 -12.1 -5.5 M-6.1 -4.5 L-6.1 -5.5 -3.1 -5.5 -3.1 -3.5 -5.1 -3.5 -5.1 -4.5 -6.1 -4.5" fill="#808080" fill-rule="evenodd" stroke="none"/>
    <path d="M-7.1 -4.5 L-6.1 -4.5 -6.1 -2.5 -7.1 -2.5 -7.1 -4.5" fill="#c0c0c0" fill-rule="evenodd" stroke="none"/>
  </g>
</svg>
