<?xml version="1.0" encoding="UTF-8" standalone="no"?>
<svg xmlns:ffdec="https://www.free-decompiler.com/flash" xmlns:xlink="http://www.w3.org/1999/xlink" ffdec:objectType="shape" height="46.9px" width="50.05px" xmlns="http://www.w3.org/2000/svg">
  <g transform="matrix(1.0, 0.0, 0.0, 1.0, 22.1, 23.15)">
    <path d="M26.9 -7.15 L26.9 -2.2 25.9 -2.2 25.9 -0.15 24.9 -0.15 24.9 0.85 23.9 0.85 23.9 2.85 22.9 2.85 22.9 3.85 20.9 3.85 20.9 4.85 19.95 4.85 19.95 5.85 19.9 5.85 19.9 5.8 14.95 5.8 14.95 4.85 11.9 4.85 11.9 3.85 10.9 3.85 10.9 -0.15 9.9 -0.15 9.9 4.85 11.9 4.85 11.9 5.85 13.9 5.85 13.9 6.75 14.9 6.75 14.9 8.75 15.9 8.75 15.9 10.75 16.9 10.75 16.9 15.75 15.9 15.75 15.9 19.7 14.95 19.7 14.95 20.7 14.0 20.7 14.0 21.7 12.0 21.7 12.0 22.7 11.95 22.75 -5.05 22.75 -5.05 21.75 -6.05 21.75 -6.05 20.75 -7.05 20.75 -7.05 20.8 -7.1 20.8 -7.1 18.75 -8.1 18.75 -8.1 19.85 -12.1 19.85 -12.1 18.85 -13.1 18.85 -13.1 17.85 -14.1 17.85 -14.1 16.85 -16.1 16.85 -16.1 12.85 -15.1 12.85 -15.1 10.85 -14.1 10.85 -14.1 8.8 -15.1 8.8 -15.1 7.85 -17.1 7.85 -17.1 6.85 -18.1 6.85 -18.15 6.85 -18.15 5.85 -19.1 5.85 -19.1 4.85 -20.1 4.85 -20.1 2.85 -21.1 2.85 -21.1 -2.15 -20.1 -2.15 -20.1 -5.15 -19.1 -5.15 -19.1 -6.15 -17.1 -6.15 -17.1 -5.45 -16.1 -5.45 -16.1 -7.45 -17.1 -7.45 -17.1 -10.15 -18.1 -10.15 -18.1 -14.15 -17.1 -14.15 -17.1 -16.15 -16.1 -16.15 -16.1 -17.15 -14.1 -17.15 -14.1 -18.15 -10.1 -18.15 -10.1 -16.45 -9.1 -16.45 -9.1 -19.45 -8.1 -19.45 -8.1 -21.15 -5.1 -21.15 -5.1 -19.15 -4.1 -19.15 -4.1 -16.85 -3.15 -16.85 -3.15 -19.15 -2.1 -19.15 -2.1 -20.15 -1.1 -20.15 -1.1 -21.15 0.9 -21.15 0.9 -22.15 7.9 -22.15 7.9 -21.15 8.9 -21.15 8.9 -20.15 9.9 -20.15 9.9 -19.15 10.9 -19.15 10.9 -16.15 11.9 -16.15 11.9 -13.25 10.9 -13.25 10.9 -12.25 11.9 -12.25 11.9 -13.2 13.9 -13.2 13.9 -14.15 15.9 -14.15 15.9 -15.15 18.9 -15.15 18.9 -13.15 23.9 -13.15 23.9 -12.15 24.9 -12.15 24.9 -11.15 25.9 -11.15 25.9 -7.15 26.9 -7.15 M10.9 -12.25 L9.9 -12.25 9.9 -10.25 8.9 -10.25 8.9 -9.25 9.9 -9.25 9.9 -10.25 10.9 -10.25 10.9 -12.25 M-16.1 -5.45 L-16.1 -4.45 -15.1 -4.45 -15.1 -3.45 -14.1 -3.45 -14.1 -4.45 -15.1 -4.45 -15.1 -5.45 -16.1 -5.45 M10.9 -0.15 L11.9 -0.15 11.9 -1.15 10.9 -1.15 10.9 -0.15" fill="#ffffff" fill-rule="evenodd" stroke="none"/>
    <path d="M-18.15 6.85 L-19.1 6.85 -19.1 5.85 -20.1 5.85 -20.1 4.85 -21.1 4.85 -21.1 2.85 -22.1 2.85 -22.1 -2.15 -21.1 -2.15 -21.1 -5.15 -20.1 -5.15 -20.1 -6.15 -19.1 -6.15 -19.1 -7.15 -18.1 -7.15 -18.1 -9.15 -19.1 -9.15 -19.1 -15.15 -18.1 -15.15 -18.1 -17.15 -17.1 -17.15 -17.1 -18.15 -15.1 -18.15 -15.1 -19.15 -10.1 -19.15 -10.1 -20.45 -9.1 -20.45 -9.1 -22.15 -4.1 -22.15 -4.1 -20.1 -3.1 -20.1 -3.1 -21.15 -2.1 -21.15 -2.1 -22.2 -0.1 -22.2 -0.1 -23.15 8.9 -23.15 8.9 -22.15 9.9 -22.15 9.9 -21.15 10.9 -21.15 10.9 -19.15 11.9 -19.15 11.9 -17.15 12.9 -17.15 12.9 -14.15 13.9 -14.15 13.9 -15.15 15.9 -15.15 15.9 -16.15 18.9 -16.15 18.9 -15.15 19.9 -15.15 19.9 -14.15 23.9 -14.15 23.9 -13.15 25.9 -13.15 25.9 -11.15 26.9 -11.15 26.9 -7.15 25.9 -7.15 25.9 -11.15 24.9 -11.15 24.9 -12.15 23.9 -12.15 23.9 -13.15 18.9 -13.15 18.9 -15.15 15.9 -15.15 15.9 -14.15 13.9 -14.15 13.9 -13.2 11.9 -13.2 11.9 -12.25 10.9 -12.25 10.9 -13.25 11.9 -13.25 11.9 -16.15 10.9 -16.15 10.9 -19.15 9.9 -19.15 9.9 -20.15 8.9 -20.15 8.9 -21.15 7.9 -21.15 7.9 -22.15 0.9 -22.15 0.9 -21.15 -1.1 -21.15 -1.1 -20.15 -2.1 -20.15 -2.1 -19.15 -3.15 -19.15 -3.15 -16.85 -4.1 -16.85 -4.1 -19.15 -5.1 -19.15 -5.1 -21.15 -8.1 -21.15 -8.1 -19.45 -9.1 -19.45 -9.1 -16.45 -10.1 -16.45 -10.1 -18.15 -14.1 -18.15 -14.1 -17.15 -16.1 -17.15 -16.1 -16.15 -17.1 -16.15 -17.1 -14.15 -18.1 -14.15 -18.1 -10.15 -17.1 -10.15 -17.1 -7.45 -16.1 -7.45 -16.1 -5.45 -17.1 -5.45 -17.1 -6.15 -19.1 -6.15 -19.1 -5.15 -20.1 -5.15 -20.1 -2.15 -21.1 -2.15 -21.1 2.85 -20.1 2.85 -20.1 4.85 -19.1 4.85 -19.1 5.85 -18.15 5.85 -18.15 6.85 M26.9 -2.2 L26.9 0.8 25.9 0.8 25.9 1.85 24.9 1.85 24.9 3.85 23.9 3.85 23.9 4.85 21.9 4.85 21.9 5.85 19.95 5.85 19.95 4.85 20.9 4.85 20.9 3.85 22.9 3.85 22.9 2.85 23.9 2.85 23.9 0.85 24.9 0.85 24.9 -0.15 25.9 -0.15 25.9 -2.2 26.9 -2.2 M19.9 5.85 L19.9 6.8 15.9 6.8 15.9 7.75 16.9 7.75 16.9 10.75 17.9 10.75 17.9 16.75 16.9 16.75 16.9 19.7 15.95 19.7 15.95 20.7 15.0 20.7 15.0 22.7 12.0 22.7 12.0 21.7 14.0 21.7 14.0 20.7 14.95 20.7 14.95 19.7 15.9 19.7 15.9 15.75 16.9 15.75 16.9 10.75 15.9 10.75 15.9 8.75 14.9 8.75 14.9 6.75 13.9 6.75 13.9 5.85 11.9 5.85 11.9 4.85 9.9 4.85 9.9 -0.15 10.9 -0.15 10.9 -1.15 11.9 -1.15 11.9 -0.15 10.9 -0.15 10.9 3.85 11.9 3.85 11.9 4.85 14.95 4.85 14.95 5.8 19.9 5.8 19.9 5.85 M11.95 22.75 L11.95 23.75 -5.05 23.75 -5.05 22.75 -6.05 22.75 -6.05 21.75 -7.05 21.75 -7.05 20.8 -7.05 20.75 -6.05 20.75 -6.05 21.75 -5.05 21.75 -5.05 22.75 11.95 22.75 M-7.1 20.8 L-8.45 20.8 -8.45 20.85 -13.1 20.85 -13.1 19.85 -14.1 19.85 -14.1 18.85 -15.1 18.85 -15.1 17.85 -17.1 17.85 -17.1 11.8 -16.1 11.8 -16.1 9.85 -15.1 9.85 -15.1 8.85 -17.1 8.85 -17.1 7.85 -18.1 7.85 -18.1 6.85 -17.1 6.85 -17.1 7.85 -15.1 7.85 -15.1 8.8 -14.1 8.8 -14.1 10.85 -15.1 10.85 -15.1 12.85 -16.1 12.85 -16.1 16.85 -14.1 16.85 -14.1 17.85 -13.1 17.85 -13.1 18.85 -12.1 18.85 -12.1 19.85 -8.1 19.85 -8.1 18.75 -7.1 18.75 -7.1 20.8 M-16.1 -5.45 L-15.1 -5.45 -15.1 -4.45 -14.1 -4.45 -14.1 -3.45 -15.1 -3.45 -15.1 -4.45 -16.1 -4.45 -16.1 -5.45 M10.9 -12.25 L10.9 -10.25 9.9 -10.25 9.9 -9.25 8.9 -9.25 8.9 -10.25 9.9 -10.25 9.9 -12.25 10.9 -12.25 M27.95 -7.15 L27.95 -2.15 26.95 -2.15 26.95 -7.15 27.95 -7.15" fill="#000000" fill-rule="evenodd" stroke="none"/>
  </g>
</svg>
