<?xml version="1.0" encoding="UTF-8" standalone="no"?>
<svg xmlns:ffdec="https://www.free-decompiler.com/flash" xmlns:xlink="http://www.w3.org/1999/xlink" ffdec:objectType="shape" height="55.25px" width="63.5px" xmlns="http://www.w3.org/2000/svg">
  <g transform="matrix(1.0, 0.0, 0.0, 1.0, 29.9, 31.05)">
    <path d="M-13.0 -30.0 L-9.9 -30.0 -9.9 -29.0 -7.9 -29.0 -7.9 -28.0 -6.9 -28.0 -6.9 -27.0 -5.9 -27.0 -5.9 -28.0 -3.9 -28.0 -3.9 -29.0 3.1 -29.0 3.1 -28.0 4.1 -28.0 4.1 -27.0 5.1 -27.0 5.1 -25.0 6.1 -25.0 6.1 -24.0 7.1 -24.0 7.1 -25.0 7.2 -25.0 7.2 -25.2 9.9 -25.2 9.9 -26.2 16.9 -26.2 16.9 -24.2 18.9 -24.2 18.9 -22.2 19.9 -22.2 19.9 -21.2 20.6 -21.2 20.6 -21.8 24.6 -21.8 24.6 -20.8 26.6 -20.8 26.6 -18.8 27.6 -18.8 27.6 -12.8 28.6 -12.8 28.6 -11.8 29.6 -11.8 29.6 -10.8 31.6 -10.8 31.6 -8.8 32.6 -8.8 32.6 -6.8 33.6 -6.8 33.6 2.2 32.6 2.2 32.6 5.2 31.6 5.2 31.6 7.2 30.6 7.2 30.6 8.2 29.6 8.2 29.6 9.2 28.6 9.2 28.6 10.2 26.6 10.2 26.6 11.2 24.6 11.2 24.6 12.2 17.6 12.2 17.6 13.2 18.6 13.2 18.6 14.75 18.6 16.5 18.6 19.2 17.6 19.2 17.6 21.2 16.6 21.2 16.6 22.2 15.6 22.2 15.6 23.2 12.6 23.2 12.6 24.2 5.6 24.2 5.6 23.2 2.6 23.2 2.6 22.2 1.6 22.2 1.6 20.2 0.6 20.2 0.6 18.8 0.1 18.8 0.1 19.0 -1.9 19.0 -1.9 20.0 -6.15 20.0 -6.15 21.0 -11.1 21.0 -11.1 20.0 -13.9 20.0 -13.9 19.0 -15.9 19.0 -15.9 18.0 -16.9 18.0 -16.9 17.0 -17.9 17.0 -17.9 14.0 -18.9 14.0 -18.9 13.2 -19.1 13.2 -19.1 12.8 -26.0 12.8 -26.0 12.0 -27.9 12.0 -27.9 10.0 -28.9 10.0 -28.9 8.0 -29.9 8.0 -29.9 2.0 -28.9 2.0 -28.9 0.0 -27.9 0.0 -27.9 -1.0 -26.9 -1.0 -26.9 -2.0 -26.0 -2.0 -26.0 -2.2 -25.1 -2.2 -25.1 -3.9 -24.1 -3.9 -24.1 -1.2 -25.9 -1.2 -25.9 -1.0 -26.9 -1.0 -26.9 1.0 -27.9 1.0 -27.9 3.0 -28.9 3.0 -28.9 7.0 -27.9 7.0 -27.9 9.0 -26.9 9.0 -26.9 11.0 -24.9 11.0 -24.9 11.8 -19.1 11.8 -19.1 7.8 -18.1 7.8 -18.1 4.8 -16.1 4.8 -16.1 2.8 -15.1 2.8 -15.1 1.8 -14.1 1.8 -14.1 0.8 -12.1 0.8 -12.1 1.8 -13.1 1.8 -13.1 2.8 -14.1 2.8 -14.1 3.8 -15.1 3.8 -15.1 5.8 -17.1 5.8 -17.1 8.55 -17.9 8.55 -17.9 14.0 -16.9 14.0 -16.9 16.0 -15.9 16.0 -15.9 17.0 -14.9 17.0 -14.9 18.0 -12.9 18.0 -12.9 19.0 -11.1 19.0 -11.1 20.0 -6.15 20.0 -6.15 19.0 -2.9 19.0 -2.9 18.0 -0.9 18.0 -0.9 17.0 -0.1 17.0 -0.1 13.8 0.9 13.8 0.9 16.2 1.6 16.2 1.6 19.2 2.6 19.2 2.6 21.2 3.6 21.2 3.6 22.2 5.6 22.2 5.6 23.2 12.6 23.2 12.6 22.2 14.6 22.2 14.6 21.2 15.6 21.2 15.6 20.2 16.6 20.2 16.6 18.2 17.6 18.2 17.6 13.2 16.6 13.2 16.6 12.2 15.6 12.2 15.6 11.2 14.6 11.2 14.6 10.2 12.6 10.2 12.6 9.2 15.6 9.2 15.6 10.2 16.6 10.2 16.6 11.2 23.6 11.2 23.6 10.2 26.6 10.2 26.6 9.2 27.6 9.2 27.6 8.2 29.6 8.2 29.6 6.2 30.6 6.2 30.6 4.2 31.6 4.2 31.6 2.2 32.6 2.2 32.6 -6.8 31.6 -6.8 31.6 -8.8 30.6 -8.8 30.6 -9.8 29.6 -9.8 29.6 -10.8 27.6 -10.8 27.6 -11.8 26.6 -11.8 26.6 -12.8 25.6 -12.8 25.6 -13.8 26.6 -13.8 26.6 -17.8 25.6 -17.8 25.6 -19.8 23.6 -19.8 23.6 -20.8 21.6 -20.8 21.6 -19.8 20.6 -19.8 20.6 -17.8 19.6 -17.8 19.6 -20.8 19.9 -20.8 19.9 -21.2 18.9 -21.2 18.9 -22.2 17.9 -22.2 17.9 -23.2 15.9 -23.2 15.9 -25.2 10.9 -25.2 10.9 -24.2 8.1 -24.2 8.1 -24.0 7.2 -24.0 7.1 -24.0 7.1 -23.6 7.1 -23.0 6.9 -23.0 6.9 -18.2 5.9 -18.2 5.9 -23.0 5.1 -23.0 5.1 -25.0 4.1 -25.0 4.1 -26.0 3.1 -26.0 3.1 -27.0 2.1 -27.0 2.1 -28.0 -2.9 -28.0 -2.9 -27.0 -5.9 -27.0 -5.9 -25.0 -6.9 -25.0 -6.9 -24.0 -7.5 -24.0 -7.5 -23.6 -7.1 -23.6 -7.1 -20.2 -8.1 -20.2 -8.1 -24.2 -8.4 -24.2 -8.4 -25.2 -7.9 -25.2 -7.9 -27.0 -8.9 -27.0 -8.9 -28.0 -10.9 -28.0 -10.9 -29.0 -13.0 -29.0 -13.0 -30.0 M-25.1 -4.2 L-26.1 -4.2 -26.1 -5.2 -27.1 -5.2 -27.1 -6.0 -27.9 -6.0 -27.9 -8.0 -28.9 -8.0 -28.9 -14.0 -27.9 -14.0 -27.9 -15.0 -27.1 -15.0 -26.9 -15.0 -26.9 -13.0 -27.9 -13.0 -27.9 -9.0 -26.9 -9.0 -26.9 -7.0 -25.9 -7.0 -25.9 -6.0 -26.1 -6.0 -26.1 -5.2 -25.1 -5.2 -25.1 -4.2 M-27.1 -15.1 L-27.1 -16.2 -26.1 -16.2 -26.1 -17.2 -25.1 -17.2 -25.1 -18.2 -24.1 -18.2 -24.1 -19.2 -23.1 -19.2 -23.1 -25.1 -22.1 -25.1 -22.1 -25.05 -22.0 -25.05 -22.0 -25.0 -22.1 -25.0 -22.1 -18.2 -24.1 -18.2 -24.1 -17.2 -25.1 -17.2 -25.1 -16.2 -26.1 -16.2 -26.1 -15.1 -27.1 -15.1 M-20.9 -26.0 L-20.9 -27.0 -19.9 -27.0 -19.9 -29.0 -18.9 -29.0 -18.9 -30.0 -17.0 -30.0 -17.0 -29.0 -17.9 -29.0 -17.9 -28.0 -18.9 -28.0 -18.9 -27.0 -19.9 -27.0 -19.9 -26.0 -20.9 -26.0 M19.6 -17.8 L19.6 -15.8 18.6 -15.8 18.6 -17.8 19.6 -17.8 M5.9 -18.2 L5.9 -17.2 4.9 -17.2 4.9 -16.2 -0.1 -16.2 -0.1 -17.2 4.9 -17.2 4.9 -18.2 5.9 -18.2 M12.5 9.2 L10.6 9.2 10.6 8.2 12.6 8.2 12.6 9.2 12.5 9.2 M-13.05 -31.05 L-13.05 -30.05 -17.05 -30.05 -17.05 -31.05 -13.05 -31.05 M-21.95 -26.05 L-20.95 -26.05 -20.95 -25.05 -21.95 -25.05 -21.95 -26.05" fill="#000000" fill-rule="evenodd" stroke="none"/>
    <path d="M-25.1 -3.9 L-25.1 -4.2 -25.1 -5.2 -26.1 -5.2 -26.1 -6.0 -25.9 -6.0 -25.9 -7.0 -26.9 -7.0 -26.9 -9.0 -27.9 -9.0 -27.9 -13.0 -26.9 -13.0 -26.9 -15.0 -27.1 -15.0 -27.1 -15.1 -26.1 -15.1 -26.1 -16.2 -25.1 -16.2 -25.1 -17.2 -24.1 -17.2 -24.1 -18.2 -22.1 -18.2 -22.1 -25.0 -22.0 -25.0 -20.9 -25.0 -20.9 -26.0 -19.9 -26.0 -19.9 -27.0 -18.9 -27.0 -18.9 -28.0 -17.9 -28.0 -17.9 -29.0 -17.0 -29.0 -17.0 -30.0 -13.0 -30.0 -13.0 -29.0 -10.9 -29.0 -10.9 -28.0 -8.9 -28.0 -8.9 -27.0 -7.9 -27.0 -7.9 -25.2 -8.4 -25.2 -8.4 -24.2 -8.1 -24.2 -8.1 -20.2 -7.1 -20.2 -7.1 -23.6 -6.9 -23.6 -6.9 -24.0 -6.9 -25.0 -5.9 -25.0 -5.9 -27.0 -2.9 -27.0 -2.9 -28.0 2.1 -28.0 2.1 -27.0 3.1 -27.0 3.1 -26.0 4.1 -26.0 4.1 -25.0 5.1 -25.0 5.1 -23.0 5.9 -23.0 5.9 -18.2 6.9 -18.2 6.9 -23.0 7.1 -23.0 7.1 -23.6 7.2 -23.6 7.2 -24.0 8.1 -24.0 8.1 -24.2 10.9 -24.2 10.9 -25.2 15.9 -25.2 15.9 -23.2 17.9 -23.2 17.9 -22.2 18.9 -22.2 18.9 -21.2 19.9 -21.2 19.9 -20.8 19.6 -20.8 19.6 -17.8 20.6 -17.8 20.6 -19.8 21.6 -19.8 21.6 -20.8 23.6 -20.8 23.6 -19.8 25.6 -19.8 25.6 -17.8 26.6 -17.8 26.6 -13.8 25.6 -13.8 25.6 -12.8 26.6 -12.8 26.6 -11.8 27.6 -11.8 27.6 -10.8 29.6 -10.8 29.6 -9.8 30.6 -9.8 30.6 -8.8 31.6 -8.8 31.6 -6.8 32.6 -6.8 32.6 2.2 31.6 2.2 31.6 4.2 30.6 4.2 30.6 6.2 29.6 6.2 29.6 8.2 27.6 8.2 27.6 9.2 26.6 9.2 26.6 10.2 23.6 10.2 23.6 11.2 16.6 11.2 16.6 10.2 15.6 10.2 15.6 9.2 12.6 9.2 12.6 8.2 10.6 8.2 10.6 9.2 12.5 9.2 12.5 10.2 12.6 10.2 14.6 10.2 14.6 11.2 15.6 11.2 15.6 12.2 16.6 12.2 16.6 13.2 17.6 13.2 17.6 18.2 16.6 18.2 16.6 20.2 15.6 20.2 15.6 21.2 14.6 21.2 14.6 22.2 12.6 22.2 12.6 23.2 5.6 23.2 5.6 22.2 3.6 22.2 3.6 21.2 2.6 21.2 2.6 19.2 1.6 19.2 1.6 16.2 0.9 16.2 0.9 13.8 -0.1 13.8 -0.1 17.0 -0.9 17.0 -0.9 18.0 -2.9 18.0 -2.9 19.0 -6.15 19.0 -6.15 20.0 -11.1 20.0 -11.1 19.0 -12.9 19.0 -12.9 18.0 -14.9 18.0 -14.9 17.0 -15.9 17.0 -15.9 16.0 -16.9 16.0 -16.9 14.0 -17.9 14.0 -17.9 8.55 -17.1 8.55 -17.1 5.8 -15.1 5.8 -15.1 3.8 -14.1 3.8 -14.1 2.8 -13.1 2.8 -13.1 1.8 -12.1 1.8 -12.1 0.8 -14.1 0.8 -14.1 1.8 -15.1 1.8 -15.1 2.8 -16.1 2.8 -16.1 4.8 -18.1 4.8 -18.1 7.8 -19.1 7.8 -19.1 11.8 -24.9 11.8 -24.9 11.0 -26.9 11.0 -26.9 9.0 -27.9 9.0 -27.9 7.0 -28.9 7.0 -28.9 3.0 -27.9 3.0 -27.9 1.0 -26.9 1.0 -26.9 -1.0 -25.9 -1.0 -25.9 -1.2 -24.1 -1.2 -24.1 -3.9 -25.1 -3.9 M19.6 -17.8 L18.6 -17.8 18.6 -15.8 19.6 -15.8 19.6 -17.8 M5.9 -18.2 L4.9 -18.2 4.9 -17.2 -0.1 -17.2 -0.1 -16.2 4.9 -16.2 4.9 -17.2 5.9 -17.2 5.9 -18.2" fill="#ffffff" fill-rule="evenodd" stroke="none"/>
  </g>
</svg>
