<?xml version="1.0" encoding="UTF-8" standalone="no"?>
<svg xmlns:ffdec="https://www.free-decompiler.com/flash" xmlns:xlink="http://www.w3.org/1999/xlink" ffdec:objectType="shape" height="57.65px" width="62.05px" xmlns="http://www.w3.org/2000/svg">
  <g transform="matrix(1.0, 0.0, 0.0, 1.0, 34.6, 30.8)">
    <path d="M-26.6 -4.25 L-27.6 -4.25 -27.6 -7.25 -26.6 -7.25 -26.6 -8.25 -25.6 -8.25 -25.6 -10.8 -24.6 -10.8 -24.6 -12.75 -23.6 -12.75 -23.6 -15.1 -22.6 -15.1 -22.6 -16.1 -20.6 -16.1 -20.6 -17.1 -13.8 -17.1 -13.8 -18.2 -14.6 -18.2 -14.6 -23.2 -13.8 -23.2 -13.8 -24.8 -12.8 -24.8 -12.8 -26.8 -11.8 -26.8 -11.8 -27.8 -10.8 -27.8 -10.8 -28.8 -9.8 -28.8 -9.8 -29.8 -6.8 -29.8 -6.8 -30.8 1.2 -30.8 1.2 -29.8 4.2 -29.8 4.2 -28.8 7.2 -28.8 7.2 -27.8 8.2 -27.8 8.2 -26.8 9.2 -26.8 9.2 -24.8 10.2 -24.8 10.2 -22.8 11.2 -22.8 11.2 -17.8 15.2 -17.8 15.2 -16.8 17.2 -16.8 17.2 -15.8 18.2 -15.8 18.2 -13.8 19.2 -13.8 19.2 -10.8 20.2 -10.8 20.2 -5.8 19.2 -5.8 19.2 -2.8 18.2 -2.8 18.2 -1.8 17.2 -1.8 17.2 -0.8 14.2 -0.8 14.2 0.0 10.0 0.0 10.0 -1.0 8.0 -1.0 8.0 -2.0 7.0 -2.0 7.0 -3.0 6.0 -3.0 6.0 -4.0 5.0 -4.0 5.0 -5.0 4.0 -5.0 4.0 -10.3 4.2 -10.3 4.2 -10.8 3.2 -10.8 3.2 -9.8 0.0 -9.8 0.0 -9.0 1.0 -9.0 1.0 -4.0 2.0 -4.0 2.0 1.0 0.0 1.0 0.0 3.0 -1.0 3.0 -1.0 4.0 -2.0 4.0 -2.0 5.0 -2.8 5.0 -2.8 6.2 -3.8 6.2 -3.8 7.2 -4.8 7.2 -4.8 8.2 -3.8 8.2 -3.8 9.2 -2.8 9.2 -2.8 10.95 -2.55 10.95 -2.55 11.95 -1.55 11.95 -1.55 14.05 -0.55 14.05 -0.55 15.85 0.45 15.85 0.45 18.85 -0.55 18.85 -0.55 20.05 -1.55 20.05 -1.55 21.95 -2.55 21.95 -2.55 23.95 -3.55 23.95 -3.55 24.95 -5.55 24.95 -5.55 25.95 -6.55 25.95 -6.55 23.95 -4.55 23.95 -4.55 22.95 -3.55 22.95 -3.55 20.95 -2.55 20.95 -2.55 20.05 -1.55 20.05 -1.55 18.85 -0.55 18.85 -0.55 15.85 -1.55 15.85 -1.55 14.05 -2.55 14.05 -2.55 12.95 -3.55 12.95 -3.55 11.2 -3.8 11.2 -3.8 10.2 -4.8 10.2 -4.8 9.2 -5.8 9.2 -5.8 8.2 -6.8 8.2 -6.8 7.2 -4.8 7.2 -4.8 5.2 -3.8 5.2 -3.8 4.2 -3.0 4.2 -3.0 4.0 -2.0 4.0 -2.0 3.0 -1.0 3.0 -1.0 0.0 1.0 0.0 1.0 -4.0 0.0 -4.0 0.0 -8.0 -1.0 -8.0 -1.0 -9.8 -5.8 -9.8 -5.8 -10.8 -6.8 -10.8 -6.8 -11.8 -7.8 -11.8 -7.8 -12.8 -5.8 -12.8 -5.8 -11.8 -4.8 -11.8 -4.8 -10.8 3.2 -10.8 3.2 -11.8 6.2 -11.8 6.2 -10.8 5.2 -10.8 5.2 -9.8 5.0 -9.8 5.0 -5.0 6.0 -5.0 6.0 -4.0 7.0 -4.0 7.0 -3.0 8.0 -3.0 8.0 -2.0 11.0 -2.0 11.0 -1.0 14.2 -1.0 14.2 -1.8 16.2 -1.8 16.2 -2.8 17.2 -2.8 17.2 -3.8 18.2 -3.8 18.2 -5.8 19.2 -5.8 19.2 -9.8 18.2 -9.8 18.2 -12.8 17.2 -12.8 17.2 -14.8 16.2 -14.8 16.2 -15.8 14.2 -15.8 14.2 -16.8 11.2 -16.8 11.2 -17.8 10.2 -17.8 10.2 -21.8 9.2 -21.8 9.2 -23.8 8.8 -23.8 8.8 -24.8 8.2 -24.8 8.2 -25.8 7.2 -25.8 7.2 -26.8 6.2 -26.8 6.2 -27.8 3.2 -27.8 3.2 -28.8 0.2 -28.8 0.2 -29.8 -6.8 -29.8 -6.8 -28.8 -8.8 -28.8 -8.8 -27.8 -10.8 -27.8 -10.8 -25.8 -11.8 -25.8 -11.8 -23.8 -12.8 -23.8 -12.8 -23.2 -13.6 -23.2 -13.6 -18.2 -12.8 -18.2 -12.8 -15.8 -11.8 -15.8 -11.8 -13.8 -10.8 -13.8 -10.8 -12.8 -12.8 -12.8 -12.8 -14.8 -13.75 -14.8 -13.75 -16.1 -19.6 -16.1 -19.6 -15.1 -21.6 -15.1 -21.6 -14.1 -22.6 -14.1 -22.6 -12.65 -23.6 -12.65 -23.6 -9.8 -24.6 -9.8 -24.6 -8.2 -25.6 -8.2 -25.6 -7.25 -26.6 -7.25 -26.6 -7.2 -26.6 -4.25 M-6.6 25.95 L-6.6 26.85 -13.6 26.85 -13.6 25.85 -14.6 25.85 -14.6 24.95 -16.6 24.95 -16.6 23.95 -17.6 23.95 -17.6 22.95 -18.6 22.95 -18.6 20.95 -19.6 20.95 -19.6 17.95 -20.6 17.95 -20.6 13.95 -19.6 13.95 -19.6 11.95 -18.6 11.95 -18.6 9.95 -17.6 9.95 -17.6 6.95 -16.6 6.95 -16.6 4.95 -18.6 4.95 -18.6 3.95 -20.6 3.95 -20.6 2.95 -22.6 2.95 -22.6 1.95 -23.6 1.95 -23.6 0.95 -24.6 0.95 -24.6 -1.2 -25.6 -1.2 -25.6 -3.2 -26.6 -3.2 -26.6 -4.2 -25.6 -4.2 -25.6 -3.2 -24.6 -3.2 -24.6 -1.2 -23.6 -1.2 -23.6 -0.05 -22.6 -0.05 -22.6 0.95 -21.6 0.95 -21.6 1.95 -19.6 1.95 -19.6 2.95 -18.6 2.95 -18.6 3.95 -16.6 3.95 -16.6 4.95 -14.6 4.95 -14.6 3.95 -11.6 3.95 -11.6 4.95 -13.6 4.95 -13.6 5.95 -14.6 5.95 -14.6 6.95 -15.6 6.95 -15.6 7.95 -16.6 7.95 -16.6 9.95 -17.6 9.95 -17.6 12.95 -18.6 12.95 -18.6 14.95 -19.6 14.95 -19.6 16.95 -18.6 16.95 -18.6 19.95 -17.6 19.95 -17.6 21.95 -16.6 21.95 -16.6 22.95 -15.6 22.95 -15.6 23.95 -14.6 23.95 -14.6 24.85 -13.6 24.85 -13.6 25.85 -6.6 25.85 -6.6 25.95 M6.2 -11.8 L6.2 -12.8 8.2 -12.8 8.2 -11.8 6.2 -11.8 M20.45 3.85 L20.45 2.85 22.45 2.85 22.45 3.85 24.45 3.85 24.45 4.85 25.45 4.85 25.45 5.85 26.45 5.85 26.45 11.9 27.45 11.9 27.45 14.9 26.45 14.9 26.45 15.9 25.45 15.9 25.45 16.9 23.45 16.9 23.45 17.9 21.45 17.9 21.45 16.9 23.45 16.9 23.45 15.9 25.45 15.9 25.45 13.9 26.45 13.9 26.45 12.9 25.45 12.9 25.45 6.85 24.45 6.85 24.45 5.85 23.45 5.85 23.45 4.85 22.45 4.85 22.45 3.85 20.45 3.85 M21.4 16.85 L17.4 16.85 17.4 15.85 16.4 15.85 16.4 14.8 15.4 14.8 15.4 15.8 14.4 15.8 14.4 14.8 15.4 14.8 15.4 13.8 16.4 13.8 16.4 10.85 17.4 10.85 17.4 14.85 18.4 14.85 18.4 15.85 21.4 15.85 21.4 16.85 M14.35 15.85 L14.35 16.85 10.4 16.85 10.4 15.85 9.4 15.85 9.4 10.85 8.4 10.85 8.4 8.85 7.4 8.85 7.4 6.85 8.4 6.85 8.4 8.8 9.4 8.8 9.4 9.85 10.4 9.85 10.4 10.85 11.4 10.85 11.4 12.85 10.4 12.85 10.4 14.85 11.4 14.85 11.4 15.85 14.35 15.85 M8.4 6.8 L8.4 4.85 9.4 4.85 9.4 3.85 11.3 3.85 11.3 2.85 14.3 2.85 14.3 3.85 15.4 3.85 15.4 4.85 14.3 4.85 14.3 3.85 11.3 3.85 11.3 4.85 10.4 4.85 10.4 5.85 9.4 5.85 9.4 6.8 8.4 6.8 M15.45 4.85 L16.45 4.85 16.45 6.85 17.4 6.85 17.4 4.85 18.4 4.85 18.4 3.85 20.4 3.85 20.4 4.85 19.4 4.85 19.4 5.85 18.4 5.85 18.4 7.85 16.4 7.85 16.4 6.85 15.45 6.85 15.45 4.85 M-33.55 9.8 L-33.55 8.8 -32.55 8.8 -32.55 7.8 -31.55 7.8 -31.55 6.8 -26.7 6.8 -26.7 7.95 -25.6 7.95 -25.6 8.8 -24.6 8.8 -24.6 9.8 -23.6 9.8 -23.6 11.8 -22.6 11.8 -22.6 11.85 -22.6 14.8 -23.55 14.8 -23.6 14.8 -23.6 11.85 -24.6 11.85 -24.6 10.8 -25.6 10.8 -25.6 9.8 -26.6 9.8 -26.6 8.8 -27.6 8.8 -27.6 7.8 -30.55 7.8 -30.55 8.8 -31.55 8.8 -31.55 9.8 -33.55 9.8 M-33.6 12.8 L-34.6 12.8 -34.6 9.8 -33.6 9.8 -33.6 12.8 -32.6 12.8 -32.6 13.8 -33.6 13.8 -33.6 12.8 M-32.55 13.8 L-31.55 13.8 -31.55 14.8 -30.55 14.8 -30.55 15.8 -29.55 15.8 -29.55 16.8 -25.6 16.8 -25.6 15.8 -24.6 15.8 -24.6 14.85 -23.6 14.85 -23.6 16.8 -24.6 16.8 -24.6 17.8 -30.55 17.8 -30.55 16.8 -31.55 16.8 -31.55 15.8 -32.55 15.8 -32.55 13.8" fill="#000000" fill-rule="evenodd" stroke="none"/>
    <path d="M-6.55 25.95 L-6.6 25.95 -6.6 25.85 -13.6 25.85 -13.6 24.85 -14.6 24.85 -14.6 23.95 -15.6 23.95 -15.6 22.95 -16.6 22.95 -16.6 21.95 -17.6 21.95 -17.6 19.95 -18.6 19.95 -18.6 16.95 -19.6 16.95 -19.6 14.95 -18.6 14.95 -18.6 12.95 -17.6 12.95 -17.6 9.95 -16.6 9.95 -16.6 7.95 -15.6 7.95 -15.6 6.95 -14.6 6.95 -14.6 5.95 -13.6 5.95 -13.6 4.95 -11.6 4.95 -11.6 3.95 -14.6 3.95 -14.6 4.95 -16.6 4.95 -16.6 3.95 -18.6 3.95 -18.6 2.95 -19.6 2.95 -19.6 1.95 -21.6 1.95 -21.6 0.95 -22.6 0.95 -22.6 -0.05 -23.6 -0.05 -23.6 -1.2 -24.6 -1.2 -24.6 -3.2 -25.6 -3.2 -25.6 -4.2 -26.6 -4.2 -26.6 -4.25 -26.6 -7.2 -25.6 -7.2 -25.6 -7.25 -25.6 -8.2 -24.6 -8.2 -24.6 -9.8 -23.6 -9.8 -23.6 -12.65 -22.6 -12.65 -22.6 -14.1 -21.6 -14.1 -21.6 -15.1 -19.6 -15.1 -19.6 -16.1 -13.75 -16.1 -13.75 -14.8 -12.8 -14.8 -12.8 -12.8 -10.8 -12.8 -10.8 -13.8 -11.8 -13.8 -11.8 -15.8 -12.8 -15.8 -12.8 -18.2 -13.6 -18.2 -13.6 -23.2 -12.8 -23.2 -12.8 -23.8 -11.8 -23.8 -11.8 -25.8 -10.8 -25.8 -10.8 -27.8 -8.8 -27.8 -8.8 -28.8 -6.8 -28.8 -6.8 -29.8 0.2 -29.8 0.2 -28.8 3.2 -28.8 3.2 -27.8 6.2 -27.8 6.2 -26.8 7.2 -26.8 7.2 -25.8 8.2 -25.8 8.2 -24.8 8.8 -24.8 8.8 -23.8 9.2 -23.8 9.2 -21.8 10.2 -21.8 10.2 -17.8 11.2 -17.8 11.2 -16.8 14.2 -16.8 14.2 -15.8 16.2 -15.8 16.2 -14.8 17.2 -14.8 17.2 -12.8 18.2 -12.8 18.2 -9.8 19.2 -9.8 19.2 -5.8 18.2 -5.8 18.2 -3.8 17.2 -3.8 17.2 -2.8 16.2 -2.8 16.2 -1.8 14.2 -1.8 14.2 -1.0 11.0 -1.0 11.0 -2.0 8.0 -2.0 8.0 -3.0 7.0 -3.0 7.0 -4.0 6.0 -4.0 6.0 -5.0 5.0 -5.0 5.0 -9.8 5.2 -9.8 5.2 -10.8 6.2 -10.8 6.2 -11.8 3.2 -11.8 3.2 -10.8 -4.8 -10.8 -4.8 -11.8 -5.8 -11.8 -5.8 -12.8 -7.8 -12.8 -7.8 -11.8 -6.8 -11.8 -6.8 -10.8 -5.8 -10.8 -5.8 -9.8 -1.0 -9.8 -1.0 -8.0 0.0 -8.0 0.0 -4.0 1.0 -4.0 1.0 0.0 -1.0 0.0 -1.0 3.0 -2.0 3.0 -2.0 4.0 -3.0 4.0 -3.0 4.2 -3.8 4.2 -3.8 5.2 -4.8 5.2 -4.8 7.2 -6.8 7.2 -6.8 8.2 -5.8 8.2 -5.8 9.2 -4.8 9.2 -4.8 10.2 -3.8 10.2 -3.8 11.2 -3.55 11.2 -3.55 12.95 -2.55 12.95 -2.55 14.05 -1.55 14.05 -1.55 15.85 -0.55 15.85 -0.55 18.85 -1.55 18.85 -1.55 20.05 -2.55 20.05 -2.55 20.95 -3.55 20.95 -3.55 22.95 -4.55 22.95 -4.55 23.95 -6.55 23.95 -6.55 25.95 M6.2 -11.8 L8.2 -11.8 8.2 -12.8 6.2 -12.8 6.2 -11.8 M21.45 16.9 L21.4 16.85 21.4 15.85 18.4 15.85 18.4 14.85 17.4 14.85 17.4 10.85 16.4 10.85 16.4 13.8 15.4 13.8 15.4 14.8 14.4 14.8 14.4 15.8 14.35 15.85 11.4 15.85 11.4 14.85 10.4 14.85 10.4 12.85 11.4 12.85 11.4 10.85 10.4 10.85 10.4 9.85 9.4 9.85 9.4 8.8 8.4 8.8 8.4 6.85 8.4 6.8 9.4 6.8 9.4 5.85 10.4 5.85 10.4 4.85 11.3 4.85 11.3 3.85 14.3 3.85 14.3 4.85 15.4 4.85 15.45 4.85 15.45 6.85 16.4 6.85 16.4 7.85 18.4 7.85 18.4 5.85 19.4 5.85 19.4 4.85 20.4 4.85 20.4 3.85 20.45 3.85 22.45 3.85 22.45 4.85 23.45 4.85 23.45 5.85 24.45 5.85 24.45 6.85 25.45 6.85 25.45 12.9 26.45 12.9 26.45 13.9 25.45 13.9 25.45 15.9 23.45 15.9 23.45 16.9 21.45 16.9 M-33.55 9.8 L-31.55 9.8 -31.55 8.8 -30.55 8.8 -30.55 7.8 -27.6 7.8 -27.6 8.8 -26.6 8.8 -26.6 9.8 -25.6 9.8 -25.6 10.8 -24.6 10.8 -24.6 11.85 -23.6 11.85 -23.6 14.8 -23.6 14.85 -24.6 14.85 -24.6 15.8 -25.6 15.8 -25.6 16.8 -29.55 16.8 -29.55 15.8 -30.55 15.8 -30.55 14.8 -31.55 14.8 -31.55 13.8 -32.55 13.8 -32.6 13.8 -32.6 12.8 -33.6 12.8 -33.6 9.8 -33.55 9.8 M-23.55 14.8 L-22.6 14.8 -22.6 11.85 -22.55 11.85 -22.55 14.85 -23.55 14.85 -23.55 14.8" fill="#ffffff" fill-rule="evenodd" stroke="none"/>
  </g>
</svg>
