<?xml version="1.0" encoding="UTF-8" standalone="no"?>
<svg xmlns:ffdec="https://www.free-decompiler.com/flash" xmlns:xlink="http://www.w3.org/1999/xlink" ffdec:objectType="shape" height="43.4px" width="58.85px" xmlns="http://www.w3.org/2000/svg">
  <g transform="matrix(1.0, 0.0, 0.0, 1.0, 29.15, 23.2)">
    <path d="M8.05 -9.25 L7.1 -9.25 7.1 -11.25 8.1 -11.25 8.1 -13.2 9.1 -13.2 9.15 -14.2 11.15 -14.2 11.15 -15.2 15.15 -15.15 15.15 -14.1 17.1 -14.1 17.1 -12.05 22.1 -12.0 22.1 -10.0 23.1 -9.95 23.1 -9.25 24.05 -9.2 24.05 -5.9 25.05 -5.9 25.0 -3.85 24.0 -3.85 23.95 1.2 22.95 1.2 22.95 2.25 21.95 2.2 21.95 3.25 19.95 3.2 19.9 4.2 17.9 4.2 17.9 3.15 13.95 3.1 13.95 2.1 12.95 2.1 13.0 0.05 12.0 0.05 12.0 -4.0 13.0 -4.0 13.0 -5.05 10.05 -5.05 10.05 -6.1 8.05 -6.1 8.05 -9.2 9.05 -9.2 9.05 -7.1 10.05 -7.1 10.05 -6.1 14.05 -6.0 14.0 -3.0 13.0 -3.0 13.0 0.05 13.95 0.1 13.95 1.1 14.95 1.1 14.95 2.1 18.15 2.15 18.15 2.65 18.95 2.65 18.95 2.15 20.95 2.2 20.95 1.2 21.95 1.2 21.95 0.2 22.95 0.2 23.0 -3.85 24.0 -3.85 24.0 -4.85 23.0 -4.9 23.05 -7.95 22.05 -7.95 22.05 -8.95 21.05 -8.95 21.1 -11.0 18.1 -11.05 18.05 -8.0 17.05 -8.0 17.05 -6.0 16.05 -6.0 16.1 -9.05 17.05 -9.05 17.1 -11.05 16.1 -11.05 16.1 -13.1 15.1 -13.1 15.15 -14.1 11.15 -14.2 11.1 -13.15 10.1 -13.2 10.1 -12.15 9.1 -12.15 9.1 -11.2 8.1 -11.2 8.1 -9.25 8.05 -9.25 M1.2 -22.2 L3.2 -22.2 3.2 -21.2 4.2 -21.2 4.2 -20.2 5.2 -20.2 5.2 -16.2 4.2 -16.2 4.2 -15.2 2.2 -15.2 2.2 -16.2 -1.8 -16.2 -1.8 -17.2 -2.8 -17.2 -2.8 -18.2 -3.8 -18.2 -3.8 -21.2 -2.8 -21.2 -2.8 -23.2 1.2 -23.2 1.2 -22.2 -1.8 -22.2 -1.8 -20.2 -2.8 -20.2 -2.8 -19.2 -1.8 -19.2 -1.8 -18.2 -0.8 -18.2 -0.8 -17.2 4.2 -17.2 4.2 -19.2 3.2 -19.2 3.2 -20.2 2.2 -20.2 2.2 -21.2 1.2 -21.2 1.2 -22.2 M18.95 14.75 L18.0 14.75 18.0 14.7 17.95 14.7 17.95 13.8 18.95 13.8 18.95 12.8 19.95 12.8 19.95 13.8 20.95 13.8 20.95 14.85 19.95 14.8 19.95 15.85 19.0 15.85 19.0 14.8 19.95 14.8 19.95 13.8 18.95 13.8 18.95 14.75 M10.9 3.95 L14.9 3.95 14.9 4.95 15.9 4.95 15.9 8.95 14.9 8.95 14.9 11.95 13.9 11.95 13.9 12.95 11.9 12.95 11.9 13.95 5.9 13.95 5.9 12.95 2.9 12.95 2.9 11.95 1.9 11.95 1.9 10.95 2.9 10.95 2.9 9.95 3.9 9.95 3.9 8.95 4.9 8.95 4.9 7.95 9.9 7.95 9.9 4.95 10.9 4.95 10.9 3.95 M13.9 10.05 L13.9 8.95 14.9 8.95 14.9 4.95 11.9 4.95 11.9 5.95 10.9 5.95 10.9 9.95 8.9 9.95 8.9 8.95 5.9 8.95 5.9 9.95 4.9 9.95 4.9 10.95 2.9 10.95 2.9 11.95 6.9 11.95 6.9 12.95 10.9 12.95 10.9 11.95 12.9 11.95 12.9 10.95 13.85 10.95 13.9 10.95 13.9 10.05 M2.85 1.8 L1.85 1.8 1.85 0.8 -0.15 0.8 -0.15 1.8 -1.15 1.8 -1.15 2.8 -2.15 2.8 -2.15 4.8 -1.15 4.8 -1.15 5.8 0.85 5.8 0.85 4.8 1.85 4.8 1.85 3.8 0.85 3.8 0.85 2.8 2.85 2.8 2.85 1.8 M3.85 0.8 L3.85 3.8 2.85 3.8 2.85 5.8 1.85 5.8 1.85 6.8 -2.15 6.8 -2.15 4.8 -3.15 4.8 -3.15 2.8 -2.15 2.8 -2.15 0.8 -1.15 0.8 -1.15 -0.2 2.85 -0.2 2.85 0.8 3.85 0.8 M1.85 13.2 L1.85 14.2 2.85 14.2 2.85 18.2 1.85 18.2 1.85 19.2 -0.15 19.2 -0.15 20.2 -1.15 20.2 -1.15 19.2 -2.15 19.2 -2.15 18.2 -3.15 18.2 -3.15 17.2 -2.15 17.2 -2.15 16.2 -1.15 16.2 -1.15 15.2 -2.15 15.2 -2.15 12.2 0.85 12.2 0.85 13.2 1.85 13.2 M1.85 15.2 L0.85 15.2 0.85 13.2 -1.15 13.2 -1.15 15.2 -0.15 15.2 -0.15 16.2 -1.15 16.2 -1.15 17.2 -2.15 17.2 -2.15 18.2 -1.15 18.2 -1.15 19.2 -0.15 19.2 -0.15 18.2 1.85 18.2 1.85 15.2 M16.05 16.8 L16.0 16.8 15.95 17.8 14.95 17.8 14.95 16.8 16.0 16.8 16.0 15.8 17.0 15.8 17.0 16.8 18.0 16.8 17.95 17.85 16.95 17.8 17.0 16.8 16.85 16.8 16.05 16.8 M16.9 17.85 L16.9 18.85 16.0 18.85 16.0 17.8 16.9 17.85 M-13.05 3.1 L-13.05 4.1 -17.05 4.1 -17.05 3.1 -19.05 3.1 -19.05 2.1 -20.05 2.1 -20.05 0.1 -21.05 0.1 -21.05 -2.65 -21.05 -5.15 -20.05 -5.2 -20.05 -6.2 -19.05 -6.2 -19.05 -7.2 -18.05 -7.2 -18.05 -8.2 -12.1 -8.25 -12.05 -7.2 -11.05 -7.2 -11.05 -6.2 -10.05 -6.2 -10.1 -4.15 -9.1 -4.15 -9.05 -2.9 -9.05 2.1 -10.05 2.1 -10.05 3.1 -13.0 3.1 -13.0 2.1 -11.05 2.1 -11.05 1.1 -10.05 1.1 -10.05 -2.85 -10.1 -4.15 -11.1 -4.15 -11.05 -5.15 -12.05 -5.2 -12.05 -6.2 -13.1 -6.2 -13.05 -7.25 -17.05 -7.2 -17.05 -6.2 -18.05 -6.2 -18.05 -5.2 -19.05 -5.2 -19.05 -4.2 -20.05 -4.15 -20.05 -2.9 -20.05 -0.9 -19.05 -0.9 -19.05 1.1 -18.05 1.1 -18.05 2.1 -17.0 2.1 -17.0 3.1 -13.05 3.1 M-26.15 11.9 L-26.15 12.9 -25.15 12.95 -25.15 14.95 -26.15 14.95 -26.15 15.95 -28.15 15.95 -28.15 14.95 -29.15 14.9 -29.15 12.9 -28.15 12.9 -28.15 11.9 -26.15 11.9 M-26.15 12.9 L-28.15 12.9 -28.15 14.95 -26.15 14.95 -26.15 12.9" fill="#000000" fill-rule="evenodd" stroke="none"/>
    <path d="M8.05 -9.2 L8.05 -9.25 8.1 -9.25 8.1 -11.2 9.1 -11.2 9.1 -12.15 10.1 -12.15 10.1 -13.2 11.1 -13.15 11.15 -14.2 15.15 -14.1 15.1 -13.1 16.1 -13.1 16.1 -11.05 17.1 -11.05 17.05 -9.05 16.1 -9.05 16.05 -6.0 17.05 -6.0 17.05 -8.0 18.05 -8.0 18.1 -11.05 21.1 -11.0 21.05 -8.95 22.05 -8.95 22.05 -7.95 23.05 -7.95 23.0 -4.9 24.0 -4.85 24.0 -3.85 23.0 -3.85 22.95 0.2 21.95 0.2 21.95 1.2 20.95 1.2 20.95 2.2 18.95 2.15 18.95 2.65 18.15 2.65 18.15 2.15 14.95 2.1 14.95 1.1 13.95 1.1 13.95 0.1 13.0 0.05 13.0 -3.0 14.0 -3.0 14.05 -6.0 10.05 -6.1 10.05 -7.1 9.05 -7.1 9.05 -9.2 8.05 -9.2 M1.2 -22.2 L1.2 -21.2 2.2 -21.2 2.2 -20.2 3.2 -20.2 3.2 -19.2 4.2 -19.2 4.2 -17.2 -0.8 -17.2 -0.8 -18.2 -1.8 -18.2 -1.8 -19.2 -2.8 -19.2 -2.8 -20.2 -1.8 -20.2 -1.8 -22.2 1.2 -22.2 M29.7 9.2 L29.65 9.2 29.65 8.3 29.7 8.3 29.7 9.2 M19.0 14.8 L19.0 14.75 18.95 14.75 18.95 13.8 19.95 13.8 19.95 14.8 19.0 14.8 M13.85 10.95 L12.9 10.95 12.9 11.95 10.9 11.95 10.9 12.95 6.9 12.95 6.9 11.95 2.9 11.95 2.9 10.95 4.9 10.95 4.9 9.95 5.9 9.95 5.9 8.95 8.9 8.95 8.9 9.95 10.9 9.95 10.9 5.95 11.9 5.95 11.9 4.95 14.9 4.95 14.9 8.95 13.9 8.95 13.9 10.05 13.85 10.05 13.85 10.95 M2.85 1.8 L2.85 2.8 0.85 2.8 0.85 3.8 1.85 3.8 1.85 4.8 0.85 4.8 0.85 5.8 -1.15 5.8 -1.15 4.8 -2.15 4.8 -2.15 2.8 -1.15 2.8 -1.15 1.8 -0.15 1.8 -0.15 0.8 1.85 0.8 1.85 1.8 2.85 1.8 M1.85 15.2 L1.85 18.2 -0.15 18.2 -0.15 19.2 -1.15 19.2 -1.15 18.2 -2.15 18.2 -2.15 17.2 -1.15 17.2 -1.15 16.2 -0.15 16.2 -0.15 15.2 -1.15 15.2 -1.15 13.2 0.85 13.2 0.85 15.2 1.85 15.2 M16.85 16.8 L16.8 17.05 16.9 17.05 16.9 17.85 16.0 17.8 16.05 16.8 16.85 16.8 M-13.0 3.1 L-13.05 3.1 -17.0 3.1 -17.0 2.1 -18.05 2.1 -18.05 1.1 -19.05 1.1 -19.05 -0.9 -20.05 -0.9 -20.05 -2.9 -20.05 -4.15 -19.05 -4.2 -19.05 -5.2 -18.05 -5.2 -18.05 -6.2 -17.05 -6.2 -17.05 -7.2 -13.05 -7.25 -13.1 -6.2 -12.05 -6.2 -12.05 -5.2 -11.05 -5.15 -11.1 -4.15 -10.1 -4.15 -10.05 -2.85 -10.05 1.1 -11.05 1.1 -11.05 2.1 -13.0 2.1 -13.0 3.1 M-26.15 12.9 L-26.15 14.95 -28.15 14.95 -28.15 12.9 -26.15 12.9" fill="#ffffff" fill-rule="evenodd" stroke="none"/>
  </g>
</svg>
