<?xml version="1.0" encoding="UTF-8" standalone="no"?>
<svg xmlns:ffdec="https://www.free-decompiler.com/flash" xmlns:xlink="http://www.w3.org/1999/xlink" ffdec:objectType="shape" height="29.0px" width="33.0px" xmlns="http://www.w3.org/2000/svg">
  <g transform="matrix(1.0, 0.0, 0.0, 1.0, 16.0, 15.0)">
    <path d="M6.0 -14.0 L8.0 -14.0 8.0 -13.0 6.0 -13.0 6.0 -14.0 -6.0 -14.0 -6.0 -13.0 -7.0 -13.0 -7.0 -12.0 -6.0 -12.0 -6.0 -11.0 -5.0 -11.0 -5.0 -10.0 -4.0 -10.0 -4.0 -9.0 -3.0 -9.0 -3.0 -8.0 2.0 -8.0 2.0 -7.0 5.0 -7.0 5.0 -6.0 7.0 -6.0 7.0 -5.0 9.0 -5.0 9.0 -6.0 10.0 -6.0 10.0 -7.0 11.0 -7.0 11.0 -8.0 12.0 -8.0 12.0 -9.0 11.0 -9.0 11.0 -10.0 10.0 -10.0 10.0 -11.0 9.0 -11.0 9.0 -12.0 8.0 -12.0 8.0 -13.0 10.0 -13.0 10.0 -12.0 11.0 -12.0 11.0 -10.0 12.0 -10.0 12.0 -9.0 13.0 -9.0 13.0 -8.0 14.0 -8.0 14.0 -6.0 15.0 -6.0 15.0 -1.0 14.0 -1.0 14.0 0.0 13.0 0.0 13.0 1.0 14.0 1.0 14.0 2.0 15.0 2.0 15.0 3.0 17.0 3.0 17.0 10.0 16.0 10.0 16.0 11.0 15.0 11.0 15.0 12.0 14.0 12.0 14.0 13.0 13.0 13.0 13.0 14.0 9.0 14.0 9.0 -4.0 7.0 -4.0 7.0 -5.0 5.0 -5.0 5.0 -6.0 1.0 -6.0 1.0 -7.0 -4.0 -7.0 -4.0 -6.0 -6.0 -6.0 -6.0 -5.0 -7.0 -5.0 -7.0 -4.0 -8.0 -4.0 -8.0 14.0 -12.0 14.0 -12.0 13.0 -13.0 13.0 -13.0 12.0 -14.0 12.0 -14.0 11.0 -15.0 11.0 -15.0 10.0 -16.0 10.0 -16.0 3.0 -14.0 3.0 -14.0 2.0 -13.0 2.0 -13.0 1.0 -12.0 1.0 -12.0 0.0 -13.0 0.0 -13.0 -1.0 -14.0 -1.0 -14.0 -6.0 -13.0 -6.0 -13.0 -8.0 -12.0 -8.0 -12.0 -10.0 -11.0 -10.0 -11.0 -12.0 -9.0 -12.0 -9.0 -13.0 -8.0 -13.0 -8.0 -14.0 -7.0 -14.0 -7.0 -15.0 6.0 -15.0 6.0 -14.0 M10.0 -4.0 L11.0 -4.0 11.0 -5.0 10.0 -5.0 10.0 -4.0 M12.0 -7.0 L12.0 -6.0 13.0 -6.0 13.0 -7.0 12.0 -7.0 M15.0 3.0 L13.0 3.0 13.0 2.0 12.0 2.0 12.0 0.0 13.0 0.0 13.0 -1.0 14.0 -1.0 14.0 -5.0 13.0 -5.0 13.0 -4.0 12.0 -4.0 12.0 -3.0 10.0 -3.0 10.0 13.0 12.0 13.0 12.0 12.0 13.0 12.0 13.0 11.0 14.0 11.0 14.0 10.0 15.0 10.0 15.0 9.0 16.0 9.0 16.0 4.0 15.0 4.0 15.0 3.0 M12.0 -5.0 L12.0 -6.0 11.0 -6.0 11.0 -5.0 12.0 -5.0 M-12.0 -7.0 L-12.0 -6.0 -11.0 -6.0 -11.0 -7.0 -12.0 -7.0 M-7.0 -5.0 L-7.0 -6.0 -6.0 -6.0 -6.0 -7.0 -4.0 -7.0 -4.0 -8.0 -5.0 -8.0 -5.0 -9.0 -6.0 -9.0 -6.0 -10.0 -7.0 -10.0 -7.0 -11.0 -8.0 -11.0 -8.0 -12.0 -9.0 -12.0 -9.0 -11.0 -10.0 -11.0 -10.0 -10.0 -11.0 -10.0 -11.0 -8.0 -10.0 -8.0 -10.0 -7.0 -9.0 -7.0 -9.0 -6.0 -8.0 -6.0 -8.0 -5.0 -7.0 -5.0 M-11.0 -5.0 L-10.0 -5.0 -10.0 -6.0 -11.0 -6.0 -11.0 -5.0 M-13.0 -1.0 L-12.0 -1.0 -12.0 0.0 -11.0 0.0 -11.0 2.0 -12.0 2.0 -12.0 3.0 -14.0 3.0 -14.0 4.0 -15.0 4.0 -15.0 9.0 -14.0 9.0 -14.0 10.0 -13.0 10.0 -13.0 11.0 -12.0 11.0 -12.0 12.0 -11.0 12.0 -11.0 13.0 -9.0 13.0 -9.0 -3.0 -11.0 -3.0 -11.0 -4.0 -12.0 -4.0 -12.0 -5.0 -13.0 -5.0 -13.0 -1.0 M-10.0 -5.0 L-10.0 -4.0 -9.0 -4.0 -9.0 -5.0 -10.0 -5.0" fill="#000000" fill-rule="evenodd" stroke="none"/>
    <path d="M6.0 -14.0 L6.0 -13.0 8.0 -13.0 8.0 -12.0 9.0 -12.0 9.0 -11.0 10.0 -11.0 10.0 -10.0 11.0 -10.0 11.0 -9.0 12.0 -9.0 12.0 -8.0 11.0 -8.0 11.0 -7.0 10.0 -7.0 10.0 -6.0 9.0 -6.0 9.0 -5.0 7.0 -5.0 7.0 -6.0 5.0 -6.0 5.0 -7.0 2.0 -7.0 2.0 -8.0 -3.0 -8.0 -3.0 -9.0 -4.0 -9.0 -4.0 -10.0 -5.0 -10.0 -5.0 -11.0 -6.0 -11.0 -6.0 -12.0 -7.0 -12.0 -7.0 -13.0 -6.0 -13.0 -6.0 -14.0 6.0 -14.0 M12.0 -7.0 L13.0 -7.0 13.0 -6.0 12.0 -6.0 12.0 -7.0 M10.0 -4.0 L10.0 -5.0 11.0 -5.0 11.0 -4.0 10.0 -4.0 M15.0 3.0 L15.0 4.0 16.0 4.0 16.0 9.0 15.0 9.0 15.0 10.0 14.0 10.0 14.0 11.0 13.0 11.0 13.0 12.0 12.0 12.0 12.0 13.0 10.0 13.0 10.0 -3.0 12.0 -3.0 12.0 -4.0 13.0 -4.0 13.0 -5.0 14.0 -5.0 14.0 -1.0 13.0 -1.0 13.0 0.0 12.0 0.0 12.0 2.0 13.0 2.0 13.0 3.0 15.0 3.0 M-12.0 -7.0 L-11.0 -7.0 -11.0 -6.0 -12.0 -6.0 -12.0 -7.0 M12.0 -5.0 L11.0 -5.0 11.0 -6.0 12.0 -6.0 12.0 -5.0 M-7.0 -5.0 L-8.0 -5.0 -8.0 -6.0 -9.0 -6.0 -9.0 -7.0 -10.0 -7.0 -10.0 -8.0 -11.0 -8.0 -11.0 -10.0 -10.0 -10.0 -10.0 -11.0 -9.0 -11.0 -9.0 -12.0 -8.0 -12.0 -8.0 -11.0 -7.0 -11.0 -7.0 -10.0 -6.0 -10.0 -6.0 -9.0 -5.0 -9.0 -5.0 -8.0 -4.0 -8.0 -4.0 -7.0 -6.0 -7.0 -6.0 -6.0 -7.0 -6.0 -7.0 -5.0 M-11.0 -5.0 L-11.0 -6.0 -10.0 -6.0 -10.0 -5.0 -11.0 -5.0 M-13.0 -1.0 L-13.0 -5.0 -12.0 -5.0 -12.0 -4.0 -11.0 -4.0 -11.0 -3.0 -9.0 -3.0 -9.0 13.0 -11.0 13.0 -11.0 12.0 -12.0 12.0 -12.0 11.0 -13.0 11.0 -13.0 10.0 -14.0 10.0 -14.0 9.0 -15.0 9.0 -15.0 4.0 -14.0 4.0 -14.0 3.0 -12.0 3.0 -12.0 2.0 -11.0 2.0 -11.0 0.0 -12.0 0.0 -12.0 -1.0 -13.0 -1.0 M-10.0 -5.0 L-9.0 -5.0 -9.0 -4.0 -10.0 -4.0 -10.0 -5.0" fill="#ffffff" fill-rule="evenodd" stroke="none"/>
  </g>
</svg>
