<?xml version="1.0" encoding="UTF-8" standalone="no"?>
<svg xmlns:ffdec="https://www.free-decompiler.com/flash" xmlns:xlink="http://www.w3.org/1999/xlink" ffdec:objectType="shape" height="29.0px" width="39.0px" xmlns="http://www.w3.org/2000/svg">
  <g transform="matrix(1.0, 0.0, 0.0, 1.0, 23.05, -6.0)">
    <path d="M0.95 11.0 L1.95 11.0 1.95 12.0 3.95 12.0 3.95 10.0 4.95 10.0 4.95 9.0 5.95 9.0 5.95 10.0 6.95 10.0 6.95 13.0 7.95 13.0 7.95 14.0 8.95 14.0 8.95 15.0 9.95 15.0 9.95 16.0 10.95 16.0 10.95 17.0 11.95 17.0 11.95 18.0 14.95 18.0 14.95 19.0 15.95 19.0 15.95 22.0 14.95 22.0 14.95 23.0 13.95 23.0 13.95 24.0 9.75 24.0 9.75 25.0 8.95 25.0 8.95 27.0 9.0 27.1 8.95 27.1 8.95 27.0 4.95 27.0 4.95 28.0 5.95 28.0 5.95 30.0 6.95 30.0 6.95 32.0 7.95 32.0 7.95 35.0 4.95 35.0 4.95 34.0 3.95 34.0 3.95 35.0 0.95 35.0 0.95 34.0 -0.05 34.0 -0.05 33.0 -1.05 33.0 -1.05 32.0 -2.05 32.0 -2.05 31.0 -10.05 31.0 -10.05 30.0 -12.05 30.0 -12.05 29.0 -16.05 29.0 -16.05 30.0 -21.05 30.0 -21.05 29.0 -22.05 29.0 -22.05 28.0 -23.05 28.0 -23.05 27.0 -22.05 27.0 -22.05 26.0 -20.05 26.0 -20.05 25.0 -19.05 25.0 -19.05 19.0 -18.05 19.0 -18.05 17.0 -17.05 17.0 -17.05 13.0 -18.05 13.0 -18.05 9.0 -17.05 9.0 -17.05 7.0 -16.05 7.0 -16.05 6.0 -13.05 6.0 -13.05 7.0 -11.05 7.0 -11.05 8.0 -10.05 8.0 -10.05 9.0 -9.05 9.0 -9.05 10.0 -11.05 10.0 -11.05 9.0 -13.05 9.0 -13.05 8.0 -14.05 8.0 -14.05 9.0 -15.05 9.0 -15.05 13.0 -14.05 13.0 -14.05 14.0 -13.05 14.0 -13.05 15.0 -10.05 15.0 -10.05 16.0 -2.05 16.0 -2.05 15.0 -1.05 15.0 -1.05 14.0 -2.05 14.0 -2.05 9.0 -1.05 9.0 -1.05 10.0 0.95 10.0 0.95 11.0 M8.95 16.0 L8.95 15.0 7.95 15.0 7.95 14.0 6.95 14.0 6.95 13.0 5.95 13.0 5.95 11.0 4.95 11.0 4.95 13.0 0.95 13.0 0.95 12.0 -0.05 12.0 -0.05 11.0 -1.05 11.0 -1.05 13.0 -0.05 13.0 -0.05 14.0 -0.05 15.0 -0.05 16.0 -2.05 16.0 -2.05 17.0 -10.05 17.0 -10.05 16.0 -13.05 16.0 -13.05 15.0 -15.05 15.0 -15.05 16.0 -16.05 16.0 -16.05 17.0 -17.05 17.0 -17.05 19.0 -18.05 19.0 -18.05 23.0 -18.05 24.0 -18.05 26.0 -20.05 26.0 -20.05 27.0 -21.05 27.0 -21.05 29.0 -16.05 29.0 -16.05 28.0 -15.05 28.0 -15.05 27.0 -14.05 27.0 -14.05 28.0 -12.05 28.0 -12.05 29.0 -10.05 29.0 -10.05 30.0 -3.05 30.0 -3.05 28.0 -2.05 28.0 -2.05 30.0 -1.05 30.0 -1.05 31.0 -1.05 32.0 -0.05 32.0 -0.05 33.0 0.95 33.0 0.95 34.0 1.95 34.0 2.95 34.0 2.95 32.0 1.95 32.0 1.95 30.0 0.95 30.0 0.95 28.0 1.95 28.0 1.95 30.0 2.95 30.0 2.95 31.0 2.95 32.0 3.95 32.0 3.95 33.0 4.95 33.0 4.95 34.0 6.95 34.0 6.95 32.0 5.95 32.0 5.95 30.0 4.95 30.0 4.95 29.0 3.95 29.0 3.95 28.0 3.95 26.0 2.75 26.0 2.75 25.0 1.75 25.0 1.75 24.0 1.75 23.0 1.75 21.0 1.95 21.0 2.75 21.0 2.75 23.0 3.75 23.0 3.75 24.0 2.75 24.0 2.75 25.0 4.75 25.0 4.75 24.0 8.75 24.0 8.75 23.0 4.75 23.0 4.75 21.0 2.75 21.0 2.75 20.0 4.75 20.0 4.75 21.0 5.75 21.0 5.75 22.0 7.95 22.0 8.95 22.0 9.75 22.0 9.75 23.0 10.95 23.0 10.95 22.0 9.95 22.0 9.95 20.0 9.95 19.0 10.95 19.0 10.95 18.0 10.95 17.0 9.95 17.0 9.95 16.0 8.95 16.0 M8.95 19.0 L7.95 19.0 7.95 18.0 7.95 17.0 8.95 17.0 8.95 18.0 8.95 19.0 M4.75 25.0 L4.75 26.0 7.95 26.0 7.95 25.0 4.75 25.0 M5.95 19.0 L4.95 19.0 4.95 17.0 5.95 17.0 5.95 19.0 M11.95 20.0 L11.95 21.0 13.95 21.0 13.95 20.0 11.95 20.0" fill="#000000" fill-rule="evenodd" stroke="none"/>
    <path d="M-0.05 14.0 L-0.05 13.0 -1.05 13.0 -1.05 11.0 -0.05 11.0 -0.05 12.0 0.95 12.0 0.95 13.0 4.95 13.0 4.95 11.0 5.95 11.0 5.95 13.0 6.95 13.0 6.95 14.0 7.95 14.0 7.95 15.0 8.95 15.0 8.95 16.0 7.95 16.0 7.95 17.0 6.95 17.0 6.95 18.0 7.95 18.0 7.95 19.0 8.95 19.0 8.95 20.0 9.95 20.0 9.95 22.0 10.95 22.0 10.95 23.0 9.75 23.0 9.75 22.0 8.95 22.0 8.95 21.0 7.95 21.0 7.95 22.0 5.75 22.0 5.75 21.0 4.75 21.0 4.75 20.0 2.75 20.0 1.95 20.0 1.95 21.0 1.75 21.0 1.75 23.0 0.95 23.0 0.95 22.0 -0.05 22.0 -0.05 21.0 -1.05 21.0 -1.05 22.0 -0.05 22.0 -0.05 23.0 0.95 23.0 0.95 24.0 -0.05 24.0 -0.05 25.0 0.95 25.0 0.95 24.0 1.75 24.0 1.75 25.0 2.75 25.0 2.75 26.0 3.95 26.0 3.95 28.0 2.95 28.0 2.95 30.0 1.95 30.0 1.95 28.0 0.95 28.0 0.95 30.0 1.95 30.0 1.95 32.0 2.95 32.0 2.95 34.0 1.95 34.0 1.95 33.0 0.95 33.0 -0.05 33.0 -0.05 32.0 -0.05 31.0 -1.05 31.0 -1.05 30.0 -2.05 30.0 -2.05 28.0 -2.05 27.0 -3.05 27.0 -3.05 26.0 -4.05 26.0 -4.05 27.0 -3.05 27.0 -3.05 28.0 -3.05 30.0 -10.05 30.0 -10.05 29.0 -12.05 29.0 -12.05 28.0 -14.05 28.0 -14.05 27.0 -15.05 27.0 -15.05 28.0 -16.05 28.0 -16.05 29.0 -21.05 29.0 -21.05 27.0 -20.05 27.0 -20.05 26.0 -18.05 26.0 -18.05 24.0 -17.05 24.0 -17.05 23.0 -18.05 23.0 -18.05 19.0 -17.05 19.0 -17.05 17.0 -16.05 17.0 -16.05 16.0 -15.05 16.0 -15.05 15.0 -13.05 15.0 -13.05 16.0 -10.05 16.0 -10.05 17.0 -2.05 17.0 -2.05 16.0 -0.05 16.0 -0.05 15.0 0.95 15.0 0.95 16.0 1.95 16.0 1.95 17.0 2.95 17.0 2.95 16.0 1.95 16.0 1.95 15.0 0.95 15.0 0.95 14.0 -0.05 14.0 M8.95 16.0 L9.95 16.0 9.95 17.0 9.95 18.0 8.95 18.0 8.95 17.0 8.95 16.0 M10.95 18.0 L10.95 19.0 9.95 19.0 9.95 18.0 10.95 18.0 M4.75 25.0 L7.95 25.0 7.95 26.0 4.75 26.0 4.75 25.0 M5.95 19.0 L5.95 20.0 6.95 20.0 6.95 19.0 5.95 19.0 5.95 17.0 4.95 17.0 4.95 19.0 5.95 19.0 M3.95 29.0 L4.95 29.0 4.95 30.0 5.95 30.0 5.95 32.0 4.95 32.0 4.95 31.0 3.95 31.0 3.95 29.0 M5.95 32.0 L6.95 32.0 6.95 34.0 4.95 34.0 4.95 33.0 3.95 33.0 3.95 32.0 2.95 32.0 2.95 31.0 3.95 31.0 3.95 32.0 4.95 32.0 4.95 33.0 5.95 33.0 5.95 32.0 M-16.05 20.0 L-15.05 20.0 -15.05 19.0 -16.05 19.0 -16.05 20.0 M-16.05 23.0 L-15.05 23.0 -15.05 22.0 -16.05 22.0 -16.05 23.0 M-11.05 22.0 L-11.05 20.0 -12.05 20.0 -12.05 22.0 -11.05 22.0 M-9.05 21.0 L-9.05 22.0 -8.05 22.0 -8.05 21.0 -9.05 21.0 M-10.05 22.0 L-10.05 23.0 -9.05 23.0 -9.05 22.0 -10.05 22.0 M-8.05 24.0 L-7.05 24.0 -7.05 23.0 -8.05 23.0 -8.05 24.0 M-3.05 24.0 L-3.05 25.0 -2.05 25.0 -2.05 24.0 -3.05 24.0 M-5.05 18.0 L-6.05 18.0 -6.05 19.0 -5.05 19.0 -5.05 18.0 M-7.05 26.0 L-6.05 26.0 -6.05 25.0 -7.05 25.0 -7.05 26.0 M-8.05 29.0 L-7.05 29.0 -7.05 28.0 -8.05 28.0 -8.05 29.0 M-13.05 26.0 L-13.05 25.0 -14.05 25.0 -14.05 26.0 -13.05 26.0" fill="#c5c5c5" fill-rule="evenodd" stroke="none"/>
    <path d="M-0.05 14.0 L0.95 14.0 0.95 15.0 1.95 15.0 1.95 16.0 2.95 16.0 2.95 17.0 1.95 17.0 1.95 16.0 0.95 16.0 0.95 15.0 -0.05 15.0 -0.05 14.0 M-18.05 23.0 L-17.05 23.0 -17.05 24.0 -18.05 24.0 -18.05 23.0 M-3.05 28.0 L-3.05 27.0 -4.05 27.0 -4.05 26.0 -3.05 26.0 -3.05 27.0 -2.05 27.0 -2.05 28.0 -3.05 28.0 M-1.05 31.0 L-0.05 31.0 -0.05 32.0 -1.05 32.0 -1.05 31.0 M0.95 33.0 L1.95 33.0 1.95 34.0 0.95 34.0 0.95 33.0 M2.95 30.0 L2.95 28.0 3.95 28.0 3.95 29.0 3.95 31.0 4.95 31.0 4.95 32.0 5.95 32.0 5.95 33.0 4.95 33.0 4.95 32.0 3.95 32.0 3.95 31.0 2.95 31.0 2.95 30.0 M1.75 24.0 L0.95 24.0 0.95 25.0 -0.05 25.0 -0.05 24.0 0.95 24.0 0.95 23.0 -0.05 23.0 -0.05 22.0 -1.05 22.0 -1.05 21.0 -0.05 21.0 -0.05 22.0 0.95 22.0 0.95 23.0 1.75 23.0 1.75 24.0 M1.95 21.0 L1.95 20.0 2.75 20.0 2.75 21.0 1.95 21.0 M7.95 22.0 L7.95 21.0 8.95 21.0 8.95 22.0 7.95 22.0 M9.95 20.0 L8.95 20.0 8.95 19.0 8.95 18.0 9.95 18.0 9.95 17.0 10.95 17.0 10.95 18.0 9.95 18.0 9.95 19.0 9.95 20.0 M7.95 18.0 L6.95 18.0 6.95 17.0 7.95 17.0 7.95 16.0 8.95 16.0 8.95 17.0 7.95 17.0 7.95 18.0 M5.95 19.0 L6.95 19.0 6.95 20.0 5.95 20.0 5.95 19.0 M-16.05 20.0 L-16.05 19.0 -15.05 19.0 -15.05 20.0 -16.05 20.0 M-11.05 22.0 L-12.05 22.0 -12.05 20.0 -11.05 20.0 -11.05 22.0 M-16.05 23.0 L-16.05 22.0 -15.05 22.0 -15.05 23.0 -16.05 23.0 M-5.05 18.0 L-5.05 19.0 -6.05 19.0 -6.05 18.0 -5.05 18.0 M-3.05 24.0 L-2.05 24.0 -2.05 25.0 -3.05 25.0 -3.05 24.0 M-8.05 24.0 L-8.05 23.0 -7.05 23.0 -7.05 24.0 -8.05 24.0 M-10.05 22.0 L-9.05 22.0 -9.05 23.0 -10.05 23.0 -10.05 22.0 M-9.05 21.0 L-8.05 21.0 -8.05 22.0 -9.05 22.0 -9.05 21.0 M-8.05 29.0 L-8.05 28.0 -7.05 28.0 -7.05 29.0 -8.05 29.0 M-7.05 26.0 L-7.05 25.0 -6.05 25.0 -6.05 26.0 -7.05 26.0 M-13.05 26.0 L-14.05 26.0 -14.05 25.0 -13.05 25.0 -13.05 26.0" fill="#c4c4c4" fill-rule="evenodd" stroke="none"/>
    <path d="M2.75 21.0 L4.75 21.0 4.75 23.0 8.75 23.0 8.75 24.0 4.75 24.0 4.75 25.0 2.75 25.0 2.75 24.0 3.75 24.0 3.75 23.0 2.75 23.0 2.75 21.0 M11.95 20.0 L13.95 20.0 13.95 21.0 11.95 21.0 11.95 20.0" fill="#ffffff" fill-rule="evenodd" stroke="none"/>
  </g>
</svg>
