<?xml version="1.0" encoding="UTF-8" standalone="no"?>
<svg xmlns:ffdec="https://www.free-decompiler.com/flash" xmlns:xlink="http://www.w3.org/1999/xlink" ffdec:objectType="shape" height="18.0px" width="11.0px" xmlns="http://www.w3.org/2000/svg">
  <g transform="matrix(1.0, 0.0, 0.0, 1.0, 5.0, 9.0)">
    <path d="M-4.0 -6.0 L-4.0 -7.0 -1.0 -7.0 -1.0 -9.0 2.0 -9.0 2.0 -7.0 5.0 -7.0 5.0 -6.0 1.0 -6.0 1.0 -8.0 0.0 -8.0 0.0 -6.0 -4.0 -6.0 M5.0 -5.0 L5.0 -3.0 4.0 -3.0 4.0 -2.0 3.0 -2.0 3.0 1.0 4.0 1.0 4.0 2.0 5.0 2.0 5.0 5.0 6.0 5.0 6.0 8.0 5.0 8.0 5.0 9.0 -4.0 9.0 -4.0 8.0 -5.0 8.0 -5.0 5.0 -4.0 5.0 -4.0 2.0 -3.0 2.0 -3.0 1.0 -2.0 1.0 -2.0 -2.0 -3.0 -2.0 -3.0 -3.0 -4.0 -3.0 -4.0 -5.0 5.0 -5.0 M-1.0 -3.0 L-1.0 0.0 2.0 0.0 2.0 -3.0 3.0 -3.0 3.0 -4.0 -2.0 -4.0 -2.0 -3.0 -1.0 -3.0 M-2.0 3.0 L-3.0 3.0 -3.0 5.0 4.0 5.0 4.0 3.0 3.0 3.0 3.0 2.0 2.0 2.0 2.0 1.0 -1.0 1.0 -1.0 2.0 -2.0 2.0 -2.0 3.0 M0.0 3.0 L1.0 3.0 1.0 4.0 0.0 4.0 0.0 3.0" fill="#000000" fill-rule="evenodd" stroke="none"/>
    <path d="M5.0 -6.0 L5.0 -5.0 -4.0 -5.0 -4.0 -6.0 0.0 -6.0 0.0 -8.0 1.0 -8.0 1.0 -6.0 5.0 -6.0 M0.0 3.0 L0.0 4.0 1.0 4.0 1.0 3.0 0.0 3.0 M-2.0 3.0 L-2.0 2.0 -1.0 2.0 -1.0 1.0 2.0 1.0 2.0 2.0 3.0 2.0 3.0 3.0 4.0 3.0 4.0 5.0 -3.0 5.0 -3.0 3.0 -2.0 3.0" fill="#ffffff" fill-rule="evenodd" stroke="none"/>
    <path d="M-1.0 -3.0 L-2.0 -3.0 -2.0 -4.0 3.0 -4.0 3.0 -3.0 2.0 -3.0 2.0 0.0 -1.0 0.0 -1.0 -3.0" fill="#767676" fill-rule="evenodd" stroke="none"/>
  </g>
</svg>
