<?xml version="1.0" encoding="UTF-8" standalone="no"?>
<svg xmlns:ffdec="https://www.free-decompiler.com/flash" xmlns:xlink="http://www.w3.org/1999/xlink" ffdec:objectType="shape" height="16.0px" width="57.0px" xmlns="http://www.w3.org/2000/svg">
  <g transform="matrix(1.0, 0.0, 0.0, 1.0, 21.0, -17.0)">
    <path d="M26.0 27.0 L28.0 27.0 28.0 26.0 29.0 26.0 29.0 25.0 30.0 25.0 30.0 24.0 32.0 24.0 32.0 22.0 34.0 22.0 34.0 20.0 36.0 20.0 36.0 21.0 35.0 21.0 35.0 22.0 34.0 22.0 34.0 23.0 33.0 23.0 33.0 24.0 32.0 24.0 32.0 25.0 31.0 25.0 31.0 26.0 30.0 26.0 30.0 27.0 29.0 27.0 29.0 28.0 27.0 28.0 27.0 29.0 25.0 29.0 25.0 30.0 22.0 30.0 22.0 31.0 18.0 31.0 18.0 32.0 13.0 32.0 13.0 33.0 4.0 33.0 4.0 32.0 1.0 32.0 1.0 31.0 -3.0 31.0 -3.0 30.0 -5.0 30.0 -5.0 29.0 -8.0 29.0 -8.0 28.0 -10.0 28.0 -10.0 27.0 -12.0 27.0 -12.0 26.0 -13.0 26.0 -13.0 25.0 -15.0 25.0 -15.0 24.0 -16.0 24.0 -16.0 23.0 -17.0 23.0 -17.0 22.0 -18.0 22.0 -18.0 21.0 -19.0 21.0 -19.0 20.0 -20.0 20.0 -20.0 19.0 -21.0 19.0 -21.0 17.0 -20.0 17.0 -20.0 18.0 -19.0 18.0 -19.0 19.0 -18.0 19.0 -18.0 20.0 -17.0 20.0 -17.0 21.0 -16.0 21.0 -16.0 22.0 -15.0 22.0 -15.0 23.0 -14.0 23.0 -14.0 24.0 -13.0 24.0 -13.0 25.0 -11.0 25.0 -11.0 26.0 -9.0 26.0 -9.0 27.0 -8.0 27.0 -8.0 28.0 -5.0 28.0 -5.0 29.0 -2.0 29.0 -2.0 30.0 3.0 30.0 3.0 31.0 5.0 31.0 5.0 32.0 12.0 32.0 12.0 31.0 17.0 31.0 17.0 30.0 22.0 30.0 22.0 29.0 24.0 29.0 24.0 28.0 26.0 28.0 26.0 27.0" fill="#000000" fill-rule="evenodd" stroke="none"/>
  </g>
</svg>
