<?xml version="1.0" encoding="UTF-8" standalone="no"?>
<svg xmlns:ffdec="https://www.free-decompiler.com/flash" xmlns:xlink="http://www.w3.org/1999/xlink" ffdec:objectType="shape" height="17.95px" width="8.0px" xmlns="http://www.w3.org/2000/svg">
  <g transform="matrix(1.0, 0.0, 0.0, 1.0, 3.0, 8.95)">
    <path d="M0.0 -8.95 L0.0 -5.95 -1.0 -5.95 -1.0 -4.95 -2.0 -4.95 -2.0 -4.0 2.0 -4.0 2.0 -5.0 1.0 -5.0 1.0 -8.95 2.0 -8.95 2.0 -5.95 3.0 -5.95 3.0 2.0 4.0 2.0 4.0 3.0 5.0 3.0 5.0 9.0 -2.0 9.0 -2.0 0.05 -3.0 0.05 -3.0 -4.95 -2.0 -4.95 -2.0 -5.95 -1.0 -5.95 -1.0 -8.95 0.0 -8.95 M-2.0 0.05 L-1.0 0.05 -1.0 0.0 2.0 0.0 2.0 -3.0 -1.0 -3.0 -1.0 -2.95 -2.0 -2.95 -2.0 0.05 M3.0 3.0 L2.0 3.0 2.0 1.0 -1.0 1.0 -1.0 5.0 3.0 5.0 3.0 3.0" fill="#000000" fill-rule="evenodd" stroke="none"/>
    <path d="M1.0 -8.95 L1.0 -5.0 2.0 -5.0 2.0 -4.0 -2.0 -4.0 -2.0 -4.95 -1.0 -4.95 -1.0 -5.95 0.0 -5.95 0.0 -8.95 1.0 -8.95 M3.0 3.0 L3.0 5.0 -1.0 5.0 -1.0 1.0 2.0 1.0 2.0 3.0 3.0 3.0" fill="#ffffff" fill-rule="evenodd" stroke="none"/>
    <path d="M-2.0 0.05 L-2.0 -2.95 -1.0 -2.95 -1.0 -3.0 2.0 -3.0 2.0 0.0 -1.0 0.0 -1.0 0.05 -2.0 0.05" fill="#656565" fill-rule="evenodd" stroke="none"/>
  </g>
</svg>
