<?xml version="1.0" encoding="UTF-8" standalone="no"?>
<svg xmlns:ffdec="https://www.free-decompiler.com/flash" xmlns:xlink="http://www.w3.org/1999/xlink" ffdec:objectType="shape" height="30.0px" width="12.0px" xmlns="http://www.w3.org/2000/svg">
  <g transform="matrix(1.0, 0.0, 0.0, 1.0, 37.95, -5.0)">
    <path d="M-30.0 16.0 L-30.0 22.0 -28.95 22.0 -28.95 25.0 -27.95 25.0 -27.95 27.0 -26.95 26.95 -26.95 28.0 -31.8 28.0 -30.95 28.0 -30.95 30.0 -27.95 30.0 -27.95 31.0 -26.95 31.0 -26.95 32.0 -25.95 32.0 -25.95 35.0 -31.95 35.0 -31.95 34.0 -32.95 34.0 -32.95 35.0 -34.95 35.0 -34.95 31.0 -33.95 31.0 -33.95 27.95 -36.0 27.95 -35.95 28.0 -36.0 28.0 -36.0 27.95 -36.95 27.95 -36.95 27.0 -36.0 27.0 -35.95 16.0 -30.0 16.0 M-32.95 28.0 L-32.95 32.0 -33.95 32.0 -33.95 33.0 -30.95 33.0 -30.95 31.0 -31.95 31.0 -31.95 28.0 -32.95 28.0 M-26.95 32.0 L-27.95 32.0 -27.95 33.0 -26.95 33.0 -26.95 32.0 M-28.95 33.0 L-28.95 31.0 -29.95 31.0 -29.95 33.0 -28.95 33.0" fill="#000000" fill-rule="evenodd" stroke="none"/>
    <path d="M-26.95 32.0 L-26.95 33.0 -27.95 33.0 -27.95 32.0 -26.95 32.0 M-32.95 28.0 L-31.95 28.0 -31.95 31.0 -30.95 31.0 -30.95 33.0 -33.95 33.0 -33.95 32.0 -32.95 32.0 -32.95 28.0" fill="#ffffff" fill-rule="evenodd" stroke="none"/>
    <path d="M-28.95 33.0 L-29.95 33.0 -29.95 31.0 -28.95 31.0 -28.95 33.0" fill="#767676" fill-rule="evenodd" stroke="none"/>
    <path d="M-32.95 6.0 L-32.95 7.0 -31.95 7.0 -31.95 8.0 -32.95 8.0 -32.95 12.0 -33.95 12.0 -33.95 14.0 -32.95 14.0 -32.95 15.0 -30.95 15.0 -30.95 16.0 -30.0 16.0 -30.0 18.0 -34.0 18.0 -34.0 17.75 -33.95 17.75 -33.95 17.05 -34.0 17.05 -34.0 17.0 -35.0 17.0 -35.0 18.0 -36.0 18.0 -36.0 18.1 -36.95 18.1 -36.95 17.0 -37.95 17.0 -37.95 14.0 -36.95 14.0 -36.95 11.0 -35.95 11.0 -35.95 7.0 -34.95 7.0 -34.95 5.0 -33.95 5.0 -33.95 6.0 -32.95 6.0 M-32.95 8.0 L-32.95 7.0 -34.95 7.0 -34.95 11.0 -35.95 11.0 -35.95 15.0 -36.95 15.0 -36.95 17.0 -35.95 17.0 -35.95 16.0 -33.95 16.0 -33.95 17.0 -30.95 17.0 -30.95 16.0 -32.95 16.0 -32.95 15.0 -34.95 15.0 -34.95 12.0 -33.95 12.0 -33.95 8.0 -32.95 8.0" fill="#000000" fill-rule="evenodd" stroke="none"/>
    <path d="M-33.95 5.0 L-32.95 5.0 -32.95 6.0 -33.95 6.0 -33.95 5.0" fill="#656565" fill-rule="evenodd" stroke="none"/>
    <path d="M-32.95 8.0 L-33.95 8.0 -33.95 12.0 -34.95 12.0 -34.95 15.0 -32.95 15.0 -32.95 16.0 -30.95 16.0 -30.95 17.0 -33.95 17.0 -33.95 16.0 -35.95 16.0 -35.95 17.0 -36.95 17.0 -36.95 15.0 -35.95 15.0 -35.95 11.0 -34.95 11.0 -34.95 7.0 -32.95 7.0 -32.95 8.0" fill="#ffffff" fill-rule="evenodd" stroke="none"/>
  </g>
</svg>
