<?xml version="1.0" encoding="UTF-8" standalone="no"?>
<svg xmlns:ffdec="https://www.free-decompiler.com/flash" xmlns:xlink="http://www.w3.org/1999/xlink" ffdec:objectType="shape" height="30.0px" width="27.0px" xmlns="http://www.w3.org/2000/svg">
  <g transform="matrix(1.0, 0.0, 0.0, 1.0, 12.0, 15.0)">
    <path d="M8.0 -13.0 L10.0 -13.0 10.0 -12.0 11.0 -12.0 11.0 -11.0 12.0 -11.0 12.0 -10.0 13.0 -10.0 13.0 -9.0 14.0 -9.0 14.0 -3.0 15.0 -3.0 15.0 7.0 14.0 7.0 14.0 11.0 13.0 11.0 13.0 12.0 12.0 12.0 12.0 13.0 10.0 13.0 10.0 14.0 9.0 14.0 9.0 15.0 0.0 15.0 0.0 14.0 -3.0 14.0 -3.0 12.0 -2.0 12.0 -2.0 13.0 2.0 13.0 2.0 14.0 7.0 14.0 7.0 13.0 9.0 13.0 9.0 12.0 11.0 12.0 11.0 11.0 12.0 11.0 12.0 10.0 13.0 10.0 13.0 6.0 14.0 6.0 14.0 -2.0 13.0 -2.0 13.0 -8.0 12.0 -8.0 12.0 -9.0 11.0 -9.0 11.0 -10.0 10.0 -10.0 10.0 -11.0 9.0 -11.0 9.0 -12.0 8.0 -12.0 8.0 -13.0 6.0 -13.0 6.0 -14.0 -6.0 -14.0 -6.0 -15.0 7.0 -15.0 7.0 -14.0 8.0 -14.0 8.0 -13.0 M-6.0 -14.0 L-6.0 -13.0 -7.0 -13.0 -7.0 -12.0 -9.0 -12.0 -9.0 -11.0 -10.0 -11.0 -10.0 -10.0 -11.0 -10.0 -11.0 -9.0 -10.0 -9.0 -10.0 -8.0 -9.0 -8.0 -9.0 -7.0 -7.0 -7.0 -7.0 -6.0 -4.0 -6.0 -4.0 -8.0 -2.0 -8.0 -2.0 -9.0 1.0 -9.0 1.0 -10.0 6.0 -10.0 6.0 -7.0 3.0 -7.0 3.0 -8.0 5.0 -8.0 5.0 -9.0 2.0 -9.0 2.0 -8.0 -1.0 -8.0 -1.0 -7.0 -3.0 -7.0 -3.0 -6.0 -1.0 -6.0 -1.0 -7.0 3.0 -7.0 3.0 -6.0 0.0 -6.0 0.0 -5.0 -4.0 -5.0 -4.0 -4.0 -3.0 -4.0 -3.0 -2.0 -2.0 -2.0 -2.0 1.0 -1.0 1.0 -1.0 5.0 -2.0 5.0 -2.0 7.0 -3.0 7.0 -3.0 12.0 -4.0 12.0 -4.0 6.0 -3.0 6.0 -3.0 4.0 -2.0 4.0 -2.0 2.0 -3.0 2.0 -3.0 -1.0 -4.0 -1.0 -4.0 -3.0 -5.0 -3.0 -5.0 -5.0 -9.0 -5.0 -9.0 -6.0 -10.0 -6.0 -10.0 -7.0 -11.0 -7.0 -11.0 -8.0 -12.0 -8.0 -12.0 -11.0 -11.0 -11.0 -11.0 -12.0 -10.0 -12.0 -10.0 -13.0 -8.0 -13.0 -8.0 -14.0 -6.0 -14.0" fill="#000000" fill-rule="evenodd" stroke="none"/>
    <path d="M8.0 -13.0 L8.0 -12.0 9.0 -12.0 9.0 -11.0 10.0 -11.0 10.0 -10.0 11.0 -10.0 11.0 -9.0 12.0 -9.0 12.0 -8.0 13.0 -8.0 13.0 -2.0 14.0 -2.0 14.0 6.0 13.0 6.0 13.0 10.0 12.0 10.0 12.0 11.0 11.0 11.0 11.0 12.0 9.0 12.0 9.0 13.0 7.0 13.0 7.0 14.0 2.0 14.0 2.0 13.0 -2.0 13.0 -2.0 12.0 -3.0 12.0 -3.0 7.0 -2.0 7.0 -2.0 5.0 -1.0 5.0 -1.0 1.0 -2.0 1.0 -2.0 -2.0 -3.0 -2.0 -3.0 -4.0 -4.0 -4.0 -4.0 -5.0 0.0 -5.0 0.0 -6.0 3.0 -6.0 3.0 -7.0 -1.0 -7.0 -1.0 -6.0 -3.0 -6.0 -3.0 -7.0 -1.0 -7.0 -1.0 -8.0 2.0 -8.0 2.0 -9.0 5.0 -9.0 5.0 -8.0 3.0 -8.0 3.0 -7.0 6.0 -7.0 6.0 -10.0 1.0 -10.0 1.0 -9.0 -2.0 -9.0 -2.0 -8.0 -4.0 -8.0 -4.0 -6.0 -7.0 -6.0 -7.0 -7.0 -9.0 -7.0 -9.0 -8.0 -10.0 -8.0 -10.0 -9.0 -11.0 -9.0 -11.0 -10.0 -10.0 -10.0 -10.0 -11.0 -9.0 -11.0 -9.0 -12.0 -7.0 -12.0 -7.0 -13.0 -6.0 -13.0 -6.0 -14.0 6.0 -14.0 6.0 -13.0 8.0 -13.0" fill="#ffffff" fill-rule="evenodd" stroke="none"/>
  </g>
</svg>
