<?xml version="1.0" encoding="UTF-8" standalone="no"?>
<svg xmlns:ffdec="https://www.free-decompiler.com/flash" xmlns:xlink="http://www.w3.org/1999/xlink" ffdec:objectType="shape" height="13.0px" width="9.0px" xmlns="http://www.w3.org/2000/svg">
  <g transform="matrix(1.0, 0.0, 0.0, 1.0, 33.0, -5.0)">
    <path d="M-30.0 8.0 L-28.0 8.0 -28.0 10.0 -27.0 10.0 -27.0 11.0 -26.0 11.0 -26.0 12.0 -25.0 12.0 -25.0 13.0 -24.0 13.0 -24.0 16.0 -25.0 16.0 -25.0 18.0 -30.0 18.0 -30.0 12.0 -29.0 12.0 -29.0 13.0 -28.0 13.0 -28.0 14.0 -29.0 14.0 -29.0 17.0 -26.0 17.0 -26.0 16.0 -27.0 16.0 -27.0 12.0 -28.0 12.0 -28.0 11.0 -29.0 11.0 -29.0 9.0 -30.0 9.0 -30.0 8.0 -31.0 8.0 -31.0 7.0 -32.0 7.0 -32.0 6.0 -33.0 6.0 -33.0 5.0 -31.0 5.0 -31.0 6.0 -30.0 6.0 -30.0 8.0 M-31.0 10.0 L-30.0 10.0 -30.0 12.0 -31.0 12.0 -31.0 10.0 -32.0 10.0 -32.0 9.0 -33.0 9.0 -33.0 8.0 -32.0 8.0 -32.0 9.0 -31.0 9.0 -31.0 10.0 M-25.0 14.0 L-26.0 14.0 -26.0 15.0 -25.0 15.0 -25.0 14.0" fill="#000000" fill-rule="evenodd" stroke="none"/>
    <path d="M-30.0 8.0 L-30.0 9.0 -29.0 9.0 -29.0 11.0 -28.0 11.0 -28.0 12.0 -27.0 12.0 -27.0 16.0 -26.0 16.0 -26.0 17.0 -29.0 17.0 -29.0 14.0 -28.0 14.0 -28.0 13.0 -29.0 13.0 -29.0 12.0 -30.0 12.0 -30.0 10.0 -31.0 10.0 -31.0 9.0 -32.0 9.0 -32.0 8.0 -33.0 8.0 -33.0 6.0 -32.0 6.0 -32.0 7.0 -31.0 7.0 -31.0 8.0 -30.0 8.0 M-25.0 14.0 L-25.0 15.0 -26.0 15.0 -26.0 14.0 -25.0 14.0" fill="#ffffff" fill-rule="evenodd" stroke="none"/>
  </g>
</svg>
