<?xml version="1.0" encoding="UTF-8" standalone="no"?>
<svg xmlns:ffdec="https://www.free-decompiler.com/flash" xmlns:xlink="http://www.w3.org/1999/xlink" ffdec:objectType="shape" height="34.0px" width="68.0px" xmlns="http://www.w3.org/2000/svg">
  <g transform="matrix(1.0, 0.0, 0.0, 1.0, 30.0, 22.0)">
    <path d="M10.0 -21.0 L10.0 -20.0 12.0 -20.0 12.0 -19.0 14.0 -19.0 14.0 -18.0 15.0 -18.0 15.0 -17.0 17.0 -17.0 17.0 -16.0 18.0 -16.0 18.0 -15.0 20.0 -15.0 20.0 -14.0 21.0 -14.0 21.0 -13.0 22.0 -13.0 22.0 -12.0 23.0 -12.0 23.0 -11.0 24.0 -11.0 24.0 -10.0 27.0 -10.0 27.0 -9.0 28.0 -9.0 28.0 -8.0 29.0 -8.0 29.0 -5.0 30.0 -5.0 30.0 -4.0 31.0 -4.0 31.0 -3.0 32.0 -3.0 32.0 -2.0 33.0 -2.0 33.0 1.0 34.0 1.0 34.0 2.0 33.0 2.0 33.0 1.0 32.0 1.0 32.0 -1.0 31.0 -1.0 31.0 -2.0 30.0 -2.0 30.0 -3.0 29.0 -3.0 29.0 -5.0 28.0 -5.0 28.0 -6.0 27.0 -6.0 27.0 -5.0 26.0 -5.0 26.0 -6.0 25.0 -6.0 25.0 -7.0 24.0 -7.0 24.0 -10.0 23.0 -10.0 23.0 -11.0 22.0 -11.0 22.0 -12.0 21.0 -12.0 21.0 -13.0 20.0 -13.0 20.0 -14.0 18.0 -14.0 18.0 -15.0 17.0 -15.0 17.0 -16.0 15.0 -16.0 15.0 -17.0 14.0 -17.0 14.0 -18.0 12.0 -18.0 12.0 -19.0 9.0 -19.0 9.0 -20.0 7.0 -20.0 7.0 -21.0 -1.0 -21.0 -1.0 -20.0 -4.0 -20.0 -4.0 -19.0 -6.0 -19.0 -6.0 -18.0 -8.0 -18.0 -8.0 -17.0 -10.0 -17.0 -10.0 -16.0 -11.0 -16.0 -11.0 -15.0 -13.0 -15.0 -13.0 -14.0 -14.0 -14.0 -14.0 -13.0 -15.0 -13.0 -15.0 -12.0 -16.0 -12.0 -16.0 -11.0 -17.0 -11.0 -17.0 -10.0 -18.0 -10.0 -18.0 -9.0 -19.0 -9.0 -19.0 -7.0 -20.0 -7.0 -20.0 -6.0 -21.0 -6.0 -21.0 -7.0 -20.0 -7.0 -20.0 -9.0 -19.0 -9.0 -19.0 -10.0 -18.0 -10.0 -18.0 -11.0 -17.0 -11.0 -17.0 -12.0 -16.0 -12.0 -16.0 -13.0 -15.0 -13.0 -15.0 -14.0 -14.0 -14.0 -14.0 -15.0 -13.0 -15.0 -13.0 -16.0 -11.0 -16.0 -11.0 -17.0 -10.0 -17.0 -10.0 -18.0 -9.0 -18.0 -9.0 -19.0 -7.0 -19.0 -7.0 -20.0 -4.0 -20.0 -4.0 -21.0 -2.0 -21.0 -2.0 -22.0 7.0 -22.0 7.0 -21.0 10.0 -21.0 M-30.0 2.0 L-29.0 2.0 -29.0 1.0 -27.0 1.0 -27.0 0.0 -26.0 0.0 -26.0 -1.0 -24.0 -1.0 -24.0 -2.0 -23.0 -2.0 -23.0 -3.0 -22.0 -3.0 -22.0 -2.0 -23.0 -2.0 -23.0 -1.0 -24.0 -1.0 -24.0 0.0 -26.0 0.0 -26.0 1.0 -27.0 1.0 -27.0 2.0 -29.0 2.0 -29.0 3.0 -30.0 3.0 -30.0 2.0" fill="#000000" fill-rule="evenodd" stroke="none"/>
    <path d="M34.0 8.0 L31.0 8.0 31.0 7.0 30.0 7.0 30.0 3.0 29.0 3.0 29.0 4.0 28.0 4.0 28.0 2.0 26.0 2.0 26.0 5.0 29.0 5.0 29.0 8.0 30.0 8.0 30.0 9.0 32.0 9.0 32.0 10.0 33.0 10.0 33.0 11.0 31.0 11.0 31.0 10.0 29.0 10.0 29.0 9.0 28.0 9.0 28.0 6.0 25.0 6.0 25.0 1.0 29.0 1.0 29.0 2.0 31.0 2.0 31.0 6.0 32.0 6.0 32.0 7.0 34.0 7.0 34.0 8.0 35.0 8.0 35.0 9.0 36.0 9.0 36.0 8.0 38.0 8.0 38.0 9.0 37.0 9.0 37.0 10.0 35.0 10.0 35.0 9.0 34.0 9.0 34.0 8.0 M33.0 11.0 L34.0 11.0 34.0 12.0 33.0 12.0 33.0 11.0" fill="#000000" fill-rule="evenodd" stroke="none"/>
    <path d="M33.0 11.0 L33.0 10.0 32.0 10.0 32.0 9.0 30.0 9.0 30.0 8.0 29.0 8.0 29.0 5.0 26.0 5.0 26.0 2.0 28.0 2.0 28.0 4.0 29.0 4.0 29.0 3.0 30.0 3.0 30.0 7.0 31.0 7.0 31.0 8.0 34.0 8.0 34.0 9.0 35.0 9.0 35.0 10.0 35.0 11.0 34.0 11.0 33.0 11.0" fill="#ffffff" fill-rule="evenodd" stroke="none"/>
  </g>
</svg>
